<?xml version="1.0" encoding="UTF-8"?>
<!DOCTYPE xmeml SYSTEM "http://babylondreams.de/shared/xmeml-CjF5/xmeml.dtd">
<xmeml version="5">
    <sequence>
        <name>Smstag Morgen Schnitt (Resolve)</name>
        <duration>113399</duration>
        <rate>
            <timebase>25</timebase>
            <ntsc>false</ntsc>
        </rate>
        <in>-1</in>
        <out>-1</out>
        <timecode>
            <string>01:00:00:00</string>
            <frame>90000</frame>
            <displayformat>NDF</displayformat>
            <rate>
                <timebase>25</timebase>
                <ntsc>false</ntsc>
            </rate>
        </timecode>
        <media>
            <video>
                <track>
                    <generatoritem id="Solid Color 0">
                        <name>Solid Color</name>
                        <duration>742</duration>
                        <rate>
                            <timebase>25</timebase>
                            <ntsc>false</ntsc>
                        </rate>
                        <in>-287</in>
                        <out>84</out>
                        <start>3560</start>
                        <end>-1</end>
                        <enabled>true</enabled>
                        <effect>
                            <name>Color Solid</name>
                            <effectid>FxPlugWrapper:C18E8B62_C24F_4F8D_8597_858675A40BBC</effectid>
                            <effecttype>generator</effecttype>
                            <mediatype>video</mediatype>
                            <parameter>
                                <name>Color</name>
                                <parameterid>input_1</parameterid>
                                <value>
                                    <red>0</red>
                                    <green>0</green>
                                    <blue>0</blue>
                                    <alpha>255</alpha>
                                </value>
                            </parameter>
                            <rate>
                                <timebase>25</timebase>
                                <ntsc>false</ntsc>
                            </rate>
                            <duration>742</duration>
                            <effectclass>FxPlug</effectclass>
                        </effect>
                        <filter>
                            <enabled>true</enabled>
                            <start>0</start>
                            <end>742</end>
                            <effect>
                                <name>Opacity</name>
                                <effectid>opacity</effectid>
                                <effecttype>motion</effecttype>
                                <mediatype>video</mediatype>
                                <effectcategory>motion</effectcategory>
                                <parameter>
                                    <name>opacity</name>
                                    <parameterid>opacity</parameterid>
                                    <value>100</value>
                                    <valuemin>0</valuemin>
                                    <valuemax>100</valuemax>
                                </parameter>
                            </effect>
                        </filter>
                        <filter>
                            <enabled>true</enabled>
                            <start>0</start>
                            <end>742</end>
                            <effect>
                                <name>Basic Motion</name>
                                <effectid>basic</effectid>
                                <effecttype>motion</effecttype>
                                <mediatype>video</mediatype>
                                <effectcategory>motion</effectcategory>
                                <parameter>
                                    <name>Scale</name>
                                    <parameterid>scale</parameterid>
                                    <value>100</value>
                                    <valuemin>25</valuemin>
                                    <valuemax>400</valuemax>
                                </parameter>
                                <parameter>
                                    <name>Center</name>
                                    <parameterid>center</parameterid>
                                    <value>
                                        <horiz>0</horiz>
                                        <vert>0</vert>
                                    </value>
                                </parameter>
                                <parameter>
                                    <name>Rotation</name>
                                    <parameterid>rotation</parameterid>
                                    <value>0</value>
                                    <valuemin>-100000</valuemin>
                                    <valuemax>100000</valuemax>
                                </parameter>
                                <parameter>
                                    <name>Anchor Point</name>
                                    <parameterid>centerOffset</parameterid>
                                    <value>
                                        <horiz>0</horiz>
                                        <vert>0</vert>
                                    </value>
                                </parameter>
                            </effect>
                        </filter>
                        <filter>
                            <enabled>true</enabled>
                            <start>0</start>
                            <end>742</end>
                            <effect>
                                <name>Crop</name>
                                <effectid>crop</effectid>
                                <effecttype>motion</effecttype>
                                <mediatype>video</mediatype>
                                <effectcategory>motion</effectcategory>
                                <parameter>
                                    <name>left</name>
                                    <parameterid>left</parameterid>
                                    <value>0</value>
                                    <valuemin>0</valuemin>
                                    <valuemax>100</valuemax>
                                </parameter>
                                <parameter>
                                    <name>right</name>
                                    <parameterid>right</parameterid>
                                    <value>0</value>
                                    <valuemin>0</valuemin>
                                    <valuemax>100</valuemax>
                                </parameter>
                                <parameter>
                                    <name>top</name>
                                    <parameterid>top</parameterid>
                                    <value>0</value>
                                    <valuemin>0</valuemin>
                                    <valuemax>100</valuemax>
                                </parameter>
                                <parameter>
                                    <name>bottom</name>
                                    <parameterid>bottom</parameterid>
                                    <value>0</value>
                                    <valuemin>0</valuemin>
                                    <valuemax>100</valuemax>
                                </parameter>
                            </effect>
                        </filter>
                    </generatoritem>
                    <transitionitem>
                        <rate>
                            <timebase>25</timebase>
                            <ntsc>false</ntsc>
                        </rate>
                        <start>3919</start>
                        <end>3944</end>
                        <alignment>center</alignment>
                        <effect>
                            <name>Cross Dissolve</name>
                            <effectid>Cross Dissolve</effectid>
                            <effecttype>transition</effecttype>
                            <mediatype>video</mediatype>
                            <effectcategory>Dissolve</effectcategory>
                            <startratio>0</startratio>
                            <endratio>1</endratio>
                            <reverse>false</reverse>
                        </effect>
                        <name>Cross Dissolve</name>
                    </transitionitem>
                    <generatoritem id="Solid Color 1">
                        <name>Solid Color</name>
                        <duration>354</duration>
                        <rate>
                            <timebase>25</timebase>
                            <ntsc>false</ntsc>
                        </rate>
                        <in>-325</in>
                        <out>-148</out>
                        <start>-1</start>
                        <end>4108</end>
                        <enabled>true</enabled>
                        <effect>
                            <name>Color Solid</name>
                            <effectid>FxPlugWrapper:C18E8B62_C24F_4F8D_8597_858675A40BBC</effectid>
                            <effecttype>generator</effecttype>
                            <mediatype>video</mediatype>
                            <parameter>
                                <name>Color</name>
                                <parameterid>input_1</parameterid>
                                <value>
                                    <red>0</red>
                                    <green>0</green>
                                    <blue>0</blue>
                                    <alpha>255</alpha>
                                </value>
                            </parameter>
                            <rate>
                                <timebase>25</timebase>
                                <ntsc>false</ntsc>
                            </rate>
                            <duration>354</duration>
                            <effectclass>FxPlug</effectclass>
                        </effect>
                        <filter>
                            <enabled>true</enabled>
                            <start>0</start>
                            <end>354</end>
                            <effect>
                                <name>Opacity</name>
                                <effectid>opacity</effectid>
                                <effecttype>motion</effecttype>
                                <mediatype>video</mediatype>
                                <effectcategory>motion</effectcategory>
                                <parameter>
                                    <name>opacity</name>
                                    <parameterid>opacity</parameterid>
                                    <value>100</value>
                                    <valuemin>0</valuemin>
                                    <valuemax>100</valuemax>
                                </parameter>
                            </effect>
                        </filter>
                        <filter>
                            <enabled>true</enabled>
                            <start>0</start>
                            <end>354</end>
                            <effect>
                                <name>Basic Motion</name>
                                <effectid>basic</effectid>
                                <effecttype>motion</effecttype>
                                <mediatype>video</mediatype>
                                <effectcategory>motion</effectcategory>
                                <parameter>
                                    <name>Scale</name>
                                    <parameterid>scale</parameterid>
                                    <value>100</value>
                                    <valuemin>25</valuemin>
                                    <valuemax>400</valuemax>
                                </parameter>
                                <parameter>
                                    <name>Center</name>
                                    <parameterid>center</parameterid>
                                    <value>
                                        <horiz>0</horiz>
                                        <vert>0</vert>
                                    </value>
                                </parameter>
                                <parameter>
                                    <name>Rotation</name>
                                    <parameterid>rotation</parameterid>
                                    <value>0</value>
                                    <valuemin>-100000</valuemin>
                                    <valuemax>100000</valuemax>
                                </parameter>
                                <parameter>
                                    <name>Anchor Point</name>
                                    <parameterid>centerOffset</parameterid>
                                    <value>
                                        <horiz>0</horiz>
                                        <vert>0</vert>
                                    </value>
                                </parameter>
                            </effect>
                        </filter>
                        <filter>
                            <enabled>true</enabled>
                            <start>0</start>
                            <end>354</end>
                            <effect>
                                <name>Crop</name>
                                <effectid>crop</effectid>
                                <effecttype>motion</effecttype>
                                <mediatype>video</mediatype>
                                <effectcategory>motion</effectcategory>
                                <parameter>
                                    <name>left</name>
                                    <parameterid>left</parameterid>
                                    <value>0</value>
                                    <valuemin>0</valuemin>
                                    <valuemax>100</valuemax>
                                </parameter>
                                <parameter>
                                    <name>right</name>
                                    <parameterid>right</parameterid>
                                    <value>0</value>
                                    <valuemin>0</valuemin>
                                    <valuemax>100</valuemax>
                                </parameter>
                                <parameter>
                                    <name>top</name>
                                    <parameterid>top</parameterid>
                                    <value>0</value>
                                    <valuemin>0</valuemin>
                                    <valuemax>100</valuemax>
                                </parameter>
                                <parameter>
                                    <name>bottom</name>
                                    <parameterid>bottom</parameterid>
                                    <value>0</value>
                                    <valuemin>0</valuemin>
                                    <valuemax>100</valuemax>
                                </parameter>
                            </effect>
                        </filter>
                    </generatoritem>
                    <clipitem id="Samstag Morgen Multi 0">
                        <name>Samstag Morgen Multi</name>
                        <duration>115210</duration>
                        <rate>
                            <timebase>25</timebase>
                            <ntsc>false</ntsc>
                        </rate>
                        <start>5613</start>
                        <end>6172</end>
                        <enabled>true</enabled>
                        <in>5613</in>
                        <out>6172</out>
                        <file id="Samstag Morgen Multi 2">
                            <duration>115210</duration>
                            <rate>
                                <timebase>25</timebase>
                                <ntsc>false</ntsc>
                            </rate>
                            <name>Samstag Morgen Multi</name>
                            <pathurl></pathurl>
                            <timecode>
                                <string>01:00:00:00</string>
                                <displayformat>NDF</displayformat>
                                <rate>
                                    <timebase>25</timebase>
                                    <ntsc>false</ntsc>
                                </rate>
                            </timecode>
                            <media>
                                <video>
                                    <duration>115210</duration>
                                    <samplecharacteristics>
                                        <width>1920</width>
                                        <height>1080</height>
                                    </samplecharacteristics>
                                </video>
                                <audio>
                                    <channelcount>2</channelcount>
                                </audio>
                            </media>
                        </file>
                        <compositemode>normal</compositemode>
                        <filter>
                            <enabled>true</enabled>
                            <start>0</start>
                            <end>115210</end>
                            <effect>
                                <name>Opacity</name>
                                <effectid>opacity</effectid>
                                <effecttype>motion</effecttype>
                                <mediatype>video</mediatype>
                                <effectcategory>motion</effectcategory>
                                <parameter>
                                    <name>opacity</name>
                                    <parameterid>opacity</parameterid>
                                    <value>100</value>
                                    <valuemin>0</valuemin>
                                    <valuemax>100</valuemax>
                                </parameter>
                            </effect>
                        </filter>
                        <filter>
                            <enabled>true</enabled>
                            <start>0</start>
                            <end>115210</end>
                            <effect>
                                <name>Basic Motion</name>
                                <effectid>basic</effectid>
                                <effecttype>motion</effecttype>
                                <mediatype>video</mediatype>
                                <effectcategory>motion</effectcategory>
                                <parameter>
                                    <name>Scale</name>
                                    <parameterid>scale</parameterid>
                                    <value>244</value>
                                    <valuemin>25</valuemin>
                                    <valuemax>400</valuemax>
                                </parameter>
                                <parameter>
                                    <name>Center</name>
                                    <parameterid>center</parameterid>
                                    <value>
                                        <horiz>0.326562643051147</horiz>
                                        <vert>0</vert>
                                    </value>
                                </parameter>
                                <parameter>
                                    <name>Rotation</name>
                                    <parameterid>rotation</parameterid>
                                    <value>0</value>
                                    <valuemin>-100000</valuemin>
                                    <valuemax>100000</valuemax>
                                </parameter>
                                <parameter>
                                    <name>Anchor Point</name>
                                    <parameterid>centerOffset</parameterid>
                                    <value>
                                        <horiz>0</horiz>
                                        <vert>0</vert>
                                    </value>
                                </parameter>
                            </effect>
                        </filter>
                        <filter>
                            <enabled>true</enabled>
                            <start>0</start>
                            <end>115210</end>
                            <effect>
                                <name>Crop</name>
                                <effectid>crop</effectid>
                                <effecttype>motion</effecttype>
                                <mediatype>video</mediatype>
                                <effectcategory>motion</effectcategory>
                                <parameter>
                                    <name>left</name>
                                    <parameterid>left</parameterid>
                                    <value>0</value>
                                    <valuemin>0</valuemin>
                                    <valuemax>100</valuemax>
                                </parameter>
                                <parameter>
                                    <name>right</name>
                                    <parameterid>right</parameterid>
                                    <value>0</value>
                                    <valuemin>0</valuemin>
                                    <valuemax>100</valuemax>
                                </parameter>
                                <parameter>
                                    <name>top</name>
                                    <parameterid>top</parameterid>
                                    <value>0</value>
                                    <valuemin>0</valuemin>
                                    <valuemax>100</valuemax>
                                </parameter>
                                <parameter>
                                    <name>bottom</name>
                                    <parameterid>bottom</parameterid>
                                    <value>0</value>
                                    <valuemin>0</valuemin>
                                    <valuemax>100</valuemax>
                                </parameter>
                            </effect>
                        </filter>
                    </clipitem>
                    <clipitem id="Samstag Morgen Multi 3">
                        <name>Samstag Morgen Multi</name>
                        <duration>115210</duration>
                        <rate>
                            <timebase>25</timebase>
                            <ntsc>false</ntsc>
                        </rate>
                        <start>6172</start>
                        <end>6382</end>
                        <enabled>true</enabled>
                        <in>6172</in>
                        <out>6382</out>
                        <file id="Samstag Morgen Multi 2"/>
                        <compositemode>normal</compositemode>
                        <filter>
                            <enabled>true</enabled>
                            <start>0</start>
                            <end>115210</end>
                            <effect>
                                <name>Opacity</name>
                                <effectid>opacity</effectid>
                                <effecttype>motion</effecttype>
                                <mediatype>video</mediatype>
                                <effectcategory>motion</effectcategory>
                                <parameter>
                                    <name>opacity</name>
                                    <parameterid>opacity</parameterid>
                                    <value>100</value>
                                    <valuemin>0</valuemin>
                                    <valuemax>100</valuemax>
                                </parameter>
                            </effect>
                        </filter>
                        <filter>
                            <enabled>true</enabled>
                            <start>0</start>
                            <end>115210</end>
                            <effect>
                                <name>Basic Motion</name>
                                <effectid>basic</effectid>
                                <effecttype>motion</effecttype>
                                <mediatype>video</mediatype>
                                <effectcategory>motion</effectcategory>
                                <parameter>
                                    <name>Scale</name>
                                    <parameterid>scale</parameterid>
                                    <value>100</value>
                                    <valuemin>25</valuemin>
                                    <valuemax>400</valuemax>
                                </parameter>
                                <parameter>
                                    <name>Center</name>
                                    <parameterid>center</parameterid>
                                    <value>
                                        <horiz>0</horiz>
                                        <vert>0</vert>
                                    </value>
                                </parameter>
                                <parameter>
                                    <name>Rotation</name>
                                    <parameterid>rotation</parameterid>
                                    <value>0</value>
                                    <valuemin>-100000</valuemin>
                                    <valuemax>100000</valuemax>
                                </parameter>
                                <parameter>
                                    <name>Anchor Point</name>
                                    <parameterid>centerOffset</parameterid>
                                    <value>
                                        <horiz>0</horiz>
                                        <vert>0</vert>
                                    </value>
                                </parameter>
                            </effect>
                        </filter>
                        <filter>
                            <enabled>true</enabled>
                            <start>0</start>
                            <end>115210</end>
                            <effect>
                                <name>Crop</name>
                                <effectid>crop</effectid>
                                <effecttype>motion</effecttype>
                                <mediatype>video</mediatype>
                                <effectcategory>motion</effectcategory>
                                <parameter>
                                    <name>left</name>
                                    <parameterid>left</parameterid>
                                    <value>0</value>
                                    <valuemin>0</valuemin>
                                    <valuemax>100</valuemax>
                                </parameter>
                                <parameter>
                                    <name>right</name>
                                    <parameterid>right</parameterid>
                                    <value>0</value>
                                    <valuemin>0</valuemin>
                                    <valuemax>100</valuemax>
                                </parameter>
                                <parameter>
                                    <name>top</name>
                                    <parameterid>top</parameterid>
                                    <value>0</value>
                                    <valuemin>0</valuemin>
                                    <valuemax>100</valuemax>
                                </parameter>
                                <parameter>
                                    <name>bottom</name>
                                    <parameterid>bottom</parameterid>
                                    <value>0</value>
                                    <valuemin>0</valuemin>
                                    <valuemax>100</valuemax>
                                </parameter>
                            </effect>
                        </filter>
                    </clipitem>
                    <clipitem id="Samstag Morgen Multi 5">
                        <name>Samstag Morgen Multi</name>
                        <duration>115210</duration>
                        <rate>
                            <timebase>25</timebase>
                            <ntsc>false</ntsc>
                        </rate>
                        <start>6382</start>
                        <end>8220</end>
                        <enabled>true</enabled>
                        <in>6382</in>
                        <out>8220</out>
                        <file id="Samstag Morgen Multi 2"/>
                        <compositemode>normal</compositemode>
                        <filter>
                            <enabled>true</enabled>
                            <start>0</start>
                            <end>115210</end>
                            <effect>
                                <name>Opacity</name>
                                <effectid>opacity</effectid>
                                <effecttype>motion</effecttype>
                                <mediatype>video</mediatype>
                                <effectcategory>motion</effectcategory>
                                <parameter>
                                    <name>opacity</name>
                                    <parameterid>opacity</parameterid>
                                    <value>100</value>
                                    <valuemin>0</valuemin>
                                    <valuemax>100</valuemax>
                                </parameter>
                            </effect>
                        </filter>
                        <filter>
                            <enabled>true</enabled>
                            <start>0</start>
                            <end>115210</end>
                            <effect>
                                <name>Basic Motion</name>
                                <effectid>basic</effectid>
                                <effecttype>motion</effecttype>
                                <mediatype>video</mediatype>
                                <effectcategory>motion</effectcategory>
                                <parameter>
                                    <name>Scale</name>
                                    <parameterid>scale</parameterid>
                                    <value>179</value>
                                    <valuemin>25</valuemin>
                                    <valuemax>400</valuemax>
                                </parameter>
                                <parameter>
                                    <name>Center</name>
                                    <parameterid>center</parameterid>
                                    <value>
                                        <horiz>0.055208332836628</horiz>
                                        <vert>-0.243518516421318</vert>
                                    </value>
                                </parameter>
                                <parameter>
                                    <name>Rotation</name>
                                    <parameterid>rotation</parameterid>
                                    <value>0</value>
                                    <valuemin>-100000</valuemin>
                                    <valuemax>100000</valuemax>
                                </parameter>
                                <parameter>
                                    <name>Anchor Point</name>
                                    <parameterid>centerOffset</parameterid>
                                    <value>
                                        <horiz>0</horiz>
                                        <vert>0</vert>
                                    </value>
                                </parameter>
                            </effect>
                        </filter>
                        <filter>
                            <enabled>true</enabled>
                            <start>0</start>
                            <end>115210</end>
                            <effect>
                                <name>Crop</name>
                                <effectid>crop</effectid>
                                <effecttype>motion</effecttype>
                                <mediatype>video</mediatype>
                                <effectcategory>motion</effectcategory>
                                <parameter>
                                    <name>left</name>
                                    <parameterid>left</parameterid>
                                    <value>0</value>
                                    <valuemin>0</valuemin>
                                    <valuemax>100</valuemax>
                                </parameter>
                                <parameter>
                                    <name>right</name>
                                    <parameterid>right</parameterid>
                                    <value>0</value>
                                    <valuemin>0</valuemin>
                                    <valuemax>100</valuemax>
                                </parameter>
                                <parameter>
                                    <name>top</name>
                                    <parameterid>top</parameterid>
                                    <value>0</value>
                                    <valuemin>0</valuemin>
                                    <valuemax>100</valuemax>
                                </parameter>
                                <parameter>
                                    <name>bottom</name>
                                    <parameterid>bottom</parameterid>
                                    <value>0</value>
                                    <valuemin>0</valuemin>
                                    <valuemax>100</valuemax>
                                </parameter>
                            </effect>
                        </filter>
                    </clipitem>
                    <clipitem id="Samstag Morgen Multi 7">
                        <name>Samstag Morgen Multi</name>
                        <duration>115210</duration>
                        <rate>
                            <timebase>25</timebase>
                            <ntsc>false</ntsc>
                        </rate>
                        <start>8220</start>
                        <end>8600</end>
                        <enabled>true</enabled>
                        <in>8220</in>
                        <out>8600</out>
                        <file id="Samstag Morgen Multi 2"/>
                        <compositemode>normal</compositemode>
                        <filter>
                            <enabled>true</enabled>
                            <start>0</start>
                            <end>115210</end>
                            <effect>
                                <name>Opacity</name>
                                <effectid>opacity</effectid>
                                <effecttype>motion</effecttype>
                                <mediatype>video</mediatype>
                                <effectcategory>motion</effectcategory>
                                <parameter>
                                    <name>opacity</name>
                                    <parameterid>opacity</parameterid>
                                    <value>100</value>
                                    <valuemin>0</valuemin>
                                    <valuemax>100</valuemax>
                                </parameter>
                            </effect>
                        </filter>
                        <filter>
                            <enabled>true</enabled>
                            <start>0</start>
                            <end>115210</end>
                            <effect>
                                <name>Basic Motion</name>
                                <effectid>basic</effectid>
                                <effecttype>motion</effecttype>
                                <mediatype>video</mediatype>
                                <effectcategory>motion</effectcategory>
                                <parameter>
                                    <name>Scale</name>
                                    <parameterid>scale</parameterid>
                                    <value>100</value>
                                    <valuemin>25</valuemin>
                                    <valuemax>400</valuemax>
                                </parameter>
                                <parameter>
                                    <name>Center</name>
                                    <parameterid>center</parameterid>
                                    <value>
                                        <horiz>0</horiz>
                                        <vert>0</vert>
                                    </value>
                                </parameter>
                                <parameter>
                                    <name>Rotation</name>
                                    <parameterid>rotation</parameterid>
                                    <value>0</value>
                                    <valuemin>-100000</valuemin>
                                    <valuemax>100000</valuemax>
                                </parameter>
                                <parameter>
                                    <name>Anchor Point</name>
                                    <parameterid>centerOffset</parameterid>
                                    <value>
                                        <horiz>0</horiz>
                                        <vert>0</vert>
                                    </value>
                                </parameter>
                            </effect>
                        </filter>
                        <filter>
                            <enabled>true</enabled>
                            <start>0</start>
                            <end>115210</end>
                            <effect>
                                <name>Crop</name>
                                <effectid>crop</effectid>
                                <effecttype>motion</effecttype>
                                <mediatype>video</mediatype>
                                <effectcategory>motion</effectcategory>
                                <parameter>
                                    <name>left</name>
                                    <parameterid>left</parameterid>
                                    <value>0</value>
                                    <valuemin>0</valuemin>
                                    <valuemax>100</valuemax>
                                </parameter>
                                <parameter>
                                    <name>right</name>
                                    <parameterid>right</parameterid>
                                    <value>0</value>
                                    <valuemin>0</valuemin>
                                    <valuemax>100</valuemax>
                                </parameter>
                                <parameter>
                                    <name>top</name>
                                    <parameterid>top</parameterid>
                                    <value>0</value>
                                    <valuemin>0</valuemin>
                                    <valuemax>100</valuemax>
                                </parameter>
                                <parameter>
                                    <name>bottom</name>
                                    <parameterid>bottom</parameterid>
                                    <value>0</value>
                                    <valuemin>0</valuemin>
                                    <valuemax>100</valuemax>
                                </parameter>
                            </effect>
                        </filter>
                    </clipitem>
                    <clipitem id="Samstag Morgen Multi 9">
                        <name>Samstag Morgen Multi</name>
                        <duration>115210</duration>
                        <rate>
                            <timebase>25</timebase>
                            <ntsc>false</ntsc>
                        </rate>
                        <start>8600</start>
                        <end>9301</end>
                        <enabled>true</enabled>
                        <in>8600</in>
                        <out>9301</out>
                        <file id="Samstag Morgen Multi 2"/>
                        <compositemode>normal</compositemode>
                        <filter>
                            <enabled>true</enabled>
                            <start>0</start>
                            <end>115210</end>
                            <effect>
                                <name>Opacity</name>
                                <effectid>opacity</effectid>
                                <effecttype>motion</effecttype>
                                <mediatype>video</mediatype>
                                <effectcategory>motion</effectcategory>
                                <parameter>
                                    <name>opacity</name>
                                    <parameterid>opacity</parameterid>
                                    <value>100</value>
                                    <valuemin>0</valuemin>
                                    <valuemax>100</valuemax>
                                </parameter>
                            </effect>
                        </filter>
                        <filter>
                            <enabled>true</enabled>
                            <start>0</start>
                            <end>115210</end>
                            <effect>
                                <name>Basic Motion</name>
                                <effectid>basic</effectid>
                                <effecttype>motion</effecttype>
                                <mediatype>video</mediatype>
                                <effectcategory>motion</effectcategory>
                                <parameter>
                                    <name>Scale</name>
                                    <parameterid>scale</parameterid>
                                    <value>148</value>
                                    <valuemin>25</valuemin>
                                    <valuemax>400</valuemax>
                                </parameter>
                                <parameter>
                                    <name>Center</name>
                                    <parameterid>center</parameterid>
                                    <value>
                                        <horiz>0</horiz>
                                        <vert>-0.0805555582046509</vert>
                                    </value>
                                </parameter>
                                <parameter>
                                    <name>Rotation</name>
                                    <parameterid>rotation</parameterid>
                                    <value>0</value>
                                    <valuemin>-100000</valuemin>
                                    <valuemax>100000</valuemax>
                                </parameter>
                                <parameter>
                                    <name>Anchor Point</name>
                                    <parameterid>centerOffset</parameterid>
                                    <value>
                                        <horiz>0</horiz>
                                        <vert>0</vert>
                                    </value>
                                </parameter>
                            </effect>
                        </filter>
                        <filter>
                            <enabled>true</enabled>
                            <start>0</start>
                            <end>115210</end>
                            <effect>
                                <name>Crop</name>
                                <effectid>crop</effectid>
                                <effecttype>motion</effecttype>
                                <mediatype>video</mediatype>
                                <effectcategory>motion</effectcategory>
                                <parameter>
                                    <name>left</name>
                                    <parameterid>left</parameterid>
                                    <value>0</value>
                                    <valuemin>0</valuemin>
                                    <valuemax>100</valuemax>
                                </parameter>
                                <parameter>
                                    <name>right</name>
                                    <parameterid>right</parameterid>
                                    <value>0</value>
                                    <valuemin>0</valuemin>
                                    <valuemax>100</valuemax>
                                </parameter>
                                <parameter>
                                    <name>top</name>
                                    <parameterid>top</parameterid>
                                    <value>0</value>
                                    <valuemin>0</valuemin>
                                    <valuemax>100</valuemax>
                                </parameter>
                                <parameter>
                                    <name>bottom</name>
                                    <parameterid>bottom</parameterid>
                                    <value>0</value>
                                    <valuemin>0</valuemin>
                                    <valuemax>100</valuemax>
                                </parameter>
                            </effect>
                        </filter>
                    </clipitem>
                    <clipitem id="Samstag Morgen Multi 11">
                        <name>Samstag Morgen Multi</name>
                        <duration>115210</duration>
                        <rate>
                            <timebase>25</timebase>
                            <ntsc>false</ntsc>
                        </rate>
                        <start>9301</start>
                        <end>9417</end>
                        <enabled>true</enabled>
                        <in>9301</in>
                        <out>9417</out>
                        <file id="Samstag Morgen Multi 2"/>
                        <compositemode>normal</compositemode>
                        <filter>
                            <enabled>true</enabled>
                            <start>0</start>
                            <end>115210</end>
                            <effect>
                                <name>Opacity</name>
                                <effectid>opacity</effectid>
                                <effecttype>motion</effecttype>
                                <mediatype>video</mediatype>
                                <effectcategory>motion</effectcategory>
                                <parameter>
                                    <name>opacity</name>
                                    <parameterid>opacity</parameterid>
                                    <value>100</value>
                                    <valuemin>0</valuemin>
                                    <valuemax>100</valuemax>
                                </parameter>
                            </effect>
                        </filter>
                        <filter>
                            <enabled>true</enabled>
                            <start>0</start>
                            <end>115210</end>
                            <effect>
                                <name>Basic Motion</name>
                                <effectid>basic</effectid>
                                <effecttype>motion</effecttype>
                                <mediatype>video</mediatype>
                                <effectcategory>motion</effectcategory>
                                <parameter>
                                    <name>Scale</name>
                                    <parameterid>scale</parameterid>
                                    <value>100</value>
                                    <valuemin>25</valuemin>
                                    <valuemax>400</valuemax>
                                </parameter>
                                <parameter>
                                    <name>Center</name>
                                    <parameterid>center</parameterid>
                                    <value>
                                        <horiz>0</horiz>
                                        <vert>0</vert>
                                    </value>
                                </parameter>
                                <parameter>
                                    <name>Rotation</name>
                                    <parameterid>rotation</parameterid>
                                    <value>0</value>
                                    <valuemin>-100000</valuemin>
                                    <valuemax>100000</valuemax>
                                </parameter>
                                <parameter>
                                    <name>Anchor Point</name>
                                    <parameterid>centerOffset</parameterid>
                                    <value>
                                        <horiz>0</horiz>
                                        <vert>0</vert>
                                    </value>
                                </parameter>
                            </effect>
                        </filter>
                        <filter>
                            <enabled>true</enabled>
                            <start>0</start>
                            <end>115210</end>
                            <effect>
                                <name>Crop</name>
                                <effectid>crop</effectid>
                                <effecttype>motion</effecttype>
                                <mediatype>video</mediatype>
                                <effectcategory>motion</effectcategory>
                                <parameter>
                                    <name>left</name>
                                    <parameterid>left</parameterid>
                                    <value>0</value>
                                    <valuemin>0</valuemin>
                                    <valuemax>100</valuemax>
                                </parameter>
                                <parameter>
                                    <name>right</name>
                                    <parameterid>right</parameterid>
                                    <value>0</value>
                                    <valuemin>0</valuemin>
                                    <valuemax>100</valuemax>
                                </parameter>
                                <parameter>
                                    <name>top</name>
                                    <parameterid>top</parameterid>
                                    <value>0</value>
                                    <valuemin>0</valuemin>
                                    <valuemax>100</valuemax>
                                </parameter>
                                <parameter>
                                    <name>bottom</name>
                                    <parameterid>bottom</parameterid>
                                    <value>0</value>
                                    <valuemin>0</valuemin>
                                    <valuemax>100</valuemax>
                                </parameter>
                            </effect>
                        </filter>
                    </clipitem>
                    <clipitem id="Samstag Morgen Multi 13">
                        <name>Samstag Morgen Multi</name>
                        <duration>115210</duration>
                        <rate>
                            <timebase>25</timebase>
                            <ntsc>false</ntsc>
                        </rate>
                        <start>9417</start>
                        <end>10245</end>
                        <enabled>true</enabled>
                        <in>9417</in>
                        <out>10245</out>
                        <file id="Samstag Morgen Multi 2"/>
                        <compositemode>normal</compositemode>
                        <filter>
                            <enabled>true</enabled>
                            <start>0</start>
                            <end>115210</end>
                            <effect>
                                <name>Opacity</name>
                                <effectid>opacity</effectid>
                                <effecttype>motion</effecttype>
                                <mediatype>video</mediatype>
                                <effectcategory>motion</effectcategory>
                                <parameter>
                                    <name>opacity</name>
                                    <parameterid>opacity</parameterid>
                                    <value>100</value>
                                    <valuemin>0</valuemin>
                                    <valuemax>100</valuemax>
                                </parameter>
                            </effect>
                        </filter>
                        <filter>
                            <enabled>true</enabled>
                            <start>0</start>
                            <end>115210</end>
                            <effect>
                                <name>Basic Motion</name>
                                <effectid>basic</effectid>
                                <effecttype>motion</effecttype>
                                <mediatype>video</mediatype>
                                <effectcategory>motion</effectcategory>
                                <parameter>
                                    <name>Scale</name>
                                    <parameterid>scale</parameterid>
                                    <value>100</value>
                                    <valuemin>25</valuemin>
                                    <valuemax>400</valuemax>
                                </parameter>
                                <parameter>
                                    <name>Center</name>
                                    <parameterid>center</parameterid>
                                    <value>
                                        <horiz>0</horiz>
                                        <vert>0</vert>
                                    </value>
                                </parameter>
                                <parameter>
                                    <name>Rotation</name>
                                    <parameterid>rotation</parameterid>
                                    <value>0</value>
                                    <valuemin>-100000</valuemin>
                                    <valuemax>100000</valuemax>
                                </parameter>
                                <parameter>
                                    <name>Anchor Point</name>
                                    <parameterid>centerOffset</parameterid>
                                    <value>
                                        <horiz>0</horiz>
                                        <vert>0</vert>
                                    </value>
                                </parameter>
                            </effect>
                        </filter>
                        <filter>
                            <enabled>true</enabled>
                            <start>0</start>
                            <end>115210</end>
                            <effect>
                                <name>Crop</name>
                                <effectid>crop</effectid>
                                <effecttype>motion</effecttype>
                                <mediatype>video</mediatype>
                                <effectcategory>motion</effectcategory>
                                <parameter>
                                    <name>left</name>
                                    <parameterid>left</parameterid>
                                    <value>0</value>
                                    <valuemin>0</valuemin>
                                    <valuemax>100</valuemax>
                                </parameter>
                                <parameter>
                                    <name>right</name>
                                    <parameterid>right</parameterid>
                                    <value>0</value>
                                    <valuemin>0</valuemin>
                                    <valuemax>100</valuemax>
                                </parameter>
                                <parameter>
                                    <name>top</name>
                                    <parameterid>top</parameterid>
                                    <value>0</value>
                                    <valuemin>0</valuemin>
                                    <valuemax>100</valuemax>
                                </parameter>
                                <parameter>
                                    <name>bottom</name>
                                    <parameterid>bottom</parameterid>
                                    <value>0</value>
                                    <valuemin>0</valuemin>
                                    <valuemax>100</valuemax>
                                </parameter>
                            </effect>
                        </filter>
                    </clipitem>
                    <clipitem id="Samstag Morgen Multi 15">
                        <name>Samstag Morgen Multi</name>
                        <duration>115210</duration>
                        <rate>
                            <timebase>25</timebase>
                            <ntsc>false</ntsc>
                        </rate>
                        <start>10245</start>
                        <end>11764</end>
                        <enabled>true</enabled>
                        <in>10245</in>
                        <out>11764</out>
                        <file id="Samstag Morgen Multi 2"/>
                        <compositemode>normal</compositemode>
                        <filter>
                            <enabled>true</enabled>
                            <start>0</start>
                            <end>115210</end>
                            <effect>
                                <name>Opacity</name>
                                <effectid>opacity</effectid>
                                <effecttype>motion</effecttype>
                                <mediatype>video</mediatype>
                                <effectcategory>motion</effectcategory>
                                <parameter>
                                    <name>opacity</name>
                                    <parameterid>opacity</parameterid>
                                    <value>100</value>
                                    <valuemin>0</valuemin>
                                    <valuemax>100</valuemax>
                                </parameter>
                            </effect>
                        </filter>
                        <filter>
                            <enabled>true</enabled>
                            <start>0</start>
                            <end>115210</end>
                            <effect>
                                <name>Basic Motion</name>
                                <effectid>basic</effectid>
                                <effecttype>motion</effecttype>
                                <mediatype>video</mediatype>
                                <effectcategory>motion</effectcategory>
                                <parameter>
                                    <name>Scale</name>
                                    <parameterid>scale</parameterid>
                                    <value>100</value>
                                    <valuemin>25</valuemin>
                                    <valuemax>400</valuemax>
                                </parameter>
                                <parameter>
                                    <name>Center</name>
                                    <parameterid>center</parameterid>
                                    <value>
                                        <horiz>0</horiz>
                                        <vert>0</vert>
                                    </value>
                                </parameter>
                                <parameter>
                                    <name>Rotation</name>
                                    <parameterid>rotation</parameterid>
                                    <value>0</value>
                                    <valuemin>-100000</valuemin>
                                    <valuemax>100000</valuemax>
                                </parameter>
                                <parameter>
                                    <name>Anchor Point</name>
                                    <parameterid>centerOffset</parameterid>
                                    <value>
                                        <horiz>0</horiz>
                                        <vert>0</vert>
                                    </value>
                                </parameter>
                            </effect>
                        </filter>
                        <filter>
                            <enabled>true</enabled>
                            <start>0</start>
                            <end>115210</end>
                            <effect>
                                <name>Crop</name>
                                <effectid>crop</effectid>
                                <effecttype>motion</effecttype>
                                <mediatype>video</mediatype>
                                <effectcategory>motion</effectcategory>
                                <parameter>
                                    <name>left</name>
                                    <parameterid>left</parameterid>
                                    <value>0</value>
                                    <valuemin>0</valuemin>
                                    <valuemax>100</valuemax>
                                </parameter>
                                <parameter>
                                    <name>right</name>
                                    <parameterid>right</parameterid>
                                    <value>0</value>
                                    <valuemin>0</valuemin>
                                    <valuemax>100</valuemax>
                                </parameter>
                                <parameter>
                                    <name>top</name>
                                    <parameterid>top</parameterid>
                                    <value>0</value>
                                    <valuemin>0</valuemin>
                                    <valuemax>100</valuemax>
                                </parameter>
                                <parameter>
                                    <name>bottom</name>
                                    <parameterid>bottom</parameterid>
                                    <value>0</value>
                                    <valuemin>0</valuemin>
                                    <valuemax>100</valuemax>
                                </parameter>
                            </effect>
                        </filter>
                    </clipitem>
                    <clipitem id="Samstag Morgen Multi 17">
                        <name>Samstag Morgen Multi</name>
                        <duration>115210</duration>
                        <rate>
                            <timebase>25</timebase>
                            <ntsc>false</ntsc>
                        </rate>
                        <start>11764</start>
                        <end>12420</end>
                        <enabled>true</enabled>
                        <in>11764</in>
                        <out>12420</out>
                        <file id="Samstag Morgen Multi 2"/>
                        <compositemode>normal</compositemode>
                        <filter>
                            <enabled>true</enabled>
                            <start>0</start>
                            <end>115210</end>
                            <effect>
                                <name>Opacity</name>
                                <effectid>opacity</effectid>
                                <effecttype>motion</effecttype>
                                <mediatype>video</mediatype>
                                <effectcategory>motion</effectcategory>
                                <parameter>
                                    <name>opacity</name>
                                    <parameterid>opacity</parameterid>
                                    <value>100</value>
                                    <valuemin>0</valuemin>
                                    <valuemax>100</valuemax>
                                </parameter>
                            </effect>
                        </filter>
                        <filter>
                            <enabled>true</enabled>
                            <start>0</start>
                            <end>115210</end>
                            <effect>
                                <name>Basic Motion</name>
                                <effectid>basic</effectid>
                                <effecttype>motion</effecttype>
                                <mediatype>video</mediatype>
                                <effectcategory>motion</effectcategory>
                                <parameter>
                                    <name>Scale</name>
                                    <parameterid>scale</parameterid>
                                    <value>200</value>
                                    <valuemin>25</valuemin>
                                    <valuemax>400</valuemax>
                                </parameter>
                                <parameter>
                                    <name>Center</name>
                                    <parameterid>center</parameterid>
                                    <value>
                                        <horiz>0</horiz>
                                        <vert>-0.127777799963951</vert>
                                    </value>
                                </parameter>
                                <parameter>
                                    <name>Rotation</name>
                                    <parameterid>rotation</parameterid>
                                    <value>0</value>
                                    <valuemin>-100000</valuemin>
                                    <valuemax>100000</valuemax>
                                </parameter>
                                <parameter>
                                    <name>Anchor Point</name>
                                    <parameterid>centerOffset</parameterid>
                                    <value>
                                        <horiz>0</horiz>
                                        <vert>0</vert>
                                    </value>
                                </parameter>
                            </effect>
                        </filter>
                        <filter>
                            <enabled>true</enabled>
                            <start>0</start>
                            <end>115210</end>
                            <effect>
                                <name>Crop</name>
                                <effectid>crop</effectid>
                                <effecttype>motion</effecttype>
                                <mediatype>video</mediatype>
                                <effectcategory>motion</effectcategory>
                                <parameter>
                                    <name>left</name>
                                    <parameterid>left</parameterid>
                                    <value>0</value>
                                    <valuemin>0</valuemin>
                                    <valuemax>100</valuemax>
                                </parameter>
                                <parameter>
                                    <name>right</name>
                                    <parameterid>right</parameterid>
                                    <value>0</value>
                                    <valuemin>0</valuemin>
                                    <valuemax>100</valuemax>
                                </parameter>
                                <parameter>
                                    <name>top</name>
                                    <parameterid>top</parameterid>
                                    <value>0</value>
                                    <valuemin>0</valuemin>
                                    <valuemax>100</valuemax>
                                </parameter>
                                <parameter>
                                    <name>bottom</name>
                                    <parameterid>bottom</parameterid>
                                    <value>0</value>
                                    <valuemin>0</valuemin>
                                    <valuemax>100</valuemax>
                                </parameter>
                            </effect>
                        </filter>
                    </clipitem>
                    <clipitem id="Samstag Morgen Multi 19">
                        <name>Samstag Morgen Multi</name>
                        <duration>115210</duration>
                        <rate>
                            <timebase>25</timebase>
                            <ntsc>false</ntsc>
                        </rate>
                        <start>12420</start>
                        <end>14856</end>
                        <enabled>true</enabled>
                        <in>12420</in>
                        <out>14856</out>
                        <file id="Samstag Morgen Multi 2"/>
                        <compositemode>normal</compositemode>
                        <filter>
                            <enabled>true</enabled>
                            <start>0</start>
                            <end>115210</end>
                            <effect>
                                <name>Opacity</name>
                                <effectid>opacity</effectid>
                                <effecttype>motion</effecttype>
                                <mediatype>video</mediatype>
                                <effectcategory>motion</effectcategory>
                                <parameter>
                                    <name>opacity</name>
                                    <parameterid>opacity</parameterid>
                                    <value>100</value>
                                    <valuemin>0</valuemin>
                                    <valuemax>100</valuemax>
                                </parameter>
                            </effect>
                        </filter>
                        <filter>
                            <enabled>true</enabled>
                            <start>0</start>
                            <end>115210</end>
                            <effect>
                                <name>Basic Motion</name>
                                <effectid>basic</effectid>
                                <effecttype>motion</effecttype>
                                <mediatype>video</mediatype>
                                <effectcategory>motion</effectcategory>
                                <parameter>
                                    <name>Scale</name>
                                    <parameterid>scale</parameterid>
                                    <value>100</value>
                                    <valuemin>25</valuemin>
                                    <valuemax>400</valuemax>
                                </parameter>
                                <parameter>
                                    <name>Center</name>
                                    <parameterid>center</parameterid>
                                    <value>
                                        <horiz>0</horiz>
                                        <vert>0</vert>
                                    </value>
                                </parameter>
                                <parameter>
                                    <name>Rotation</name>
                                    <parameterid>rotation</parameterid>
                                    <value>0</value>
                                    <valuemin>-100000</valuemin>
                                    <valuemax>100000</valuemax>
                                </parameter>
                                <parameter>
                                    <name>Anchor Point</name>
                                    <parameterid>centerOffset</parameterid>
                                    <value>
                                        <horiz>0</horiz>
                                        <vert>0</vert>
                                    </value>
                                </parameter>
                            </effect>
                        </filter>
                        <filter>
                            <enabled>true</enabled>
                            <start>0</start>
                            <end>115210</end>
                            <effect>
                                <name>Crop</name>
                                <effectid>crop</effectid>
                                <effecttype>motion</effecttype>
                                <mediatype>video</mediatype>
                                <effectcategory>motion</effectcategory>
                                <parameter>
                                    <name>left</name>
                                    <parameterid>left</parameterid>
                                    <value>0</value>
                                    <valuemin>0</valuemin>
                                    <valuemax>100</valuemax>
                                </parameter>
                                <parameter>
                                    <name>right</name>
                                    <parameterid>right</parameterid>
                                    <value>0</value>
                                    <valuemin>0</valuemin>
                                    <valuemax>100</valuemax>
                                </parameter>
                                <parameter>
                                    <name>top</name>
                                    <parameterid>top</parameterid>
                                    <value>0</value>
                                    <valuemin>0</valuemin>
                                    <valuemax>100</valuemax>
                                </parameter>
                                <parameter>
                                    <name>bottom</name>
                                    <parameterid>bottom</parameterid>
                                    <value>0</value>
                                    <valuemin>0</valuemin>
                                    <valuemax>100</valuemax>
                                </parameter>
                            </effect>
                        </filter>
                    </clipitem>
                    <clipitem id="Samstag Morgen Multi 21">
                        <name>Samstag Morgen Multi</name>
                        <duration>115210</duration>
                        <rate>
                            <timebase>25</timebase>
                            <ntsc>false</ntsc>
                        </rate>
                        <start>14856</start>
                        <end>15042</end>
                        <enabled>true</enabled>
                        <in>14856</in>
                        <out>15042</out>
                        <file id="Samstag Morgen Multi 2"/>
                        <compositemode>normal</compositemode>
                        <filter>
                            <enabled>true</enabled>
                            <start>0</start>
                            <end>115210</end>
                            <effect>
                                <name>Opacity</name>
                                <effectid>opacity</effectid>
                                <effecttype>motion</effecttype>
                                <mediatype>video</mediatype>
                                <effectcategory>motion</effectcategory>
                                <parameter>
                                    <name>opacity</name>
                                    <parameterid>opacity</parameterid>
                                    <value>100</value>
                                    <valuemin>0</valuemin>
                                    <valuemax>100</valuemax>
                                </parameter>
                            </effect>
                        </filter>
                        <filter>
                            <enabled>true</enabled>
                            <start>0</start>
                            <end>115210</end>
                            <effect>
                                <name>Basic Motion</name>
                                <effectid>basic</effectid>
                                <effecttype>motion</effecttype>
                                <mediatype>video</mediatype>
                                <effectcategory>motion</effectcategory>
                                <parameter>
                                    <name>Scale</name>
                                    <parameterid>scale</parameterid>
                                    <value>200</value>
                                    <valuemin>25</valuemin>
                                    <valuemax>400</valuemax>
                                </parameter>
                                <parameter>
                                    <name>Center</name>
                                    <parameterid>center</parameterid>
                                    <value>
                                        <horiz>0.0947916656732559</horiz>
                                        <vert>-0.180555671453476</vert>
                                    </value>
                                </parameter>
                                <parameter>
                                    <name>Rotation</name>
                                    <parameterid>rotation</parameterid>
                                    <value>0</value>
                                    <valuemin>-100000</valuemin>
                                    <valuemax>100000</valuemax>
                                </parameter>
                                <parameter>
                                    <name>Anchor Point</name>
                                    <parameterid>centerOffset</parameterid>
                                    <value>
                                        <horiz>0</horiz>
                                        <vert>0</vert>
                                    </value>
                                </parameter>
                            </effect>
                        </filter>
                        <filter>
                            <enabled>true</enabled>
                            <start>0</start>
                            <end>115210</end>
                            <effect>
                                <name>Crop</name>
                                <effectid>crop</effectid>
                                <effecttype>motion</effecttype>
                                <mediatype>video</mediatype>
                                <effectcategory>motion</effectcategory>
                                <parameter>
                                    <name>left</name>
                                    <parameterid>left</parameterid>
                                    <value>0</value>
                                    <valuemin>0</valuemin>
                                    <valuemax>100</valuemax>
                                </parameter>
                                <parameter>
                                    <name>right</name>
                                    <parameterid>right</parameterid>
                                    <value>0</value>
                                    <valuemin>0</valuemin>
                                    <valuemax>100</valuemax>
                                </parameter>
                                <parameter>
                                    <name>top</name>
                                    <parameterid>top</parameterid>
                                    <value>0</value>
                                    <valuemin>0</valuemin>
                                    <valuemax>100</valuemax>
                                </parameter>
                                <parameter>
                                    <name>bottom</name>
                                    <parameterid>bottom</parameterid>
                                    <value>0</value>
                                    <valuemin>0</valuemin>
                                    <valuemax>100</valuemax>
                                </parameter>
                            </effect>
                        </filter>
                    </clipitem>
                    <clipitem id="Samstag Morgen Multi 23">
                        <name>Samstag Morgen Multi</name>
                        <duration>115210</duration>
                        <rate>
                            <timebase>25</timebase>
                            <ntsc>false</ntsc>
                        </rate>
                        <start>15042</start>
                        <end>16093</end>
                        <enabled>true</enabled>
                        <in>15042</in>
                        <out>16093</out>
                        <file id="Samstag Morgen Multi 2"/>
                        <compositemode>normal</compositemode>
                        <filter>
                            <enabled>true</enabled>
                            <start>0</start>
                            <end>115210</end>
                            <effect>
                                <name>Opacity</name>
                                <effectid>opacity</effectid>
                                <effecttype>motion</effecttype>
                                <mediatype>video</mediatype>
                                <effectcategory>motion</effectcategory>
                                <parameter>
                                    <name>opacity</name>
                                    <parameterid>opacity</parameterid>
                                    <value>100</value>
                                    <valuemin>0</valuemin>
                                    <valuemax>100</valuemax>
                                </parameter>
                            </effect>
                        </filter>
                        <filter>
                            <enabled>true</enabled>
                            <start>0</start>
                            <end>115210</end>
                            <effect>
                                <name>Basic Motion</name>
                                <effectid>basic</effectid>
                                <effecttype>motion</effecttype>
                                <mediatype>video</mediatype>
                                <effectcategory>motion</effectcategory>
                                <parameter>
                                    <name>Scale</name>
                                    <parameterid>scale</parameterid>
                                    <value>100</value>
                                    <valuemin>25</valuemin>
                                    <valuemax>400</valuemax>
                                </parameter>
                                <parameter>
                                    <name>Center</name>
                                    <parameterid>center</parameterid>
                                    <value>
                                        <horiz>0</horiz>
                                        <vert>0</vert>
                                    </value>
                                </parameter>
                                <parameter>
                                    <name>Rotation</name>
                                    <parameterid>rotation</parameterid>
                                    <value>0</value>
                                    <valuemin>-100000</valuemin>
                                    <valuemax>100000</valuemax>
                                </parameter>
                                <parameter>
                                    <name>Anchor Point</name>
                                    <parameterid>centerOffset</parameterid>
                                    <value>
                                        <horiz>0</horiz>
                                        <vert>0</vert>
                                    </value>
                                </parameter>
                            </effect>
                        </filter>
                        <filter>
                            <enabled>true</enabled>
                            <start>0</start>
                            <end>115210</end>
                            <effect>
                                <name>Crop</name>
                                <effectid>crop</effectid>
                                <effecttype>motion</effecttype>
                                <mediatype>video</mediatype>
                                <effectcategory>motion</effectcategory>
                                <parameter>
                                    <name>left</name>
                                    <parameterid>left</parameterid>
                                    <value>0</value>
                                    <valuemin>0</valuemin>
                                    <valuemax>100</valuemax>
                                </parameter>
                                <parameter>
                                    <name>right</name>
                                    <parameterid>right</parameterid>
                                    <value>0</value>
                                    <valuemin>0</valuemin>
                                    <valuemax>100</valuemax>
                                </parameter>
                                <parameter>
                                    <name>top</name>
                                    <parameterid>top</parameterid>
                                    <value>0</value>
                                    <valuemin>0</valuemin>
                                    <valuemax>100</valuemax>
                                </parameter>
                                <parameter>
                                    <name>bottom</name>
                                    <parameterid>bottom</parameterid>
                                    <value>0</value>
                                    <valuemin>0</valuemin>
                                    <valuemax>100</valuemax>
                                </parameter>
                            </effect>
                        </filter>
                    </clipitem>
                    <clipitem id="Samstag Morgen Multi 25">
                        <name>Samstag Morgen Multi</name>
                        <duration>115210</duration>
                        <rate>
                            <timebase>25</timebase>
                            <ntsc>false</ntsc>
                        </rate>
                        <start>16093</start>
                        <end>16435</end>
                        <enabled>true</enabled>
                        <in>16093</in>
                        <out>16435</out>
                        <file id="Samstag Morgen Multi 2"/>
                        <compositemode>normal</compositemode>
                        <filter>
                            <enabled>true</enabled>
                            <start>0</start>
                            <end>115210</end>
                            <effect>
                                <name>Opacity</name>
                                <effectid>opacity</effectid>
                                <effecttype>motion</effecttype>
                                <mediatype>video</mediatype>
                                <effectcategory>motion</effectcategory>
                                <parameter>
                                    <name>opacity</name>
                                    <parameterid>opacity</parameterid>
                                    <value>100</value>
                                    <valuemin>0</valuemin>
                                    <valuemax>100</valuemax>
                                </parameter>
                            </effect>
                        </filter>
                        <filter>
                            <enabled>true</enabled>
                            <start>0</start>
                            <end>115210</end>
                            <effect>
                                <name>Basic Motion</name>
                                <effectid>basic</effectid>
                                <effecttype>motion</effecttype>
                                <mediatype>video</mediatype>
                                <effectcategory>motion</effectcategory>
                                <parameter>
                                    <name>Scale</name>
                                    <parameterid>scale</parameterid>
                                    <value>200</value>
                                    <valuemin>25</valuemin>
                                    <valuemax>400</valuemax>
                                </parameter>
                                <parameter>
                                    <name>Center</name>
                                    <parameterid>center</parameterid>
                                    <value>
                                        <horiz>0</horiz>
                                        <vert>-0.174074187874794</vert>
                                    </value>
                                </parameter>
                                <parameter>
                                    <name>Rotation</name>
                                    <parameterid>rotation</parameterid>
                                    <value>0</value>
                                    <valuemin>-100000</valuemin>
                                    <valuemax>100000</valuemax>
                                </parameter>
                                <parameter>
                                    <name>Anchor Point</name>
                                    <parameterid>centerOffset</parameterid>
                                    <value>
                                        <horiz>0</horiz>
                                        <vert>0</vert>
                                    </value>
                                </parameter>
                            </effect>
                        </filter>
                        <filter>
                            <enabled>true</enabled>
                            <start>0</start>
                            <end>115210</end>
                            <effect>
                                <name>Crop</name>
                                <effectid>crop</effectid>
                                <effecttype>motion</effecttype>
                                <mediatype>video</mediatype>
                                <effectcategory>motion</effectcategory>
                                <parameter>
                                    <name>left</name>
                                    <parameterid>left</parameterid>
                                    <value>0</value>
                                    <valuemin>0</valuemin>
                                    <valuemax>100</valuemax>
                                </parameter>
                                <parameter>
                                    <name>right</name>
                                    <parameterid>right</parameterid>
                                    <value>0</value>
                                    <valuemin>0</valuemin>
                                    <valuemax>100</valuemax>
                                </parameter>
                                <parameter>
                                    <name>top</name>
                                    <parameterid>top</parameterid>
                                    <value>0</value>
                                    <valuemin>0</valuemin>
                                    <valuemax>100</valuemax>
                                </parameter>
                                <parameter>
                                    <name>bottom</name>
                                    <parameterid>bottom</parameterid>
                                    <value>0</value>
                                    <valuemin>0</valuemin>
                                    <valuemax>100</valuemax>
                                </parameter>
                            </effect>
                        </filter>
                    </clipitem>
                    <clipitem id="Samstag Morgen Multi 27">
                        <name>Samstag Morgen Multi</name>
                        <duration>115210</duration>
                        <rate>
                            <timebase>25</timebase>
                            <ntsc>false</ntsc>
                        </rate>
                        <start>16435</start>
                        <end>17039</end>
                        <enabled>true</enabled>
                        <in>16435</in>
                        <out>17039</out>
                        <file id="Samstag Morgen Multi 2"/>
                        <compositemode>normal</compositemode>
                        <filter>
                            <enabled>true</enabled>
                            <start>0</start>
                            <end>115210</end>
                            <effect>
                                <name>Opacity</name>
                                <effectid>opacity</effectid>
                                <effecttype>motion</effecttype>
                                <mediatype>video</mediatype>
                                <effectcategory>motion</effectcategory>
                                <parameter>
                                    <name>opacity</name>
                                    <parameterid>opacity</parameterid>
                                    <value>100</value>
                                    <valuemin>0</valuemin>
                                    <valuemax>100</valuemax>
                                </parameter>
                            </effect>
                        </filter>
                        <filter>
                            <enabled>true</enabled>
                            <start>0</start>
                            <end>115210</end>
                            <effect>
                                <name>Basic Motion</name>
                                <effectid>basic</effectid>
                                <effecttype>motion</effecttype>
                                <mediatype>video</mediatype>
                                <effectcategory>motion</effectcategory>
                                <parameter>
                                    <name>Scale</name>
                                    <parameterid>scale</parameterid>
                                    <value>100</value>
                                    <valuemin>25</valuemin>
                                    <valuemax>400</valuemax>
                                </parameter>
                                <parameter>
                                    <name>Center</name>
                                    <parameterid>center</parameterid>
                                    <value>
                                        <horiz>0</horiz>
                                        <vert>0</vert>
                                    </value>
                                </parameter>
                                <parameter>
                                    <name>Rotation</name>
                                    <parameterid>rotation</parameterid>
                                    <value>0</value>
                                    <valuemin>-100000</valuemin>
                                    <valuemax>100000</valuemax>
                                </parameter>
                                <parameter>
                                    <name>Anchor Point</name>
                                    <parameterid>centerOffset</parameterid>
                                    <value>
                                        <horiz>0</horiz>
                                        <vert>0</vert>
                                    </value>
                                </parameter>
                            </effect>
                        </filter>
                        <filter>
                            <enabled>true</enabled>
                            <start>0</start>
                            <end>115210</end>
                            <effect>
                                <name>Crop</name>
                                <effectid>crop</effectid>
                                <effecttype>motion</effecttype>
                                <mediatype>video</mediatype>
                                <effectcategory>motion</effectcategory>
                                <parameter>
                                    <name>left</name>
                                    <parameterid>left</parameterid>
                                    <value>0</value>
                                    <valuemin>0</valuemin>
                                    <valuemax>100</valuemax>
                                </parameter>
                                <parameter>
                                    <name>right</name>
                                    <parameterid>right</parameterid>
                                    <value>0</value>
                                    <valuemin>0</valuemin>
                                    <valuemax>100</valuemax>
                                </parameter>
                                <parameter>
                                    <name>top</name>
                                    <parameterid>top</parameterid>
                                    <value>0</value>
                                    <valuemin>0</valuemin>
                                    <valuemax>100</valuemax>
                                </parameter>
                                <parameter>
                                    <name>bottom</name>
                                    <parameterid>bottom</parameterid>
                                    <value>0</value>
                                    <valuemin>0</valuemin>
                                    <valuemax>100</valuemax>
                                </parameter>
                            </effect>
                        </filter>
                    </clipitem>
                    <clipitem id="Samstag Morgen Multi 29">
                        <name>Samstag Morgen Multi</name>
                        <duration>115210</duration>
                        <rate>
                            <timebase>25</timebase>
                            <ntsc>false</ntsc>
                        </rate>
                        <start>17039</start>
                        <end>17657</end>
                        <enabled>true</enabled>
                        <in>17039</in>
                        <out>17657</out>
                        <file id="Samstag Morgen Multi 2"/>
                        <compositemode>normal</compositemode>
                        <filter>
                            <enabled>true</enabled>
                            <start>0</start>
                            <end>115210</end>
                            <effect>
                                <name>Opacity</name>
                                <effectid>opacity</effectid>
                                <effecttype>motion</effecttype>
                                <mediatype>video</mediatype>
                                <effectcategory>motion</effectcategory>
                                <parameter>
                                    <name>opacity</name>
                                    <parameterid>opacity</parameterid>
                                    <value>100</value>
                                    <valuemin>0</valuemin>
                                    <valuemax>100</valuemax>
                                </parameter>
                            </effect>
                        </filter>
                        <filter>
                            <enabled>true</enabled>
                            <start>0</start>
                            <end>115210</end>
                            <effect>
                                <name>Basic Motion</name>
                                <effectid>basic</effectid>
                                <effecttype>motion</effecttype>
                                <mediatype>video</mediatype>
                                <effectcategory>motion</effectcategory>
                                <parameter>
                                    <name>Scale</name>
                                    <parameterid>scale</parameterid>
                                    <value>200</value>
                                    <valuemin>25</valuemin>
                                    <valuemax>400</valuemax>
                                </parameter>
                                <parameter>
                                    <name>Center</name>
                                    <parameterid>center</parameterid>
                                    <value>
                                        <horiz>0</horiz>
                                        <vert>-0.169444471597672</vert>
                                    </value>
                                </parameter>
                                <parameter>
                                    <name>Rotation</name>
                                    <parameterid>rotation</parameterid>
                                    <value>0</value>
                                    <valuemin>-100000</valuemin>
                                    <valuemax>100000</valuemax>
                                </parameter>
                                <parameter>
                                    <name>Anchor Point</name>
                                    <parameterid>centerOffset</parameterid>
                                    <value>
                                        <horiz>0</horiz>
                                        <vert>0</vert>
                                    </value>
                                </parameter>
                            </effect>
                        </filter>
                        <filter>
                            <enabled>true</enabled>
                            <start>0</start>
                            <end>115210</end>
                            <effect>
                                <name>Crop</name>
                                <effectid>crop</effectid>
                                <effecttype>motion</effecttype>
                                <mediatype>video</mediatype>
                                <effectcategory>motion</effectcategory>
                                <parameter>
                                    <name>left</name>
                                    <parameterid>left</parameterid>
                                    <value>0</value>
                                    <valuemin>0</valuemin>
                                    <valuemax>100</valuemax>
                                </parameter>
                                <parameter>
                                    <name>right</name>
                                    <parameterid>right</parameterid>
                                    <value>0</value>
                                    <valuemin>0</valuemin>
                                    <valuemax>100</valuemax>
                                </parameter>
                                <parameter>
                                    <name>top</name>
                                    <parameterid>top</parameterid>
                                    <value>0</value>
                                    <valuemin>0</valuemin>
                                    <valuemax>100</valuemax>
                                </parameter>
                                <parameter>
                                    <name>bottom</name>
                                    <parameterid>bottom</parameterid>
                                    <value>0</value>
                                    <valuemin>0</valuemin>
                                    <valuemax>100</valuemax>
                                </parameter>
                            </effect>
                        </filter>
                    </clipitem>
                    <clipitem id="Samstag Morgen Multi 31">
                        <name>Samstag Morgen Multi</name>
                        <duration>115210</duration>
                        <rate>
                            <timebase>25</timebase>
                            <ntsc>false</ntsc>
                        </rate>
                        <start>17657</start>
                        <end>19480</end>
                        <enabled>true</enabled>
                        <in>17657</in>
                        <out>19480</out>
                        <file id="Samstag Morgen Multi 2"/>
                        <compositemode>normal</compositemode>
                        <filter>
                            <enabled>true</enabled>
                            <start>0</start>
                            <end>115210</end>
                            <effect>
                                <name>Opacity</name>
                                <effectid>opacity</effectid>
                                <effecttype>motion</effecttype>
                                <mediatype>video</mediatype>
                                <effectcategory>motion</effectcategory>
                                <parameter>
                                    <name>opacity</name>
                                    <parameterid>opacity</parameterid>
                                    <value>100</value>
                                    <valuemin>0</valuemin>
                                    <valuemax>100</valuemax>
                                </parameter>
                            </effect>
                        </filter>
                        <filter>
                            <enabled>true</enabled>
                            <start>0</start>
                            <end>115210</end>
                            <effect>
                                <name>Basic Motion</name>
                                <effectid>basic</effectid>
                                <effecttype>motion</effecttype>
                                <mediatype>video</mediatype>
                                <effectcategory>motion</effectcategory>
                                <parameter>
                                    <name>Scale</name>
                                    <parameterid>scale</parameterid>
                                    <value>100</value>
                                    <valuemin>25</valuemin>
                                    <valuemax>400</valuemax>
                                </parameter>
                                <parameter>
                                    <name>Center</name>
                                    <parameterid>center</parameterid>
                                    <value>
                                        <horiz>0</horiz>
                                        <vert>0</vert>
                                    </value>
                                </parameter>
                                <parameter>
                                    <name>Rotation</name>
                                    <parameterid>rotation</parameterid>
                                    <value>0</value>
                                    <valuemin>-100000</valuemin>
                                    <valuemax>100000</valuemax>
                                </parameter>
                                <parameter>
                                    <name>Anchor Point</name>
                                    <parameterid>centerOffset</parameterid>
                                    <value>
                                        <horiz>0</horiz>
                                        <vert>0</vert>
                                    </value>
                                </parameter>
                            </effect>
                        </filter>
                        <filter>
                            <enabled>true</enabled>
                            <start>0</start>
                            <end>115210</end>
                            <effect>
                                <name>Crop</name>
                                <effectid>crop</effectid>
                                <effecttype>motion</effecttype>
                                <mediatype>video</mediatype>
                                <effectcategory>motion</effectcategory>
                                <parameter>
                                    <name>left</name>
                                    <parameterid>left</parameterid>
                                    <value>0</value>
                                    <valuemin>0</valuemin>
                                    <valuemax>100</valuemax>
                                </parameter>
                                <parameter>
                                    <name>right</name>
                                    <parameterid>right</parameterid>
                                    <value>0</value>
                                    <valuemin>0</valuemin>
                                    <valuemax>100</valuemax>
                                </parameter>
                                <parameter>
                                    <name>top</name>
                                    <parameterid>top</parameterid>
                                    <value>0</value>
                                    <valuemin>0</valuemin>
                                    <valuemax>100</valuemax>
                                </parameter>
                                <parameter>
                                    <name>bottom</name>
                                    <parameterid>bottom</parameterid>
                                    <value>0</value>
                                    <valuemin>0</valuemin>
                                    <valuemax>100</valuemax>
                                </parameter>
                            </effect>
                        </filter>
                    </clipitem>
                    <clipitem id="Samstag Morgen Multi 33">
                        <name>Samstag Morgen Multi</name>
                        <duration>115210</duration>
                        <rate>
                            <timebase>25</timebase>
                            <ntsc>false</ntsc>
                        </rate>
                        <start>19480</start>
                        <end>19761</end>
                        <enabled>true</enabled>
                        <in>19480</in>
                        <out>19761</out>
                        <file id="Samstag Morgen Multi 2"/>
                        <compositemode>normal</compositemode>
                        <filter>
                            <enabled>true</enabled>
                            <start>0</start>
                            <end>115210</end>
                            <effect>
                                <name>Opacity</name>
                                <effectid>opacity</effectid>
                                <effecttype>motion</effecttype>
                                <mediatype>video</mediatype>
                                <effectcategory>motion</effectcategory>
                                <parameter>
                                    <name>opacity</name>
                                    <parameterid>opacity</parameterid>
                                    <value>100</value>
                                    <valuemin>0</valuemin>
                                    <valuemax>100</valuemax>
                                </parameter>
                            </effect>
                        </filter>
                        <filter>
                            <enabled>true</enabled>
                            <start>0</start>
                            <end>115210</end>
                            <effect>
                                <name>Basic Motion</name>
                                <effectid>basic</effectid>
                                <effecttype>motion</effecttype>
                                <mediatype>video</mediatype>
                                <effectcategory>motion</effectcategory>
                                <parameter>
                                    <name>Scale</name>
                                    <parameterid>scale</parameterid>
                                    <value>200</value>
                                    <valuemin>25</valuemin>
                                    <valuemax>400</valuemax>
                                </parameter>
                                <parameter>
                                    <name>Center</name>
                                    <parameterid>center</parameterid>
                                    <value>
                                        <horiz>0</horiz>
                                        <vert>0</vert>
                                    </value>
                                </parameter>
                                <parameter>
                                    <name>Rotation</name>
                                    <parameterid>rotation</parameterid>
                                    <value>0</value>
                                    <valuemin>-100000</valuemin>
                                    <valuemax>100000</valuemax>
                                </parameter>
                                <parameter>
                                    <name>Anchor Point</name>
                                    <parameterid>centerOffset</parameterid>
                                    <value>
                                        <horiz>0</horiz>
                                        <vert>0</vert>
                                    </value>
                                </parameter>
                            </effect>
                        </filter>
                        <filter>
                            <enabled>true</enabled>
                            <start>0</start>
                            <end>115210</end>
                            <effect>
                                <name>Crop</name>
                                <effectid>crop</effectid>
                                <effecttype>motion</effecttype>
                                <mediatype>video</mediatype>
                                <effectcategory>motion</effectcategory>
                                <parameter>
                                    <name>left</name>
                                    <parameterid>left</parameterid>
                                    <value>0</value>
                                    <valuemin>0</valuemin>
                                    <valuemax>100</valuemax>
                                </parameter>
                                <parameter>
                                    <name>right</name>
                                    <parameterid>right</parameterid>
                                    <value>0</value>
                                    <valuemin>0</valuemin>
                                    <valuemax>100</valuemax>
                                </parameter>
                                <parameter>
                                    <name>top</name>
                                    <parameterid>top</parameterid>
                                    <value>0</value>
                                    <valuemin>0</valuemin>
                                    <valuemax>100</valuemax>
                                </parameter>
                                <parameter>
                                    <name>bottom</name>
                                    <parameterid>bottom</parameterid>
                                    <value>0</value>
                                    <valuemin>0</valuemin>
                                    <valuemax>100</valuemax>
                                </parameter>
                            </effect>
                        </filter>
                    </clipitem>
                    <clipitem id="Samstag Morgen Multi 35">
                        <name>Samstag Morgen Multi</name>
                        <duration>115210</duration>
                        <rate>
                            <timebase>25</timebase>
                            <ntsc>false</ntsc>
                        </rate>
                        <start>19761</start>
                        <end>19877</end>
                        <enabled>true</enabled>
                        <in>19761</in>
                        <out>19877</out>
                        <file id="Samstag Morgen Multi 2"/>
                        <compositemode>normal</compositemode>
                        <filter>
                            <enabled>true</enabled>
                            <start>0</start>
                            <end>115210</end>
                            <effect>
                                <name>Opacity</name>
                                <effectid>opacity</effectid>
                                <effecttype>motion</effecttype>
                                <mediatype>video</mediatype>
                                <effectcategory>motion</effectcategory>
                                <parameter>
                                    <name>opacity</name>
                                    <parameterid>opacity</parameterid>
                                    <value>100</value>
                                    <valuemin>0</valuemin>
                                    <valuemax>100</valuemax>
                                </parameter>
                            </effect>
                        </filter>
                        <filter>
                            <enabled>true</enabled>
                            <start>0</start>
                            <end>115210</end>
                            <effect>
                                <name>Basic Motion</name>
                                <effectid>basic</effectid>
                                <effecttype>motion</effecttype>
                                <mediatype>video</mediatype>
                                <effectcategory>motion</effectcategory>
                                <parameter>
                                    <name>Scale</name>
                                    <parameterid>scale</parameterid>
                                    <value>100</value>
                                    <valuemin>25</valuemin>
                                    <valuemax>400</valuemax>
                                </parameter>
                                <parameter>
                                    <name>Center</name>
                                    <parameterid>center</parameterid>
                                    <value>
                                        <horiz>0</horiz>
                                        <vert>0</vert>
                                    </value>
                                </parameter>
                                <parameter>
                                    <name>Rotation</name>
                                    <parameterid>rotation</parameterid>
                                    <value>0</value>
                                    <valuemin>-100000</valuemin>
                                    <valuemax>100000</valuemax>
                                </parameter>
                                <parameter>
                                    <name>Anchor Point</name>
                                    <parameterid>centerOffset</parameterid>
                                    <value>
                                        <horiz>0</horiz>
                                        <vert>0</vert>
                                    </value>
                                </parameter>
                            </effect>
                        </filter>
                        <filter>
                            <enabled>true</enabled>
                            <start>0</start>
                            <end>115210</end>
                            <effect>
                                <name>Crop</name>
                                <effectid>crop</effectid>
                                <effecttype>motion</effecttype>
                                <mediatype>video</mediatype>
                                <effectcategory>motion</effectcategory>
                                <parameter>
                                    <name>left</name>
                                    <parameterid>left</parameterid>
                                    <value>0</value>
                                    <valuemin>0</valuemin>
                                    <valuemax>100</valuemax>
                                </parameter>
                                <parameter>
                                    <name>right</name>
                                    <parameterid>right</parameterid>
                                    <value>0</value>
                                    <valuemin>0</valuemin>
                                    <valuemax>100</valuemax>
                                </parameter>
                                <parameter>
                                    <name>top</name>
                                    <parameterid>top</parameterid>
                                    <value>0</value>
                                    <valuemin>0</valuemin>
                                    <valuemax>100</valuemax>
                                </parameter>
                                <parameter>
                                    <name>bottom</name>
                                    <parameterid>bottom</parameterid>
                                    <value>0</value>
                                    <valuemin>0</valuemin>
                                    <valuemax>100</valuemax>
                                </parameter>
                            </effect>
                        </filter>
                    </clipitem>
                    <clipitem id="Samstag Morgen Multi 37">
                        <name>Samstag Morgen Multi</name>
                        <duration>115210</duration>
                        <rate>
                            <timebase>25</timebase>
                            <ntsc>false</ntsc>
                        </rate>
                        <start>19877</start>
                        <end>20345</end>
                        <enabled>true</enabled>
                        <in>19877</in>
                        <out>20345</out>
                        <file id="Samstag Morgen Multi 2"/>
                        <compositemode>normal</compositemode>
                        <filter>
                            <enabled>true</enabled>
                            <start>0</start>
                            <end>115210</end>
                            <effect>
                                <name>Opacity</name>
                                <effectid>opacity</effectid>
                                <effecttype>motion</effecttype>
                                <mediatype>video</mediatype>
                                <effectcategory>motion</effectcategory>
                                <parameter>
                                    <name>opacity</name>
                                    <parameterid>opacity</parameterid>
                                    <value>100</value>
                                    <valuemin>0</valuemin>
                                    <valuemax>100</valuemax>
                                </parameter>
                            </effect>
                        </filter>
                        <filter>
                            <enabled>true</enabled>
                            <start>0</start>
                            <end>115210</end>
                            <effect>
                                <name>Basic Motion</name>
                                <effectid>basic</effectid>
                                <effecttype>motion</effecttype>
                                <mediatype>video</mediatype>
                                <effectcategory>motion</effectcategory>
                                <parameter>
                                    <name>Scale</name>
                                    <parameterid>scale</parameterid>
                                    <value>200</value>
                                    <valuemin>25</valuemin>
                                    <valuemax>400</valuemax>
                                </parameter>
                                <parameter>
                                    <name>Center</name>
                                    <parameterid>center</parameterid>
                                    <value>
                                        <horiz>0</horiz>
                                        <vert>-0.0916666761040688</vert>
                                    </value>
                                </parameter>
                                <parameter>
                                    <name>Rotation</name>
                                    <parameterid>rotation</parameterid>
                                    <value>0</value>
                                    <valuemin>-100000</valuemin>
                                    <valuemax>100000</valuemax>
                                </parameter>
                                <parameter>
                                    <name>Anchor Point</name>
                                    <parameterid>centerOffset</parameterid>
                                    <value>
                                        <horiz>0</horiz>
                                        <vert>0</vert>
                                    </value>
                                </parameter>
                            </effect>
                        </filter>
                        <filter>
                            <enabled>true</enabled>
                            <start>0</start>
                            <end>115210</end>
                            <effect>
                                <name>Crop</name>
                                <effectid>crop</effectid>
                                <effecttype>motion</effecttype>
                                <mediatype>video</mediatype>
                                <effectcategory>motion</effectcategory>
                                <parameter>
                                    <name>left</name>
                                    <parameterid>left</parameterid>
                                    <value>0</value>
                                    <valuemin>0</valuemin>
                                    <valuemax>100</valuemax>
                                </parameter>
                                <parameter>
                                    <name>right</name>
                                    <parameterid>right</parameterid>
                                    <value>0</value>
                                    <valuemin>0</valuemin>
                                    <valuemax>100</valuemax>
                                </parameter>
                                <parameter>
                                    <name>top</name>
                                    <parameterid>top</parameterid>
                                    <value>0</value>
                                    <valuemin>0</valuemin>
                                    <valuemax>100</valuemax>
                                </parameter>
                                <parameter>
                                    <name>bottom</name>
                                    <parameterid>bottom</parameterid>
                                    <value>0</value>
                                    <valuemin>0</valuemin>
                                    <valuemax>100</valuemax>
                                </parameter>
                            </effect>
                        </filter>
                    </clipitem>
                    <clipitem id="Samstag Morgen Multi 39">
                        <name>Samstag Morgen Multi</name>
                        <duration>115210</duration>
                        <rate>
                            <timebase>25</timebase>
                            <ntsc>false</ntsc>
                        </rate>
                        <start>20345</start>
                        <end>21896</end>
                        <enabled>true</enabled>
                        <in>20345</in>
                        <out>21896</out>
                        <file id="Samstag Morgen Multi 2"/>
                        <compositemode>normal</compositemode>
                        <filter>
                            <enabled>true</enabled>
                            <start>0</start>
                            <end>115210</end>
                            <effect>
                                <name>Opacity</name>
                                <effectid>opacity</effectid>
                                <effecttype>motion</effecttype>
                                <mediatype>video</mediatype>
                                <effectcategory>motion</effectcategory>
                                <parameter>
                                    <name>opacity</name>
                                    <parameterid>opacity</parameterid>
                                    <value>100</value>
                                    <valuemin>0</valuemin>
                                    <valuemax>100</valuemax>
                                </parameter>
                            </effect>
                        </filter>
                        <filter>
                            <enabled>true</enabled>
                            <start>0</start>
                            <end>115210</end>
                            <effect>
                                <name>Basic Motion</name>
                                <effectid>basic</effectid>
                                <effecttype>motion</effecttype>
                                <mediatype>video</mediatype>
                                <effectcategory>motion</effectcategory>
                                <parameter>
                                    <name>Scale</name>
                                    <parameterid>scale</parameterid>
                                    <value>100</value>
                                    <valuemin>25</valuemin>
                                    <valuemax>400</valuemax>
                                </parameter>
                                <parameter>
                                    <name>Center</name>
                                    <parameterid>center</parameterid>
                                    <value>
                                        <horiz>0</horiz>
                                        <vert>0</vert>
                                    </value>
                                </parameter>
                                <parameter>
                                    <name>Rotation</name>
                                    <parameterid>rotation</parameterid>
                                    <value>0</value>
                                    <valuemin>-100000</valuemin>
                                    <valuemax>100000</valuemax>
                                </parameter>
                                <parameter>
                                    <name>Anchor Point</name>
                                    <parameterid>centerOffset</parameterid>
                                    <value>
                                        <horiz>0</horiz>
                                        <vert>0</vert>
                                    </value>
                                </parameter>
                            </effect>
                        </filter>
                        <filter>
                            <enabled>true</enabled>
                            <start>0</start>
                            <end>115210</end>
                            <effect>
                                <name>Crop</name>
                                <effectid>crop</effectid>
                                <effecttype>motion</effecttype>
                                <mediatype>video</mediatype>
                                <effectcategory>motion</effectcategory>
                                <parameter>
                                    <name>left</name>
                                    <parameterid>left</parameterid>
                                    <value>0</value>
                                    <valuemin>0</valuemin>
                                    <valuemax>100</valuemax>
                                </parameter>
                                <parameter>
                                    <name>right</name>
                                    <parameterid>right</parameterid>
                                    <value>0</value>
                                    <valuemin>0</valuemin>
                                    <valuemax>100</valuemax>
                                </parameter>
                                <parameter>
                                    <name>top</name>
                                    <parameterid>top</parameterid>
                                    <value>0</value>
                                    <valuemin>0</valuemin>
                                    <valuemax>100</valuemax>
                                </parameter>
                                <parameter>
                                    <name>bottom</name>
                                    <parameterid>bottom</parameterid>
                                    <value>0</value>
                                    <valuemin>0</valuemin>
                                    <valuemax>100</valuemax>
                                </parameter>
                            </effect>
                        </filter>
                    </clipitem>
                    <clipitem id="Samstag Morgen Multi 41">
                        <name>Samstag Morgen Multi</name>
                        <duration>115210</duration>
                        <rate>
                            <timebase>25</timebase>
                            <ntsc>false</ntsc>
                        </rate>
                        <start>21896</start>
                        <end>22062</end>
                        <enabled>true</enabled>
                        <in>21896</in>
                        <out>22062</out>
                        <file id="Samstag Morgen Multi 2"/>
                        <compositemode>normal</compositemode>
                        <filter>
                            <enabled>true</enabled>
                            <start>0</start>
                            <end>115210</end>
                            <effect>
                                <name>Opacity</name>
                                <effectid>opacity</effectid>
                                <effecttype>motion</effecttype>
                                <mediatype>video</mediatype>
                                <effectcategory>motion</effectcategory>
                                <parameter>
                                    <name>opacity</name>
                                    <parameterid>opacity</parameterid>
                                    <value>100</value>
                                    <valuemin>0</valuemin>
                                    <valuemax>100</valuemax>
                                </parameter>
                            </effect>
                        </filter>
                        <filter>
                            <enabled>true</enabled>
                            <start>0</start>
                            <end>115210</end>
                            <effect>
                                <name>Basic Motion</name>
                                <effectid>basic</effectid>
                                <effecttype>motion</effecttype>
                                <mediatype>video</mediatype>
                                <effectcategory>motion</effectcategory>
                                <parameter>
                                    <name>Scale</name>
                                    <parameterid>scale</parameterid>
                                    <value>200</value>
                                    <valuemin>25</valuemin>
                                    <valuemax>400</valuemax>
                                </parameter>
                                <parameter>
                                    <name>Center</name>
                                    <parameterid>center</parameterid>
                                    <value>
                                        <horiz>0.0776041522622108</horiz>
                                        <vert>-0.126851856708527</vert>
                                    </value>
                                </parameter>
                                <parameter>
                                    <name>Rotation</name>
                                    <parameterid>rotation</parameterid>
                                    <value>0</value>
                                    <valuemin>-100000</valuemin>
                                    <valuemax>100000</valuemax>
                                </parameter>
                                <parameter>
                                    <name>Anchor Point</name>
                                    <parameterid>centerOffset</parameterid>
                                    <value>
                                        <horiz>0</horiz>
                                        <vert>0</vert>
                                    </value>
                                </parameter>
                            </effect>
                        </filter>
                        <filter>
                            <enabled>true</enabled>
                            <start>0</start>
                            <end>115210</end>
                            <effect>
                                <name>Crop</name>
                                <effectid>crop</effectid>
                                <effecttype>motion</effecttype>
                                <mediatype>video</mediatype>
                                <effectcategory>motion</effectcategory>
                                <parameter>
                                    <name>left</name>
                                    <parameterid>left</parameterid>
                                    <value>0</value>
                                    <valuemin>0</valuemin>
                                    <valuemax>100</valuemax>
                                </parameter>
                                <parameter>
                                    <name>right</name>
                                    <parameterid>right</parameterid>
                                    <value>0</value>
                                    <valuemin>0</valuemin>
                                    <valuemax>100</valuemax>
                                </parameter>
                                <parameter>
                                    <name>top</name>
                                    <parameterid>top</parameterid>
                                    <value>0</value>
                                    <valuemin>0</valuemin>
                                    <valuemax>100</valuemax>
                                </parameter>
                                <parameter>
                                    <name>bottom</name>
                                    <parameterid>bottom</parameterid>
                                    <value>0</value>
                                    <valuemin>0</valuemin>
                                    <valuemax>100</valuemax>
                                </parameter>
                            </effect>
                        </filter>
                    </clipitem>
                    <clipitem id="Samstag Morgen Multi 43">
                        <name>Samstag Morgen Multi</name>
                        <duration>115210</duration>
                        <rate>
                            <timebase>25</timebase>
                            <ntsc>false</ntsc>
                        </rate>
                        <start>22062</start>
                        <end>22172</end>
                        <enabled>true</enabled>
                        <in>22062</in>
                        <out>22172</out>
                        <file id="Samstag Morgen Multi 2"/>
                        <compositemode>normal</compositemode>
                        <filter>
                            <enabled>true</enabled>
                            <start>0</start>
                            <end>115210</end>
                            <effect>
                                <name>Opacity</name>
                                <effectid>opacity</effectid>
                                <effecttype>motion</effecttype>
                                <mediatype>video</mediatype>
                                <effectcategory>motion</effectcategory>
                                <parameter>
                                    <name>opacity</name>
                                    <parameterid>opacity</parameterid>
                                    <value>100</value>
                                    <valuemin>0</valuemin>
                                    <valuemax>100</valuemax>
                                </parameter>
                            </effect>
                        </filter>
                        <filter>
                            <enabled>true</enabled>
                            <start>0</start>
                            <end>115210</end>
                            <effect>
                                <name>Basic Motion</name>
                                <effectid>basic</effectid>
                                <effecttype>motion</effecttype>
                                <mediatype>video</mediatype>
                                <effectcategory>motion</effectcategory>
                                <parameter>
                                    <name>Scale</name>
                                    <parameterid>scale</parameterid>
                                    <value>100</value>
                                    <valuemin>25</valuemin>
                                    <valuemax>400</valuemax>
                                </parameter>
                                <parameter>
                                    <name>Center</name>
                                    <parameterid>center</parameterid>
                                    <value>
                                        <horiz>0</horiz>
                                        <vert>0</vert>
                                    </value>
                                </parameter>
                                <parameter>
                                    <name>Rotation</name>
                                    <parameterid>rotation</parameterid>
                                    <value>0</value>
                                    <valuemin>-100000</valuemin>
                                    <valuemax>100000</valuemax>
                                </parameter>
                                <parameter>
                                    <name>Anchor Point</name>
                                    <parameterid>centerOffset</parameterid>
                                    <value>
                                        <horiz>0</horiz>
                                        <vert>0</vert>
                                    </value>
                                </parameter>
                            </effect>
                        </filter>
                        <filter>
                            <enabled>true</enabled>
                            <start>0</start>
                            <end>115210</end>
                            <effect>
                                <name>Crop</name>
                                <effectid>crop</effectid>
                                <effecttype>motion</effecttype>
                                <mediatype>video</mediatype>
                                <effectcategory>motion</effectcategory>
                                <parameter>
                                    <name>left</name>
                                    <parameterid>left</parameterid>
                                    <value>0</value>
                                    <valuemin>0</valuemin>
                                    <valuemax>100</valuemax>
                                </parameter>
                                <parameter>
                                    <name>right</name>
                                    <parameterid>right</parameterid>
                                    <value>0</value>
                                    <valuemin>0</valuemin>
                                    <valuemax>100</valuemax>
                                </parameter>
                                <parameter>
                                    <name>top</name>
                                    <parameterid>top</parameterid>
                                    <value>0</value>
                                    <valuemin>0</valuemin>
                                    <valuemax>100</valuemax>
                                </parameter>
                                <parameter>
                                    <name>bottom</name>
                                    <parameterid>bottom</parameterid>
                                    <value>0</value>
                                    <valuemin>0</valuemin>
                                    <valuemax>100</valuemax>
                                </parameter>
                            </effect>
                        </filter>
                    </clipitem>
                    <clipitem id="Samstag Morgen Multi 45">
                        <name>Samstag Morgen Multi</name>
                        <duration>115210</duration>
                        <rate>
                            <timebase>25</timebase>
                            <ntsc>false</ntsc>
                        </rate>
                        <start>22172</start>
                        <end>23292</end>
                        <enabled>true</enabled>
                        <in>22172</in>
                        <out>23292</out>
                        <file id="Samstag Morgen Multi 2"/>
                        <compositemode>normal</compositemode>
                        <filter>
                            <enabled>true</enabled>
                            <start>0</start>
                            <end>115210</end>
                            <effect>
                                <name>Opacity</name>
                                <effectid>opacity</effectid>
                                <effecttype>motion</effecttype>
                                <mediatype>video</mediatype>
                                <effectcategory>motion</effectcategory>
                                <parameter>
                                    <name>opacity</name>
                                    <parameterid>opacity</parameterid>
                                    <value>100</value>
                                    <valuemin>0</valuemin>
                                    <valuemax>100</valuemax>
                                </parameter>
                            </effect>
                        </filter>
                        <filter>
                            <enabled>true</enabled>
                            <start>0</start>
                            <end>115210</end>
                            <effect>
                                <name>Basic Motion</name>
                                <effectid>basic</effectid>
                                <effecttype>motion</effecttype>
                                <mediatype>video</mediatype>
                                <effectcategory>motion</effectcategory>
                                <parameter>
                                    <name>Scale</name>
                                    <parameterid>scale</parameterid>
                                    <value>100</value>
                                    <valuemin>25</valuemin>
                                    <valuemax>400</valuemax>
                                </parameter>
                                <parameter>
                                    <name>Center</name>
                                    <parameterid>center</parameterid>
                                    <value>
                                        <horiz>0</horiz>
                                        <vert>0</vert>
                                    </value>
                                </parameter>
                                <parameter>
                                    <name>Rotation</name>
                                    <parameterid>rotation</parameterid>
                                    <value>0</value>
                                    <valuemin>-100000</valuemin>
                                    <valuemax>100000</valuemax>
                                </parameter>
                                <parameter>
                                    <name>Anchor Point</name>
                                    <parameterid>centerOffset</parameterid>
                                    <value>
                                        <horiz>0</horiz>
                                        <vert>0</vert>
                                    </value>
                                </parameter>
                            </effect>
                        </filter>
                        <filter>
                            <enabled>true</enabled>
                            <start>0</start>
                            <end>115210</end>
                            <effect>
                                <name>Crop</name>
                                <effectid>crop</effectid>
                                <effecttype>motion</effecttype>
                                <mediatype>video</mediatype>
                                <effectcategory>motion</effectcategory>
                                <parameter>
                                    <name>left</name>
                                    <parameterid>left</parameterid>
                                    <value>0</value>
                                    <valuemin>0</valuemin>
                                    <valuemax>100</valuemax>
                                </parameter>
                                <parameter>
                                    <name>right</name>
                                    <parameterid>right</parameterid>
                                    <value>0</value>
                                    <valuemin>0</valuemin>
                                    <valuemax>100</valuemax>
                                </parameter>
                                <parameter>
                                    <name>top</name>
                                    <parameterid>top</parameterid>
                                    <value>0</value>
                                    <valuemin>0</valuemin>
                                    <valuemax>100</valuemax>
                                </parameter>
                                <parameter>
                                    <name>bottom</name>
                                    <parameterid>bottom</parameterid>
                                    <value>0</value>
                                    <valuemin>0</valuemin>
                                    <valuemax>100</valuemax>
                                </parameter>
                            </effect>
                        </filter>
                    </clipitem>
                    <clipitem id="Samstag Morgen Multi 47">
                        <name>Samstag Morgen Multi</name>
                        <duration>115210</duration>
                        <rate>
                            <timebase>25</timebase>
                            <ntsc>false</ntsc>
                        </rate>
                        <start>23292</start>
                        <end>23750</end>
                        <enabled>true</enabled>
                        <in>23292</in>
                        <out>23750</out>
                        <file id="Samstag Morgen Multi 2"/>
                        <compositemode>normal</compositemode>
                        <filter>
                            <enabled>true</enabled>
                            <start>0</start>
                            <end>115210</end>
                            <effect>
                                <name>Opacity</name>
                                <effectid>opacity</effectid>
                                <effecttype>motion</effecttype>
                                <mediatype>video</mediatype>
                                <effectcategory>motion</effectcategory>
                                <parameter>
                                    <name>opacity</name>
                                    <parameterid>opacity</parameterid>
                                    <value>100</value>
                                    <valuemin>0</valuemin>
                                    <valuemax>100</valuemax>
                                </parameter>
                            </effect>
                        </filter>
                        <filter>
                            <enabled>true</enabled>
                            <start>0</start>
                            <end>115210</end>
                            <effect>
                                <name>Basic Motion</name>
                                <effectid>basic</effectid>
                                <effecttype>motion</effecttype>
                                <mediatype>video</mediatype>
                                <effectcategory>motion</effectcategory>
                                <parameter>
                                    <name>Scale</name>
                                    <parameterid>scale</parameterid>
                                    <value>100</value>
                                    <valuemin>25</valuemin>
                                    <valuemax>400</valuemax>
                                </parameter>
                                <parameter>
                                    <name>Center</name>
                                    <parameterid>center</parameterid>
                                    <value>
                                        <horiz>0</horiz>
                                        <vert>0</vert>
                                    </value>
                                </parameter>
                                <parameter>
                                    <name>Rotation</name>
                                    <parameterid>rotation</parameterid>
                                    <value>0</value>
                                    <valuemin>-100000</valuemin>
                                    <valuemax>100000</valuemax>
                                </parameter>
                                <parameter>
                                    <name>Anchor Point</name>
                                    <parameterid>centerOffset</parameterid>
                                    <value>
                                        <horiz>0</horiz>
                                        <vert>0</vert>
                                    </value>
                                </parameter>
                            </effect>
                        </filter>
                        <filter>
                            <enabled>true</enabled>
                            <start>0</start>
                            <end>115210</end>
                            <effect>
                                <name>Crop</name>
                                <effectid>crop</effectid>
                                <effecttype>motion</effecttype>
                                <mediatype>video</mediatype>
                                <effectcategory>motion</effectcategory>
                                <parameter>
                                    <name>left</name>
                                    <parameterid>left</parameterid>
                                    <value>0</value>
                                    <valuemin>0</valuemin>
                                    <valuemax>100</valuemax>
                                </parameter>
                                <parameter>
                                    <name>right</name>
                                    <parameterid>right</parameterid>
                                    <value>0</value>
                                    <valuemin>0</valuemin>
                                    <valuemax>100</valuemax>
                                </parameter>
                                <parameter>
                                    <name>top</name>
                                    <parameterid>top</parameterid>
                                    <value>0</value>
                                    <valuemin>0</valuemin>
                                    <valuemax>100</valuemax>
                                </parameter>
                                <parameter>
                                    <name>bottom</name>
                                    <parameterid>bottom</parameterid>
                                    <value>0</value>
                                    <valuemin>0</valuemin>
                                    <valuemax>100</valuemax>
                                </parameter>
                            </effect>
                        </filter>
                    </clipitem>
                    <clipitem id="Samstag Morgen Multi 49">
                        <name>Samstag Morgen Multi</name>
                        <duration>115210</duration>
                        <rate>
                            <timebase>25</timebase>
                            <ntsc>false</ntsc>
                        </rate>
                        <start>23750</start>
                        <end>24772</end>
                        <enabled>true</enabled>
                        <in>23750</in>
                        <out>24772</out>
                        <file id="Samstag Morgen Multi 2"/>
                        <compositemode>normal</compositemode>
                        <filter>
                            <enabled>true</enabled>
                            <start>0</start>
                            <end>115210</end>
                            <effect>
                                <name>Opacity</name>
                                <effectid>opacity</effectid>
                                <effecttype>motion</effecttype>
                                <mediatype>video</mediatype>
                                <effectcategory>motion</effectcategory>
                                <parameter>
                                    <name>opacity</name>
                                    <parameterid>opacity</parameterid>
                                    <value>100</value>
                                    <valuemin>0</valuemin>
                                    <valuemax>100</valuemax>
                                </parameter>
                            </effect>
                        </filter>
                        <filter>
                            <enabled>true</enabled>
                            <start>0</start>
                            <end>115210</end>
                            <effect>
                                <name>Basic Motion</name>
                                <effectid>basic</effectid>
                                <effecttype>motion</effecttype>
                                <mediatype>video</mediatype>
                                <effectcategory>motion</effectcategory>
                                <parameter>
                                    <name>Scale</name>
                                    <parameterid>scale</parameterid>
                                    <value>100</value>
                                    <valuemin>25</valuemin>
                                    <valuemax>400</valuemax>
                                </parameter>
                                <parameter>
                                    <name>Center</name>
                                    <parameterid>center</parameterid>
                                    <value>
                                        <horiz>0</horiz>
                                        <vert>0</vert>
                                    </value>
                                </parameter>
                                <parameter>
                                    <name>Rotation</name>
                                    <parameterid>rotation</parameterid>
                                    <value>0</value>
                                    <valuemin>-100000</valuemin>
                                    <valuemax>100000</valuemax>
                                </parameter>
                                <parameter>
                                    <name>Anchor Point</name>
                                    <parameterid>centerOffset</parameterid>
                                    <value>
                                        <horiz>0</horiz>
                                        <vert>0</vert>
                                    </value>
                                </parameter>
                            </effect>
                        </filter>
                        <filter>
                            <enabled>true</enabled>
                            <start>0</start>
                            <end>115210</end>
                            <effect>
                                <name>Crop</name>
                                <effectid>crop</effectid>
                                <effecttype>motion</effecttype>
                                <mediatype>video</mediatype>
                                <effectcategory>motion</effectcategory>
                                <parameter>
                                    <name>left</name>
                                    <parameterid>left</parameterid>
                                    <value>0</value>
                                    <valuemin>0</valuemin>
                                    <valuemax>100</valuemax>
                                </parameter>
                                <parameter>
                                    <name>right</name>
                                    <parameterid>right</parameterid>
                                    <value>0</value>
                                    <valuemin>0</valuemin>
                                    <valuemax>100</valuemax>
                                </parameter>
                                <parameter>
                                    <name>top</name>
                                    <parameterid>top</parameterid>
                                    <value>0</value>
                                    <valuemin>0</valuemin>
                                    <valuemax>100</valuemax>
                                </parameter>
                                <parameter>
                                    <name>bottom</name>
                                    <parameterid>bottom</parameterid>
                                    <value>0</value>
                                    <valuemin>0</valuemin>
                                    <valuemax>100</valuemax>
                                </parameter>
                            </effect>
                        </filter>
                    </clipitem>
                    <clipitem id="Samstag Morgen Multi 51">
                        <name>Samstag Morgen Multi</name>
                        <duration>115210</duration>
                        <rate>
                            <timebase>25</timebase>
                            <ntsc>false</ntsc>
                        </rate>
                        <start>24772</start>
                        <end>24865</end>
                        <enabled>true</enabled>
                        <in>24772</in>
                        <out>24865</out>
                        <file id="Samstag Morgen Multi 2"/>
                        <compositemode>normal</compositemode>
                        <filter>
                            <enabled>true</enabled>
                            <start>0</start>
                            <end>115210</end>
                            <effect>
                                <name>Opacity</name>
                                <effectid>opacity</effectid>
                                <effecttype>motion</effecttype>
                                <mediatype>video</mediatype>
                                <effectcategory>motion</effectcategory>
                                <parameter>
                                    <name>opacity</name>
                                    <parameterid>opacity</parameterid>
                                    <value>100</value>
                                    <valuemin>0</valuemin>
                                    <valuemax>100</valuemax>
                                </parameter>
                            </effect>
                        </filter>
                        <filter>
                            <enabled>true</enabled>
                            <start>0</start>
                            <end>115210</end>
                            <effect>
                                <name>Basic Motion</name>
                                <effectid>basic</effectid>
                                <effecttype>motion</effecttype>
                                <mediatype>video</mediatype>
                                <effectcategory>motion</effectcategory>
                                <parameter>
                                    <name>Scale</name>
                                    <parameterid>scale</parameterid>
                                    <value>100</value>
                                    <valuemin>25</valuemin>
                                    <valuemax>400</valuemax>
                                </parameter>
                                <parameter>
                                    <name>Center</name>
                                    <parameterid>center</parameterid>
                                    <value>
                                        <horiz>0</horiz>
                                        <vert>0</vert>
                                    </value>
                                </parameter>
                                <parameter>
                                    <name>Rotation</name>
                                    <parameterid>rotation</parameterid>
                                    <value>0</value>
                                    <valuemin>-100000</valuemin>
                                    <valuemax>100000</valuemax>
                                </parameter>
                                <parameter>
                                    <name>Anchor Point</name>
                                    <parameterid>centerOffset</parameterid>
                                    <value>
                                        <horiz>0</horiz>
                                        <vert>0</vert>
                                    </value>
                                </parameter>
                            </effect>
                        </filter>
                        <filter>
                            <enabled>true</enabled>
                            <start>0</start>
                            <end>115210</end>
                            <effect>
                                <name>Crop</name>
                                <effectid>crop</effectid>
                                <effecttype>motion</effecttype>
                                <mediatype>video</mediatype>
                                <effectcategory>motion</effectcategory>
                                <parameter>
                                    <name>left</name>
                                    <parameterid>left</parameterid>
                                    <value>0</value>
                                    <valuemin>0</valuemin>
                                    <valuemax>100</valuemax>
                                </parameter>
                                <parameter>
                                    <name>right</name>
                                    <parameterid>right</parameterid>
                                    <value>0</value>
                                    <valuemin>0</valuemin>
                                    <valuemax>100</valuemax>
                                </parameter>
                                <parameter>
                                    <name>top</name>
                                    <parameterid>top</parameterid>
                                    <value>0</value>
                                    <valuemin>0</valuemin>
                                    <valuemax>100</valuemax>
                                </parameter>
                                <parameter>
                                    <name>bottom</name>
                                    <parameterid>bottom</parameterid>
                                    <value>0</value>
                                    <valuemin>0</valuemin>
                                    <valuemax>100</valuemax>
                                </parameter>
                            </effect>
                        </filter>
                    </clipitem>
                    <clipitem id="Samstag Morgen Multi 53">
                        <name>Samstag Morgen Multi</name>
                        <duration>115210</duration>
                        <rate>
                            <timebase>25</timebase>
                            <ntsc>false</ntsc>
                        </rate>
                        <start>24865</start>
                        <end>27499</end>
                        <enabled>true</enabled>
                        <in>24865</in>
                        <out>27499</out>
                        <file id="Samstag Morgen Multi 2"/>
                        <compositemode>normal</compositemode>
                        <filter>
                            <enabled>true</enabled>
                            <start>0</start>
                            <end>115210</end>
                            <effect>
                                <name>Opacity</name>
                                <effectid>opacity</effectid>
                                <effecttype>motion</effecttype>
                                <mediatype>video</mediatype>
                                <effectcategory>motion</effectcategory>
                                <parameter>
                                    <name>opacity</name>
                                    <parameterid>opacity</parameterid>
                                    <value>100</value>
                                    <valuemin>0</valuemin>
                                    <valuemax>100</valuemax>
                                </parameter>
                            </effect>
                        </filter>
                        <filter>
                            <enabled>true</enabled>
                            <start>0</start>
                            <end>115210</end>
                            <effect>
                                <name>Basic Motion</name>
                                <effectid>basic</effectid>
                                <effecttype>motion</effecttype>
                                <mediatype>video</mediatype>
                                <effectcategory>motion</effectcategory>
                                <parameter>
                                    <name>Scale</name>
                                    <parameterid>scale</parameterid>
                                    <value>100</value>
                                    <valuemin>25</valuemin>
                                    <valuemax>400</valuemax>
                                </parameter>
                                <parameter>
                                    <name>Center</name>
                                    <parameterid>center</parameterid>
                                    <value>
                                        <horiz>0</horiz>
                                        <vert>0</vert>
                                    </value>
                                </parameter>
                                <parameter>
                                    <name>Rotation</name>
                                    <parameterid>rotation</parameterid>
                                    <value>0</value>
                                    <valuemin>-100000</valuemin>
                                    <valuemax>100000</valuemax>
                                </parameter>
                                <parameter>
                                    <name>Anchor Point</name>
                                    <parameterid>centerOffset</parameterid>
                                    <value>
                                        <horiz>0</horiz>
                                        <vert>0</vert>
                                    </value>
                                </parameter>
                            </effect>
                        </filter>
                        <filter>
                            <enabled>true</enabled>
                            <start>0</start>
                            <end>115210</end>
                            <effect>
                                <name>Crop</name>
                                <effectid>crop</effectid>
                                <effecttype>motion</effecttype>
                                <mediatype>video</mediatype>
                                <effectcategory>motion</effectcategory>
                                <parameter>
                                    <name>left</name>
                                    <parameterid>left</parameterid>
                                    <value>0</value>
                                    <valuemin>0</valuemin>
                                    <valuemax>100</valuemax>
                                </parameter>
                                <parameter>
                                    <name>right</name>
                                    <parameterid>right</parameterid>
                                    <value>0</value>
                                    <valuemin>0</valuemin>
                                    <valuemax>100</valuemax>
                                </parameter>
                                <parameter>
                                    <name>top</name>
                                    <parameterid>top</parameterid>
                                    <value>0</value>
                                    <valuemin>0</valuemin>
                                    <valuemax>100</valuemax>
                                </parameter>
                                <parameter>
                                    <name>bottom</name>
                                    <parameterid>bottom</parameterid>
                                    <value>0</value>
                                    <valuemin>0</valuemin>
                                    <valuemax>100</valuemax>
                                </parameter>
                            </effect>
                        </filter>
                    </clipitem>
                    <clipitem id="Samstag Morgen Multi 55">
                        <name>Samstag Morgen Multi</name>
                        <duration>115210</duration>
                        <rate>
                            <timebase>25</timebase>
                            <ntsc>false</ntsc>
                        </rate>
                        <start>27499</start>
                        <end>27737</end>
                        <enabled>true</enabled>
                        <in>27499</in>
                        <out>27737</out>
                        <file id="Samstag Morgen Multi 2"/>
                        <compositemode>normal</compositemode>
                        <filter>
                            <enabled>true</enabled>
                            <start>0</start>
                            <end>115210</end>
                            <effect>
                                <name>Opacity</name>
                                <effectid>opacity</effectid>
                                <effecttype>motion</effecttype>
                                <mediatype>video</mediatype>
                                <effectcategory>motion</effectcategory>
                                <parameter>
                                    <name>opacity</name>
                                    <parameterid>opacity</parameterid>
                                    <value>100</value>
                                    <valuemin>0</valuemin>
                                    <valuemax>100</valuemax>
                                </parameter>
                            </effect>
                        </filter>
                        <filter>
                            <enabled>true</enabled>
                            <start>0</start>
                            <end>115210</end>
                            <effect>
                                <name>Basic Motion</name>
                                <effectid>basic</effectid>
                                <effecttype>motion</effecttype>
                                <mediatype>video</mediatype>
                                <effectcategory>motion</effectcategory>
                                <parameter>
                                    <name>Scale</name>
                                    <parameterid>scale</parameterid>
                                    <value>100</value>
                                    <valuemin>25</valuemin>
                                    <valuemax>400</valuemax>
                                </parameter>
                                <parameter>
                                    <name>Center</name>
                                    <parameterid>center</parameterid>
                                    <value>
                                        <horiz>0</horiz>
                                        <vert>0</vert>
                                    </value>
                                </parameter>
                                <parameter>
                                    <name>Rotation</name>
                                    <parameterid>rotation</parameterid>
                                    <value>0</value>
                                    <valuemin>-100000</valuemin>
                                    <valuemax>100000</valuemax>
                                </parameter>
                                <parameter>
                                    <name>Anchor Point</name>
                                    <parameterid>centerOffset</parameterid>
                                    <value>
                                        <horiz>0</horiz>
                                        <vert>0</vert>
                                    </value>
                                </parameter>
                            </effect>
                        </filter>
                        <filter>
                            <enabled>true</enabled>
                            <start>0</start>
                            <end>115210</end>
                            <effect>
                                <name>Crop</name>
                                <effectid>crop</effectid>
                                <effecttype>motion</effecttype>
                                <mediatype>video</mediatype>
                                <effectcategory>motion</effectcategory>
                                <parameter>
                                    <name>left</name>
                                    <parameterid>left</parameterid>
                                    <value>0</value>
                                    <valuemin>0</valuemin>
                                    <valuemax>100</valuemax>
                                </parameter>
                                <parameter>
                                    <name>right</name>
                                    <parameterid>right</parameterid>
                                    <value>0</value>
                                    <valuemin>0</valuemin>
                                    <valuemax>100</valuemax>
                                </parameter>
                                <parameter>
                                    <name>top</name>
                                    <parameterid>top</parameterid>
                                    <value>0</value>
                                    <valuemin>0</valuemin>
                                    <valuemax>100</valuemax>
                                </parameter>
                                <parameter>
                                    <name>bottom</name>
                                    <parameterid>bottom</parameterid>
                                    <value>0</value>
                                    <valuemin>0</valuemin>
                                    <valuemax>100</valuemax>
                                </parameter>
                            </effect>
                        </filter>
                    </clipitem>
                    <clipitem id="Samstag Morgen Multi 57">
                        <name>Samstag Morgen Multi</name>
                        <duration>115210</duration>
                        <rate>
                            <timebase>25</timebase>
                            <ntsc>false</ntsc>
                        </rate>
                        <start>27737</start>
                        <end>28571</end>
                        <enabled>true</enabled>
                        <in>27737</in>
                        <out>28571</out>
                        <file id="Samstag Morgen Multi 2"/>
                        <compositemode>normal</compositemode>
                        <filter>
                            <enabled>true</enabled>
                            <start>0</start>
                            <end>115210</end>
                            <effect>
                                <name>Opacity</name>
                                <effectid>opacity</effectid>
                                <effecttype>motion</effecttype>
                                <mediatype>video</mediatype>
                                <effectcategory>motion</effectcategory>
                                <parameter>
                                    <name>opacity</name>
                                    <parameterid>opacity</parameterid>
                                    <value>100</value>
                                    <valuemin>0</valuemin>
                                    <valuemax>100</valuemax>
                                </parameter>
                            </effect>
                        </filter>
                        <filter>
                            <enabled>true</enabled>
                            <start>0</start>
                            <end>115210</end>
                            <effect>
                                <name>Basic Motion</name>
                                <effectid>basic</effectid>
                                <effecttype>motion</effecttype>
                                <mediatype>video</mediatype>
                                <effectcategory>motion</effectcategory>
                                <parameter>
                                    <name>Scale</name>
                                    <parameterid>scale</parameterid>
                                    <value>100</value>
                                    <valuemin>25</valuemin>
                                    <valuemax>400</valuemax>
                                </parameter>
                                <parameter>
                                    <name>Center</name>
                                    <parameterid>center</parameterid>
                                    <value>
                                        <horiz>0</horiz>
                                        <vert>0</vert>
                                    </value>
                                </parameter>
                                <parameter>
                                    <name>Rotation</name>
                                    <parameterid>rotation</parameterid>
                                    <value>0</value>
                                    <valuemin>-100000</valuemin>
                                    <valuemax>100000</valuemax>
                                </parameter>
                                <parameter>
                                    <name>Anchor Point</name>
                                    <parameterid>centerOffset</parameterid>
                                    <value>
                                        <horiz>0</horiz>
                                        <vert>0</vert>
                                    </value>
                                </parameter>
                            </effect>
                        </filter>
                        <filter>
                            <enabled>true</enabled>
                            <start>0</start>
                            <end>115210</end>
                            <effect>
                                <name>Crop</name>
                                <effectid>crop</effectid>
                                <effecttype>motion</effecttype>
                                <mediatype>video</mediatype>
                                <effectcategory>motion</effectcategory>
                                <parameter>
                                    <name>left</name>
                                    <parameterid>left</parameterid>
                                    <value>0</value>
                                    <valuemin>0</valuemin>
                                    <valuemax>100</valuemax>
                                </parameter>
                                <parameter>
                                    <name>right</name>
                                    <parameterid>right</parameterid>
                                    <value>0</value>
                                    <valuemin>0</valuemin>
                                    <valuemax>100</valuemax>
                                </parameter>
                                <parameter>
                                    <name>top</name>
                                    <parameterid>top</parameterid>
                                    <value>0</value>
                                    <valuemin>0</valuemin>
                                    <valuemax>100</valuemax>
                                </parameter>
                                <parameter>
                                    <name>bottom</name>
                                    <parameterid>bottom</parameterid>
                                    <value>0</value>
                                    <valuemin>0</valuemin>
                                    <valuemax>100</valuemax>
                                </parameter>
                            </effect>
                        </filter>
                    </clipitem>
                    <clipitem id="Samstag Morgen Multi 59">
                        <name>Samstag Morgen Multi</name>
                        <duration>115210</duration>
                        <rate>
                            <timebase>25</timebase>
                            <ntsc>false</ntsc>
                        </rate>
                        <start>28571</start>
                        <end>29103</end>
                        <enabled>true</enabled>
                        <in>28571</in>
                        <out>29103</out>
                        <file id="Samstag Morgen Multi 2"/>
                        <compositemode>normal</compositemode>
                        <filter>
                            <enabled>true</enabled>
                            <start>0</start>
                            <end>115210</end>
                            <effect>
                                <name>Opacity</name>
                                <effectid>opacity</effectid>
                                <effecttype>motion</effecttype>
                                <mediatype>video</mediatype>
                                <effectcategory>motion</effectcategory>
                                <parameter>
                                    <name>opacity</name>
                                    <parameterid>opacity</parameterid>
                                    <value>100</value>
                                    <valuemin>0</valuemin>
                                    <valuemax>100</valuemax>
                                </parameter>
                            </effect>
                        </filter>
                        <filter>
                            <enabled>true</enabled>
                            <start>0</start>
                            <end>115210</end>
                            <effect>
                                <name>Basic Motion</name>
                                <effectid>basic</effectid>
                                <effecttype>motion</effecttype>
                                <mediatype>video</mediatype>
                                <effectcategory>motion</effectcategory>
                                <parameter>
                                    <name>Scale</name>
                                    <parameterid>scale</parameterid>
                                    <value>200</value>
                                    <valuemin>25</valuemin>
                                    <valuemax>400</valuemax>
                                </parameter>
                                <parameter>
                                    <name>Center</name>
                                    <parameterid>center</parameterid>
                                    <value>
                                        <horiz>0.410416841506958</horiz>
                                        <vert>-0.117592617869377</vert>
                                    </value>
                                </parameter>
                                <parameter>
                                    <name>Rotation</name>
                                    <parameterid>rotation</parameterid>
                                    <value>0</value>
                                    <valuemin>-100000</valuemin>
                                    <valuemax>100000</valuemax>
                                </parameter>
                                <parameter>
                                    <name>Anchor Point</name>
                                    <parameterid>centerOffset</parameterid>
                                    <value>
                                        <horiz>0</horiz>
                                        <vert>0</vert>
                                    </value>
                                </parameter>
                            </effect>
                        </filter>
                        <filter>
                            <enabled>true</enabled>
                            <start>0</start>
                            <end>115210</end>
                            <effect>
                                <name>Crop</name>
                                <effectid>crop</effectid>
                                <effecttype>motion</effecttype>
                                <mediatype>video</mediatype>
                                <effectcategory>motion</effectcategory>
                                <parameter>
                                    <name>left</name>
                                    <parameterid>left</parameterid>
                                    <value>0</value>
                                    <valuemin>0</valuemin>
                                    <valuemax>100</valuemax>
                                </parameter>
                                <parameter>
                                    <name>right</name>
                                    <parameterid>right</parameterid>
                                    <value>0</value>
                                    <valuemin>0</valuemin>
                                    <valuemax>100</valuemax>
                                </parameter>
                                <parameter>
                                    <name>top</name>
                                    <parameterid>top</parameterid>
                                    <value>0</value>
                                    <valuemin>0</valuemin>
                                    <valuemax>100</valuemax>
                                </parameter>
                                <parameter>
                                    <name>bottom</name>
                                    <parameterid>bottom</parameterid>
                                    <value>0</value>
                                    <valuemin>0</valuemin>
                                    <valuemax>100</valuemax>
                                </parameter>
                            </effect>
                        </filter>
                    </clipitem>
                    <clipitem id="Samstag Morgen Multi 61">
                        <name>Samstag Morgen Multi</name>
                        <duration>115210</duration>
                        <rate>
                            <timebase>25</timebase>
                            <ntsc>false</ntsc>
                        </rate>
                        <start>29103</start>
                        <end>30240</end>
                        <enabled>true</enabled>
                        <in>29103</in>
                        <out>30240</out>
                        <file id="Samstag Morgen Multi 2"/>
                        <compositemode>normal</compositemode>
                        <filter>
                            <enabled>true</enabled>
                            <start>0</start>
                            <end>115210</end>
                            <effect>
                                <name>Opacity</name>
                                <effectid>opacity</effectid>
                                <effecttype>motion</effecttype>
                                <mediatype>video</mediatype>
                                <effectcategory>motion</effectcategory>
                                <parameter>
                                    <name>opacity</name>
                                    <parameterid>opacity</parameterid>
                                    <value>100</value>
                                    <valuemin>0</valuemin>
                                    <valuemax>100</valuemax>
                                </parameter>
                            </effect>
                        </filter>
                        <filter>
                            <enabled>true</enabled>
                            <start>0</start>
                            <end>115210</end>
                            <effect>
                                <name>Basic Motion</name>
                                <effectid>basic</effectid>
                                <effecttype>motion</effecttype>
                                <mediatype>video</mediatype>
                                <effectcategory>motion</effectcategory>
                                <parameter>
                                    <name>Scale</name>
                                    <parameterid>scale</parameterid>
                                    <value>100</value>
                                    <valuemin>25</valuemin>
                                    <valuemax>400</valuemax>
                                </parameter>
                                <parameter>
                                    <name>Center</name>
                                    <parameterid>center</parameterid>
                                    <value>
                                        <horiz>0</horiz>
                                        <vert>0</vert>
                                    </value>
                                </parameter>
                                <parameter>
                                    <name>Rotation</name>
                                    <parameterid>rotation</parameterid>
                                    <value>0</value>
                                    <valuemin>-100000</valuemin>
                                    <valuemax>100000</valuemax>
                                </parameter>
                                <parameter>
                                    <name>Anchor Point</name>
                                    <parameterid>centerOffset</parameterid>
                                    <value>
                                        <horiz>0</horiz>
                                        <vert>0</vert>
                                    </value>
                                </parameter>
                            </effect>
                        </filter>
                        <filter>
                            <enabled>true</enabled>
                            <start>0</start>
                            <end>115210</end>
                            <effect>
                                <name>Crop</name>
                                <effectid>crop</effectid>
                                <effecttype>motion</effecttype>
                                <mediatype>video</mediatype>
                                <effectcategory>motion</effectcategory>
                                <parameter>
                                    <name>left</name>
                                    <parameterid>left</parameterid>
                                    <value>0</value>
                                    <valuemin>0</valuemin>
                                    <valuemax>100</valuemax>
                                </parameter>
                                <parameter>
                                    <name>right</name>
                                    <parameterid>right</parameterid>
                                    <value>0</value>
                                    <valuemin>0</valuemin>
                                    <valuemax>100</valuemax>
                                </parameter>
                                <parameter>
                                    <name>top</name>
                                    <parameterid>top</parameterid>
                                    <value>0</value>
                                    <valuemin>0</valuemin>
                                    <valuemax>100</valuemax>
                                </parameter>
                                <parameter>
                                    <name>bottom</name>
                                    <parameterid>bottom</parameterid>
                                    <value>0</value>
                                    <valuemin>0</valuemin>
                                    <valuemax>100</valuemax>
                                </parameter>
                            </effect>
                        </filter>
                    </clipitem>
                    <clipitem id="Samstag Morgen Multi 63">
                        <name>Samstag Morgen Multi</name>
                        <duration>115210</duration>
                        <rate>
                            <timebase>25</timebase>
                            <ntsc>false</ntsc>
                        </rate>
                        <start>30240</start>
                        <end>30831</end>
                        <enabled>true</enabled>
                        <in>30240</in>
                        <out>30831</out>
                        <file id="Samstag Morgen Multi 2"/>
                        <compositemode>normal</compositemode>
                        <filter>
                            <enabled>true</enabled>
                            <start>0</start>
                            <end>115210</end>
                            <effect>
                                <name>Opacity</name>
                                <effectid>opacity</effectid>
                                <effecttype>motion</effecttype>
                                <mediatype>video</mediatype>
                                <effectcategory>motion</effectcategory>
                                <parameter>
                                    <name>opacity</name>
                                    <parameterid>opacity</parameterid>
                                    <value>100</value>
                                    <valuemin>0</valuemin>
                                    <valuemax>100</valuemax>
                                </parameter>
                            </effect>
                        </filter>
                        <filter>
                            <enabled>true</enabled>
                            <start>0</start>
                            <end>115210</end>
                            <effect>
                                <name>Basic Motion</name>
                                <effectid>basic</effectid>
                                <effecttype>motion</effecttype>
                                <mediatype>video</mediatype>
                                <effectcategory>motion</effectcategory>
                                <parameter>
                                    <name>Scale</name>
                                    <parameterid>scale</parameterid>
                                    <value>200</value>
                                    <valuemin>25</valuemin>
                                    <valuemax>400</valuemax>
                                </parameter>
                                <parameter>
                                    <name>Center</name>
                                    <parameterid>center</parameterid>
                                    <value>
                                        <horiz>0</horiz>
                                        <vert>-0.165740758180618</vert>
                                    </value>
                                </parameter>
                                <parameter>
                                    <name>Rotation</name>
                                    <parameterid>rotation</parameterid>
                                    <value>0</value>
                                    <valuemin>-100000</valuemin>
                                    <valuemax>100000</valuemax>
                                </parameter>
                                <parameter>
                                    <name>Anchor Point</name>
                                    <parameterid>centerOffset</parameterid>
                                    <value>
                                        <horiz>0</horiz>
                                        <vert>0</vert>
                                    </value>
                                </parameter>
                            </effect>
                        </filter>
                        <filter>
                            <enabled>true</enabled>
                            <start>0</start>
                            <end>115210</end>
                            <effect>
                                <name>Crop</name>
                                <effectid>crop</effectid>
                                <effecttype>motion</effecttype>
                                <mediatype>video</mediatype>
                                <effectcategory>motion</effectcategory>
                                <parameter>
                                    <name>left</name>
                                    <parameterid>left</parameterid>
                                    <value>0</value>
                                    <valuemin>0</valuemin>
                                    <valuemax>100</valuemax>
                                </parameter>
                                <parameter>
                                    <name>right</name>
                                    <parameterid>right</parameterid>
                                    <value>0</value>
                                    <valuemin>0</valuemin>
                                    <valuemax>100</valuemax>
                                </parameter>
                                <parameter>
                                    <name>top</name>
                                    <parameterid>top</parameterid>
                                    <value>0</value>
                                    <valuemin>0</valuemin>
                                    <valuemax>100</valuemax>
                                </parameter>
                                <parameter>
                                    <name>bottom</name>
                                    <parameterid>bottom</parameterid>
                                    <value>0</value>
                                    <valuemin>0</valuemin>
                                    <valuemax>100</valuemax>
                                </parameter>
                            </effect>
                        </filter>
                    </clipitem>
                    <clipitem id="Samstag Morgen Multi 65">
                        <name>Samstag Morgen Multi</name>
                        <duration>115210</duration>
                        <rate>
                            <timebase>25</timebase>
                            <ntsc>false</ntsc>
                        </rate>
                        <start>30831</start>
                        <end>34394</end>
                        <enabled>true</enabled>
                        <in>30831</in>
                        <out>34394</out>
                        <file id="Samstag Morgen Multi 2"/>
                        <compositemode>normal</compositemode>
                        <filter>
                            <enabled>true</enabled>
                            <start>0</start>
                            <end>115210</end>
                            <effect>
                                <name>Opacity</name>
                                <effectid>opacity</effectid>
                                <effecttype>motion</effecttype>
                                <mediatype>video</mediatype>
                                <effectcategory>motion</effectcategory>
                                <parameter>
                                    <name>opacity</name>
                                    <parameterid>opacity</parameterid>
                                    <value>100</value>
                                    <valuemin>0</valuemin>
                                    <valuemax>100</valuemax>
                                </parameter>
                            </effect>
                        </filter>
                        <filter>
                            <enabled>true</enabled>
                            <start>0</start>
                            <end>115210</end>
                            <effect>
                                <name>Basic Motion</name>
                                <effectid>basic</effectid>
                                <effecttype>motion</effecttype>
                                <mediatype>video</mediatype>
                                <effectcategory>motion</effectcategory>
                                <parameter>
                                    <name>Scale</name>
                                    <parameterid>scale</parameterid>
                                    <value>100</value>
                                    <valuemin>25</valuemin>
                                    <valuemax>400</valuemax>
                                </parameter>
                                <parameter>
                                    <name>Center</name>
                                    <parameterid>center</parameterid>
                                    <value>
                                        <horiz>0</horiz>
                                        <vert>0</vert>
                                    </value>
                                </parameter>
                                <parameter>
                                    <name>Rotation</name>
                                    <parameterid>rotation</parameterid>
                                    <value>0</value>
                                    <valuemin>-100000</valuemin>
                                    <valuemax>100000</valuemax>
                                </parameter>
                                <parameter>
                                    <name>Anchor Point</name>
                                    <parameterid>centerOffset</parameterid>
                                    <value>
                                        <horiz>0</horiz>
                                        <vert>0</vert>
                                    </value>
                                </parameter>
                            </effect>
                        </filter>
                        <filter>
                            <enabled>true</enabled>
                            <start>0</start>
                            <end>115210</end>
                            <effect>
                                <name>Crop</name>
                                <effectid>crop</effectid>
                                <effecttype>motion</effecttype>
                                <mediatype>video</mediatype>
                                <effectcategory>motion</effectcategory>
                                <parameter>
                                    <name>left</name>
                                    <parameterid>left</parameterid>
                                    <value>0</value>
                                    <valuemin>0</valuemin>
                                    <valuemax>100</valuemax>
                                </parameter>
                                <parameter>
                                    <name>right</name>
                                    <parameterid>right</parameterid>
                                    <value>0</value>
                                    <valuemin>0</valuemin>
                                    <valuemax>100</valuemax>
                                </parameter>
                                <parameter>
                                    <name>top</name>
                                    <parameterid>top</parameterid>
                                    <value>0</value>
                                    <valuemin>0</valuemin>
                                    <valuemax>100</valuemax>
                                </parameter>
                                <parameter>
                                    <name>bottom</name>
                                    <parameterid>bottom</parameterid>
                                    <value>0</value>
                                    <valuemin>0</valuemin>
                                    <valuemax>100</valuemax>
                                </parameter>
                            </effect>
                        </filter>
                    </clipitem>
                    <clipitem id="Samstag Morgen Multi 67">
                        <name>Samstag Morgen Multi</name>
                        <duration>115210</duration>
                        <rate>
                            <timebase>25</timebase>
                            <ntsc>false</ntsc>
                        </rate>
                        <start>34394</start>
                        <end>34668</end>
                        <enabled>true</enabled>
                        <in>34394</in>
                        <out>34668</out>
                        <file id="Samstag Morgen Multi 2"/>
                        <compositemode>normal</compositemode>
                        <filter>
                            <enabled>true</enabled>
                            <start>0</start>
                            <end>115210</end>
                            <effect>
                                <name>Opacity</name>
                                <effectid>opacity</effectid>
                                <effecttype>motion</effecttype>
                                <mediatype>video</mediatype>
                                <effectcategory>motion</effectcategory>
                                <parameter>
                                    <name>opacity</name>
                                    <parameterid>opacity</parameterid>
                                    <value>100</value>
                                    <valuemin>0</valuemin>
                                    <valuemax>100</valuemax>
                                </parameter>
                            </effect>
                        </filter>
                        <filter>
                            <enabled>true</enabled>
                            <start>0</start>
                            <end>115210</end>
                            <effect>
                                <name>Basic Motion</name>
                                <effectid>basic</effectid>
                                <effecttype>motion</effecttype>
                                <mediatype>video</mediatype>
                                <effectcategory>motion</effectcategory>
                                <parameter>
                                    <name>Scale</name>
                                    <parameterid>scale</parameterid>
                                    <value>200</value>
                                    <valuemin>25</valuemin>
                                    <valuemax>400</valuemax>
                                </parameter>
                                <parameter>
                                    <name>Center</name>
                                    <parameterid>center</parameterid>
                                    <value>
                                        <horiz>0</horiz>
                                        <vert>0</vert>
                                    </value>
                                </parameter>
                                <parameter>
                                    <name>Rotation</name>
                                    <parameterid>rotation</parameterid>
                                    <value>0</value>
                                    <valuemin>-100000</valuemin>
                                    <valuemax>100000</valuemax>
                                </parameter>
                                <parameter>
                                    <name>Anchor Point</name>
                                    <parameterid>centerOffset</parameterid>
                                    <value>
                                        <horiz>0</horiz>
                                        <vert>0</vert>
                                    </value>
                                </parameter>
                            </effect>
                        </filter>
                        <filter>
                            <enabled>true</enabled>
                            <start>0</start>
                            <end>115210</end>
                            <effect>
                                <name>Crop</name>
                                <effectid>crop</effectid>
                                <effecttype>motion</effecttype>
                                <mediatype>video</mediatype>
                                <effectcategory>motion</effectcategory>
                                <parameter>
                                    <name>left</name>
                                    <parameterid>left</parameterid>
                                    <value>0</value>
                                    <valuemin>0</valuemin>
                                    <valuemax>100</valuemax>
                                </parameter>
                                <parameter>
                                    <name>right</name>
                                    <parameterid>right</parameterid>
                                    <value>0</value>
                                    <valuemin>0</valuemin>
                                    <valuemax>100</valuemax>
                                </parameter>
                                <parameter>
                                    <name>top</name>
                                    <parameterid>top</parameterid>
                                    <value>0</value>
                                    <valuemin>0</valuemin>
                                    <valuemax>100</valuemax>
                                </parameter>
                                <parameter>
                                    <name>bottom</name>
                                    <parameterid>bottom</parameterid>
                                    <value>0</value>
                                    <valuemin>0</valuemin>
                                    <valuemax>100</valuemax>
                                </parameter>
                            </effect>
                        </filter>
                    </clipitem>
                    <clipitem id="Samstag Morgen Multi 69">
                        <name>Samstag Morgen Multi</name>
                        <duration>115210</duration>
                        <rate>
                            <timebase>25</timebase>
                            <ntsc>false</ntsc>
                        </rate>
                        <start>34668</start>
                        <end>35045</end>
                        <enabled>true</enabled>
                        <in>34668</in>
                        <out>35045</out>
                        <file id="Samstag Morgen Multi 2"/>
                        <compositemode>normal</compositemode>
                        <filter>
                            <enabled>true</enabled>
                            <start>0</start>
                            <end>115210</end>
                            <effect>
                                <name>Opacity</name>
                                <effectid>opacity</effectid>
                                <effecttype>motion</effecttype>
                                <mediatype>video</mediatype>
                                <effectcategory>motion</effectcategory>
                                <parameter>
                                    <name>opacity</name>
                                    <parameterid>opacity</parameterid>
                                    <value>100</value>
                                    <valuemin>0</valuemin>
                                    <valuemax>100</valuemax>
                                </parameter>
                            </effect>
                        </filter>
                        <filter>
                            <enabled>true</enabled>
                            <start>0</start>
                            <end>115210</end>
                            <effect>
                                <name>Basic Motion</name>
                                <effectid>basic</effectid>
                                <effecttype>motion</effecttype>
                                <mediatype>video</mediatype>
                                <effectcategory>motion</effectcategory>
                                <parameter>
                                    <name>Scale</name>
                                    <parameterid>scale</parameterid>
                                    <value>100</value>
                                    <valuemin>25</valuemin>
                                    <valuemax>400</valuemax>
                                </parameter>
                                <parameter>
                                    <name>Center</name>
                                    <parameterid>center</parameterid>
                                    <value>
                                        <horiz>0</horiz>
                                        <vert>0</vert>
                                    </value>
                                </parameter>
                                <parameter>
                                    <name>Rotation</name>
                                    <parameterid>rotation</parameterid>
                                    <value>0</value>
                                    <valuemin>-100000</valuemin>
                                    <valuemax>100000</valuemax>
                                </parameter>
                                <parameter>
                                    <name>Anchor Point</name>
                                    <parameterid>centerOffset</parameterid>
                                    <value>
                                        <horiz>0</horiz>
                                        <vert>0</vert>
                                    </value>
                                </parameter>
                            </effect>
                        </filter>
                        <filter>
                            <enabled>true</enabled>
                            <start>0</start>
                            <end>115210</end>
                            <effect>
                                <name>Crop</name>
                                <effectid>crop</effectid>
                                <effecttype>motion</effecttype>
                                <mediatype>video</mediatype>
                                <effectcategory>motion</effectcategory>
                                <parameter>
                                    <name>left</name>
                                    <parameterid>left</parameterid>
                                    <value>0</value>
                                    <valuemin>0</valuemin>
                                    <valuemax>100</valuemax>
                                </parameter>
                                <parameter>
                                    <name>right</name>
                                    <parameterid>right</parameterid>
                                    <value>0</value>
                                    <valuemin>0</valuemin>
                                    <valuemax>100</valuemax>
                                </parameter>
                                <parameter>
                                    <name>top</name>
                                    <parameterid>top</parameterid>
                                    <value>0</value>
                                    <valuemin>0</valuemin>
                                    <valuemax>100</valuemax>
                                </parameter>
                                <parameter>
                                    <name>bottom</name>
                                    <parameterid>bottom</parameterid>
                                    <value>0</value>
                                    <valuemin>0</valuemin>
                                    <valuemax>100</valuemax>
                                </parameter>
                            </effect>
                        </filter>
                    </clipitem>
                    <clipitem id="Samstag Morgen Multi 71">
                        <name>Samstag Morgen Multi</name>
                        <duration>115210</duration>
                        <rate>
                            <timebase>25</timebase>
                            <ntsc>false</ntsc>
                        </rate>
                        <start>35045</start>
                        <end>35670</end>
                        <enabled>true</enabled>
                        <in>35045</in>
                        <out>35670</out>
                        <file id="Samstag Morgen Multi 2"/>
                        <compositemode>normal</compositemode>
                        <filter>
                            <enabled>true</enabled>
                            <start>0</start>
                            <end>115210</end>
                            <effect>
                                <name>Opacity</name>
                                <effectid>opacity</effectid>
                                <effecttype>motion</effecttype>
                                <mediatype>video</mediatype>
                                <effectcategory>motion</effectcategory>
                                <parameter>
                                    <name>opacity</name>
                                    <parameterid>opacity</parameterid>
                                    <value>100</value>
                                    <valuemin>0</valuemin>
                                    <valuemax>100</valuemax>
                                </parameter>
                            </effect>
                        </filter>
                        <filter>
                            <enabled>true</enabled>
                            <start>0</start>
                            <end>115210</end>
                            <effect>
                                <name>Basic Motion</name>
                                <effectid>basic</effectid>
                                <effecttype>motion</effecttype>
                                <mediatype>video</mediatype>
                                <effectcategory>motion</effectcategory>
                                <parameter>
                                    <name>Scale</name>
                                    <parameterid>scale</parameterid>
                                    <value>200</value>
                                    <valuemin>25</valuemin>
                                    <valuemax>400</valuemax>
                                </parameter>
                                <parameter>
                                    <name>Center</name>
                                    <parameterid>center</parameterid>
                                    <value>
                                        <horiz>0.313541740179062</horiz>
                                        <vert>-0.115740582346916</vert>
                                    </value>
                                </parameter>
                                <parameter>
                                    <name>Rotation</name>
                                    <parameterid>rotation</parameterid>
                                    <value>0</value>
                                    <valuemin>-100000</valuemin>
                                    <valuemax>100000</valuemax>
                                </parameter>
                                <parameter>
                                    <name>Anchor Point</name>
                                    <parameterid>centerOffset</parameterid>
                                    <value>
                                        <horiz>0</horiz>
                                        <vert>0</vert>
                                    </value>
                                </parameter>
                            </effect>
                        </filter>
                        <filter>
                            <enabled>true</enabled>
                            <start>0</start>
                            <end>115210</end>
                            <effect>
                                <name>Crop</name>
                                <effectid>crop</effectid>
                                <effecttype>motion</effecttype>
                                <mediatype>video</mediatype>
                                <effectcategory>motion</effectcategory>
                                <parameter>
                                    <name>left</name>
                                    <parameterid>left</parameterid>
                                    <value>0</value>
                                    <valuemin>0</valuemin>
                                    <valuemax>100</valuemax>
                                </parameter>
                                <parameter>
                                    <name>right</name>
                                    <parameterid>right</parameterid>
                                    <value>0</value>
                                    <valuemin>0</valuemin>
                                    <valuemax>100</valuemax>
                                </parameter>
                                <parameter>
                                    <name>top</name>
                                    <parameterid>top</parameterid>
                                    <value>0</value>
                                    <valuemin>0</valuemin>
                                    <valuemax>100</valuemax>
                                </parameter>
                                <parameter>
                                    <name>bottom</name>
                                    <parameterid>bottom</parameterid>
                                    <value>0</value>
                                    <valuemin>0</valuemin>
                                    <valuemax>100</valuemax>
                                </parameter>
                            </effect>
                        </filter>
                    </clipitem>
                    <clipitem id="Samstag Morgen Multi 73">
                        <name>Samstag Morgen Multi</name>
                        <duration>115210</duration>
                        <rate>
                            <timebase>25</timebase>
                            <ntsc>false</ntsc>
                        </rate>
                        <start>35670</start>
                        <end>40741</end>
                        <enabled>true</enabled>
                        <in>35670</in>
                        <out>40741</out>
                        <file id="Samstag Morgen Multi 2"/>
                        <compositemode>normal</compositemode>
                        <filter>
                            <enabled>true</enabled>
                            <start>0</start>
                            <end>115210</end>
                            <effect>
                                <name>Opacity</name>
                                <effectid>opacity</effectid>
                                <effecttype>motion</effecttype>
                                <mediatype>video</mediatype>
                                <effectcategory>motion</effectcategory>
                                <parameter>
                                    <name>opacity</name>
                                    <parameterid>opacity</parameterid>
                                    <value>100</value>
                                    <valuemin>0</valuemin>
                                    <valuemax>100</valuemax>
                                </parameter>
                            </effect>
                        </filter>
                        <filter>
                            <enabled>true</enabled>
                            <start>0</start>
                            <end>115210</end>
                            <effect>
                                <name>Basic Motion</name>
                                <effectid>basic</effectid>
                                <effecttype>motion</effecttype>
                                <mediatype>video</mediatype>
                                <effectcategory>motion</effectcategory>
                                <parameter>
                                    <name>Scale</name>
                                    <parameterid>scale</parameterid>
                                    <value>100</value>
                                    <valuemin>25</valuemin>
                                    <valuemax>400</valuemax>
                                </parameter>
                                <parameter>
                                    <name>Center</name>
                                    <parameterid>center</parameterid>
                                    <value>
                                        <horiz>0</horiz>
                                        <vert>0</vert>
                                    </value>
                                </parameter>
                                <parameter>
                                    <name>Rotation</name>
                                    <parameterid>rotation</parameterid>
                                    <value>0</value>
                                    <valuemin>-100000</valuemin>
                                    <valuemax>100000</valuemax>
                                </parameter>
                                <parameter>
                                    <name>Anchor Point</name>
                                    <parameterid>centerOffset</parameterid>
                                    <value>
                                        <horiz>0</horiz>
                                        <vert>0</vert>
                                    </value>
                                </parameter>
                            </effect>
                        </filter>
                        <filter>
                            <enabled>true</enabled>
                            <start>0</start>
                            <end>115210</end>
                            <effect>
                                <name>Crop</name>
                                <effectid>crop</effectid>
                                <effecttype>motion</effecttype>
                                <mediatype>video</mediatype>
                                <effectcategory>motion</effectcategory>
                                <parameter>
                                    <name>left</name>
                                    <parameterid>left</parameterid>
                                    <value>0</value>
                                    <valuemin>0</valuemin>
                                    <valuemax>100</valuemax>
                                </parameter>
                                <parameter>
                                    <name>right</name>
                                    <parameterid>right</parameterid>
                                    <value>0</value>
                                    <valuemin>0</valuemin>
                                    <valuemax>100</valuemax>
                                </parameter>
                                <parameter>
                                    <name>top</name>
                                    <parameterid>top</parameterid>
                                    <value>0</value>
                                    <valuemin>0</valuemin>
                                    <valuemax>100</valuemax>
                                </parameter>
                                <parameter>
                                    <name>bottom</name>
                                    <parameterid>bottom</parameterid>
                                    <value>0</value>
                                    <valuemin>0</valuemin>
                                    <valuemax>100</valuemax>
                                </parameter>
                            </effect>
                        </filter>
                    </clipitem>
                    <clipitem id="Samstag Morgen Multi 75">
                        <name>Samstag Morgen Multi</name>
                        <duration>115210</duration>
                        <rate>
                            <timebase>25</timebase>
                            <ntsc>false</ntsc>
                        </rate>
                        <start>40741</start>
                        <end>41014</end>
                        <enabled>true</enabled>
                        <in>40741</in>
                        <out>41014</out>
                        <file id="Samstag Morgen Multi 2"/>
                        <compositemode>normal</compositemode>
                        <filter>
                            <enabled>true</enabled>
                            <start>0</start>
                            <end>115210</end>
                            <effect>
                                <name>Opacity</name>
                                <effectid>opacity</effectid>
                                <effecttype>motion</effecttype>
                                <mediatype>video</mediatype>
                                <effectcategory>motion</effectcategory>
                                <parameter>
                                    <name>opacity</name>
                                    <parameterid>opacity</parameterid>
                                    <value>100</value>
                                    <valuemin>0</valuemin>
                                    <valuemax>100</valuemax>
                                </parameter>
                            </effect>
                        </filter>
                        <filter>
                            <enabled>true</enabled>
                            <start>0</start>
                            <end>115210</end>
                            <effect>
                                <name>Basic Motion</name>
                                <effectid>basic</effectid>
                                <effecttype>motion</effecttype>
                                <mediatype>video</mediatype>
                                <effectcategory>motion</effectcategory>
                                <parameter>
                                    <name>Scale</name>
                                    <parameterid>scale</parameterid>
                                    <value>100</value>
                                    <valuemin>25</valuemin>
                                    <valuemax>400</valuemax>
                                </parameter>
                                <parameter>
                                    <name>Center</name>
                                    <parameterid>center</parameterid>
                                    <value>
                                        <horiz>0</horiz>
                                        <vert>0</vert>
                                    </value>
                                </parameter>
                                <parameter>
                                    <name>Rotation</name>
                                    <parameterid>rotation</parameterid>
                                    <value>0</value>
                                    <valuemin>-100000</valuemin>
                                    <valuemax>100000</valuemax>
                                </parameter>
                                <parameter>
                                    <name>Anchor Point</name>
                                    <parameterid>centerOffset</parameterid>
                                    <value>
                                        <horiz>0</horiz>
                                        <vert>0</vert>
                                    </value>
                                </parameter>
                            </effect>
                        </filter>
                        <filter>
                            <enabled>true</enabled>
                            <start>0</start>
                            <end>115210</end>
                            <effect>
                                <name>Crop</name>
                                <effectid>crop</effectid>
                                <effecttype>motion</effecttype>
                                <mediatype>video</mediatype>
                                <effectcategory>motion</effectcategory>
                                <parameter>
                                    <name>left</name>
                                    <parameterid>left</parameterid>
                                    <value>0</value>
                                    <valuemin>0</valuemin>
                                    <valuemax>100</valuemax>
                                </parameter>
                                <parameter>
                                    <name>right</name>
                                    <parameterid>right</parameterid>
                                    <value>0</value>
                                    <valuemin>0</valuemin>
                                    <valuemax>100</valuemax>
                                </parameter>
                                <parameter>
                                    <name>top</name>
                                    <parameterid>top</parameterid>
                                    <value>0</value>
                                    <valuemin>0</valuemin>
                                    <valuemax>100</valuemax>
                                </parameter>
                                <parameter>
                                    <name>bottom</name>
                                    <parameterid>bottom</parameterid>
                                    <value>0</value>
                                    <valuemin>0</valuemin>
                                    <valuemax>100</valuemax>
                                </parameter>
                            </effect>
                        </filter>
                    </clipitem>
                    <clipitem id="Samstag Morgen Multi 77">
                        <name>Samstag Morgen Multi</name>
                        <duration>115210</duration>
                        <rate>
                            <timebase>25</timebase>
                            <ntsc>false</ntsc>
                        </rate>
                        <start>41014</start>
                        <end>41167</end>
                        <enabled>true</enabled>
                        <in>41014</in>
                        <out>41167</out>
                        <file id="Samstag Morgen Multi 2"/>
                        <compositemode>normal</compositemode>
                        <filter>
                            <enabled>true</enabled>
                            <start>0</start>
                            <end>115210</end>
                            <effect>
                                <name>Opacity</name>
                                <effectid>opacity</effectid>
                                <effecttype>motion</effecttype>
                                <mediatype>video</mediatype>
                                <effectcategory>motion</effectcategory>
                                <parameter>
                                    <name>opacity</name>
                                    <parameterid>opacity</parameterid>
                                    <value>100</value>
                                    <valuemin>0</valuemin>
                                    <valuemax>100</valuemax>
                                </parameter>
                            </effect>
                        </filter>
                        <filter>
                            <enabled>true</enabled>
                            <start>0</start>
                            <end>115210</end>
                            <effect>
                                <name>Basic Motion</name>
                                <effectid>basic</effectid>
                                <effecttype>motion</effecttype>
                                <mediatype>video</mediatype>
                                <effectcategory>motion</effectcategory>
                                <parameter>
                                    <name>Scale</name>
                                    <parameterid>scale</parameterid>
                                    <value>100</value>
                                    <valuemin>25</valuemin>
                                    <valuemax>400</valuemax>
                                </parameter>
                                <parameter>
                                    <name>Center</name>
                                    <parameterid>center</parameterid>
                                    <value>
                                        <horiz>0</horiz>
                                        <vert>0</vert>
                                    </value>
                                </parameter>
                                <parameter>
                                    <name>Rotation</name>
                                    <parameterid>rotation</parameterid>
                                    <value>0</value>
                                    <valuemin>-100000</valuemin>
                                    <valuemax>100000</valuemax>
                                </parameter>
                                <parameter>
                                    <name>Anchor Point</name>
                                    <parameterid>centerOffset</parameterid>
                                    <value>
                                        <horiz>0</horiz>
                                        <vert>0</vert>
                                    </value>
                                </parameter>
                            </effect>
                        </filter>
                        <filter>
                            <enabled>true</enabled>
                            <start>0</start>
                            <end>115210</end>
                            <effect>
                                <name>Crop</name>
                                <effectid>crop</effectid>
                                <effecttype>motion</effecttype>
                                <mediatype>video</mediatype>
                                <effectcategory>motion</effectcategory>
                                <parameter>
                                    <name>left</name>
                                    <parameterid>left</parameterid>
                                    <value>0</value>
                                    <valuemin>0</valuemin>
                                    <valuemax>100</valuemax>
                                </parameter>
                                <parameter>
                                    <name>right</name>
                                    <parameterid>right</parameterid>
                                    <value>0</value>
                                    <valuemin>0</valuemin>
                                    <valuemax>100</valuemax>
                                </parameter>
                                <parameter>
                                    <name>top</name>
                                    <parameterid>top</parameterid>
                                    <value>0</value>
                                    <valuemin>0</valuemin>
                                    <valuemax>100</valuemax>
                                </parameter>
                                <parameter>
                                    <name>bottom</name>
                                    <parameterid>bottom</parameterid>
                                    <value>0</value>
                                    <valuemin>0</valuemin>
                                    <valuemax>100</valuemax>
                                </parameter>
                            </effect>
                        </filter>
                    </clipitem>
                    <clipitem id="Samstag Morgen Multi 79">
                        <name>Samstag Morgen Multi</name>
                        <duration>115210</duration>
                        <rate>
                            <timebase>25</timebase>
                            <ntsc>false</ntsc>
                        </rate>
                        <start>41167</start>
                        <end>41801</end>
                        <enabled>true</enabled>
                        <in>41167</in>
                        <out>41801</out>
                        <file id="Samstag Morgen Multi 2"/>
                        <compositemode>normal</compositemode>
                        <filter>
                            <enabled>true</enabled>
                            <start>0</start>
                            <end>115210</end>
                            <effect>
                                <name>Opacity</name>
                                <effectid>opacity</effectid>
                                <effecttype>motion</effecttype>
                                <mediatype>video</mediatype>
                                <effectcategory>motion</effectcategory>
                                <parameter>
                                    <name>opacity</name>
                                    <parameterid>opacity</parameterid>
                                    <value>100</value>
                                    <valuemin>0</valuemin>
                                    <valuemax>100</valuemax>
                                </parameter>
                            </effect>
                        </filter>
                        <filter>
                            <enabled>true</enabled>
                            <start>0</start>
                            <end>115210</end>
                            <effect>
                                <name>Basic Motion</name>
                                <effectid>basic</effectid>
                                <effecttype>motion</effecttype>
                                <mediatype>video</mediatype>
                                <effectcategory>motion</effectcategory>
                                <parameter>
                                    <name>Scale</name>
                                    <parameterid>scale</parameterid>
                                    <value>300</value>
                                    <valuemin>25</valuemin>
                                    <valuemax>400</valuemax>
                                </parameter>
                                <parameter>
                                    <name>Center</name>
                                    <parameterid>center</parameterid>
                                    <value>
                                        <horiz>-0.0671875029802322</horiz>
                                        <vert>-0.880555629730225</vert>
                                    </value>
                                </parameter>
                                <parameter>
                                    <name>Rotation</name>
                                    <parameterid>rotation</parameterid>
                                    <value>0</value>
                                    <valuemin>-100000</valuemin>
                                    <valuemax>100000</valuemax>
                                </parameter>
                                <parameter>
                                    <name>Anchor Point</name>
                                    <parameterid>centerOffset</parameterid>
                                    <value>
                                        <horiz>0</horiz>
                                        <vert>0</vert>
                                    </value>
                                </parameter>
                            </effect>
                        </filter>
                        <filter>
                            <enabled>true</enabled>
                            <start>0</start>
                            <end>115210</end>
                            <effect>
                                <name>Crop</name>
                                <effectid>crop</effectid>
                                <effecttype>motion</effecttype>
                                <mediatype>video</mediatype>
                                <effectcategory>motion</effectcategory>
                                <parameter>
                                    <name>left</name>
                                    <parameterid>left</parameterid>
                                    <value>0</value>
                                    <valuemin>0</valuemin>
                                    <valuemax>100</valuemax>
                                </parameter>
                                <parameter>
                                    <name>right</name>
                                    <parameterid>right</parameterid>
                                    <value>0</value>
                                    <valuemin>0</valuemin>
                                    <valuemax>100</valuemax>
                                </parameter>
                                <parameter>
                                    <name>top</name>
                                    <parameterid>top</parameterid>
                                    <value>0</value>
                                    <valuemin>0</valuemin>
                                    <valuemax>100</valuemax>
                                </parameter>
                                <parameter>
                                    <name>bottom</name>
                                    <parameterid>bottom</parameterid>
                                    <value>0</value>
                                    <valuemin>0</valuemin>
                                    <valuemax>100</valuemax>
                                </parameter>
                            </effect>
                        </filter>
                    </clipitem>
                    <clipitem id="Samstag Morgen Multi 81">
                        <name>Samstag Morgen Multi</name>
                        <duration>115210</duration>
                        <rate>
                            <timebase>25</timebase>
                            <ntsc>false</ntsc>
                        </rate>
                        <start>41801</start>
                        <end>42404</end>
                        <enabled>true</enabled>
                        <in>41801</in>
                        <out>42404</out>
                        <file id="Samstag Morgen Multi 2"/>
                        <compositemode>normal</compositemode>
                        <filter>
                            <enabled>true</enabled>
                            <start>0</start>
                            <end>115210</end>
                            <effect>
                                <name>Opacity</name>
                                <effectid>opacity</effectid>
                                <effecttype>motion</effecttype>
                                <mediatype>video</mediatype>
                                <effectcategory>motion</effectcategory>
                                <parameter>
                                    <name>opacity</name>
                                    <parameterid>opacity</parameterid>
                                    <value>100</value>
                                    <valuemin>0</valuemin>
                                    <valuemax>100</valuemax>
                                </parameter>
                            </effect>
                        </filter>
                        <filter>
                            <enabled>true</enabled>
                            <start>0</start>
                            <end>115210</end>
                            <effect>
                                <name>Basic Motion</name>
                                <effectid>basic</effectid>
                                <effecttype>motion</effecttype>
                                <mediatype>video</mediatype>
                                <effectcategory>motion</effectcategory>
                                <parameter>
                                    <name>Scale</name>
                                    <parameterid>scale</parameterid>
                                    <value>100</value>
                                    <valuemin>25</valuemin>
                                    <valuemax>400</valuemax>
                                </parameter>
                                <parameter>
                                    <name>Center</name>
                                    <parameterid>center</parameterid>
                                    <value>
                                        <horiz>0</horiz>
                                        <vert>0</vert>
                                    </value>
                                </parameter>
                                <parameter>
                                    <name>Rotation</name>
                                    <parameterid>rotation</parameterid>
                                    <value>0</value>
                                    <valuemin>-100000</valuemin>
                                    <valuemax>100000</valuemax>
                                </parameter>
                                <parameter>
                                    <name>Anchor Point</name>
                                    <parameterid>centerOffset</parameterid>
                                    <value>
                                        <horiz>0</horiz>
                                        <vert>0</vert>
                                    </value>
                                </parameter>
                            </effect>
                        </filter>
                        <filter>
                            <enabled>true</enabled>
                            <start>0</start>
                            <end>115210</end>
                            <effect>
                                <name>Crop</name>
                                <effectid>crop</effectid>
                                <effecttype>motion</effecttype>
                                <mediatype>video</mediatype>
                                <effectcategory>motion</effectcategory>
                                <parameter>
                                    <name>left</name>
                                    <parameterid>left</parameterid>
                                    <value>0</value>
                                    <valuemin>0</valuemin>
                                    <valuemax>100</valuemax>
                                </parameter>
                                <parameter>
                                    <name>right</name>
                                    <parameterid>right</parameterid>
                                    <value>0</value>
                                    <valuemin>0</valuemin>
                                    <valuemax>100</valuemax>
                                </parameter>
                                <parameter>
                                    <name>top</name>
                                    <parameterid>top</parameterid>
                                    <value>0</value>
                                    <valuemin>0</valuemin>
                                    <valuemax>100</valuemax>
                                </parameter>
                                <parameter>
                                    <name>bottom</name>
                                    <parameterid>bottom</parameterid>
                                    <value>0</value>
                                    <valuemin>0</valuemin>
                                    <valuemax>100</valuemax>
                                </parameter>
                            </effect>
                        </filter>
                    </clipitem>
                    <clipitem id="Samstag Morgen Multi 83">
                        <name>Samstag Morgen Multi</name>
                        <duration>115210</duration>
                        <rate>
                            <timebase>25</timebase>
                            <ntsc>false</ntsc>
                        </rate>
                        <start>42404</start>
                        <end>44338</end>
                        <enabled>true</enabled>
                        <in>42404</in>
                        <out>44338</out>
                        <file id="Samstag Morgen Multi 2"/>
                        <compositemode>normal</compositemode>
                        <filter>
                            <enabled>true</enabled>
                            <start>0</start>
                            <end>115210</end>
                            <effect>
                                <name>Opacity</name>
                                <effectid>opacity</effectid>
                                <effecttype>motion</effecttype>
                                <mediatype>video</mediatype>
                                <effectcategory>motion</effectcategory>
                                <parameter>
                                    <name>opacity</name>
                                    <parameterid>opacity</parameterid>
                                    <value>100</value>
                                    <valuemin>0</valuemin>
                                    <valuemax>100</valuemax>
                                </parameter>
                            </effect>
                        </filter>
                        <filter>
                            <enabled>true</enabled>
                            <start>0</start>
                            <end>115210</end>
                            <effect>
                                <name>Basic Motion</name>
                                <effectid>basic</effectid>
                                <effecttype>motion</effecttype>
                                <mediatype>video</mediatype>
                                <effectcategory>motion</effectcategory>
                                <parameter>
                                    <name>Scale</name>
                                    <parameterid>scale</parameterid>
                                    <value>200</value>
                                    <valuemin>25</valuemin>
                                    <valuemax>400</valuemax>
                                </parameter>
                                <parameter>
                                    <name>Center</name>
                                    <parameterid>center</parameterid>
                                    <value>
                                        <horiz>0.0604166649281979</horiz>
                                        <vert>-0.167592599987984</vert>
                                    </value>
                                </parameter>
                                <parameter>
                                    <name>Rotation</name>
                                    <parameterid>rotation</parameterid>
                                    <value>0</value>
                                    <valuemin>-100000</valuemin>
                                    <valuemax>100000</valuemax>
                                </parameter>
                                <parameter>
                                    <name>Anchor Point</name>
                                    <parameterid>centerOffset</parameterid>
                                    <value>
                                        <horiz>0</horiz>
                                        <vert>0</vert>
                                    </value>
                                </parameter>
                            </effect>
                        </filter>
                        <filter>
                            <enabled>true</enabled>
                            <start>0</start>
                            <end>115210</end>
                            <effect>
                                <name>Crop</name>
                                <effectid>crop</effectid>
                                <effecttype>motion</effecttype>
                                <mediatype>video</mediatype>
                                <effectcategory>motion</effectcategory>
                                <parameter>
                                    <name>left</name>
                                    <parameterid>left</parameterid>
                                    <value>0</value>
                                    <valuemin>0</valuemin>
                                    <valuemax>100</valuemax>
                                </parameter>
                                <parameter>
                                    <name>right</name>
                                    <parameterid>right</parameterid>
                                    <value>0</value>
                                    <valuemin>0</valuemin>
                                    <valuemax>100</valuemax>
                                </parameter>
                                <parameter>
                                    <name>top</name>
                                    <parameterid>top</parameterid>
                                    <value>0</value>
                                    <valuemin>0</valuemin>
                                    <valuemax>100</valuemax>
                                </parameter>
                                <parameter>
                                    <name>bottom</name>
                                    <parameterid>bottom</parameterid>
                                    <value>0</value>
                                    <valuemin>0</valuemin>
                                    <valuemax>100</valuemax>
                                </parameter>
                            </effect>
                        </filter>
                    </clipitem>
                    <clipitem id="Samstag Morgen Multi 85">
                        <name>Samstag Morgen Multi</name>
                        <duration>115210</duration>
                        <rate>
                            <timebase>25</timebase>
                            <ntsc>false</ntsc>
                        </rate>
                        <start>44338</start>
                        <end>44540</end>
                        <enabled>true</enabled>
                        <in>44338</in>
                        <out>44540</out>
                        <file id="Samstag Morgen Multi 2"/>
                        <compositemode>normal</compositemode>
                        <filter>
                            <enabled>true</enabled>
                            <start>0</start>
                            <end>115210</end>
                            <effect>
                                <name>Opacity</name>
                                <effectid>opacity</effectid>
                                <effecttype>motion</effecttype>
                                <mediatype>video</mediatype>
                                <effectcategory>motion</effectcategory>
                                <parameter>
                                    <name>opacity</name>
                                    <parameterid>opacity</parameterid>
                                    <value>100</value>
                                    <valuemin>0</valuemin>
                                    <valuemax>100</valuemax>
                                </parameter>
                            </effect>
                        </filter>
                        <filter>
                            <enabled>true</enabled>
                            <start>0</start>
                            <end>115210</end>
                            <effect>
                                <name>Basic Motion</name>
                                <effectid>basic</effectid>
                                <effecttype>motion</effecttype>
                                <mediatype>video</mediatype>
                                <effectcategory>motion</effectcategory>
                                <parameter>
                                    <name>Scale</name>
                                    <parameterid>scale</parameterid>
                                    <value>100</value>
                                    <valuemin>25</valuemin>
                                    <valuemax>400</valuemax>
                                </parameter>
                                <parameter>
                                    <name>Center</name>
                                    <parameterid>center</parameterid>
                                    <value>
                                        <horiz>0</horiz>
                                        <vert>0</vert>
                                    </value>
                                </parameter>
                                <parameter>
                                    <name>Rotation</name>
                                    <parameterid>rotation</parameterid>
                                    <value>0</value>
                                    <valuemin>-100000</valuemin>
                                    <valuemax>100000</valuemax>
                                </parameter>
                                <parameter>
                                    <name>Anchor Point</name>
                                    <parameterid>centerOffset</parameterid>
                                    <value>
                                        <horiz>0</horiz>
                                        <vert>0</vert>
                                    </value>
                                </parameter>
                            </effect>
                        </filter>
                        <filter>
                            <enabled>true</enabled>
                            <start>0</start>
                            <end>115210</end>
                            <effect>
                                <name>Crop</name>
                                <effectid>crop</effectid>
                                <effecttype>motion</effecttype>
                                <mediatype>video</mediatype>
                                <effectcategory>motion</effectcategory>
                                <parameter>
                                    <name>left</name>
                                    <parameterid>left</parameterid>
                                    <value>0</value>
                                    <valuemin>0</valuemin>
                                    <valuemax>100</valuemax>
                                </parameter>
                                <parameter>
                                    <name>right</name>
                                    <parameterid>right</parameterid>
                                    <value>0</value>
                                    <valuemin>0</valuemin>
                                    <valuemax>100</valuemax>
                                </parameter>
                                <parameter>
                                    <name>top</name>
                                    <parameterid>top</parameterid>
                                    <value>0</value>
                                    <valuemin>0</valuemin>
                                    <valuemax>100</valuemax>
                                </parameter>
                                <parameter>
                                    <name>bottom</name>
                                    <parameterid>bottom</parameterid>
                                    <value>0</value>
                                    <valuemin>0</valuemin>
                                    <valuemax>100</valuemax>
                                </parameter>
                            </effect>
                        </filter>
                    </clipitem>
                    <clipitem id="Samstag Morgen Multi 87">
                        <name>Samstag Morgen Multi</name>
                        <duration>115210</duration>
                        <rate>
                            <timebase>25</timebase>
                            <ntsc>false</ntsc>
                        </rate>
                        <start>44540</start>
                        <end>44741</end>
                        <enabled>true</enabled>
                        <in>44540</in>
                        <out>44741</out>
                        <file id="Samstag Morgen Multi 2"/>
                        <compositemode>normal</compositemode>
                        <filter>
                            <enabled>true</enabled>
                            <start>0</start>
                            <end>115210</end>
                            <effect>
                                <name>Opacity</name>
                                <effectid>opacity</effectid>
                                <effecttype>motion</effecttype>
                                <mediatype>video</mediatype>
                                <effectcategory>motion</effectcategory>
                                <parameter>
                                    <name>opacity</name>
                                    <parameterid>opacity</parameterid>
                                    <value>100</value>
                                    <valuemin>0</valuemin>
                                    <valuemax>100</valuemax>
                                </parameter>
                            </effect>
                        </filter>
                        <filter>
                            <enabled>true</enabled>
                            <start>0</start>
                            <end>115210</end>
                            <effect>
                                <name>Basic Motion</name>
                                <effectid>basic</effectid>
                                <effecttype>motion</effecttype>
                                <mediatype>video</mediatype>
                                <effectcategory>motion</effectcategory>
                                <parameter>
                                    <name>Scale</name>
                                    <parameterid>scale</parameterid>
                                    <value>100</value>
                                    <valuemin>25</valuemin>
                                    <valuemax>400</valuemax>
                                </parameter>
                                <parameter>
                                    <name>Center</name>
                                    <parameterid>center</parameterid>
                                    <value>
                                        <horiz>0</horiz>
                                        <vert>0</vert>
                                    </value>
                                </parameter>
                                <parameter>
                                    <name>Rotation</name>
                                    <parameterid>rotation</parameterid>
                                    <value>0</value>
                                    <valuemin>-100000</valuemin>
                                    <valuemax>100000</valuemax>
                                </parameter>
                                <parameter>
                                    <name>Anchor Point</name>
                                    <parameterid>centerOffset</parameterid>
                                    <value>
                                        <horiz>0</horiz>
                                        <vert>0</vert>
                                    </value>
                                </parameter>
                            </effect>
                        </filter>
                        <filter>
                            <enabled>true</enabled>
                            <start>0</start>
                            <end>115210</end>
                            <effect>
                                <name>Crop</name>
                                <effectid>crop</effectid>
                                <effecttype>motion</effecttype>
                                <mediatype>video</mediatype>
                                <effectcategory>motion</effectcategory>
                                <parameter>
                                    <name>left</name>
                                    <parameterid>left</parameterid>
                                    <value>0</value>
                                    <valuemin>0</valuemin>
                                    <valuemax>100</valuemax>
                                </parameter>
                                <parameter>
                                    <name>right</name>
                                    <parameterid>right</parameterid>
                                    <value>0</value>
                                    <valuemin>0</valuemin>
                                    <valuemax>100</valuemax>
                                </parameter>
                                <parameter>
                                    <name>top</name>
                                    <parameterid>top</parameterid>
                                    <value>0</value>
                                    <valuemin>0</valuemin>
                                    <valuemax>100</valuemax>
                                </parameter>
                                <parameter>
                                    <name>bottom</name>
                                    <parameterid>bottom</parameterid>
                                    <value>0</value>
                                    <valuemin>0</valuemin>
                                    <valuemax>100</valuemax>
                                </parameter>
                            </effect>
                        </filter>
                    </clipitem>
                    <clipitem id="Samstag Morgen Multi 89">
                        <name>Samstag Morgen Multi</name>
                        <duration>115210</duration>
                        <rate>
                            <timebase>25</timebase>
                            <ntsc>false</ntsc>
                        </rate>
                        <start>44741</start>
                        <end>45023</end>
                        <enabled>true</enabled>
                        <in>44741</in>
                        <out>45023</out>
                        <file id="Samstag Morgen Multi 2"/>
                        <compositemode>normal</compositemode>
                        <filter>
                            <enabled>true</enabled>
                            <start>0</start>
                            <end>115210</end>
                            <effect>
                                <name>Opacity</name>
                                <effectid>opacity</effectid>
                                <effecttype>motion</effecttype>
                                <mediatype>video</mediatype>
                                <effectcategory>motion</effectcategory>
                                <parameter>
                                    <name>opacity</name>
                                    <parameterid>opacity</parameterid>
                                    <value>100</value>
                                    <valuemin>0</valuemin>
                                    <valuemax>100</valuemax>
                                </parameter>
                            </effect>
                        </filter>
                        <filter>
                            <enabled>true</enabled>
                            <start>0</start>
                            <end>115210</end>
                            <effect>
                                <name>Basic Motion</name>
                                <effectid>basic</effectid>
                                <effecttype>motion</effecttype>
                                <mediatype>video</mediatype>
                                <effectcategory>motion</effectcategory>
                                <parameter>
                                    <name>Scale</name>
                                    <parameterid>scale</parameterid>
                                    <value>100</value>
                                    <valuemin>25</valuemin>
                                    <valuemax>400</valuemax>
                                </parameter>
                                <parameter>
                                    <name>Center</name>
                                    <parameterid>center</parameterid>
                                    <value>
                                        <horiz>0</horiz>
                                        <vert>0</vert>
                                    </value>
                                </parameter>
                                <parameter>
                                    <name>Rotation</name>
                                    <parameterid>rotation</parameterid>
                                    <value>0</value>
                                    <valuemin>-100000</valuemin>
                                    <valuemax>100000</valuemax>
                                </parameter>
                                <parameter>
                                    <name>Anchor Point</name>
                                    <parameterid>centerOffset</parameterid>
                                    <value>
                                        <horiz>0</horiz>
                                        <vert>0</vert>
                                    </value>
                                </parameter>
                            </effect>
                        </filter>
                        <filter>
                            <enabled>true</enabled>
                            <start>0</start>
                            <end>115210</end>
                            <effect>
                                <name>Crop</name>
                                <effectid>crop</effectid>
                                <effecttype>motion</effecttype>
                                <mediatype>video</mediatype>
                                <effectcategory>motion</effectcategory>
                                <parameter>
                                    <name>left</name>
                                    <parameterid>left</parameterid>
                                    <value>0</value>
                                    <valuemin>0</valuemin>
                                    <valuemax>100</valuemax>
                                </parameter>
                                <parameter>
                                    <name>right</name>
                                    <parameterid>right</parameterid>
                                    <value>0</value>
                                    <valuemin>0</valuemin>
                                    <valuemax>100</valuemax>
                                </parameter>
                                <parameter>
                                    <name>top</name>
                                    <parameterid>top</parameterid>
                                    <value>0</value>
                                    <valuemin>0</valuemin>
                                    <valuemax>100</valuemax>
                                </parameter>
                                <parameter>
                                    <name>bottom</name>
                                    <parameterid>bottom</parameterid>
                                    <value>0</value>
                                    <valuemin>0</valuemin>
                                    <valuemax>100</valuemax>
                                </parameter>
                            </effect>
                        </filter>
                    </clipitem>
                    <clipitem id="Samstag Morgen Multi 91">
                        <name>Samstag Morgen Multi</name>
                        <duration>115210</duration>
                        <rate>
                            <timebase>25</timebase>
                            <ntsc>false</ntsc>
                        </rate>
                        <start>45023</start>
                        <end>46038</end>
                        <enabled>true</enabled>
                        <in>45023</in>
                        <out>46038</out>
                        <file id="Samstag Morgen Multi 2"/>
                        <compositemode>normal</compositemode>
                        <filter>
                            <enabled>true</enabled>
                            <start>0</start>
                            <end>115210</end>
                            <effect>
                                <name>Opacity</name>
                                <effectid>opacity</effectid>
                                <effecttype>motion</effecttype>
                                <mediatype>video</mediatype>
                                <effectcategory>motion</effectcategory>
                                <parameter>
                                    <name>opacity</name>
                                    <parameterid>opacity</parameterid>
                                    <value>100</value>
                                    <valuemin>0</valuemin>
                                    <valuemax>100</valuemax>
                                </parameter>
                            </effect>
                        </filter>
                        <filter>
                            <enabled>true</enabled>
                            <start>0</start>
                            <end>115210</end>
                            <effect>
                                <name>Basic Motion</name>
                                <effectid>basic</effectid>
                                <effecttype>motion</effecttype>
                                <mediatype>video</mediatype>
                                <effectcategory>motion</effectcategory>
                                <parameter>
                                    <name>Scale</name>
                                    <parameterid>scale</parameterid>
                                    <value>100</value>
                                    <valuemin>25</valuemin>
                                    <valuemax>400</valuemax>
                                </parameter>
                                <parameter>
                                    <name>Center</name>
                                    <parameterid>center</parameterid>
                                    <value>
                                        <horiz>0</horiz>
                                        <vert>0</vert>
                                    </value>
                                </parameter>
                                <parameter>
                                    <name>Rotation</name>
                                    <parameterid>rotation</parameterid>
                                    <value>0</value>
                                    <valuemin>-100000</valuemin>
                                    <valuemax>100000</valuemax>
                                </parameter>
                                <parameter>
                                    <name>Anchor Point</name>
                                    <parameterid>centerOffset</parameterid>
                                    <value>
                                        <horiz>0</horiz>
                                        <vert>0</vert>
                                    </value>
                                </parameter>
                            </effect>
                        </filter>
                        <filter>
                            <enabled>true</enabled>
                            <start>0</start>
                            <end>115210</end>
                            <effect>
                                <name>Crop</name>
                                <effectid>crop</effectid>
                                <effecttype>motion</effecttype>
                                <mediatype>video</mediatype>
                                <effectcategory>motion</effectcategory>
                                <parameter>
                                    <name>left</name>
                                    <parameterid>left</parameterid>
                                    <value>0</value>
                                    <valuemin>0</valuemin>
                                    <valuemax>100</valuemax>
                                </parameter>
                                <parameter>
                                    <name>right</name>
                                    <parameterid>right</parameterid>
                                    <value>0</value>
                                    <valuemin>0</valuemin>
                                    <valuemax>100</valuemax>
                                </parameter>
                                <parameter>
                                    <name>top</name>
                                    <parameterid>top</parameterid>
                                    <value>0</value>
                                    <valuemin>0</valuemin>
                                    <valuemax>100</valuemax>
                                </parameter>
                                <parameter>
                                    <name>bottom</name>
                                    <parameterid>bottom</parameterid>
                                    <value>0</value>
                                    <valuemin>0</valuemin>
                                    <valuemax>100</valuemax>
                                </parameter>
                            </effect>
                        </filter>
                    </clipitem>
                    <clipitem id="Samstag Morgen Multi 93">
                        <name>Samstag Morgen Multi</name>
                        <duration>115210</duration>
                        <rate>
                            <timebase>25</timebase>
                            <ntsc>false</ntsc>
                        </rate>
                        <start>46038</start>
                        <end>46346</end>
                        <enabled>true</enabled>
                        <in>46038</in>
                        <out>46346</out>
                        <file id="Samstag Morgen Multi 2"/>
                        <compositemode>normal</compositemode>
                        <filter>
                            <enabled>true</enabled>
                            <start>0</start>
                            <end>115210</end>
                            <effect>
                                <name>Opacity</name>
                                <effectid>opacity</effectid>
                                <effecttype>motion</effecttype>
                                <mediatype>video</mediatype>
                                <effectcategory>motion</effectcategory>
                                <parameter>
                                    <name>opacity</name>
                                    <parameterid>opacity</parameterid>
                                    <value>100</value>
                                    <valuemin>0</valuemin>
                                    <valuemax>100</valuemax>
                                </parameter>
                            </effect>
                        </filter>
                        <filter>
                            <enabled>true</enabled>
                            <start>0</start>
                            <end>115210</end>
                            <effect>
                                <name>Basic Motion</name>
                                <effectid>basic</effectid>
                                <effecttype>motion</effecttype>
                                <mediatype>video</mediatype>
                                <effectcategory>motion</effectcategory>
                                <parameter>
                                    <name>Scale</name>
                                    <parameterid>scale</parameterid>
                                    <value>100</value>
                                    <valuemin>25</valuemin>
                                    <valuemax>400</valuemax>
                                </parameter>
                                <parameter>
                                    <name>Center</name>
                                    <parameterid>center</parameterid>
                                    <value>
                                        <horiz>0</horiz>
                                        <vert>0</vert>
                                    </value>
                                </parameter>
                                <parameter>
                                    <name>Rotation</name>
                                    <parameterid>rotation</parameterid>
                                    <value>0</value>
                                    <valuemin>-100000</valuemin>
                                    <valuemax>100000</valuemax>
                                </parameter>
                                <parameter>
                                    <name>Anchor Point</name>
                                    <parameterid>centerOffset</parameterid>
                                    <value>
                                        <horiz>0</horiz>
                                        <vert>0</vert>
                                    </value>
                                </parameter>
                            </effect>
                        </filter>
                        <filter>
                            <enabled>true</enabled>
                            <start>0</start>
                            <end>115210</end>
                            <effect>
                                <name>Crop</name>
                                <effectid>crop</effectid>
                                <effecttype>motion</effecttype>
                                <mediatype>video</mediatype>
                                <effectcategory>motion</effectcategory>
                                <parameter>
                                    <name>left</name>
                                    <parameterid>left</parameterid>
                                    <value>0</value>
                                    <valuemin>0</valuemin>
                                    <valuemax>100</valuemax>
                                </parameter>
                                <parameter>
                                    <name>right</name>
                                    <parameterid>right</parameterid>
                                    <value>0</value>
                                    <valuemin>0</valuemin>
                                    <valuemax>100</valuemax>
                                </parameter>
                                <parameter>
                                    <name>top</name>
                                    <parameterid>top</parameterid>
                                    <value>0</value>
                                    <valuemin>0</valuemin>
                                    <valuemax>100</valuemax>
                                </parameter>
                                <parameter>
                                    <name>bottom</name>
                                    <parameterid>bottom</parameterid>
                                    <value>0</value>
                                    <valuemin>0</valuemin>
                                    <valuemax>100</valuemax>
                                </parameter>
                            </effect>
                        </filter>
                    </clipitem>
                    <clipitem id="Samstag Morgen Multi 95">
                        <name>Samstag Morgen Multi</name>
                        <duration>115210</duration>
                        <rate>
                            <timebase>25</timebase>
                            <ntsc>false</ntsc>
                        </rate>
                        <start>46346</start>
                        <end>46761</end>
                        <enabled>true</enabled>
                        <in>46346</in>
                        <out>46761</out>
                        <file id="Samstag Morgen Multi 2"/>
                        <compositemode>normal</compositemode>
                        <filter>
                            <enabled>true</enabled>
                            <start>0</start>
                            <end>115210</end>
                            <effect>
                                <name>Opacity</name>
                                <effectid>opacity</effectid>
                                <effecttype>motion</effecttype>
                                <mediatype>video</mediatype>
                                <effectcategory>motion</effectcategory>
                                <parameter>
                                    <name>opacity</name>
                                    <parameterid>opacity</parameterid>
                                    <value>100</value>
                                    <valuemin>0</valuemin>
                                    <valuemax>100</valuemax>
                                </parameter>
                            </effect>
                        </filter>
                        <filter>
                            <enabled>true</enabled>
                            <start>0</start>
                            <end>115210</end>
                            <effect>
                                <name>Basic Motion</name>
                                <effectid>basic</effectid>
                                <effecttype>motion</effecttype>
                                <mediatype>video</mediatype>
                                <effectcategory>motion</effectcategory>
                                <parameter>
                                    <name>Scale</name>
                                    <parameterid>scale</parameterid>
                                    <value>200</value>
                                    <valuemin>25</valuemin>
                                    <valuemax>400</valuemax>
                                </parameter>
                                <parameter>
                                    <name>Center</name>
                                    <parameterid>center</parameterid>
                                    <value>
                                        <horiz>0.436458468437195</horiz>
                                        <vert>-0.127777755260468</vert>
                                    </value>
                                </parameter>
                                <parameter>
                                    <name>Rotation</name>
                                    <parameterid>rotation</parameterid>
                                    <value>0</value>
                                    <valuemin>-100000</valuemin>
                                    <valuemax>100000</valuemax>
                                </parameter>
                                <parameter>
                                    <name>Anchor Point</name>
                                    <parameterid>centerOffset</parameterid>
                                    <value>
                                        <horiz>0</horiz>
                                        <vert>0</vert>
                                    </value>
                                </parameter>
                            </effect>
                        </filter>
                        <filter>
                            <enabled>true</enabled>
                            <start>0</start>
                            <end>115210</end>
                            <effect>
                                <name>Crop</name>
                                <effectid>crop</effectid>
                                <effecttype>motion</effecttype>
                                <mediatype>video</mediatype>
                                <effectcategory>motion</effectcategory>
                                <parameter>
                                    <name>left</name>
                                    <parameterid>left</parameterid>
                                    <value>0</value>
                                    <valuemin>0</valuemin>
                                    <valuemax>100</valuemax>
                                </parameter>
                                <parameter>
                                    <name>right</name>
                                    <parameterid>right</parameterid>
                                    <value>0</value>
                                    <valuemin>0</valuemin>
                                    <valuemax>100</valuemax>
                                </parameter>
                                <parameter>
                                    <name>top</name>
                                    <parameterid>top</parameterid>
                                    <value>0</value>
                                    <valuemin>0</valuemin>
                                    <valuemax>100</valuemax>
                                </parameter>
                                <parameter>
                                    <name>bottom</name>
                                    <parameterid>bottom</parameterid>
                                    <value>0</value>
                                    <valuemin>0</valuemin>
                                    <valuemax>100</valuemax>
                                </parameter>
                            </effect>
                        </filter>
                    </clipitem>
                    <clipitem id="Samstag Morgen Multi 97">
                        <name>Samstag Morgen Multi</name>
                        <duration>115210</duration>
                        <rate>
                            <timebase>25</timebase>
                            <ntsc>false</ntsc>
                        </rate>
                        <start>46761</start>
                        <end>49198</end>
                        <enabled>true</enabled>
                        <in>46761</in>
                        <out>49198</out>
                        <file id="Samstag Morgen Multi 2"/>
                        <compositemode>normal</compositemode>
                        <filter>
                            <enabled>true</enabled>
                            <start>0</start>
                            <end>115210</end>
                            <effect>
                                <name>Opacity</name>
                                <effectid>opacity</effectid>
                                <effecttype>motion</effecttype>
                                <mediatype>video</mediatype>
                                <effectcategory>motion</effectcategory>
                                <parameter>
                                    <name>opacity</name>
                                    <parameterid>opacity</parameterid>
                                    <value>100</value>
                                    <valuemin>0</valuemin>
                                    <valuemax>100</valuemax>
                                </parameter>
                            </effect>
                        </filter>
                        <filter>
                            <enabled>true</enabled>
                            <start>0</start>
                            <end>115210</end>
                            <effect>
                                <name>Basic Motion</name>
                                <effectid>basic</effectid>
                                <effecttype>motion</effecttype>
                                <mediatype>video</mediatype>
                                <effectcategory>motion</effectcategory>
                                <parameter>
                                    <name>Scale</name>
                                    <parameterid>scale</parameterid>
                                    <value>100</value>
                                    <valuemin>25</valuemin>
                                    <valuemax>400</valuemax>
                                </parameter>
                                <parameter>
                                    <name>Center</name>
                                    <parameterid>center</parameterid>
                                    <value>
                                        <horiz>0</horiz>
                                        <vert>0</vert>
                                    </value>
                                </parameter>
                                <parameter>
                                    <name>Rotation</name>
                                    <parameterid>rotation</parameterid>
                                    <value>0</value>
                                    <valuemin>-100000</valuemin>
                                    <valuemax>100000</valuemax>
                                </parameter>
                                <parameter>
                                    <name>Anchor Point</name>
                                    <parameterid>centerOffset</parameterid>
                                    <value>
                                        <horiz>0</horiz>
                                        <vert>0</vert>
                                    </value>
                                </parameter>
                            </effect>
                        </filter>
                        <filter>
                            <enabled>true</enabled>
                            <start>0</start>
                            <end>115210</end>
                            <effect>
                                <name>Crop</name>
                                <effectid>crop</effectid>
                                <effecttype>motion</effecttype>
                                <mediatype>video</mediatype>
                                <effectcategory>motion</effectcategory>
                                <parameter>
                                    <name>left</name>
                                    <parameterid>left</parameterid>
                                    <value>0</value>
                                    <valuemin>0</valuemin>
                                    <valuemax>100</valuemax>
                                </parameter>
                                <parameter>
                                    <name>right</name>
                                    <parameterid>right</parameterid>
                                    <value>0</value>
                                    <valuemin>0</valuemin>
                                    <valuemax>100</valuemax>
                                </parameter>
                                <parameter>
                                    <name>top</name>
                                    <parameterid>top</parameterid>
                                    <value>0</value>
                                    <valuemin>0</valuemin>
                                    <valuemax>100</valuemax>
                                </parameter>
                                <parameter>
                                    <name>bottom</name>
                                    <parameterid>bottom</parameterid>
                                    <value>0</value>
                                    <valuemin>0</valuemin>
                                    <valuemax>100</valuemax>
                                </parameter>
                            </effect>
                        </filter>
                    </clipitem>
                    <clipitem id="Samstag Morgen Multi 99">
                        <name>Samstag Morgen Multi</name>
                        <duration>115210</duration>
                        <rate>
                            <timebase>25</timebase>
                            <ntsc>false</ntsc>
                        </rate>
                        <start>49198</start>
                        <end>49430</end>
                        <enabled>true</enabled>
                        <in>49198</in>
                        <out>49430</out>
                        <file id="Samstag Morgen Multi 2"/>
                        <compositemode>normal</compositemode>
                        <filter>
                            <enabled>true</enabled>
                            <start>0</start>
                            <end>115210</end>
                            <effect>
                                <name>Opacity</name>
                                <effectid>opacity</effectid>
                                <effecttype>motion</effecttype>
                                <mediatype>video</mediatype>
                                <effectcategory>motion</effectcategory>
                                <parameter>
                                    <name>opacity</name>
                                    <parameterid>opacity</parameterid>
                                    <value>100</value>
                                    <valuemin>0</valuemin>
                                    <valuemax>100</valuemax>
                                </parameter>
                            </effect>
                        </filter>
                        <filter>
                            <enabled>true</enabled>
                            <start>0</start>
                            <end>115210</end>
                            <effect>
                                <name>Basic Motion</name>
                                <effectid>basic</effectid>
                                <effecttype>motion</effecttype>
                                <mediatype>video</mediatype>
                                <effectcategory>motion</effectcategory>
                                <parameter>
                                    <name>Scale</name>
                                    <parameterid>scale</parameterid>
                                    <value>200</value>
                                    <valuemin>25</valuemin>
                                    <valuemax>400</valuemax>
                                </parameter>
                                <parameter>
                                    <name>Center</name>
                                    <parameterid>center</parameterid>
                                    <value>
                                        <horiz>0.138020858168602</horiz>
                                        <vert>-0.218518570065498</vert>
                                    </value>
                                </parameter>
                                <parameter>
                                    <name>Rotation</name>
                                    <parameterid>rotation</parameterid>
                                    <value>0</value>
                                    <valuemin>-100000</valuemin>
                                    <valuemax>100000</valuemax>
                                </parameter>
                                <parameter>
                                    <name>Anchor Point</name>
                                    <parameterid>centerOffset</parameterid>
                                    <value>
                                        <horiz>0</horiz>
                                        <vert>0</vert>
                                    </value>
                                </parameter>
                            </effect>
                        </filter>
                        <filter>
                            <enabled>true</enabled>
                            <start>0</start>
                            <end>115210</end>
                            <effect>
                                <name>Crop</name>
                                <effectid>crop</effectid>
                                <effecttype>motion</effecttype>
                                <mediatype>video</mediatype>
                                <effectcategory>motion</effectcategory>
                                <parameter>
                                    <name>left</name>
                                    <parameterid>left</parameterid>
                                    <value>0</value>
                                    <valuemin>0</valuemin>
                                    <valuemax>100</valuemax>
                                </parameter>
                                <parameter>
                                    <name>right</name>
                                    <parameterid>right</parameterid>
                                    <value>0</value>
                                    <valuemin>0</valuemin>
                                    <valuemax>100</valuemax>
                                </parameter>
                                <parameter>
                                    <name>top</name>
                                    <parameterid>top</parameterid>
                                    <value>0</value>
                                    <valuemin>0</valuemin>
                                    <valuemax>100</valuemax>
                                </parameter>
                                <parameter>
                                    <name>bottom</name>
                                    <parameterid>bottom</parameterid>
                                    <value>0</value>
                                    <valuemin>0</valuemin>
                                    <valuemax>100</valuemax>
                                </parameter>
                            </effect>
                        </filter>
                    </clipitem>
                    <clipitem id="Samstag Morgen Multi 101">
                        <name>Samstag Morgen Multi</name>
                        <duration>115210</duration>
                        <rate>
                            <timebase>25</timebase>
                            <ntsc>false</ntsc>
                        </rate>
                        <start>49430</start>
                        <end>49915</end>
                        <enabled>true</enabled>
                        <in>49430</in>
                        <out>49915</out>
                        <file id="Samstag Morgen Multi 2"/>
                        <compositemode>normal</compositemode>
                        <filter>
                            <enabled>true</enabled>
                            <start>0</start>
                            <end>115210</end>
                            <effect>
                                <name>Opacity</name>
                                <effectid>opacity</effectid>
                                <effecttype>motion</effecttype>
                                <mediatype>video</mediatype>
                                <effectcategory>motion</effectcategory>
                                <parameter>
                                    <name>opacity</name>
                                    <parameterid>opacity</parameterid>
                                    <value>100</value>
                                    <valuemin>0</valuemin>
                                    <valuemax>100</valuemax>
                                </parameter>
                            </effect>
                        </filter>
                        <filter>
                            <enabled>true</enabled>
                            <start>0</start>
                            <end>115210</end>
                            <effect>
                                <name>Basic Motion</name>
                                <effectid>basic</effectid>
                                <effecttype>motion</effecttype>
                                <mediatype>video</mediatype>
                                <effectcategory>motion</effectcategory>
                                <parameter>
                                    <name>Scale</name>
                                    <parameterid>scale</parameterid>
                                    <value>100</value>
                                    <valuemin>25</valuemin>
                                    <valuemax>400</valuemax>
                                </parameter>
                                <parameter>
                                    <name>Center</name>
                                    <parameterid>center</parameterid>
                                    <value>
                                        <horiz>0</horiz>
                                        <vert>0</vert>
                                    </value>
                                </parameter>
                                <parameter>
                                    <name>Rotation</name>
                                    <parameterid>rotation</parameterid>
                                    <value>0</value>
                                    <valuemin>-100000</valuemin>
                                    <valuemax>100000</valuemax>
                                </parameter>
                                <parameter>
                                    <name>Anchor Point</name>
                                    <parameterid>centerOffset</parameterid>
                                    <value>
                                        <horiz>0</horiz>
                                        <vert>0</vert>
                                    </value>
                                </parameter>
                            </effect>
                        </filter>
                        <filter>
                            <enabled>true</enabled>
                            <start>0</start>
                            <end>115210</end>
                            <effect>
                                <name>Crop</name>
                                <effectid>crop</effectid>
                                <effecttype>motion</effecttype>
                                <mediatype>video</mediatype>
                                <effectcategory>motion</effectcategory>
                                <parameter>
                                    <name>left</name>
                                    <parameterid>left</parameterid>
                                    <value>0</value>
                                    <valuemin>0</valuemin>
                                    <valuemax>100</valuemax>
                                </parameter>
                                <parameter>
                                    <name>right</name>
                                    <parameterid>right</parameterid>
                                    <value>0</value>
                                    <valuemin>0</valuemin>
                                    <valuemax>100</valuemax>
                                </parameter>
                                <parameter>
                                    <name>top</name>
                                    <parameterid>top</parameterid>
                                    <value>0</value>
                                    <valuemin>0</valuemin>
                                    <valuemax>100</valuemax>
                                </parameter>
                                <parameter>
                                    <name>bottom</name>
                                    <parameterid>bottom</parameterid>
                                    <value>0</value>
                                    <valuemin>0</valuemin>
                                    <valuemax>100</valuemax>
                                </parameter>
                            </effect>
                        </filter>
                    </clipitem>
                    <clipitem id="Samstag Morgen Multi 103">
                        <name>Samstag Morgen Multi</name>
                        <duration>115210</duration>
                        <rate>
                            <timebase>25</timebase>
                            <ntsc>false</ntsc>
                        </rate>
                        <start>49915</start>
                        <end>50109</end>
                        <enabled>true</enabled>
                        <in>49915</in>
                        <out>50109</out>
                        <file id="Samstag Morgen Multi 2"/>
                        <compositemode>normal</compositemode>
                        <filter>
                            <enabled>true</enabled>
                            <start>0</start>
                            <end>115210</end>
                            <effect>
                                <name>Opacity</name>
                                <effectid>opacity</effectid>
                                <effecttype>motion</effecttype>
                                <mediatype>video</mediatype>
                                <effectcategory>motion</effectcategory>
                                <parameter>
                                    <name>opacity</name>
                                    <parameterid>opacity</parameterid>
                                    <value>100</value>
                                    <valuemin>0</valuemin>
                                    <valuemax>100</valuemax>
                                </parameter>
                            </effect>
                        </filter>
                        <filter>
                            <enabled>true</enabled>
                            <start>0</start>
                            <end>115210</end>
                            <effect>
                                <name>Basic Motion</name>
                                <effectid>basic</effectid>
                                <effecttype>motion</effecttype>
                                <mediatype>video</mediatype>
                                <effectcategory>motion</effectcategory>
                                <parameter>
                                    <name>Scale</name>
                                    <parameterid>scale</parameterid>
                                    <value>200</value>
                                    <valuemin>25</valuemin>
                                    <valuemax>400</valuemax>
                                </parameter>
                                <parameter>
                                    <name>Center</name>
                                    <parameterid>center</parameterid>
                                    <value>
                                        <horiz>0.156250044703484</horiz>
                                        <vert>-0.213888883590698</vert>
                                    </value>
                                </parameter>
                                <parameter>
                                    <name>Rotation</name>
                                    <parameterid>rotation</parameterid>
                                    <value>0</value>
                                    <valuemin>-100000</valuemin>
                                    <valuemax>100000</valuemax>
                                </parameter>
                                <parameter>
                                    <name>Anchor Point</name>
                                    <parameterid>centerOffset</parameterid>
                                    <value>
                                        <horiz>0</horiz>
                                        <vert>0</vert>
                                    </value>
                                </parameter>
                            </effect>
                        </filter>
                        <filter>
                            <enabled>true</enabled>
                            <start>0</start>
                            <end>115210</end>
                            <effect>
                                <name>Crop</name>
                                <effectid>crop</effectid>
                                <effecttype>motion</effecttype>
                                <mediatype>video</mediatype>
                                <effectcategory>motion</effectcategory>
                                <parameter>
                                    <name>left</name>
                                    <parameterid>left</parameterid>
                                    <value>0</value>
                                    <valuemin>0</valuemin>
                                    <valuemax>100</valuemax>
                                </parameter>
                                <parameter>
                                    <name>right</name>
                                    <parameterid>right</parameterid>
                                    <value>0</value>
                                    <valuemin>0</valuemin>
                                    <valuemax>100</valuemax>
                                </parameter>
                                <parameter>
                                    <name>top</name>
                                    <parameterid>top</parameterid>
                                    <value>0</value>
                                    <valuemin>0</valuemin>
                                    <valuemax>100</valuemax>
                                </parameter>
                                <parameter>
                                    <name>bottom</name>
                                    <parameterid>bottom</parameterid>
                                    <value>0</value>
                                    <valuemin>0</valuemin>
                                    <valuemax>100</valuemax>
                                </parameter>
                            </effect>
                        </filter>
                    </clipitem>
                    <clipitem id="Samstag Morgen Multi 105">
                        <name>Samstag Morgen Multi</name>
                        <duration>115210</duration>
                        <rate>
                            <timebase>25</timebase>
                            <ntsc>false</ntsc>
                        </rate>
                        <start>50109</start>
                        <end>52012</end>
                        <enabled>true</enabled>
                        <in>50109</in>
                        <out>52012</out>
                        <file id="Samstag Morgen Multi 2"/>
                        <compositemode>normal</compositemode>
                        <filter>
                            <enabled>true</enabled>
                            <start>0</start>
                            <end>115210</end>
                            <effect>
                                <name>Opacity</name>
                                <effectid>opacity</effectid>
                                <effecttype>motion</effecttype>
                                <mediatype>video</mediatype>
                                <effectcategory>motion</effectcategory>
                                <parameter>
                                    <name>opacity</name>
                                    <parameterid>opacity</parameterid>
                                    <value>100</value>
                                    <valuemin>0</valuemin>
                                    <valuemax>100</valuemax>
                                </parameter>
                            </effect>
                        </filter>
                        <filter>
                            <enabled>true</enabled>
                            <start>0</start>
                            <end>115210</end>
                            <effect>
                                <name>Basic Motion</name>
                                <effectid>basic</effectid>
                                <effecttype>motion</effecttype>
                                <mediatype>video</mediatype>
                                <effectcategory>motion</effectcategory>
                                <parameter>
                                    <name>Scale</name>
                                    <parameterid>scale</parameterid>
                                    <value>100</value>
                                    <valuemin>25</valuemin>
                                    <valuemax>400</valuemax>
                                </parameter>
                                <parameter>
                                    <name>Center</name>
                                    <parameterid>center</parameterid>
                                    <value>
                                        <horiz>0</horiz>
                                        <vert>0</vert>
                                    </value>
                                </parameter>
                                <parameter>
                                    <name>Rotation</name>
                                    <parameterid>rotation</parameterid>
                                    <value>0</value>
                                    <valuemin>-100000</valuemin>
                                    <valuemax>100000</valuemax>
                                </parameter>
                                <parameter>
                                    <name>Anchor Point</name>
                                    <parameterid>centerOffset</parameterid>
                                    <value>
                                        <horiz>0</horiz>
                                        <vert>0</vert>
                                    </value>
                                </parameter>
                            </effect>
                        </filter>
                        <filter>
                            <enabled>true</enabled>
                            <start>0</start>
                            <end>115210</end>
                            <effect>
                                <name>Crop</name>
                                <effectid>crop</effectid>
                                <effecttype>motion</effecttype>
                                <mediatype>video</mediatype>
                                <effectcategory>motion</effectcategory>
                                <parameter>
                                    <name>left</name>
                                    <parameterid>left</parameterid>
                                    <value>0</value>
                                    <valuemin>0</valuemin>
                                    <valuemax>100</valuemax>
                                </parameter>
                                <parameter>
                                    <name>right</name>
                                    <parameterid>right</parameterid>
                                    <value>0</value>
                                    <valuemin>0</valuemin>
                                    <valuemax>100</valuemax>
                                </parameter>
                                <parameter>
                                    <name>top</name>
                                    <parameterid>top</parameterid>
                                    <value>0</value>
                                    <valuemin>0</valuemin>
                                    <valuemax>100</valuemax>
                                </parameter>
                                <parameter>
                                    <name>bottom</name>
                                    <parameterid>bottom</parameterid>
                                    <value>0</value>
                                    <valuemin>0</valuemin>
                                    <valuemax>100</valuemax>
                                </parameter>
                            </effect>
                        </filter>
                    </clipitem>
                    <clipitem id="Samstag Morgen Multi 107">
                        <name>Samstag Morgen Multi</name>
                        <duration>115210</duration>
                        <rate>
                            <timebase>25</timebase>
                            <ntsc>false</ntsc>
                        </rate>
                        <start>52012</start>
                        <end>52507</end>
                        <enabled>true</enabled>
                        <in>52012</in>
                        <out>52507</out>
                        <file id="Samstag Morgen Multi 2"/>
                        <compositemode>normal</compositemode>
                        <filter>
                            <enabled>true</enabled>
                            <start>0</start>
                            <end>115210</end>
                            <effect>
                                <name>Opacity</name>
                                <effectid>opacity</effectid>
                                <effecttype>motion</effecttype>
                                <mediatype>video</mediatype>
                                <effectcategory>motion</effectcategory>
                                <parameter>
                                    <name>opacity</name>
                                    <parameterid>opacity</parameterid>
                                    <value>100</value>
                                    <valuemin>0</valuemin>
                                    <valuemax>100</valuemax>
                                </parameter>
                            </effect>
                        </filter>
                        <filter>
                            <enabled>true</enabled>
                            <start>0</start>
                            <end>115210</end>
                            <effect>
                                <name>Basic Motion</name>
                                <effectid>basic</effectid>
                                <effecttype>motion</effecttype>
                                <mediatype>video</mediatype>
                                <effectcategory>motion</effectcategory>
                                <parameter>
                                    <name>Scale</name>
                                    <parameterid>scale</parameterid>
                                    <value>200</value>
                                    <valuemin>25</valuemin>
                                    <valuemax>400</valuemax>
                                </parameter>
                                <parameter>
                                    <name>Center</name>
                                    <parameterid>center</parameterid>
                                    <value>
                                        <horiz>0</horiz>
                                        <vert>-0.146296322345734</vert>
                                    </value>
                                </parameter>
                                <parameter>
                                    <name>Rotation</name>
                                    <parameterid>rotation</parameterid>
                                    <value>0</value>
                                    <valuemin>-100000</valuemin>
                                    <valuemax>100000</valuemax>
                                </parameter>
                                <parameter>
                                    <name>Anchor Point</name>
                                    <parameterid>centerOffset</parameterid>
                                    <value>
                                        <horiz>0</horiz>
                                        <vert>0</vert>
                                    </value>
                                </parameter>
                            </effect>
                        </filter>
                        <filter>
                            <enabled>true</enabled>
                            <start>0</start>
                            <end>115210</end>
                            <effect>
                                <name>Crop</name>
                                <effectid>crop</effectid>
                                <effecttype>motion</effecttype>
                                <mediatype>video</mediatype>
                                <effectcategory>motion</effectcategory>
                                <parameter>
                                    <name>left</name>
                                    <parameterid>left</parameterid>
                                    <value>0</value>
                                    <valuemin>0</valuemin>
                                    <valuemax>100</valuemax>
                                </parameter>
                                <parameter>
                                    <name>right</name>
                                    <parameterid>right</parameterid>
                                    <value>0</value>
                                    <valuemin>0</valuemin>
                                    <valuemax>100</valuemax>
                                </parameter>
                                <parameter>
                                    <name>top</name>
                                    <parameterid>top</parameterid>
                                    <value>0</value>
                                    <valuemin>0</valuemin>
                                    <valuemax>100</valuemax>
                                </parameter>
                                <parameter>
                                    <name>bottom</name>
                                    <parameterid>bottom</parameterid>
                                    <value>0</value>
                                    <valuemin>0</valuemin>
                                    <valuemax>100</valuemax>
                                </parameter>
                            </effect>
                        </filter>
                    </clipitem>
                    <clipitem id="Samstag Morgen Multi 109">
                        <name>Samstag Morgen Multi</name>
                        <duration>115210</duration>
                        <rate>
                            <timebase>25</timebase>
                            <ntsc>false</ntsc>
                        </rate>
                        <start>52507</start>
                        <end>52742</end>
                        <enabled>true</enabled>
                        <in>52507</in>
                        <out>52742</out>
                        <file id="Samstag Morgen Multi 2"/>
                        <compositemode>normal</compositemode>
                        <filter>
                            <enabled>true</enabled>
                            <start>0</start>
                            <end>115210</end>
                            <effect>
                                <name>Opacity</name>
                                <effectid>opacity</effectid>
                                <effecttype>motion</effecttype>
                                <mediatype>video</mediatype>
                                <effectcategory>motion</effectcategory>
                                <parameter>
                                    <name>opacity</name>
                                    <parameterid>opacity</parameterid>
                                    <value>100</value>
                                    <valuemin>0</valuemin>
                                    <valuemax>100</valuemax>
                                </parameter>
                            </effect>
                        </filter>
                        <filter>
                            <enabled>true</enabled>
                            <start>0</start>
                            <end>115210</end>
                            <effect>
                                <name>Basic Motion</name>
                                <effectid>basic</effectid>
                                <effecttype>motion</effecttype>
                                <mediatype>video</mediatype>
                                <effectcategory>motion</effectcategory>
                                <parameter>
                                    <name>Scale</name>
                                    <parameterid>scale</parameterid>
                                    <value>100</value>
                                    <valuemin>25</valuemin>
                                    <valuemax>400</valuemax>
                                </parameter>
                                <parameter>
                                    <name>Center</name>
                                    <parameterid>center</parameterid>
                                    <value>
                                        <horiz>0</horiz>
                                        <vert>0</vert>
                                    </value>
                                </parameter>
                                <parameter>
                                    <name>Rotation</name>
                                    <parameterid>rotation</parameterid>
                                    <value>0</value>
                                    <valuemin>-100000</valuemin>
                                    <valuemax>100000</valuemax>
                                </parameter>
                                <parameter>
                                    <name>Anchor Point</name>
                                    <parameterid>centerOffset</parameterid>
                                    <value>
                                        <horiz>0</horiz>
                                        <vert>0</vert>
                                    </value>
                                </parameter>
                            </effect>
                        </filter>
                        <filter>
                            <enabled>true</enabled>
                            <start>0</start>
                            <end>115210</end>
                            <effect>
                                <name>Crop</name>
                                <effectid>crop</effectid>
                                <effecttype>motion</effecttype>
                                <mediatype>video</mediatype>
                                <effectcategory>motion</effectcategory>
                                <parameter>
                                    <name>left</name>
                                    <parameterid>left</parameterid>
                                    <value>0</value>
                                    <valuemin>0</valuemin>
                                    <valuemax>100</valuemax>
                                </parameter>
                                <parameter>
                                    <name>right</name>
                                    <parameterid>right</parameterid>
                                    <value>0</value>
                                    <valuemin>0</valuemin>
                                    <valuemax>100</valuemax>
                                </parameter>
                                <parameter>
                                    <name>top</name>
                                    <parameterid>top</parameterid>
                                    <value>0</value>
                                    <valuemin>0</valuemin>
                                    <valuemax>100</valuemax>
                                </parameter>
                                <parameter>
                                    <name>bottom</name>
                                    <parameterid>bottom</parameterid>
                                    <value>0</value>
                                    <valuemin>0</valuemin>
                                    <valuemax>100</valuemax>
                                </parameter>
                            </effect>
                        </filter>
                    </clipitem>
                    <clipitem id="Samstag Morgen Multi 111">
                        <name>Samstag Morgen Multi</name>
                        <duration>115210</duration>
                        <rate>
                            <timebase>25</timebase>
                            <ntsc>false</ntsc>
                        </rate>
                        <start>52742</start>
                        <end>52983</end>
                        <enabled>true</enabled>
                        <in>52742</in>
                        <out>52983</out>
                        <file id="Samstag Morgen Multi 2"/>
                        <compositemode>normal</compositemode>
                        <filter>
                            <enabled>true</enabled>
                            <start>0</start>
                            <end>115210</end>
                            <effect>
                                <name>Opacity</name>
                                <effectid>opacity</effectid>
                                <effecttype>motion</effecttype>
                                <mediatype>video</mediatype>
                                <effectcategory>motion</effectcategory>
                                <parameter>
                                    <name>opacity</name>
                                    <parameterid>opacity</parameterid>
                                    <value>100</value>
                                    <valuemin>0</valuemin>
                                    <valuemax>100</valuemax>
                                </parameter>
                            </effect>
                        </filter>
                        <filter>
                            <enabled>true</enabled>
                            <start>0</start>
                            <end>115210</end>
                            <effect>
                                <name>Basic Motion</name>
                                <effectid>basic</effectid>
                                <effecttype>motion</effecttype>
                                <mediatype>video</mediatype>
                                <effectcategory>motion</effectcategory>
                                <parameter>
                                    <name>Scale</name>
                                    <parameterid>scale</parameterid>
                                    <value>200</value>
                                    <valuemin>25</valuemin>
                                    <valuemax>400</valuemax>
                                </parameter>
                                <parameter>
                                    <name>Center</name>
                                    <parameterid>center</parameterid>
                                    <value>
                                        <horiz>-0.0187499970197678</horiz>
                                        <vert>-0.152777850627899</vert>
                                    </value>
                                </parameter>
                                <parameter>
                                    <name>Rotation</name>
                                    <parameterid>rotation</parameterid>
                                    <value>0</value>
                                    <valuemin>-100000</valuemin>
                                    <valuemax>100000</valuemax>
                                </parameter>
                                <parameter>
                                    <name>Anchor Point</name>
                                    <parameterid>centerOffset</parameterid>
                                    <value>
                                        <horiz>0</horiz>
                                        <vert>0</vert>
                                    </value>
                                </parameter>
                            </effect>
                        </filter>
                        <filter>
                            <enabled>true</enabled>
                            <start>0</start>
                            <end>115210</end>
                            <effect>
                                <name>Crop</name>
                                <effectid>crop</effectid>
                                <effecttype>motion</effecttype>
                                <mediatype>video</mediatype>
                                <effectcategory>motion</effectcategory>
                                <parameter>
                                    <name>left</name>
                                    <parameterid>left</parameterid>
                                    <value>0</value>
                                    <valuemin>0</valuemin>
                                    <valuemax>100</valuemax>
                                </parameter>
                                <parameter>
                                    <name>right</name>
                                    <parameterid>right</parameterid>
                                    <value>0</value>
                                    <valuemin>0</valuemin>
                                    <valuemax>100</valuemax>
                                </parameter>
                                <parameter>
                                    <name>top</name>
                                    <parameterid>top</parameterid>
                                    <value>0</value>
                                    <valuemin>0</valuemin>
                                    <valuemax>100</valuemax>
                                </parameter>
                                <parameter>
                                    <name>bottom</name>
                                    <parameterid>bottom</parameterid>
                                    <value>0</value>
                                    <valuemin>0</valuemin>
                                    <valuemax>100</valuemax>
                                </parameter>
                            </effect>
                        </filter>
                    </clipitem>
                    <clipitem id="Samstag Morgen Multi 113">
                        <name>Samstag Morgen Multi</name>
                        <duration>115210</duration>
                        <rate>
                            <timebase>25</timebase>
                            <ntsc>false</ntsc>
                        </rate>
                        <start>52983</start>
                        <end>54240</end>
                        <enabled>true</enabled>
                        <in>52983</in>
                        <out>54240</out>
                        <file id="Samstag Morgen Multi 2"/>
                        <compositemode>normal</compositemode>
                        <filter>
                            <enabled>true</enabled>
                            <start>0</start>
                            <end>115210</end>
                            <effect>
                                <name>Opacity</name>
                                <effectid>opacity</effectid>
                                <effecttype>motion</effecttype>
                                <mediatype>video</mediatype>
                                <effectcategory>motion</effectcategory>
                                <parameter>
                                    <name>opacity</name>
                                    <parameterid>opacity</parameterid>
                                    <value>100</value>
                                    <valuemin>0</valuemin>
                                    <valuemax>100</valuemax>
                                </parameter>
                            </effect>
                        </filter>
                        <filter>
                            <enabled>true</enabled>
                            <start>0</start>
                            <end>115210</end>
                            <effect>
                                <name>Basic Motion</name>
                                <effectid>basic</effectid>
                                <effecttype>motion</effecttype>
                                <mediatype>video</mediatype>
                                <effectcategory>motion</effectcategory>
                                <parameter>
                                    <name>Scale</name>
                                    <parameterid>scale</parameterid>
                                    <value>100</value>
                                    <valuemin>25</valuemin>
                                    <valuemax>400</valuemax>
                                </parameter>
                                <parameter>
                                    <name>Center</name>
                                    <parameterid>center</parameterid>
                                    <value>
                                        <horiz>0</horiz>
                                        <vert>0</vert>
                                    </value>
                                </parameter>
                                <parameter>
                                    <name>Rotation</name>
                                    <parameterid>rotation</parameterid>
                                    <value>0</value>
                                    <valuemin>-100000</valuemin>
                                    <valuemax>100000</valuemax>
                                </parameter>
                                <parameter>
                                    <name>Anchor Point</name>
                                    <parameterid>centerOffset</parameterid>
                                    <value>
                                        <horiz>0</horiz>
                                        <vert>0</vert>
                                    </value>
                                </parameter>
                            </effect>
                        </filter>
                        <filter>
                            <enabled>true</enabled>
                            <start>0</start>
                            <end>115210</end>
                            <effect>
                                <name>Crop</name>
                                <effectid>crop</effectid>
                                <effecttype>motion</effecttype>
                                <mediatype>video</mediatype>
                                <effectcategory>motion</effectcategory>
                                <parameter>
                                    <name>left</name>
                                    <parameterid>left</parameterid>
                                    <value>0</value>
                                    <valuemin>0</valuemin>
                                    <valuemax>100</valuemax>
                                </parameter>
                                <parameter>
                                    <name>right</name>
                                    <parameterid>right</parameterid>
                                    <value>0</value>
                                    <valuemin>0</valuemin>
                                    <valuemax>100</valuemax>
                                </parameter>
                                <parameter>
                                    <name>top</name>
                                    <parameterid>top</parameterid>
                                    <value>0</value>
                                    <valuemin>0</valuemin>
                                    <valuemax>100</valuemax>
                                </parameter>
                                <parameter>
                                    <name>bottom</name>
                                    <parameterid>bottom</parameterid>
                                    <value>0</value>
                                    <valuemin>0</valuemin>
                                    <valuemax>100</valuemax>
                                </parameter>
                            </effect>
                        </filter>
                    </clipitem>
                    <clipitem id="Samstag Morgen Multi 115">
                        <name>Samstag Morgen Multi</name>
                        <duration>115210</duration>
                        <rate>
                            <timebase>25</timebase>
                            <ntsc>false</ntsc>
                        </rate>
                        <start>54240</start>
                        <end>54541</end>
                        <enabled>true</enabled>
                        <in>54240</in>
                        <out>54541</out>
                        <file id="Samstag Morgen Multi 2"/>
                        <compositemode>normal</compositemode>
                        <filter>
                            <enabled>true</enabled>
                            <start>0</start>
                            <end>115210</end>
                            <effect>
                                <name>Opacity</name>
                                <effectid>opacity</effectid>
                                <effecttype>motion</effecttype>
                                <mediatype>video</mediatype>
                                <effectcategory>motion</effectcategory>
                                <parameter>
                                    <name>opacity</name>
                                    <parameterid>opacity</parameterid>
                                    <value>100</value>
                                    <valuemin>0</valuemin>
                                    <valuemax>100</valuemax>
                                </parameter>
                            </effect>
                        </filter>
                        <filter>
                            <enabled>true</enabled>
                            <start>0</start>
                            <end>115210</end>
                            <effect>
                                <name>Basic Motion</name>
                                <effectid>basic</effectid>
                                <effecttype>motion</effecttype>
                                <mediatype>video</mediatype>
                                <effectcategory>motion</effectcategory>
                                <parameter>
                                    <name>Scale</name>
                                    <parameterid>scale</parameterid>
                                    <value>200</value>
                                    <valuemin>25</valuemin>
                                    <valuemax>400</valuemax>
                                </parameter>
                                <parameter>
                                    <name>Center</name>
                                    <parameterid>center</parameterid>
                                    <value>
                                        <horiz>0</horiz>
                                        <vert>-0.194444462656975</vert>
                                    </value>
                                </parameter>
                                <parameter>
                                    <name>Rotation</name>
                                    <parameterid>rotation</parameterid>
                                    <value>0</value>
                                    <valuemin>-100000</valuemin>
                                    <valuemax>100000</valuemax>
                                </parameter>
                                <parameter>
                                    <name>Anchor Point</name>
                                    <parameterid>centerOffset</parameterid>
                                    <value>
                                        <horiz>0</horiz>
                                        <vert>0</vert>
                                    </value>
                                </parameter>
                            </effect>
                        </filter>
                        <filter>
                            <enabled>true</enabled>
                            <start>0</start>
                            <end>115210</end>
                            <effect>
                                <name>Crop</name>
                                <effectid>crop</effectid>
                                <effecttype>motion</effecttype>
                                <mediatype>video</mediatype>
                                <effectcategory>motion</effectcategory>
                                <parameter>
                                    <name>left</name>
                                    <parameterid>left</parameterid>
                                    <value>0</value>
                                    <valuemin>0</valuemin>
                                    <valuemax>100</valuemax>
                                </parameter>
                                <parameter>
                                    <name>right</name>
                                    <parameterid>right</parameterid>
                                    <value>0</value>
                                    <valuemin>0</valuemin>
                                    <valuemax>100</valuemax>
                                </parameter>
                                <parameter>
                                    <name>top</name>
                                    <parameterid>top</parameterid>
                                    <value>0</value>
                                    <valuemin>0</valuemin>
                                    <valuemax>100</valuemax>
                                </parameter>
                                <parameter>
                                    <name>bottom</name>
                                    <parameterid>bottom</parameterid>
                                    <value>0</value>
                                    <valuemin>0</valuemin>
                                    <valuemax>100</valuemax>
                                </parameter>
                            </effect>
                        </filter>
                    </clipitem>
                    <clipitem id="Samstag Morgen Multi 117">
                        <name>Samstag Morgen Multi</name>
                        <duration>115210</duration>
                        <rate>
                            <timebase>25</timebase>
                            <ntsc>false</ntsc>
                        </rate>
                        <start>54541</start>
                        <end>54715</end>
                        <enabled>true</enabled>
                        <in>54541</in>
                        <out>54715</out>
                        <file id="Samstag Morgen Multi 2"/>
                        <compositemode>normal</compositemode>
                        <filter>
                            <enabled>true</enabled>
                            <start>0</start>
                            <end>115210</end>
                            <effect>
                                <name>Opacity</name>
                                <effectid>opacity</effectid>
                                <effecttype>motion</effecttype>
                                <mediatype>video</mediatype>
                                <effectcategory>motion</effectcategory>
                                <parameter>
                                    <name>opacity</name>
                                    <parameterid>opacity</parameterid>
                                    <value>100</value>
                                    <valuemin>0</valuemin>
                                    <valuemax>100</valuemax>
                                </parameter>
                            </effect>
                        </filter>
                        <filter>
                            <enabled>true</enabled>
                            <start>0</start>
                            <end>115210</end>
                            <effect>
                                <name>Basic Motion</name>
                                <effectid>basic</effectid>
                                <effecttype>motion</effecttype>
                                <mediatype>video</mediatype>
                                <effectcategory>motion</effectcategory>
                                <parameter>
                                    <name>Scale</name>
                                    <parameterid>scale</parameterid>
                                    <value>100</value>
                                    <valuemin>25</valuemin>
                                    <valuemax>400</valuemax>
                                </parameter>
                                <parameter>
                                    <name>Center</name>
                                    <parameterid>center</parameterid>
                                    <value>
                                        <horiz>0</horiz>
                                        <vert>0</vert>
                                    </value>
                                </parameter>
                                <parameter>
                                    <name>Rotation</name>
                                    <parameterid>rotation</parameterid>
                                    <value>0</value>
                                    <valuemin>-100000</valuemin>
                                    <valuemax>100000</valuemax>
                                </parameter>
                                <parameter>
                                    <name>Anchor Point</name>
                                    <parameterid>centerOffset</parameterid>
                                    <value>
                                        <horiz>0</horiz>
                                        <vert>0</vert>
                                    </value>
                                </parameter>
                            </effect>
                        </filter>
                        <filter>
                            <enabled>true</enabled>
                            <start>0</start>
                            <end>115210</end>
                            <effect>
                                <name>Crop</name>
                                <effectid>crop</effectid>
                                <effecttype>motion</effecttype>
                                <mediatype>video</mediatype>
                                <effectcategory>motion</effectcategory>
                                <parameter>
                                    <name>left</name>
                                    <parameterid>left</parameterid>
                                    <value>0</value>
                                    <valuemin>0</valuemin>
                                    <valuemax>100</valuemax>
                                </parameter>
                                <parameter>
                                    <name>right</name>
                                    <parameterid>right</parameterid>
                                    <value>0</value>
                                    <valuemin>0</valuemin>
                                    <valuemax>100</valuemax>
                                </parameter>
                                <parameter>
                                    <name>top</name>
                                    <parameterid>top</parameterid>
                                    <value>0</value>
                                    <valuemin>0</valuemin>
                                    <valuemax>100</valuemax>
                                </parameter>
                                <parameter>
                                    <name>bottom</name>
                                    <parameterid>bottom</parameterid>
                                    <value>0</value>
                                    <valuemin>0</valuemin>
                                    <valuemax>100</valuemax>
                                </parameter>
                            </effect>
                        </filter>
                    </clipitem>
                    <clipitem id="Samstag Morgen Multi 119">
                        <name>Samstag Morgen Multi</name>
                        <duration>115210</duration>
                        <rate>
                            <timebase>25</timebase>
                            <ntsc>false</ntsc>
                        </rate>
                        <start>54715</start>
                        <end>55034</end>
                        <enabled>true</enabled>
                        <in>54715</in>
                        <out>55034</out>
                        <file id="Samstag Morgen Multi 2"/>
                        <compositemode>normal</compositemode>
                        <filter>
                            <enabled>true</enabled>
                            <start>0</start>
                            <end>115210</end>
                            <effect>
                                <name>Opacity</name>
                                <effectid>opacity</effectid>
                                <effecttype>motion</effecttype>
                                <mediatype>video</mediatype>
                                <effectcategory>motion</effectcategory>
                                <parameter>
                                    <name>opacity</name>
                                    <parameterid>opacity</parameterid>
                                    <value>100</value>
                                    <valuemin>0</valuemin>
                                    <valuemax>100</valuemax>
                                </parameter>
                            </effect>
                        </filter>
                        <filter>
                            <enabled>true</enabled>
                            <start>0</start>
                            <end>115210</end>
                            <effect>
                                <name>Basic Motion</name>
                                <effectid>basic</effectid>
                                <effecttype>motion</effecttype>
                                <mediatype>video</mediatype>
                                <effectcategory>motion</effectcategory>
                                <parameter>
                                    <name>Scale</name>
                                    <parameterid>scale</parameterid>
                                    <value>200</value>
                                    <valuemin>25</valuemin>
                                    <valuemax>400</valuemax>
                                </parameter>
                                <parameter>
                                    <name>Center</name>
                                    <parameterid>center</parameterid>
                                    <value>
                                        <horiz>0</horiz>
                                        <vert>-0.194444417953491</vert>
                                    </value>
                                </parameter>
                                <parameter>
                                    <name>Rotation</name>
                                    <parameterid>rotation</parameterid>
                                    <value>0</value>
                                    <valuemin>-100000</valuemin>
                                    <valuemax>100000</valuemax>
                                </parameter>
                                <parameter>
                                    <name>Anchor Point</name>
                                    <parameterid>centerOffset</parameterid>
                                    <value>
                                        <horiz>0</horiz>
                                        <vert>0</vert>
                                    </value>
                                </parameter>
                            </effect>
                        </filter>
                        <filter>
                            <enabled>true</enabled>
                            <start>0</start>
                            <end>115210</end>
                            <effect>
                                <name>Crop</name>
                                <effectid>crop</effectid>
                                <effecttype>motion</effecttype>
                                <mediatype>video</mediatype>
                                <effectcategory>motion</effectcategory>
                                <parameter>
                                    <name>left</name>
                                    <parameterid>left</parameterid>
                                    <value>0</value>
                                    <valuemin>0</valuemin>
                                    <valuemax>100</valuemax>
                                </parameter>
                                <parameter>
                                    <name>right</name>
                                    <parameterid>right</parameterid>
                                    <value>0</value>
                                    <valuemin>0</valuemin>
                                    <valuemax>100</valuemax>
                                </parameter>
                                <parameter>
                                    <name>top</name>
                                    <parameterid>top</parameterid>
                                    <value>0</value>
                                    <valuemin>0</valuemin>
                                    <valuemax>100</valuemax>
                                </parameter>
                                <parameter>
                                    <name>bottom</name>
                                    <parameterid>bottom</parameterid>
                                    <value>0</value>
                                    <valuemin>0</valuemin>
                                    <valuemax>100</valuemax>
                                </parameter>
                            </effect>
                        </filter>
                    </clipitem>
                    <clipitem id="Samstag Morgen Multi 121">
                        <name>Samstag Morgen Multi</name>
                        <duration>115210</duration>
                        <rate>
                            <timebase>25</timebase>
                            <ntsc>false</ntsc>
                        </rate>
                        <start>55034</start>
                        <end>55100</end>
                        <enabled>true</enabled>
                        <in>55034</in>
                        <out>55100</out>
                        <file id="Samstag Morgen Multi 2"/>
                        <compositemode>normal</compositemode>
                        <filter>
                            <enabled>true</enabled>
                            <start>0</start>
                            <end>115210</end>
                            <effect>
                                <name>Opacity</name>
                                <effectid>opacity</effectid>
                                <effecttype>motion</effecttype>
                                <mediatype>video</mediatype>
                                <effectcategory>motion</effectcategory>
                                <parameter>
                                    <name>opacity</name>
                                    <parameterid>opacity</parameterid>
                                    <value>100</value>
                                    <valuemin>0</valuemin>
                                    <valuemax>100</valuemax>
                                </parameter>
                            </effect>
                        </filter>
                        <filter>
                            <enabled>true</enabled>
                            <start>0</start>
                            <end>115210</end>
                            <effect>
                                <name>Basic Motion</name>
                                <effectid>basic</effectid>
                                <effecttype>motion</effecttype>
                                <mediatype>video</mediatype>
                                <effectcategory>motion</effectcategory>
                                <parameter>
                                    <name>Scale</name>
                                    <parameterid>scale</parameterid>
                                    <value>100</value>
                                    <valuemin>25</valuemin>
                                    <valuemax>400</valuemax>
                                </parameter>
                                <parameter>
                                    <name>Center</name>
                                    <parameterid>center</parameterid>
                                    <value>
                                        <horiz>0</horiz>
                                        <vert>0</vert>
                                    </value>
                                </parameter>
                                <parameter>
                                    <name>Rotation</name>
                                    <parameterid>rotation</parameterid>
                                    <value>0</value>
                                    <valuemin>-100000</valuemin>
                                    <valuemax>100000</valuemax>
                                </parameter>
                                <parameter>
                                    <name>Anchor Point</name>
                                    <parameterid>centerOffset</parameterid>
                                    <value>
                                        <horiz>0</horiz>
                                        <vert>0</vert>
                                    </value>
                                </parameter>
                            </effect>
                        </filter>
                        <filter>
                            <enabled>true</enabled>
                            <start>0</start>
                            <end>115210</end>
                            <effect>
                                <name>Crop</name>
                                <effectid>crop</effectid>
                                <effecttype>motion</effecttype>
                                <mediatype>video</mediatype>
                                <effectcategory>motion</effectcategory>
                                <parameter>
                                    <name>left</name>
                                    <parameterid>left</parameterid>
                                    <value>0</value>
                                    <valuemin>0</valuemin>
                                    <valuemax>100</valuemax>
                                </parameter>
                                <parameter>
                                    <name>right</name>
                                    <parameterid>right</parameterid>
                                    <value>0</value>
                                    <valuemin>0</valuemin>
                                    <valuemax>100</valuemax>
                                </parameter>
                                <parameter>
                                    <name>top</name>
                                    <parameterid>top</parameterid>
                                    <value>0</value>
                                    <valuemin>0</valuemin>
                                    <valuemax>100</valuemax>
                                </parameter>
                                <parameter>
                                    <name>bottom</name>
                                    <parameterid>bottom</parameterid>
                                    <value>0</value>
                                    <valuemin>0</valuemin>
                                    <valuemax>100</valuemax>
                                </parameter>
                            </effect>
                        </filter>
                    </clipitem>
                    <clipitem id="Samstag Morgen Multi 123">
                        <name>Samstag Morgen Multi</name>
                        <duration>115210</duration>
                        <rate>
                            <timebase>25</timebase>
                            <ntsc>false</ntsc>
                        </rate>
                        <start>55100</start>
                        <end>55312</end>
                        <enabled>true</enabled>
                        <in>55100</in>
                        <out>55312</out>
                        <file id="Samstag Morgen Multi 2"/>
                        <compositemode>normal</compositemode>
                        <filter>
                            <enabled>true</enabled>
                            <start>0</start>
                            <end>115210</end>
                            <effect>
                                <name>Opacity</name>
                                <effectid>opacity</effectid>
                                <effecttype>motion</effecttype>
                                <mediatype>video</mediatype>
                                <effectcategory>motion</effectcategory>
                                <parameter>
                                    <name>opacity</name>
                                    <parameterid>opacity</parameterid>
                                    <value>100</value>
                                    <valuemin>0</valuemin>
                                    <valuemax>100</valuemax>
                                </parameter>
                            </effect>
                        </filter>
                        <filter>
                            <enabled>true</enabled>
                            <start>0</start>
                            <end>115210</end>
                            <effect>
                                <name>Basic Motion</name>
                                <effectid>basic</effectid>
                                <effecttype>motion</effecttype>
                                <mediatype>video</mediatype>
                                <effectcategory>motion</effectcategory>
                                <parameter>
                                    <name>Scale</name>
                                    <parameterid>scale</parameterid>
                                    <value>200</value>
                                    <valuemin>25</valuemin>
                                    <valuemax>400</valuemax>
                                </parameter>
                                <parameter>
                                    <name>Center</name>
                                    <parameterid>center</parameterid>
                                    <value>
                                        <horiz>0.109895817935467</horiz>
                                        <vert>-0.169444426894188</vert>
                                    </value>
                                </parameter>
                                <parameter>
                                    <name>Rotation</name>
                                    <parameterid>rotation</parameterid>
                                    <value>0</value>
                                    <valuemin>-100000</valuemin>
                                    <valuemax>100000</valuemax>
                                </parameter>
                                <parameter>
                                    <name>Anchor Point</name>
                                    <parameterid>centerOffset</parameterid>
                                    <value>
                                        <horiz>0</horiz>
                                        <vert>0</vert>
                                    </value>
                                </parameter>
                            </effect>
                        </filter>
                        <filter>
                            <enabled>true</enabled>
                            <start>0</start>
                            <end>115210</end>
                            <effect>
                                <name>Crop</name>
                                <effectid>crop</effectid>
                                <effecttype>motion</effecttype>
                                <mediatype>video</mediatype>
                                <effectcategory>motion</effectcategory>
                                <parameter>
                                    <name>left</name>
                                    <parameterid>left</parameterid>
                                    <value>0</value>
                                    <valuemin>0</valuemin>
                                    <valuemax>100</valuemax>
                                </parameter>
                                <parameter>
                                    <name>right</name>
                                    <parameterid>right</parameterid>
                                    <value>0</value>
                                    <valuemin>0</valuemin>
                                    <valuemax>100</valuemax>
                                </parameter>
                                <parameter>
                                    <name>top</name>
                                    <parameterid>top</parameterid>
                                    <value>0</value>
                                    <valuemin>0</valuemin>
                                    <valuemax>100</valuemax>
                                </parameter>
                                <parameter>
                                    <name>bottom</name>
                                    <parameterid>bottom</parameterid>
                                    <value>0</value>
                                    <valuemin>0</valuemin>
                                    <valuemax>100</valuemax>
                                </parameter>
                            </effect>
                        </filter>
                    </clipitem>
                    <clipitem id="Samstag Morgen Multi 125">
                        <name>Samstag Morgen Multi</name>
                        <duration>115210</duration>
                        <rate>
                            <timebase>25</timebase>
                            <ntsc>false</ntsc>
                        </rate>
                        <start>55312</start>
                        <end>55689</end>
                        <enabled>true</enabled>
                        <in>55312</in>
                        <out>55689</out>
                        <file id="Samstag Morgen Multi 2"/>
                        <compositemode>normal</compositemode>
                        <filter>
                            <enabled>true</enabled>
                            <start>0</start>
                            <end>115210</end>
                            <effect>
                                <name>Opacity</name>
                                <effectid>opacity</effectid>
                                <effecttype>motion</effecttype>
                                <mediatype>video</mediatype>
                                <effectcategory>motion</effectcategory>
                                <parameter>
                                    <name>opacity</name>
                                    <parameterid>opacity</parameterid>
                                    <value>100</value>
                                    <valuemin>0</valuemin>
                                    <valuemax>100</valuemax>
                                </parameter>
                            </effect>
                        </filter>
                        <filter>
                            <enabled>true</enabled>
                            <start>0</start>
                            <end>115210</end>
                            <effect>
                                <name>Basic Motion</name>
                                <effectid>basic</effectid>
                                <effecttype>motion</effecttype>
                                <mediatype>video</mediatype>
                                <effectcategory>motion</effectcategory>
                                <parameter>
                                    <name>Scale</name>
                                    <parameterid>scale</parameterid>
                                    <value>100</value>
                                    <valuemin>25</valuemin>
                                    <valuemax>400</valuemax>
                                </parameter>
                                <parameter>
                                    <name>Center</name>
                                    <parameterid>center</parameterid>
                                    <value>
                                        <horiz>0</horiz>
                                        <vert>0</vert>
                                    </value>
                                </parameter>
                                <parameter>
                                    <name>Rotation</name>
                                    <parameterid>rotation</parameterid>
                                    <value>0</value>
                                    <valuemin>-100000</valuemin>
                                    <valuemax>100000</valuemax>
                                </parameter>
                                <parameter>
                                    <name>Anchor Point</name>
                                    <parameterid>centerOffset</parameterid>
                                    <value>
                                        <horiz>0</horiz>
                                        <vert>0</vert>
                                    </value>
                                </parameter>
                            </effect>
                        </filter>
                        <filter>
                            <enabled>true</enabled>
                            <start>0</start>
                            <end>115210</end>
                            <effect>
                                <name>Crop</name>
                                <effectid>crop</effectid>
                                <effecttype>motion</effecttype>
                                <mediatype>video</mediatype>
                                <effectcategory>motion</effectcategory>
                                <parameter>
                                    <name>left</name>
                                    <parameterid>left</parameterid>
                                    <value>0</value>
                                    <valuemin>0</valuemin>
                                    <valuemax>100</valuemax>
                                </parameter>
                                <parameter>
                                    <name>right</name>
                                    <parameterid>right</parameterid>
                                    <value>0</value>
                                    <valuemin>0</valuemin>
                                    <valuemax>100</valuemax>
                                </parameter>
                                <parameter>
                                    <name>top</name>
                                    <parameterid>top</parameterid>
                                    <value>0</value>
                                    <valuemin>0</valuemin>
                                    <valuemax>100</valuemax>
                                </parameter>
                                <parameter>
                                    <name>bottom</name>
                                    <parameterid>bottom</parameterid>
                                    <value>0</value>
                                    <valuemin>0</valuemin>
                                    <valuemax>100</valuemax>
                                </parameter>
                            </effect>
                        </filter>
                    </clipitem>
                    <clipitem id="Samstag Morgen Multi 127">
                        <name>Samstag Morgen Multi</name>
                        <duration>115210</duration>
                        <rate>
                            <timebase>25</timebase>
                            <ntsc>false</ntsc>
                        </rate>
                        <start>55689</start>
                        <end>55811</end>
                        <enabled>true</enabled>
                        <in>55689</in>
                        <out>55811</out>
                        <file id="Samstag Morgen Multi 2"/>
                        <compositemode>normal</compositemode>
                        <filter>
                            <enabled>true</enabled>
                            <start>0</start>
                            <end>115210</end>
                            <effect>
                                <name>Opacity</name>
                                <effectid>opacity</effectid>
                                <effecttype>motion</effecttype>
                                <mediatype>video</mediatype>
                                <effectcategory>motion</effectcategory>
                                <parameter>
                                    <name>opacity</name>
                                    <parameterid>opacity</parameterid>
                                    <value>100</value>
                                    <valuemin>0</valuemin>
                                    <valuemax>100</valuemax>
                                </parameter>
                            </effect>
                        </filter>
                        <filter>
                            <enabled>true</enabled>
                            <start>0</start>
                            <end>115210</end>
                            <effect>
                                <name>Basic Motion</name>
                                <effectid>basic</effectid>
                                <effecttype>motion</effecttype>
                                <mediatype>video</mediatype>
                                <effectcategory>motion</effectcategory>
                                <parameter>
                                    <name>Scale</name>
                                    <parameterid>scale</parameterid>
                                    <value>200</value>
                                    <valuemin>25</valuemin>
                                    <valuemax>400</valuemax>
                                </parameter>
                                <parameter>
                                    <name>Center</name>
                                    <parameterid>center</parameterid>
                                    <value>
                                        <horiz>0.146354168653488</horiz>
                                        <vert>-0.186111092567444</vert>
                                    </value>
                                </parameter>
                                <parameter>
                                    <name>Rotation</name>
                                    <parameterid>rotation</parameterid>
                                    <value>0</value>
                                    <valuemin>-100000</valuemin>
                                    <valuemax>100000</valuemax>
                                </parameter>
                                <parameter>
                                    <name>Anchor Point</name>
                                    <parameterid>centerOffset</parameterid>
                                    <value>
                                        <horiz>0</horiz>
                                        <vert>0</vert>
                                    </value>
                                </parameter>
                            </effect>
                        </filter>
                        <filter>
                            <enabled>true</enabled>
                            <start>0</start>
                            <end>115210</end>
                            <effect>
                                <name>Crop</name>
                                <effectid>crop</effectid>
                                <effecttype>motion</effecttype>
                                <mediatype>video</mediatype>
                                <effectcategory>motion</effectcategory>
                                <parameter>
                                    <name>left</name>
                                    <parameterid>left</parameterid>
                                    <value>0</value>
                                    <valuemin>0</valuemin>
                                    <valuemax>100</valuemax>
                                </parameter>
                                <parameter>
                                    <name>right</name>
                                    <parameterid>right</parameterid>
                                    <value>0</value>
                                    <valuemin>0</valuemin>
                                    <valuemax>100</valuemax>
                                </parameter>
                                <parameter>
                                    <name>top</name>
                                    <parameterid>top</parameterid>
                                    <value>0</value>
                                    <valuemin>0</valuemin>
                                    <valuemax>100</valuemax>
                                </parameter>
                                <parameter>
                                    <name>bottom</name>
                                    <parameterid>bottom</parameterid>
                                    <value>0</value>
                                    <valuemin>0</valuemin>
                                    <valuemax>100</valuemax>
                                </parameter>
                            </effect>
                        </filter>
                    </clipitem>
                    <clipitem id="Samstag Morgen Multi 129">
                        <name>Samstag Morgen Multi</name>
                        <duration>115210</duration>
                        <rate>
                            <timebase>25</timebase>
                            <ntsc>false</ntsc>
                        </rate>
                        <start>55811</start>
                        <end>55975</end>
                        <enabled>true</enabled>
                        <in>55811</in>
                        <out>55975</out>
                        <file id="Samstag Morgen Multi 2"/>
                        <compositemode>normal</compositemode>
                        <filter>
                            <enabled>true</enabled>
                            <start>0</start>
                            <end>115210</end>
                            <effect>
                                <name>Opacity</name>
                                <effectid>opacity</effectid>
                                <effecttype>motion</effecttype>
                                <mediatype>video</mediatype>
                                <effectcategory>motion</effectcategory>
                                <parameter>
                                    <name>opacity</name>
                                    <parameterid>opacity</parameterid>
                                    <value>100</value>
                                    <valuemin>0</valuemin>
                                    <valuemax>100</valuemax>
                                </parameter>
                            </effect>
                        </filter>
                        <filter>
                            <enabled>true</enabled>
                            <start>0</start>
                            <end>115210</end>
                            <effect>
                                <name>Basic Motion</name>
                                <effectid>basic</effectid>
                                <effecttype>motion</effecttype>
                                <mediatype>video</mediatype>
                                <effectcategory>motion</effectcategory>
                                <parameter>
                                    <name>Scale</name>
                                    <parameterid>scale</parameterid>
                                    <value>100</value>
                                    <valuemin>25</valuemin>
                                    <valuemax>400</valuemax>
                                </parameter>
                                <parameter>
                                    <name>Center</name>
                                    <parameterid>center</parameterid>
                                    <value>
                                        <horiz>0</horiz>
                                        <vert>0</vert>
                                    </value>
                                </parameter>
                                <parameter>
                                    <name>Rotation</name>
                                    <parameterid>rotation</parameterid>
                                    <value>0</value>
                                    <valuemin>-100000</valuemin>
                                    <valuemax>100000</valuemax>
                                </parameter>
                                <parameter>
                                    <name>Anchor Point</name>
                                    <parameterid>centerOffset</parameterid>
                                    <value>
                                        <horiz>0</horiz>
                                        <vert>0</vert>
                                    </value>
                                </parameter>
                            </effect>
                        </filter>
                        <filter>
                            <enabled>true</enabled>
                            <start>0</start>
                            <end>115210</end>
                            <effect>
                                <name>Crop</name>
                                <effectid>crop</effectid>
                                <effecttype>motion</effecttype>
                                <mediatype>video</mediatype>
                                <effectcategory>motion</effectcategory>
                                <parameter>
                                    <name>left</name>
                                    <parameterid>left</parameterid>
                                    <value>0</value>
                                    <valuemin>0</valuemin>
                                    <valuemax>100</valuemax>
                                </parameter>
                                <parameter>
                                    <name>right</name>
                                    <parameterid>right</parameterid>
                                    <value>0</value>
                                    <valuemin>0</valuemin>
                                    <valuemax>100</valuemax>
                                </parameter>
                                <parameter>
                                    <name>top</name>
                                    <parameterid>top</parameterid>
                                    <value>0</value>
                                    <valuemin>0</valuemin>
                                    <valuemax>100</valuemax>
                                </parameter>
                                <parameter>
                                    <name>bottom</name>
                                    <parameterid>bottom</parameterid>
                                    <value>0</value>
                                    <valuemin>0</valuemin>
                                    <valuemax>100</valuemax>
                                </parameter>
                            </effect>
                        </filter>
                    </clipitem>
                    <clipitem id="Samstag Morgen Multi 131">
                        <name>Samstag Morgen Multi</name>
                        <duration>115210</duration>
                        <rate>
                            <timebase>25</timebase>
                            <ntsc>false</ntsc>
                        </rate>
                        <start>55975</start>
                        <end>56365</end>
                        <enabled>true</enabled>
                        <in>55975</in>
                        <out>56365</out>
                        <file id="Samstag Morgen Multi 2"/>
                        <compositemode>normal</compositemode>
                        <filter>
                            <enabled>true</enabled>
                            <start>0</start>
                            <end>115210</end>
                            <effect>
                                <name>Opacity</name>
                                <effectid>opacity</effectid>
                                <effecttype>motion</effecttype>
                                <mediatype>video</mediatype>
                                <effectcategory>motion</effectcategory>
                                <parameter>
                                    <name>opacity</name>
                                    <parameterid>opacity</parameterid>
                                    <value>100</value>
                                    <valuemin>0</valuemin>
                                    <valuemax>100</valuemax>
                                </parameter>
                            </effect>
                        </filter>
                        <filter>
                            <enabled>true</enabled>
                            <start>0</start>
                            <end>115210</end>
                            <effect>
                                <name>Basic Motion</name>
                                <effectid>basic</effectid>
                                <effecttype>motion</effecttype>
                                <mediatype>video</mediatype>
                                <effectcategory>motion</effectcategory>
                                <parameter>
                                    <name>Scale</name>
                                    <parameterid>scale</parameterid>
                                    <value>200</value>
                                    <valuemin>25</valuemin>
                                    <valuemax>400</valuemax>
                                </parameter>
                                <parameter>
                                    <name>Center</name>
                                    <parameterid>center</parameterid>
                                    <value>
                                        <horiz>0.205729231238365</horiz>
                                        <vert>-0.17314812541008</vert>
                                    </value>
                                </parameter>
                                <parameter>
                                    <name>Rotation</name>
                                    <parameterid>rotation</parameterid>
                                    <value>0</value>
                                    <valuemin>-100000</valuemin>
                                    <valuemax>100000</valuemax>
                                </parameter>
                                <parameter>
                                    <name>Anchor Point</name>
                                    <parameterid>centerOffset</parameterid>
                                    <value>
                                        <horiz>0</horiz>
                                        <vert>0</vert>
                                    </value>
                                </parameter>
                            </effect>
                        </filter>
                        <filter>
                            <enabled>true</enabled>
                            <start>0</start>
                            <end>115210</end>
                            <effect>
                                <name>Crop</name>
                                <effectid>crop</effectid>
                                <effecttype>motion</effecttype>
                                <mediatype>video</mediatype>
                                <effectcategory>motion</effectcategory>
                                <parameter>
                                    <name>left</name>
                                    <parameterid>left</parameterid>
                                    <value>0</value>
                                    <valuemin>0</valuemin>
                                    <valuemax>100</valuemax>
                                </parameter>
                                <parameter>
                                    <name>right</name>
                                    <parameterid>right</parameterid>
                                    <value>0</value>
                                    <valuemin>0</valuemin>
                                    <valuemax>100</valuemax>
                                </parameter>
                                <parameter>
                                    <name>top</name>
                                    <parameterid>top</parameterid>
                                    <value>0</value>
                                    <valuemin>0</valuemin>
                                    <valuemax>100</valuemax>
                                </parameter>
                                <parameter>
                                    <name>bottom</name>
                                    <parameterid>bottom</parameterid>
                                    <value>0</value>
                                    <valuemin>0</valuemin>
                                    <valuemax>100</valuemax>
                                </parameter>
                            </effect>
                        </filter>
                    </clipitem>
                    <clipitem id="Samstag Morgen Multi 133">
                        <name>Samstag Morgen Multi</name>
                        <duration>115210</duration>
                        <rate>
                            <timebase>25</timebase>
                            <ntsc>false</ntsc>
                        </rate>
                        <start>56365</start>
                        <end>56536</end>
                        <enabled>true</enabled>
                        <in>56365</in>
                        <out>56536</out>
                        <file id="Samstag Morgen Multi 2"/>
                        <compositemode>normal</compositemode>
                        <filter>
                            <enabled>true</enabled>
                            <start>0</start>
                            <end>115210</end>
                            <effect>
                                <name>Opacity</name>
                                <effectid>opacity</effectid>
                                <effecttype>motion</effecttype>
                                <mediatype>video</mediatype>
                                <effectcategory>motion</effectcategory>
                                <parameter>
                                    <name>opacity</name>
                                    <parameterid>opacity</parameterid>
                                    <value>100</value>
                                    <valuemin>0</valuemin>
                                    <valuemax>100</valuemax>
                                </parameter>
                            </effect>
                        </filter>
                        <filter>
                            <enabled>true</enabled>
                            <start>0</start>
                            <end>115210</end>
                            <effect>
                                <name>Basic Motion</name>
                                <effectid>basic</effectid>
                                <effecttype>motion</effecttype>
                                <mediatype>video</mediatype>
                                <effectcategory>motion</effectcategory>
                                <parameter>
                                    <name>Scale</name>
                                    <parameterid>scale</parameterid>
                                    <value>100</value>
                                    <valuemin>25</valuemin>
                                    <valuemax>400</valuemax>
                                </parameter>
                                <parameter>
                                    <name>Center</name>
                                    <parameterid>center</parameterid>
                                    <value>
                                        <horiz>0</horiz>
                                        <vert>0</vert>
                                    </value>
                                </parameter>
                                <parameter>
                                    <name>Rotation</name>
                                    <parameterid>rotation</parameterid>
                                    <value>0</value>
                                    <valuemin>-100000</valuemin>
                                    <valuemax>100000</valuemax>
                                </parameter>
                                <parameter>
                                    <name>Anchor Point</name>
                                    <parameterid>centerOffset</parameterid>
                                    <value>
                                        <horiz>0</horiz>
                                        <vert>0</vert>
                                    </value>
                                </parameter>
                            </effect>
                        </filter>
                        <filter>
                            <enabled>true</enabled>
                            <start>0</start>
                            <end>115210</end>
                            <effect>
                                <name>Crop</name>
                                <effectid>crop</effectid>
                                <effecttype>motion</effecttype>
                                <mediatype>video</mediatype>
                                <effectcategory>motion</effectcategory>
                                <parameter>
                                    <name>left</name>
                                    <parameterid>left</parameterid>
                                    <value>0</value>
                                    <valuemin>0</valuemin>
                                    <valuemax>100</valuemax>
                                </parameter>
                                <parameter>
                                    <name>right</name>
                                    <parameterid>right</parameterid>
                                    <value>0</value>
                                    <valuemin>0</valuemin>
                                    <valuemax>100</valuemax>
                                </parameter>
                                <parameter>
                                    <name>top</name>
                                    <parameterid>top</parameterid>
                                    <value>0</value>
                                    <valuemin>0</valuemin>
                                    <valuemax>100</valuemax>
                                </parameter>
                                <parameter>
                                    <name>bottom</name>
                                    <parameterid>bottom</parameterid>
                                    <value>0</value>
                                    <valuemin>0</valuemin>
                                    <valuemax>100</valuemax>
                                </parameter>
                            </effect>
                        </filter>
                    </clipitem>
                    <clipitem id="Samstag Morgen Multi 135">
                        <name>Samstag Morgen Multi</name>
                        <duration>115210</duration>
                        <rate>
                            <timebase>25</timebase>
                            <ntsc>false</ntsc>
                        </rate>
                        <start>56536</start>
                        <end>56660</end>
                        <enabled>true</enabled>
                        <in>56536</in>
                        <out>56660</out>
                        <file id="Samstag Morgen Multi 2"/>
                        <compositemode>normal</compositemode>
                        <filter>
                            <enabled>true</enabled>
                            <start>0</start>
                            <end>115210</end>
                            <effect>
                                <name>Opacity</name>
                                <effectid>opacity</effectid>
                                <effecttype>motion</effecttype>
                                <mediatype>video</mediatype>
                                <effectcategory>motion</effectcategory>
                                <parameter>
                                    <name>opacity</name>
                                    <parameterid>opacity</parameterid>
                                    <value>100</value>
                                    <valuemin>0</valuemin>
                                    <valuemax>100</valuemax>
                                </parameter>
                            </effect>
                        </filter>
                        <filter>
                            <enabled>true</enabled>
                            <start>0</start>
                            <end>115210</end>
                            <effect>
                                <name>Basic Motion</name>
                                <effectid>basic</effectid>
                                <effecttype>motion</effecttype>
                                <mediatype>video</mediatype>
                                <effectcategory>motion</effectcategory>
                                <parameter>
                                    <name>Scale</name>
                                    <parameterid>scale</parameterid>
                                    <value>200</value>
                                    <valuemin>25</valuemin>
                                    <valuemax>400</valuemax>
                                </parameter>
                                <parameter>
                                    <name>Center</name>
                                    <parameterid>center</parameterid>
                                    <value>
                                        <horiz>0.308854192495346</horiz>
                                        <vert>-0.124074161052704</vert>
                                    </value>
                                </parameter>
                                <parameter>
                                    <name>Rotation</name>
                                    <parameterid>rotation</parameterid>
                                    <value>0</value>
                                    <valuemin>-100000</valuemin>
                                    <valuemax>100000</valuemax>
                                </parameter>
                                <parameter>
                                    <name>Anchor Point</name>
                                    <parameterid>centerOffset</parameterid>
                                    <value>
                                        <horiz>0</horiz>
                                        <vert>0</vert>
                                    </value>
                                </parameter>
                            </effect>
                        </filter>
                        <filter>
                            <enabled>true</enabled>
                            <start>0</start>
                            <end>115210</end>
                            <effect>
                                <name>Crop</name>
                                <effectid>crop</effectid>
                                <effecttype>motion</effecttype>
                                <mediatype>video</mediatype>
                                <effectcategory>motion</effectcategory>
                                <parameter>
                                    <name>left</name>
                                    <parameterid>left</parameterid>
                                    <value>0</value>
                                    <valuemin>0</valuemin>
                                    <valuemax>100</valuemax>
                                </parameter>
                                <parameter>
                                    <name>right</name>
                                    <parameterid>right</parameterid>
                                    <value>0</value>
                                    <valuemin>0</valuemin>
                                    <valuemax>100</valuemax>
                                </parameter>
                                <parameter>
                                    <name>top</name>
                                    <parameterid>top</parameterid>
                                    <value>0</value>
                                    <valuemin>0</valuemin>
                                    <valuemax>100</valuemax>
                                </parameter>
                                <parameter>
                                    <name>bottom</name>
                                    <parameterid>bottom</parameterid>
                                    <value>0</value>
                                    <valuemin>0</valuemin>
                                    <valuemax>100</valuemax>
                                </parameter>
                            </effect>
                        </filter>
                    </clipitem>
                    <clipitem id="Samstag Morgen Multi 137">
                        <name>Samstag Morgen Multi</name>
                        <duration>115210</duration>
                        <rate>
                            <timebase>25</timebase>
                            <ntsc>false</ntsc>
                        </rate>
                        <start>56660</start>
                        <end>56805</end>
                        <enabled>true</enabled>
                        <in>56660</in>
                        <out>56805</out>
                        <file id="Samstag Morgen Multi 2"/>
                        <compositemode>normal</compositemode>
                        <filter>
                            <enabled>true</enabled>
                            <start>0</start>
                            <end>115210</end>
                            <effect>
                                <name>Opacity</name>
                                <effectid>opacity</effectid>
                                <effecttype>motion</effecttype>
                                <mediatype>video</mediatype>
                                <effectcategory>motion</effectcategory>
                                <parameter>
                                    <name>opacity</name>
                                    <parameterid>opacity</parameterid>
                                    <value>100</value>
                                    <valuemin>0</valuemin>
                                    <valuemax>100</valuemax>
                                </parameter>
                            </effect>
                        </filter>
                        <filter>
                            <enabled>true</enabled>
                            <start>0</start>
                            <end>115210</end>
                            <effect>
                                <name>Basic Motion</name>
                                <effectid>basic</effectid>
                                <effecttype>motion</effecttype>
                                <mediatype>video</mediatype>
                                <effectcategory>motion</effectcategory>
                                <parameter>
                                    <name>Scale</name>
                                    <parameterid>scale</parameterid>
                                    <value>100</value>
                                    <valuemin>25</valuemin>
                                    <valuemax>400</valuemax>
                                </parameter>
                                <parameter>
                                    <name>Center</name>
                                    <parameterid>center</parameterid>
                                    <value>
                                        <horiz>0</horiz>
                                        <vert>0</vert>
                                    </value>
                                </parameter>
                                <parameter>
                                    <name>Rotation</name>
                                    <parameterid>rotation</parameterid>
                                    <value>0</value>
                                    <valuemin>-100000</valuemin>
                                    <valuemax>100000</valuemax>
                                </parameter>
                                <parameter>
                                    <name>Anchor Point</name>
                                    <parameterid>centerOffset</parameterid>
                                    <value>
                                        <horiz>0</horiz>
                                        <vert>0</vert>
                                    </value>
                                </parameter>
                            </effect>
                        </filter>
                        <filter>
                            <enabled>true</enabled>
                            <start>0</start>
                            <end>115210</end>
                            <effect>
                                <name>Crop</name>
                                <effectid>crop</effectid>
                                <effecttype>motion</effecttype>
                                <mediatype>video</mediatype>
                                <effectcategory>motion</effectcategory>
                                <parameter>
                                    <name>left</name>
                                    <parameterid>left</parameterid>
                                    <value>0</value>
                                    <valuemin>0</valuemin>
                                    <valuemax>100</valuemax>
                                </parameter>
                                <parameter>
                                    <name>right</name>
                                    <parameterid>right</parameterid>
                                    <value>0</value>
                                    <valuemin>0</valuemin>
                                    <valuemax>100</valuemax>
                                </parameter>
                                <parameter>
                                    <name>top</name>
                                    <parameterid>top</parameterid>
                                    <value>0</value>
                                    <valuemin>0</valuemin>
                                    <valuemax>100</valuemax>
                                </parameter>
                                <parameter>
                                    <name>bottom</name>
                                    <parameterid>bottom</parameterid>
                                    <value>0</value>
                                    <valuemin>0</valuemin>
                                    <valuemax>100</valuemax>
                                </parameter>
                            </effect>
                        </filter>
                    </clipitem>
                    <clipitem id="Samstag Morgen Multi 139">
                        <name>Samstag Morgen Multi</name>
                        <duration>115210</duration>
                        <rate>
                            <timebase>25</timebase>
                            <ntsc>false</ntsc>
                        </rate>
                        <start>56805</start>
                        <end>57102</end>
                        <enabled>true</enabled>
                        <in>56805</in>
                        <out>57102</out>
                        <file id="Samstag Morgen Multi 2"/>
                        <compositemode>normal</compositemode>
                        <filter>
                            <enabled>true</enabled>
                            <start>0</start>
                            <end>115210</end>
                            <effect>
                                <name>Opacity</name>
                                <effectid>opacity</effectid>
                                <effecttype>motion</effecttype>
                                <mediatype>video</mediatype>
                                <effectcategory>motion</effectcategory>
                                <parameter>
                                    <name>opacity</name>
                                    <parameterid>opacity</parameterid>
                                    <value>100</value>
                                    <valuemin>0</valuemin>
                                    <valuemax>100</valuemax>
                                </parameter>
                            </effect>
                        </filter>
                        <filter>
                            <enabled>true</enabled>
                            <start>0</start>
                            <end>115210</end>
                            <effect>
                                <name>Basic Motion</name>
                                <effectid>basic</effectid>
                                <effecttype>motion</effecttype>
                                <mediatype>video</mediatype>
                                <effectcategory>motion</effectcategory>
                                <parameter>
                                    <name>Scale</name>
                                    <parameterid>scale</parameterid>
                                    <value>200</value>
                                    <valuemin>25</valuemin>
                                    <valuemax>400</valuemax>
                                </parameter>
                                <parameter>
                                    <name>Center</name>
                                    <parameterid>center</parameterid>
                                    <value>
                                        <horiz>0.355208247900009</horiz>
                                        <vert>-0.124074161052704</vert>
                                    </value>
                                </parameter>
                                <parameter>
                                    <name>Rotation</name>
                                    <parameterid>rotation</parameterid>
                                    <value>0</value>
                                    <valuemin>-100000</valuemin>
                                    <valuemax>100000</valuemax>
                                </parameter>
                                <parameter>
                                    <name>Anchor Point</name>
                                    <parameterid>centerOffset</parameterid>
                                    <value>
                                        <horiz>0</horiz>
                                        <vert>0</vert>
                                    </value>
                                </parameter>
                            </effect>
                        </filter>
                        <filter>
                            <enabled>true</enabled>
                            <start>0</start>
                            <end>115210</end>
                            <effect>
                                <name>Crop</name>
                                <effectid>crop</effectid>
                                <effecttype>motion</effecttype>
                                <mediatype>video</mediatype>
                                <effectcategory>motion</effectcategory>
                                <parameter>
                                    <name>left</name>
                                    <parameterid>left</parameterid>
                                    <value>0</value>
                                    <valuemin>0</valuemin>
                                    <valuemax>100</valuemax>
                                </parameter>
                                <parameter>
                                    <name>right</name>
                                    <parameterid>right</parameterid>
                                    <value>0</value>
                                    <valuemin>0</valuemin>
                                    <valuemax>100</valuemax>
                                </parameter>
                                <parameter>
                                    <name>top</name>
                                    <parameterid>top</parameterid>
                                    <value>0</value>
                                    <valuemin>0</valuemin>
                                    <valuemax>100</valuemax>
                                </parameter>
                                <parameter>
                                    <name>bottom</name>
                                    <parameterid>bottom</parameterid>
                                    <value>0</value>
                                    <valuemin>0</valuemin>
                                    <valuemax>100</valuemax>
                                </parameter>
                            </effect>
                        </filter>
                    </clipitem>
                    <clipitem id="Samstag Morgen Multi 141">
                        <name>Samstag Morgen Multi</name>
                        <duration>115210</duration>
                        <rate>
                            <timebase>25</timebase>
                            <ntsc>false</ntsc>
                        </rate>
                        <start>57102</start>
                        <end>57590</end>
                        <enabled>true</enabled>
                        <in>57102</in>
                        <out>57590</out>
                        <file id="Samstag Morgen Multi 2"/>
                        <compositemode>normal</compositemode>
                        <filter>
                            <enabled>true</enabled>
                            <start>0</start>
                            <end>115210</end>
                            <effect>
                                <name>Opacity</name>
                                <effectid>opacity</effectid>
                                <effecttype>motion</effecttype>
                                <mediatype>video</mediatype>
                                <effectcategory>motion</effectcategory>
                                <parameter>
                                    <name>opacity</name>
                                    <parameterid>opacity</parameterid>
                                    <value>100</value>
                                    <valuemin>0</valuemin>
                                    <valuemax>100</valuemax>
                                </parameter>
                            </effect>
                        </filter>
                        <filter>
                            <enabled>true</enabled>
                            <start>0</start>
                            <end>115210</end>
                            <effect>
                                <name>Basic Motion</name>
                                <effectid>basic</effectid>
                                <effecttype>motion</effecttype>
                                <mediatype>video</mediatype>
                                <effectcategory>motion</effectcategory>
                                <parameter>
                                    <name>Scale</name>
                                    <parameterid>scale</parameterid>
                                    <value>100</value>
                                    <valuemin>25</valuemin>
                                    <valuemax>400</valuemax>
                                </parameter>
                                <parameter>
                                    <name>Center</name>
                                    <parameterid>center</parameterid>
                                    <value>
                                        <horiz>0</horiz>
                                        <vert>0</vert>
                                    </value>
                                </parameter>
                                <parameter>
                                    <name>Rotation</name>
                                    <parameterid>rotation</parameterid>
                                    <value>0</value>
                                    <valuemin>-100000</valuemin>
                                    <valuemax>100000</valuemax>
                                </parameter>
                                <parameter>
                                    <name>Anchor Point</name>
                                    <parameterid>centerOffset</parameterid>
                                    <value>
                                        <horiz>0</horiz>
                                        <vert>0</vert>
                                    </value>
                                </parameter>
                            </effect>
                        </filter>
                        <filter>
                            <enabled>true</enabled>
                            <start>0</start>
                            <end>115210</end>
                            <effect>
                                <name>Crop</name>
                                <effectid>crop</effectid>
                                <effecttype>motion</effecttype>
                                <mediatype>video</mediatype>
                                <effectcategory>motion</effectcategory>
                                <parameter>
                                    <name>left</name>
                                    <parameterid>left</parameterid>
                                    <value>0</value>
                                    <valuemin>0</valuemin>
                                    <valuemax>100</valuemax>
                                </parameter>
                                <parameter>
                                    <name>right</name>
                                    <parameterid>right</parameterid>
                                    <value>0</value>
                                    <valuemin>0</valuemin>
                                    <valuemax>100</valuemax>
                                </parameter>
                                <parameter>
                                    <name>top</name>
                                    <parameterid>top</parameterid>
                                    <value>0</value>
                                    <valuemin>0</valuemin>
                                    <valuemax>100</valuemax>
                                </parameter>
                                <parameter>
                                    <name>bottom</name>
                                    <parameterid>bottom</parameterid>
                                    <value>0</value>
                                    <valuemin>0</valuemin>
                                    <valuemax>100</valuemax>
                                </parameter>
                            </effect>
                        </filter>
                    </clipitem>
                    <clipitem id="Samstag Morgen Multi 143">
                        <name>Samstag Morgen Multi</name>
                        <duration>115210</duration>
                        <rate>
                            <timebase>25</timebase>
                            <ntsc>false</ntsc>
                        </rate>
                        <start>57590</start>
                        <end>57783</end>
                        <enabled>true</enabled>
                        <in>57590</in>
                        <out>57783</out>
                        <file id="Samstag Morgen Multi 2"/>
                        <compositemode>normal</compositemode>
                        <filter>
                            <enabled>true</enabled>
                            <start>0</start>
                            <end>115210</end>
                            <effect>
                                <name>Opacity</name>
                                <effectid>opacity</effectid>
                                <effecttype>motion</effecttype>
                                <mediatype>video</mediatype>
                                <effectcategory>motion</effectcategory>
                                <parameter>
                                    <name>opacity</name>
                                    <parameterid>opacity</parameterid>
                                    <value>100</value>
                                    <valuemin>0</valuemin>
                                    <valuemax>100</valuemax>
                                </parameter>
                            </effect>
                        </filter>
                        <filter>
                            <enabled>true</enabled>
                            <start>0</start>
                            <end>115210</end>
                            <effect>
                                <name>Basic Motion</name>
                                <effectid>basic</effectid>
                                <effecttype>motion</effecttype>
                                <mediatype>video</mediatype>
                                <effectcategory>motion</effectcategory>
                                <parameter>
                                    <name>Scale</name>
                                    <parameterid>scale</parameterid>
                                    <value>200</value>
                                    <valuemin>25</valuemin>
                                    <valuemax>400</valuemax>
                                </parameter>
                                <parameter>
                                    <name>Center</name>
                                    <parameterid>center</parameterid>
                                    <value>
                                        <horiz>0.324479192495346</horiz>
                                        <vert>-0.124074161052704</vert>
                                    </value>
                                </parameter>
                                <parameter>
                                    <name>Rotation</name>
                                    <parameterid>rotation</parameterid>
                                    <value>0</value>
                                    <valuemin>-100000</valuemin>
                                    <valuemax>100000</valuemax>
                                </parameter>
                                <parameter>
                                    <name>Anchor Point</name>
                                    <parameterid>centerOffset</parameterid>
                                    <value>
                                        <horiz>0</horiz>
                                        <vert>0</vert>
                                    </value>
                                </parameter>
                            </effect>
                        </filter>
                        <filter>
                            <enabled>true</enabled>
                            <start>0</start>
                            <end>115210</end>
                            <effect>
                                <name>Crop</name>
                                <effectid>crop</effectid>
                                <effecttype>motion</effecttype>
                                <mediatype>video</mediatype>
                                <effectcategory>motion</effectcategory>
                                <parameter>
                                    <name>left</name>
                                    <parameterid>left</parameterid>
                                    <value>0</value>
                                    <valuemin>0</valuemin>
                                    <valuemax>100</valuemax>
                                </parameter>
                                <parameter>
                                    <name>right</name>
                                    <parameterid>right</parameterid>
                                    <value>0</value>
                                    <valuemin>0</valuemin>
                                    <valuemax>100</valuemax>
                                </parameter>
                                <parameter>
                                    <name>top</name>
                                    <parameterid>top</parameterid>
                                    <value>0</value>
                                    <valuemin>0</valuemin>
                                    <valuemax>100</valuemax>
                                </parameter>
                                <parameter>
                                    <name>bottom</name>
                                    <parameterid>bottom</parameterid>
                                    <value>0</value>
                                    <valuemin>0</valuemin>
                                    <valuemax>100</valuemax>
                                </parameter>
                            </effect>
                        </filter>
                    </clipitem>
                    <clipitem id="Samstag Morgen Multi 145">
                        <name>Samstag Morgen Multi</name>
                        <duration>115210</duration>
                        <rate>
                            <timebase>25</timebase>
                            <ntsc>false</ntsc>
                        </rate>
                        <start>57783</start>
                        <end>57829</end>
                        <enabled>true</enabled>
                        <in>57783</in>
                        <out>57829</out>
                        <file id="Samstag Morgen Multi 2"/>
                        <compositemode>normal</compositemode>
                        <filter>
                            <enabled>true</enabled>
                            <start>0</start>
                            <end>115210</end>
                            <effect>
                                <name>Opacity</name>
                                <effectid>opacity</effectid>
                                <effecttype>motion</effecttype>
                                <mediatype>video</mediatype>
                                <effectcategory>motion</effectcategory>
                                <parameter>
                                    <name>opacity</name>
                                    <parameterid>opacity</parameterid>
                                    <value>100</value>
                                    <valuemin>0</valuemin>
                                    <valuemax>100</valuemax>
                                </parameter>
                            </effect>
                        </filter>
                        <filter>
                            <enabled>true</enabled>
                            <start>0</start>
                            <end>115210</end>
                            <effect>
                                <name>Basic Motion</name>
                                <effectid>basic</effectid>
                                <effecttype>motion</effecttype>
                                <mediatype>video</mediatype>
                                <effectcategory>motion</effectcategory>
                                <parameter>
                                    <name>Scale</name>
                                    <parameterid>scale</parameterid>
                                    <value>100</value>
                                    <valuemin>25</valuemin>
                                    <valuemax>400</valuemax>
                                </parameter>
                                <parameter>
                                    <name>Center</name>
                                    <parameterid>center</parameterid>
                                    <value>
                                        <horiz>0</horiz>
                                        <vert>0</vert>
                                    </value>
                                </parameter>
                                <parameter>
                                    <name>Rotation</name>
                                    <parameterid>rotation</parameterid>
                                    <value>0</value>
                                    <valuemin>-100000</valuemin>
                                    <valuemax>100000</valuemax>
                                </parameter>
                                <parameter>
                                    <name>Anchor Point</name>
                                    <parameterid>centerOffset</parameterid>
                                    <value>
                                        <horiz>0</horiz>
                                        <vert>0</vert>
                                    </value>
                                </parameter>
                            </effect>
                        </filter>
                        <filter>
                            <enabled>true</enabled>
                            <start>0</start>
                            <end>115210</end>
                            <effect>
                                <name>Crop</name>
                                <effectid>crop</effectid>
                                <effecttype>motion</effecttype>
                                <mediatype>video</mediatype>
                                <effectcategory>motion</effectcategory>
                                <parameter>
                                    <name>left</name>
                                    <parameterid>left</parameterid>
                                    <value>0</value>
                                    <valuemin>0</valuemin>
                                    <valuemax>100</valuemax>
                                </parameter>
                                <parameter>
                                    <name>right</name>
                                    <parameterid>right</parameterid>
                                    <value>0</value>
                                    <valuemin>0</valuemin>
                                    <valuemax>100</valuemax>
                                </parameter>
                                <parameter>
                                    <name>top</name>
                                    <parameterid>top</parameterid>
                                    <value>0</value>
                                    <valuemin>0</valuemin>
                                    <valuemax>100</valuemax>
                                </parameter>
                                <parameter>
                                    <name>bottom</name>
                                    <parameterid>bottom</parameterid>
                                    <value>0</value>
                                    <valuemin>0</valuemin>
                                    <valuemax>100</valuemax>
                                </parameter>
                            </effect>
                        </filter>
                    </clipitem>
                    <clipitem id="Samstag Morgen Multi 147">
                        <name>Samstag Morgen Multi</name>
                        <duration>115210</duration>
                        <rate>
                            <timebase>25</timebase>
                            <ntsc>false</ntsc>
                        </rate>
                        <start>57829</start>
                        <end>58441</end>
                        <enabled>true</enabled>
                        <in>57829</in>
                        <out>58441</out>
                        <file id="Samstag Morgen Multi 2"/>
                        <compositemode>normal</compositemode>
                        <filter>
                            <enabled>true</enabled>
                            <start>0</start>
                            <end>115210</end>
                            <effect>
                                <name>Opacity</name>
                                <effectid>opacity</effectid>
                                <effecttype>motion</effecttype>
                                <mediatype>video</mediatype>
                                <effectcategory>motion</effectcategory>
                                <parameter>
                                    <name>opacity</name>
                                    <parameterid>opacity</parameterid>
                                    <value>100</value>
                                    <valuemin>0</valuemin>
                                    <valuemax>100</valuemax>
                                </parameter>
                            </effect>
                        </filter>
                        <filter>
                            <enabled>true</enabled>
                            <start>0</start>
                            <end>115210</end>
                            <effect>
                                <name>Basic Motion</name>
                                <effectid>basic</effectid>
                                <effecttype>motion</effecttype>
                                <mediatype>video</mediatype>
                                <effectcategory>motion</effectcategory>
                                <parameter>
                                    <name>Scale</name>
                                    <parameterid>scale</parameterid>
                                    <value>200</value>
                                    <valuemin>25</valuemin>
                                    <valuemax>400</valuemax>
                                </parameter>
                                <parameter>
                                    <name>Center</name>
                                    <parameterid>center</parameterid>
                                    <value>
                                        <horiz>0.364583283662796</horiz>
                                        <vert>-0.124074161052704</vert>
                                    </value>
                                </parameter>
                                <parameter>
                                    <name>Rotation</name>
                                    <parameterid>rotation</parameterid>
                                    <value>0</value>
                                    <valuemin>-100000</valuemin>
                                    <valuemax>100000</valuemax>
                                </parameter>
                                <parameter>
                                    <name>Anchor Point</name>
                                    <parameterid>centerOffset</parameterid>
                                    <value>
                                        <horiz>0</horiz>
                                        <vert>0</vert>
                                    </value>
                                </parameter>
                            </effect>
                        </filter>
                        <filter>
                            <enabled>true</enabled>
                            <start>0</start>
                            <end>115210</end>
                            <effect>
                                <name>Crop</name>
                                <effectid>crop</effectid>
                                <effecttype>motion</effecttype>
                                <mediatype>video</mediatype>
                                <effectcategory>motion</effectcategory>
                                <parameter>
                                    <name>left</name>
                                    <parameterid>left</parameterid>
                                    <value>0</value>
                                    <valuemin>0</valuemin>
                                    <valuemax>100</valuemax>
                                </parameter>
                                <parameter>
                                    <name>right</name>
                                    <parameterid>right</parameterid>
                                    <value>0</value>
                                    <valuemin>0</valuemin>
                                    <valuemax>100</valuemax>
                                </parameter>
                                <parameter>
                                    <name>top</name>
                                    <parameterid>top</parameterid>
                                    <value>0</value>
                                    <valuemin>0</valuemin>
                                    <valuemax>100</valuemax>
                                </parameter>
                                <parameter>
                                    <name>bottom</name>
                                    <parameterid>bottom</parameterid>
                                    <value>0</value>
                                    <valuemin>0</valuemin>
                                    <valuemax>100</valuemax>
                                </parameter>
                            </effect>
                        </filter>
                    </clipitem>
                    <clipitem id="Samstag Morgen Multi 149">
                        <name>Samstag Morgen Multi</name>
                        <duration>115210</duration>
                        <rate>
                            <timebase>25</timebase>
                            <ntsc>false</ntsc>
                        </rate>
                        <start>58441</start>
                        <end>58518</end>
                        <enabled>true</enabled>
                        <in>58441</in>
                        <out>58518</out>
                        <file id="Samstag Morgen Multi 2"/>
                        <compositemode>normal</compositemode>
                        <filter>
                            <enabled>true</enabled>
                            <start>0</start>
                            <end>115210</end>
                            <effect>
                                <name>Opacity</name>
                                <effectid>opacity</effectid>
                                <effecttype>motion</effecttype>
                                <mediatype>video</mediatype>
                                <effectcategory>motion</effectcategory>
                                <parameter>
                                    <name>opacity</name>
                                    <parameterid>opacity</parameterid>
                                    <value>100</value>
                                    <valuemin>0</valuemin>
                                    <valuemax>100</valuemax>
                                </parameter>
                            </effect>
                        </filter>
                        <filter>
                            <enabled>true</enabled>
                            <start>0</start>
                            <end>115210</end>
                            <effect>
                                <name>Basic Motion</name>
                                <effectid>basic</effectid>
                                <effecttype>motion</effecttype>
                                <mediatype>video</mediatype>
                                <effectcategory>motion</effectcategory>
                                <parameter>
                                    <name>Scale</name>
                                    <parameterid>scale</parameterid>
                                    <value>100</value>
                                    <valuemin>25</valuemin>
                                    <valuemax>400</valuemax>
                                </parameter>
                                <parameter>
                                    <name>Center</name>
                                    <parameterid>center</parameterid>
                                    <value>
                                        <horiz>0</horiz>
                                        <vert>0</vert>
                                    </value>
                                </parameter>
                                <parameter>
                                    <name>Rotation</name>
                                    <parameterid>rotation</parameterid>
                                    <value>0</value>
                                    <valuemin>-100000</valuemin>
                                    <valuemax>100000</valuemax>
                                </parameter>
                                <parameter>
                                    <name>Anchor Point</name>
                                    <parameterid>centerOffset</parameterid>
                                    <value>
                                        <horiz>0</horiz>
                                        <vert>0</vert>
                                    </value>
                                </parameter>
                            </effect>
                        </filter>
                        <filter>
                            <enabled>true</enabled>
                            <start>0</start>
                            <end>115210</end>
                            <effect>
                                <name>Crop</name>
                                <effectid>crop</effectid>
                                <effecttype>motion</effecttype>
                                <mediatype>video</mediatype>
                                <effectcategory>motion</effectcategory>
                                <parameter>
                                    <name>left</name>
                                    <parameterid>left</parameterid>
                                    <value>0</value>
                                    <valuemin>0</valuemin>
                                    <valuemax>100</valuemax>
                                </parameter>
                                <parameter>
                                    <name>right</name>
                                    <parameterid>right</parameterid>
                                    <value>0</value>
                                    <valuemin>0</valuemin>
                                    <valuemax>100</valuemax>
                                </parameter>
                                <parameter>
                                    <name>top</name>
                                    <parameterid>top</parameterid>
                                    <value>0</value>
                                    <valuemin>0</valuemin>
                                    <valuemax>100</valuemax>
                                </parameter>
                                <parameter>
                                    <name>bottom</name>
                                    <parameterid>bottom</parameterid>
                                    <value>0</value>
                                    <valuemin>0</valuemin>
                                    <valuemax>100</valuemax>
                                </parameter>
                            </effect>
                        </filter>
                    </clipitem>
                    <clipitem id="Samstag Morgen Multi 151">
                        <name>Samstag Morgen Multi</name>
                        <duration>115210</duration>
                        <rate>
                            <timebase>25</timebase>
                            <ntsc>false</ntsc>
                        </rate>
                        <start>58518</start>
                        <end>58908</end>
                        <enabled>true</enabled>
                        <in>58518</in>
                        <out>58908</out>
                        <file id="Samstag Morgen Multi 2"/>
                        <compositemode>normal</compositemode>
                        <filter>
                            <enabled>true</enabled>
                            <start>0</start>
                            <end>115210</end>
                            <effect>
                                <name>Opacity</name>
                                <effectid>opacity</effectid>
                                <effecttype>motion</effecttype>
                                <mediatype>video</mediatype>
                                <effectcategory>motion</effectcategory>
                                <parameter>
                                    <name>opacity</name>
                                    <parameterid>opacity</parameterid>
                                    <value>100</value>
                                    <valuemin>0</valuemin>
                                    <valuemax>100</valuemax>
                                </parameter>
                            </effect>
                        </filter>
                        <filter>
                            <enabled>true</enabled>
                            <start>0</start>
                            <end>115210</end>
                            <effect>
                                <name>Basic Motion</name>
                                <effectid>basic</effectid>
                                <effecttype>motion</effecttype>
                                <mediatype>video</mediatype>
                                <effectcategory>motion</effectcategory>
                                <parameter>
                                    <name>Scale</name>
                                    <parameterid>scale</parameterid>
                                    <value>200</value>
                                    <valuemin>25</valuemin>
                                    <valuemax>400</valuemax>
                                </parameter>
                                <parameter>
                                    <name>Center</name>
                                    <parameterid>center</parameterid>
                                    <value>
                                        <horiz>0.352083265781403</horiz>
                                        <vert>-0.124074161052704</vert>
                                    </value>
                                </parameter>
                                <parameter>
                                    <name>Rotation</name>
                                    <parameterid>rotation</parameterid>
                                    <value>0</value>
                                    <valuemin>-100000</valuemin>
                                    <valuemax>100000</valuemax>
                                </parameter>
                                <parameter>
                                    <name>Anchor Point</name>
                                    <parameterid>centerOffset</parameterid>
                                    <value>
                                        <horiz>0</horiz>
                                        <vert>0</vert>
                                    </value>
                                </parameter>
                            </effect>
                        </filter>
                        <filter>
                            <enabled>true</enabled>
                            <start>0</start>
                            <end>115210</end>
                            <effect>
                                <name>Crop</name>
                                <effectid>crop</effectid>
                                <effecttype>motion</effecttype>
                                <mediatype>video</mediatype>
                                <effectcategory>motion</effectcategory>
                                <parameter>
                                    <name>left</name>
                                    <parameterid>left</parameterid>
                                    <value>0</value>
                                    <valuemin>0</valuemin>
                                    <valuemax>100</valuemax>
                                </parameter>
                                <parameter>
                                    <name>right</name>
                                    <parameterid>right</parameterid>
                                    <value>0</value>
                                    <valuemin>0</valuemin>
                                    <valuemax>100</valuemax>
                                </parameter>
                                <parameter>
                                    <name>top</name>
                                    <parameterid>top</parameterid>
                                    <value>0</value>
                                    <valuemin>0</valuemin>
                                    <valuemax>100</valuemax>
                                </parameter>
                                <parameter>
                                    <name>bottom</name>
                                    <parameterid>bottom</parameterid>
                                    <value>0</value>
                                    <valuemin>0</valuemin>
                                    <valuemax>100</valuemax>
                                </parameter>
                            </effect>
                        </filter>
                    </clipitem>
                    <clipitem id="Samstag Morgen Multi 153">
                        <name>Samstag Morgen Multi</name>
                        <duration>115210</duration>
                        <rate>
                            <timebase>25</timebase>
                            <ntsc>false</ntsc>
                        </rate>
                        <start>58908</start>
                        <end>59509</end>
                        <enabled>true</enabled>
                        <in>58908</in>
                        <out>59509</out>
                        <file id="Samstag Morgen Multi 2"/>
                        <compositemode>normal</compositemode>
                        <filter>
                            <enabled>true</enabled>
                            <start>0</start>
                            <end>115210</end>
                            <effect>
                                <name>Opacity</name>
                                <effectid>opacity</effectid>
                                <effecttype>motion</effecttype>
                                <mediatype>video</mediatype>
                                <effectcategory>motion</effectcategory>
                                <parameter>
                                    <name>opacity</name>
                                    <parameterid>opacity</parameterid>
                                    <value>100</value>
                                    <valuemin>0</valuemin>
                                    <valuemax>100</valuemax>
                                </parameter>
                            </effect>
                        </filter>
                        <filter>
                            <enabled>true</enabled>
                            <start>0</start>
                            <end>115210</end>
                            <effect>
                                <name>Basic Motion</name>
                                <effectid>basic</effectid>
                                <effecttype>motion</effecttype>
                                <mediatype>video</mediatype>
                                <effectcategory>motion</effectcategory>
                                <parameter>
                                    <name>Scale</name>
                                    <parameterid>scale</parameterid>
                                    <value>100</value>
                                    <valuemin>25</valuemin>
                                    <valuemax>400</valuemax>
                                </parameter>
                                <parameter>
                                    <name>Center</name>
                                    <parameterid>center</parameterid>
                                    <value>
                                        <horiz>0</horiz>
                                        <vert>0</vert>
                                    </value>
                                </parameter>
                                <parameter>
                                    <name>Rotation</name>
                                    <parameterid>rotation</parameterid>
                                    <value>0</value>
                                    <valuemin>-100000</valuemin>
                                    <valuemax>100000</valuemax>
                                </parameter>
                                <parameter>
                                    <name>Anchor Point</name>
                                    <parameterid>centerOffset</parameterid>
                                    <value>
                                        <horiz>0</horiz>
                                        <vert>0</vert>
                                    </value>
                                </parameter>
                            </effect>
                        </filter>
                        <filter>
                            <enabled>true</enabled>
                            <start>0</start>
                            <end>115210</end>
                            <effect>
                                <name>Crop</name>
                                <effectid>crop</effectid>
                                <effecttype>motion</effecttype>
                                <mediatype>video</mediatype>
                                <effectcategory>motion</effectcategory>
                                <parameter>
                                    <name>left</name>
                                    <parameterid>left</parameterid>
                                    <value>0</value>
                                    <valuemin>0</valuemin>
                                    <valuemax>100</valuemax>
                                </parameter>
                                <parameter>
                                    <name>right</name>
                                    <parameterid>right</parameterid>
                                    <value>0</value>
                                    <valuemin>0</valuemin>
                                    <valuemax>100</valuemax>
                                </parameter>
                                <parameter>
                                    <name>top</name>
                                    <parameterid>top</parameterid>
                                    <value>0</value>
                                    <valuemin>0</valuemin>
                                    <valuemax>100</valuemax>
                                </parameter>
                                <parameter>
                                    <name>bottom</name>
                                    <parameterid>bottom</parameterid>
                                    <value>0</value>
                                    <valuemin>0</valuemin>
                                    <valuemax>100</valuemax>
                                </parameter>
                            </effect>
                        </filter>
                    </clipitem>
                    <clipitem id="Samstag Morgen Multi 155">
                        <name>Samstag Morgen Multi</name>
                        <duration>115210</duration>
                        <rate>
                            <timebase>25</timebase>
                            <ntsc>false</ntsc>
                        </rate>
                        <start>59509</start>
                        <end>59718</end>
                        <enabled>true</enabled>
                        <in>59509</in>
                        <out>59718</out>
                        <file id="Samstag Morgen Multi 2"/>
                        <compositemode>normal</compositemode>
                        <filter>
                            <enabled>true</enabled>
                            <start>0</start>
                            <end>115210</end>
                            <effect>
                                <name>Opacity</name>
                                <effectid>opacity</effectid>
                                <effecttype>motion</effecttype>
                                <mediatype>video</mediatype>
                                <effectcategory>motion</effectcategory>
                                <parameter>
                                    <name>opacity</name>
                                    <parameterid>opacity</parameterid>
                                    <value>100</value>
                                    <valuemin>0</valuemin>
                                    <valuemax>100</valuemax>
                                </parameter>
                            </effect>
                        </filter>
                        <filter>
                            <enabled>true</enabled>
                            <start>0</start>
                            <end>115210</end>
                            <effect>
                                <name>Basic Motion</name>
                                <effectid>basic</effectid>
                                <effecttype>motion</effecttype>
                                <mediatype>video</mediatype>
                                <effectcategory>motion</effectcategory>
                                <parameter>
                                    <name>Scale</name>
                                    <parameterid>scale</parameterid>
                                    <value>200</value>
                                    <valuemin>25</valuemin>
                                    <valuemax>400</valuemax>
                                </parameter>
                                <parameter>
                                    <name>Center</name>
                                    <parameterid>center</parameterid>
                                    <value>
                                        <horiz>0.399479269981384</horiz>
                                        <vert>-0.124074161052704</vert>
                                    </value>
                                </parameter>
                                <parameter>
                                    <name>Rotation</name>
                                    <parameterid>rotation</parameterid>
                                    <value>0</value>
                                    <valuemin>-100000</valuemin>
                                    <valuemax>100000</valuemax>
                                </parameter>
                                <parameter>
                                    <name>Anchor Point</name>
                                    <parameterid>centerOffset</parameterid>
                                    <value>
                                        <horiz>0</horiz>
                                        <vert>0</vert>
                                    </value>
                                </parameter>
                            </effect>
                        </filter>
                        <filter>
                            <enabled>true</enabled>
                            <start>0</start>
                            <end>115210</end>
                            <effect>
                                <name>Crop</name>
                                <effectid>crop</effectid>
                                <effecttype>motion</effecttype>
                                <mediatype>video</mediatype>
                                <effectcategory>motion</effectcategory>
                                <parameter>
                                    <name>left</name>
                                    <parameterid>left</parameterid>
                                    <value>0</value>
                                    <valuemin>0</valuemin>
                                    <valuemax>100</valuemax>
                                </parameter>
                                <parameter>
                                    <name>right</name>
                                    <parameterid>right</parameterid>
                                    <value>0</value>
                                    <valuemin>0</valuemin>
                                    <valuemax>100</valuemax>
                                </parameter>
                                <parameter>
                                    <name>top</name>
                                    <parameterid>top</parameterid>
                                    <value>0</value>
                                    <valuemin>0</valuemin>
                                    <valuemax>100</valuemax>
                                </parameter>
                                <parameter>
                                    <name>bottom</name>
                                    <parameterid>bottom</parameterid>
                                    <value>0</value>
                                    <valuemin>0</valuemin>
                                    <valuemax>100</valuemax>
                                </parameter>
                            </effect>
                        </filter>
                    </clipitem>
                    <clipitem id="Samstag Morgen Multi 157">
                        <name>Samstag Morgen Multi</name>
                        <duration>115210</duration>
                        <rate>
                            <timebase>25</timebase>
                            <ntsc>false</ntsc>
                        </rate>
                        <start>59718</start>
                        <end>60055</end>
                        <enabled>true</enabled>
                        <in>59718</in>
                        <out>60055</out>
                        <file id="Samstag Morgen Multi 2"/>
                        <compositemode>normal</compositemode>
                        <filter>
                            <enabled>true</enabled>
                            <start>0</start>
                            <end>115210</end>
                            <effect>
                                <name>Opacity</name>
                                <effectid>opacity</effectid>
                                <effecttype>motion</effecttype>
                                <mediatype>video</mediatype>
                                <effectcategory>motion</effectcategory>
                                <parameter>
                                    <name>opacity</name>
                                    <parameterid>opacity</parameterid>
                                    <value>100</value>
                                    <valuemin>0</valuemin>
                                    <valuemax>100</valuemax>
                                </parameter>
                            </effect>
                        </filter>
                        <filter>
                            <enabled>true</enabled>
                            <start>0</start>
                            <end>115210</end>
                            <effect>
                                <name>Basic Motion</name>
                                <effectid>basic</effectid>
                                <effecttype>motion</effecttype>
                                <mediatype>video</mediatype>
                                <effectcategory>motion</effectcategory>
                                <parameter>
                                    <name>Scale</name>
                                    <parameterid>scale</parameterid>
                                    <value>100</value>
                                    <valuemin>25</valuemin>
                                    <valuemax>400</valuemax>
                                </parameter>
                                <parameter>
                                    <name>Center</name>
                                    <parameterid>center</parameterid>
                                    <value>
                                        <horiz>0</horiz>
                                        <vert>0</vert>
                                    </value>
                                </parameter>
                                <parameter>
                                    <name>Rotation</name>
                                    <parameterid>rotation</parameterid>
                                    <value>0</value>
                                    <valuemin>-100000</valuemin>
                                    <valuemax>100000</valuemax>
                                </parameter>
                                <parameter>
                                    <name>Anchor Point</name>
                                    <parameterid>centerOffset</parameterid>
                                    <value>
                                        <horiz>0</horiz>
                                        <vert>0</vert>
                                    </value>
                                </parameter>
                            </effect>
                        </filter>
                        <filter>
                            <enabled>true</enabled>
                            <start>0</start>
                            <end>115210</end>
                            <effect>
                                <name>Crop</name>
                                <effectid>crop</effectid>
                                <effecttype>motion</effecttype>
                                <mediatype>video</mediatype>
                                <effectcategory>motion</effectcategory>
                                <parameter>
                                    <name>left</name>
                                    <parameterid>left</parameterid>
                                    <value>0</value>
                                    <valuemin>0</valuemin>
                                    <valuemax>100</valuemax>
                                </parameter>
                                <parameter>
                                    <name>right</name>
                                    <parameterid>right</parameterid>
                                    <value>0</value>
                                    <valuemin>0</valuemin>
                                    <valuemax>100</valuemax>
                                </parameter>
                                <parameter>
                                    <name>top</name>
                                    <parameterid>top</parameterid>
                                    <value>0</value>
                                    <valuemin>0</valuemin>
                                    <valuemax>100</valuemax>
                                </parameter>
                                <parameter>
                                    <name>bottom</name>
                                    <parameterid>bottom</parameterid>
                                    <value>0</value>
                                    <valuemin>0</valuemin>
                                    <valuemax>100</valuemax>
                                </parameter>
                            </effect>
                        </filter>
                    </clipitem>
                    <clipitem id="Samstag Morgen Multi 159">
                        <name>Samstag Morgen Multi</name>
                        <duration>115210</duration>
                        <rate>
                            <timebase>25</timebase>
                            <ntsc>false</ntsc>
                        </rate>
                        <start>60055</start>
                        <end>60515</end>
                        <enabled>true</enabled>
                        <in>60055</in>
                        <out>60515</out>
                        <file id="Samstag Morgen Multi 2"/>
                        <compositemode>normal</compositemode>
                        <filter>
                            <enabled>true</enabled>
                            <start>0</start>
                            <end>115210</end>
                            <effect>
                                <name>Opacity</name>
                                <effectid>opacity</effectid>
                                <effecttype>motion</effecttype>
                                <mediatype>video</mediatype>
                                <effectcategory>motion</effectcategory>
                                <parameter>
                                    <name>opacity</name>
                                    <parameterid>opacity</parameterid>
                                    <value>100</value>
                                    <valuemin>0</valuemin>
                                    <valuemax>100</valuemax>
                                </parameter>
                            </effect>
                        </filter>
                        <filter>
                            <enabled>true</enabled>
                            <start>0</start>
                            <end>115210</end>
                            <effect>
                                <name>Basic Motion</name>
                                <effectid>basic</effectid>
                                <effecttype>motion</effecttype>
                                <mediatype>video</mediatype>
                                <effectcategory>motion</effectcategory>
                                <parameter>
                                    <name>Scale</name>
                                    <parameterid>scale</parameterid>
                                    <value>200</value>
                                    <valuemin>25</valuemin>
                                    <valuemax>400</valuemax>
                                </parameter>
                                <parameter>
                                    <name>Center</name>
                                    <parameterid>center</parameterid>
                                    <value>
                                        <horiz>0.346354007720947</horiz>
                                        <vert>-0.124074161052704</vert>
                                    </value>
                                </parameter>
                                <parameter>
                                    <name>Rotation</name>
                                    <parameterid>rotation</parameterid>
                                    <value>0</value>
                                    <valuemin>-100000</valuemin>
                                    <valuemax>100000</valuemax>
                                </parameter>
                                <parameter>
                                    <name>Anchor Point</name>
                                    <parameterid>centerOffset</parameterid>
                                    <value>
                                        <horiz>0</horiz>
                                        <vert>0</vert>
                                    </value>
                                </parameter>
                            </effect>
                        </filter>
                        <filter>
                            <enabled>true</enabled>
                            <start>0</start>
                            <end>115210</end>
                            <effect>
                                <name>Crop</name>
                                <effectid>crop</effectid>
                                <effecttype>motion</effecttype>
                                <mediatype>video</mediatype>
                                <effectcategory>motion</effectcategory>
                                <parameter>
                                    <name>left</name>
                                    <parameterid>left</parameterid>
                                    <value>0</value>
                                    <valuemin>0</valuemin>
                                    <valuemax>100</valuemax>
                                </parameter>
                                <parameter>
                                    <name>right</name>
                                    <parameterid>right</parameterid>
                                    <value>0</value>
                                    <valuemin>0</valuemin>
                                    <valuemax>100</valuemax>
                                </parameter>
                                <parameter>
                                    <name>top</name>
                                    <parameterid>top</parameterid>
                                    <value>0</value>
                                    <valuemin>0</valuemin>
                                    <valuemax>100</valuemax>
                                </parameter>
                                <parameter>
                                    <name>bottom</name>
                                    <parameterid>bottom</parameterid>
                                    <value>0</value>
                                    <valuemin>0</valuemin>
                                    <valuemax>100</valuemax>
                                </parameter>
                            </effect>
                        </filter>
                    </clipitem>
                    <clipitem id="Samstag Morgen Multi 161">
                        <name>Samstag Morgen Multi</name>
                        <duration>115210</duration>
                        <rate>
                            <timebase>25</timebase>
                            <ntsc>false</ntsc>
                        </rate>
                        <start>60515</start>
                        <end>60667</end>
                        <enabled>true</enabled>
                        <in>60515</in>
                        <out>60667</out>
                        <file id="Samstag Morgen Multi 2"/>
                        <compositemode>normal</compositemode>
                        <filter>
                            <enabled>true</enabled>
                            <start>0</start>
                            <end>115210</end>
                            <effect>
                                <name>Opacity</name>
                                <effectid>opacity</effectid>
                                <effecttype>motion</effecttype>
                                <mediatype>video</mediatype>
                                <effectcategory>motion</effectcategory>
                                <parameter>
                                    <name>opacity</name>
                                    <parameterid>opacity</parameterid>
                                    <value>100</value>
                                    <valuemin>0</valuemin>
                                    <valuemax>100</valuemax>
                                </parameter>
                            </effect>
                        </filter>
                        <filter>
                            <enabled>true</enabled>
                            <start>0</start>
                            <end>115210</end>
                            <effect>
                                <name>Basic Motion</name>
                                <effectid>basic</effectid>
                                <effecttype>motion</effecttype>
                                <mediatype>video</mediatype>
                                <effectcategory>motion</effectcategory>
                                <parameter>
                                    <name>Scale</name>
                                    <parameterid>scale</parameterid>
                                    <value>100</value>
                                    <valuemin>25</valuemin>
                                    <valuemax>400</valuemax>
                                </parameter>
                                <parameter>
                                    <name>Center</name>
                                    <parameterid>center</parameterid>
                                    <value>
                                        <horiz>0</horiz>
                                        <vert>0</vert>
                                    </value>
                                </parameter>
                                <parameter>
                                    <name>Rotation</name>
                                    <parameterid>rotation</parameterid>
                                    <value>0</value>
                                    <valuemin>-100000</valuemin>
                                    <valuemax>100000</valuemax>
                                </parameter>
                                <parameter>
                                    <name>Anchor Point</name>
                                    <parameterid>centerOffset</parameterid>
                                    <value>
                                        <horiz>0</horiz>
                                        <vert>0</vert>
                                    </value>
                                </parameter>
                            </effect>
                        </filter>
                        <filter>
                            <enabled>true</enabled>
                            <start>0</start>
                            <end>115210</end>
                            <effect>
                                <name>Crop</name>
                                <effectid>crop</effectid>
                                <effecttype>motion</effecttype>
                                <mediatype>video</mediatype>
                                <effectcategory>motion</effectcategory>
                                <parameter>
                                    <name>left</name>
                                    <parameterid>left</parameterid>
                                    <value>0</value>
                                    <valuemin>0</valuemin>
                                    <valuemax>100</valuemax>
                                </parameter>
                                <parameter>
                                    <name>right</name>
                                    <parameterid>right</parameterid>
                                    <value>0</value>
                                    <valuemin>0</valuemin>
                                    <valuemax>100</valuemax>
                                </parameter>
                                <parameter>
                                    <name>top</name>
                                    <parameterid>top</parameterid>
                                    <value>0</value>
                                    <valuemin>0</valuemin>
                                    <valuemax>100</valuemax>
                                </parameter>
                                <parameter>
                                    <name>bottom</name>
                                    <parameterid>bottom</parameterid>
                                    <value>0</value>
                                    <valuemin>0</valuemin>
                                    <valuemax>100</valuemax>
                                </parameter>
                            </effect>
                        </filter>
                    </clipitem>
                    <clipitem id="Samstag Morgen Multi 163">
                        <name>Samstag Morgen Multi</name>
                        <duration>115210</duration>
                        <rate>
                            <timebase>25</timebase>
                            <ntsc>false</ntsc>
                        </rate>
                        <start>60667</start>
                        <end>60880</end>
                        <enabled>true</enabled>
                        <in>60667</in>
                        <out>60880</out>
                        <file id="Samstag Morgen Multi 2"/>
                        <compositemode>normal</compositemode>
                        <filter>
                            <enabled>true</enabled>
                            <start>0</start>
                            <end>115210</end>
                            <effect>
                                <name>Opacity</name>
                                <effectid>opacity</effectid>
                                <effecttype>motion</effecttype>
                                <mediatype>video</mediatype>
                                <effectcategory>motion</effectcategory>
                                <parameter>
                                    <name>opacity</name>
                                    <parameterid>opacity</parameterid>
                                    <value>100</value>
                                    <valuemin>0</valuemin>
                                    <valuemax>100</valuemax>
                                </parameter>
                            </effect>
                        </filter>
                        <filter>
                            <enabled>true</enabled>
                            <start>0</start>
                            <end>115210</end>
                            <effect>
                                <name>Basic Motion</name>
                                <effectid>basic</effectid>
                                <effecttype>motion</effecttype>
                                <mediatype>video</mediatype>
                                <effectcategory>motion</effectcategory>
                                <parameter>
                                    <name>Scale</name>
                                    <parameterid>scale</parameterid>
                                    <value>200</value>
                                    <valuemin>25</valuemin>
                                    <valuemax>400</valuemax>
                                </parameter>
                                <parameter>
                                    <name>Center</name>
                                    <parameterid>center</parameterid>
                                    <value>
                                        <horiz>0.370833396911621</horiz>
                                        <vert>-0.124074161052704</vert>
                                    </value>
                                </parameter>
                                <parameter>
                                    <name>Rotation</name>
                                    <parameterid>rotation</parameterid>
                                    <value>0</value>
                                    <valuemin>-100000</valuemin>
                                    <valuemax>100000</valuemax>
                                </parameter>
                                <parameter>
                                    <name>Anchor Point</name>
                                    <parameterid>centerOffset</parameterid>
                                    <value>
                                        <horiz>0</horiz>
                                        <vert>0</vert>
                                    </value>
                                </parameter>
                            </effect>
                        </filter>
                        <filter>
                            <enabled>true</enabled>
                            <start>0</start>
                            <end>115210</end>
                            <effect>
                                <name>Crop</name>
                                <effectid>crop</effectid>
                                <effecttype>motion</effecttype>
                                <mediatype>video</mediatype>
                                <effectcategory>motion</effectcategory>
                                <parameter>
                                    <name>left</name>
                                    <parameterid>left</parameterid>
                                    <value>0</value>
                                    <valuemin>0</valuemin>
                                    <valuemax>100</valuemax>
                                </parameter>
                                <parameter>
                                    <name>right</name>
                                    <parameterid>right</parameterid>
                                    <value>0</value>
                                    <valuemin>0</valuemin>
                                    <valuemax>100</valuemax>
                                </parameter>
                                <parameter>
                                    <name>top</name>
                                    <parameterid>top</parameterid>
                                    <value>0</value>
                                    <valuemin>0</valuemin>
                                    <valuemax>100</valuemax>
                                </parameter>
                                <parameter>
                                    <name>bottom</name>
                                    <parameterid>bottom</parameterid>
                                    <value>0</value>
                                    <valuemin>0</valuemin>
                                    <valuemax>100</valuemax>
                                </parameter>
                            </effect>
                        </filter>
                    </clipitem>
                    <clipitem id="Samstag Morgen Multi 165">
                        <name>Samstag Morgen Multi</name>
                        <duration>115210</duration>
                        <rate>
                            <timebase>25</timebase>
                            <ntsc>false</ntsc>
                        </rate>
                        <start>60880</start>
                        <end>61056</end>
                        <enabled>true</enabled>
                        <in>60880</in>
                        <out>61056</out>
                        <file id="Samstag Morgen Multi 2"/>
                        <compositemode>normal</compositemode>
                        <filter>
                            <enabled>true</enabled>
                            <start>0</start>
                            <end>115210</end>
                            <effect>
                                <name>Opacity</name>
                                <effectid>opacity</effectid>
                                <effecttype>motion</effecttype>
                                <mediatype>video</mediatype>
                                <effectcategory>motion</effectcategory>
                                <parameter>
                                    <name>opacity</name>
                                    <parameterid>opacity</parameterid>
                                    <value>100</value>
                                    <valuemin>0</valuemin>
                                    <valuemax>100</valuemax>
                                </parameter>
                            </effect>
                        </filter>
                        <filter>
                            <enabled>true</enabled>
                            <start>0</start>
                            <end>115210</end>
                            <effect>
                                <name>Basic Motion</name>
                                <effectid>basic</effectid>
                                <effecttype>motion</effecttype>
                                <mediatype>video</mediatype>
                                <effectcategory>motion</effectcategory>
                                <parameter>
                                    <name>Scale</name>
                                    <parameterid>scale</parameterid>
                                    <value>100</value>
                                    <valuemin>25</valuemin>
                                    <valuemax>400</valuemax>
                                </parameter>
                                <parameter>
                                    <name>Center</name>
                                    <parameterid>center</parameterid>
                                    <value>
                                        <horiz>0</horiz>
                                        <vert>0</vert>
                                    </value>
                                </parameter>
                                <parameter>
                                    <name>Rotation</name>
                                    <parameterid>rotation</parameterid>
                                    <value>0</value>
                                    <valuemin>-100000</valuemin>
                                    <valuemax>100000</valuemax>
                                </parameter>
                                <parameter>
                                    <name>Anchor Point</name>
                                    <parameterid>centerOffset</parameterid>
                                    <value>
                                        <horiz>0</horiz>
                                        <vert>0</vert>
                                    </value>
                                </parameter>
                            </effect>
                        </filter>
                        <filter>
                            <enabled>true</enabled>
                            <start>0</start>
                            <end>115210</end>
                            <effect>
                                <name>Crop</name>
                                <effectid>crop</effectid>
                                <effecttype>motion</effecttype>
                                <mediatype>video</mediatype>
                                <effectcategory>motion</effectcategory>
                                <parameter>
                                    <name>left</name>
                                    <parameterid>left</parameterid>
                                    <value>0</value>
                                    <valuemin>0</valuemin>
                                    <valuemax>100</valuemax>
                                </parameter>
                                <parameter>
                                    <name>right</name>
                                    <parameterid>right</parameterid>
                                    <value>0</value>
                                    <valuemin>0</valuemin>
                                    <valuemax>100</valuemax>
                                </parameter>
                                <parameter>
                                    <name>top</name>
                                    <parameterid>top</parameterid>
                                    <value>0</value>
                                    <valuemin>0</valuemin>
                                    <valuemax>100</valuemax>
                                </parameter>
                                <parameter>
                                    <name>bottom</name>
                                    <parameterid>bottom</parameterid>
                                    <value>0</value>
                                    <valuemin>0</valuemin>
                                    <valuemax>100</valuemax>
                                </parameter>
                            </effect>
                        </filter>
                    </clipitem>
                    <clipitem id="Samstag Morgen Multi 167">
                        <name>Samstag Morgen Multi</name>
                        <duration>115210</duration>
                        <rate>
                            <timebase>25</timebase>
                            <ntsc>false</ntsc>
                        </rate>
                        <start>61056</start>
                        <end>61175</end>
                        <enabled>true</enabled>
                        <in>61056</in>
                        <out>61175</out>
                        <file id="Samstag Morgen Multi 2"/>
                        <compositemode>normal</compositemode>
                        <filter>
                            <enabled>true</enabled>
                            <start>0</start>
                            <end>115210</end>
                            <effect>
                                <name>Opacity</name>
                                <effectid>opacity</effectid>
                                <effecttype>motion</effecttype>
                                <mediatype>video</mediatype>
                                <effectcategory>motion</effectcategory>
                                <parameter>
                                    <name>opacity</name>
                                    <parameterid>opacity</parameterid>
                                    <value>100</value>
                                    <valuemin>0</valuemin>
                                    <valuemax>100</valuemax>
                                </parameter>
                            </effect>
                        </filter>
                        <filter>
                            <enabled>true</enabled>
                            <start>0</start>
                            <end>115210</end>
                            <effect>
                                <name>Basic Motion</name>
                                <effectid>basic</effectid>
                                <effecttype>motion</effecttype>
                                <mediatype>video</mediatype>
                                <effectcategory>motion</effectcategory>
                                <parameter>
                                    <name>Scale</name>
                                    <parameterid>scale</parameterid>
                                    <value>200</value>
                                    <valuemin>25</valuemin>
                                    <valuemax>400</valuemax>
                                </parameter>
                                <parameter>
                                    <name>Center</name>
                                    <parameterid>center</parameterid>
                                    <value>
                                        <horiz>0.370833396911621</horiz>
                                        <vert>-0.124074161052704</vert>
                                    </value>
                                </parameter>
                                <parameter>
                                    <name>Rotation</name>
                                    <parameterid>rotation</parameterid>
                                    <value>0</value>
                                    <valuemin>-100000</valuemin>
                                    <valuemax>100000</valuemax>
                                </parameter>
                                <parameter>
                                    <name>Anchor Point</name>
                                    <parameterid>centerOffset</parameterid>
                                    <value>
                                        <horiz>0</horiz>
                                        <vert>0</vert>
                                    </value>
                                </parameter>
                            </effect>
                        </filter>
                        <filter>
                            <enabled>true</enabled>
                            <start>0</start>
                            <end>115210</end>
                            <effect>
                                <name>Crop</name>
                                <effectid>crop</effectid>
                                <effecttype>motion</effecttype>
                                <mediatype>video</mediatype>
                                <effectcategory>motion</effectcategory>
                                <parameter>
                                    <name>left</name>
                                    <parameterid>left</parameterid>
                                    <value>0</value>
                                    <valuemin>0</valuemin>
                                    <valuemax>100</valuemax>
                                </parameter>
                                <parameter>
                                    <name>right</name>
                                    <parameterid>right</parameterid>
                                    <value>0</value>
                                    <valuemin>0</valuemin>
                                    <valuemax>100</valuemax>
                                </parameter>
                                <parameter>
                                    <name>top</name>
                                    <parameterid>top</parameterid>
                                    <value>0</value>
                                    <valuemin>0</valuemin>
                                    <valuemax>100</valuemax>
                                </parameter>
                                <parameter>
                                    <name>bottom</name>
                                    <parameterid>bottom</parameterid>
                                    <value>0</value>
                                    <valuemin>0</valuemin>
                                    <valuemax>100</valuemax>
                                </parameter>
                            </effect>
                        </filter>
                    </clipitem>
                    <clipitem id="Samstag Morgen Multi 169">
                        <name>Samstag Morgen Multi</name>
                        <duration>115210</duration>
                        <rate>
                            <timebase>25</timebase>
                            <ntsc>false</ntsc>
                        </rate>
                        <start>61175</start>
                        <end>61521</end>
                        <enabled>true</enabled>
                        <in>61175</in>
                        <out>61521</out>
                        <file id="Samstag Morgen Multi 2"/>
                        <compositemode>normal</compositemode>
                        <filter>
                            <enabled>true</enabled>
                            <start>0</start>
                            <end>115210</end>
                            <effect>
                                <name>Opacity</name>
                                <effectid>opacity</effectid>
                                <effecttype>motion</effecttype>
                                <mediatype>video</mediatype>
                                <effectcategory>motion</effectcategory>
                                <parameter>
                                    <name>opacity</name>
                                    <parameterid>opacity</parameterid>
                                    <value>100</value>
                                    <valuemin>0</valuemin>
                                    <valuemax>100</valuemax>
                                </parameter>
                            </effect>
                        </filter>
                        <filter>
                            <enabled>true</enabled>
                            <start>0</start>
                            <end>115210</end>
                            <effect>
                                <name>Basic Motion</name>
                                <effectid>basic</effectid>
                                <effecttype>motion</effecttype>
                                <mediatype>video</mediatype>
                                <effectcategory>motion</effectcategory>
                                <parameter>
                                    <name>Scale</name>
                                    <parameterid>scale</parameterid>
                                    <value>100</value>
                                    <valuemin>25</valuemin>
                                    <valuemax>400</valuemax>
                                </parameter>
                                <parameter>
                                    <name>Center</name>
                                    <parameterid>center</parameterid>
                                    <value>
                                        <horiz>0</horiz>
                                        <vert>0</vert>
                                    </value>
                                </parameter>
                                <parameter>
                                    <name>Rotation</name>
                                    <parameterid>rotation</parameterid>
                                    <value>0</value>
                                    <valuemin>-100000</valuemin>
                                    <valuemax>100000</valuemax>
                                </parameter>
                                <parameter>
                                    <name>Anchor Point</name>
                                    <parameterid>centerOffset</parameterid>
                                    <value>
                                        <horiz>0</horiz>
                                        <vert>0</vert>
                                    </value>
                                </parameter>
                            </effect>
                        </filter>
                        <filter>
                            <enabled>true</enabled>
                            <start>0</start>
                            <end>115210</end>
                            <effect>
                                <name>Crop</name>
                                <effectid>crop</effectid>
                                <effecttype>motion</effecttype>
                                <mediatype>video</mediatype>
                                <effectcategory>motion</effectcategory>
                                <parameter>
                                    <name>left</name>
                                    <parameterid>left</parameterid>
                                    <value>0</value>
                                    <valuemin>0</valuemin>
                                    <valuemax>100</valuemax>
                                </parameter>
                                <parameter>
                                    <name>right</name>
                                    <parameterid>right</parameterid>
                                    <value>0</value>
                                    <valuemin>0</valuemin>
                                    <valuemax>100</valuemax>
                                </parameter>
                                <parameter>
                                    <name>top</name>
                                    <parameterid>top</parameterid>
                                    <value>0</value>
                                    <valuemin>0</valuemin>
                                    <valuemax>100</valuemax>
                                </parameter>
                                <parameter>
                                    <name>bottom</name>
                                    <parameterid>bottom</parameterid>
                                    <value>0</value>
                                    <valuemin>0</valuemin>
                                    <valuemax>100</valuemax>
                                </parameter>
                            </effect>
                        </filter>
                    </clipitem>
                    <clipitem id="Samstag Morgen Multi 171">
                        <name>Samstag Morgen Multi</name>
                        <duration>115210</duration>
                        <rate>
                            <timebase>25</timebase>
                            <ntsc>false</ntsc>
                        </rate>
                        <start>61521</start>
                        <end>61750</end>
                        <enabled>true</enabled>
                        <in>61521</in>
                        <out>61750</out>
                        <file id="Samstag Morgen Multi 2"/>
                        <compositemode>normal</compositemode>
                        <filter>
                            <enabled>true</enabled>
                            <start>0</start>
                            <end>115210</end>
                            <effect>
                                <name>Opacity</name>
                                <effectid>opacity</effectid>
                                <effecttype>motion</effecttype>
                                <mediatype>video</mediatype>
                                <effectcategory>motion</effectcategory>
                                <parameter>
                                    <name>opacity</name>
                                    <parameterid>opacity</parameterid>
                                    <value>100</value>
                                    <valuemin>0</valuemin>
                                    <valuemax>100</valuemax>
                                </parameter>
                            </effect>
                        </filter>
                        <filter>
                            <enabled>true</enabled>
                            <start>0</start>
                            <end>115210</end>
                            <effect>
                                <name>Basic Motion</name>
                                <effectid>basic</effectid>
                                <effecttype>motion</effecttype>
                                <mediatype>video</mediatype>
                                <effectcategory>motion</effectcategory>
                                <parameter>
                                    <name>Scale</name>
                                    <parameterid>scale</parameterid>
                                    <value>200</value>
                                    <valuemin>25</valuemin>
                                    <valuemax>400</valuemax>
                                </parameter>
                                <parameter>
                                    <name>Center</name>
                                    <parameterid>center</parameterid>
                                    <value>
                                        <horiz>0.370833396911621</horiz>
                                        <vert>-0.124074161052704</vert>
                                    </value>
                                </parameter>
                                <parameter>
                                    <name>Rotation</name>
                                    <parameterid>rotation</parameterid>
                                    <value>0</value>
                                    <valuemin>-100000</valuemin>
                                    <valuemax>100000</valuemax>
                                </parameter>
                                <parameter>
                                    <name>Anchor Point</name>
                                    <parameterid>centerOffset</parameterid>
                                    <value>
                                        <horiz>0</horiz>
                                        <vert>0</vert>
                                    </value>
                                </parameter>
                            </effect>
                        </filter>
                        <filter>
                            <enabled>true</enabled>
                            <start>0</start>
                            <end>115210</end>
                            <effect>
                                <name>Crop</name>
                                <effectid>crop</effectid>
                                <effecttype>motion</effecttype>
                                <mediatype>video</mediatype>
                                <effectcategory>motion</effectcategory>
                                <parameter>
                                    <name>left</name>
                                    <parameterid>left</parameterid>
                                    <value>0</value>
                                    <valuemin>0</valuemin>
                                    <valuemax>100</valuemax>
                                </parameter>
                                <parameter>
                                    <name>right</name>
                                    <parameterid>right</parameterid>
                                    <value>0</value>
                                    <valuemin>0</valuemin>
                                    <valuemax>100</valuemax>
                                </parameter>
                                <parameter>
                                    <name>top</name>
                                    <parameterid>top</parameterid>
                                    <value>0</value>
                                    <valuemin>0</valuemin>
                                    <valuemax>100</valuemax>
                                </parameter>
                                <parameter>
                                    <name>bottom</name>
                                    <parameterid>bottom</parameterid>
                                    <value>0</value>
                                    <valuemin>0</valuemin>
                                    <valuemax>100</valuemax>
                                </parameter>
                            </effect>
                        </filter>
                    </clipitem>
                    <clipitem id="Samstag Morgen Multi 173">
                        <name>Samstag Morgen Multi</name>
                        <duration>115210</duration>
                        <rate>
                            <timebase>25</timebase>
                            <ntsc>false</ntsc>
                        </rate>
                        <start>61750</start>
                        <end>61962</end>
                        <enabled>true</enabled>
                        <in>61750</in>
                        <out>61962</out>
                        <file id="Samstag Morgen Multi 2"/>
                        <compositemode>normal</compositemode>
                        <filter>
                            <enabled>true</enabled>
                            <start>0</start>
                            <end>115210</end>
                            <effect>
                                <name>Opacity</name>
                                <effectid>opacity</effectid>
                                <effecttype>motion</effecttype>
                                <mediatype>video</mediatype>
                                <effectcategory>motion</effectcategory>
                                <parameter>
                                    <name>opacity</name>
                                    <parameterid>opacity</parameterid>
                                    <value>100</value>
                                    <valuemin>0</valuemin>
                                    <valuemax>100</valuemax>
                                </parameter>
                            </effect>
                        </filter>
                        <filter>
                            <enabled>true</enabled>
                            <start>0</start>
                            <end>115210</end>
                            <effect>
                                <name>Basic Motion</name>
                                <effectid>basic</effectid>
                                <effecttype>motion</effecttype>
                                <mediatype>video</mediatype>
                                <effectcategory>motion</effectcategory>
                                <parameter>
                                    <name>Scale</name>
                                    <parameterid>scale</parameterid>
                                    <value>100</value>
                                    <valuemin>25</valuemin>
                                    <valuemax>400</valuemax>
                                </parameter>
                                <parameter>
                                    <name>Center</name>
                                    <parameterid>center</parameterid>
                                    <value>
                                        <horiz>0</horiz>
                                        <vert>0</vert>
                                    </value>
                                </parameter>
                                <parameter>
                                    <name>Rotation</name>
                                    <parameterid>rotation</parameterid>
                                    <value>0</value>
                                    <valuemin>-100000</valuemin>
                                    <valuemax>100000</valuemax>
                                </parameter>
                                <parameter>
                                    <name>Anchor Point</name>
                                    <parameterid>centerOffset</parameterid>
                                    <value>
                                        <horiz>0</horiz>
                                        <vert>0</vert>
                                    </value>
                                </parameter>
                            </effect>
                        </filter>
                        <filter>
                            <enabled>true</enabled>
                            <start>0</start>
                            <end>115210</end>
                            <effect>
                                <name>Crop</name>
                                <effectid>crop</effectid>
                                <effecttype>motion</effecttype>
                                <mediatype>video</mediatype>
                                <effectcategory>motion</effectcategory>
                                <parameter>
                                    <name>left</name>
                                    <parameterid>left</parameterid>
                                    <value>0</value>
                                    <valuemin>0</valuemin>
                                    <valuemax>100</valuemax>
                                </parameter>
                                <parameter>
                                    <name>right</name>
                                    <parameterid>right</parameterid>
                                    <value>0</value>
                                    <valuemin>0</valuemin>
                                    <valuemax>100</valuemax>
                                </parameter>
                                <parameter>
                                    <name>top</name>
                                    <parameterid>top</parameterid>
                                    <value>0</value>
                                    <valuemin>0</valuemin>
                                    <valuemax>100</valuemax>
                                </parameter>
                                <parameter>
                                    <name>bottom</name>
                                    <parameterid>bottom</parameterid>
                                    <value>0</value>
                                    <valuemin>0</valuemin>
                                    <valuemax>100</valuemax>
                                </parameter>
                            </effect>
                        </filter>
                    </clipitem>
                    <clipitem id="Samstag Morgen Multi 175">
                        <name>Samstag Morgen Multi</name>
                        <duration>115210</duration>
                        <rate>
                            <timebase>25</timebase>
                            <ntsc>false</ntsc>
                        </rate>
                        <start>61962</start>
                        <end>63305</end>
                        <enabled>true</enabled>
                        <in>61962</in>
                        <out>63305</out>
                        <file id="Samstag Morgen Multi 2"/>
                        <compositemode>normal</compositemode>
                        <filter>
                            <enabled>true</enabled>
                            <start>0</start>
                            <end>115210</end>
                            <effect>
                                <name>Opacity</name>
                                <effectid>opacity</effectid>
                                <effecttype>motion</effecttype>
                                <mediatype>video</mediatype>
                                <effectcategory>motion</effectcategory>
                                <parameter>
                                    <name>opacity</name>
                                    <parameterid>opacity</parameterid>
                                    <value>100</value>
                                    <valuemin>0</valuemin>
                                    <valuemax>100</valuemax>
                                </parameter>
                            </effect>
                        </filter>
                        <filter>
                            <enabled>true</enabled>
                            <start>0</start>
                            <end>115210</end>
                            <effect>
                                <name>Basic Motion</name>
                                <effectid>basic</effectid>
                                <effecttype>motion</effecttype>
                                <mediatype>video</mediatype>
                                <effectcategory>motion</effectcategory>
                                <parameter>
                                    <name>Scale</name>
                                    <parameterid>scale</parameterid>
                                    <value>200</value>
                                    <valuemin>25</valuemin>
                                    <valuemax>400</valuemax>
                                </parameter>
                                <parameter>
                                    <name>Center</name>
                                    <parameterid>center</parameterid>
                                    <value>
                                        <horiz>0.370833396911621</horiz>
                                        <vert>-0.124074161052704</vert>
                                    </value>
                                </parameter>
                                <parameter>
                                    <name>Rotation</name>
                                    <parameterid>rotation</parameterid>
                                    <value>0</value>
                                    <valuemin>-100000</valuemin>
                                    <valuemax>100000</valuemax>
                                </parameter>
                                <parameter>
                                    <name>Anchor Point</name>
                                    <parameterid>centerOffset</parameterid>
                                    <value>
                                        <horiz>0</horiz>
                                        <vert>0</vert>
                                    </value>
                                </parameter>
                            </effect>
                        </filter>
                        <filter>
                            <enabled>true</enabled>
                            <start>0</start>
                            <end>115210</end>
                            <effect>
                                <name>Crop</name>
                                <effectid>crop</effectid>
                                <effecttype>motion</effecttype>
                                <mediatype>video</mediatype>
                                <effectcategory>motion</effectcategory>
                                <parameter>
                                    <name>left</name>
                                    <parameterid>left</parameterid>
                                    <value>0</value>
                                    <valuemin>0</valuemin>
                                    <valuemax>100</valuemax>
                                </parameter>
                                <parameter>
                                    <name>right</name>
                                    <parameterid>right</parameterid>
                                    <value>0</value>
                                    <valuemin>0</valuemin>
                                    <valuemax>100</valuemax>
                                </parameter>
                                <parameter>
                                    <name>top</name>
                                    <parameterid>top</parameterid>
                                    <value>0</value>
                                    <valuemin>0</valuemin>
                                    <valuemax>100</valuemax>
                                </parameter>
                                <parameter>
                                    <name>bottom</name>
                                    <parameterid>bottom</parameterid>
                                    <value>0</value>
                                    <valuemin>0</valuemin>
                                    <valuemax>100</valuemax>
                                </parameter>
                            </effect>
                        </filter>
                    </clipitem>
                    <clipitem id="Samstag Morgen Multi 177">
                        <name>Samstag Morgen Multi</name>
                        <duration>115210</duration>
                        <rate>
                            <timebase>25</timebase>
                            <ntsc>false</ntsc>
                        </rate>
                        <start>63305</start>
                        <end>63495</end>
                        <enabled>true</enabled>
                        <in>63305</in>
                        <out>63495</out>
                        <file id="Samstag Morgen Multi 2"/>
                        <compositemode>normal</compositemode>
                        <filter>
                            <enabled>true</enabled>
                            <start>0</start>
                            <end>115210</end>
                            <effect>
                                <name>Opacity</name>
                                <effectid>opacity</effectid>
                                <effecttype>motion</effecttype>
                                <mediatype>video</mediatype>
                                <effectcategory>motion</effectcategory>
                                <parameter>
                                    <name>opacity</name>
                                    <parameterid>opacity</parameterid>
                                    <value>100</value>
                                    <valuemin>0</valuemin>
                                    <valuemax>100</valuemax>
                                </parameter>
                            </effect>
                        </filter>
                        <filter>
                            <enabled>true</enabled>
                            <start>0</start>
                            <end>115210</end>
                            <effect>
                                <name>Basic Motion</name>
                                <effectid>basic</effectid>
                                <effecttype>motion</effecttype>
                                <mediatype>video</mediatype>
                                <effectcategory>motion</effectcategory>
                                <parameter>
                                    <name>Scale</name>
                                    <parameterid>scale</parameterid>
                                    <value>100</value>
                                    <valuemin>25</valuemin>
                                    <valuemax>400</valuemax>
                                </parameter>
                                <parameter>
                                    <name>Center</name>
                                    <parameterid>center</parameterid>
                                    <value>
                                        <horiz>0</horiz>
                                        <vert>0</vert>
                                    </value>
                                </parameter>
                                <parameter>
                                    <name>Rotation</name>
                                    <parameterid>rotation</parameterid>
                                    <value>0</value>
                                    <valuemin>-100000</valuemin>
                                    <valuemax>100000</valuemax>
                                </parameter>
                                <parameter>
                                    <name>Anchor Point</name>
                                    <parameterid>centerOffset</parameterid>
                                    <value>
                                        <horiz>0</horiz>
                                        <vert>0</vert>
                                    </value>
                                </parameter>
                            </effect>
                        </filter>
                        <filter>
                            <enabled>true</enabled>
                            <start>0</start>
                            <end>115210</end>
                            <effect>
                                <name>Crop</name>
                                <effectid>crop</effectid>
                                <effecttype>motion</effecttype>
                                <mediatype>video</mediatype>
                                <effectcategory>motion</effectcategory>
                                <parameter>
                                    <name>left</name>
                                    <parameterid>left</parameterid>
                                    <value>0</value>
                                    <valuemin>0</valuemin>
                                    <valuemax>100</valuemax>
                                </parameter>
                                <parameter>
                                    <name>right</name>
                                    <parameterid>right</parameterid>
                                    <value>0</value>
                                    <valuemin>0</valuemin>
                                    <valuemax>100</valuemax>
                                </parameter>
                                <parameter>
                                    <name>top</name>
                                    <parameterid>top</parameterid>
                                    <value>0</value>
                                    <valuemin>0</valuemin>
                                    <valuemax>100</valuemax>
                                </parameter>
                                <parameter>
                                    <name>bottom</name>
                                    <parameterid>bottom</parameterid>
                                    <value>0</value>
                                    <valuemin>0</valuemin>
                                    <valuemax>100</valuemax>
                                </parameter>
                            </effect>
                        </filter>
                    </clipitem>
                    <clipitem id="Samstag Morgen Multi 179">
                        <name>Samstag Morgen Multi</name>
                        <duration>115210</duration>
                        <rate>
                            <timebase>25</timebase>
                            <ntsc>false</ntsc>
                        </rate>
                        <start>63495</start>
                        <end>63995</end>
                        <enabled>true</enabled>
                        <in>63495</in>
                        <out>63995</out>
                        <file id="Samstag Morgen Multi 2"/>
                        <compositemode>normal</compositemode>
                        <filter>
                            <enabled>true</enabled>
                            <start>0</start>
                            <end>115210</end>
                            <effect>
                                <name>Opacity</name>
                                <effectid>opacity</effectid>
                                <effecttype>motion</effecttype>
                                <mediatype>video</mediatype>
                                <effectcategory>motion</effectcategory>
                                <parameter>
                                    <name>opacity</name>
                                    <parameterid>opacity</parameterid>
                                    <value>100</value>
                                    <valuemin>0</valuemin>
                                    <valuemax>100</valuemax>
                                </parameter>
                            </effect>
                        </filter>
                        <filter>
                            <enabled>true</enabled>
                            <start>0</start>
                            <end>115210</end>
                            <effect>
                                <name>Basic Motion</name>
                                <effectid>basic</effectid>
                                <effecttype>motion</effecttype>
                                <mediatype>video</mediatype>
                                <effectcategory>motion</effectcategory>
                                <parameter>
                                    <name>Scale</name>
                                    <parameterid>scale</parameterid>
                                    <value>200</value>
                                    <valuemin>25</valuemin>
                                    <valuemax>400</valuemax>
                                </parameter>
                                <parameter>
                                    <name>Center</name>
                                    <parameterid>center</parameterid>
                                    <value>
                                        <horiz>-0.04062495008111</horiz>
                                        <vert>-0.124074161052704</vert>
                                    </value>
                                </parameter>
                                <parameter>
                                    <name>Rotation</name>
                                    <parameterid>rotation</parameterid>
                                    <value>0</value>
                                    <valuemin>-100000</valuemin>
                                    <valuemax>100000</valuemax>
                                </parameter>
                                <parameter>
                                    <name>Anchor Point</name>
                                    <parameterid>centerOffset</parameterid>
                                    <value>
                                        <horiz>0</horiz>
                                        <vert>0</vert>
                                    </value>
                                </parameter>
                            </effect>
                        </filter>
                        <filter>
                            <enabled>true</enabled>
                            <start>0</start>
                            <end>115210</end>
                            <effect>
                                <name>Crop</name>
                                <effectid>crop</effectid>
                                <effecttype>motion</effecttype>
                                <mediatype>video</mediatype>
                                <effectcategory>motion</effectcategory>
                                <parameter>
                                    <name>left</name>
                                    <parameterid>left</parameterid>
                                    <value>0</value>
                                    <valuemin>0</valuemin>
                                    <valuemax>100</valuemax>
                                </parameter>
                                <parameter>
                                    <name>right</name>
                                    <parameterid>right</parameterid>
                                    <value>0</value>
                                    <valuemin>0</valuemin>
                                    <valuemax>100</valuemax>
                                </parameter>
                                <parameter>
                                    <name>top</name>
                                    <parameterid>top</parameterid>
                                    <value>0</value>
                                    <valuemin>0</valuemin>
                                    <valuemax>100</valuemax>
                                </parameter>
                                <parameter>
                                    <name>bottom</name>
                                    <parameterid>bottom</parameterid>
                                    <value>0</value>
                                    <valuemin>0</valuemin>
                                    <valuemax>100</valuemax>
                                </parameter>
                            </effect>
                        </filter>
                    </clipitem>
                    <clipitem id="Samstag Morgen Multi 181">
                        <name>Samstag Morgen Multi</name>
                        <duration>115210</duration>
                        <rate>
                            <timebase>25</timebase>
                            <ntsc>false</ntsc>
                        </rate>
                        <start>63995</start>
                        <end>64470</end>
                        <enabled>true</enabled>
                        <in>63995</in>
                        <out>64470</out>
                        <file id="Samstag Morgen Multi 2"/>
                        <compositemode>normal</compositemode>
                        <filter>
                            <enabled>true</enabled>
                            <start>0</start>
                            <end>115210</end>
                            <effect>
                                <name>Opacity</name>
                                <effectid>opacity</effectid>
                                <effecttype>motion</effecttype>
                                <mediatype>video</mediatype>
                                <effectcategory>motion</effectcategory>
                                <parameter>
                                    <name>opacity</name>
                                    <parameterid>opacity</parameterid>
                                    <value>100</value>
                                    <valuemin>0</valuemin>
                                    <valuemax>100</valuemax>
                                </parameter>
                            </effect>
                        </filter>
                        <filter>
                            <enabled>true</enabled>
                            <start>0</start>
                            <end>115210</end>
                            <effect>
                                <name>Basic Motion</name>
                                <effectid>basic</effectid>
                                <effecttype>motion</effecttype>
                                <mediatype>video</mediatype>
                                <effectcategory>motion</effectcategory>
                                <parameter>
                                    <name>Scale</name>
                                    <parameterid>scale</parameterid>
                                    <value>100</value>
                                    <valuemin>25</valuemin>
                                    <valuemax>400</valuemax>
                                </parameter>
                                <parameter>
                                    <name>Center</name>
                                    <parameterid>center</parameterid>
                                    <value>
                                        <horiz>0</horiz>
                                        <vert>0</vert>
                                    </value>
                                </parameter>
                                <parameter>
                                    <name>Rotation</name>
                                    <parameterid>rotation</parameterid>
                                    <value>0</value>
                                    <valuemin>-100000</valuemin>
                                    <valuemax>100000</valuemax>
                                </parameter>
                                <parameter>
                                    <name>Anchor Point</name>
                                    <parameterid>centerOffset</parameterid>
                                    <value>
                                        <horiz>0</horiz>
                                        <vert>0</vert>
                                    </value>
                                </parameter>
                            </effect>
                        </filter>
                        <filter>
                            <enabled>true</enabled>
                            <start>0</start>
                            <end>115210</end>
                            <effect>
                                <name>Crop</name>
                                <effectid>crop</effectid>
                                <effecttype>motion</effecttype>
                                <mediatype>video</mediatype>
                                <effectcategory>motion</effectcategory>
                                <parameter>
                                    <name>left</name>
                                    <parameterid>left</parameterid>
                                    <value>0</value>
                                    <valuemin>0</valuemin>
                                    <valuemax>100</valuemax>
                                </parameter>
                                <parameter>
                                    <name>right</name>
                                    <parameterid>right</parameterid>
                                    <value>0</value>
                                    <valuemin>0</valuemin>
                                    <valuemax>100</valuemax>
                                </parameter>
                                <parameter>
                                    <name>top</name>
                                    <parameterid>top</parameterid>
                                    <value>0</value>
                                    <valuemin>0</valuemin>
                                    <valuemax>100</valuemax>
                                </parameter>
                                <parameter>
                                    <name>bottom</name>
                                    <parameterid>bottom</parameterid>
                                    <value>0</value>
                                    <valuemin>0</valuemin>
                                    <valuemax>100</valuemax>
                                </parameter>
                            </effect>
                        </filter>
                    </clipitem>
                    <clipitem id="Samstag Morgen Multi 183">
                        <name>Samstag Morgen Multi</name>
                        <duration>115210</duration>
                        <rate>
                            <timebase>25</timebase>
                            <ntsc>false</ntsc>
                        </rate>
                        <start>64470</start>
                        <end>65220</end>
                        <enabled>true</enabled>
                        <in>64470</in>
                        <out>65220</out>
                        <file id="Samstag Morgen Multi 2"/>
                        <compositemode>normal</compositemode>
                        <filter>
                            <enabled>true</enabled>
                            <start>0</start>
                            <end>115210</end>
                            <effect>
                                <name>Opacity</name>
                                <effectid>opacity</effectid>
                                <effecttype>motion</effecttype>
                                <mediatype>video</mediatype>
                                <effectcategory>motion</effectcategory>
                                <parameter>
                                    <name>opacity</name>
                                    <parameterid>opacity</parameterid>
                                    <value>100</value>
                                    <valuemin>0</valuemin>
                                    <valuemax>100</valuemax>
                                </parameter>
                            </effect>
                        </filter>
                        <filter>
                            <enabled>true</enabled>
                            <start>0</start>
                            <end>115210</end>
                            <effect>
                                <name>Basic Motion</name>
                                <effectid>basic</effectid>
                                <effecttype>motion</effecttype>
                                <mediatype>video</mediatype>
                                <effectcategory>motion</effectcategory>
                                <parameter>
                                    <name>Scale</name>
                                    <parameterid>scale</parameterid>
                                    <value>200</value>
                                    <valuemin>25</valuemin>
                                    <valuemax>400</valuemax>
                                </parameter>
                                <parameter>
                                    <name>Center</name>
                                    <parameterid>center</parameterid>
                                    <value>
                                        <horiz>0.154166698455811</horiz>
                                        <vert>-0.124074161052704</vert>
                                    </value>
                                </parameter>
                                <parameter>
                                    <name>Rotation</name>
                                    <parameterid>rotation</parameterid>
                                    <value>0</value>
                                    <valuemin>-100000</valuemin>
                                    <valuemax>100000</valuemax>
                                </parameter>
                                <parameter>
                                    <name>Anchor Point</name>
                                    <parameterid>centerOffset</parameterid>
                                    <value>
                                        <horiz>0</horiz>
                                        <vert>0</vert>
                                    </value>
                                </parameter>
                            </effect>
                        </filter>
                        <filter>
                            <enabled>true</enabled>
                            <start>0</start>
                            <end>115210</end>
                            <effect>
                                <name>Crop</name>
                                <effectid>crop</effectid>
                                <effecttype>motion</effecttype>
                                <mediatype>video</mediatype>
                                <effectcategory>motion</effectcategory>
                                <parameter>
                                    <name>left</name>
                                    <parameterid>left</parameterid>
                                    <value>0</value>
                                    <valuemin>0</valuemin>
                                    <valuemax>100</valuemax>
                                </parameter>
                                <parameter>
                                    <name>right</name>
                                    <parameterid>right</parameterid>
                                    <value>0</value>
                                    <valuemin>0</valuemin>
                                    <valuemax>100</valuemax>
                                </parameter>
                                <parameter>
                                    <name>top</name>
                                    <parameterid>top</parameterid>
                                    <value>0</value>
                                    <valuemin>0</valuemin>
                                    <valuemax>100</valuemax>
                                </parameter>
                                <parameter>
                                    <name>bottom</name>
                                    <parameterid>bottom</parameterid>
                                    <value>0</value>
                                    <valuemin>0</valuemin>
                                    <valuemax>100</valuemax>
                                </parameter>
                            </effect>
                        </filter>
                    </clipitem>
                    <clipitem id="Samstag Morgen Multi 185">
                        <name>Samstag Morgen Multi</name>
                        <duration>115210</duration>
                        <rate>
                            <timebase>25</timebase>
                            <ntsc>false</ntsc>
                        </rate>
                        <start>65220</start>
                        <end>65867</end>
                        <enabled>true</enabled>
                        <in>65220</in>
                        <out>65867</out>
                        <file id="Samstag Morgen Multi 2"/>
                        <compositemode>normal</compositemode>
                        <filter>
                            <enabled>true</enabled>
                            <start>0</start>
                            <end>115210</end>
                            <effect>
                                <name>Opacity</name>
                                <effectid>opacity</effectid>
                                <effecttype>motion</effecttype>
                                <mediatype>video</mediatype>
                                <effectcategory>motion</effectcategory>
                                <parameter>
                                    <name>opacity</name>
                                    <parameterid>opacity</parameterid>
                                    <value>100</value>
                                    <valuemin>0</valuemin>
                                    <valuemax>100</valuemax>
                                </parameter>
                            </effect>
                        </filter>
                        <filter>
                            <enabled>true</enabled>
                            <start>0</start>
                            <end>115210</end>
                            <effect>
                                <name>Basic Motion</name>
                                <effectid>basic</effectid>
                                <effecttype>motion</effecttype>
                                <mediatype>video</mediatype>
                                <effectcategory>motion</effectcategory>
                                <parameter>
                                    <name>Scale</name>
                                    <parameterid>scale</parameterid>
                                    <value>100</value>
                                    <valuemin>25</valuemin>
                                    <valuemax>400</valuemax>
                                </parameter>
                                <parameter>
                                    <name>Center</name>
                                    <parameterid>center</parameterid>
                                    <value>
                                        <horiz>0</horiz>
                                        <vert>0</vert>
                                    </value>
                                </parameter>
                                <parameter>
                                    <name>Rotation</name>
                                    <parameterid>rotation</parameterid>
                                    <value>0</value>
                                    <valuemin>-100000</valuemin>
                                    <valuemax>100000</valuemax>
                                </parameter>
                                <parameter>
                                    <name>Anchor Point</name>
                                    <parameterid>centerOffset</parameterid>
                                    <value>
                                        <horiz>0</horiz>
                                        <vert>0</vert>
                                    </value>
                                </parameter>
                            </effect>
                        </filter>
                        <filter>
                            <enabled>true</enabled>
                            <start>0</start>
                            <end>115210</end>
                            <effect>
                                <name>Crop</name>
                                <effectid>crop</effectid>
                                <effecttype>motion</effecttype>
                                <mediatype>video</mediatype>
                                <effectcategory>motion</effectcategory>
                                <parameter>
                                    <name>left</name>
                                    <parameterid>left</parameterid>
                                    <value>0</value>
                                    <valuemin>0</valuemin>
                                    <valuemax>100</valuemax>
                                </parameter>
                                <parameter>
                                    <name>right</name>
                                    <parameterid>right</parameterid>
                                    <value>0</value>
                                    <valuemin>0</valuemin>
                                    <valuemax>100</valuemax>
                                </parameter>
                                <parameter>
                                    <name>top</name>
                                    <parameterid>top</parameterid>
                                    <value>0</value>
                                    <valuemin>0</valuemin>
                                    <valuemax>100</valuemax>
                                </parameter>
                                <parameter>
                                    <name>bottom</name>
                                    <parameterid>bottom</parameterid>
                                    <value>0</value>
                                    <valuemin>0</valuemin>
                                    <valuemax>100</valuemax>
                                </parameter>
                            </effect>
                        </filter>
                    </clipitem>
                    <clipitem id="Samstag Morgen Multi 187">
                        <name>Samstag Morgen Multi</name>
                        <duration>115210</duration>
                        <rate>
                            <timebase>25</timebase>
                            <ntsc>false</ntsc>
                        </rate>
                        <start>65867</start>
                        <end>66360</end>
                        <enabled>true</enabled>
                        <in>65867</in>
                        <out>66360</out>
                        <file id="Samstag Morgen Multi 2"/>
                        <compositemode>normal</compositemode>
                        <filter>
                            <enabled>true</enabled>
                            <start>0</start>
                            <end>115210</end>
                            <effect>
                                <name>Opacity</name>
                                <effectid>opacity</effectid>
                                <effecttype>motion</effecttype>
                                <mediatype>video</mediatype>
                                <effectcategory>motion</effectcategory>
                                <parameter>
                                    <name>opacity</name>
                                    <parameterid>opacity</parameterid>
                                    <value>100</value>
                                    <valuemin>0</valuemin>
                                    <valuemax>100</valuemax>
                                </parameter>
                            </effect>
                        </filter>
                        <filter>
                            <enabled>true</enabled>
                            <start>0</start>
                            <end>115210</end>
                            <effect>
                                <name>Basic Motion</name>
                                <effectid>basic</effectid>
                                <effecttype>motion</effecttype>
                                <mediatype>video</mediatype>
                                <effectcategory>motion</effectcategory>
                                <parameter>
                                    <name>Scale</name>
                                    <parameterid>scale</parameterid>
                                    <value>200</value>
                                    <valuemin>25</valuemin>
                                    <valuemax>400</valuemax>
                                </parameter>
                                <parameter>
                                    <name>Center</name>
                                    <parameterid>center</parameterid>
                                    <value>
                                        <horiz>0.154166698455811</horiz>
                                        <vert>-0.124074161052704</vert>
                                    </value>
                                </parameter>
                                <parameter>
                                    <name>Rotation</name>
                                    <parameterid>rotation</parameterid>
                                    <value>0</value>
                                    <valuemin>-100000</valuemin>
                                    <valuemax>100000</valuemax>
                                </parameter>
                                <parameter>
                                    <name>Anchor Point</name>
                                    <parameterid>centerOffset</parameterid>
                                    <value>
                                        <horiz>0</horiz>
                                        <vert>0</vert>
                                    </value>
                                </parameter>
                            </effect>
                        </filter>
                        <filter>
                            <enabled>true</enabled>
                            <start>0</start>
                            <end>115210</end>
                            <effect>
                                <name>Crop</name>
                                <effectid>crop</effectid>
                                <effecttype>motion</effecttype>
                                <mediatype>video</mediatype>
                                <effectcategory>motion</effectcategory>
                                <parameter>
                                    <name>left</name>
                                    <parameterid>left</parameterid>
                                    <value>0</value>
                                    <valuemin>0</valuemin>
                                    <valuemax>100</valuemax>
                                </parameter>
                                <parameter>
                                    <name>right</name>
                                    <parameterid>right</parameterid>
                                    <value>0</value>
                                    <valuemin>0</valuemin>
                                    <valuemax>100</valuemax>
                                </parameter>
                                <parameter>
                                    <name>top</name>
                                    <parameterid>top</parameterid>
                                    <value>0</value>
                                    <valuemin>0</valuemin>
                                    <valuemax>100</valuemax>
                                </parameter>
                                <parameter>
                                    <name>bottom</name>
                                    <parameterid>bottom</parameterid>
                                    <value>0</value>
                                    <valuemin>0</valuemin>
                                    <valuemax>100</valuemax>
                                </parameter>
                            </effect>
                        </filter>
                    </clipitem>
                    <clipitem id="Samstag Morgen Multi 189">
                        <name>Samstag Morgen Multi</name>
                        <duration>115210</duration>
                        <rate>
                            <timebase>25</timebase>
                            <ntsc>false</ntsc>
                        </rate>
                        <start>66360</start>
                        <end>66820</end>
                        <enabled>true</enabled>
                        <in>66360</in>
                        <out>66820</out>
                        <file id="Samstag Morgen Multi 2"/>
                        <compositemode>normal</compositemode>
                        <filter>
                            <enabled>true</enabled>
                            <start>0</start>
                            <end>115210</end>
                            <effect>
                                <name>Opacity</name>
                                <effectid>opacity</effectid>
                                <effecttype>motion</effecttype>
                                <mediatype>video</mediatype>
                                <effectcategory>motion</effectcategory>
                                <parameter>
                                    <name>opacity</name>
                                    <parameterid>opacity</parameterid>
                                    <value>100</value>
                                    <valuemin>0</valuemin>
                                    <valuemax>100</valuemax>
                                </parameter>
                            </effect>
                        </filter>
                        <filter>
                            <enabled>true</enabled>
                            <start>0</start>
                            <end>115210</end>
                            <effect>
                                <name>Basic Motion</name>
                                <effectid>basic</effectid>
                                <effecttype>motion</effecttype>
                                <mediatype>video</mediatype>
                                <effectcategory>motion</effectcategory>
                                <parameter>
                                    <name>Scale</name>
                                    <parameterid>scale</parameterid>
                                    <value>100</value>
                                    <valuemin>25</valuemin>
                                    <valuemax>400</valuemax>
                                </parameter>
                                <parameter>
                                    <name>Center</name>
                                    <parameterid>center</parameterid>
                                    <value>
                                        <horiz>0</horiz>
                                        <vert>0</vert>
                                    </value>
                                </parameter>
                                <parameter>
                                    <name>Rotation</name>
                                    <parameterid>rotation</parameterid>
                                    <value>0</value>
                                    <valuemin>-100000</valuemin>
                                    <valuemax>100000</valuemax>
                                </parameter>
                                <parameter>
                                    <name>Anchor Point</name>
                                    <parameterid>centerOffset</parameterid>
                                    <value>
                                        <horiz>0</horiz>
                                        <vert>0</vert>
                                    </value>
                                </parameter>
                            </effect>
                        </filter>
                        <filter>
                            <enabled>true</enabled>
                            <start>0</start>
                            <end>115210</end>
                            <effect>
                                <name>Crop</name>
                                <effectid>crop</effectid>
                                <effecttype>motion</effecttype>
                                <mediatype>video</mediatype>
                                <effectcategory>motion</effectcategory>
                                <parameter>
                                    <name>left</name>
                                    <parameterid>left</parameterid>
                                    <value>0</value>
                                    <valuemin>0</valuemin>
                                    <valuemax>100</valuemax>
                                </parameter>
                                <parameter>
                                    <name>right</name>
                                    <parameterid>right</parameterid>
                                    <value>0</value>
                                    <valuemin>0</valuemin>
                                    <valuemax>100</valuemax>
                                </parameter>
                                <parameter>
                                    <name>top</name>
                                    <parameterid>top</parameterid>
                                    <value>0</value>
                                    <valuemin>0</valuemin>
                                    <valuemax>100</valuemax>
                                </parameter>
                                <parameter>
                                    <name>bottom</name>
                                    <parameterid>bottom</parameterid>
                                    <value>0</value>
                                    <valuemin>0</valuemin>
                                    <valuemax>100</valuemax>
                                </parameter>
                            </effect>
                        </filter>
                    </clipitem>
                    <clipitem id="Samstag Morgen Multi 191">
                        <name>Samstag Morgen Multi</name>
                        <duration>115210</duration>
                        <rate>
                            <timebase>25</timebase>
                            <ntsc>false</ntsc>
                        </rate>
                        <start>66820</start>
                        <end>67695</end>
                        <enabled>true</enabled>
                        <in>66820</in>
                        <out>67695</out>
                        <file id="Samstag Morgen Multi 2"/>
                        <compositemode>normal</compositemode>
                        <filter>
                            <enabled>true</enabled>
                            <start>0</start>
                            <end>115210</end>
                            <effect>
                                <name>Opacity</name>
                                <effectid>opacity</effectid>
                                <effecttype>motion</effecttype>
                                <mediatype>video</mediatype>
                                <effectcategory>motion</effectcategory>
                                <parameter>
                                    <name>opacity</name>
                                    <parameterid>opacity</parameterid>
                                    <value>100</value>
                                    <valuemin>0</valuemin>
                                    <valuemax>100</valuemax>
                                </parameter>
                            </effect>
                        </filter>
                        <filter>
                            <enabled>true</enabled>
                            <start>0</start>
                            <end>115210</end>
                            <effect>
                                <name>Basic Motion</name>
                                <effectid>basic</effectid>
                                <effecttype>motion</effecttype>
                                <mediatype>video</mediatype>
                                <effectcategory>motion</effectcategory>
                                <parameter>
                                    <name>Scale</name>
                                    <parameterid>scale</parameterid>
                                    <value>200</value>
                                    <valuemin>25</valuemin>
                                    <valuemax>400</valuemax>
                                </parameter>
                                <parameter>
                                    <name>Center</name>
                                    <parameterid>center</parameterid>
                                    <value>
                                        <horiz>0.154166698455811</horiz>
                                        <vert>-0.124074161052704</vert>
                                    </value>
                                </parameter>
                                <parameter>
                                    <name>Rotation</name>
                                    <parameterid>rotation</parameterid>
                                    <value>0</value>
                                    <valuemin>-100000</valuemin>
                                    <valuemax>100000</valuemax>
                                </parameter>
                                <parameter>
                                    <name>Anchor Point</name>
                                    <parameterid>centerOffset</parameterid>
                                    <value>
                                        <horiz>0</horiz>
                                        <vert>0</vert>
                                    </value>
                                </parameter>
                            </effect>
                        </filter>
                        <filter>
                            <enabled>true</enabled>
                            <start>0</start>
                            <end>115210</end>
                            <effect>
                                <name>Crop</name>
                                <effectid>crop</effectid>
                                <effecttype>motion</effecttype>
                                <mediatype>video</mediatype>
                                <effectcategory>motion</effectcategory>
                                <parameter>
                                    <name>left</name>
                                    <parameterid>left</parameterid>
                                    <value>0</value>
                                    <valuemin>0</valuemin>
                                    <valuemax>100</valuemax>
                                </parameter>
                                <parameter>
                                    <name>right</name>
                                    <parameterid>right</parameterid>
                                    <value>0</value>
                                    <valuemin>0</valuemin>
                                    <valuemax>100</valuemax>
                                </parameter>
                                <parameter>
                                    <name>top</name>
                                    <parameterid>top</parameterid>
                                    <value>0</value>
                                    <valuemin>0</valuemin>
                                    <valuemax>100</valuemax>
                                </parameter>
                                <parameter>
                                    <name>bottom</name>
                                    <parameterid>bottom</parameterid>
                                    <value>0</value>
                                    <valuemin>0</valuemin>
                                    <valuemax>100</valuemax>
                                </parameter>
                            </effect>
                        </filter>
                    </clipitem>
                    <clipitem id="Samstag Morgen Multi 193">
                        <name>Samstag Morgen Multi</name>
                        <duration>115210</duration>
                        <rate>
                            <timebase>25</timebase>
                            <ntsc>false</ntsc>
                        </rate>
                        <start>67695</start>
                        <end>68248</end>
                        <enabled>true</enabled>
                        <in>67695</in>
                        <out>68248</out>
                        <file id="Samstag Morgen Multi 2"/>
                        <compositemode>normal</compositemode>
                        <filter>
                            <enabled>true</enabled>
                            <start>0</start>
                            <end>115210</end>
                            <effect>
                                <name>Opacity</name>
                                <effectid>opacity</effectid>
                                <effecttype>motion</effecttype>
                                <mediatype>video</mediatype>
                                <effectcategory>motion</effectcategory>
                                <parameter>
                                    <name>opacity</name>
                                    <parameterid>opacity</parameterid>
                                    <value>100</value>
                                    <valuemin>0</valuemin>
                                    <valuemax>100</valuemax>
                                </parameter>
                            </effect>
                        </filter>
                        <filter>
                            <enabled>true</enabled>
                            <start>0</start>
                            <end>115210</end>
                            <effect>
                                <name>Basic Motion</name>
                                <effectid>basic</effectid>
                                <effecttype>motion</effecttype>
                                <mediatype>video</mediatype>
                                <effectcategory>motion</effectcategory>
                                <parameter>
                                    <name>Scale</name>
                                    <parameterid>scale</parameterid>
                                    <value>100</value>
                                    <valuemin>25</valuemin>
                                    <valuemax>400</valuemax>
                                </parameter>
                                <parameter>
                                    <name>Center</name>
                                    <parameterid>center</parameterid>
                                    <value>
                                        <horiz>0</horiz>
                                        <vert>0</vert>
                                    </value>
                                </parameter>
                                <parameter>
                                    <name>Rotation</name>
                                    <parameterid>rotation</parameterid>
                                    <value>0</value>
                                    <valuemin>-100000</valuemin>
                                    <valuemax>100000</valuemax>
                                </parameter>
                                <parameter>
                                    <name>Anchor Point</name>
                                    <parameterid>centerOffset</parameterid>
                                    <value>
                                        <horiz>0</horiz>
                                        <vert>0</vert>
                                    </value>
                                </parameter>
                            </effect>
                        </filter>
                        <filter>
                            <enabled>true</enabled>
                            <start>0</start>
                            <end>115210</end>
                            <effect>
                                <name>Crop</name>
                                <effectid>crop</effectid>
                                <effecttype>motion</effecttype>
                                <mediatype>video</mediatype>
                                <effectcategory>motion</effectcategory>
                                <parameter>
                                    <name>left</name>
                                    <parameterid>left</parameterid>
                                    <value>0</value>
                                    <valuemin>0</valuemin>
                                    <valuemax>100</valuemax>
                                </parameter>
                                <parameter>
                                    <name>right</name>
                                    <parameterid>right</parameterid>
                                    <value>0</value>
                                    <valuemin>0</valuemin>
                                    <valuemax>100</valuemax>
                                </parameter>
                                <parameter>
                                    <name>top</name>
                                    <parameterid>top</parameterid>
                                    <value>0</value>
                                    <valuemin>0</valuemin>
                                    <valuemax>100</valuemax>
                                </parameter>
                                <parameter>
                                    <name>bottom</name>
                                    <parameterid>bottom</parameterid>
                                    <value>0</value>
                                    <valuemin>0</valuemin>
                                    <valuemax>100</valuemax>
                                </parameter>
                            </effect>
                        </filter>
                    </clipitem>
                    <clipitem id="Samstag Morgen Multi 195">
                        <name>Samstag Morgen Multi</name>
                        <duration>115210</duration>
                        <rate>
                            <timebase>25</timebase>
                            <ntsc>false</ntsc>
                        </rate>
                        <start>68248</start>
                        <end>68491</end>
                        <enabled>true</enabled>
                        <in>68248</in>
                        <out>68491</out>
                        <file id="Samstag Morgen Multi 2"/>
                        <compositemode>normal</compositemode>
                        <filter>
                            <enabled>true</enabled>
                            <start>0</start>
                            <end>115210</end>
                            <effect>
                                <name>Opacity</name>
                                <effectid>opacity</effectid>
                                <effecttype>motion</effecttype>
                                <mediatype>video</mediatype>
                                <effectcategory>motion</effectcategory>
                                <parameter>
                                    <name>opacity</name>
                                    <parameterid>opacity</parameterid>
                                    <value>100</value>
                                    <valuemin>0</valuemin>
                                    <valuemax>100</valuemax>
                                </parameter>
                            </effect>
                        </filter>
                        <filter>
                            <enabled>true</enabled>
                            <start>0</start>
                            <end>115210</end>
                            <effect>
                                <name>Basic Motion</name>
                                <effectid>basic</effectid>
                                <effecttype>motion</effecttype>
                                <mediatype>video</mediatype>
                                <effectcategory>motion</effectcategory>
                                <parameter>
                                    <name>Scale</name>
                                    <parameterid>scale</parameterid>
                                    <value>200</value>
                                    <valuemin>25</valuemin>
                                    <valuemax>400</valuemax>
                                </parameter>
                                <parameter>
                                    <name>Center</name>
                                    <parameterid>center</parameterid>
                                    <value>
                                        <horiz>0.154166698455811</horiz>
                                        <vert>-0.124074161052704</vert>
                                    </value>
                                </parameter>
                                <parameter>
                                    <name>Rotation</name>
                                    <parameterid>rotation</parameterid>
                                    <value>0</value>
                                    <valuemin>-100000</valuemin>
                                    <valuemax>100000</valuemax>
                                </parameter>
                                <parameter>
                                    <name>Anchor Point</name>
                                    <parameterid>centerOffset</parameterid>
                                    <value>
                                        <horiz>0</horiz>
                                        <vert>0</vert>
                                    </value>
                                </parameter>
                            </effect>
                        </filter>
                        <filter>
                            <enabled>true</enabled>
                            <start>0</start>
                            <end>115210</end>
                            <effect>
                                <name>Crop</name>
                                <effectid>crop</effectid>
                                <effecttype>motion</effecttype>
                                <mediatype>video</mediatype>
                                <effectcategory>motion</effectcategory>
                                <parameter>
                                    <name>left</name>
                                    <parameterid>left</parameterid>
                                    <value>0</value>
                                    <valuemin>0</valuemin>
                                    <valuemax>100</valuemax>
                                </parameter>
                                <parameter>
                                    <name>right</name>
                                    <parameterid>right</parameterid>
                                    <value>0</value>
                                    <valuemin>0</valuemin>
                                    <valuemax>100</valuemax>
                                </parameter>
                                <parameter>
                                    <name>top</name>
                                    <parameterid>top</parameterid>
                                    <value>0</value>
                                    <valuemin>0</valuemin>
                                    <valuemax>100</valuemax>
                                </parameter>
                                <parameter>
                                    <name>bottom</name>
                                    <parameterid>bottom</parameterid>
                                    <value>0</value>
                                    <valuemin>0</valuemin>
                                    <valuemax>100</valuemax>
                                </parameter>
                            </effect>
                        </filter>
                    </clipitem>
                    <clipitem id="Samstag Morgen Multi 197">
                        <name>Samstag Morgen Multi</name>
                        <duration>115210</duration>
                        <rate>
                            <timebase>25</timebase>
                            <ntsc>false</ntsc>
                        </rate>
                        <start>68491</start>
                        <end>68598</end>
                        <enabled>true</enabled>
                        <in>68491</in>
                        <out>68598</out>
                        <file id="Samstag Morgen Multi 2"/>
                        <compositemode>normal</compositemode>
                        <filter>
                            <enabled>true</enabled>
                            <start>0</start>
                            <end>115210</end>
                            <effect>
                                <name>Opacity</name>
                                <effectid>opacity</effectid>
                                <effecttype>motion</effecttype>
                                <mediatype>video</mediatype>
                                <effectcategory>motion</effectcategory>
                                <parameter>
                                    <name>opacity</name>
                                    <parameterid>opacity</parameterid>
                                    <value>100</value>
                                    <valuemin>0</valuemin>
                                    <valuemax>100</valuemax>
                                </parameter>
                            </effect>
                        </filter>
                        <filter>
                            <enabled>true</enabled>
                            <start>0</start>
                            <end>115210</end>
                            <effect>
                                <name>Basic Motion</name>
                                <effectid>basic</effectid>
                                <effecttype>motion</effecttype>
                                <mediatype>video</mediatype>
                                <effectcategory>motion</effectcategory>
                                <parameter>
                                    <name>Scale</name>
                                    <parameterid>scale</parameterid>
                                    <value>100</value>
                                    <valuemin>25</valuemin>
                                    <valuemax>400</valuemax>
                                </parameter>
                                <parameter>
                                    <name>Center</name>
                                    <parameterid>center</parameterid>
                                    <value>
                                        <horiz>0</horiz>
                                        <vert>0</vert>
                                    </value>
                                </parameter>
                                <parameter>
                                    <name>Rotation</name>
                                    <parameterid>rotation</parameterid>
                                    <value>0</value>
                                    <valuemin>-100000</valuemin>
                                    <valuemax>100000</valuemax>
                                </parameter>
                                <parameter>
                                    <name>Anchor Point</name>
                                    <parameterid>centerOffset</parameterid>
                                    <value>
                                        <horiz>0</horiz>
                                        <vert>0</vert>
                                    </value>
                                </parameter>
                            </effect>
                        </filter>
                        <filter>
                            <enabled>true</enabled>
                            <start>0</start>
                            <end>115210</end>
                            <effect>
                                <name>Crop</name>
                                <effectid>crop</effectid>
                                <effecttype>motion</effecttype>
                                <mediatype>video</mediatype>
                                <effectcategory>motion</effectcategory>
                                <parameter>
                                    <name>left</name>
                                    <parameterid>left</parameterid>
                                    <value>0</value>
                                    <valuemin>0</valuemin>
                                    <valuemax>100</valuemax>
                                </parameter>
                                <parameter>
                                    <name>right</name>
                                    <parameterid>right</parameterid>
                                    <value>0</value>
                                    <valuemin>0</valuemin>
                                    <valuemax>100</valuemax>
                                </parameter>
                                <parameter>
                                    <name>top</name>
                                    <parameterid>top</parameterid>
                                    <value>0</value>
                                    <valuemin>0</valuemin>
                                    <valuemax>100</valuemax>
                                </parameter>
                                <parameter>
                                    <name>bottom</name>
                                    <parameterid>bottom</parameterid>
                                    <value>0</value>
                                    <valuemin>0</valuemin>
                                    <valuemax>100</valuemax>
                                </parameter>
                            </effect>
                        </filter>
                    </clipitem>
                    <clipitem id="Samstag Morgen Multi 199">
                        <name>Samstag Morgen Multi</name>
                        <duration>115210</duration>
                        <rate>
                            <timebase>25</timebase>
                            <ntsc>false</ntsc>
                        </rate>
                        <start>68598</start>
                        <end>68916</end>
                        <enabled>true</enabled>
                        <in>68598</in>
                        <out>68916</out>
                        <file id="Samstag Morgen Multi 2"/>
                        <compositemode>normal</compositemode>
                        <filter>
                            <enabled>true</enabled>
                            <start>0</start>
                            <end>115210</end>
                            <effect>
                                <name>Opacity</name>
                                <effectid>opacity</effectid>
                                <effecttype>motion</effecttype>
                                <mediatype>video</mediatype>
                                <effectcategory>motion</effectcategory>
                                <parameter>
                                    <name>opacity</name>
                                    <parameterid>opacity</parameterid>
                                    <value>100</value>
                                    <valuemin>0</valuemin>
                                    <valuemax>100</valuemax>
                                </parameter>
                            </effect>
                        </filter>
                        <filter>
                            <enabled>true</enabled>
                            <start>0</start>
                            <end>115210</end>
                            <effect>
                                <name>Basic Motion</name>
                                <effectid>basic</effectid>
                                <effecttype>motion</effecttype>
                                <mediatype>video</mediatype>
                                <effectcategory>motion</effectcategory>
                                <parameter>
                                    <name>Scale</name>
                                    <parameterid>scale</parameterid>
                                    <value>200</value>
                                    <valuemin>25</valuemin>
                                    <valuemax>400</valuemax>
                                </parameter>
                                <parameter>
                                    <name>Center</name>
                                    <parameterid>center</parameterid>
                                    <value>
                                        <horiz>0.500000476837158</horiz>
                                        <vert>-0.124074161052704</vert>
                                    </value>
                                </parameter>
                                <parameter>
                                    <name>Rotation</name>
                                    <parameterid>rotation</parameterid>
                                    <value>0</value>
                                    <valuemin>-100000</valuemin>
                                    <valuemax>100000</valuemax>
                                </parameter>
                                <parameter>
                                    <name>Anchor Point</name>
                                    <parameterid>centerOffset</parameterid>
                                    <value>
                                        <horiz>0</horiz>
                                        <vert>0</vert>
                                    </value>
                                </parameter>
                            </effect>
                        </filter>
                        <filter>
                            <enabled>true</enabled>
                            <start>0</start>
                            <end>115210</end>
                            <effect>
                                <name>Crop</name>
                                <effectid>crop</effectid>
                                <effecttype>motion</effecttype>
                                <mediatype>video</mediatype>
                                <effectcategory>motion</effectcategory>
                                <parameter>
                                    <name>left</name>
                                    <parameterid>left</parameterid>
                                    <value>0</value>
                                    <valuemin>0</valuemin>
                                    <valuemax>100</valuemax>
                                </parameter>
                                <parameter>
                                    <name>right</name>
                                    <parameterid>right</parameterid>
                                    <value>0</value>
                                    <valuemin>0</valuemin>
                                    <valuemax>100</valuemax>
                                </parameter>
                                <parameter>
                                    <name>top</name>
                                    <parameterid>top</parameterid>
                                    <value>0</value>
                                    <valuemin>0</valuemin>
                                    <valuemax>100</valuemax>
                                </parameter>
                                <parameter>
                                    <name>bottom</name>
                                    <parameterid>bottom</parameterid>
                                    <value>0</value>
                                    <valuemin>0</valuemin>
                                    <valuemax>100</valuemax>
                                </parameter>
                            </effect>
                        </filter>
                    </clipitem>
                    <clipitem id="Samstag Morgen Multi 201">
                        <name>Samstag Morgen Multi</name>
                        <duration>115210</duration>
                        <rate>
                            <timebase>25</timebase>
                            <ntsc>false</ntsc>
                        </rate>
                        <start>68916</start>
                        <end>69073</end>
                        <enabled>true</enabled>
                        <in>68916</in>
                        <out>69073</out>
                        <file id="Samstag Morgen Multi 2"/>
                        <compositemode>normal</compositemode>
                        <filter>
                            <enabled>true</enabled>
                            <start>0</start>
                            <end>115210</end>
                            <effect>
                                <name>Opacity</name>
                                <effectid>opacity</effectid>
                                <effecttype>motion</effecttype>
                                <mediatype>video</mediatype>
                                <effectcategory>motion</effectcategory>
                                <parameter>
                                    <name>opacity</name>
                                    <parameterid>opacity</parameterid>
                                    <value>100</value>
                                    <valuemin>0</valuemin>
                                    <valuemax>100</valuemax>
                                </parameter>
                            </effect>
                        </filter>
                        <filter>
                            <enabled>true</enabled>
                            <start>0</start>
                            <end>115210</end>
                            <effect>
                                <name>Basic Motion</name>
                                <effectid>basic</effectid>
                                <effecttype>motion</effecttype>
                                <mediatype>video</mediatype>
                                <effectcategory>motion</effectcategory>
                                <parameter>
                                    <name>Scale</name>
                                    <parameterid>scale</parameterid>
                                    <value>100</value>
                                    <valuemin>25</valuemin>
                                    <valuemax>400</valuemax>
                                </parameter>
                                <parameter>
                                    <name>Center</name>
                                    <parameterid>center</parameterid>
                                    <value>
                                        <horiz>0</horiz>
                                        <vert>0</vert>
                                    </value>
                                </parameter>
                                <parameter>
                                    <name>Rotation</name>
                                    <parameterid>rotation</parameterid>
                                    <value>0</value>
                                    <valuemin>-100000</valuemin>
                                    <valuemax>100000</valuemax>
                                </parameter>
                                <parameter>
                                    <name>Anchor Point</name>
                                    <parameterid>centerOffset</parameterid>
                                    <value>
                                        <horiz>0</horiz>
                                        <vert>0</vert>
                                    </value>
                                </parameter>
                            </effect>
                        </filter>
                        <filter>
                            <enabled>true</enabled>
                            <start>0</start>
                            <end>115210</end>
                            <effect>
                                <name>Crop</name>
                                <effectid>crop</effectid>
                                <effecttype>motion</effecttype>
                                <mediatype>video</mediatype>
                                <effectcategory>motion</effectcategory>
                                <parameter>
                                    <name>left</name>
                                    <parameterid>left</parameterid>
                                    <value>0</value>
                                    <valuemin>0</valuemin>
                                    <valuemax>100</valuemax>
                                </parameter>
                                <parameter>
                                    <name>right</name>
                                    <parameterid>right</parameterid>
                                    <value>0</value>
                                    <valuemin>0</valuemin>
                                    <valuemax>100</valuemax>
                                </parameter>
                                <parameter>
                                    <name>top</name>
                                    <parameterid>top</parameterid>
                                    <value>0</value>
                                    <valuemin>0</valuemin>
                                    <valuemax>100</valuemax>
                                </parameter>
                                <parameter>
                                    <name>bottom</name>
                                    <parameterid>bottom</parameterid>
                                    <value>0</value>
                                    <valuemin>0</valuemin>
                                    <valuemax>100</valuemax>
                                </parameter>
                            </effect>
                        </filter>
                    </clipitem>
                    <clipitem id="Samstag Morgen Multi 203">
                        <name>Samstag Morgen Multi</name>
                        <duration>115210</duration>
                        <rate>
                            <timebase>25</timebase>
                            <ntsc>false</ntsc>
                        </rate>
                        <start>69073</start>
                        <end>69163</end>
                        <enabled>true</enabled>
                        <in>69073</in>
                        <out>69163</out>
                        <file id="Samstag Morgen Multi 2"/>
                        <compositemode>normal</compositemode>
                        <filter>
                            <enabled>true</enabled>
                            <start>0</start>
                            <end>115210</end>
                            <effect>
                                <name>Opacity</name>
                                <effectid>opacity</effectid>
                                <effecttype>motion</effecttype>
                                <mediatype>video</mediatype>
                                <effectcategory>motion</effectcategory>
                                <parameter>
                                    <name>opacity</name>
                                    <parameterid>opacity</parameterid>
                                    <value>100</value>
                                    <valuemin>0</valuemin>
                                    <valuemax>100</valuemax>
                                </parameter>
                            </effect>
                        </filter>
                        <filter>
                            <enabled>true</enabled>
                            <start>0</start>
                            <end>115210</end>
                            <effect>
                                <name>Basic Motion</name>
                                <effectid>basic</effectid>
                                <effecttype>motion</effecttype>
                                <mediatype>video</mediatype>
                                <effectcategory>motion</effectcategory>
                                <parameter>
                                    <name>Scale</name>
                                    <parameterid>scale</parameterid>
                                    <value>200</value>
                                    <valuemin>25</valuemin>
                                    <valuemax>400</valuemax>
                                </parameter>
                                <parameter>
                                    <name>Center</name>
                                    <parameterid>center</parameterid>
                                    <value>
                                        <horiz>0.500000476837158</horiz>
                                        <vert>-0.124074161052704</vert>
                                    </value>
                                </parameter>
                                <parameter>
                                    <name>Rotation</name>
                                    <parameterid>rotation</parameterid>
                                    <value>0</value>
                                    <valuemin>-100000</valuemin>
                                    <valuemax>100000</valuemax>
                                </parameter>
                                <parameter>
                                    <name>Anchor Point</name>
                                    <parameterid>centerOffset</parameterid>
                                    <value>
                                        <horiz>0</horiz>
                                        <vert>0</vert>
                                    </value>
                                </parameter>
                            </effect>
                        </filter>
                        <filter>
                            <enabled>true</enabled>
                            <start>0</start>
                            <end>115210</end>
                            <effect>
                                <name>Crop</name>
                                <effectid>crop</effectid>
                                <effecttype>motion</effecttype>
                                <mediatype>video</mediatype>
                                <effectcategory>motion</effectcategory>
                                <parameter>
                                    <name>left</name>
                                    <parameterid>left</parameterid>
                                    <value>0</value>
                                    <valuemin>0</valuemin>
                                    <valuemax>100</valuemax>
                                </parameter>
                                <parameter>
                                    <name>right</name>
                                    <parameterid>right</parameterid>
                                    <value>0</value>
                                    <valuemin>0</valuemin>
                                    <valuemax>100</valuemax>
                                </parameter>
                                <parameter>
                                    <name>top</name>
                                    <parameterid>top</parameterid>
                                    <value>0</value>
                                    <valuemin>0</valuemin>
                                    <valuemax>100</valuemax>
                                </parameter>
                                <parameter>
                                    <name>bottom</name>
                                    <parameterid>bottom</parameterid>
                                    <value>0</value>
                                    <valuemin>0</valuemin>
                                    <valuemax>100</valuemax>
                                </parameter>
                            </effect>
                        </filter>
                    </clipitem>
                    <clipitem id="Samstag Morgen Multi 205">
                        <name>Samstag Morgen Multi</name>
                        <duration>115210</duration>
                        <rate>
                            <timebase>25</timebase>
                            <ntsc>false</ntsc>
                        </rate>
                        <start>69163</start>
                        <end>69340</end>
                        <enabled>true</enabled>
                        <in>69163</in>
                        <out>69340</out>
                        <file id="Samstag Morgen Multi 2"/>
                        <compositemode>normal</compositemode>
                        <filter>
                            <enabled>true</enabled>
                            <start>0</start>
                            <end>115210</end>
                            <effect>
                                <name>Opacity</name>
                                <effectid>opacity</effectid>
                                <effecttype>motion</effecttype>
                                <mediatype>video</mediatype>
                                <effectcategory>motion</effectcategory>
                                <parameter>
                                    <name>opacity</name>
                                    <parameterid>opacity</parameterid>
                                    <value>100</value>
                                    <valuemin>0</valuemin>
                                    <valuemax>100</valuemax>
                                </parameter>
                            </effect>
                        </filter>
                        <filter>
                            <enabled>true</enabled>
                            <start>0</start>
                            <end>115210</end>
                            <effect>
                                <name>Basic Motion</name>
                                <effectid>basic</effectid>
                                <effecttype>motion</effecttype>
                                <mediatype>video</mediatype>
                                <effectcategory>motion</effectcategory>
                                <parameter>
                                    <name>Scale</name>
                                    <parameterid>scale</parameterid>
                                    <value>100</value>
                                    <valuemin>25</valuemin>
                                    <valuemax>400</valuemax>
                                </parameter>
                                <parameter>
                                    <name>Center</name>
                                    <parameterid>center</parameterid>
                                    <value>
                                        <horiz>0</horiz>
                                        <vert>0</vert>
                                    </value>
                                </parameter>
                                <parameter>
                                    <name>Rotation</name>
                                    <parameterid>rotation</parameterid>
                                    <value>0</value>
                                    <valuemin>-100000</valuemin>
                                    <valuemax>100000</valuemax>
                                </parameter>
                                <parameter>
                                    <name>Anchor Point</name>
                                    <parameterid>centerOffset</parameterid>
                                    <value>
                                        <horiz>0</horiz>
                                        <vert>0</vert>
                                    </value>
                                </parameter>
                            </effect>
                        </filter>
                        <filter>
                            <enabled>true</enabled>
                            <start>0</start>
                            <end>115210</end>
                            <effect>
                                <name>Crop</name>
                                <effectid>crop</effectid>
                                <effecttype>motion</effecttype>
                                <mediatype>video</mediatype>
                                <effectcategory>motion</effectcategory>
                                <parameter>
                                    <name>left</name>
                                    <parameterid>left</parameterid>
                                    <value>0</value>
                                    <valuemin>0</valuemin>
                                    <valuemax>100</valuemax>
                                </parameter>
                                <parameter>
                                    <name>right</name>
                                    <parameterid>right</parameterid>
                                    <value>0</value>
                                    <valuemin>0</valuemin>
                                    <valuemax>100</valuemax>
                                </parameter>
                                <parameter>
                                    <name>top</name>
                                    <parameterid>top</parameterid>
                                    <value>0</value>
                                    <valuemin>0</valuemin>
                                    <valuemax>100</valuemax>
                                </parameter>
                                <parameter>
                                    <name>bottom</name>
                                    <parameterid>bottom</parameterid>
                                    <value>0</value>
                                    <valuemin>0</valuemin>
                                    <valuemax>100</valuemax>
                                </parameter>
                            </effect>
                        </filter>
                    </clipitem>
                    <clipitem id="Samstag Morgen Multi 207">
                        <name>Samstag Morgen Multi</name>
                        <duration>115210</duration>
                        <rate>
                            <timebase>25</timebase>
                            <ntsc>false</ntsc>
                        </rate>
                        <start>69340</start>
                        <end>69910</end>
                        <enabled>true</enabled>
                        <in>69340</in>
                        <out>69910</out>
                        <file id="Samstag Morgen Multi 2"/>
                        <compositemode>normal</compositemode>
                        <filter>
                            <enabled>true</enabled>
                            <start>0</start>
                            <end>115210</end>
                            <effect>
                                <name>Opacity</name>
                                <effectid>opacity</effectid>
                                <effecttype>motion</effecttype>
                                <mediatype>video</mediatype>
                                <effectcategory>motion</effectcategory>
                                <parameter>
                                    <name>opacity</name>
                                    <parameterid>opacity</parameterid>
                                    <value>100</value>
                                    <valuemin>0</valuemin>
                                    <valuemax>100</valuemax>
                                </parameter>
                            </effect>
                        </filter>
                        <filter>
                            <enabled>true</enabled>
                            <start>0</start>
                            <end>115210</end>
                            <effect>
                                <name>Basic Motion</name>
                                <effectid>basic</effectid>
                                <effecttype>motion</effecttype>
                                <mediatype>video</mediatype>
                                <effectcategory>motion</effectcategory>
                                <parameter>
                                    <name>Scale</name>
                                    <parameterid>scale</parameterid>
                                    <value>200</value>
                                    <valuemin>25</valuemin>
                                    <valuemax>400</valuemax>
                                </parameter>
                                <parameter>
                                    <name>Center</name>
                                    <parameterid>center</parameterid>
                                    <value>
                                        <horiz>0.289062976837158</horiz>
                                        <vert>-0.124074161052704</vert>
                                    </value>
                                </parameter>
                                <parameter>
                                    <name>Rotation</name>
                                    <parameterid>rotation</parameterid>
                                    <value>0</value>
                                    <valuemin>-100000</valuemin>
                                    <valuemax>100000</valuemax>
                                </parameter>
                                <parameter>
                                    <name>Anchor Point</name>
                                    <parameterid>centerOffset</parameterid>
                                    <value>
                                        <horiz>0</horiz>
                                        <vert>0</vert>
                                    </value>
                                </parameter>
                            </effect>
                        </filter>
                        <filter>
                            <enabled>true</enabled>
                            <start>0</start>
                            <end>115210</end>
                            <effect>
                                <name>Crop</name>
                                <effectid>crop</effectid>
                                <effecttype>motion</effecttype>
                                <mediatype>video</mediatype>
                                <effectcategory>motion</effectcategory>
                                <parameter>
                                    <name>left</name>
                                    <parameterid>left</parameterid>
                                    <value>0</value>
                                    <valuemin>0</valuemin>
                                    <valuemax>100</valuemax>
                                </parameter>
                                <parameter>
                                    <name>right</name>
                                    <parameterid>right</parameterid>
                                    <value>0</value>
                                    <valuemin>0</valuemin>
                                    <valuemax>100</valuemax>
                                </parameter>
                                <parameter>
                                    <name>top</name>
                                    <parameterid>top</parameterid>
                                    <value>0</value>
                                    <valuemin>0</valuemin>
                                    <valuemax>100</valuemax>
                                </parameter>
                                <parameter>
                                    <name>bottom</name>
                                    <parameterid>bottom</parameterid>
                                    <value>0</value>
                                    <valuemin>0</valuemin>
                                    <valuemax>100</valuemax>
                                </parameter>
                            </effect>
                        </filter>
                    </clipitem>
                    <clipitem id="Samstag Morgen Multi 209">
                        <name>Samstag Morgen Multi</name>
                        <duration>115210</duration>
                        <rate>
                            <timebase>25</timebase>
                            <ntsc>false</ntsc>
                        </rate>
                        <start>69910</start>
                        <end>70334</end>
                        <enabled>true</enabled>
                        <in>69910</in>
                        <out>70334</out>
                        <file id="Samstag Morgen Multi 2"/>
                        <compositemode>normal</compositemode>
                        <filter>
                            <enabled>true</enabled>
                            <start>0</start>
                            <end>115210</end>
                            <effect>
                                <name>Opacity</name>
                                <effectid>opacity</effectid>
                                <effecttype>motion</effecttype>
                                <mediatype>video</mediatype>
                                <effectcategory>motion</effectcategory>
                                <parameter>
                                    <name>opacity</name>
                                    <parameterid>opacity</parameterid>
                                    <value>100</value>
                                    <valuemin>0</valuemin>
                                    <valuemax>100</valuemax>
                                </parameter>
                            </effect>
                        </filter>
                        <filter>
                            <enabled>true</enabled>
                            <start>0</start>
                            <end>115210</end>
                            <effect>
                                <name>Basic Motion</name>
                                <effectid>basic</effectid>
                                <effecttype>motion</effecttype>
                                <mediatype>video</mediatype>
                                <effectcategory>motion</effectcategory>
                                <parameter>
                                    <name>Scale</name>
                                    <parameterid>scale</parameterid>
                                    <value>100</value>
                                    <valuemin>25</valuemin>
                                    <valuemax>400</valuemax>
                                </parameter>
                                <parameter>
                                    <name>Center</name>
                                    <parameterid>center</parameterid>
                                    <value>
                                        <horiz>0</horiz>
                                        <vert>0</vert>
                                    </value>
                                </parameter>
                                <parameter>
                                    <name>Rotation</name>
                                    <parameterid>rotation</parameterid>
                                    <value>0</value>
                                    <valuemin>-100000</valuemin>
                                    <valuemax>100000</valuemax>
                                </parameter>
                                <parameter>
                                    <name>Anchor Point</name>
                                    <parameterid>centerOffset</parameterid>
                                    <value>
                                        <horiz>0</horiz>
                                        <vert>0</vert>
                                    </value>
                                </parameter>
                            </effect>
                        </filter>
                        <filter>
                            <enabled>true</enabled>
                            <start>0</start>
                            <end>115210</end>
                            <effect>
                                <name>Crop</name>
                                <effectid>crop</effectid>
                                <effecttype>motion</effecttype>
                                <mediatype>video</mediatype>
                                <effectcategory>motion</effectcategory>
                                <parameter>
                                    <name>left</name>
                                    <parameterid>left</parameterid>
                                    <value>0</value>
                                    <valuemin>0</valuemin>
                                    <valuemax>100</valuemax>
                                </parameter>
                                <parameter>
                                    <name>right</name>
                                    <parameterid>right</parameterid>
                                    <value>0</value>
                                    <valuemin>0</valuemin>
                                    <valuemax>100</valuemax>
                                </parameter>
                                <parameter>
                                    <name>top</name>
                                    <parameterid>top</parameterid>
                                    <value>0</value>
                                    <valuemin>0</valuemin>
                                    <valuemax>100</valuemax>
                                </parameter>
                                <parameter>
                                    <name>bottom</name>
                                    <parameterid>bottom</parameterid>
                                    <value>0</value>
                                    <valuemin>0</valuemin>
                                    <valuemax>100</valuemax>
                                </parameter>
                            </effect>
                        </filter>
                    </clipitem>
                    <clipitem id="Samstag Morgen Multi 211">
                        <name>Samstag Morgen Multi</name>
                        <duration>115210</duration>
                        <rate>
                            <timebase>25</timebase>
                            <ntsc>false</ntsc>
                        </rate>
                        <start>70334</start>
                        <end>70687</end>
                        <enabled>true</enabled>
                        <in>70334</in>
                        <out>70687</out>
                        <file id="Samstag Morgen Multi 2"/>
                        <compositemode>normal</compositemode>
                        <filter>
                            <enabled>true</enabled>
                            <start>0</start>
                            <end>115210</end>
                            <effect>
                                <name>Opacity</name>
                                <effectid>opacity</effectid>
                                <effecttype>motion</effecttype>
                                <mediatype>video</mediatype>
                                <effectcategory>motion</effectcategory>
                                <parameter>
                                    <name>opacity</name>
                                    <parameterid>opacity</parameterid>
                                    <value>100</value>
                                    <valuemin>0</valuemin>
                                    <valuemax>100</valuemax>
                                </parameter>
                            </effect>
                        </filter>
                        <filter>
                            <enabled>true</enabled>
                            <start>0</start>
                            <end>115210</end>
                            <effect>
                                <name>Basic Motion</name>
                                <effectid>basic</effectid>
                                <effecttype>motion</effecttype>
                                <mediatype>video</mediatype>
                                <effectcategory>motion</effectcategory>
                                <parameter>
                                    <name>Scale</name>
                                    <parameterid>scale</parameterid>
                                    <value>100</value>
                                    <valuemin>25</valuemin>
                                    <valuemax>400</valuemax>
                                </parameter>
                                <parameter>
                                    <name>Center</name>
                                    <parameterid>center</parameterid>
                                    <value>
                                        <horiz>0</horiz>
                                        <vert>0</vert>
                                    </value>
                                </parameter>
                                <parameter>
                                    <name>Rotation</name>
                                    <parameterid>rotation</parameterid>
                                    <value>0</value>
                                    <valuemin>-100000</valuemin>
                                    <valuemax>100000</valuemax>
                                </parameter>
                                <parameter>
                                    <name>Anchor Point</name>
                                    <parameterid>centerOffset</parameterid>
                                    <value>
                                        <horiz>0</horiz>
                                        <vert>0</vert>
                                    </value>
                                </parameter>
                            </effect>
                        </filter>
                        <filter>
                            <enabled>true</enabled>
                            <start>0</start>
                            <end>115210</end>
                            <effect>
                                <name>Crop</name>
                                <effectid>crop</effectid>
                                <effecttype>motion</effecttype>
                                <mediatype>video</mediatype>
                                <effectcategory>motion</effectcategory>
                                <parameter>
                                    <name>left</name>
                                    <parameterid>left</parameterid>
                                    <value>0</value>
                                    <valuemin>0</valuemin>
                                    <valuemax>100</valuemax>
                                </parameter>
                                <parameter>
                                    <name>right</name>
                                    <parameterid>right</parameterid>
                                    <value>0</value>
                                    <valuemin>0</valuemin>
                                    <valuemax>100</valuemax>
                                </parameter>
                                <parameter>
                                    <name>top</name>
                                    <parameterid>top</parameterid>
                                    <value>0</value>
                                    <valuemin>0</valuemin>
                                    <valuemax>100</valuemax>
                                </parameter>
                                <parameter>
                                    <name>bottom</name>
                                    <parameterid>bottom</parameterid>
                                    <value>0</value>
                                    <valuemin>0</valuemin>
                                    <valuemax>100</valuemax>
                                </parameter>
                            </effect>
                        </filter>
                    </clipitem>
                    <clipitem id="Samstag Morgen Multi 213">
                        <name>Samstag Morgen Multi</name>
                        <duration>115210</duration>
                        <rate>
                            <timebase>25</timebase>
                            <ntsc>false</ntsc>
                        </rate>
                        <start>70687</start>
                        <end>71208</end>
                        <enabled>true</enabled>
                        <in>70687</in>
                        <out>71208</out>
                        <file id="Samstag Morgen Multi 2"/>
                        <compositemode>normal</compositemode>
                        <filter>
                            <enabled>true</enabled>
                            <start>0</start>
                            <end>115210</end>
                            <effect>
                                <name>Opacity</name>
                                <effectid>opacity</effectid>
                                <effecttype>motion</effecttype>
                                <mediatype>video</mediatype>
                                <effectcategory>motion</effectcategory>
                                <parameter>
                                    <name>opacity</name>
                                    <parameterid>opacity</parameterid>
                                    <value>100</value>
                                    <valuemin>0</valuemin>
                                    <valuemax>100</valuemax>
                                </parameter>
                            </effect>
                        </filter>
                        <filter>
                            <enabled>true</enabled>
                            <start>0</start>
                            <end>115210</end>
                            <effect>
                                <name>Basic Motion</name>
                                <effectid>basic</effectid>
                                <effecttype>motion</effecttype>
                                <mediatype>video</mediatype>
                                <effectcategory>motion</effectcategory>
                                <parameter>
                                    <name>Scale</name>
                                    <parameterid>scale</parameterid>
                                    <value>200</value>
                                    <valuemin>25</valuemin>
                                    <valuemax>400</valuemax>
                                </parameter>
                                <parameter>
                                    <name>Center</name>
                                    <parameterid>center</parameterid>
                                    <value>
                                        <horiz>0.289062976837158</horiz>
                                        <vert>-0.124074161052704</vert>
                                    </value>
                                </parameter>
                                <parameter>
                                    <name>Rotation</name>
                                    <parameterid>rotation</parameterid>
                                    <value>0</value>
                                    <valuemin>-100000</valuemin>
                                    <valuemax>100000</valuemax>
                                </parameter>
                                <parameter>
                                    <name>Anchor Point</name>
                                    <parameterid>centerOffset</parameterid>
                                    <value>
                                        <horiz>0</horiz>
                                        <vert>0</vert>
                                    </value>
                                </parameter>
                            </effect>
                        </filter>
                        <filter>
                            <enabled>true</enabled>
                            <start>0</start>
                            <end>115210</end>
                            <effect>
                                <name>Crop</name>
                                <effectid>crop</effectid>
                                <effecttype>motion</effecttype>
                                <mediatype>video</mediatype>
                                <effectcategory>motion</effectcategory>
                                <parameter>
                                    <name>left</name>
                                    <parameterid>left</parameterid>
                                    <value>0</value>
                                    <valuemin>0</valuemin>
                                    <valuemax>100</valuemax>
                                </parameter>
                                <parameter>
                                    <name>right</name>
                                    <parameterid>right</parameterid>
                                    <value>0</value>
                                    <valuemin>0</valuemin>
                                    <valuemax>100</valuemax>
                                </parameter>
                                <parameter>
                                    <name>top</name>
                                    <parameterid>top</parameterid>
                                    <value>0</value>
                                    <valuemin>0</valuemin>
                                    <valuemax>100</valuemax>
                                </parameter>
                                <parameter>
                                    <name>bottom</name>
                                    <parameterid>bottom</parameterid>
                                    <value>0</value>
                                    <valuemin>0</valuemin>
                                    <valuemax>100</valuemax>
                                </parameter>
                            </effect>
                        </filter>
                    </clipitem>
                    <clipitem id="Samstag Morgen Multi 215">
                        <name>Samstag Morgen Multi</name>
                        <duration>115210</duration>
                        <rate>
                            <timebase>25</timebase>
                            <ntsc>false</ntsc>
                        </rate>
                        <start>71208</start>
                        <end>71635</end>
                        <enabled>true</enabled>
                        <in>71208</in>
                        <out>71635</out>
                        <file id="Samstag Morgen Multi 2"/>
                        <compositemode>normal</compositemode>
                        <filter>
                            <enabled>true</enabled>
                            <start>0</start>
                            <end>115210</end>
                            <effect>
                                <name>Opacity</name>
                                <effectid>opacity</effectid>
                                <effecttype>motion</effecttype>
                                <mediatype>video</mediatype>
                                <effectcategory>motion</effectcategory>
                                <parameter>
                                    <name>opacity</name>
                                    <parameterid>opacity</parameterid>
                                    <value>100</value>
                                    <valuemin>0</valuemin>
                                    <valuemax>100</valuemax>
                                </parameter>
                            </effect>
                        </filter>
                        <filter>
                            <enabled>true</enabled>
                            <start>0</start>
                            <end>115210</end>
                            <effect>
                                <name>Basic Motion</name>
                                <effectid>basic</effectid>
                                <effecttype>motion</effecttype>
                                <mediatype>video</mediatype>
                                <effectcategory>motion</effectcategory>
                                <parameter>
                                    <name>Scale</name>
                                    <parameterid>scale</parameterid>
                                    <value>100</value>
                                    <valuemin>25</valuemin>
                                    <valuemax>400</valuemax>
                                </parameter>
                                <parameter>
                                    <name>Center</name>
                                    <parameterid>center</parameterid>
                                    <value>
                                        <horiz>0</horiz>
                                        <vert>0</vert>
                                    </value>
                                </parameter>
                                <parameter>
                                    <name>Rotation</name>
                                    <parameterid>rotation</parameterid>
                                    <value>0</value>
                                    <valuemin>-100000</valuemin>
                                    <valuemax>100000</valuemax>
                                </parameter>
                                <parameter>
                                    <name>Anchor Point</name>
                                    <parameterid>centerOffset</parameterid>
                                    <value>
                                        <horiz>0</horiz>
                                        <vert>0</vert>
                                    </value>
                                </parameter>
                            </effect>
                        </filter>
                        <filter>
                            <enabled>true</enabled>
                            <start>0</start>
                            <end>115210</end>
                            <effect>
                                <name>Crop</name>
                                <effectid>crop</effectid>
                                <effecttype>motion</effecttype>
                                <mediatype>video</mediatype>
                                <effectcategory>motion</effectcategory>
                                <parameter>
                                    <name>left</name>
                                    <parameterid>left</parameterid>
                                    <value>0</value>
                                    <valuemin>0</valuemin>
                                    <valuemax>100</valuemax>
                                </parameter>
                                <parameter>
                                    <name>right</name>
                                    <parameterid>right</parameterid>
                                    <value>0</value>
                                    <valuemin>0</valuemin>
                                    <valuemax>100</valuemax>
                                </parameter>
                                <parameter>
                                    <name>top</name>
                                    <parameterid>top</parameterid>
                                    <value>0</value>
                                    <valuemin>0</valuemin>
                                    <valuemax>100</valuemax>
                                </parameter>
                                <parameter>
                                    <name>bottom</name>
                                    <parameterid>bottom</parameterid>
                                    <value>0</value>
                                    <valuemin>0</valuemin>
                                    <valuemax>100</valuemax>
                                </parameter>
                            </effect>
                        </filter>
                    </clipitem>
                    <clipitem id="Samstag Morgen Multi 217">
                        <name>Samstag Morgen Multi</name>
                        <duration>115210</duration>
                        <rate>
                            <timebase>25</timebase>
                            <ntsc>false</ntsc>
                        </rate>
                        <start>71635</start>
                        <end>72078</end>
                        <enabled>true</enabled>
                        <in>71366</in>
                        <out>71809</out>
                        <file id="Samstag Morgen Multi 2"/>
                        <compositemode>normal</compositemode>
                        <filter>
                            <enabled>true</enabled>
                            <start>0</start>
                            <end>115210</end>
                            <effect>
                                <name>Opacity</name>
                                <effectid>opacity</effectid>
                                <effecttype>motion</effecttype>
                                <mediatype>video</mediatype>
                                <effectcategory>motion</effectcategory>
                                <parameter>
                                    <name>opacity</name>
                                    <parameterid>opacity</parameterid>
                                    <value>100</value>
                                    <valuemin>0</valuemin>
                                    <valuemax>100</valuemax>
                                </parameter>
                            </effect>
                        </filter>
                        <filter>
                            <enabled>true</enabled>
                            <start>0</start>
                            <end>115210</end>
                            <effect>
                                <name>Basic Motion</name>
                                <effectid>basic</effectid>
                                <effecttype>motion</effecttype>
                                <mediatype>video</mediatype>
                                <effectcategory>motion</effectcategory>
                                <parameter>
                                    <name>Scale</name>
                                    <parameterid>scale</parameterid>
                                    <value>100</value>
                                    <valuemin>25</valuemin>
                                    <valuemax>400</valuemax>
                                </parameter>
                                <parameter>
                                    <name>Center</name>
                                    <parameterid>center</parameterid>
                                    <value>
                                        <horiz>0</horiz>
                                        <vert>0</vert>
                                    </value>
                                </parameter>
                                <parameter>
                                    <name>Rotation</name>
                                    <parameterid>rotation</parameterid>
                                    <value>0</value>
                                    <valuemin>-100000</valuemin>
                                    <valuemax>100000</valuemax>
                                </parameter>
                                <parameter>
                                    <name>Anchor Point</name>
                                    <parameterid>centerOffset</parameterid>
                                    <value>
                                        <horiz>0</horiz>
                                        <vert>0</vert>
                                    </value>
                                </parameter>
                            </effect>
                        </filter>
                        <filter>
                            <enabled>true</enabled>
                            <start>0</start>
                            <end>115210</end>
                            <effect>
                                <name>Crop</name>
                                <effectid>crop</effectid>
                                <effecttype>motion</effecttype>
                                <mediatype>video</mediatype>
                                <effectcategory>motion</effectcategory>
                                <parameter>
                                    <name>left</name>
                                    <parameterid>left</parameterid>
                                    <value>0</value>
                                    <valuemin>0</valuemin>
                                    <valuemax>100</valuemax>
                                </parameter>
                                <parameter>
                                    <name>right</name>
                                    <parameterid>right</parameterid>
                                    <value>0</value>
                                    <valuemin>0</valuemin>
                                    <valuemax>100</valuemax>
                                </parameter>
                                <parameter>
                                    <name>top</name>
                                    <parameterid>top</parameterid>
                                    <value>0</value>
                                    <valuemin>0</valuemin>
                                    <valuemax>100</valuemax>
                                </parameter>
                                <parameter>
                                    <name>bottom</name>
                                    <parameterid>bottom</parameterid>
                                    <value>0</value>
                                    <valuemin>0</valuemin>
                                    <valuemax>100</valuemax>
                                </parameter>
                            </effect>
                        </filter>
                    </clipitem>
                    <clipitem id="Samstag Morgen Multi 219">
                        <name>Samstag Morgen Multi</name>
                        <duration>115210</duration>
                        <rate>
                            <timebase>25</timebase>
                            <ntsc>false</ntsc>
                        </rate>
                        <start>72080</start>
                        <end>72256</end>
                        <enabled>true</enabled>
                        <in>72080</in>
                        <out>72256</out>
                        <file id="Samstag Morgen Multi 2"/>
                        <compositemode>normal</compositemode>
                        <filter>
                            <enabled>true</enabled>
                            <start>0</start>
                            <end>115210</end>
                            <effect>
                                <name>Opacity</name>
                                <effectid>opacity</effectid>
                                <effecttype>motion</effecttype>
                                <mediatype>video</mediatype>
                                <effectcategory>motion</effectcategory>
                                <parameter>
                                    <name>opacity</name>
                                    <parameterid>opacity</parameterid>
                                    <value>100</value>
                                    <valuemin>0</valuemin>
                                    <valuemax>100</valuemax>
                                </parameter>
                            </effect>
                        </filter>
                        <filter>
                            <enabled>true</enabled>
                            <start>0</start>
                            <end>115210</end>
                            <effect>
                                <name>Basic Motion</name>
                                <effectid>basic</effectid>
                                <effecttype>motion</effecttype>
                                <mediatype>video</mediatype>
                                <effectcategory>motion</effectcategory>
                                <parameter>
                                    <name>Scale</name>
                                    <parameterid>scale</parameterid>
                                    <value>100</value>
                                    <valuemin>25</valuemin>
                                    <valuemax>400</valuemax>
                                </parameter>
                                <parameter>
                                    <name>Center</name>
                                    <parameterid>center</parameterid>
                                    <value>
                                        <horiz>0</horiz>
                                        <vert>0</vert>
                                    </value>
                                </parameter>
                                <parameter>
                                    <name>Rotation</name>
                                    <parameterid>rotation</parameterid>
                                    <value>0</value>
                                    <valuemin>-100000</valuemin>
                                    <valuemax>100000</valuemax>
                                </parameter>
                                <parameter>
                                    <name>Anchor Point</name>
                                    <parameterid>centerOffset</parameterid>
                                    <value>
                                        <horiz>0</horiz>
                                        <vert>0</vert>
                                    </value>
                                </parameter>
                            </effect>
                        </filter>
                        <filter>
                            <enabled>true</enabled>
                            <start>0</start>
                            <end>115210</end>
                            <effect>
                                <name>Crop</name>
                                <effectid>crop</effectid>
                                <effecttype>motion</effecttype>
                                <mediatype>video</mediatype>
                                <effectcategory>motion</effectcategory>
                                <parameter>
                                    <name>left</name>
                                    <parameterid>left</parameterid>
                                    <value>0</value>
                                    <valuemin>0</valuemin>
                                    <valuemax>100</valuemax>
                                </parameter>
                                <parameter>
                                    <name>right</name>
                                    <parameterid>right</parameterid>
                                    <value>0</value>
                                    <valuemin>0</valuemin>
                                    <valuemax>100</valuemax>
                                </parameter>
                                <parameter>
                                    <name>top</name>
                                    <parameterid>top</parameterid>
                                    <value>0</value>
                                    <valuemin>0</valuemin>
                                    <valuemax>100</valuemax>
                                </parameter>
                                <parameter>
                                    <name>bottom</name>
                                    <parameterid>bottom</parameterid>
                                    <value>0</value>
                                    <valuemin>0</valuemin>
                                    <valuemax>100</valuemax>
                                </parameter>
                            </effect>
                        </filter>
                    </clipitem>
                    <clipitem id="Samstag Morgen Multi 221">
                        <name>Samstag Morgen Multi</name>
                        <duration>115210</duration>
                        <rate>
                            <timebase>25</timebase>
                            <ntsc>false</ntsc>
                        </rate>
                        <start>72256</start>
                        <end>72631</end>
                        <enabled>true</enabled>
                        <in>72256</in>
                        <out>72631</out>
                        <file id="Samstag Morgen Multi 2"/>
                        <compositemode>normal</compositemode>
                        <filter>
                            <enabled>true</enabled>
                            <start>0</start>
                            <end>115210</end>
                            <effect>
                                <name>Opacity</name>
                                <effectid>opacity</effectid>
                                <effecttype>motion</effecttype>
                                <mediatype>video</mediatype>
                                <effectcategory>motion</effectcategory>
                                <parameter>
                                    <name>opacity</name>
                                    <parameterid>opacity</parameterid>
                                    <value>100</value>
                                    <valuemin>0</valuemin>
                                    <valuemax>100</valuemax>
                                </parameter>
                            </effect>
                        </filter>
                        <filter>
                            <enabled>true</enabled>
                            <start>0</start>
                            <end>115210</end>
                            <effect>
                                <name>Basic Motion</name>
                                <effectid>basic</effectid>
                                <effecttype>motion</effecttype>
                                <mediatype>video</mediatype>
                                <effectcategory>motion</effectcategory>
                                <parameter>
                                    <name>Scale</name>
                                    <parameterid>scale</parameterid>
                                    <value>100</value>
                                    <valuemin>25</valuemin>
                                    <valuemax>400</valuemax>
                                </parameter>
                                <parameter>
                                    <name>Center</name>
                                    <parameterid>center</parameterid>
                                    <value>
                                        <horiz>0</horiz>
                                        <vert>0</vert>
                                    </value>
                                </parameter>
                                <parameter>
                                    <name>Rotation</name>
                                    <parameterid>rotation</parameterid>
                                    <value>0</value>
                                    <valuemin>-100000</valuemin>
                                    <valuemax>100000</valuemax>
                                </parameter>
                                <parameter>
                                    <name>Anchor Point</name>
                                    <parameterid>centerOffset</parameterid>
                                    <value>
                                        <horiz>0</horiz>
                                        <vert>0</vert>
                                    </value>
                                </parameter>
                            </effect>
                        </filter>
                        <filter>
                            <enabled>true</enabled>
                            <start>0</start>
                            <end>115210</end>
                            <effect>
                                <name>Crop</name>
                                <effectid>crop</effectid>
                                <effecttype>motion</effecttype>
                                <mediatype>video</mediatype>
                                <effectcategory>motion</effectcategory>
                                <parameter>
                                    <name>left</name>
                                    <parameterid>left</parameterid>
                                    <value>0</value>
                                    <valuemin>0</valuemin>
                                    <valuemax>100</valuemax>
                                </parameter>
                                <parameter>
                                    <name>right</name>
                                    <parameterid>right</parameterid>
                                    <value>0</value>
                                    <valuemin>0</valuemin>
                                    <valuemax>100</valuemax>
                                </parameter>
                                <parameter>
                                    <name>top</name>
                                    <parameterid>top</parameterid>
                                    <value>0</value>
                                    <valuemin>0</valuemin>
                                    <valuemax>100</valuemax>
                                </parameter>
                                <parameter>
                                    <name>bottom</name>
                                    <parameterid>bottom</parameterid>
                                    <value>0</value>
                                    <valuemin>0</valuemin>
                                    <valuemax>100</valuemax>
                                </parameter>
                            </effect>
                        </filter>
                    </clipitem>
                    <clipitem id="Samstag Morgen Multi 223">
                        <name>Samstag Morgen Multi</name>
                        <duration>115210</duration>
                        <rate>
                            <timebase>25</timebase>
                            <ntsc>false</ntsc>
                        </rate>
                        <start>72631</start>
                        <end>72815</end>
                        <enabled>true</enabled>
                        <in>72631</in>
                        <out>72815</out>
                        <file id="Samstag Morgen Multi 2"/>
                        <compositemode>normal</compositemode>
                        <filter>
                            <enabled>true</enabled>
                            <start>0</start>
                            <end>115210</end>
                            <effect>
                                <name>Opacity</name>
                                <effectid>opacity</effectid>
                                <effecttype>motion</effecttype>
                                <mediatype>video</mediatype>
                                <effectcategory>motion</effectcategory>
                                <parameter>
                                    <name>opacity</name>
                                    <parameterid>opacity</parameterid>
                                    <value>100</value>
                                    <valuemin>0</valuemin>
                                    <valuemax>100</valuemax>
                                </parameter>
                            </effect>
                        </filter>
                        <filter>
                            <enabled>true</enabled>
                            <start>0</start>
                            <end>115210</end>
                            <effect>
                                <name>Basic Motion</name>
                                <effectid>basic</effectid>
                                <effecttype>motion</effecttype>
                                <mediatype>video</mediatype>
                                <effectcategory>motion</effectcategory>
                                <parameter>
                                    <name>Scale</name>
                                    <parameterid>scale</parameterid>
                                    <value>100</value>
                                    <valuemin>25</valuemin>
                                    <valuemax>400</valuemax>
                                </parameter>
                                <parameter>
                                    <name>Center</name>
                                    <parameterid>center</parameterid>
                                    <value>
                                        <horiz>0</horiz>
                                        <vert>0</vert>
                                    </value>
                                </parameter>
                                <parameter>
                                    <name>Rotation</name>
                                    <parameterid>rotation</parameterid>
                                    <value>0</value>
                                    <valuemin>-100000</valuemin>
                                    <valuemax>100000</valuemax>
                                </parameter>
                                <parameter>
                                    <name>Anchor Point</name>
                                    <parameterid>centerOffset</parameterid>
                                    <value>
                                        <horiz>0</horiz>
                                        <vert>0</vert>
                                    </value>
                                </parameter>
                            </effect>
                        </filter>
                        <filter>
                            <enabled>true</enabled>
                            <start>0</start>
                            <end>115210</end>
                            <effect>
                                <name>Crop</name>
                                <effectid>crop</effectid>
                                <effecttype>motion</effecttype>
                                <mediatype>video</mediatype>
                                <effectcategory>motion</effectcategory>
                                <parameter>
                                    <name>left</name>
                                    <parameterid>left</parameterid>
                                    <value>0</value>
                                    <valuemin>0</valuemin>
                                    <valuemax>100</valuemax>
                                </parameter>
                                <parameter>
                                    <name>right</name>
                                    <parameterid>right</parameterid>
                                    <value>0</value>
                                    <valuemin>0</valuemin>
                                    <valuemax>100</valuemax>
                                </parameter>
                                <parameter>
                                    <name>top</name>
                                    <parameterid>top</parameterid>
                                    <value>0</value>
                                    <valuemin>0</valuemin>
                                    <valuemax>100</valuemax>
                                </parameter>
                                <parameter>
                                    <name>bottom</name>
                                    <parameterid>bottom</parameterid>
                                    <value>0</value>
                                    <valuemin>0</valuemin>
                                    <valuemax>100</valuemax>
                                </parameter>
                            </effect>
                        </filter>
                    </clipitem>
                    <clipitem id="Samstag Morgen Multi 225">
                        <name>Samstag Morgen Multi</name>
                        <duration>115210</duration>
                        <rate>
                            <timebase>25</timebase>
                            <ntsc>false</ntsc>
                        </rate>
                        <start>72815</start>
                        <end>73692</end>
                        <enabled>true</enabled>
                        <in>72815</in>
                        <out>73692</out>
                        <file id="Samstag Morgen Multi 2"/>
                        <compositemode>normal</compositemode>
                        <filter>
                            <enabled>true</enabled>
                            <start>0</start>
                            <end>115210</end>
                            <effect>
                                <name>Opacity</name>
                                <effectid>opacity</effectid>
                                <effecttype>motion</effecttype>
                                <mediatype>video</mediatype>
                                <effectcategory>motion</effectcategory>
                                <parameter>
                                    <name>opacity</name>
                                    <parameterid>opacity</parameterid>
                                    <value>100</value>
                                    <valuemin>0</valuemin>
                                    <valuemax>100</valuemax>
                                </parameter>
                            </effect>
                        </filter>
                        <filter>
                            <enabled>true</enabled>
                            <start>0</start>
                            <end>115210</end>
                            <effect>
                                <name>Basic Motion</name>
                                <effectid>basic</effectid>
                                <effecttype>motion</effecttype>
                                <mediatype>video</mediatype>
                                <effectcategory>motion</effectcategory>
                                <parameter>
                                    <name>Scale</name>
                                    <parameterid>scale</parameterid>
                                    <value>136</value>
                                    <valuemin>25</valuemin>
                                    <valuemax>400</valuemax>
                                </parameter>
                                <parameter>
                                    <name>Center</name>
                                    <parameterid>center</parameterid>
                                    <value>
                                        <horiz>0.1796875</horiz>
                                        <vert>-0.150000035762787</vert>
                                    </value>
                                </parameter>
                                <parameter>
                                    <name>Rotation</name>
                                    <parameterid>rotation</parameterid>
                                    <value>0</value>
                                    <valuemin>-100000</valuemin>
                                    <valuemax>100000</valuemax>
                                </parameter>
                                <parameter>
                                    <name>Anchor Point</name>
                                    <parameterid>centerOffset</parameterid>
                                    <value>
                                        <horiz>0</horiz>
                                        <vert>0</vert>
                                    </value>
                                </parameter>
                            </effect>
                        </filter>
                        <filter>
                            <enabled>true</enabled>
                            <start>0</start>
                            <end>115210</end>
                            <effect>
                                <name>Crop</name>
                                <effectid>crop</effectid>
                                <effecttype>motion</effecttype>
                                <mediatype>video</mediatype>
                                <effectcategory>motion</effectcategory>
                                <parameter>
                                    <name>left</name>
                                    <parameterid>left</parameterid>
                                    <value>0</value>
                                    <valuemin>0</valuemin>
                                    <valuemax>100</valuemax>
                                </parameter>
                                <parameter>
                                    <name>right</name>
                                    <parameterid>right</parameterid>
                                    <value>0</value>
                                    <valuemin>0</valuemin>
                                    <valuemax>100</valuemax>
                                </parameter>
                                <parameter>
                                    <name>top</name>
                                    <parameterid>top</parameterid>
                                    <value>0</value>
                                    <valuemin>0</valuemin>
                                    <valuemax>100</valuemax>
                                </parameter>
                                <parameter>
                                    <name>bottom</name>
                                    <parameterid>bottom</parameterid>
                                    <value>0</value>
                                    <valuemin>0</valuemin>
                                    <valuemax>100</valuemax>
                                </parameter>
                            </effect>
                        </filter>
                    </clipitem>
                    <clipitem id="Samstag Morgen Multi 227">
                        <name>Samstag Morgen Multi</name>
                        <duration>115210</duration>
                        <rate>
                            <timebase>25</timebase>
                            <ntsc>false</ntsc>
                        </rate>
                        <start>73692</start>
                        <end>73971</end>
                        <enabled>true</enabled>
                        <in>73692</in>
                        <out>73971</out>
                        <file id="Samstag Morgen Multi 2"/>
                        <compositemode>normal</compositemode>
                        <filter>
                            <enabled>true</enabled>
                            <start>0</start>
                            <end>115210</end>
                            <effect>
                                <name>Opacity</name>
                                <effectid>opacity</effectid>
                                <effecttype>motion</effecttype>
                                <mediatype>video</mediatype>
                                <effectcategory>motion</effectcategory>
                                <parameter>
                                    <name>opacity</name>
                                    <parameterid>opacity</parameterid>
                                    <value>100</value>
                                    <valuemin>0</valuemin>
                                    <valuemax>100</valuemax>
                                </parameter>
                            </effect>
                        </filter>
                        <filter>
                            <enabled>true</enabled>
                            <start>0</start>
                            <end>115210</end>
                            <effect>
                                <name>Basic Motion</name>
                                <effectid>basic</effectid>
                                <effecttype>motion</effecttype>
                                <mediatype>video</mediatype>
                                <effectcategory>motion</effectcategory>
                                <parameter>
                                    <name>Scale</name>
                                    <parameterid>scale</parameterid>
                                    <value>100</value>
                                    <valuemin>25</valuemin>
                                    <valuemax>400</valuemax>
                                </parameter>
                                <parameter>
                                    <name>Center</name>
                                    <parameterid>center</parameterid>
                                    <value>
                                        <horiz>0</horiz>
                                        <vert>0</vert>
                                    </value>
                                </parameter>
                                <parameter>
                                    <name>Rotation</name>
                                    <parameterid>rotation</parameterid>
                                    <value>0</value>
                                    <valuemin>-100000</valuemin>
                                    <valuemax>100000</valuemax>
                                </parameter>
                                <parameter>
                                    <name>Anchor Point</name>
                                    <parameterid>centerOffset</parameterid>
                                    <value>
                                        <horiz>0</horiz>
                                        <vert>0</vert>
                                    </value>
                                </parameter>
                            </effect>
                        </filter>
                        <filter>
                            <enabled>true</enabled>
                            <start>0</start>
                            <end>115210</end>
                            <effect>
                                <name>Crop</name>
                                <effectid>crop</effectid>
                                <effecttype>motion</effecttype>
                                <mediatype>video</mediatype>
                                <effectcategory>motion</effectcategory>
                                <parameter>
                                    <name>left</name>
                                    <parameterid>left</parameterid>
                                    <value>0</value>
                                    <valuemin>0</valuemin>
                                    <valuemax>100</valuemax>
                                </parameter>
                                <parameter>
                                    <name>right</name>
                                    <parameterid>right</parameterid>
                                    <value>0</value>
                                    <valuemin>0</valuemin>
                                    <valuemax>100</valuemax>
                                </parameter>
                                <parameter>
                                    <name>top</name>
                                    <parameterid>top</parameterid>
                                    <value>0</value>
                                    <valuemin>0</valuemin>
                                    <valuemax>100</valuemax>
                                </parameter>
                                <parameter>
                                    <name>bottom</name>
                                    <parameterid>bottom</parameterid>
                                    <value>0</value>
                                    <valuemin>0</valuemin>
                                    <valuemax>100</valuemax>
                                </parameter>
                            </effect>
                        </filter>
                    </clipitem>
                    <clipitem id="Samstag Morgen Multi 229">
                        <name>Samstag Morgen Multi</name>
                        <duration>115210</duration>
                        <rate>
                            <timebase>25</timebase>
                            <ntsc>false</ntsc>
                        </rate>
                        <start>73971</start>
                        <end>74507</end>
                        <enabled>true</enabled>
                        <in>73971</in>
                        <out>74507</out>
                        <file id="Samstag Morgen Multi 2"/>
                        <compositemode>normal</compositemode>
                        <filter>
                            <enabled>true</enabled>
                            <start>0</start>
                            <end>115210</end>
                            <effect>
                                <name>Opacity</name>
                                <effectid>opacity</effectid>
                                <effecttype>motion</effecttype>
                                <mediatype>video</mediatype>
                                <effectcategory>motion</effectcategory>
                                <parameter>
                                    <name>opacity</name>
                                    <parameterid>opacity</parameterid>
                                    <value>100</value>
                                    <valuemin>0</valuemin>
                                    <valuemax>100</valuemax>
                                </parameter>
                            </effect>
                        </filter>
                        <filter>
                            <enabled>true</enabled>
                            <start>0</start>
                            <end>115210</end>
                            <effect>
                                <name>Basic Motion</name>
                                <effectid>basic</effectid>
                                <effecttype>motion</effecttype>
                                <mediatype>video</mediatype>
                                <effectcategory>motion</effectcategory>
                                <parameter>
                                    <name>Scale</name>
                                    <parameterid>scale</parameterid>
                                    <value>136</value>
                                    <valuemin>25</valuemin>
                                    <valuemax>400</valuemax>
                                </parameter>
                                <parameter>
                                    <name>Center</name>
                                    <parameterid>center</parameterid>
                                    <value>
                                        <horiz>0.1796875</horiz>
                                        <vert>-0.149999976158142</vert>
                                    </value>
                                </parameter>
                                <parameter>
                                    <name>Rotation</name>
                                    <parameterid>rotation</parameterid>
                                    <value>0</value>
                                    <valuemin>-100000</valuemin>
                                    <valuemax>100000</valuemax>
                                </parameter>
                                <parameter>
                                    <name>Anchor Point</name>
                                    <parameterid>centerOffset</parameterid>
                                    <value>
                                        <horiz>0</horiz>
                                        <vert>0</vert>
                                    </value>
                                </parameter>
                            </effect>
                        </filter>
                        <filter>
                            <enabled>true</enabled>
                            <start>0</start>
                            <end>115210</end>
                            <effect>
                                <name>Crop</name>
                                <effectid>crop</effectid>
                                <effecttype>motion</effecttype>
                                <mediatype>video</mediatype>
                                <effectcategory>motion</effectcategory>
                                <parameter>
                                    <name>left</name>
                                    <parameterid>left</parameterid>
                                    <value>0</value>
                                    <valuemin>0</valuemin>
                                    <valuemax>100</valuemax>
                                </parameter>
                                <parameter>
                                    <name>right</name>
                                    <parameterid>right</parameterid>
                                    <value>0</value>
                                    <valuemin>0</valuemin>
                                    <valuemax>100</valuemax>
                                </parameter>
                                <parameter>
                                    <name>top</name>
                                    <parameterid>top</parameterid>
                                    <value>0</value>
                                    <valuemin>0</valuemin>
                                    <valuemax>100</valuemax>
                                </parameter>
                                <parameter>
                                    <name>bottom</name>
                                    <parameterid>bottom</parameterid>
                                    <value>0</value>
                                    <valuemin>0</valuemin>
                                    <valuemax>100</valuemax>
                                </parameter>
                            </effect>
                        </filter>
                    </clipitem>
                    <clipitem id="Samstag Morgen Multi 231">
                        <name>Samstag Morgen Multi</name>
                        <duration>115210</duration>
                        <rate>
                            <timebase>25</timebase>
                            <ntsc>false</ntsc>
                        </rate>
                        <start>74507</start>
                        <end>74948</end>
                        <enabled>true</enabled>
                        <in>74507</in>
                        <out>74948</out>
                        <file id="Samstag Morgen Multi 2"/>
                        <compositemode>normal</compositemode>
                        <filter>
                            <enabled>true</enabled>
                            <start>0</start>
                            <end>115210</end>
                            <effect>
                                <name>Opacity</name>
                                <effectid>opacity</effectid>
                                <effecttype>motion</effecttype>
                                <mediatype>video</mediatype>
                                <effectcategory>motion</effectcategory>
                                <parameter>
                                    <name>opacity</name>
                                    <parameterid>opacity</parameterid>
                                    <value>100</value>
                                    <valuemin>0</valuemin>
                                    <valuemax>100</valuemax>
                                </parameter>
                            </effect>
                        </filter>
                        <filter>
                            <enabled>true</enabled>
                            <start>0</start>
                            <end>115210</end>
                            <effect>
                                <name>Basic Motion</name>
                                <effectid>basic</effectid>
                                <effecttype>motion</effecttype>
                                <mediatype>video</mediatype>
                                <effectcategory>motion</effectcategory>
                                <parameter>
                                    <name>Scale</name>
                                    <parameterid>scale</parameterid>
                                    <value>100</value>
                                    <valuemin>25</valuemin>
                                    <valuemax>400</valuemax>
                                </parameter>
                                <parameter>
                                    <name>Center</name>
                                    <parameterid>center</parameterid>
                                    <value>
                                        <horiz>0</horiz>
                                        <vert>0</vert>
                                    </value>
                                </parameter>
                                <parameter>
                                    <name>Rotation</name>
                                    <parameterid>rotation</parameterid>
                                    <value>0</value>
                                    <valuemin>-100000</valuemin>
                                    <valuemax>100000</valuemax>
                                </parameter>
                                <parameter>
                                    <name>Anchor Point</name>
                                    <parameterid>centerOffset</parameterid>
                                    <value>
                                        <horiz>0</horiz>
                                        <vert>0</vert>
                                    </value>
                                </parameter>
                            </effect>
                        </filter>
                        <filter>
                            <enabled>true</enabled>
                            <start>0</start>
                            <end>115210</end>
                            <effect>
                                <name>Crop</name>
                                <effectid>crop</effectid>
                                <effecttype>motion</effecttype>
                                <mediatype>video</mediatype>
                                <effectcategory>motion</effectcategory>
                                <parameter>
                                    <name>left</name>
                                    <parameterid>left</parameterid>
                                    <value>0</value>
                                    <valuemin>0</valuemin>
                                    <valuemax>100</valuemax>
                                </parameter>
                                <parameter>
                                    <name>right</name>
                                    <parameterid>right</parameterid>
                                    <value>0</value>
                                    <valuemin>0</valuemin>
                                    <valuemax>100</valuemax>
                                </parameter>
                                <parameter>
                                    <name>top</name>
                                    <parameterid>top</parameterid>
                                    <value>0</value>
                                    <valuemin>0</valuemin>
                                    <valuemax>100</valuemax>
                                </parameter>
                                <parameter>
                                    <name>bottom</name>
                                    <parameterid>bottom</parameterid>
                                    <value>0</value>
                                    <valuemin>0</valuemin>
                                    <valuemax>100</valuemax>
                                </parameter>
                            </effect>
                        </filter>
                    </clipitem>
                    <clipitem id="Samstag Morgen Multi 233">
                        <name>Samstag Morgen Multi</name>
                        <duration>115210</duration>
                        <rate>
                            <timebase>25</timebase>
                            <ntsc>false</ntsc>
                        </rate>
                        <start>74948</start>
                        <end>76113</end>
                        <enabled>true</enabled>
                        <in>74948</in>
                        <out>76113</out>
                        <file id="Samstag Morgen Multi 2"/>
                        <compositemode>normal</compositemode>
                        <filter>
                            <enabled>true</enabled>
                            <start>0</start>
                            <end>115210</end>
                            <effect>
                                <name>Opacity</name>
                                <effectid>opacity</effectid>
                                <effecttype>motion</effecttype>
                                <mediatype>video</mediatype>
                                <effectcategory>motion</effectcategory>
                                <parameter>
                                    <name>opacity</name>
                                    <parameterid>opacity</parameterid>
                                    <value>100</value>
                                    <valuemin>0</valuemin>
                                    <valuemax>100</valuemax>
                                </parameter>
                            </effect>
                        </filter>
                        <filter>
                            <enabled>true</enabled>
                            <start>0</start>
                            <end>115210</end>
                            <effect>
                                <name>Basic Motion</name>
                                <effectid>basic</effectid>
                                <effecttype>motion</effecttype>
                                <mediatype>video</mediatype>
                                <effectcategory>motion</effectcategory>
                                <parameter>
                                    <name>Scale</name>
                                    <parameterid>scale</parameterid>
                                    <value>136</value>
                                    <valuemin>25</valuemin>
                                    <valuemax>400</valuemax>
                                </parameter>
                                <parameter>
                                    <name>Center</name>
                                    <parameterid>center</parameterid>
                                    <value>
                                        <horiz>0.1796875</horiz>
                                        <vert>-0.149999976158142</vert>
                                    </value>
                                </parameter>
                                <parameter>
                                    <name>Rotation</name>
                                    <parameterid>rotation</parameterid>
                                    <value>0</value>
                                    <valuemin>-100000</valuemin>
                                    <valuemax>100000</valuemax>
                                </parameter>
                                <parameter>
                                    <name>Anchor Point</name>
                                    <parameterid>centerOffset</parameterid>
                                    <value>
                                        <horiz>0</horiz>
                                        <vert>0</vert>
                                    </value>
                                </parameter>
                            </effect>
                        </filter>
                        <filter>
                            <enabled>true</enabled>
                            <start>0</start>
                            <end>115210</end>
                            <effect>
                                <name>Crop</name>
                                <effectid>crop</effectid>
                                <effecttype>motion</effecttype>
                                <mediatype>video</mediatype>
                                <effectcategory>motion</effectcategory>
                                <parameter>
                                    <name>left</name>
                                    <parameterid>left</parameterid>
                                    <value>0</value>
                                    <valuemin>0</valuemin>
                                    <valuemax>100</valuemax>
                                </parameter>
                                <parameter>
                                    <name>right</name>
                                    <parameterid>right</parameterid>
                                    <value>0</value>
                                    <valuemin>0</valuemin>
                                    <valuemax>100</valuemax>
                                </parameter>
                                <parameter>
                                    <name>top</name>
                                    <parameterid>top</parameterid>
                                    <value>0</value>
                                    <valuemin>0</valuemin>
                                    <valuemax>100</valuemax>
                                </parameter>
                                <parameter>
                                    <name>bottom</name>
                                    <parameterid>bottom</parameterid>
                                    <value>0</value>
                                    <valuemin>0</valuemin>
                                    <valuemax>100</valuemax>
                                </parameter>
                            </effect>
                        </filter>
                    </clipitem>
                    <clipitem id="Samstag Morgen Multi 235">
                        <name>Samstag Morgen Multi</name>
                        <duration>115210</duration>
                        <rate>
                            <timebase>25</timebase>
                            <ntsc>false</ntsc>
                        </rate>
                        <start>76113</start>
                        <end>76483</end>
                        <enabled>true</enabled>
                        <in>76113</in>
                        <out>76483</out>
                        <file id="Samstag Morgen Multi 2"/>
                        <compositemode>normal</compositemode>
                        <filter>
                            <enabled>true</enabled>
                            <start>0</start>
                            <end>115210</end>
                            <effect>
                                <name>Opacity</name>
                                <effectid>opacity</effectid>
                                <effecttype>motion</effecttype>
                                <mediatype>video</mediatype>
                                <effectcategory>motion</effectcategory>
                                <parameter>
                                    <name>opacity</name>
                                    <parameterid>opacity</parameterid>
                                    <value>100</value>
                                    <valuemin>0</valuemin>
                                    <valuemax>100</valuemax>
                                </parameter>
                            </effect>
                        </filter>
                        <filter>
                            <enabled>true</enabled>
                            <start>0</start>
                            <end>115210</end>
                            <effect>
                                <name>Basic Motion</name>
                                <effectid>basic</effectid>
                                <effecttype>motion</effecttype>
                                <mediatype>video</mediatype>
                                <effectcategory>motion</effectcategory>
                                <parameter>
                                    <name>Scale</name>
                                    <parameterid>scale</parameterid>
                                    <value>100</value>
                                    <valuemin>25</valuemin>
                                    <valuemax>400</valuemax>
                                </parameter>
                                <parameter>
                                    <name>Center</name>
                                    <parameterid>center</parameterid>
                                    <value>
                                        <horiz>0</horiz>
                                        <vert>0</vert>
                                    </value>
                                </parameter>
                                <parameter>
                                    <name>Rotation</name>
                                    <parameterid>rotation</parameterid>
                                    <value>0</value>
                                    <valuemin>-100000</valuemin>
                                    <valuemax>100000</valuemax>
                                </parameter>
                                <parameter>
                                    <name>Anchor Point</name>
                                    <parameterid>centerOffset</parameterid>
                                    <value>
                                        <horiz>0</horiz>
                                        <vert>0</vert>
                                    </value>
                                </parameter>
                            </effect>
                        </filter>
                        <filter>
                            <enabled>true</enabled>
                            <start>0</start>
                            <end>115210</end>
                            <effect>
                                <name>Crop</name>
                                <effectid>crop</effectid>
                                <effecttype>motion</effecttype>
                                <mediatype>video</mediatype>
                                <effectcategory>motion</effectcategory>
                                <parameter>
                                    <name>left</name>
                                    <parameterid>left</parameterid>
                                    <value>0</value>
                                    <valuemin>0</valuemin>
                                    <valuemax>100</valuemax>
                                </parameter>
                                <parameter>
                                    <name>right</name>
                                    <parameterid>right</parameterid>
                                    <value>0</value>
                                    <valuemin>0</valuemin>
                                    <valuemax>100</valuemax>
                                </parameter>
                                <parameter>
                                    <name>top</name>
                                    <parameterid>top</parameterid>
                                    <value>0</value>
                                    <valuemin>0</valuemin>
                                    <valuemax>100</valuemax>
                                </parameter>
                                <parameter>
                                    <name>bottom</name>
                                    <parameterid>bottom</parameterid>
                                    <value>0</value>
                                    <valuemin>0</valuemin>
                                    <valuemax>100</valuemax>
                                </parameter>
                            </effect>
                        </filter>
                    </clipitem>
                    <clipitem id="Samstag Morgen Multi 237">
                        <name>Samstag Morgen Multi</name>
                        <duration>115210</duration>
                        <rate>
                            <timebase>25</timebase>
                            <ntsc>false</ntsc>
                        </rate>
                        <start>76483</start>
                        <end>76655</end>
                        <enabled>true</enabled>
                        <in>76483</in>
                        <out>76655</out>
                        <file id="Samstag Morgen Multi 2"/>
                        <compositemode>normal</compositemode>
                        <filter>
                            <enabled>true</enabled>
                            <start>0</start>
                            <end>115210</end>
                            <effect>
                                <name>Opacity</name>
                                <effectid>opacity</effectid>
                                <effecttype>motion</effecttype>
                                <mediatype>video</mediatype>
                                <effectcategory>motion</effectcategory>
                                <parameter>
                                    <name>opacity</name>
                                    <parameterid>opacity</parameterid>
                                    <value>100</value>
                                    <valuemin>0</valuemin>
                                    <valuemax>100</valuemax>
                                </parameter>
                            </effect>
                        </filter>
                        <filter>
                            <enabled>true</enabled>
                            <start>0</start>
                            <end>115210</end>
                            <effect>
                                <name>Basic Motion</name>
                                <effectid>basic</effectid>
                                <effecttype>motion</effecttype>
                                <mediatype>video</mediatype>
                                <effectcategory>motion</effectcategory>
                                <parameter>
                                    <name>Scale</name>
                                    <parameterid>scale</parameterid>
                                    <value>136</value>
                                    <valuemin>25</valuemin>
                                    <valuemax>400</valuemax>
                                </parameter>
                                <parameter>
                                    <name>Center</name>
                                    <parameterid>center</parameterid>
                                    <value>
                                        <horiz>0.1796875</horiz>
                                        <vert>-0.149999976158142</vert>
                                    </value>
                                </parameter>
                                <parameter>
                                    <name>Rotation</name>
                                    <parameterid>rotation</parameterid>
                                    <value>0</value>
                                    <valuemin>-100000</valuemin>
                                    <valuemax>100000</valuemax>
                                </parameter>
                                <parameter>
                                    <name>Anchor Point</name>
                                    <parameterid>centerOffset</parameterid>
                                    <value>
                                        <horiz>0</horiz>
                                        <vert>0</vert>
                                    </value>
                                </parameter>
                            </effect>
                        </filter>
                        <filter>
                            <enabled>true</enabled>
                            <start>0</start>
                            <end>115210</end>
                            <effect>
                                <name>Crop</name>
                                <effectid>crop</effectid>
                                <effecttype>motion</effecttype>
                                <mediatype>video</mediatype>
                                <effectcategory>motion</effectcategory>
                                <parameter>
                                    <name>left</name>
                                    <parameterid>left</parameterid>
                                    <value>0</value>
                                    <valuemin>0</valuemin>
                                    <valuemax>100</valuemax>
                                </parameter>
                                <parameter>
                                    <name>right</name>
                                    <parameterid>right</parameterid>
                                    <value>0</value>
                                    <valuemin>0</valuemin>
                                    <valuemax>100</valuemax>
                                </parameter>
                                <parameter>
                                    <name>top</name>
                                    <parameterid>top</parameterid>
                                    <value>0</value>
                                    <valuemin>0</valuemin>
                                    <valuemax>100</valuemax>
                                </parameter>
                                <parameter>
                                    <name>bottom</name>
                                    <parameterid>bottom</parameterid>
                                    <value>0</value>
                                    <valuemin>0</valuemin>
                                    <valuemax>100</valuemax>
                                </parameter>
                            </effect>
                        </filter>
                    </clipitem>
                    <clipitem id="Samstag Morgen Multi 239">
                        <name>Samstag Morgen Multi</name>
                        <duration>115210</duration>
                        <rate>
                            <timebase>25</timebase>
                            <ntsc>false</ntsc>
                        </rate>
                        <start>76655</start>
                        <end>76872</end>
                        <enabled>true</enabled>
                        <in>76655</in>
                        <out>76872</out>
                        <file id="Samstag Morgen Multi 2"/>
                        <compositemode>normal</compositemode>
                        <filter>
                            <enabled>true</enabled>
                            <start>0</start>
                            <end>115210</end>
                            <effect>
                                <name>Opacity</name>
                                <effectid>opacity</effectid>
                                <effecttype>motion</effecttype>
                                <mediatype>video</mediatype>
                                <effectcategory>motion</effectcategory>
                                <parameter>
                                    <name>opacity</name>
                                    <parameterid>opacity</parameterid>
                                    <value>100</value>
                                    <valuemin>0</valuemin>
                                    <valuemax>100</valuemax>
                                </parameter>
                            </effect>
                        </filter>
                        <filter>
                            <enabled>true</enabled>
                            <start>0</start>
                            <end>115210</end>
                            <effect>
                                <name>Basic Motion</name>
                                <effectid>basic</effectid>
                                <effecttype>motion</effecttype>
                                <mediatype>video</mediatype>
                                <effectcategory>motion</effectcategory>
                                <parameter>
                                    <name>Scale</name>
                                    <parameterid>scale</parameterid>
                                    <value>100</value>
                                    <valuemin>25</valuemin>
                                    <valuemax>400</valuemax>
                                </parameter>
                                <parameter>
                                    <name>Center</name>
                                    <parameterid>center</parameterid>
                                    <value>
                                        <horiz>0</horiz>
                                        <vert>0</vert>
                                    </value>
                                </parameter>
                                <parameter>
                                    <name>Rotation</name>
                                    <parameterid>rotation</parameterid>
                                    <value>0</value>
                                    <valuemin>-100000</valuemin>
                                    <valuemax>100000</valuemax>
                                </parameter>
                                <parameter>
                                    <name>Anchor Point</name>
                                    <parameterid>centerOffset</parameterid>
                                    <value>
                                        <horiz>0</horiz>
                                        <vert>0</vert>
                                    </value>
                                </parameter>
                            </effect>
                        </filter>
                        <filter>
                            <enabled>true</enabled>
                            <start>0</start>
                            <end>115210</end>
                            <effect>
                                <name>Crop</name>
                                <effectid>crop</effectid>
                                <effecttype>motion</effecttype>
                                <mediatype>video</mediatype>
                                <effectcategory>motion</effectcategory>
                                <parameter>
                                    <name>left</name>
                                    <parameterid>left</parameterid>
                                    <value>0</value>
                                    <valuemin>0</valuemin>
                                    <valuemax>100</valuemax>
                                </parameter>
                                <parameter>
                                    <name>right</name>
                                    <parameterid>right</parameterid>
                                    <value>0</value>
                                    <valuemin>0</valuemin>
                                    <valuemax>100</valuemax>
                                </parameter>
                                <parameter>
                                    <name>top</name>
                                    <parameterid>top</parameterid>
                                    <value>0</value>
                                    <valuemin>0</valuemin>
                                    <valuemax>100</valuemax>
                                </parameter>
                                <parameter>
                                    <name>bottom</name>
                                    <parameterid>bottom</parameterid>
                                    <value>0</value>
                                    <valuemin>0</valuemin>
                                    <valuemax>100</valuemax>
                                </parameter>
                            </effect>
                        </filter>
                    </clipitem>
                    <clipitem id="Samstag Morgen Multi 241">
                        <name>Samstag Morgen Multi</name>
                        <duration>115210</duration>
                        <rate>
                            <timebase>25</timebase>
                            <ntsc>false</ntsc>
                        </rate>
                        <start>76872</start>
                        <end>77025</end>
                        <enabled>true</enabled>
                        <in>76872</in>
                        <out>77025</out>
                        <file id="Samstag Morgen Multi 2"/>
                        <compositemode>normal</compositemode>
                        <filter>
                            <enabled>true</enabled>
                            <start>0</start>
                            <end>115210</end>
                            <effect>
                                <name>Opacity</name>
                                <effectid>opacity</effectid>
                                <effecttype>motion</effecttype>
                                <mediatype>video</mediatype>
                                <effectcategory>motion</effectcategory>
                                <parameter>
                                    <name>opacity</name>
                                    <parameterid>opacity</parameterid>
                                    <value>100</value>
                                    <valuemin>0</valuemin>
                                    <valuemax>100</valuemax>
                                </parameter>
                            </effect>
                        </filter>
                        <filter>
                            <enabled>true</enabled>
                            <start>0</start>
                            <end>115210</end>
                            <effect>
                                <name>Basic Motion</name>
                                <effectid>basic</effectid>
                                <effecttype>motion</effecttype>
                                <mediatype>video</mediatype>
                                <effectcategory>motion</effectcategory>
                                <parameter>
                                    <name>Scale</name>
                                    <parameterid>scale</parameterid>
                                    <value>136</value>
                                    <valuemin>25</valuemin>
                                    <valuemax>400</valuemax>
                                </parameter>
                                <parameter>
                                    <name>Center</name>
                                    <parameterid>center</parameterid>
                                    <value>
                                        <horiz>0.1796875</horiz>
                                        <vert>-0.149999976158142</vert>
                                    </value>
                                </parameter>
                                <parameter>
                                    <name>Rotation</name>
                                    <parameterid>rotation</parameterid>
                                    <value>0</value>
                                    <valuemin>-100000</valuemin>
                                    <valuemax>100000</valuemax>
                                </parameter>
                                <parameter>
                                    <name>Anchor Point</name>
                                    <parameterid>centerOffset</parameterid>
                                    <value>
                                        <horiz>0</horiz>
                                        <vert>0</vert>
                                    </value>
                                </parameter>
                            </effect>
                        </filter>
                        <filter>
                            <enabled>true</enabled>
                            <start>0</start>
                            <end>115210</end>
                            <effect>
                                <name>Crop</name>
                                <effectid>crop</effectid>
                                <effecttype>motion</effecttype>
                                <mediatype>video</mediatype>
                                <effectcategory>motion</effectcategory>
                                <parameter>
                                    <name>left</name>
                                    <parameterid>left</parameterid>
                                    <value>0</value>
                                    <valuemin>0</valuemin>
                                    <valuemax>100</valuemax>
                                </parameter>
                                <parameter>
                                    <name>right</name>
                                    <parameterid>right</parameterid>
                                    <value>0</value>
                                    <valuemin>0</valuemin>
                                    <valuemax>100</valuemax>
                                </parameter>
                                <parameter>
                                    <name>top</name>
                                    <parameterid>top</parameterid>
                                    <value>0</value>
                                    <valuemin>0</valuemin>
                                    <valuemax>100</valuemax>
                                </parameter>
                                <parameter>
                                    <name>bottom</name>
                                    <parameterid>bottom</parameterid>
                                    <value>0</value>
                                    <valuemin>0</valuemin>
                                    <valuemax>100</valuemax>
                                </parameter>
                            </effect>
                        </filter>
                    </clipitem>
                    <clipitem id="Samstag Morgen Multi 243">
                        <name>Samstag Morgen Multi</name>
                        <duration>115210</duration>
                        <rate>
                            <timebase>25</timebase>
                            <ntsc>false</ntsc>
                        </rate>
                        <start>77025</start>
                        <end>78387</end>
                        <enabled>true</enabled>
                        <in>77025</in>
                        <out>78387</out>
                        <file id="Samstag Morgen Multi 2"/>
                        <compositemode>normal</compositemode>
                        <filter>
                            <enabled>true</enabled>
                            <start>0</start>
                            <end>115210</end>
                            <effect>
                                <name>Opacity</name>
                                <effectid>opacity</effectid>
                                <effecttype>motion</effecttype>
                                <mediatype>video</mediatype>
                                <effectcategory>motion</effectcategory>
                                <parameter>
                                    <name>opacity</name>
                                    <parameterid>opacity</parameterid>
                                    <value>100</value>
                                    <valuemin>0</valuemin>
                                    <valuemax>100</valuemax>
                                </parameter>
                            </effect>
                        </filter>
                        <filter>
                            <enabled>true</enabled>
                            <start>0</start>
                            <end>115210</end>
                            <effect>
                                <name>Basic Motion</name>
                                <effectid>basic</effectid>
                                <effecttype>motion</effecttype>
                                <mediatype>video</mediatype>
                                <effectcategory>motion</effectcategory>
                                <parameter>
                                    <name>Scale</name>
                                    <parameterid>scale</parameterid>
                                    <value>100</value>
                                    <valuemin>25</valuemin>
                                    <valuemax>400</valuemax>
                                </parameter>
                                <parameter>
                                    <name>Center</name>
                                    <parameterid>center</parameterid>
                                    <value>
                                        <horiz>0</horiz>
                                        <vert>0</vert>
                                    </value>
                                </parameter>
                                <parameter>
                                    <name>Rotation</name>
                                    <parameterid>rotation</parameterid>
                                    <value>0</value>
                                    <valuemin>-100000</valuemin>
                                    <valuemax>100000</valuemax>
                                </parameter>
                                <parameter>
                                    <name>Anchor Point</name>
                                    <parameterid>centerOffset</parameterid>
                                    <value>
                                        <horiz>0</horiz>
                                        <vert>0</vert>
                                    </value>
                                </parameter>
                            </effect>
                        </filter>
                        <filter>
                            <enabled>true</enabled>
                            <start>0</start>
                            <end>115210</end>
                            <effect>
                                <name>Crop</name>
                                <effectid>crop</effectid>
                                <effecttype>motion</effecttype>
                                <mediatype>video</mediatype>
                                <effectcategory>motion</effectcategory>
                                <parameter>
                                    <name>left</name>
                                    <parameterid>left</parameterid>
                                    <value>0</value>
                                    <valuemin>0</valuemin>
                                    <valuemax>100</valuemax>
                                </parameter>
                                <parameter>
                                    <name>right</name>
                                    <parameterid>right</parameterid>
                                    <value>0</value>
                                    <valuemin>0</valuemin>
                                    <valuemax>100</valuemax>
                                </parameter>
                                <parameter>
                                    <name>top</name>
                                    <parameterid>top</parameterid>
                                    <value>0</value>
                                    <valuemin>0</valuemin>
                                    <valuemax>100</valuemax>
                                </parameter>
                                <parameter>
                                    <name>bottom</name>
                                    <parameterid>bottom</parameterid>
                                    <value>0</value>
                                    <valuemin>0</valuemin>
                                    <valuemax>100</valuemax>
                                </parameter>
                            </effect>
                        </filter>
                    </clipitem>
                    <clipitem id="Samstag Morgen Multi 245">
                        <name>Samstag Morgen Multi</name>
                        <duration>115210</duration>
                        <rate>
                            <timebase>25</timebase>
                            <ntsc>false</ntsc>
                        </rate>
                        <start>78387</start>
                        <end>79667</end>
                        <enabled>true</enabled>
                        <in>78387</in>
                        <out>79667</out>
                        <file id="Samstag Morgen Multi 2"/>
                        <compositemode>normal</compositemode>
                        <filter>
                            <enabled>true</enabled>
                            <start>0</start>
                            <end>115210</end>
                            <effect>
                                <name>Opacity</name>
                                <effectid>opacity</effectid>
                                <effecttype>motion</effecttype>
                                <mediatype>video</mediatype>
                                <effectcategory>motion</effectcategory>
                                <parameter>
                                    <name>opacity</name>
                                    <parameterid>opacity</parameterid>
                                    <value>100</value>
                                    <valuemin>0</valuemin>
                                    <valuemax>100</valuemax>
                                </parameter>
                            </effect>
                        </filter>
                        <filter>
                            <enabled>true</enabled>
                            <start>0</start>
                            <end>115210</end>
                            <effect>
                                <name>Basic Motion</name>
                                <effectid>basic</effectid>
                                <effecttype>motion</effecttype>
                                <mediatype>video</mediatype>
                                <effectcategory>motion</effectcategory>
                                <parameter>
                                    <name>Scale</name>
                                    <parameterid>scale</parameterid>
                                    <value>136</value>
                                    <valuemin>25</valuemin>
                                    <valuemax>400</valuemax>
                                </parameter>
                                <parameter>
                                    <name>Center</name>
                                    <parameterid>center</parameterid>
                                    <value>
                                        <horiz>0.1796875</horiz>
                                        <vert>-0.149999976158142</vert>
                                    </value>
                                </parameter>
                                <parameter>
                                    <name>Rotation</name>
                                    <parameterid>rotation</parameterid>
                                    <value>0</value>
                                    <valuemin>-100000</valuemin>
                                    <valuemax>100000</valuemax>
                                </parameter>
                                <parameter>
                                    <name>Anchor Point</name>
                                    <parameterid>centerOffset</parameterid>
                                    <value>
                                        <horiz>0</horiz>
                                        <vert>0</vert>
                                    </value>
                                </parameter>
                            </effect>
                        </filter>
                        <filter>
                            <enabled>true</enabled>
                            <start>0</start>
                            <end>115210</end>
                            <effect>
                                <name>Crop</name>
                                <effectid>crop</effectid>
                                <effecttype>motion</effecttype>
                                <mediatype>video</mediatype>
                                <effectcategory>motion</effectcategory>
                                <parameter>
                                    <name>left</name>
                                    <parameterid>left</parameterid>
                                    <value>0</value>
                                    <valuemin>0</valuemin>
                                    <valuemax>100</valuemax>
                                </parameter>
                                <parameter>
                                    <name>right</name>
                                    <parameterid>right</parameterid>
                                    <value>0</value>
                                    <valuemin>0</valuemin>
                                    <valuemax>100</valuemax>
                                </parameter>
                                <parameter>
                                    <name>top</name>
                                    <parameterid>top</parameterid>
                                    <value>0</value>
                                    <valuemin>0</valuemin>
                                    <valuemax>100</valuemax>
                                </parameter>
                                <parameter>
                                    <name>bottom</name>
                                    <parameterid>bottom</parameterid>
                                    <value>0</value>
                                    <valuemin>0</valuemin>
                                    <valuemax>100</valuemax>
                                </parameter>
                            </effect>
                        </filter>
                    </clipitem>
                    <clipitem id="Samstag Morgen Multi 247">
                        <name>Samstag Morgen Multi</name>
                        <duration>115210</duration>
                        <rate>
                            <timebase>25</timebase>
                            <ntsc>false</ntsc>
                        </rate>
                        <start>79667</start>
                        <end>79862</end>
                        <enabled>true</enabled>
                        <in>79667</in>
                        <out>79862</out>
                        <file id="Samstag Morgen Multi 2"/>
                        <compositemode>normal</compositemode>
                        <filter>
                            <enabled>true</enabled>
                            <start>0</start>
                            <end>115210</end>
                            <effect>
                                <name>Opacity</name>
                                <effectid>opacity</effectid>
                                <effecttype>motion</effecttype>
                                <mediatype>video</mediatype>
                                <effectcategory>motion</effectcategory>
                                <parameter>
                                    <name>opacity</name>
                                    <parameterid>opacity</parameterid>
                                    <value>100</value>
                                    <valuemin>0</valuemin>
                                    <valuemax>100</valuemax>
                                </parameter>
                            </effect>
                        </filter>
                        <filter>
                            <enabled>true</enabled>
                            <start>0</start>
                            <end>115210</end>
                            <effect>
                                <name>Basic Motion</name>
                                <effectid>basic</effectid>
                                <effecttype>motion</effecttype>
                                <mediatype>video</mediatype>
                                <effectcategory>motion</effectcategory>
                                <parameter>
                                    <name>Scale</name>
                                    <parameterid>scale</parameterid>
                                    <value>100</value>
                                    <valuemin>25</valuemin>
                                    <valuemax>400</valuemax>
                                </parameter>
                                <parameter>
                                    <name>Center</name>
                                    <parameterid>center</parameterid>
                                    <value>
                                        <horiz>0</horiz>
                                        <vert>0</vert>
                                    </value>
                                </parameter>
                                <parameter>
                                    <name>Rotation</name>
                                    <parameterid>rotation</parameterid>
                                    <value>0</value>
                                    <valuemin>-100000</valuemin>
                                    <valuemax>100000</valuemax>
                                </parameter>
                                <parameter>
                                    <name>Anchor Point</name>
                                    <parameterid>centerOffset</parameterid>
                                    <value>
                                        <horiz>0</horiz>
                                        <vert>0</vert>
                                    </value>
                                </parameter>
                            </effect>
                        </filter>
                        <filter>
                            <enabled>true</enabled>
                            <start>0</start>
                            <end>115210</end>
                            <effect>
                                <name>Crop</name>
                                <effectid>crop</effectid>
                                <effecttype>motion</effecttype>
                                <mediatype>video</mediatype>
                                <effectcategory>motion</effectcategory>
                                <parameter>
                                    <name>left</name>
                                    <parameterid>left</parameterid>
                                    <value>0</value>
                                    <valuemin>0</valuemin>
                                    <valuemax>100</valuemax>
                                </parameter>
                                <parameter>
                                    <name>right</name>
                                    <parameterid>right</parameterid>
                                    <value>0</value>
                                    <valuemin>0</valuemin>
                                    <valuemax>100</valuemax>
                                </parameter>
                                <parameter>
                                    <name>top</name>
                                    <parameterid>top</parameterid>
                                    <value>0</value>
                                    <valuemin>0</valuemin>
                                    <valuemax>100</valuemax>
                                </parameter>
                                <parameter>
                                    <name>bottom</name>
                                    <parameterid>bottom</parameterid>
                                    <value>0</value>
                                    <valuemin>0</valuemin>
                                    <valuemax>100</valuemax>
                                </parameter>
                            </effect>
                        </filter>
                    </clipitem>
                    <clipitem id="Samstag Morgen Multi 249">
                        <name>Samstag Morgen Multi</name>
                        <duration>115210</duration>
                        <rate>
                            <timebase>25</timebase>
                            <ntsc>false</ntsc>
                        </rate>
                        <start>79862</start>
                        <end>80515</end>
                        <enabled>true</enabled>
                        <in>79862</in>
                        <out>80515</out>
                        <file id="Samstag Morgen Multi 2"/>
                        <compositemode>normal</compositemode>
                        <filter>
                            <enabled>true</enabled>
                            <start>0</start>
                            <end>115210</end>
                            <effect>
                                <name>Opacity</name>
                                <effectid>opacity</effectid>
                                <effecttype>motion</effecttype>
                                <mediatype>video</mediatype>
                                <effectcategory>motion</effectcategory>
                                <parameter>
                                    <name>opacity</name>
                                    <parameterid>opacity</parameterid>
                                    <value>100</value>
                                    <valuemin>0</valuemin>
                                    <valuemax>100</valuemax>
                                </parameter>
                            </effect>
                        </filter>
                        <filter>
                            <enabled>true</enabled>
                            <start>0</start>
                            <end>115210</end>
                            <effect>
                                <name>Basic Motion</name>
                                <effectid>basic</effectid>
                                <effecttype>motion</effecttype>
                                <mediatype>video</mediatype>
                                <effectcategory>motion</effectcategory>
                                <parameter>
                                    <name>Scale</name>
                                    <parameterid>scale</parameterid>
                                    <value>136</value>
                                    <valuemin>25</valuemin>
                                    <valuemax>400</valuemax>
                                </parameter>
                                <parameter>
                                    <name>Center</name>
                                    <parameterid>center</parameterid>
                                    <value>
                                        <horiz>0.1796875</horiz>
                                        <vert>-0.149999976158142</vert>
                                    </value>
                                </parameter>
                                <parameter>
                                    <name>Rotation</name>
                                    <parameterid>rotation</parameterid>
                                    <value>0</value>
                                    <valuemin>-100000</valuemin>
                                    <valuemax>100000</valuemax>
                                </parameter>
                                <parameter>
                                    <name>Anchor Point</name>
                                    <parameterid>centerOffset</parameterid>
                                    <value>
                                        <horiz>0</horiz>
                                        <vert>0</vert>
                                    </value>
                                </parameter>
                            </effect>
                        </filter>
                        <filter>
                            <enabled>true</enabled>
                            <start>0</start>
                            <end>115210</end>
                            <effect>
                                <name>Crop</name>
                                <effectid>crop</effectid>
                                <effecttype>motion</effecttype>
                                <mediatype>video</mediatype>
                                <effectcategory>motion</effectcategory>
                                <parameter>
                                    <name>left</name>
                                    <parameterid>left</parameterid>
                                    <value>0</value>
                                    <valuemin>0</valuemin>
                                    <valuemax>100</valuemax>
                                </parameter>
                                <parameter>
                                    <name>right</name>
                                    <parameterid>right</parameterid>
                                    <value>0</value>
                                    <valuemin>0</valuemin>
                                    <valuemax>100</valuemax>
                                </parameter>
                                <parameter>
                                    <name>top</name>
                                    <parameterid>top</parameterid>
                                    <value>0</value>
                                    <valuemin>0</valuemin>
                                    <valuemax>100</valuemax>
                                </parameter>
                                <parameter>
                                    <name>bottom</name>
                                    <parameterid>bottom</parameterid>
                                    <value>0</value>
                                    <valuemin>0</valuemin>
                                    <valuemax>100</valuemax>
                                </parameter>
                            </effect>
                        </filter>
                    </clipitem>
                    <clipitem id="Samstag Morgen Multi 251">
                        <name>Samstag Morgen Multi</name>
                        <duration>115210</duration>
                        <rate>
                            <timebase>25</timebase>
                            <ntsc>false</ntsc>
                        </rate>
                        <start>80515</start>
                        <end>81045</end>
                        <enabled>true</enabled>
                        <in>80515</in>
                        <out>81045</out>
                        <file id="Samstag Morgen Multi 2"/>
                        <compositemode>normal</compositemode>
                        <filter>
                            <enabled>true</enabled>
                            <start>0</start>
                            <end>115210</end>
                            <effect>
                                <name>Opacity</name>
                                <effectid>opacity</effectid>
                                <effecttype>motion</effecttype>
                                <mediatype>video</mediatype>
                                <effectcategory>motion</effectcategory>
                                <parameter>
                                    <name>opacity</name>
                                    <parameterid>opacity</parameterid>
                                    <value>100</value>
                                    <valuemin>0</valuemin>
                                    <valuemax>100</valuemax>
                                </parameter>
                            </effect>
                        </filter>
                        <filter>
                            <enabled>true</enabled>
                            <start>0</start>
                            <end>115210</end>
                            <effect>
                                <name>Basic Motion</name>
                                <effectid>basic</effectid>
                                <effecttype>motion</effecttype>
                                <mediatype>video</mediatype>
                                <effectcategory>motion</effectcategory>
                                <parameter>
                                    <name>Scale</name>
                                    <parameterid>scale</parameterid>
                                    <value>100</value>
                                    <valuemin>25</valuemin>
                                    <valuemax>400</valuemax>
                                </parameter>
                                <parameter>
                                    <name>Center</name>
                                    <parameterid>center</parameterid>
                                    <value>
                                        <horiz>0</horiz>
                                        <vert>0</vert>
                                    </value>
                                </parameter>
                                <parameter>
                                    <name>Rotation</name>
                                    <parameterid>rotation</parameterid>
                                    <value>0</value>
                                    <valuemin>-100000</valuemin>
                                    <valuemax>100000</valuemax>
                                </parameter>
                                <parameter>
                                    <name>Anchor Point</name>
                                    <parameterid>centerOffset</parameterid>
                                    <value>
                                        <horiz>0</horiz>
                                        <vert>0</vert>
                                    </value>
                                </parameter>
                            </effect>
                        </filter>
                        <filter>
                            <enabled>true</enabled>
                            <start>0</start>
                            <end>115210</end>
                            <effect>
                                <name>Crop</name>
                                <effectid>crop</effectid>
                                <effecttype>motion</effecttype>
                                <mediatype>video</mediatype>
                                <effectcategory>motion</effectcategory>
                                <parameter>
                                    <name>left</name>
                                    <parameterid>left</parameterid>
                                    <value>0</value>
                                    <valuemin>0</valuemin>
                                    <valuemax>100</valuemax>
                                </parameter>
                                <parameter>
                                    <name>right</name>
                                    <parameterid>right</parameterid>
                                    <value>0</value>
                                    <valuemin>0</valuemin>
                                    <valuemax>100</valuemax>
                                </parameter>
                                <parameter>
                                    <name>top</name>
                                    <parameterid>top</parameterid>
                                    <value>0</value>
                                    <valuemin>0</valuemin>
                                    <valuemax>100</valuemax>
                                </parameter>
                                <parameter>
                                    <name>bottom</name>
                                    <parameterid>bottom</parameterid>
                                    <value>0</value>
                                    <valuemin>0</valuemin>
                                    <valuemax>100</valuemax>
                                </parameter>
                            </effect>
                        </filter>
                    </clipitem>
                    <clipitem id="Samstag Morgen Multi 253">
                        <name>Samstag Morgen Multi</name>
                        <duration>115210</duration>
                        <rate>
                            <timebase>25</timebase>
                            <ntsc>false</ntsc>
                        </rate>
                        <start>81045</start>
                        <end>81265</end>
                        <enabled>true</enabled>
                        <in>81045</in>
                        <out>81265</out>
                        <file id="Samstag Morgen Multi 2"/>
                        <compositemode>normal</compositemode>
                        <filter>
                            <enabled>true</enabled>
                            <start>0</start>
                            <end>115210</end>
                            <effect>
                                <name>Opacity</name>
                                <effectid>opacity</effectid>
                                <effecttype>motion</effecttype>
                                <mediatype>video</mediatype>
                                <effectcategory>motion</effectcategory>
                                <parameter>
                                    <name>opacity</name>
                                    <parameterid>opacity</parameterid>
                                    <value>100</value>
                                    <valuemin>0</valuemin>
                                    <valuemax>100</valuemax>
                                </parameter>
                            </effect>
                        </filter>
                        <filter>
                            <enabled>true</enabled>
                            <start>0</start>
                            <end>115210</end>
                            <effect>
                                <name>Basic Motion</name>
                                <effectid>basic</effectid>
                                <effecttype>motion</effecttype>
                                <mediatype>video</mediatype>
                                <effectcategory>motion</effectcategory>
                                <parameter>
                                    <name>Scale</name>
                                    <parameterid>scale</parameterid>
                                    <value>136</value>
                                    <valuemin>25</valuemin>
                                    <valuemax>400</valuemax>
                                </parameter>
                                <parameter>
                                    <name>Center</name>
                                    <parameterid>center</parameterid>
                                    <value>
                                        <horiz>0.1796875</horiz>
                                        <vert>-0.149999976158142</vert>
                                    </value>
                                </parameter>
                                <parameter>
                                    <name>Rotation</name>
                                    <parameterid>rotation</parameterid>
                                    <value>0</value>
                                    <valuemin>-100000</valuemin>
                                    <valuemax>100000</valuemax>
                                </parameter>
                                <parameter>
                                    <name>Anchor Point</name>
                                    <parameterid>centerOffset</parameterid>
                                    <value>
                                        <horiz>0</horiz>
                                        <vert>0</vert>
                                    </value>
                                </parameter>
                            </effect>
                        </filter>
                        <filter>
                            <enabled>true</enabled>
                            <start>0</start>
                            <end>115210</end>
                            <effect>
                                <name>Crop</name>
                                <effectid>crop</effectid>
                                <effecttype>motion</effecttype>
                                <mediatype>video</mediatype>
                                <effectcategory>motion</effectcategory>
                                <parameter>
                                    <name>left</name>
                                    <parameterid>left</parameterid>
                                    <value>0</value>
                                    <valuemin>0</valuemin>
                                    <valuemax>100</valuemax>
                                </parameter>
                                <parameter>
                                    <name>right</name>
                                    <parameterid>right</parameterid>
                                    <value>0</value>
                                    <valuemin>0</valuemin>
                                    <valuemax>100</valuemax>
                                </parameter>
                                <parameter>
                                    <name>top</name>
                                    <parameterid>top</parameterid>
                                    <value>0</value>
                                    <valuemin>0</valuemin>
                                    <valuemax>100</valuemax>
                                </parameter>
                                <parameter>
                                    <name>bottom</name>
                                    <parameterid>bottom</parameterid>
                                    <value>0</value>
                                    <valuemin>0</valuemin>
                                    <valuemax>100</valuemax>
                                </parameter>
                            </effect>
                        </filter>
                    </clipitem>
                    <clipitem id="Samstag Morgen Multi 255">
                        <name>Samstag Morgen Multi</name>
                        <duration>115210</duration>
                        <rate>
                            <timebase>25</timebase>
                            <ntsc>false</ntsc>
                        </rate>
                        <start>81265</start>
                        <end>81397</end>
                        <enabled>true</enabled>
                        <in>81265</in>
                        <out>81397</out>
                        <file id="Samstag Morgen Multi 2"/>
                        <compositemode>normal</compositemode>
                        <filter>
                            <enabled>true</enabled>
                            <start>0</start>
                            <end>115210</end>
                            <effect>
                                <name>Opacity</name>
                                <effectid>opacity</effectid>
                                <effecttype>motion</effecttype>
                                <mediatype>video</mediatype>
                                <effectcategory>motion</effectcategory>
                                <parameter>
                                    <name>opacity</name>
                                    <parameterid>opacity</parameterid>
                                    <value>100</value>
                                    <valuemin>0</valuemin>
                                    <valuemax>100</valuemax>
                                </parameter>
                            </effect>
                        </filter>
                        <filter>
                            <enabled>true</enabled>
                            <start>0</start>
                            <end>115210</end>
                            <effect>
                                <name>Basic Motion</name>
                                <effectid>basic</effectid>
                                <effecttype>motion</effecttype>
                                <mediatype>video</mediatype>
                                <effectcategory>motion</effectcategory>
                                <parameter>
                                    <name>Scale</name>
                                    <parameterid>scale</parameterid>
                                    <value>100</value>
                                    <valuemin>25</valuemin>
                                    <valuemax>400</valuemax>
                                </parameter>
                                <parameter>
                                    <name>Center</name>
                                    <parameterid>center</parameterid>
                                    <value>
                                        <horiz>0</horiz>
                                        <vert>0</vert>
                                    </value>
                                </parameter>
                                <parameter>
                                    <name>Rotation</name>
                                    <parameterid>rotation</parameterid>
                                    <value>0</value>
                                    <valuemin>-100000</valuemin>
                                    <valuemax>100000</valuemax>
                                </parameter>
                                <parameter>
                                    <name>Anchor Point</name>
                                    <parameterid>centerOffset</parameterid>
                                    <value>
                                        <horiz>0</horiz>
                                        <vert>0</vert>
                                    </value>
                                </parameter>
                            </effect>
                        </filter>
                        <filter>
                            <enabled>true</enabled>
                            <start>0</start>
                            <end>115210</end>
                            <effect>
                                <name>Crop</name>
                                <effectid>crop</effectid>
                                <effecttype>motion</effecttype>
                                <mediatype>video</mediatype>
                                <effectcategory>motion</effectcategory>
                                <parameter>
                                    <name>left</name>
                                    <parameterid>left</parameterid>
                                    <value>0</value>
                                    <valuemin>0</valuemin>
                                    <valuemax>100</valuemax>
                                </parameter>
                                <parameter>
                                    <name>right</name>
                                    <parameterid>right</parameterid>
                                    <value>0</value>
                                    <valuemin>0</valuemin>
                                    <valuemax>100</valuemax>
                                </parameter>
                                <parameter>
                                    <name>top</name>
                                    <parameterid>top</parameterid>
                                    <value>0</value>
                                    <valuemin>0</valuemin>
                                    <valuemax>100</valuemax>
                                </parameter>
                                <parameter>
                                    <name>bottom</name>
                                    <parameterid>bottom</parameterid>
                                    <value>0</value>
                                    <valuemin>0</valuemin>
                                    <valuemax>100</valuemax>
                                </parameter>
                            </effect>
                        </filter>
                    </clipitem>
                    <clipitem id="Samstag Morgen Multi 257">
                        <name>Samstag Morgen Multi</name>
                        <duration>115210</duration>
                        <rate>
                            <timebase>25</timebase>
                            <ntsc>false</ntsc>
                        </rate>
                        <start>81397</start>
                        <end>82043</end>
                        <enabled>true</enabled>
                        <in>81397</in>
                        <out>82043</out>
                        <file id="Samstag Morgen Multi 2"/>
                        <compositemode>normal</compositemode>
                        <filter>
                            <enabled>true</enabled>
                            <start>0</start>
                            <end>115210</end>
                            <effect>
                                <name>Opacity</name>
                                <effectid>opacity</effectid>
                                <effecttype>motion</effecttype>
                                <mediatype>video</mediatype>
                                <effectcategory>motion</effectcategory>
                                <parameter>
                                    <name>opacity</name>
                                    <parameterid>opacity</parameterid>
                                    <value>100</value>
                                    <valuemin>0</valuemin>
                                    <valuemax>100</valuemax>
                                </parameter>
                            </effect>
                        </filter>
                        <filter>
                            <enabled>true</enabled>
                            <start>0</start>
                            <end>115210</end>
                            <effect>
                                <name>Basic Motion</name>
                                <effectid>basic</effectid>
                                <effecttype>motion</effecttype>
                                <mediatype>video</mediatype>
                                <effectcategory>motion</effectcategory>
                                <parameter>
                                    <name>Scale</name>
                                    <parameterid>scale</parameterid>
                                    <value>136</value>
                                    <valuemin>25</valuemin>
                                    <valuemax>400</valuemax>
                                </parameter>
                                <parameter>
                                    <name>Center</name>
                                    <parameterid>center</parameterid>
                                    <value>
                                        <horiz>0.1796875</horiz>
                                        <vert>-0.149999976158142</vert>
                                    </value>
                                </parameter>
                                <parameter>
                                    <name>Rotation</name>
                                    <parameterid>rotation</parameterid>
                                    <value>0</value>
                                    <valuemin>-100000</valuemin>
                                    <valuemax>100000</valuemax>
                                </parameter>
                                <parameter>
                                    <name>Anchor Point</name>
                                    <parameterid>centerOffset</parameterid>
                                    <value>
                                        <horiz>0</horiz>
                                        <vert>0</vert>
                                    </value>
                                </parameter>
                            </effect>
                        </filter>
                        <filter>
                            <enabled>true</enabled>
                            <start>0</start>
                            <end>115210</end>
                            <effect>
                                <name>Crop</name>
                                <effectid>crop</effectid>
                                <effecttype>motion</effecttype>
                                <mediatype>video</mediatype>
                                <effectcategory>motion</effectcategory>
                                <parameter>
                                    <name>left</name>
                                    <parameterid>left</parameterid>
                                    <value>0</value>
                                    <valuemin>0</valuemin>
                                    <valuemax>100</valuemax>
                                </parameter>
                                <parameter>
                                    <name>right</name>
                                    <parameterid>right</parameterid>
                                    <value>0</value>
                                    <valuemin>0</valuemin>
                                    <valuemax>100</valuemax>
                                </parameter>
                                <parameter>
                                    <name>top</name>
                                    <parameterid>top</parameterid>
                                    <value>0</value>
                                    <valuemin>0</valuemin>
                                    <valuemax>100</valuemax>
                                </parameter>
                                <parameter>
                                    <name>bottom</name>
                                    <parameterid>bottom</parameterid>
                                    <value>0</value>
                                    <valuemin>0</valuemin>
                                    <valuemax>100</valuemax>
                                </parameter>
                            </effect>
                        </filter>
                    </clipitem>
                    <clipitem id="Samstag Morgen Multi 259">
                        <name>Samstag Morgen Multi</name>
                        <duration>115210</duration>
                        <rate>
                            <timebase>25</timebase>
                            <ntsc>false</ntsc>
                        </rate>
                        <start>82043</start>
                        <end>82172</end>
                        <enabled>true</enabled>
                        <in>82043</in>
                        <out>82172</out>
                        <file id="Samstag Morgen Multi 2"/>
                        <compositemode>normal</compositemode>
                        <filter>
                            <enabled>true</enabled>
                            <start>0</start>
                            <end>115210</end>
                            <effect>
                                <name>Opacity</name>
                                <effectid>opacity</effectid>
                                <effecttype>motion</effecttype>
                                <mediatype>video</mediatype>
                                <effectcategory>motion</effectcategory>
                                <parameter>
                                    <name>opacity</name>
                                    <parameterid>opacity</parameterid>
                                    <value>100</value>
                                    <valuemin>0</valuemin>
                                    <valuemax>100</valuemax>
                                </parameter>
                            </effect>
                        </filter>
                        <filter>
                            <enabled>true</enabled>
                            <start>0</start>
                            <end>115210</end>
                            <effect>
                                <name>Basic Motion</name>
                                <effectid>basic</effectid>
                                <effecttype>motion</effecttype>
                                <mediatype>video</mediatype>
                                <effectcategory>motion</effectcategory>
                                <parameter>
                                    <name>Scale</name>
                                    <parameterid>scale</parameterid>
                                    <value>100</value>
                                    <valuemin>25</valuemin>
                                    <valuemax>400</valuemax>
                                </parameter>
                                <parameter>
                                    <name>Center</name>
                                    <parameterid>center</parameterid>
                                    <value>
                                        <horiz>0</horiz>
                                        <vert>0</vert>
                                    </value>
                                </parameter>
                                <parameter>
                                    <name>Rotation</name>
                                    <parameterid>rotation</parameterid>
                                    <value>0</value>
                                    <valuemin>-100000</valuemin>
                                    <valuemax>100000</valuemax>
                                </parameter>
                                <parameter>
                                    <name>Anchor Point</name>
                                    <parameterid>centerOffset</parameterid>
                                    <value>
                                        <horiz>0</horiz>
                                        <vert>0</vert>
                                    </value>
                                </parameter>
                            </effect>
                        </filter>
                        <filter>
                            <enabled>true</enabled>
                            <start>0</start>
                            <end>115210</end>
                            <effect>
                                <name>Crop</name>
                                <effectid>crop</effectid>
                                <effecttype>motion</effecttype>
                                <mediatype>video</mediatype>
                                <effectcategory>motion</effectcategory>
                                <parameter>
                                    <name>left</name>
                                    <parameterid>left</parameterid>
                                    <value>0</value>
                                    <valuemin>0</valuemin>
                                    <valuemax>100</valuemax>
                                </parameter>
                                <parameter>
                                    <name>right</name>
                                    <parameterid>right</parameterid>
                                    <value>0</value>
                                    <valuemin>0</valuemin>
                                    <valuemax>100</valuemax>
                                </parameter>
                                <parameter>
                                    <name>top</name>
                                    <parameterid>top</parameterid>
                                    <value>0</value>
                                    <valuemin>0</valuemin>
                                    <valuemax>100</valuemax>
                                </parameter>
                                <parameter>
                                    <name>bottom</name>
                                    <parameterid>bottom</parameterid>
                                    <value>0</value>
                                    <valuemin>0</valuemin>
                                    <valuemax>100</valuemax>
                                </parameter>
                            </effect>
                        </filter>
                    </clipitem>
                    <clipitem id="Samstag Morgen Multi 261">
                        <name>Samstag Morgen Multi</name>
                        <duration>115210</duration>
                        <rate>
                            <timebase>25</timebase>
                            <ntsc>false</ntsc>
                        </rate>
                        <start>82172</start>
                        <end>99024</end>
                        <enabled>true</enabled>
                        <in>82172</in>
                        <out>99024</out>
                        <file id="Samstag Morgen Multi 2"/>
                        <compositemode>normal</compositemode>
                        <filter>
                            <enabled>true</enabled>
                            <start>0</start>
                            <end>115210</end>
                            <effect>
                                <name>Opacity</name>
                                <effectid>opacity</effectid>
                                <effecttype>motion</effecttype>
                                <mediatype>video</mediatype>
                                <effectcategory>motion</effectcategory>
                                <parameter>
                                    <name>opacity</name>
                                    <parameterid>opacity</parameterid>
                                    <value>100</value>
                                    <valuemin>0</valuemin>
                                    <valuemax>100</valuemax>
                                </parameter>
                            </effect>
                        </filter>
                        <filter>
                            <enabled>true</enabled>
                            <start>0</start>
                            <end>115210</end>
                            <effect>
                                <name>Basic Motion</name>
                                <effectid>basic</effectid>
                                <effecttype>motion</effecttype>
                                <mediatype>video</mediatype>
                                <effectcategory>motion</effectcategory>
                                <parameter>
                                    <name>Scale</name>
                                    <parameterid>scale</parameterid>
                                    <value>136</value>
                                    <keyframe>
                                        <when>86181</when>
                                        <value>136</value>
                                    </keyframe>
                                    <keyframe>
                                        <when>86196</when>
                                        <value>142</value>
                                    </keyframe>
                                    <valuemin>25</valuemin>
                                    <valuemax>400</valuemax>
                                </parameter>
                                <parameter>
                                    <name>Center</name>
                                    <parameterid>center</parameterid>
                                    <value>
                                        <horiz>0.1796875</horiz>
                                        <vert>-0.149999976158142</vert>
                                    </value>
                                    <keyframe>
                                        <when>86181</when>
                                        <value>
                                            <horiz>0.1796875</horiz>
                                            <vert>-0.149999976158142</vert>
                                        </value>
                                    </keyframe>
                                    <keyframe>
                                        <when>86196</when>
                                        <value>
                                            <horiz>0.179687544703484</horiz>
                                            <vert>0.0851852148771286</vert>
                                        </value>
                                    </keyframe>
                                </parameter>
                                <parameter>
                                    <name>Rotation</name>
                                    <parameterid>rotation</parameterid>
                                    <value>0</value>
                                    <keyframe>
                                        <when>86181</when>
                                        <value>0</value>
                                    </keyframe>
                                    <keyframe>
                                        <when>86196</when>
                                        <value>5</value>
                                    </keyframe>
                                    <valuemin>-100000</valuemin>
                                    <valuemax>100000</valuemax>
                                </parameter>
                                <parameter>
                                    <name>Anchor Point</name>
                                    <parameterid>centerOffset</parameterid>
                                    <value>
                                        <horiz>0</horiz>
                                        <vert>0</vert>
                                    </value>
                                </parameter>
                            </effect>
                        </filter>
                        <filter>
                            <enabled>true</enabled>
                            <start>0</start>
                            <end>115210</end>
                            <effect>
                                <name>Crop</name>
                                <effectid>crop</effectid>
                                <effecttype>motion</effecttype>
                                <mediatype>video</mediatype>
                                <effectcategory>motion</effectcategory>
                                <parameter>
                                    <name>left</name>
                                    <parameterid>left</parameterid>
                                    <value>0</value>
                                    <valuemin>0</valuemin>
                                    <valuemax>100</valuemax>
                                </parameter>
                                <parameter>
                                    <name>right</name>
                                    <parameterid>right</parameterid>
                                    <value>0</value>
                                    <valuemin>0</valuemin>
                                    <valuemax>100</valuemax>
                                </parameter>
                                <parameter>
                                    <name>top</name>
                                    <parameterid>top</parameterid>
                                    <value>0</value>
                                    <valuemin>0</valuemin>
                                    <valuemax>100</valuemax>
                                </parameter>
                                <parameter>
                                    <name>bottom</name>
                                    <parameterid>bottom</parameterid>
                                    <value>0</value>
                                    <valuemin>0</valuemin>
                                    <valuemax>100</valuemax>
                                </parameter>
                            </effect>
                        </filter>
                    </clipitem>
                    <clipitem id="Samstag Morgen Multi 263">
                        <name>Samstag Morgen Multi</name>
                        <duration>115210</duration>
                        <rate>
                            <timebase>25</timebase>
                            <ntsc>false</ntsc>
                        </rate>
                        <start>99024</start>
                        <end>101160</end>
                        <enabled>true</enabled>
                        <in>99024</in>
                        <out>101160</out>
                        <file id="Samstag Morgen Multi 2"/>
                        <compositemode>normal</compositemode>
                        <filter>
                            <enabled>true</enabled>
                            <start>0</start>
                            <end>115210</end>
                            <effect>
                                <name>Opacity</name>
                                <effectid>opacity</effectid>
                                <effecttype>motion</effecttype>
                                <mediatype>video</mediatype>
                                <effectcategory>motion</effectcategory>
                                <parameter>
                                    <name>opacity</name>
                                    <parameterid>opacity</parameterid>
                                    <value>100</value>
                                    <valuemin>0</valuemin>
                                    <valuemax>100</valuemax>
                                </parameter>
                            </effect>
                        </filter>
                        <filter>
                            <enabled>true</enabled>
                            <start>0</start>
                            <end>115210</end>
                            <effect>
                                <name>Basic Motion</name>
                                <effectid>basic</effectid>
                                <effecttype>motion</effecttype>
                                <mediatype>video</mediatype>
                                <effectcategory>motion</effectcategory>
                                <parameter>
                                    <name>Scale</name>
                                    <parameterid>scale</parameterid>
                                    <value>100</value>
                                    <valuemin>25</valuemin>
                                    <valuemax>400</valuemax>
                                </parameter>
                                <parameter>
                                    <name>Center</name>
                                    <parameterid>center</parameterid>
                                    <value>
                                        <horiz>0</horiz>
                                        <vert>0</vert>
                                    </value>
                                </parameter>
                                <parameter>
                                    <name>Rotation</name>
                                    <parameterid>rotation</parameterid>
                                    <value>0</value>
                                    <valuemin>-100000</valuemin>
                                    <valuemax>100000</valuemax>
                                </parameter>
                                <parameter>
                                    <name>Anchor Point</name>
                                    <parameterid>centerOffset</parameterid>
                                    <value>
                                        <horiz>0</horiz>
                                        <vert>0</vert>
                                    </value>
                                </parameter>
                            </effect>
                        </filter>
                        <filter>
                            <enabled>true</enabled>
                            <start>0</start>
                            <end>115210</end>
                            <effect>
                                <name>Crop</name>
                                <effectid>crop</effectid>
                                <effecttype>motion</effecttype>
                                <mediatype>video</mediatype>
                                <effectcategory>motion</effectcategory>
                                <parameter>
                                    <name>left</name>
                                    <parameterid>left</parameterid>
                                    <value>0</value>
                                    <valuemin>0</valuemin>
                                    <valuemax>100</valuemax>
                                </parameter>
                                <parameter>
                                    <name>right</name>
                                    <parameterid>right</parameterid>
                                    <value>0</value>
                                    <valuemin>0</valuemin>
                                    <valuemax>100</valuemax>
                                </parameter>
                                <parameter>
                                    <name>top</name>
                                    <parameterid>top</parameterid>
                                    <value>0</value>
                                    <valuemin>0</valuemin>
                                    <valuemax>100</valuemax>
                                </parameter>
                                <parameter>
                                    <name>bottom</name>
                                    <parameterid>bottom</parameterid>
                                    <value>0</value>
                                    <valuemin>0</valuemin>
                                    <valuemax>100</valuemax>
                                </parameter>
                            </effect>
                        </filter>
                    </clipitem>
                    <clipitem id="Samstag Morgen Multi 265">
                        <name>Samstag Morgen Multi</name>
                        <duration>115210</duration>
                        <rate>
                            <timebase>25</timebase>
                            <ntsc>false</ntsc>
                        </rate>
                        <start>101160</start>
                        <end>101555</end>
                        <enabled>true</enabled>
                        <in>101160</in>
                        <out>101555</out>
                        <file id="Samstag Morgen Multi 2"/>
                        <compositemode>normal</compositemode>
                        <filter>
                            <enabled>true</enabled>
                            <start>0</start>
                            <end>115210</end>
                            <effect>
                                <name>Opacity</name>
                                <effectid>opacity</effectid>
                                <effecttype>motion</effecttype>
                                <mediatype>video</mediatype>
                                <effectcategory>motion</effectcategory>
                                <parameter>
                                    <name>opacity</name>
                                    <parameterid>opacity</parameterid>
                                    <value>100</value>
                                    <valuemin>0</valuemin>
                                    <valuemax>100</valuemax>
                                </parameter>
                            </effect>
                        </filter>
                        <filter>
                            <enabled>true</enabled>
                            <start>0</start>
                            <end>115210</end>
                            <effect>
                                <name>Basic Motion</name>
                                <effectid>basic</effectid>
                                <effecttype>motion</effecttype>
                                <mediatype>video</mediatype>
                                <effectcategory>motion</effectcategory>
                                <parameter>
                                    <name>Scale</name>
                                    <parameterid>scale</parameterid>
                                    <value>100</value>
                                    <valuemin>25</valuemin>
                                    <valuemax>400</valuemax>
                                </parameter>
                                <parameter>
                                    <name>Center</name>
                                    <parameterid>center</parameterid>
                                    <value>
                                        <horiz>0</horiz>
                                        <vert>0</vert>
                                    </value>
                                </parameter>
                                <parameter>
                                    <name>Rotation</name>
                                    <parameterid>rotation</parameterid>
                                    <value>0</value>
                                    <valuemin>-100000</valuemin>
                                    <valuemax>100000</valuemax>
                                </parameter>
                                <parameter>
                                    <name>Anchor Point</name>
                                    <parameterid>centerOffset</parameterid>
                                    <value>
                                        <horiz>0</horiz>
                                        <vert>0</vert>
                                    </value>
                                </parameter>
                            </effect>
                        </filter>
                        <filter>
                            <enabled>true</enabled>
                            <start>0</start>
                            <end>115210</end>
                            <effect>
                                <name>Crop</name>
                                <effectid>crop</effectid>
                                <effecttype>motion</effecttype>
                                <mediatype>video</mediatype>
                                <effectcategory>motion</effectcategory>
                                <parameter>
                                    <name>left</name>
                                    <parameterid>left</parameterid>
                                    <value>0</value>
                                    <valuemin>0</valuemin>
                                    <valuemax>100</valuemax>
                                </parameter>
                                <parameter>
                                    <name>right</name>
                                    <parameterid>right</parameterid>
                                    <value>0</value>
                                    <valuemin>0</valuemin>
                                    <valuemax>100</valuemax>
                                </parameter>
                                <parameter>
                                    <name>top</name>
                                    <parameterid>top</parameterid>
                                    <value>0</value>
                                    <valuemin>0</valuemin>
                                    <valuemax>100</valuemax>
                                </parameter>
                                <parameter>
                                    <name>bottom</name>
                                    <parameterid>bottom</parameterid>
                                    <value>0</value>
                                    <valuemin>0</valuemin>
                                    <valuemax>100</valuemax>
                                </parameter>
                            </effect>
                        </filter>
                    </clipitem>
                    <clipitem id="Samstag Morgen Multi 267">
                        <name>Samstag Morgen Multi</name>
                        <duration>115210</duration>
                        <rate>
                            <timebase>25</timebase>
                            <ntsc>false</ntsc>
                        </rate>
                        <start>101555</start>
                        <end>102445</end>
                        <enabled>true</enabled>
                        <in>101555</in>
                        <out>102445</out>
                        <file id="Samstag Morgen Multi 2"/>
                        <compositemode>normal</compositemode>
                        <filter>
                            <enabled>true</enabled>
                            <start>0</start>
                            <end>115210</end>
                            <effect>
                                <name>Opacity</name>
                                <effectid>opacity</effectid>
                                <effecttype>motion</effecttype>
                                <mediatype>video</mediatype>
                                <effectcategory>motion</effectcategory>
                                <parameter>
                                    <name>opacity</name>
                                    <parameterid>opacity</parameterid>
                                    <value>100</value>
                                    <valuemin>0</valuemin>
                                    <valuemax>100</valuemax>
                                </parameter>
                            </effect>
                        </filter>
                        <filter>
                            <enabled>true</enabled>
                            <start>0</start>
                            <end>115210</end>
                            <effect>
                                <name>Basic Motion</name>
                                <effectid>basic</effectid>
                                <effecttype>motion</effecttype>
                                <mediatype>video</mediatype>
                                <effectcategory>motion</effectcategory>
                                <parameter>
                                    <name>Scale</name>
                                    <parameterid>scale</parameterid>
                                    <value>100</value>
                                    <valuemin>25</valuemin>
                                    <valuemax>400</valuemax>
                                </parameter>
                                <parameter>
                                    <name>Center</name>
                                    <parameterid>center</parameterid>
                                    <value>
                                        <horiz>0</horiz>
                                        <vert>0</vert>
                                    </value>
                                </parameter>
                                <parameter>
                                    <name>Rotation</name>
                                    <parameterid>rotation</parameterid>
                                    <value>0</value>
                                    <valuemin>-100000</valuemin>
                                    <valuemax>100000</valuemax>
                                </parameter>
                                <parameter>
                                    <name>Anchor Point</name>
                                    <parameterid>centerOffset</parameterid>
                                    <value>
                                        <horiz>0</horiz>
                                        <vert>0</vert>
                                    </value>
                                </parameter>
                            </effect>
                        </filter>
                        <filter>
                            <enabled>true</enabled>
                            <start>0</start>
                            <end>115210</end>
                            <effect>
                                <name>Crop</name>
                                <effectid>crop</effectid>
                                <effecttype>motion</effecttype>
                                <mediatype>video</mediatype>
                                <effectcategory>motion</effectcategory>
                                <parameter>
                                    <name>left</name>
                                    <parameterid>left</parameterid>
                                    <value>0</value>
                                    <valuemin>0</valuemin>
                                    <valuemax>100</valuemax>
                                </parameter>
                                <parameter>
                                    <name>right</name>
                                    <parameterid>right</parameterid>
                                    <value>0</value>
                                    <valuemin>0</valuemin>
                                    <valuemax>100</valuemax>
                                </parameter>
                                <parameter>
                                    <name>top</name>
                                    <parameterid>top</parameterid>
                                    <value>0</value>
                                    <valuemin>0</valuemin>
                                    <valuemax>100</valuemax>
                                </parameter>
                                <parameter>
                                    <name>bottom</name>
                                    <parameterid>bottom</parameterid>
                                    <value>0</value>
                                    <valuemin>0</valuemin>
                                    <valuemax>100</valuemax>
                                </parameter>
                            </effect>
                        </filter>
                    </clipitem>
                    <generatoritem id="Solid Color 2">
                        <name>Solid Color</name>
                        <duration>690</duration>
                        <rate>
                            <timebase>25</timebase>
                            <ntsc>false</ntsc>
                        </rate>
                        <in>0</in>
                        <out>345</out>
                        <start>113054</start>
                        <end>113399</end>
                        <enabled>true</enabled>
                        <effect>
                            <name>Color Solid</name>
                            <effectid>FxPlugWrapper:C18E8B62_C24F_4F8D_8597_858675A40BBC</effectid>
                            <effecttype>generator</effecttype>
                            <mediatype>video</mediatype>
                            <parameter>
                                <name>Color</name>
                                <parameterid>input_1</parameterid>
                                <value>
                                    <red>0</red>
                                    <green>0</green>
                                    <blue>0</blue>
                                    <alpha>255</alpha>
                                </value>
                            </parameter>
                            <rate>
                                <timebase>25</timebase>
                                <ntsc>false</ntsc>
                            </rate>
                            <duration>690</duration>
                            <effectclass>FxPlug</effectclass>
                        </effect>
                        <filter>
                            <enabled>true</enabled>
                            <start>0</start>
                            <end>690</end>
                            <effect>
                                <name>Opacity</name>
                                <effectid>opacity</effectid>
                                <effecttype>motion</effecttype>
                                <mediatype>video</mediatype>
                                <effectcategory>motion</effectcategory>
                                <parameter>
                                    <name>opacity</name>
                                    <parameterid>opacity</parameterid>
                                    <value>100</value>
                                    <valuemin>0</valuemin>
                                    <valuemax>100</valuemax>
                                </parameter>
                            </effect>
                        </filter>
                        <filter>
                            <enabled>true</enabled>
                            <start>0</start>
                            <end>690</end>
                            <effect>
                                <name>Basic Motion</name>
                                <effectid>basic</effectid>
                                <effecttype>motion</effecttype>
                                <mediatype>video</mediatype>
                                <effectcategory>motion</effectcategory>
                                <parameter>
                                    <name>Scale</name>
                                    <parameterid>scale</parameterid>
                                    <value>100</value>
                                    <valuemin>25</valuemin>
                                    <valuemax>400</valuemax>
                                </parameter>
                                <parameter>
                                    <name>Center</name>
                                    <parameterid>center</parameterid>
                                    <value>
                                        <horiz>0</horiz>
                                        <vert>0</vert>
                                    </value>
                                </parameter>
                                <parameter>
                                    <name>Rotation</name>
                                    <parameterid>rotation</parameterid>
                                    <value>0</value>
                                    <valuemin>-100000</valuemin>
                                    <valuemax>100000</valuemax>
                                </parameter>
                                <parameter>
                                    <name>Anchor Point</name>
                                    <parameterid>centerOffset</parameterid>
                                    <value>
                                        <horiz>0</horiz>
                                        <vert>0</vert>
                                    </value>
                                </parameter>
                            </effect>
                        </filter>
                        <filter>
                            <enabled>true</enabled>
                            <start>0</start>
                            <end>690</end>
                            <effect>
                                <name>Crop</name>
                                <effectid>crop</effectid>
                                <effecttype>motion</effecttype>
                                <mediatype>video</mediatype>
                                <effectcategory>motion</effectcategory>
                                <parameter>
                                    <name>left</name>
                                    <parameterid>left</parameterid>
                                    <value>0</value>
                                    <valuemin>0</valuemin>
                                    <valuemax>100</valuemax>
                                </parameter>
                                <parameter>
                                    <name>right</name>
                                    <parameterid>right</parameterid>
                                    <value>0</value>
                                    <valuemin>0</valuemin>
                                    <valuemax>100</valuemax>
                                </parameter>
                                <parameter>
                                    <name>top</name>
                                    <parameterid>top</parameterid>
                                    <value>0</value>
                                    <valuemin>0</valuemin>
                                    <valuemax>100</valuemax>
                                </parameter>
                                <parameter>
                                    <name>bottom</name>
                                    <parameterid>bottom</parameterid>
                                    <value>0</value>
                                    <valuemin>0</valuemin>
                                    <valuemax>100</valuemax>
                                </parameter>
                            </effect>
                        </filter>
                    </generatoritem>
                    <enabled>true</enabled>
                    <locked>false</locked>
                </track>
                <track>
                    <clipitem id="Logo Wide.jpg 0">
                        <name>Logo Wide.jpg</name>
                        <duration>1500001</duration>
                        <rate>
                            <timebase>25</timebase>
                            <ntsc>false</ntsc>
                        </rate>
                        <start>3560</start>
                        <end>-1</end>
                        <enabled>true</enabled>
                        <in>89780</in>
                        <out>89933</out>
                        <file id="Logo Wide.jpg 2">
                            <duration>1</duration>
                            <rate>
                                <timebase>25</timebase>
                                <ntsc>false</ntsc>
                            </rate>
                            <name>Logo Wide.jpg</name>
                            <pathurl>file:///Volumes/ProjectsRaid/WorkingProjects/kita/kita-2016_001-logodesign/export/Logo%20Wide.jpg</pathurl>
                            <timecode>
                                <string>00:00:00:00</string>
                                <displayformat>NDF</displayformat>
                                <rate>
                                    <timebase>25</timebase>
                                    <ntsc>false</ntsc>
                                </rate>
                            </timecode>
                            <media>
                                <video>
                                    <duration>1</duration>
                                    <samplecharacteristics>
                                        <width>1920</width>
                                        <height>1080</height>
                                    </samplecharacteristics>
                                </video>
                            </media>
                        </file>
                        <compositemode>multiply</compositemode>
                        <filter>
                            <enabled>true</enabled>
                            <start>0</start>
                            <end>1500001</end>
                            <effect>
                                <name>Opacity</name>
                                <effectid>opacity</effectid>
                                <effecttype>motion</effecttype>
                                <mediatype>video</mediatype>
                                <effectcategory>motion</effectcategory>
                                <parameter>
                                    <name>opacity</name>
                                    <parameterid>opacity</parameterid>
                                    <value>100</value>
                                    <valuemin>0</valuemin>
                                    <valuemax>100</valuemax>
                                </parameter>
                            </effect>
                        </filter>
                        <filter>
                            <enabled>true</enabled>
                            <start>0</start>
                            <end>1500001</end>
                            <effect>
                                <name>Basic Motion</name>
                                <effectid>basic</effectid>
                                <effecttype>motion</effecttype>
                                <mediatype>video</mediatype>
                                <effectcategory>motion</effectcategory>
                                <parameter>
                                    <name>Scale</name>
                                    <parameterid>scale</parameterid>
                                    <value>71</value>
                                    <valuemin>25</valuemin>
                                    <valuemax>400</valuemax>
                                </parameter>
                                <parameter>
                                    <name>Center</name>
                                    <parameterid>center</parameterid>
                                    <value>
                                        <horiz>0</horiz>
                                        <vert>-0.0527533814311028</vert>
                                    </value>
                                </parameter>
                                <parameter>
                                    <name>Rotation</name>
                                    <parameterid>rotation</parameterid>
                                    <value>0</value>
                                    <valuemin>-100000</valuemin>
                                    <valuemax>100000</valuemax>
                                </parameter>
                                <parameter>
                                    <name>Anchor Point</name>
                                    <parameterid>centerOffset</parameterid>
                                    <value>
                                        <horiz>0</horiz>
                                        <vert>0</vert>
                                    </value>
                                </parameter>
                            </effect>
                        </filter>
                        <filter>
                            <enabled>true</enabled>
                            <start>0</start>
                            <end>1500001</end>
                            <effect>
                                <name>Crop</name>
                                <effectid>crop</effectid>
                                <effecttype>motion</effecttype>
                                <mediatype>video</mediatype>
                                <effectcategory>motion</effectcategory>
                                <parameter>
                                    <name>left</name>
                                    <parameterid>left</parameterid>
                                    <value>0</value>
                                    <valuemin>0</valuemin>
                                    <valuemax>100</valuemax>
                                </parameter>
                                <parameter>
                                    <name>right</name>
                                    <parameterid>right</parameterid>
                                    <value>0</value>
                                    <valuemin>0</valuemin>
                                    <valuemax>100</valuemax>
                                </parameter>
                                <parameter>
                                    <name>top</name>
                                    <parameterid>top</parameterid>
                                    <value>0</value>
                                    <valuemin>0</valuemin>
                                    <valuemax>100</valuemax>
                                </parameter>
                                <parameter>
                                    <name>bottom</name>
                                    <parameterid>bottom</parameterid>
                                    <value>0</value>
                                    <valuemin>0</valuemin>
                                    <valuemax>100</valuemax>
                                </parameter>
                            </effect>
                        </filter>
                        <filter>
                            <enabled>true</enabled>
                            <start>-1</start>
                            <end>-1</end>
                            <effect>
                                <name>Time Remap</name>
                                <effectid>timeremap</effectid>
                                <effecttype>motion</effecttype>
                                <mediatype>video</mediatype>
                                <effectcategory>motion</effectcategory>
                                <parameter>
                                    <name>speed</name>
                                    <parameterid>speed</parameterid>
                                    <value>0</value>
                                    <valuemin>-10000</valuemin>
                                    <valuemax>10000</valuemax>
                                </parameter>
                                <parameter>
                                    <name>reverse</name>
                                    <parameterid>reverse</parameterid>
                                    <value>false</value>
                                </parameter>
                                <parameter>
                                    <name>frameblending</name>
                                    <parameterid>frameblending</parameterid>
                                    <value>false</value>
                                </parameter>
                                <parameter>
                                    <name>variablespeed</name>
                                    <parameterid>variablespeed</parameterid>
                                    <value>0</value>
                                    <valuemin>0</valuemin>
                                    <valuemax>1</valuemax>
                                </parameter>
                                <parameter>
                                    <name>graphdict</name>
                                    <parameterid>graphdict</parameterid>
                                    <keyframe>
                                        <when>0</when>
                                        <value>0</value>
                                        <speedvirtualkf>true</speedvirtualkf>
                                        <speedkfstart>true</speedkfstart>
                                    </keyframe>
                                    <keyframe>
                                        <when>89780</when>
                                        <value>0</value>
                                        <speedvirtualkf>true</speedvirtualkf>
                                        <speedkfin>true</speedkfin>
                                    </keyframe>
                                    <keyframe>
                                        <when>89933</when>
                                        <value>0</value>
                                        <speedvirtualkf>true</speedvirtualkf>
                                        <speedkfout>true</speedkfout>
                                    </keyframe>
                                    <keyframe>
                                        <when>1500001</when>
                                        <value>1</value>
                                        <speedvirtualkf>true</speedvirtualkf>
                                        <speedkfend>true</speedkfend>
                                    </keyframe>
                                    <valuemin>0</valuemin>
                                    <valuemax>0</valuemax>
                                    <interpolation>
                                        <name>FCPCurve</name>
                                    </interpolation>
                                </parameter>
                            </effect>
                        </filter>
                    </clipitem>
                    <transitionitem>
                        <rate>
                            <timebase>25</timebase>
                            <ntsc>false</ntsc>
                        </rate>
                        <start>3701</start>
                        <end>3726</end>
                        <alignment>center</alignment>
                        <effect>
                            <name>Cross Dissolve</name>
                            <effectid>Cross Dissolve</effectid>
                            <effecttype>transition</effecttype>
                            <mediatype>video</mediatype>
                            <effectcategory>Dissolve</effectcategory>
                            <startratio>0</startratio>
                            <endratio>1</endratio>
                            <reverse>false</reverse>
                        </effect>
                        <name>Cross Dissolve</name>
                    </transitionitem>
                    <generatoritem id="Rich 0">
                        <name>Rich</name>
                        <duration>108</duration>
                        <rate>
                            <timebase>25</timebase>
                            <ntsc>false</ntsc>
                        </rate>
                        <in>10</in>
                        <out>64</out>
                        <start>-1</start>
                        <end>-1</end>
                        <enabled>true</enabled>
                        <effect>
                            <name>Scrolling Text</name>
                            <effectid>Scrolling Text</effectid>
                            <effecttype>generator</effecttype>
                            <mediatype>video</mediatype>
                            <effectcategory>Text</effectcategory>
                            <parameter>
                                <name>Text</name>
                                <parameterid>s</parameterid>
                            </parameter>
                            <parameter>
                                <name>Font</name>
                                <parameterid>font</parameterid>
                                <value>.SF NS Text</value>
                            </parameter>
                            <parameter>
                                <name>Style</name>
                                <parameterid>style</parameterid>
                                <value>1</value>
                            </parameter>
                            <parameter>
                                <name>Size</name>
                                <parameterid>size</parameterid>
                                <valuemin>0</valuemin>
                                <valuemax>5.75057011362808e-314</valuemax>
                            </parameter>
                            <parameter>
                                <name>Color</name>
                                <parameterid>col</parameterid>
                            </parameter>
                        </effect>
                        <filter>
                            <enabled>true</enabled>
                            <start>0</start>
                            <end>108</end>
                            <effect>
                                <name>Basic Motion</name>
                                <effectid>basic</effectid>
                                <effecttype>motion</effecttype>
                                <mediatype>video</mediatype>
                                <effectcategory>motion</effectcategory>
                                <parameter>
                                    <name>Scale</name>
                                    <parameterid>scale</parameterid>
                                    <value>100</value>
                                    <valuemin>25</valuemin>
                                    <valuemax>400</valuemax>
                                </parameter>
                                <parameter>
                                    <name>Center</name>
                                    <parameterid>center</parameterid>
                                    <value>
                                        <horiz>0</horiz>
                                        <vert>0.0462963096797466</vert>
                                    </value>
                                </parameter>
                                <parameter>
                                    <name>Rotation</name>
                                    <parameterid>rotation</parameterid>
                                    <value>0</value>
                                    <valuemin>-100000</valuemin>
                                    <valuemax>100000</valuemax>
                                </parameter>
                                <parameter>
                                    <name>Anchor Point</name>
                                    <parameterid>centerOffset</parameterid>
                                    <value>
                                        <horiz>0</horiz>
                                        <vert>0</vert>
                                    </value>
                                </parameter>
                            </effect>
                        </filter>
                        <filter>
                            <enabled>true</enabled>
                            <start>0</start>
                            <end>108</end>
                            <effect>
                                <name>Opacity</name>
                                <effectid>opacity</effectid>
                                <effecttype>motion</effecttype>
                                <mediatype>video</mediatype>
                                <effectcategory>motion</effectcategory>
                                <parameter>
                                    <name>opacity</name>
                                    <parameterid>opacity</parameterid>
                                    <value>100</value>
                                    <valuemin>0</valuemin>
                                    <valuemax>100</valuemax>
                                </parameter>
                            </effect>
                        </filter>
                        <filter>
                            <enabled>true</enabled>
                            <start>0</start>
                            <end>108</end>
                            <effect>
                                <name>Crop</name>
                                <effectid>crop</effectid>
                                <effecttype>motion</effecttype>
                                <mediatype>video</mediatype>
                                <effectcategory>motion</effectcategory>
                                <parameter>
                                    <name>left</name>
                                    <parameterid>left</parameterid>
                                    <value>0</value>
                                    <valuemin>0</valuemin>
                                    <valuemax>100</valuemax>
                                </parameter>
                                <parameter>
                                    <name>right</name>
                                    <parameterid>right</parameterid>
                                    <value>0</value>
                                    <valuemin>0</valuemin>
                                    <valuemax>100</valuemax>
                                </parameter>
                                <parameter>
                                    <name>top</name>
                                    <parameterid>top</parameterid>
                                    <value>0</value>
                                    <valuemin>0</valuemin>
                                    <valuemax>100</valuemax>
                                </parameter>
                                <parameter>
                                    <name>bottom</name>
                                    <parameterid>bottom</parameterid>
                                    <value>0</value>
                                    <valuemin>0</valuemin>
                                    <valuemax>100</valuemax>
                                </parameter>
                            </effect>
                        </filter>
                    </generatoritem>
                    <transitionitem>
                        <rate>
                            <timebase>25</timebase>
                            <ntsc>false</ntsc>
                        </rate>
                        <start>3755</start>
                        <end>3780</end>
                        <alignment>center</alignment>
                        <effect>
                            <name>Cross Dissolve</name>
                            <effectid>Cross Dissolve</effectid>
                            <effecttype>transition</effecttype>
                            <mediatype>video</mediatype>
                            <effectcategory>Dissolve</effectcategory>
                            <startratio>0</startratio>
                            <endratio>1</endratio>
                            <reverse>false</reverse>
                        </effect>
                        <name>Cross Dissolve</name>
                    </transitionitem>
                    <clipitem id="logo michaela.jpg 0">
                        <name>logo michaela.jpg</name>
                        <duration>1500001</duration>
                        <rate>
                            <timebase>25</timebase>
                            <ntsc>false</ntsc>
                        </rate>
                        <start>-1</start>
                        <end>-1</end>
                        <enabled>true</enabled>
                        <in>89976</in>
                        <out>90092</out>
                        <file id="logo michaela.jpg 2">
                            <duration>1</duration>
                            <rate>
                                <timebase>25</timebase>
                                <ntsc>false</ntsc>
                            </rate>
                            <name>logo michaela.jpg</name>
                            <pathurl>file:///Volumes/ProjectsRaid/WorkingProjects/kita/kita-2016_002-kleines_gespenst/logos/logo%20michaela.jpg</pathurl>
                            <timecode>
                                <string>00:00:00:00</string>
                                <displayformat>NDF</displayformat>
                                <rate>
                                    <timebase>25</timebase>
                                    <ntsc>false</ntsc>
                                </rate>
                            </timecode>
                            <media>
                                <video>
                                    <duration>1</duration>
                                    <samplecharacteristics>
                                        <width>1920</width>
                                        <height>1080</height>
                                    </samplecharacteristics>
                                </video>
                            </media>
                        </file>
                        <compositemode>multiply</compositemode>
                        <filter>
                            <enabled>true</enabled>
                            <start>0</start>
                            <end>1500001</end>
                            <effect>
                                <name>Opacity</name>
                                <effectid>opacity</effectid>
                                <effecttype>motion</effecttype>
                                <mediatype>video</mediatype>
                                <effectcategory>motion</effectcategory>
                                <parameter>
                                    <name>opacity</name>
                                    <parameterid>opacity</parameterid>
                                    <value>100</value>
                                    <valuemin>0</valuemin>
                                    <valuemax>100</valuemax>
                                </parameter>
                            </effect>
                        </filter>
                        <filter>
                            <enabled>true</enabled>
                            <start>0</start>
                            <end>1500001</end>
                            <effect>
                                <name>Basic Motion</name>
                                <effectid>basic</effectid>
                                <effecttype>motion</effecttype>
                                <mediatype>video</mediatype>
                                <effectcategory>motion</effectcategory>
                                <parameter>
                                    <name>Scale</name>
                                    <parameterid>scale</parameterid>
                                    <value>53</value>
                                    <valuemin>25</valuemin>
                                    <valuemax>400</valuemax>
                                </parameter>
                                <parameter>
                                    <name>Center</name>
                                    <parameterid>center</parameterid>
                                    <value>
                                        <horiz>0</horiz>
                                        <vert>0.0544275194406509</vert>
                                    </value>
                                </parameter>
                                <parameter>
                                    <name>Rotation</name>
                                    <parameterid>rotation</parameterid>
                                    <value>0</value>
                                    <valuemin>-100000</valuemin>
                                    <valuemax>100000</valuemax>
                                </parameter>
                                <parameter>
                                    <name>Anchor Point</name>
                                    <parameterid>centerOffset</parameterid>
                                    <value>
                                        <horiz>0</horiz>
                                        <vert>0</vert>
                                    </value>
                                </parameter>
                            </effect>
                        </filter>
                        <filter>
                            <enabled>true</enabled>
                            <start>0</start>
                            <end>1500001</end>
                            <effect>
                                <name>Crop</name>
                                <effectid>crop</effectid>
                                <effecttype>motion</effecttype>
                                <mediatype>video</mediatype>
                                <effectcategory>motion</effectcategory>
                                <parameter>
                                    <name>left</name>
                                    <parameterid>left</parameterid>
                                    <value>0</value>
                                    <valuemin>0</valuemin>
                                    <valuemax>100</valuemax>
                                </parameter>
                                <parameter>
                                    <name>right</name>
                                    <parameterid>right</parameterid>
                                    <value>0</value>
                                    <valuemin>0</valuemin>
                                    <valuemax>100</valuemax>
                                </parameter>
                                <parameter>
                                    <name>top</name>
                                    <parameterid>top</parameterid>
                                    <value>0</value>
                                    <valuemin>0</valuemin>
                                    <valuemax>100</valuemax>
                                </parameter>
                                <parameter>
                                    <name>bottom</name>
                                    <parameterid>bottom</parameterid>
                                    <value>0</value>
                                    <valuemin>0</valuemin>
                                    <valuemax>100</valuemax>
                                </parameter>
                            </effect>
                        </filter>
                        <filter>
                            <enabled>true</enabled>
                            <start>-1</start>
                            <end>-1</end>
                            <effect>
                                <name>Time Remap</name>
                                <effectid>timeremap</effectid>
                                <effecttype>motion</effecttype>
                                <mediatype>video</mediatype>
                                <effectcategory>motion</effectcategory>
                                <parameter>
                                    <name>speed</name>
                                    <parameterid>speed</parameterid>
                                    <value>0</value>
                                    <valuemin>-10000</valuemin>
                                    <valuemax>10000</valuemax>
                                </parameter>
                                <parameter>
                                    <name>reverse</name>
                                    <parameterid>reverse</parameterid>
                                    <value>false</value>
                                </parameter>
                                <parameter>
                                    <name>frameblending</name>
                                    <parameterid>frameblending</parameterid>
                                    <value>false</value>
                                </parameter>
                                <parameter>
                                    <name>variablespeed</name>
                                    <parameterid>variablespeed</parameterid>
                                    <value>0</value>
                                    <valuemin>0</valuemin>
                                    <valuemax>1</valuemax>
                                </parameter>
                                <parameter>
                                    <name>graphdict</name>
                                    <parameterid>graphdict</parameterid>
                                    <keyframe>
                                        <when>0</when>
                                        <value>0</value>
                                        <speedvirtualkf>true</speedvirtualkf>
                                        <speedkfstart>true</speedkfstart>
                                    </keyframe>
                                    <keyframe>
                                        <when>89988</when>
                                        <value>0</value>
                                        <speedvirtualkf>true</speedvirtualkf>
                                        <speedkfin>true</speedkfin>
                                    </keyframe>
                                    <keyframe>
                                        <when>90104</when>
                                        <value>0</value>
                                        <speedvirtualkf>true</speedvirtualkf>
                                        <speedkfout>true</speedkfout>
                                    </keyframe>
                                    <keyframe>
                                        <when>1500001</when>
                                        <value>1</value>
                                        <speedvirtualkf>true</speedvirtualkf>
                                        <speedkfend>true</speedkfend>
                                    </keyframe>
                                    <valuemin>0</valuemin>
                                    <valuemax>0</valuemax>
                                    <interpolation>
                                        <name>FCPCurve</name>
                                    </interpolation>
                                </parameter>
                            </effect>
                        </filter>
                    </clipitem>
                    <transitionitem>
                        <rate>
                            <timebase>25</timebase>
                            <ntsc>false</ntsc>
                        </rate>
                        <start>3871</start>
                        <end>3896</end>
                        <alignment>center</alignment>
                        <effect>
                            <name>Cross Dissolve</name>
                            <effectid>Cross Dissolve</effectid>
                            <effecttype>transition</effecttype>
                            <mediatype>video</mediatype>
                            <effectcategory>Dissolve</effectcategory>
                            <startratio>0</startratio>
                            <endratio>1</endratio>
                            <reverse>false</reverse>
                        </effect>
                        <name>Cross Dissolve</name>
                    </transitionitem>
                    <generatoritem id="Rich 1">
                        <name>Rich</name>
                        <duration>142</duration>
                        <rate>
                            <timebase>25</timebase>
                            <ntsc>false</ntsc>
                        </rate>
                        <in>25</in>
                        <out>96</out>
                        <start>-1</start>
                        <end>-1</end>
                        <enabled>true</enabled>
                        <effect>
                            <name>Scrolling Text</name>
                            <effectid>Scrolling Text</effectid>
                            <effecttype>generator</effecttype>
                            <mediatype>video</mediatype>
                            <effectcategory>Text</effectcategory>
                            <parameter>
                                <name>Text</name>
                                <parameterid>s</parameterid>
                            </parameter>
                            <parameter>
                                <name>Font</name>
                                <parameterid>font</parameterid>
                                <value>.SF NS Text</value>
                            </parameter>
                            <parameter>
                                <name>Style</name>
                                <parameterid>style</parameterid>
                                <value>1</value>
                            </parameter>
                            <parameter>
                                <name>Size</name>
                                <parameterid>size</parameterid>
                                <valuemin>0</valuemin>
                                <valuemax>5.75061070606154e-314</valuemax>
                            </parameter>
                            <parameter>
                                <name>Color</name>
                                <parameterid>col</parameterid>
                            </parameter>
                        </effect>
                        <filter>
                            <enabled>true</enabled>
                            <start>0</start>
                            <end>142</end>
                            <effect>
                                <name>Opacity</name>
                                <effectid>opacity</effectid>
                                <effecttype>motion</effecttype>
                                <mediatype>video</mediatype>
                                <effectcategory>motion</effectcategory>
                                <parameter>
                                    <name>opacity</name>
                                    <parameterid>opacity</parameterid>
                                    <value>100</value>
                                    <valuemin>0</valuemin>
                                    <valuemax>100</valuemax>
                                </parameter>
                            </effect>
                        </filter>
                        <filter>
                            <enabled>true</enabled>
                            <start>0</start>
                            <end>142</end>
                            <effect>
                                <name>Basic Motion</name>
                                <effectid>basic</effectid>
                                <effecttype>motion</effecttype>
                                <mediatype>video</mediatype>
                                <effectcategory>motion</effectcategory>
                                <parameter>
                                    <name>Scale</name>
                                    <parameterid>scale</parameterid>
                                    <value>100</value>
                                    <valuemin>25</valuemin>
                                    <valuemax>400</valuemax>
                                </parameter>
                                <parameter>
                                    <name>Center</name>
                                    <parameterid>center</parameterid>
                                    <value>
                                        <horiz>0</horiz>
                                        <vert>0.0462962985038757</vert>
                                    </value>
                                </parameter>
                                <parameter>
                                    <name>Rotation</name>
                                    <parameterid>rotation</parameterid>
                                    <value>0</value>
                                    <valuemin>-100000</valuemin>
                                    <valuemax>100000</valuemax>
                                </parameter>
                                <parameter>
                                    <name>Anchor Point</name>
                                    <parameterid>centerOffset</parameterid>
                                    <value>
                                        <horiz>0</horiz>
                                        <vert>0</vert>
                                    </value>
                                </parameter>
                            </effect>
                        </filter>
                        <filter>
                            <enabled>true</enabled>
                            <start>0</start>
                            <end>142</end>
                            <effect>
                                <name>Crop</name>
                                <effectid>crop</effectid>
                                <effecttype>motion</effecttype>
                                <mediatype>video</mediatype>
                                <effectcategory>motion</effectcategory>
                                <parameter>
                                    <name>left</name>
                                    <parameterid>left</parameterid>
                                    <value>0</value>
                                    <valuemin>0</valuemin>
                                    <valuemax>100</valuemax>
                                </parameter>
                                <parameter>
                                    <name>right</name>
                                    <parameterid>right</parameterid>
                                    <value>0</value>
                                    <valuemin>0</valuemin>
                                    <valuemax>100</valuemax>
                                </parameter>
                                <parameter>
                                    <name>top</name>
                                    <parameterid>top</parameterid>
                                    <value>0</value>
                                    <valuemin>0</valuemin>
                                    <valuemax>100</valuemax>
                                </parameter>
                                <parameter>
                                    <name>bottom</name>
                                    <parameterid>bottom</parameterid>
                                    <value>0</value>
                                    <valuemin>0</valuemin>
                                    <valuemax>100</valuemax>
                                </parameter>
                            </effect>
                        </filter>
                    </generatoritem>
                    <transitionitem>
                        <rate>
                            <timebase>25</timebase>
                            <ntsc>false</ntsc>
                        </rate>
                        <start>3942</start>
                        <end>3967</end>
                        <alignment>center</alignment>
                        <effect>
                            <name>Cross Dissolve</name>
                            <effectid>Cross Dissolve</effectid>
                            <effecttype>transition</effecttype>
                            <mediatype>video</mediatype>
                            <effectcategory>Dissolve</effectcategory>
                            <startratio>0</startratio>
                            <endratio>1</endratio>
                            <reverse>false</reverse>
                        </effect>
                        <name>Cross Dissolve</name>
                    </transitionitem>
                    <clipitem id="Plakat Kita Geinsheim Update.jpg 0">
                        <name>Plakat Kita Geinsheim Update.jpg</name>
                        <duration>1500001</duration>
                        <rate>
                            <timebase>25</timebase>
                            <ntsc>false</ntsc>
                        </rate>
                        <start>-1</start>
                        <end>4108</end>
                        <enabled>true</enabled>
                        <in>89959</in>
                        <out>90113</out>
                        <file id="Plakat Kita Geinsheim Update.jpg 2">
                            <duration>1</duration>
                            <rate>
                                <timebase>25</timebase>
                                <ntsc>false</ntsc>
                            </rate>
                            <name>Plakat Kita Geinsheim Update.jpg</name>
                            <pathurl>file:///Volumes/ProjectsRaid/WorkingProjects/kita/kita-2016_002-kleines_gespenst/logos/Plakat%20Kita%20Geinsheim%20Update.jpg</pathurl>
                            <timecode>
                                <string>00:00:00:00</string>
                                <displayformat>NDF</displayformat>
                                <rate>
                                    <timebase>25</timebase>
                                    <ntsc>false</ntsc>
                                </rate>
                            </timecode>
                            <media>
                                <video>
                                    <duration>1</duration>
                                    <samplecharacteristics>
                                        <width>1920</width>
                                        <height>1080</height>
                                    </samplecharacteristics>
                                </video>
                            </media>
                        </file>
                        <compositemode>normal</compositemode>
                        <filter>
                            <enabled>true</enabled>
                            <start>0</start>
                            <end>1500001</end>
                            <effect>
                                <name>Opacity</name>
                                <effectid>opacity</effectid>
                                <effecttype>motion</effecttype>
                                <mediatype>video</mediatype>
                                <effectcategory>motion</effectcategory>
                                <parameter>
                                    <name>opacity</name>
                                    <parameterid>opacity</parameterid>
                                    <value>100</value>
                                    <valuemin>0</valuemin>
                                    <valuemax>100</valuemax>
                                </parameter>
                            </effect>
                        </filter>
                        <filter>
                            <enabled>true</enabled>
                            <start>0</start>
                            <end>1500001</end>
                            <effect>
                                <name>Basic Motion</name>
                                <effectid>basic</effectid>
                                <effecttype>motion</effecttype>
                                <mediatype>video</mediatype>
                                <effectcategory>motion</effectcategory>
                                <parameter>
                                    <name>Scale</name>
                                    <parameterid>scale</parameterid>
                                    <value>165</value>
                                    <valuemin>25</valuemin>
                                    <valuemax>400</valuemax>
                                </parameter>
                                <parameter>
                                    <name>Center</name>
                                    <parameterid>center</parameterid>
                                    <value>
                                        <horiz>0</horiz>
                                        <vert>0.133333325386047</vert>
                                    </value>
                                </parameter>
                                <parameter>
                                    <name>Rotation</name>
                                    <parameterid>rotation</parameterid>
                                    <value>0</value>
                                    <valuemin>-100000</valuemin>
                                    <valuemax>100000</valuemax>
                                </parameter>
                                <parameter>
                                    <name>Anchor Point</name>
                                    <parameterid>centerOffset</parameterid>
                                    <value>
                                        <horiz>0</horiz>
                                        <vert>0</vert>
                                    </value>
                                </parameter>
                            </effect>
                        </filter>
                        <filter>
                            <enabled>true</enabled>
                            <start>0</start>
                            <end>1500001</end>
                            <effect>
                                <name>Crop</name>
                                <effectid>crop</effectid>
                                <effecttype>motion</effecttype>
                                <mediatype>video</mediatype>
                                <effectcategory>motion</effectcategory>
                                <parameter>
                                    <name>left</name>
                                    <parameterid>left</parameterid>
                                    <value>0</value>
                                    <valuemin>0</valuemin>
                                    <valuemax>100</valuemax>
                                </parameter>
                                <parameter>
                                    <name>right</name>
                                    <parameterid>right</parameterid>
                                    <value>0</value>
                                    <valuemin>0</valuemin>
                                    <valuemax>100</valuemax>
                                </parameter>
                                <parameter>
                                    <name>top</name>
                                    <parameterid>top</parameterid>
                                    <value>17.8</value>
                                    <valuemin>0</valuemin>
                                    <valuemax>100</valuemax>
                                </parameter>
                                <parameter>
                                    <name>bottom</name>
                                    <parameterid>bottom</parameterid>
                                    <value>29.7</value>
                                    <valuemin>0</valuemin>
                                    <valuemax>100</valuemax>
                                </parameter>
                            </effect>
                        </filter>
                        <filter>
                            <enabled>true</enabled>
                            <start>-1</start>
                            <end>-1</end>
                            <effect>
                                <name>Time Remap</name>
                                <effectid>timeremap</effectid>
                                <effecttype>motion</effecttype>
                                <mediatype>video</mediatype>
                                <effectcategory>motion</effectcategory>
                                <parameter>
                                    <name>speed</name>
                                    <parameterid>speed</parameterid>
                                    <value>0</value>
                                    <valuemin>-10000</valuemin>
                                    <valuemax>10000</valuemax>
                                </parameter>
                                <parameter>
                                    <name>reverse</name>
                                    <parameterid>reverse</parameterid>
                                    <value>false</value>
                                </parameter>
                                <parameter>
                                    <name>frameblending</name>
                                    <parameterid>frameblending</parameterid>
                                    <value>false</value>
                                </parameter>
                                <parameter>
                                    <name>variablespeed</name>
                                    <parameterid>variablespeed</parameterid>
                                    <value>0</value>
                                    <valuemin>0</valuemin>
                                    <valuemax>1</valuemax>
                                </parameter>
                                <parameter>
                                    <name>graphdict</name>
                                    <parameterid>graphdict</parameterid>
                                    <keyframe>
                                        <when>0</when>
                                        <value>0</value>
                                        <speedvirtualkf>true</speedvirtualkf>
                                        <speedkfstart>true</speedkfstart>
                                    </keyframe>
                                    <keyframe>
                                        <when>89971</when>
                                        <value>0</value>
                                        <speedvirtualkf>true</speedvirtualkf>
                                        <speedkfin>true</speedkfin>
                                    </keyframe>
                                    <keyframe>
                                        <when>90125</when>
                                        <value>0</value>
                                        <speedvirtualkf>true</speedvirtualkf>
                                        <speedkfout>true</speedkfout>
                                    </keyframe>
                                    <keyframe>
                                        <when>1500001</when>
                                        <value>1</value>
                                        <speedvirtualkf>true</speedvirtualkf>
                                        <speedkfend>true</speedkfend>
                                    </keyframe>
                                    <valuemin>0</valuemin>
                                    <valuemax>0</valuemax>
                                    <interpolation>
                                        <name>FCPCurve</name>
                                    </interpolation>
                                </parameter>
                            </effect>
                        </filter>
                    </clipitem>
                    <clipitem id="IMG_0498.MOV 0">
                        <name>IMG_0498.MOV</name>
                        <duration>94362</duration>
                        <rate>
                            <timebase>25</timebase>
                            <ntsc>false</ntsc>
                        </rate>
                        <start>5201</start>
                        <end>5532</end>
                        <enabled>true</enabled>
                        <in>1394</in>
                        <out>1725</out>
                        <file id="IMG_0498.MOV 2">
                            <duration>113235</duration>
                            <rate>
                                <timebase>30</timebase>
                                <ntsc>false</ntsc>
                            </rate>
                            <name>IMG_0498.MOV</name>
                            <pathurl>file:///Volumes/ProjectsRaid/WorkingProjects/kita/kita-2016_002-kleines_gespenst/videos/IMG_0498.MOV</pathurl>
                            <timecode>
                                <string>00:00:00:00</string>
                                <displayformat>NDF</displayformat>
                                <rate>
                                    <timebase>30</timebase>
                                    <ntsc>false</ntsc>
                                </rate>
                            </timecode>
                            <media>
                                <video>
                                    <duration>113235</duration>
                                    <samplecharacteristics>
                                        <width>1920</width>
                                        <height>1080</height>
                                    </samplecharacteristics>
                                </video>
                                <audio>
                                    <channelcount>2</channelcount>
                                </audio>
                            </media>
                        </file>
                        <compositemode>normal</compositemode>
                        <filter>
                            <enabled>true</enabled>
                            <start>0</start>
                            <end>94362</end>
                            <effect>
                                <name>Opacity</name>
                                <effectid>opacity</effectid>
                                <effecttype>motion</effecttype>
                                <mediatype>video</mediatype>
                                <effectcategory>motion</effectcategory>
                                <parameter>
                                    <name>opacity</name>
                                    <parameterid>opacity</parameterid>
                                    <value>100</value>
                                    <valuemin>0</valuemin>
                                    <valuemax>100</valuemax>
                                </parameter>
                            </effect>
                        </filter>
                        <filter>
                            <enabled>true</enabled>
                            <start>0</start>
                            <end>94362</end>
                            <effect>
                                <name>Basic Motion</name>
                                <effectid>basic</effectid>
                                <effecttype>motion</effecttype>
                                <mediatype>video</mediatype>
                                <effectcategory>motion</effectcategory>
                                <parameter>
                                    <name>Scale</name>
                                    <parameterid>scale</parameterid>
                                    <value>117</value>
                                    <valuemin>25</valuemin>
                                    <valuemax>400</valuemax>
                                </parameter>
                                <parameter>
                                    <name>Center</name>
                                    <parameterid>center</parameterid>
                                    <value>
                                        <horiz>0.0203125048428774</horiz>
                                        <vert>0.038888905197382</vert>
                                    </value>
                                </parameter>
                                <parameter>
                                    <name>Rotation</name>
                                    <parameterid>rotation</parameterid>
                                    <value>-3.00781</value>
                                    <valuemin>-100000</valuemin>
                                    <valuemax>100000</valuemax>
                                </parameter>
                                <parameter>
                                    <name>Anchor Point</name>
                                    <parameterid>centerOffset</parameterid>
                                    <value>
                                        <horiz>0</horiz>
                                        <vert>0</vert>
                                    </value>
                                </parameter>
                            </effect>
                        </filter>
                        <filter>
                            <enabled>true</enabled>
                            <start>0</start>
                            <end>94362</end>
                            <effect>
                                <name>Crop</name>
                                <effectid>crop</effectid>
                                <effecttype>motion</effecttype>
                                <mediatype>video</mediatype>
                                <effectcategory>motion</effectcategory>
                                <parameter>
                                    <name>left</name>
                                    <parameterid>left</parameterid>
                                    <value>0</value>
                                    <valuemin>0</valuemin>
                                    <valuemax>100</valuemax>
                                </parameter>
                                <parameter>
                                    <name>right</name>
                                    <parameterid>right</parameterid>
                                    <value>0</value>
                                    <valuemin>0</valuemin>
                                    <valuemax>100</valuemax>
                                </parameter>
                                <parameter>
                                    <name>top</name>
                                    <parameterid>top</parameterid>
                                    <value>0</value>
                                    <valuemin>0</valuemin>
                                    <valuemax>100</valuemax>
                                </parameter>
                                <parameter>
                                    <name>bottom</name>
                                    <parameterid>bottom</parameterid>
                                    <value>0</value>
                                    <valuemin>0</valuemin>
                                    <valuemax>100</valuemax>
                                </parameter>
                            </effect>
                        </filter>
                        <link>
                            <linkclipref>IMG_0498.MOV 0</linkclipref>
                        </link>
                        <link>
                            <linkclipref>IMG_0498.MOV 97</linkclipref>
                        </link>
                    </clipitem>
                    <clipitem id="IMG_0498.MOV 3">
                        <name>IMG_0498.MOV</name>
                        <duration>94362</duration>
                        <rate>
                            <timebase>25</timebase>
                            <ntsc>false</ntsc>
                        </rate>
                        <start>5569</start>
                        <end>5987</end>
                        <enabled>true</enabled>
                        <in>1698</in>
                        <out>2116</out>
                        <file id="IMG_0498.MOV 2"/>
                        <compositemode>normal</compositemode>
                        <filter>
                            <enabled>true</enabled>
                            <start>0</start>
                            <end>94362</end>
                            <effect>
                                <name>Opacity</name>
                                <effectid>opacity</effectid>
                                <effecttype>motion</effecttype>
                                <mediatype>video</mediatype>
                                <effectcategory>motion</effectcategory>
                                <parameter>
                                    <name>opacity</name>
                                    <parameterid>opacity</parameterid>
                                    <value>100</value>
                                    <valuemin>0</valuemin>
                                    <valuemax>100</valuemax>
                                </parameter>
                            </effect>
                        </filter>
                        <filter>
                            <enabled>true</enabled>
                            <start>0</start>
                            <end>94362</end>
                            <effect>
                                <name>Basic Motion</name>
                                <effectid>basic</effectid>
                                <effecttype>motion</effecttype>
                                <mediatype>video</mediatype>
                                <effectcategory>motion</effectcategory>
                                <parameter>
                                    <name>Scale</name>
                                    <parameterid>scale</parameterid>
                                    <value>134</value>
                                    <valuemin>25</valuemin>
                                    <valuemax>400</valuemax>
                                </parameter>
                                <parameter>
                                    <name>Center</name>
                                    <parameterid>center</parameterid>
                                    <value>
                                        <horiz>0.138541623950005</horiz>
                                        <vert>0.108333140611649</vert>
                                    </value>
                                </parameter>
                                <parameter>
                                    <name>Rotation</name>
                                    <parameterid>rotation</parameterid>
                                    <value>-3.00781</value>
                                    <valuemin>-100000</valuemin>
                                    <valuemax>100000</valuemax>
                                </parameter>
                                <parameter>
                                    <name>Anchor Point</name>
                                    <parameterid>centerOffset</parameterid>
                                    <value>
                                        <horiz>0</horiz>
                                        <vert>0</vert>
                                    </value>
                                </parameter>
                            </effect>
                        </filter>
                        <filter>
                            <enabled>true</enabled>
                            <start>0</start>
                            <end>94362</end>
                            <effect>
                                <name>Crop</name>
                                <effectid>crop</effectid>
                                <effecttype>motion</effecttype>
                                <mediatype>video</mediatype>
                                <effectcategory>motion</effectcategory>
                                <parameter>
                                    <name>left</name>
                                    <parameterid>left</parameterid>
                                    <value>0</value>
                                    <valuemin>0</valuemin>
                                    <valuemax>100</valuemax>
                                </parameter>
                                <parameter>
                                    <name>right</name>
                                    <parameterid>right</parameterid>
                                    <value>0</value>
                                    <valuemin>0</valuemin>
                                    <valuemax>100</valuemax>
                                </parameter>
                                <parameter>
                                    <name>top</name>
                                    <parameterid>top</parameterid>
                                    <value>0</value>
                                    <valuemin>0</valuemin>
                                    <valuemax>100</valuemax>
                                </parameter>
                                <parameter>
                                    <name>bottom</name>
                                    <parameterid>bottom</parameterid>
                                    <value>0</value>
                                    <valuemin>0</valuemin>
                                    <valuemax>100</valuemax>
                                </parameter>
                            </effect>
                        </filter>
                        <link>
                            <linkclipref>IMG_0498.MOV 3</linkclipref>
                        </link>
                        <link>
                            <linkclipref>IMG_0498.MOV 98</linkclipref>
                        </link>
                    </clipitem>
                    <clipitem id="IMG_0498.MOV 5">
                        <name>IMG_0498.MOV</name>
                        <duration>94362</duration>
                        <rate>
                            <timebase>25</timebase>
                            <ntsc>false</ntsc>
                        </rate>
                        <start>6104</start>
                        <end>6188</end>
                        <enabled>true</enabled>
                        <in>2276</in>
                        <out>2360</out>
                        <file id="IMG_0498.MOV 2"/>
                        <compositemode>normal</compositemode>
                        <filter>
                            <enabled>true</enabled>
                            <start>0</start>
                            <end>94362</end>
                            <effect>
                                <name>Opacity</name>
                                <effectid>opacity</effectid>
                                <effecttype>motion</effecttype>
                                <mediatype>video</mediatype>
                                <effectcategory>motion</effectcategory>
                                <parameter>
                                    <name>opacity</name>
                                    <parameterid>opacity</parameterid>
                                    <value>100</value>
                                    <valuemin>0</valuemin>
                                    <valuemax>100</valuemax>
                                </parameter>
                            </effect>
                        </filter>
                        <filter>
                            <enabled>true</enabled>
                            <start>0</start>
                            <end>94362</end>
                            <effect>
                                <name>Basic Motion</name>
                                <effectid>basic</effectid>
                                <effecttype>motion</effecttype>
                                <mediatype>video</mediatype>
                                <effectcategory>motion</effectcategory>
                                <parameter>
                                    <name>Scale</name>
                                    <parameterid>scale</parameterid>
                                    <value>200</value>
                                    <valuemin>25</valuemin>
                                    <valuemax>400</valuemax>
                                </parameter>
                                <parameter>
                                    <name>Center</name>
                                    <parameterid>center</parameterid>
                                    <value>
                                        <horiz>0.222395941615105</horiz>
                                        <vert>0.401851922273636</vert>
                                    </value>
                                </parameter>
                                <parameter>
                                    <name>Rotation</name>
                                    <parameterid>rotation</parameterid>
                                    <value>0</value>
                                    <valuemin>-100000</valuemin>
                                    <valuemax>100000</valuemax>
                                </parameter>
                                <parameter>
                                    <name>Anchor Point</name>
                                    <parameterid>centerOffset</parameterid>
                                    <value>
                                        <horiz>0</horiz>
                                        <vert>0</vert>
                                    </value>
                                </parameter>
                            </effect>
                        </filter>
                        <filter>
                            <enabled>true</enabled>
                            <start>0</start>
                            <end>94362</end>
                            <effect>
                                <name>Crop</name>
                                <effectid>crop</effectid>
                                <effecttype>motion</effecttype>
                                <mediatype>video</mediatype>
                                <effectcategory>motion</effectcategory>
                                <parameter>
                                    <name>left</name>
                                    <parameterid>left</parameterid>
                                    <value>0</value>
                                    <valuemin>0</valuemin>
                                    <valuemax>100</valuemax>
                                </parameter>
                                <parameter>
                                    <name>right</name>
                                    <parameterid>right</parameterid>
                                    <value>0</value>
                                    <valuemin>0</valuemin>
                                    <valuemax>100</valuemax>
                                </parameter>
                                <parameter>
                                    <name>top</name>
                                    <parameterid>top</parameterid>
                                    <value>0</value>
                                    <valuemin>0</valuemin>
                                    <valuemax>100</valuemax>
                                </parameter>
                                <parameter>
                                    <name>bottom</name>
                                    <parameterid>bottom</parameterid>
                                    <value>0</value>
                                    <valuemin>0</valuemin>
                                    <valuemax>100</valuemax>
                                </parameter>
                            </effect>
                        </filter>
                        <link>
                            <linkclipref>IMG_0498.MOV 5</linkclipref>
                        </link>
                        <link>
                            <linkclipref>IMG_0498.MOV 99</linkclipref>
                        </link>
                    </clipitem>
                    <clipitem id="IMG_0498.MOV 7">
                        <name>IMG_0498.MOV</name>
                        <duration>94362</duration>
                        <rate>
                            <timebase>25</timebase>
                            <ntsc>false</ntsc>
                        </rate>
                        <start>6382</start>
                        <end>6576</end>
                        <enabled>true</enabled>
                        <in>2433</in>
                        <out>2627</out>
                        <file id="IMG_0498.MOV 2"/>
                        <compositemode>normal</compositemode>
                        <filter>
                            <enabled>true</enabled>
                            <start>0</start>
                            <end>94362</end>
                            <effect>
                                <name>Opacity</name>
                                <effectid>opacity</effectid>
                                <effecttype>motion</effecttype>
                                <mediatype>video</mediatype>
                                <effectcategory>motion</effectcategory>
                                <parameter>
                                    <name>opacity</name>
                                    <parameterid>opacity</parameterid>
                                    <value>100</value>
                                    <valuemin>0</valuemin>
                                    <valuemax>100</valuemax>
                                </parameter>
                            </effect>
                        </filter>
                        <filter>
                            <enabled>true</enabled>
                            <start>0</start>
                            <end>94362</end>
                            <effect>
                                <name>Basic Motion</name>
                                <effectid>basic</effectid>
                                <effecttype>motion</effecttype>
                                <mediatype>video</mediatype>
                                <effectcategory>motion</effectcategory>
                                <parameter>
                                    <name>Scale</name>
                                    <parameterid>scale</parameterid>
                                    <value>100</value>
                                    <valuemin>25</valuemin>
                                    <valuemax>400</valuemax>
                                </parameter>
                                <parameter>
                                    <name>Center</name>
                                    <parameterid>center</parameterid>
                                    <value>
                                        <horiz>0</horiz>
                                        <vert>0</vert>
                                    </value>
                                </parameter>
                                <parameter>
                                    <name>Rotation</name>
                                    <parameterid>rotation</parameterid>
                                    <value>0</value>
                                    <valuemin>-100000</valuemin>
                                    <valuemax>100000</valuemax>
                                </parameter>
                                <parameter>
                                    <name>Anchor Point</name>
                                    <parameterid>centerOffset</parameterid>
                                    <value>
                                        <horiz>0</horiz>
                                        <vert>0</vert>
                                    </value>
                                </parameter>
                            </effect>
                        </filter>
                        <filter>
                            <enabled>true</enabled>
                            <start>0</start>
                            <end>94362</end>
                            <effect>
                                <name>Crop</name>
                                <effectid>crop</effectid>
                                <effecttype>motion</effecttype>
                                <mediatype>video</mediatype>
                                <effectcategory>motion</effectcategory>
                                <parameter>
                                    <name>left</name>
                                    <parameterid>left</parameterid>
                                    <value>0</value>
                                    <valuemin>0</valuemin>
                                    <valuemax>100</valuemax>
                                </parameter>
                                <parameter>
                                    <name>right</name>
                                    <parameterid>right</parameterid>
                                    <value>0</value>
                                    <valuemin>0</valuemin>
                                    <valuemax>100</valuemax>
                                </parameter>
                                <parameter>
                                    <name>top</name>
                                    <parameterid>top</parameterid>
                                    <value>0</value>
                                    <valuemin>0</valuemin>
                                    <valuemax>100</valuemax>
                                </parameter>
                                <parameter>
                                    <name>bottom</name>
                                    <parameterid>bottom</parameterid>
                                    <value>0</value>
                                    <valuemin>0</valuemin>
                                    <valuemax>100</valuemax>
                                </parameter>
                            </effect>
                        </filter>
                        <link>
                            <linkclipref>IMG_0498.MOV 7</linkclipref>
                        </link>
                        <link>
                            <linkclipref>IMG_0498.MOV 100</linkclipref>
                        </link>
                    </clipitem>
                    <clipitem id="IMG_0498.MOV 9">
                        <name>IMG_0498.MOV</name>
                        <duration>94362</duration>
                        <rate>
                            <timebase>25</timebase>
                            <ntsc>false</ntsc>
                        </rate>
                        <start>6719</start>
                        <end>7047</end>
                        <enabled>true</enabled>
                        <in>2764</in>
                        <out>3092</out>
                        <file id="IMG_0498.MOV 2"/>
                        <compositemode>normal</compositemode>
                        <filter>
                            <enabled>true</enabled>
                            <start>0</start>
                            <end>94362</end>
                            <effect>
                                <name>Opacity</name>
                                <effectid>opacity</effectid>
                                <effecttype>motion</effecttype>
                                <mediatype>video</mediatype>
                                <effectcategory>motion</effectcategory>
                                <parameter>
                                    <name>opacity</name>
                                    <parameterid>opacity</parameterid>
                                    <value>100</value>
                                    <valuemin>0</valuemin>
                                    <valuemax>100</valuemax>
                                </parameter>
                            </effect>
                        </filter>
                        <filter>
                            <enabled>true</enabled>
                            <start>0</start>
                            <end>94362</end>
                            <effect>
                                <name>Basic Motion</name>
                                <effectid>basic</effectid>
                                <effecttype>motion</effecttype>
                                <mediatype>video</mediatype>
                                <effectcategory>motion</effectcategory>
                                <parameter>
                                    <name>Scale</name>
                                    <parameterid>scale</parameterid>
                                    <value>122</value>
                                    <valuemin>25</valuemin>
                                    <valuemax>400</valuemax>
                                </parameter>
                                <parameter>
                                    <name>Center</name>
                                    <parameterid>center</parameterid>
                                    <value>
                                        <horiz>-0.00052082393085584</horiz>
                                        <vert>0.0629629567265511</vert>
                                    </value>
                                </parameter>
                                <parameter>
                                    <name>Rotation</name>
                                    <parameterid>rotation</parameterid>
                                    <value>-3.00781</value>
                                    <valuemin>-100000</valuemin>
                                    <valuemax>100000</valuemax>
                                </parameter>
                                <parameter>
                                    <name>Anchor Point</name>
                                    <parameterid>centerOffset</parameterid>
                                    <value>
                                        <horiz>0</horiz>
                                        <vert>0</vert>
                                    </value>
                                </parameter>
                            </effect>
                        </filter>
                        <filter>
                            <enabled>true</enabled>
                            <start>0</start>
                            <end>94362</end>
                            <effect>
                                <name>Crop</name>
                                <effectid>crop</effectid>
                                <effecttype>motion</effecttype>
                                <mediatype>video</mediatype>
                                <effectcategory>motion</effectcategory>
                                <parameter>
                                    <name>left</name>
                                    <parameterid>left</parameterid>
                                    <value>0</value>
                                    <valuemin>0</valuemin>
                                    <valuemax>100</valuemax>
                                </parameter>
                                <parameter>
                                    <name>right</name>
                                    <parameterid>right</parameterid>
                                    <value>0</value>
                                    <valuemin>0</valuemin>
                                    <valuemax>100</valuemax>
                                </parameter>
                                <parameter>
                                    <name>top</name>
                                    <parameterid>top</parameterid>
                                    <value>0</value>
                                    <valuemin>0</valuemin>
                                    <valuemax>100</valuemax>
                                </parameter>
                                <parameter>
                                    <name>bottom</name>
                                    <parameterid>bottom</parameterid>
                                    <value>0</value>
                                    <valuemin>0</valuemin>
                                    <valuemax>100</valuemax>
                                </parameter>
                            </effect>
                        </filter>
                        <link>
                            <linkclipref>IMG_0498.MOV 9</linkclipref>
                        </link>
                        <link>
                            <linkclipref>IMG_0498.MOV 101</linkclipref>
                        </link>
                    </clipitem>
                    <clipitem id="IMG_0498.MOV 11">
                        <name>IMG_0498.MOV</name>
                        <duration>94362</duration>
                        <rate>
                            <timebase>25</timebase>
                            <ntsc>false</ntsc>
                        </rate>
                        <start>7500</start>
                        <end>7877</end>
                        <enabled>true</enabled>
                        <in>3545</in>
                        <out>3922</out>
                        <file id="IMG_0498.MOV 2"/>
                        <compositemode>normal</compositemode>
                        <filter>
                            <enabled>true</enabled>
                            <start>0</start>
                            <end>94362</end>
                            <effect>
                                <name>Opacity</name>
                                <effectid>opacity</effectid>
                                <effecttype>motion</effecttype>
                                <mediatype>video</mediatype>
                                <effectcategory>motion</effectcategory>
                                <parameter>
                                    <name>opacity</name>
                                    <parameterid>opacity</parameterid>
                                    <value>100</value>
                                    <valuemin>0</valuemin>
                                    <valuemax>100</valuemax>
                                </parameter>
                            </effect>
                        </filter>
                        <filter>
                            <enabled>true</enabled>
                            <start>0</start>
                            <end>94362</end>
                            <effect>
                                <name>Basic Motion</name>
                                <effectid>basic</effectid>
                                <effecttype>motion</effecttype>
                                <mediatype>video</mediatype>
                                <effectcategory>motion</effectcategory>
                                <parameter>
                                    <name>Scale</name>
                                    <parameterid>scale</parameterid>
                                    <value>113</value>
                                    <valuemin>25</valuemin>
                                    <valuemax>400</valuemax>
                                </parameter>
                                <parameter>
                                    <name>Center</name>
                                    <parameterid>center</parameterid>
                                    <value>
                                        <horiz>-0.0499999932944775</horiz>
                                        <vert>0.0203703753650188</vert>
                                    </value>
                                </parameter>
                                <parameter>
                                    <name>Rotation</name>
                                    <parameterid>rotation</parameterid>
                                    <value>-3.00781</value>
                                    <valuemin>-100000</valuemin>
                                    <valuemax>100000</valuemax>
                                </parameter>
                                <parameter>
                                    <name>Anchor Point</name>
                                    <parameterid>centerOffset</parameterid>
                                    <value>
                                        <horiz>0</horiz>
                                        <vert>0</vert>
                                    </value>
                                </parameter>
                            </effect>
                        </filter>
                        <filter>
                            <enabled>true</enabled>
                            <start>0</start>
                            <end>94362</end>
                            <effect>
                                <name>Crop</name>
                                <effectid>crop</effectid>
                                <effecttype>motion</effecttype>
                                <mediatype>video</mediatype>
                                <effectcategory>motion</effectcategory>
                                <parameter>
                                    <name>left</name>
                                    <parameterid>left</parameterid>
                                    <value>0</value>
                                    <valuemin>0</valuemin>
                                    <valuemax>100</valuemax>
                                </parameter>
                                <parameter>
                                    <name>right</name>
                                    <parameterid>right</parameterid>
                                    <value>0</value>
                                    <valuemin>0</valuemin>
                                    <valuemax>100</valuemax>
                                </parameter>
                                <parameter>
                                    <name>top</name>
                                    <parameterid>top</parameterid>
                                    <value>0</value>
                                    <valuemin>0</valuemin>
                                    <valuemax>100</valuemax>
                                </parameter>
                                <parameter>
                                    <name>bottom</name>
                                    <parameterid>bottom</parameterid>
                                    <value>0</value>
                                    <valuemin>0</valuemin>
                                    <valuemax>100</valuemax>
                                </parameter>
                            </effect>
                        </filter>
                        <link>
                            <linkclipref>IMG_0498.MOV 11</linkclipref>
                        </link>
                        <link>
                            <linkclipref>IMG_0498.MOV 102</linkclipref>
                        </link>
                    </clipitem>
                    <clipitem id="IMG_0498.MOV 13">
                        <name>IMG_0498.MOV</name>
                        <duration>94362</duration>
                        <rate>
                            <timebase>25</timebase>
                            <ntsc>false</ntsc>
                        </rate>
                        <start>8333</start>
                        <end>8470</end>
                        <enabled>true</enabled>
                        <in>4378</in>
                        <out>4515</out>
                        <file id="IMG_0498.MOV 2"/>
                        <compositemode>normal</compositemode>
                        <filter>
                            <enabled>true</enabled>
                            <start>0</start>
                            <end>94362</end>
                            <effect>
                                <name>Opacity</name>
                                <effectid>opacity</effectid>
                                <effecttype>motion</effecttype>
                                <mediatype>video</mediatype>
                                <effectcategory>motion</effectcategory>
                                <parameter>
                                    <name>opacity</name>
                                    <parameterid>opacity</parameterid>
                                    <value>100</value>
                                    <valuemin>0</valuemin>
                                    <valuemax>100</valuemax>
                                </parameter>
                            </effect>
                        </filter>
                        <filter>
                            <enabled>true</enabled>
                            <start>0</start>
                            <end>94362</end>
                            <effect>
                                <name>Basic Motion</name>
                                <effectid>basic</effectid>
                                <effecttype>motion</effecttype>
                                <mediatype>video</mediatype>
                                <effectcategory>motion</effectcategory>
                                <parameter>
                                    <name>Scale</name>
                                    <parameterid>scale</parameterid>
                                    <value>113</value>
                                    <valuemin>25</valuemin>
                                    <valuemax>400</valuemax>
                                </parameter>
                                <parameter>
                                    <name>Center</name>
                                    <parameterid>center</parameterid>
                                    <value>
                                        <horiz>-0.0499999932944775</horiz>
                                        <vert>0.0203703753650188</vert>
                                    </value>
                                </parameter>
                                <parameter>
                                    <name>Rotation</name>
                                    <parameterid>rotation</parameterid>
                                    <value>-3.00781</value>
                                    <valuemin>-100000</valuemin>
                                    <valuemax>100000</valuemax>
                                </parameter>
                                <parameter>
                                    <name>Anchor Point</name>
                                    <parameterid>centerOffset</parameterid>
                                    <value>
                                        <horiz>0</horiz>
                                        <vert>0</vert>
                                    </value>
                                </parameter>
                            </effect>
                        </filter>
                        <filter>
                            <enabled>true</enabled>
                            <start>0</start>
                            <end>94362</end>
                            <effect>
                                <name>Crop</name>
                                <effectid>crop</effectid>
                                <effecttype>motion</effecttype>
                                <mediatype>video</mediatype>
                                <effectcategory>motion</effectcategory>
                                <parameter>
                                    <name>left</name>
                                    <parameterid>left</parameterid>
                                    <value>0</value>
                                    <valuemin>0</valuemin>
                                    <valuemax>100</valuemax>
                                </parameter>
                                <parameter>
                                    <name>right</name>
                                    <parameterid>right</parameterid>
                                    <value>0</value>
                                    <valuemin>0</valuemin>
                                    <valuemax>100</valuemax>
                                </parameter>
                                <parameter>
                                    <name>top</name>
                                    <parameterid>top</parameterid>
                                    <value>0</value>
                                    <valuemin>0</valuemin>
                                    <valuemax>100</valuemax>
                                </parameter>
                                <parameter>
                                    <name>bottom</name>
                                    <parameterid>bottom</parameterid>
                                    <value>0</value>
                                    <valuemin>0</valuemin>
                                    <valuemax>100</valuemax>
                                </parameter>
                            </effect>
                        </filter>
                        <link>
                            <linkclipref>IMG_0498.MOV 13</linkclipref>
                        </link>
                        <link>
                            <linkclipref>IMG_0498.MOV 103</linkclipref>
                        </link>
                    </clipitem>
                    <clipitem id="IMG_0498.MOV 15">
                        <name>IMG_0498.MOV</name>
                        <duration>94362</duration>
                        <rate>
                            <timebase>25</timebase>
                            <ntsc>false</ntsc>
                        </rate>
                        <start>9417</start>
                        <end>9916</end>
                        <enabled>true</enabled>
                        <in>5744</in>
                        <out>6243</out>
                        <file id="IMG_0498.MOV 2"/>
                        <compositemode>normal</compositemode>
                        <filter>
                            <enabled>true</enabled>
                            <start>0</start>
                            <end>94362</end>
                            <effect>
                                <name>Opacity</name>
                                <effectid>opacity</effectid>
                                <effecttype>motion</effecttype>
                                <mediatype>video</mediatype>
                                <effectcategory>motion</effectcategory>
                                <parameter>
                                    <name>opacity</name>
                                    <parameterid>opacity</parameterid>
                                    <value>100</value>
                                    <valuemin>0</valuemin>
                                    <valuemax>100</valuemax>
                                </parameter>
                            </effect>
                        </filter>
                        <filter>
                            <enabled>true</enabled>
                            <start>0</start>
                            <end>94362</end>
                            <effect>
                                <name>Basic Motion</name>
                                <effectid>basic</effectid>
                                <effecttype>motion</effecttype>
                                <mediatype>video</mediatype>
                                <effectcategory>motion</effectcategory>
                                <parameter>
                                    <name>Scale</name>
                                    <parameterid>scale</parameterid>
                                    <value>131</value>
                                    <valuemin>25</valuemin>
                                    <valuemax>400</valuemax>
                                </parameter>
                                <parameter>
                                    <name>Center</name>
                                    <parameterid>center</parameterid>
                                    <value>
                                        <horiz>-0.123437486588955</horiz>
                                        <vert>0.119444414973259</vert>
                                    </value>
                                </parameter>
                                <parameter>
                                    <name>Rotation</name>
                                    <parameterid>rotation</parameterid>
                                    <value>-3.00781</value>
                                    <valuemin>-100000</valuemin>
                                    <valuemax>100000</valuemax>
                                </parameter>
                                <parameter>
                                    <name>Anchor Point</name>
                                    <parameterid>centerOffset</parameterid>
                                    <value>
                                        <horiz>0</horiz>
                                        <vert>0</vert>
                                    </value>
                                </parameter>
                            </effect>
                        </filter>
                        <filter>
                            <enabled>true</enabled>
                            <start>0</start>
                            <end>94362</end>
                            <effect>
                                <name>Crop</name>
                                <effectid>crop</effectid>
                                <effecttype>motion</effecttype>
                                <mediatype>video</mediatype>
                                <effectcategory>motion</effectcategory>
                                <parameter>
                                    <name>left</name>
                                    <parameterid>left</parameterid>
                                    <value>0</value>
                                    <valuemin>0</valuemin>
                                    <valuemax>100</valuemax>
                                </parameter>
                                <parameter>
                                    <name>right</name>
                                    <parameterid>right</parameterid>
                                    <value>0</value>
                                    <valuemin>0</valuemin>
                                    <valuemax>100</valuemax>
                                </parameter>
                                <parameter>
                                    <name>top</name>
                                    <parameterid>top</parameterid>
                                    <value>0</value>
                                    <valuemin>0</valuemin>
                                    <valuemax>100</valuemax>
                                </parameter>
                                <parameter>
                                    <name>bottom</name>
                                    <parameterid>bottom</parameterid>
                                    <value>0</value>
                                    <valuemin>0</valuemin>
                                    <valuemax>100</valuemax>
                                </parameter>
                            </effect>
                        </filter>
                        <link>
                            <linkclipref>IMG_0498.MOV 15</linkclipref>
                        </link>
                        <link>
                            <linkclipref>IMG_0498.MOV 104</linkclipref>
                        </link>
                    </clipitem>
                    <clipitem id="IMG_0498.MOV 17">
                        <name>IMG_0498.MOV</name>
                        <duration>94362</duration>
                        <rate>
                            <timebase>25</timebase>
                            <ntsc>false</ntsc>
                        </rate>
                        <start>10470</start>
                        <end>11019</end>
                        <enabled>true</enabled>
                        <in>6803</in>
                        <out>7352</out>
                        <file id="IMG_0498.MOV 2"/>
                        <compositemode>normal</compositemode>
                        <filter>
                            <enabled>true</enabled>
                            <start>0</start>
                            <end>94362</end>
                            <effect>
                                <name>Opacity</name>
                                <effectid>opacity</effectid>
                                <effecttype>motion</effecttype>
                                <mediatype>video</mediatype>
                                <effectcategory>motion</effectcategory>
                                <parameter>
                                    <name>opacity</name>
                                    <parameterid>opacity</parameterid>
                                    <value>100</value>
                                    <valuemin>0</valuemin>
                                    <valuemax>100</valuemax>
                                </parameter>
                            </effect>
                        </filter>
                        <filter>
                            <enabled>true</enabled>
                            <start>0</start>
                            <end>94362</end>
                            <effect>
                                <name>Basic Motion</name>
                                <effectid>basic</effectid>
                                <effecttype>motion</effecttype>
                                <mediatype>video</mediatype>
                                <effectcategory>motion</effectcategory>
                                <parameter>
                                    <name>Scale</name>
                                    <parameterid>scale</parameterid>
                                    <value>163</value>
                                    <valuemin>25</valuemin>
                                    <valuemax>400</valuemax>
                                </parameter>
                                <parameter>
                                    <name>Center</name>
                                    <parameterid>center</parameterid>
                                    <value>
                                        <horiz>-0.164583384990692</horiz>
                                        <vert>0.135185211896896</vert>
                                    </value>
                                </parameter>
                                <parameter>
                                    <name>Rotation</name>
                                    <parameterid>rotation</parameterid>
                                    <value>-3.00781</value>
                                    <valuemin>-100000</valuemin>
                                    <valuemax>100000</valuemax>
                                </parameter>
                                <parameter>
                                    <name>Anchor Point</name>
                                    <parameterid>centerOffset</parameterid>
                                    <value>
                                        <horiz>0</horiz>
                                        <vert>0</vert>
                                    </value>
                                </parameter>
                            </effect>
                        </filter>
                        <filter>
                            <enabled>true</enabled>
                            <start>0</start>
                            <end>94362</end>
                            <effect>
                                <name>Crop</name>
                                <effectid>crop</effectid>
                                <effecttype>motion</effecttype>
                                <mediatype>video</mediatype>
                                <effectcategory>motion</effectcategory>
                                <parameter>
                                    <name>left</name>
                                    <parameterid>left</parameterid>
                                    <value>0</value>
                                    <valuemin>0</valuemin>
                                    <valuemax>100</valuemax>
                                </parameter>
                                <parameter>
                                    <name>right</name>
                                    <parameterid>right</parameterid>
                                    <value>0</value>
                                    <valuemin>0</valuemin>
                                    <valuemax>100</valuemax>
                                </parameter>
                                <parameter>
                                    <name>top</name>
                                    <parameterid>top</parameterid>
                                    <value>0</value>
                                    <valuemin>0</valuemin>
                                    <valuemax>100</valuemax>
                                </parameter>
                                <parameter>
                                    <name>bottom</name>
                                    <parameterid>bottom</parameterid>
                                    <value>0</value>
                                    <valuemin>0</valuemin>
                                    <valuemax>100</valuemax>
                                </parameter>
                            </effect>
                        </filter>
                        <link>
                            <linkclipref>IMG_0498.MOV 17</linkclipref>
                        </link>
                        <link>
                            <linkclipref>IMG_0498.MOV 105</linkclipref>
                        </link>
                    </clipitem>
                    <clipitem id="IMG_0498.MOV 19">
                        <name>IMG_0498.MOV</name>
                        <duration>94362</duration>
                        <rate>
                            <timebase>25</timebase>
                            <ntsc>false</ntsc>
                        </rate>
                        <start>11427</start>
                        <end>11764</end>
                        <enabled>true</enabled>
                        <in>7760</in>
                        <out>8097</out>
                        <file id="IMG_0498.MOV 2"/>
                        <compositemode>normal</compositemode>
                        <filter>
                            <enabled>true</enabled>
                            <start>0</start>
                            <end>94362</end>
                            <effect>
                                <name>Opacity</name>
                                <effectid>opacity</effectid>
                                <effecttype>motion</effecttype>
                                <mediatype>video</mediatype>
                                <effectcategory>motion</effectcategory>
                                <parameter>
                                    <name>opacity</name>
                                    <parameterid>opacity</parameterid>
                                    <value>100</value>
                                    <valuemin>0</valuemin>
                                    <valuemax>100</valuemax>
                                </parameter>
                            </effect>
                        </filter>
                        <filter>
                            <enabled>true</enabled>
                            <start>0</start>
                            <end>94362</end>
                            <effect>
                                <name>Basic Motion</name>
                                <effectid>basic</effectid>
                                <effecttype>motion</effecttype>
                                <mediatype>video</mediatype>
                                <effectcategory>motion</effectcategory>
                                <parameter>
                                    <name>Scale</name>
                                    <parameterid>scale</parameterid>
                                    <value>200</value>
                                    <valuemin>25</valuemin>
                                    <valuemax>400</valuemax>
                                </parameter>
                                <parameter>
                                    <name>Center</name>
                                    <parameterid>center</parameterid>
                                    <value>
                                        <horiz>-0.322395801544189</horiz>
                                        <vert>0.137037038803101</vert>
                                    </value>
                                </parameter>
                                <parameter>
                                    <name>Rotation</name>
                                    <parameterid>rotation</parameterid>
                                    <value>-3.00781</value>
                                    <valuemin>-100000</valuemin>
                                    <valuemax>100000</valuemax>
                                </parameter>
                                <parameter>
                                    <name>Anchor Point</name>
                                    <parameterid>centerOffset</parameterid>
                                    <value>
                                        <horiz>0</horiz>
                                        <vert>0</vert>
                                    </value>
                                </parameter>
                            </effect>
                        </filter>
                        <filter>
                            <enabled>true</enabled>
                            <start>0</start>
                            <end>94362</end>
                            <effect>
                                <name>Crop</name>
                                <effectid>crop</effectid>
                                <effecttype>motion</effecttype>
                                <mediatype>video</mediatype>
                                <effectcategory>motion</effectcategory>
                                <parameter>
                                    <name>left</name>
                                    <parameterid>left</parameterid>
                                    <value>0</value>
                                    <valuemin>0</valuemin>
                                    <valuemax>100</valuemax>
                                </parameter>
                                <parameter>
                                    <name>right</name>
                                    <parameterid>right</parameterid>
                                    <value>0</value>
                                    <valuemin>0</valuemin>
                                    <valuemax>100</valuemax>
                                </parameter>
                                <parameter>
                                    <name>top</name>
                                    <parameterid>top</parameterid>
                                    <value>0</value>
                                    <valuemin>0</valuemin>
                                    <valuemax>100</valuemax>
                                </parameter>
                                <parameter>
                                    <name>bottom</name>
                                    <parameterid>bottom</parameterid>
                                    <value>0</value>
                                    <valuemin>0</valuemin>
                                    <valuemax>100</valuemax>
                                </parameter>
                            </effect>
                        </filter>
                        <link>
                            <linkclipref>IMG_0498.MOV 19</linkclipref>
                        </link>
                        <link>
                            <linkclipref>IMG_0498.MOV 106</linkclipref>
                        </link>
                    </clipitem>
                    <clipitem id="IMG_0498.MOV 21">
                        <name>IMG_0498.MOV</name>
                        <duration>94362</duration>
                        <rate>
                            <timebase>25</timebase>
                            <ntsc>false</ntsc>
                        </rate>
                        <start>11885</start>
                        <end>12420</end>
                        <enabled>true</enabled>
                        <in>8666</in>
                        <out>9201</out>
                        <file id="IMG_0498.MOV 2"/>
                        <compositemode>normal</compositemode>
                        <filter>
                            <enabled>true</enabled>
                            <start>0</start>
                            <end>94362</end>
                            <effect>
                                <name>Opacity</name>
                                <effectid>opacity</effectid>
                                <effecttype>motion</effecttype>
                                <mediatype>video</mediatype>
                                <effectcategory>motion</effectcategory>
                                <parameter>
                                    <name>opacity</name>
                                    <parameterid>opacity</parameterid>
                                    <value>100</value>
                                    <valuemin>0</valuemin>
                                    <valuemax>100</valuemax>
                                </parameter>
                            </effect>
                        </filter>
                        <filter>
                            <enabled>true</enabled>
                            <start>0</start>
                            <end>94362</end>
                            <effect>
                                <name>Basic Motion</name>
                                <effectid>basic</effectid>
                                <effecttype>motion</effecttype>
                                <mediatype>video</mediatype>
                                <effectcategory>motion</effectcategory>
                                <parameter>
                                    <name>Scale</name>
                                    <parameterid>scale</parameterid>
                                    <value>200</value>
                                    <valuemin>25</valuemin>
                                    <valuemax>400</valuemax>
                                </parameter>
                                <parameter>
                                    <name>Center</name>
                                    <parameterid>center</parameterid>
                                    <value>
                                        <horiz>-0.0499999932944775</horiz>
                                        <vert>0.281481504440308</vert>
                                    </value>
                                </parameter>
                                <parameter>
                                    <name>Rotation</name>
                                    <parameterid>rotation</parameterid>
                                    <value>-3.00781</value>
                                    <valuemin>-100000</valuemin>
                                    <valuemax>100000</valuemax>
                                </parameter>
                                <parameter>
                                    <name>Anchor Point</name>
                                    <parameterid>centerOffset</parameterid>
                                    <value>
                                        <horiz>0</horiz>
                                        <vert>0</vert>
                                    </value>
                                </parameter>
                            </effect>
                        </filter>
                        <filter>
                            <enabled>true</enabled>
                            <start>0</start>
                            <end>94362</end>
                            <effect>
                                <name>Crop</name>
                                <effectid>crop</effectid>
                                <effecttype>motion</effecttype>
                                <mediatype>video</mediatype>
                                <effectcategory>motion</effectcategory>
                                <parameter>
                                    <name>left</name>
                                    <parameterid>left</parameterid>
                                    <value>0</value>
                                    <valuemin>0</valuemin>
                                    <valuemax>100</valuemax>
                                </parameter>
                                <parameter>
                                    <name>right</name>
                                    <parameterid>right</parameterid>
                                    <value>0</value>
                                    <valuemin>0</valuemin>
                                    <valuemax>100</valuemax>
                                </parameter>
                                <parameter>
                                    <name>top</name>
                                    <parameterid>top</parameterid>
                                    <value>0</value>
                                    <valuemin>0</valuemin>
                                    <valuemax>100</valuemax>
                                </parameter>
                                <parameter>
                                    <name>bottom</name>
                                    <parameterid>bottom</parameterid>
                                    <value>0</value>
                                    <valuemin>0</valuemin>
                                    <valuemax>100</valuemax>
                                </parameter>
                            </effect>
                        </filter>
                        <link>
                            <linkclipref>IMG_0498.MOV 21</linkclipref>
                        </link>
                        <link>
                            <linkclipref>IMG_0498.MOV 107</linkclipref>
                        </link>
                    </clipitem>
                    <clipitem id="IMG_0498.MOV 23">
                        <name>IMG_0498.MOV</name>
                        <duration>94362</duration>
                        <rate>
                            <timebase>25</timebase>
                            <ntsc>false</ntsc>
                        </rate>
                        <start>12693</start>
                        <end>13091</end>
                        <enabled>true</enabled>
                        <in>9492</in>
                        <out>9890</out>
                        <file id="IMG_0498.MOV 2"/>
                        <compositemode>normal</compositemode>
                        <filter>
                            <enabled>true</enabled>
                            <start>0</start>
                            <end>94362</end>
                            <effect>
                                <name>Opacity</name>
                                <effectid>opacity</effectid>
                                <effecttype>motion</effecttype>
                                <mediatype>video</mediatype>
                                <effectcategory>motion</effectcategory>
                                <parameter>
                                    <name>opacity</name>
                                    <parameterid>opacity</parameterid>
                                    <value>100</value>
                                    <valuemin>0</valuemin>
                                    <valuemax>100</valuemax>
                                </parameter>
                            </effect>
                        </filter>
                        <filter>
                            <enabled>true</enabled>
                            <start>0</start>
                            <end>94362</end>
                            <effect>
                                <name>Basic Motion</name>
                                <effectid>basic</effectid>
                                <effecttype>motion</effecttype>
                                <mediatype>video</mediatype>
                                <effectcategory>motion</effectcategory>
                                <parameter>
                                    <name>Scale</name>
                                    <parameterid>scale</parameterid>
                                    <value>113</value>
                                    <valuemin>25</valuemin>
                                    <valuemax>400</valuemax>
                                </parameter>
                                <parameter>
                                    <name>Center</name>
                                    <parameterid>center</parameterid>
                                    <value>
                                        <horiz>-0.0499999932944775</horiz>
                                        <vert>0.0203703753650188</vert>
                                    </value>
                                </parameter>
                                <parameter>
                                    <name>Rotation</name>
                                    <parameterid>rotation</parameterid>
                                    <value>-3.00781</value>
                                    <valuemin>-100000</valuemin>
                                    <valuemax>100000</valuemax>
                                </parameter>
                                <parameter>
                                    <name>Anchor Point</name>
                                    <parameterid>centerOffset</parameterid>
                                    <value>
                                        <horiz>0</horiz>
                                        <vert>0</vert>
                                    </value>
                                </parameter>
                            </effect>
                        </filter>
                        <filter>
                            <enabled>true</enabled>
                            <start>0</start>
                            <end>94362</end>
                            <effect>
                                <name>Crop</name>
                                <effectid>crop</effectid>
                                <effecttype>motion</effecttype>
                                <mediatype>video</mediatype>
                                <effectcategory>motion</effectcategory>
                                <parameter>
                                    <name>left</name>
                                    <parameterid>left</parameterid>
                                    <value>0</value>
                                    <valuemin>0</valuemin>
                                    <valuemax>100</valuemax>
                                </parameter>
                                <parameter>
                                    <name>right</name>
                                    <parameterid>right</parameterid>
                                    <value>0</value>
                                    <valuemin>0</valuemin>
                                    <valuemax>100</valuemax>
                                </parameter>
                                <parameter>
                                    <name>top</name>
                                    <parameterid>top</parameterid>
                                    <value>0</value>
                                    <valuemin>0</valuemin>
                                    <valuemax>100</valuemax>
                                </parameter>
                                <parameter>
                                    <name>bottom</name>
                                    <parameterid>bottom</parameterid>
                                    <value>0</value>
                                    <valuemin>0</valuemin>
                                    <valuemax>100</valuemax>
                                </parameter>
                            </effect>
                        </filter>
                        <link>
                            <linkclipref>IMG_0498.MOV 23</linkclipref>
                        </link>
                        <link>
                            <linkclipref>IMG_0498.MOV 108</linkclipref>
                        </link>
                    </clipitem>
                    <clipitem id="IMG_0498.MOV 25">
                        <name>IMG_0498.MOV</name>
                        <duration>94362</duration>
                        <rate>
                            <timebase>25</timebase>
                            <ntsc>false</ntsc>
                        </rate>
                        <start>13527</start>
                        <end>14305</end>
                        <enabled>true</enabled>
                        <in>10360</in>
                        <out>11138</out>
                        <file id="IMG_0498.MOV 2"/>
                        <compositemode>normal</compositemode>
                        <filter>
                            <enabled>true</enabled>
                            <start>0</start>
                            <end>94362</end>
                            <effect>
                                <name>Opacity</name>
                                <effectid>opacity</effectid>
                                <effecttype>motion</effecttype>
                                <mediatype>video</mediatype>
                                <effectcategory>motion</effectcategory>
                                <parameter>
                                    <name>opacity</name>
                                    <parameterid>opacity</parameterid>
                                    <value>100</value>
                                    <valuemin>0</valuemin>
                                    <valuemax>100</valuemax>
                                </parameter>
                            </effect>
                        </filter>
                        <filter>
                            <enabled>true</enabled>
                            <start>0</start>
                            <end>94362</end>
                            <effect>
                                <name>Basic Motion</name>
                                <effectid>basic</effectid>
                                <effecttype>motion</effecttype>
                                <mediatype>video</mediatype>
                                <effectcategory>motion</effectcategory>
                                <parameter>
                                    <name>Scale</name>
                                    <parameterid>scale</parameterid>
                                    <value>113</value>
                                    <valuemin>25</valuemin>
                                    <valuemax>400</valuemax>
                                </parameter>
                                <parameter>
                                    <name>Center</name>
                                    <parameterid>center</parameterid>
                                    <value>
                                        <horiz>-0.0499999932944775</horiz>
                                        <vert>0.0203703753650188</vert>
                                    </value>
                                </parameter>
                                <parameter>
                                    <name>Rotation</name>
                                    <parameterid>rotation</parameterid>
                                    <value>-3.00781</value>
                                    <valuemin>-100000</valuemin>
                                    <valuemax>100000</valuemax>
                                </parameter>
                                <parameter>
                                    <name>Anchor Point</name>
                                    <parameterid>centerOffset</parameterid>
                                    <value>
                                        <horiz>0</horiz>
                                        <vert>0</vert>
                                    </value>
                                </parameter>
                            </effect>
                        </filter>
                        <filter>
                            <enabled>true</enabled>
                            <start>0</start>
                            <end>94362</end>
                            <effect>
                                <name>Crop</name>
                                <effectid>crop</effectid>
                                <effecttype>motion</effecttype>
                                <mediatype>video</mediatype>
                                <effectcategory>motion</effectcategory>
                                <parameter>
                                    <name>left</name>
                                    <parameterid>left</parameterid>
                                    <value>0</value>
                                    <valuemin>0</valuemin>
                                    <valuemax>100</valuemax>
                                </parameter>
                                <parameter>
                                    <name>right</name>
                                    <parameterid>right</parameterid>
                                    <value>0</value>
                                    <valuemin>0</valuemin>
                                    <valuemax>100</valuemax>
                                </parameter>
                                <parameter>
                                    <name>top</name>
                                    <parameterid>top</parameterid>
                                    <value>0</value>
                                    <valuemin>0</valuemin>
                                    <valuemax>100</valuemax>
                                </parameter>
                                <parameter>
                                    <name>bottom</name>
                                    <parameterid>bottom</parameterid>
                                    <value>0</value>
                                    <valuemin>0</valuemin>
                                    <valuemax>100</valuemax>
                                </parameter>
                            </effect>
                        </filter>
                        <link>
                            <linkclipref>IMG_0498.MOV 25</linkclipref>
                        </link>
                        <link>
                            <linkclipref>IMG_0498.MOV 109</linkclipref>
                        </link>
                    </clipitem>
                    <clipitem id="IMG_0498.MOV 27">
                        <name>IMG_0498.MOV</name>
                        <duration>94362</duration>
                        <rate>
                            <timebase>25</timebase>
                            <ntsc>false</ntsc>
                        </rate>
                        <start>14460</start>
                        <end>14856</end>
                        <enabled>true</enabled>
                        <in>11227</in>
                        <out>11623</out>
                        <file id="IMG_0498.MOV 2"/>
                        <compositemode>normal</compositemode>
                        <filter>
                            <enabled>true</enabled>
                            <start>0</start>
                            <end>94362</end>
                            <effect>
                                <name>Opacity</name>
                                <effectid>opacity</effectid>
                                <effecttype>motion</effecttype>
                                <mediatype>video</mediatype>
                                <effectcategory>motion</effectcategory>
                                <parameter>
                                    <name>opacity</name>
                                    <parameterid>opacity</parameterid>
                                    <value>100</value>
                                    <valuemin>0</valuemin>
                                    <valuemax>100</valuemax>
                                </parameter>
                            </effect>
                        </filter>
                        <filter>
                            <enabled>true</enabled>
                            <start>0</start>
                            <end>94362</end>
                            <effect>
                                <name>Basic Motion</name>
                                <effectid>basic</effectid>
                                <effecttype>motion</effecttype>
                                <mediatype>video</mediatype>
                                <effectcategory>motion</effectcategory>
                                <parameter>
                                    <name>Scale</name>
                                    <parameterid>scale</parameterid>
                                    <value>113</value>
                                    <valuemin>25</valuemin>
                                    <valuemax>400</valuemax>
                                </parameter>
                                <parameter>
                                    <name>Center</name>
                                    <parameterid>center</parameterid>
                                    <value>
                                        <horiz>-0.0499999932944775</horiz>
                                        <vert>0.0203703753650188</vert>
                                    </value>
                                </parameter>
                                <parameter>
                                    <name>Rotation</name>
                                    <parameterid>rotation</parameterid>
                                    <value>-3.00781</value>
                                    <valuemin>-100000</valuemin>
                                    <valuemax>100000</valuemax>
                                </parameter>
                                <parameter>
                                    <name>Anchor Point</name>
                                    <parameterid>centerOffset</parameterid>
                                    <value>
                                        <horiz>0</horiz>
                                        <vert>0</vert>
                                    </value>
                                </parameter>
                            </effect>
                        </filter>
                        <filter>
                            <enabled>true</enabled>
                            <start>0</start>
                            <end>94362</end>
                            <effect>
                                <name>Crop</name>
                                <effectid>crop</effectid>
                                <effecttype>motion</effecttype>
                                <mediatype>video</mediatype>
                                <effectcategory>motion</effectcategory>
                                <parameter>
                                    <name>left</name>
                                    <parameterid>left</parameterid>
                                    <value>0</value>
                                    <valuemin>0</valuemin>
                                    <valuemax>100</valuemax>
                                </parameter>
                                <parameter>
                                    <name>right</name>
                                    <parameterid>right</parameterid>
                                    <value>0</value>
                                    <valuemin>0</valuemin>
                                    <valuemax>100</valuemax>
                                </parameter>
                                <parameter>
                                    <name>top</name>
                                    <parameterid>top</parameterid>
                                    <value>0</value>
                                    <valuemin>0</valuemin>
                                    <valuemax>100</valuemax>
                                </parameter>
                                <parameter>
                                    <name>bottom</name>
                                    <parameterid>bottom</parameterid>
                                    <value>0</value>
                                    <valuemin>0</valuemin>
                                    <valuemax>100</valuemax>
                                </parameter>
                            </effect>
                        </filter>
                        <link>
                            <linkclipref>IMG_0498.MOV 27</linkclipref>
                        </link>
                        <link>
                            <linkclipref>IMG_0498.MOV 110</linkclipref>
                        </link>
                    </clipitem>
                    <clipitem id="IMG_0498.MOV 29">
                        <name>IMG_0498.MOV</name>
                        <duration>94362</duration>
                        <rate>
                            <timebase>25</timebase>
                            <ntsc>false</ntsc>
                        </rate>
                        <start>15187</start>
                        <end>15524</end>
                        <enabled>true</enabled>
                        <in>11869</in>
                        <out>12206</out>
                        <file id="IMG_0498.MOV 2"/>
                        <compositemode>normal</compositemode>
                        <filter>
                            <enabled>true</enabled>
                            <start>0</start>
                            <end>94362</end>
                            <effect>
                                <name>Opacity</name>
                                <effectid>opacity</effectid>
                                <effecttype>motion</effecttype>
                                <mediatype>video</mediatype>
                                <effectcategory>motion</effectcategory>
                                <parameter>
                                    <name>opacity</name>
                                    <parameterid>opacity</parameterid>
                                    <value>100</value>
                                    <valuemin>0</valuemin>
                                    <valuemax>100</valuemax>
                                </parameter>
                            </effect>
                        </filter>
                        <filter>
                            <enabled>true</enabled>
                            <start>0</start>
                            <end>94362</end>
                            <effect>
                                <name>Basic Motion</name>
                                <effectid>basic</effectid>
                                <effecttype>motion</effecttype>
                                <mediatype>video</mediatype>
                                <effectcategory>motion</effectcategory>
                                <parameter>
                                    <name>Scale</name>
                                    <parameterid>scale</parameterid>
                                    <value>113</value>
                                    <valuemin>25</valuemin>
                                    <valuemax>400</valuemax>
                                </parameter>
                                <parameter>
                                    <name>Center</name>
                                    <parameterid>center</parameterid>
                                    <value>
                                        <horiz>-0.0499999932944775</horiz>
                                        <vert>0.0203703753650188</vert>
                                    </value>
                                </parameter>
                                <parameter>
                                    <name>Rotation</name>
                                    <parameterid>rotation</parameterid>
                                    <value>-3.00781</value>
                                    <valuemin>-100000</valuemin>
                                    <valuemax>100000</valuemax>
                                </parameter>
                                <parameter>
                                    <name>Anchor Point</name>
                                    <parameterid>centerOffset</parameterid>
                                    <value>
                                        <horiz>0</horiz>
                                        <vert>0</vert>
                                    </value>
                                </parameter>
                            </effect>
                        </filter>
                        <filter>
                            <enabled>true</enabled>
                            <start>0</start>
                            <end>94362</end>
                            <effect>
                                <name>Crop</name>
                                <effectid>crop</effectid>
                                <effecttype>motion</effecttype>
                                <mediatype>video</mediatype>
                                <effectcategory>motion</effectcategory>
                                <parameter>
                                    <name>left</name>
                                    <parameterid>left</parameterid>
                                    <value>0</value>
                                    <valuemin>0</valuemin>
                                    <valuemax>100</valuemax>
                                </parameter>
                                <parameter>
                                    <name>right</name>
                                    <parameterid>right</parameterid>
                                    <value>0</value>
                                    <valuemin>0</valuemin>
                                    <valuemax>100</valuemax>
                                </parameter>
                                <parameter>
                                    <name>top</name>
                                    <parameterid>top</parameterid>
                                    <value>0</value>
                                    <valuemin>0</valuemin>
                                    <valuemax>100</valuemax>
                                </parameter>
                                <parameter>
                                    <name>bottom</name>
                                    <parameterid>bottom</parameterid>
                                    <value>0</value>
                                    <valuemin>0</valuemin>
                                    <valuemax>100</valuemax>
                                </parameter>
                            </effect>
                        </filter>
                        <link>
                            <linkclipref>IMG_0498.MOV 29</linkclipref>
                        </link>
                        <link>
                            <linkclipref>IMG_0498.MOV 111</linkclipref>
                        </link>
                    </clipitem>
                    <clipitem id="IMG_0498.MOV 31">
                        <name>IMG_0498.MOV</name>
                        <duration>94362</duration>
                        <rate>
                            <timebase>25</timebase>
                            <ntsc>false</ntsc>
                        </rate>
                        <start>18504</start>
                        <end>19480</end>
                        <enabled>true</enabled>
                        <in>15836</in>
                        <out>16812</out>
                        <file id="IMG_0498.MOV 2"/>
                        <compositemode>normal</compositemode>
                        <filter>
                            <enabled>true</enabled>
                            <start>0</start>
                            <end>94362</end>
                            <effect>
                                <name>Opacity</name>
                                <effectid>opacity</effectid>
                                <effecttype>motion</effecttype>
                                <mediatype>video</mediatype>
                                <effectcategory>motion</effectcategory>
                                <parameter>
                                    <name>opacity</name>
                                    <parameterid>opacity</parameterid>
                                    <value>100</value>
                                    <valuemin>0</valuemin>
                                    <valuemax>100</valuemax>
                                </parameter>
                            </effect>
                        </filter>
                        <filter>
                            <enabled>true</enabled>
                            <start>0</start>
                            <end>94362</end>
                            <effect>
                                <name>Basic Motion</name>
                                <effectid>basic</effectid>
                                <effecttype>motion</effecttype>
                                <mediatype>video</mediatype>
                                <effectcategory>motion</effectcategory>
                                <parameter>
                                    <name>Scale</name>
                                    <parameterid>scale</parameterid>
                                    <value>200</value>
                                    <valuemin>25</valuemin>
                                    <valuemax>400</valuemax>
                                </parameter>
                                <parameter>
                                    <name>Center</name>
                                    <parameterid>center</parameterid>
                                    <value>
                                        <horiz>-0.165625020861626</horiz>
                                        <vert>0.18703705072403</vert>
                                    </value>
                                </parameter>
                                <parameter>
                                    <name>Rotation</name>
                                    <parameterid>rotation</parameterid>
                                    <value>-3.00781</value>
                                    <valuemin>-100000</valuemin>
                                    <valuemax>100000</valuemax>
                                </parameter>
                                <parameter>
                                    <name>Anchor Point</name>
                                    <parameterid>centerOffset</parameterid>
                                    <value>
                                        <horiz>0</horiz>
                                        <vert>0</vert>
                                    </value>
                                </parameter>
                            </effect>
                        </filter>
                        <filter>
                            <enabled>true</enabled>
                            <start>0</start>
                            <end>94362</end>
                            <effect>
                                <name>Crop</name>
                                <effectid>crop</effectid>
                                <effecttype>motion</effecttype>
                                <mediatype>video</mediatype>
                                <effectcategory>motion</effectcategory>
                                <parameter>
                                    <name>left</name>
                                    <parameterid>left</parameterid>
                                    <value>0</value>
                                    <valuemin>0</valuemin>
                                    <valuemax>100</valuemax>
                                </parameter>
                                <parameter>
                                    <name>right</name>
                                    <parameterid>right</parameterid>
                                    <value>0</value>
                                    <valuemin>0</valuemin>
                                    <valuemax>100</valuemax>
                                </parameter>
                                <parameter>
                                    <name>top</name>
                                    <parameterid>top</parameterid>
                                    <value>0</value>
                                    <valuemin>0</valuemin>
                                    <valuemax>100</valuemax>
                                </parameter>
                                <parameter>
                                    <name>bottom</name>
                                    <parameterid>bottom</parameterid>
                                    <value>0</value>
                                    <valuemin>0</valuemin>
                                    <valuemax>100</valuemax>
                                </parameter>
                            </effect>
                        </filter>
                        <link>
                            <linkclipref>IMG_0498.MOV 31</linkclipref>
                        </link>
                        <link>
                            <linkclipref>IMG_0498.MOV 112</linkclipref>
                        </link>
                    </clipitem>
                    <clipitem id="IMG_0498.MOV 33">
                        <name>IMG_0498.MOV</name>
                        <duration>94362</duration>
                        <rate>
                            <timebase>25</timebase>
                            <ntsc>false</ntsc>
                        </rate>
                        <start>20166</start>
                        <end>20585</end>
                        <enabled>true</enabled>
                        <in>17498</in>
                        <out>17917</out>
                        <file id="IMG_0498.MOV 2"/>
                        <compositemode>normal</compositemode>
                        <filter>
                            <enabled>true</enabled>
                            <start>0</start>
                            <end>94362</end>
                            <effect>
                                <name>Opacity</name>
                                <effectid>opacity</effectid>
                                <effecttype>motion</effecttype>
                                <mediatype>video</mediatype>
                                <effectcategory>motion</effectcategory>
                                <parameter>
                                    <name>opacity</name>
                                    <parameterid>opacity</parameterid>
                                    <value>100</value>
                                    <valuemin>0</valuemin>
                                    <valuemax>100</valuemax>
                                </parameter>
                            </effect>
                        </filter>
                        <filter>
                            <enabled>true</enabled>
                            <start>0</start>
                            <end>94362</end>
                            <effect>
                                <name>Basic Motion</name>
                                <effectid>basic</effectid>
                                <effecttype>motion</effecttype>
                                <mediatype>video</mediatype>
                                <effectcategory>motion</effectcategory>
                                <parameter>
                                    <name>Scale</name>
                                    <parameterid>scale</parameterid>
                                    <value>113</value>
                                    <valuemin>25</valuemin>
                                    <valuemax>400</valuemax>
                                </parameter>
                                <parameter>
                                    <name>Center</name>
                                    <parameterid>center</parameterid>
                                    <value>
                                        <horiz>-0.0499999932944775</horiz>
                                        <vert>0.0203703753650188</vert>
                                    </value>
                                </parameter>
                                <parameter>
                                    <name>Rotation</name>
                                    <parameterid>rotation</parameterid>
                                    <value>-3.00781</value>
                                    <valuemin>-100000</valuemin>
                                    <valuemax>100000</valuemax>
                                </parameter>
                                <parameter>
                                    <name>Anchor Point</name>
                                    <parameterid>centerOffset</parameterid>
                                    <value>
                                        <horiz>0</horiz>
                                        <vert>0</vert>
                                    </value>
                                </parameter>
                            </effect>
                        </filter>
                        <filter>
                            <enabled>true</enabled>
                            <start>0</start>
                            <end>94362</end>
                            <effect>
                                <name>Crop</name>
                                <effectid>crop</effectid>
                                <effecttype>motion</effecttype>
                                <mediatype>video</mediatype>
                                <effectcategory>motion</effectcategory>
                                <parameter>
                                    <name>left</name>
                                    <parameterid>left</parameterid>
                                    <value>0</value>
                                    <valuemin>0</valuemin>
                                    <valuemax>100</valuemax>
                                </parameter>
                                <parameter>
                                    <name>right</name>
                                    <parameterid>right</parameterid>
                                    <value>0</value>
                                    <valuemin>0</valuemin>
                                    <valuemax>100</valuemax>
                                </parameter>
                                <parameter>
                                    <name>top</name>
                                    <parameterid>top</parameterid>
                                    <value>0</value>
                                    <valuemin>0</valuemin>
                                    <valuemax>100</valuemax>
                                </parameter>
                                <parameter>
                                    <name>bottom</name>
                                    <parameterid>bottom</parameterid>
                                    <value>0</value>
                                    <valuemin>0</valuemin>
                                    <valuemax>100</valuemax>
                                </parameter>
                            </effect>
                        </filter>
                        <link>
                            <linkclipref>IMG_0498.MOV 33</linkclipref>
                        </link>
                        <link>
                            <linkclipref>IMG_0498.MOV 113</linkclipref>
                        </link>
                    </clipitem>
                    <clipitem id="IMG_0498.MOV 35">
                        <name>IMG_0498.MOV</name>
                        <duration>94362</duration>
                        <rate>
                            <timebase>25</timebase>
                            <ntsc>false</ntsc>
                        </rate>
                        <start>21013</start>
                        <end>21306</end>
                        <enabled>true</enabled>
                        <in>18418</in>
                        <out>18711</out>
                        <file id="IMG_0498.MOV 2"/>
                        <compositemode>normal</compositemode>
                        <filter>
                            <enabled>true</enabled>
                            <start>0</start>
                            <end>94362</end>
                            <effect>
                                <name>Opacity</name>
                                <effectid>opacity</effectid>
                                <effecttype>motion</effecttype>
                                <mediatype>video</mediatype>
                                <effectcategory>motion</effectcategory>
                                <parameter>
                                    <name>opacity</name>
                                    <parameterid>opacity</parameterid>
                                    <value>100</value>
                                    <valuemin>0</valuemin>
                                    <valuemax>100</valuemax>
                                </parameter>
                            </effect>
                        </filter>
                        <filter>
                            <enabled>true</enabled>
                            <start>0</start>
                            <end>94362</end>
                            <effect>
                                <name>Basic Motion</name>
                                <effectid>basic</effectid>
                                <effecttype>motion</effecttype>
                                <mediatype>video</mediatype>
                                <effectcategory>motion</effectcategory>
                                <parameter>
                                    <name>Scale</name>
                                    <parameterid>scale</parameterid>
                                    <value>113</value>
                                    <valuemin>25</valuemin>
                                    <valuemax>400</valuemax>
                                </parameter>
                                <parameter>
                                    <name>Center</name>
                                    <parameterid>center</parameterid>
                                    <value>
                                        <horiz>-0.0499999932944775</horiz>
                                        <vert>0.0203703753650188</vert>
                                    </value>
                                </parameter>
                                <parameter>
                                    <name>Rotation</name>
                                    <parameterid>rotation</parameterid>
                                    <value>-3.00781</value>
                                    <valuemin>-100000</valuemin>
                                    <valuemax>100000</valuemax>
                                </parameter>
                                <parameter>
                                    <name>Anchor Point</name>
                                    <parameterid>centerOffset</parameterid>
                                    <value>
                                        <horiz>0</horiz>
                                        <vert>0</vert>
                                    </value>
                                </parameter>
                            </effect>
                        </filter>
                        <filter>
                            <enabled>true</enabled>
                            <start>0</start>
                            <end>94362</end>
                            <effect>
                                <name>Crop</name>
                                <effectid>crop</effectid>
                                <effecttype>motion</effecttype>
                                <mediatype>video</mediatype>
                                <effectcategory>motion</effectcategory>
                                <parameter>
                                    <name>left</name>
                                    <parameterid>left</parameterid>
                                    <value>0</value>
                                    <valuemin>0</valuemin>
                                    <valuemax>100</valuemax>
                                </parameter>
                                <parameter>
                                    <name>right</name>
                                    <parameterid>right</parameterid>
                                    <value>0</value>
                                    <valuemin>0</valuemin>
                                    <valuemax>100</valuemax>
                                </parameter>
                                <parameter>
                                    <name>top</name>
                                    <parameterid>top</parameterid>
                                    <value>0</value>
                                    <valuemin>0</valuemin>
                                    <valuemax>100</valuemax>
                                </parameter>
                                <parameter>
                                    <name>bottom</name>
                                    <parameterid>bottom</parameterid>
                                    <value>0</value>
                                    <valuemin>0</valuemin>
                                    <valuemax>100</valuemax>
                                </parameter>
                            </effect>
                        </filter>
                        <link>
                            <linkclipref>IMG_0498.MOV 35</linkclipref>
                        </link>
                        <link>
                            <linkclipref>IMG_0498.MOV 114</linkclipref>
                        </link>
                    </clipitem>
                    <clipitem id="IMG_0498.MOV 37">
                        <name>IMG_0498.MOV</name>
                        <duration>94362</duration>
                        <rate>
                            <timebase>25</timebase>
                            <ntsc>false</ntsc>
                        </rate>
                        <start>21426</start>
                        <end>21926</end>
                        <enabled>true</enabled>
                        <in>18764</in>
                        <out>19264</out>
                        <file id="IMG_0498.MOV 2"/>
                        <compositemode>normal</compositemode>
                        <filter>
                            <enabled>true</enabled>
                            <start>0</start>
                            <end>94362</end>
                            <effect>
                                <name>Opacity</name>
                                <effectid>opacity</effectid>
                                <effecttype>motion</effecttype>
                                <mediatype>video</mediatype>
                                <effectcategory>motion</effectcategory>
                                <parameter>
                                    <name>opacity</name>
                                    <parameterid>opacity</parameterid>
                                    <value>100</value>
                                    <valuemin>0</valuemin>
                                    <valuemax>100</valuemax>
                                </parameter>
                            </effect>
                        </filter>
                        <filter>
                            <enabled>true</enabled>
                            <start>0</start>
                            <end>94362</end>
                            <effect>
                                <name>Basic Motion</name>
                                <effectid>basic</effectid>
                                <effecttype>motion</effecttype>
                                <mediatype>video</mediatype>
                                <effectcategory>motion</effectcategory>
                                <parameter>
                                    <name>Scale</name>
                                    <parameterid>scale</parameterid>
                                    <value>200</value>
                                    <valuemin>25</valuemin>
                                    <valuemax>400</valuemax>
                                </parameter>
                                <parameter>
                                    <name>Center</name>
                                    <parameterid>center</parameterid>
                                    <value>
                                        <horiz>0.352083534002304</horiz>
                                        <vert>0.408333331346512</vert>
                                    </value>
                                    <keyframe>
                                        <when>18764</when>
                                        <value>
                                            <horiz>0.352083534002304</horiz>
                                            <vert>0.408333331346512</vert>
                                        </value>
                                    </keyframe>
                                    <keyframe>
                                        <when>19034</when>
                                        <value>
                                            <horiz>-0.109374761581421</horiz>
                                            <vert>0.408333331346512</vert>
                                        </value>
                                    </keyframe>
                                </parameter>
                                <parameter>
                                    <name>Rotation</name>
                                    <parameterid>rotation</parameterid>
                                    <value>-3.00781</value>
                                    <valuemin>-100000</valuemin>
                                    <valuemax>100000</valuemax>
                                </parameter>
                                <parameter>
                                    <name>Anchor Point</name>
                                    <parameterid>centerOffset</parameterid>
                                    <value>
                                        <horiz>0</horiz>
                                        <vert>0</vert>
                                    </value>
                                </parameter>
                            </effect>
                        </filter>
                        <filter>
                            <enabled>true</enabled>
                            <start>0</start>
                            <end>94362</end>
                            <effect>
                                <name>Crop</name>
                                <effectid>crop</effectid>
                                <effecttype>motion</effecttype>
                                <mediatype>video</mediatype>
                                <effectcategory>motion</effectcategory>
                                <parameter>
                                    <name>left</name>
                                    <parameterid>left</parameterid>
                                    <value>0</value>
                                    <valuemin>0</valuemin>
                                    <valuemax>100</valuemax>
                                </parameter>
                                <parameter>
                                    <name>right</name>
                                    <parameterid>right</parameterid>
                                    <value>0</value>
                                    <valuemin>0</valuemin>
                                    <valuemax>100</valuemax>
                                </parameter>
                                <parameter>
                                    <name>top</name>
                                    <parameterid>top</parameterid>
                                    <value>0</value>
                                    <valuemin>0</valuemin>
                                    <valuemax>100</valuemax>
                                </parameter>
                                <parameter>
                                    <name>bottom</name>
                                    <parameterid>bottom</parameterid>
                                    <value>0</value>
                                    <valuemin>0</valuemin>
                                    <valuemax>100</valuemax>
                                </parameter>
                            </effect>
                        </filter>
                        <link>
                            <linkclipref>IMG_0498.MOV 37</linkclipref>
                        </link>
                        <link>
                            <linkclipref>IMG_0498.MOV 115</linkclipref>
                        </link>
                    </clipitem>
                    <clipitem id="IMG_0498.MOV 39">
                        <name>IMG_0498.MOV</name>
                        <duration>94362</duration>
                        <rate>
                            <timebase>25</timebase>
                            <ntsc>false</ntsc>
                        </rate>
                        <start>24606</start>
                        <end>24983</end>
                        <enabled>true</enabled>
                        <in>22467</in>
                        <out>22844</out>
                        <file id="IMG_0498.MOV 2"/>
                        <compositemode>normal</compositemode>
                        <filter>
                            <enabled>true</enabled>
                            <start>0</start>
                            <end>94362</end>
                            <effect>
                                <name>Opacity</name>
                                <effectid>opacity</effectid>
                                <effecttype>motion</effecttype>
                                <mediatype>video</mediatype>
                                <effectcategory>motion</effectcategory>
                                <parameter>
                                    <name>opacity</name>
                                    <parameterid>opacity</parameterid>
                                    <value>100</value>
                                    <valuemin>0</valuemin>
                                    <valuemax>100</valuemax>
                                </parameter>
                            </effect>
                        </filter>
                        <filter>
                            <enabled>true</enabled>
                            <start>0</start>
                            <end>94362</end>
                            <effect>
                                <name>Basic Motion</name>
                                <effectid>basic</effectid>
                                <effecttype>motion</effecttype>
                                <mediatype>video</mediatype>
                                <effectcategory>motion</effectcategory>
                                <parameter>
                                    <name>Scale</name>
                                    <parameterid>scale</parameterid>
                                    <value>113</value>
                                    <valuemin>25</valuemin>
                                    <valuemax>400</valuemax>
                                </parameter>
                                <parameter>
                                    <name>Center</name>
                                    <parameterid>center</parameterid>
                                    <value>
                                        <horiz>-0.0499999932944775</horiz>
                                        <vert>0.0203703753650188</vert>
                                    </value>
                                </parameter>
                                <parameter>
                                    <name>Rotation</name>
                                    <parameterid>rotation</parameterid>
                                    <value>-3.00781</value>
                                    <valuemin>-100000</valuemin>
                                    <valuemax>100000</valuemax>
                                </parameter>
                                <parameter>
                                    <name>Anchor Point</name>
                                    <parameterid>centerOffset</parameterid>
                                    <value>
                                        <horiz>0</horiz>
                                        <vert>0</vert>
                                    </value>
                                </parameter>
                            </effect>
                        </filter>
                        <filter>
                            <enabled>true</enabled>
                            <start>0</start>
                            <end>94362</end>
                            <effect>
                                <name>Crop</name>
                                <effectid>crop</effectid>
                                <effecttype>motion</effecttype>
                                <mediatype>video</mediatype>
                                <effectcategory>motion</effectcategory>
                                <parameter>
                                    <name>left</name>
                                    <parameterid>left</parameterid>
                                    <value>0</value>
                                    <valuemin>0</valuemin>
                                    <valuemax>100</valuemax>
                                </parameter>
                                <parameter>
                                    <name>right</name>
                                    <parameterid>right</parameterid>
                                    <value>0</value>
                                    <valuemin>0</valuemin>
                                    <valuemax>100</valuemax>
                                </parameter>
                                <parameter>
                                    <name>top</name>
                                    <parameterid>top</parameterid>
                                    <value>0</value>
                                    <valuemin>0</valuemin>
                                    <valuemax>100</valuemax>
                                </parameter>
                                <parameter>
                                    <name>bottom</name>
                                    <parameterid>bottom</parameterid>
                                    <value>0</value>
                                    <valuemin>0</valuemin>
                                    <valuemax>100</valuemax>
                                </parameter>
                            </effect>
                        </filter>
                        <link>
                            <linkclipref>IMG_0498.MOV 39</linkclipref>
                        </link>
                        <link>
                            <linkclipref>IMG_0498.MOV 116</linkclipref>
                        </link>
                    </clipitem>
                    <clipitem id="IMG_0498.MOV 41">
                        <name>IMG_0498.MOV</name>
                        <duration>94362</duration>
                        <rate>
                            <timebase>25</timebase>
                            <ntsc>false</ntsc>
                        </rate>
                        <start>25564</start>
                        <end>26515</end>
                        <enabled>true</enabled>
                        <in>23356</in>
                        <out>24307</out>
                        <file id="IMG_0498.MOV 2"/>
                        <compositemode>normal</compositemode>
                        <filter>
                            <enabled>true</enabled>
                            <start>0</start>
                            <end>94362</end>
                            <effect>
                                <name>Opacity</name>
                                <effectid>opacity</effectid>
                                <effecttype>motion</effecttype>
                                <mediatype>video</mediatype>
                                <effectcategory>motion</effectcategory>
                                <parameter>
                                    <name>opacity</name>
                                    <parameterid>opacity</parameterid>
                                    <value>100</value>
                                    <valuemin>0</valuemin>
                                    <valuemax>100</valuemax>
                                </parameter>
                            </effect>
                        </filter>
                        <filter>
                            <enabled>true</enabled>
                            <start>0</start>
                            <end>94362</end>
                            <effect>
                                <name>Basic Motion</name>
                                <effectid>basic</effectid>
                                <effecttype>motion</effecttype>
                                <mediatype>video</mediatype>
                                <effectcategory>motion</effectcategory>
                                <parameter>
                                    <name>Scale</name>
                                    <parameterid>scale</parameterid>
                                    <value>113</value>
                                    <valuemin>25</valuemin>
                                    <valuemax>400</valuemax>
                                </parameter>
                                <parameter>
                                    <name>Center</name>
                                    <parameterid>center</parameterid>
                                    <value>
                                        <horiz>-0.0499999932944775</horiz>
                                        <vert>0.0203703753650188</vert>
                                    </value>
                                </parameter>
                                <parameter>
                                    <name>Rotation</name>
                                    <parameterid>rotation</parameterid>
                                    <value>-3.00781</value>
                                    <valuemin>-100000</valuemin>
                                    <valuemax>100000</valuemax>
                                </parameter>
                                <parameter>
                                    <name>Anchor Point</name>
                                    <parameterid>centerOffset</parameterid>
                                    <value>
                                        <horiz>0</horiz>
                                        <vert>0</vert>
                                    </value>
                                </parameter>
                            </effect>
                        </filter>
                        <filter>
                            <enabled>true</enabled>
                            <start>0</start>
                            <end>94362</end>
                            <effect>
                                <name>Crop</name>
                                <effectid>crop</effectid>
                                <effecttype>motion</effecttype>
                                <mediatype>video</mediatype>
                                <effectcategory>motion</effectcategory>
                                <parameter>
                                    <name>left</name>
                                    <parameterid>left</parameterid>
                                    <value>0</value>
                                    <valuemin>0</valuemin>
                                    <valuemax>100</valuemax>
                                </parameter>
                                <parameter>
                                    <name>right</name>
                                    <parameterid>right</parameterid>
                                    <value>0</value>
                                    <valuemin>0</valuemin>
                                    <valuemax>100</valuemax>
                                </parameter>
                                <parameter>
                                    <name>top</name>
                                    <parameterid>top</parameterid>
                                    <value>0</value>
                                    <valuemin>0</valuemin>
                                    <valuemax>100</valuemax>
                                </parameter>
                                <parameter>
                                    <name>bottom</name>
                                    <parameterid>bottom</parameterid>
                                    <value>0</value>
                                    <valuemin>0</valuemin>
                                    <valuemax>100</valuemax>
                                </parameter>
                            </effect>
                        </filter>
                        <link>
                            <linkclipref>IMG_0498.MOV 41</linkclipref>
                        </link>
                        <link>
                            <linkclipref>IMG_0498.MOV 117</linkclipref>
                        </link>
                    </clipitem>
                    <clipitem id="IMG_0498.MOV 43">
                        <name>IMG_0498.MOV</name>
                        <duration>94362</duration>
                        <rate>
                            <timebase>25</timebase>
                            <ntsc>false</ntsc>
                        </rate>
                        <start>26990</start>
                        <end>27520</end>
                        <enabled>true</enabled>
                        <in>24686</in>
                        <out>25216</out>
                        <file id="IMG_0498.MOV 2"/>
                        <compositemode>normal</compositemode>
                        <filter>
                            <enabled>true</enabled>
                            <start>0</start>
                            <end>94362</end>
                            <effect>
                                <name>Opacity</name>
                                <effectid>opacity</effectid>
                                <effecttype>motion</effecttype>
                                <mediatype>video</mediatype>
                                <effectcategory>motion</effectcategory>
                                <parameter>
                                    <name>opacity</name>
                                    <parameterid>opacity</parameterid>
                                    <value>100</value>
                                    <valuemin>0</valuemin>
                                    <valuemax>100</valuemax>
                                </parameter>
                            </effect>
                        </filter>
                        <filter>
                            <enabled>true</enabled>
                            <start>0</start>
                            <end>94362</end>
                            <effect>
                                <name>Basic Motion</name>
                                <effectid>basic</effectid>
                                <effecttype>motion</effecttype>
                                <mediatype>video</mediatype>
                                <effectcategory>motion</effectcategory>
                                <parameter>
                                    <name>Scale</name>
                                    <parameterid>scale</parameterid>
                                    <value>200</value>
                                    <valuemin>25</valuemin>
                                    <valuemax>400</valuemax>
                                </parameter>
                                <parameter>
                                    <name>Center</name>
                                    <parameterid>center</parameterid>
                                    <value>
                                        <horiz>-0.313541650772095</horiz>
                                        <vert>0.310185253620148</vert>
                                    </value>
                                </parameter>
                                <parameter>
                                    <name>Rotation</name>
                                    <parameterid>rotation</parameterid>
                                    <value>-3.00781</value>
                                    <valuemin>-100000</valuemin>
                                    <valuemax>100000</valuemax>
                                </parameter>
                                <parameter>
                                    <name>Anchor Point</name>
                                    <parameterid>centerOffset</parameterid>
                                    <value>
                                        <horiz>0</horiz>
                                        <vert>0</vert>
                                    </value>
                                </parameter>
                            </effect>
                        </filter>
                        <filter>
                            <enabled>true</enabled>
                            <start>0</start>
                            <end>94362</end>
                            <effect>
                                <name>Crop</name>
                                <effectid>crop</effectid>
                                <effecttype>motion</effecttype>
                                <mediatype>video</mediatype>
                                <effectcategory>motion</effectcategory>
                                <parameter>
                                    <name>left</name>
                                    <parameterid>left</parameterid>
                                    <value>0</value>
                                    <valuemin>0</valuemin>
                                    <valuemax>100</valuemax>
                                </parameter>
                                <parameter>
                                    <name>right</name>
                                    <parameterid>right</parameterid>
                                    <value>0</value>
                                    <valuemin>0</valuemin>
                                    <valuemax>100</valuemax>
                                </parameter>
                                <parameter>
                                    <name>top</name>
                                    <parameterid>top</parameterid>
                                    <value>0</value>
                                    <valuemin>0</valuemin>
                                    <valuemax>100</valuemax>
                                </parameter>
                                <parameter>
                                    <name>bottom</name>
                                    <parameterid>bottom</parameterid>
                                    <value>0</value>
                                    <valuemin>0</valuemin>
                                    <valuemax>100</valuemax>
                                </parameter>
                            </effect>
                        </filter>
                        <link>
                            <linkclipref>IMG_0498.MOV 43</linkclipref>
                        </link>
                        <link>
                            <linkclipref>IMG_0498.MOV 118</linkclipref>
                        </link>
                    </clipitem>
                    <clipitem id="IMG_0498.MOV 45">
                        <name>IMG_0498.MOV</name>
                        <duration>94362</duration>
                        <rate>
                            <timebase>25</timebase>
                            <ntsc>false</ntsc>
                        </rate>
                        <start>28212</start>
                        <end>28571</end>
                        <enabled>true</enabled>
                        <in>26035</in>
                        <out>26394</out>
                        <file id="IMG_0498.MOV 2"/>
                        <compositemode>normal</compositemode>
                        <filter>
                            <enabled>true</enabled>
                            <start>0</start>
                            <end>94362</end>
                            <effect>
                                <name>Opacity</name>
                                <effectid>opacity</effectid>
                                <effecttype>motion</effecttype>
                                <mediatype>video</mediatype>
                                <effectcategory>motion</effectcategory>
                                <parameter>
                                    <name>opacity</name>
                                    <parameterid>opacity</parameterid>
                                    <value>100</value>
                                    <valuemin>0</valuemin>
                                    <valuemax>100</valuemax>
                                </parameter>
                            </effect>
                        </filter>
                        <filter>
                            <enabled>true</enabled>
                            <start>0</start>
                            <end>94362</end>
                            <effect>
                                <name>Basic Motion</name>
                                <effectid>basic</effectid>
                                <effecttype>motion</effecttype>
                                <mediatype>video</mediatype>
                                <effectcategory>motion</effectcategory>
                                <parameter>
                                    <name>Scale</name>
                                    <parameterid>scale</parameterid>
                                    <value>113</value>
                                    <valuemin>25</valuemin>
                                    <valuemax>400</valuemax>
                                </parameter>
                                <parameter>
                                    <name>Center</name>
                                    <parameterid>center</parameterid>
                                    <value>
                                        <horiz>-0.0499999932944775</horiz>
                                        <vert>0.0203703753650188</vert>
                                    </value>
                                </parameter>
                                <parameter>
                                    <name>Rotation</name>
                                    <parameterid>rotation</parameterid>
                                    <value>-3.00781</value>
                                    <valuemin>-100000</valuemin>
                                    <valuemax>100000</valuemax>
                                </parameter>
                                <parameter>
                                    <name>Anchor Point</name>
                                    <parameterid>centerOffset</parameterid>
                                    <value>
                                        <horiz>0</horiz>
                                        <vert>0</vert>
                                    </value>
                                </parameter>
                            </effect>
                        </filter>
                        <filter>
                            <enabled>true</enabled>
                            <start>0</start>
                            <end>94362</end>
                            <effect>
                                <name>Crop</name>
                                <effectid>crop</effectid>
                                <effecttype>motion</effecttype>
                                <mediatype>video</mediatype>
                                <effectcategory>motion</effectcategory>
                                <parameter>
                                    <name>left</name>
                                    <parameterid>left</parameterid>
                                    <value>0</value>
                                    <valuemin>0</valuemin>
                                    <valuemax>100</valuemax>
                                </parameter>
                                <parameter>
                                    <name>right</name>
                                    <parameterid>right</parameterid>
                                    <value>0</value>
                                    <valuemin>0</valuemin>
                                    <valuemax>100</valuemax>
                                </parameter>
                                <parameter>
                                    <name>top</name>
                                    <parameterid>top</parameterid>
                                    <value>0</value>
                                    <valuemin>0</valuemin>
                                    <valuemax>100</valuemax>
                                </parameter>
                                <parameter>
                                    <name>bottom</name>
                                    <parameterid>bottom</parameterid>
                                    <value>0</value>
                                    <valuemin>0</valuemin>
                                    <valuemax>100</valuemax>
                                </parameter>
                            </effect>
                        </filter>
                        <link>
                            <linkclipref>IMG_0498.MOV 45</linkclipref>
                        </link>
                        <link>
                            <linkclipref>IMG_0498.MOV 119</linkclipref>
                        </link>
                    </clipitem>
                    <clipitem id="IMG_0498.MOV 47">
                        <name>IMG_0498.MOV</name>
                        <duration>94362</duration>
                        <rate>
                            <timebase>25</timebase>
                            <ntsc>false</ntsc>
                        </rate>
                        <start>28959</start>
                        <end>29201</end>
                        <enabled>true</enabled>
                        <in>26782</in>
                        <out>27024</out>
                        <file id="IMG_0498.MOV 2"/>
                        <compositemode>normal</compositemode>
                        <filter>
                            <enabled>true</enabled>
                            <start>0</start>
                            <end>94362</end>
                            <effect>
                                <name>Opacity</name>
                                <effectid>opacity</effectid>
                                <effecttype>motion</effecttype>
                                <mediatype>video</mediatype>
                                <effectcategory>motion</effectcategory>
                                <parameter>
                                    <name>opacity</name>
                                    <parameterid>opacity</parameterid>
                                    <value>100</value>
                                    <valuemin>0</valuemin>
                                    <valuemax>100</valuemax>
                                </parameter>
                            </effect>
                        </filter>
                        <filter>
                            <enabled>true</enabled>
                            <start>0</start>
                            <end>94362</end>
                            <effect>
                                <name>Basic Motion</name>
                                <effectid>basic</effectid>
                                <effecttype>motion</effecttype>
                                <mediatype>video</mediatype>
                                <effectcategory>motion</effectcategory>
                                <parameter>
                                    <name>Scale</name>
                                    <parameterid>scale</parameterid>
                                    <value>113</value>
                                    <valuemin>25</valuemin>
                                    <valuemax>400</valuemax>
                                </parameter>
                                <parameter>
                                    <name>Center</name>
                                    <parameterid>center</parameterid>
                                    <value>
                                        <horiz>-0.0499999932944775</horiz>
                                        <vert>0.0203703753650188</vert>
                                    </value>
                                </parameter>
                                <parameter>
                                    <name>Rotation</name>
                                    <parameterid>rotation</parameterid>
                                    <value>-3.00781</value>
                                    <valuemin>-100000</valuemin>
                                    <valuemax>100000</valuemax>
                                </parameter>
                                <parameter>
                                    <name>Anchor Point</name>
                                    <parameterid>centerOffset</parameterid>
                                    <value>
                                        <horiz>0</horiz>
                                        <vert>0</vert>
                                    </value>
                                </parameter>
                            </effect>
                        </filter>
                        <filter>
                            <enabled>true</enabled>
                            <start>0</start>
                            <end>94362</end>
                            <effect>
                                <name>Crop</name>
                                <effectid>crop</effectid>
                                <effecttype>motion</effecttype>
                                <mediatype>video</mediatype>
                                <effectcategory>motion</effectcategory>
                                <parameter>
                                    <name>left</name>
                                    <parameterid>left</parameterid>
                                    <value>0</value>
                                    <valuemin>0</valuemin>
                                    <valuemax>100</valuemax>
                                </parameter>
                                <parameter>
                                    <name>right</name>
                                    <parameterid>right</parameterid>
                                    <value>0</value>
                                    <valuemin>0</valuemin>
                                    <valuemax>100</valuemax>
                                </parameter>
                                <parameter>
                                    <name>top</name>
                                    <parameterid>top</parameterid>
                                    <value>0</value>
                                    <valuemin>0</valuemin>
                                    <valuemax>100</valuemax>
                                </parameter>
                                <parameter>
                                    <name>bottom</name>
                                    <parameterid>bottom</parameterid>
                                    <value>0</value>
                                    <valuemin>0</valuemin>
                                    <valuemax>100</valuemax>
                                </parameter>
                            </effect>
                        </filter>
                        <link>
                            <linkclipref>IMG_0498.MOV 47</linkclipref>
                        </link>
                        <link>
                            <linkclipref>IMG_0498.MOV 120</linkclipref>
                        </link>
                    </clipitem>
                    <clipitem id="IMG_0498.MOV 49">
                        <name>IMG_0498.MOV</name>
                        <duration>94362</duration>
                        <rate>
                            <timebase>25</timebase>
                            <ntsc>false</ntsc>
                        </rate>
                        <start>29511</start>
                        <end>30107</end>
                        <enabled>true</enabled>
                        <in>27334</in>
                        <out>27930</out>
                        <file id="IMG_0498.MOV 2"/>
                        <compositemode>normal</compositemode>
                        <filter>
                            <enabled>true</enabled>
                            <start>0</start>
                            <end>94362</end>
                            <effect>
                                <name>Opacity</name>
                                <effectid>opacity</effectid>
                                <effecttype>motion</effecttype>
                                <mediatype>video</mediatype>
                                <effectcategory>motion</effectcategory>
                                <parameter>
                                    <name>opacity</name>
                                    <parameterid>opacity</parameterid>
                                    <value>100</value>
                                    <valuemin>0</valuemin>
                                    <valuemax>100</valuemax>
                                </parameter>
                            </effect>
                        </filter>
                        <filter>
                            <enabled>true</enabled>
                            <start>0</start>
                            <end>94362</end>
                            <effect>
                                <name>Basic Motion</name>
                                <effectid>basic</effectid>
                                <effecttype>motion</effecttype>
                                <mediatype>video</mediatype>
                                <effectcategory>motion</effectcategory>
                                <parameter>
                                    <name>Scale</name>
                                    <parameterid>scale</parameterid>
                                    <value>200</value>
                                    <valuemin>25</valuemin>
                                    <valuemax>400</valuemax>
                                </parameter>
                                <parameter>
                                    <name>Center</name>
                                    <parameterid>center</parameterid>
                                    <value>
                                        <horiz>-0.346354156732559</horiz>
                                        <vert>0.243518561124802</vert>
                                    </value>
                                </parameter>
                                <parameter>
                                    <name>Rotation</name>
                                    <parameterid>rotation</parameterid>
                                    <value>-3.00781</value>
                                    <valuemin>-100000</valuemin>
                                    <valuemax>100000</valuemax>
                                </parameter>
                                <parameter>
                                    <name>Anchor Point</name>
                                    <parameterid>centerOffset</parameterid>
                                    <value>
                                        <horiz>0</horiz>
                                        <vert>0</vert>
                                    </value>
                                </parameter>
                            </effect>
                        </filter>
                        <filter>
                            <enabled>true</enabled>
                            <start>0</start>
                            <end>94362</end>
                            <effect>
                                <name>Crop</name>
                                <effectid>crop</effectid>
                                <effecttype>motion</effecttype>
                                <mediatype>video</mediatype>
                                <effectcategory>motion</effectcategory>
                                <parameter>
                                    <name>left</name>
                                    <parameterid>left</parameterid>
                                    <value>0</value>
                                    <valuemin>0</valuemin>
                                    <valuemax>100</valuemax>
                                </parameter>
                                <parameter>
                                    <name>right</name>
                                    <parameterid>right</parameterid>
                                    <value>0</value>
                                    <valuemin>0</valuemin>
                                    <valuemax>100</valuemax>
                                </parameter>
                                <parameter>
                                    <name>top</name>
                                    <parameterid>top</parameterid>
                                    <value>0</value>
                                    <valuemin>0</valuemin>
                                    <valuemax>100</valuemax>
                                </parameter>
                                <parameter>
                                    <name>bottom</name>
                                    <parameterid>bottom</parameterid>
                                    <value>0</value>
                                    <valuemin>0</valuemin>
                                    <valuemax>100</valuemax>
                                </parameter>
                            </effect>
                        </filter>
                        <link>
                            <linkclipref>IMG_0498.MOV 49</linkclipref>
                        </link>
                        <link>
                            <linkclipref>IMG_0498.MOV 121</linkclipref>
                        </link>
                    </clipitem>
                    <clipitem id="IMG_0498.MOV 51">
                        <name>IMG_0498.MOV</name>
                        <duration>94362</duration>
                        <rate>
                            <timebase>25</timebase>
                            <ntsc>false</ntsc>
                        </rate>
                        <start>30589</start>
                        <end>30871</end>
                        <enabled>true</enabled>
                        <in>28573</in>
                        <out>28855</out>
                        <file id="IMG_0498.MOV 2"/>
                        <compositemode>normal</compositemode>
                        <filter>
                            <enabled>true</enabled>
                            <start>0</start>
                            <end>94362</end>
                            <effect>
                                <name>Opacity</name>
                                <effectid>opacity</effectid>
                                <effecttype>motion</effecttype>
                                <mediatype>video</mediatype>
                                <effectcategory>motion</effectcategory>
                                <parameter>
                                    <name>opacity</name>
                                    <parameterid>opacity</parameterid>
                                    <value>100</value>
                                    <valuemin>0</valuemin>
                                    <valuemax>100</valuemax>
                                </parameter>
                            </effect>
                        </filter>
                        <filter>
                            <enabled>true</enabled>
                            <start>0</start>
                            <end>94362</end>
                            <effect>
                                <name>Basic Motion</name>
                                <effectid>basic</effectid>
                                <effecttype>motion</effecttype>
                                <mediatype>video</mediatype>
                                <effectcategory>motion</effectcategory>
                                <parameter>
                                    <name>Scale</name>
                                    <parameterid>scale</parameterid>
                                    <value>200</value>
                                    <valuemin>25</valuemin>
                                    <valuemax>400</valuemax>
                                </parameter>
                                <parameter>
                                    <name>Center</name>
                                    <parameterid>center</parameterid>
                                    <value>
                                        <horiz>-0.1328125</horiz>
                                        <vert>0.183333352208138</vert>
                                    </value>
                                </parameter>
                                <parameter>
                                    <name>Rotation</name>
                                    <parameterid>rotation</parameterid>
                                    <value>-3.00781</value>
                                    <valuemin>-100000</valuemin>
                                    <valuemax>100000</valuemax>
                                </parameter>
                                <parameter>
                                    <name>Anchor Point</name>
                                    <parameterid>centerOffset</parameterid>
                                    <value>
                                        <horiz>0</horiz>
                                        <vert>0</vert>
                                    </value>
                                </parameter>
                            </effect>
                        </filter>
                        <filter>
                            <enabled>true</enabled>
                            <start>0</start>
                            <end>94362</end>
                            <effect>
                                <name>Crop</name>
                                <effectid>crop</effectid>
                                <effecttype>motion</effecttype>
                                <mediatype>video</mediatype>
                                <effectcategory>motion</effectcategory>
                                <parameter>
                                    <name>left</name>
                                    <parameterid>left</parameterid>
                                    <value>0</value>
                                    <valuemin>0</valuemin>
                                    <valuemax>100</valuemax>
                                </parameter>
                                <parameter>
                                    <name>right</name>
                                    <parameterid>right</parameterid>
                                    <value>0</value>
                                    <valuemin>0</valuemin>
                                    <valuemax>100</valuemax>
                                </parameter>
                                <parameter>
                                    <name>top</name>
                                    <parameterid>top</parameterid>
                                    <value>0</value>
                                    <valuemin>0</valuemin>
                                    <valuemax>100</valuemax>
                                </parameter>
                                <parameter>
                                    <name>bottom</name>
                                    <parameterid>bottom</parameterid>
                                    <value>0</value>
                                    <valuemin>0</valuemin>
                                    <valuemax>100</valuemax>
                                </parameter>
                            </effect>
                        </filter>
                        <link>
                            <linkclipref>IMG_0498.MOV 51</linkclipref>
                        </link>
                        <link>
                            <linkclipref>IMG_0498.MOV 122</linkclipref>
                        </link>
                    </clipitem>
                    <clipitem id="IMG_0498.MOV 53">
                        <name>IMG_0498.MOV</name>
                        <duration>94362</duration>
                        <rate>
                            <timebase>25</timebase>
                            <ntsc>false</ntsc>
                        </rate>
                        <start>31108</start>
                        <end>31705</end>
                        <enabled>true</enabled>
                        <in>29120</in>
                        <out>29717</out>
                        <file id="IMG_0498.MOV 2"/>
                        <compositemode>normal</compositemode>
                        <filter>
                            <enabled>true</enabled>
                            <start>0</start>
                            <end>94362</end>
                            <effect>
                                <name>Opacity</name>
                                <effectid>opacity</effectid>
                                <effecttype>motion</effecttype>
                                <mediatype>video</mediatype>
                                <effectcategory>motion</effectcategory>
                                <parameter>
                                    <name>opacity</name>
                                    <parameterid>opacity</parameterid>
                                    <value>100</value>
                                    <valuemin>0</valuemin>
                                    <valuemax>100</valuemax>
                                </parameter>
                            </effect>
                        </filter>
                        <filter>
                            <enabled>true</enabled>
                            <start>0</start>
                            <end>94362</end>
                            <effect>
                                <name>Basic Motion</name>
                                <effectid>basic</effectid>
                                <effecttype>motion</effecttype>
                                <mediatype>video</mediatype>
                                <effectcategory>motion</effectcategory>
                                <parameter>
                                    <name>Scale</name>
                                    <parameterid>scale</parameterid>
                                    <value>200</value>
                                    <valuemin>25</valuemin>
                                    <valuemax>400</valuemax>
                                </parameter>
                                <parameter>
                                    <name>Center</name>
                                    <parameterid>center</parameterid>
                                    <value>
                                        <horiz>-0.100520819425583</horiz>
                                        <vert>0.359259277582169</vert>
                                    </value>
                                </parameter>
                                <parameter>
                                    <name>Rotation</name>
                                    <parameterid>rotation</parameterid>
                                    <value>-3.00781</value>
                                    <valuemin>-100000</valuemin>
                                    <valuemax>100000</valuemax>
                                </parameter>
                                <parameter>
                                    <name>Anchor Point</name>
                                    <parameterid>centerOffset</parameterid>
                                    <value>
                                        <horiz>0</horiz>
                                        <vert>0</vert>
                                    </value>
                                </parameter>
                            </effect>
                        </filter>
                        <filter>
                            <enabled>true</enabled>
                            <start>0</start>
                            <end>94362</end>
                            <effect>
                                <name>Crop</name>
                                <effectid>crop</effectid>
                                <effecttype>motion</effecttype>
                                <mediatype>video</mediatype>
                                <effectcategory>motion</effectcategory>
                                <parameter>
                                    <name>left</name>
                                    <parameterid>left</parameterid>
                                    <value>0</value>
                                    <valuemin>0</valuemin>
                                    <valuemax>100</valuemax>
                                </parameter>
                                <parameter>
                                    <name>right</name>
                                    <parameterid>right</parameterid>
                                    <value>0</value>
                                    <valuemin>0</valuemin>
                                    <valuemax>100</valuemax>
                                </parameter>
                                <parameter>
                                    <name>top</name>
                                    <parameterid>top</parameterid>
                                    <value>0</value>
                                    <valuemin>0</valuemin>
                                    <valuemax>100</valuemax>
                                </parameter>
                                <parameter>
                                    <name>bottom</name>
                                    <parameterid>bottom</parameterid>
                                    <value>0</value>
                                    <valuemin>0</valuemin>
                                    <valuemax>100</valuemax>
                                </parameter>
                            </effect>
                        </filter>
                        <link>
                            <linkclipref>IMG_0498.MOV 53</linkclipref>
                        </link>
                        <link>
                            <linkclipref>IMG_0498.MOV 123</linkclipref>
                        </link>
                    </clipitem>
                    <clipitem id="IMG_0498.MOV 55">
                        <name>IMG_0498.MOV</name>
                        <duration>94362</duration>
                        <rate>
                            <timebase>25</timebase>
                            <ntsc>false</ntsc>
                        </rate>
                        <start>31995</start>
                        <end>32590</end>
                        <enabled>true</enabled>
                        <in>30007</in>
                        <out>30602</out>
                        <file id="IMG_0498.MOV 2"/>
                        <compositemode>normal</compositemode>
                        <filter>
                            <enabled>true</enabled>
                            <start>0</start>
                            <end>94362</end>
                            <effect>
                                <name>Opacity</name>
                                <effectid>opacity</effectid>
                                <effecttype>motion</effecttype>
                                <mediatype>video</mediatype>
                                <effectcategory>motion</effectcategory>
                                <parameter>
                                    <name>opacity</name>
                                    <parameterid>opacity</parameterid>
                                    <value>100</value>
                                    <valuemin>0</valuemin>
                                    <valuemax>100</valuemax>
                                </parameter>
                            </effect>
                        </filter>
                        <filter>
                            <enabled>true</enabled>
                            <start>0</start>
                            <end>94362</end>
                            <effect>
                                <name>Basic Motion</name>
                                <effectid>basic</effectid>
                                <effecttype>motion</effecttype>
                                <mediatype>video</mediatype>
                                <effectcategory>motion</effectcategory>
                                <parameter>
                                    <name>Scale</name>
                                    <parameterid>scale</parameterid>
                                    <value>113</value>
                                    <valuemin>25</valuemin>
                                    <valuemax>400</valuemax>
                                </parameter>
                                <parameter>
                                    <name>Center</name>
                                    <parameterid>center</parameterid>
                                    <value>
                                        <horiz>-0.0499999932944775</horiz>
                                        <vert>0.0203703753650188</vert>
                                    </value>
                                </parameter>
                                <parameter>
                                    <name>Rotation</name>
                                    <parameterid>rotation</parameterid>
                                    <value>-3.00781</value>
                                    <valuemin>-100000</valuemin>
                                    <valuemax>100000</valuemax>
                                </parameter>
                                <parameter>
                                    <name>Anchor Point</name>
                                    <parameterid>centerOffset</parameterid>
                                    <value>
                                        <horiz>0</horiz>
                                        <vert>0</vert>
                                    </value>
                                </parameter>
                            </effect>
                        </filter>
                        <filter>
                            <enabled>true</enabled>
                            <start>0</start>
                            <end>94362</end>
                            <effect>
                                <name>Crop</name>
                                <effectid>crop</effectid>
                                <effecttype>motion</effecttype>
                                <mediatype>video</mediatype>
                                <effectcategory>motion</effectcategory>
                                <parameter>
                                    <name>left</name>
                                    <parameterid>left</parameterid>
                                    <value>0</value>
                                    <valuemin>0</valuemin>
                                    <valuemax>100</valuemax>
                                </parameter>
                                <parameter>
                                    <name>right</name>
                                    <parameterid>right</parameterid>
                                    <value>0</value>
                                    <valuemin>0</valuemin>
                                    <valuemax>100</valuemax>
                                </parameter>
                                <parameter>
                                    <name>top</name>
                                    <parameterid>top</parameterid>
                                    <value>0</value>
                                    <valuemin>0</valuemin>
                                    <valuemax>100</valuemax>
                                </parameter>
                                <parameter>
                                    <name>bottom</name>
                                    <parameterid>bottom</parameterid>
                                    <value>0</value>
                                    <valuemin>0</valuemin>
                                    <valuemax>100</valuemax>
                                </parameter>
                            </effect>
                        </filter>
                        <link>
                            <linkclipref>IMG_0498.MOV 55</linkclipref>
                        </link>
                        <link>
                            <linkclipref>IMG_0498.MOV 124</linkclipref>
                        </link>
                    </clipitem>
                    <clipitem id="IMG_0498.MOV 57">
                        <name>IMG_0498.MOV</name>
                        <duration>94362</duration>
                        <rate>
                            <timebase>25</timebase>
                            <ntsc>false</ntsc>
                        </rate>
                        <start>33151</start>
                        <end>33565</end>
                        <enabled>true</enabled>
                        <in>31163</in>
                        <out>31577</out>
                        <file id="IMG_0498.MOV 2"/>
                        <compositemode>normal</compositemode>
                        <filter>
                            <enabled>true</enabled>
                            <start>0</start>
                            <end>94362</end>
                            <effect>
                                <name>Opacity</name>
                                <effectid>opacity</effectid>
                                <effecttype>motion</effecttype>
                                <mediatype>video</mediatype>
                                <effectcategory>motion</effectcategory>
                                <parameter>
                                    <name>opacity</name>
                                    <parameterid>opacity</parameterid>
                                    <value>100</value>
                                    <valuemin>0</valuemin>
                                    <valuemax>100</valuemax>
                                </parameter>
                            </effect>
                        </filter>
                        <filter>
                            <enabled>true</enabled>
                            <start>0</start>
                            <end>94362</end>
                            <effect>
                                <name>Basic Motion</name>
                                <effectid>basic</effectid>
                                <effecttype>motion</effecttype>
                                <mediatype>video</mediatype>
                                <effectcategory>motion</effectcategory>
                                <parameter>
                                    <name>Scale</name>
                                    <parameterid>scale</parameterid>
                                    <value>113</value>
                                    <valuemin>25</valuemin>
                                    <valuemax>400</valuemax>
                                </parameter>
                                <parameter>
                                    <name>Center</name>
                                    <parameterid>center</parameterid>
                                    <value>
                                        <horiz>-0.0499999932944775</horiz>
                                        <vert>0.0203703753650188</vert>
                                    </value>
                                </parameter>
                                <parameter>
                                    <name>Rotation</name>
                                    <parameterid>rotation</parameterid>
                                    <value>-3.00781</value>
                                    <valuemin>-100000</valuemin>
                                    <valuemax>100000</valuemax>
                                </parameter>
                                <parameter>
                                    <name>Anchor Point</name>
                                    <parameterid>centerOffset</parameterid>
                                    <value>
                                        <horiz>0</horiz>
                                        <vert>0</vert>
                                    </value>
                                </parameter>
                            </effect>
                        </filter>
                        <filter>
                            <enabled>true</enabled>
                            <start>0</start>
                            <end>94362</end>
                            <effect>
                                <name>Crop</name>
                                <effectid>crop</effectid>
                                <effecttype>motion</effecttype>
                                <mediatype>video</mediatype>
                                <effectcategory>motion</effectcategory>
                                <parameter>
                                    <name>left</name>
                                    <parameterid>left</parameterid>
                                    <value>0</value>
                                    <valuemin>0</valuemin>
                                    <valuemax>100</valuemax>
                                </parameter>
                                <parameter>
                                    <name>right</name>
                                    <parameterid>right</parameterid>
                                    <value>0</value>
                                    <valuemin>0</valuemin>
                                    <valuemax>100</valuemax>
                                </parameter>
                                <parameter>
                                    <name>top</name>
                                    <parameterid>top</parameterid>
                                    <value>0</value>
                                    <valuemin>0</valuemin>
                                    <valuemax>100</valuemax>
                                </parameter>
                                <parameter>
                                    <name>bottom</name>
                                    <parameterid>bottom</parameterid>
                                    <value>0</value>
                                    <valuemin>0</valuemin>
                                    <valuemax>100</valuemax>
                                </parameter>
                            </effect>
                        </filter>
                        <link>
                            <linkclipref>IMG_0498.MOV 57</linkclipref>
                        </link>
                        <link>
                            <linkclipref>IMG_0498.MOV 125</linkclipref>
                        </link>
                    </clipitem>
                    <clipitem id="IMG_0498.MOV 59">
                        <name>IMG_0498.MOV</name>
                        <duration>94362</duration>
                        <rate>
                            <timebase>25</timebase>
                            <ntsc>false</ntsc>
                        </rate>
                        <start>33692</start>
                        <end>33771</end>
                        <enabled>true</enabled>
                        <in>31692</in>
                        <out>31771</out>
                        <file id="IMG_0498.MOV 2"/>
                        <compositemode>normal</compositemode>
                        <filter>
                            <enabled>true</enabled>
                            <start>0</start>
                            <end>94362</end>
                            <effect>
                                <name>Opacity</name>
                                <effectid>opacity</effectid>
                                <effecttype>motion</effecttype>
                                <mediatype>video</mediatype>
                                <effectcategory>motion</effectcategory>
                                <parameter>
                                    <name>opacity</name>
                                    <parameterid>opacity</parameterid>
                                    <value>100</value>
                                    <valuemin>0</valuemin>
                                    <valuemax>100</valuemax>
                                </parameter>
                            </effect>
                        </filter>
                        <filter>
                            <enabled>true</enabled>
                            <start>0</start>
                            <end>94362</end>
                            <effect>
                                <name>Basic Motion</name>
                                <effectid>basic</effectid>
                                <effecttype>motion</effecttype>
                                <mediatype>video</mediatype>
                                <effectcategory>motion</effectcategory>
                                <parameter>
                                    <name>Scale</name>
                                    <parameterid>scale</parameterid>
                                    <value>113</value>
                                    <valuemin>25</valuemin>
                                    <valuemax>400</valuemax>
                                </parameter>
                                <parameter>
                                    <name>Center</name>
                                    <parameterid>center</parameterid>
                                    <value>
                                        <horiz>-0.0499999932944775</horiz>
                                        <vert>0.0203703753650188</vert>
                                    </value>
                                </parameter>
                                <parameter>
                                    <name>Rotation</name>
                                    <parameterid>rotation</parameterid>
                                    <value>-3.00781</value>
                                    <valuemin>-100000</valuemin>
                                    <valuemax>100000</valuemax>
                                </parameter>
                                <parameter>
                                    <name>Anchor Point</name>
                                    <parameterid>centerOffset</parameterid>
                                    <value>
                                        <horiz>0</horiz>
                                        <vert>0</vert>
                                    </value>
                                </parameter>
                            </effect>
                        </filter>
                        <filter>
                            <enabled>true</enabled>
                            <start>0</start>
                            <end>94362</end>
                            <effect>
                                <name>Crop</name>
                                <effectid>crop</effectid>
                                <effecttype>motion</effecttype>
                                <mediatype>video</mediatype>
                                <effectcategory>motion</effectcategory>
                                <parameter>
                                    <name>left</name>
                                    <parameterid>left</parameterid>
                                    <value>0</value>
                                    <valuemin>0</valuemin>
                                    <valuemax>100</valuemax>
                                </parameter>
                                <parameter>
                                    <name>right</name>
                                    <parameterid>right</parameterid>
                                    <value>0</value>
                                    <valuemin>0</valuemin>
                                    <valuemax>100</valuemax>
                                </parameter>
                                <parameter>
                                    <name>top</name>
                                    <parameterid>top</parameterid>
                                    <value>0</value>
                                    <valuemin>0</valuemin>
                                    <valuemax>100</valuemax>
                                </parameter>
                                <parameter>
                                    <name>bottom</name>
                                    <parameterid>bottom</parameterid>
                                    <value>0</value>
                                    <valuemin>0</valuemin>
                                    <valuemax>100</valuemax>
                                </parameter>
                            </effect>
                        </filter>
                        <link>
                            <linkclipref>IMG_0498.MOV 59</linkclipref>
                        </link>
                        <link>
                            <linkclipref>IMG_0498.MOV 126</linkclipref>
                        </link>
                    </clipitem>
                    <clipitem id="IMG_0498.MOV 61">
                        <name>IMG_0498.MOV</name>
                        <duration>94362</duration>
                        <rate>
                            <timebase>25</timebase>
                            <ntsc>false</ntsc>
                        </rate>
                        <start>34175</start>
                        <end>34310</end>
                        <enabled>true</enabled>
                        <in>32155</in>
                        <out>32290</out>
                        <file id="IMG_0498.MOV 2"/>
                        <compositemode>normal</compositemode>
                        <filter>
                            <enabled>true</enabled>
                            <start>0</start>
                            <end>94362</end>
                            <effect>
                                <name>Opacity</name>
                                <effectid>opacity</effectid>
                                <effecttype>motion</effecttype>
                                <mediatype>video</mediatype>
                                <effectcategory>motion</effectcategory>
                                <parameter>
                                    <name>opacity</name>
                                    <parameterid>opacity</parameterid>
                                    <value>100</value>
                                    <valuemin>0</valuemin>
                                    <valuemax>100</valuemax>
                                </parameter>
                            </effect>
                        </filter>
                        <filter>
                            <enabled>true</enabled>
                            <start>0</start>
                            <end>94362</end>
                            <effect>
                                <name>Basic Motion</name>
                                <effectid>basic</effectid>
                                <effecttype>motion</effecttype>
                                <mediatype>video</mediatype>
                                <effectcategory>motion</effectcategory>
                                <parameter>
                                    <name>Scale</name>
                                    <parameterid>scale</parameterid>
                                    <value>138</value>
                                    <valuemin>25</valuemin>
                                    <valuemax>400</valuemax>
                                </parameter>
                                <parameter>
                                    <name>Center</name>
                                    <parameterid>center</parameterid>
                                    <value>
                                        <horiz>-0.0447916686534882</horiz>
                                        <vert>0.140740782022476</vert>
                                    </value>
                                </parameter>
                                <parameter>
                                    <name>Rotation</name>
                                    <parameterid>rotation</parameterid>
                                    <value>-3.00781</value>
                                    <valuemin>-100000</valuemin>
                                    <valuemax>100000</valuemax>
                                </parameter>
                                <parameter>
                                    <name>Anchor Point</name>
                                    <parameterid>centerOffset</parameterid>
                                    <value>
                                        <horiz>0</horiz>
                                        <vert>0</vert>
                                    </value>
                                </parameter>
                            </effect>
                        </filter>
                        <filter>
                            <enabled>true</enabled>
                            <start>0</start>
                            <end>94362</end>
                            <effect>
                                <name>Crop</name>
                                <effectid>crop</effectid>
                                <effecttype>motion</effecttype>
                                <mediatype>video</mediatype>
                                <effectcategory>motion</effectcategory>
                                <parameter>
                                    <name>left</name>
                                    <parameterid>left</parameterid>
                                    <value>0</value>
                                    <valuemin>0</valuemin>
                                    <valuemax>100</valuemax>
                                </parameter>
                                <parameter>
                                    <name>right</name>
                                    <parameterid>right</parameterid>
                                    <value>0</value>
                                    <valuemin>0</valuemin>
                                    <valuemax>100</valuemax>
                                </parameter>
                                <parameter>
                                    <name>top</name>
                                    <parameterid>top</parameterid>
                                    <value>0</value>
                                    <valuemin>0</valuemin>
                                    <valuemax>100</valuemax>
                                </parameter>
                                <parameter>
                                    <name>bottom</name>
                                    <parameterid>bottom</parameterid>
                                    <value>0</value>
                                    <valuemin>0</valuemin>
                                    <valuemax>100</valuemax>
                                </parameter>
                            </effect>
                        </filter>
                        <link>
                            <linkclipref>IMG_0498.MOV 61</linkclipref>
                        </link>
                        <link>
                            <linkclipref>IMG_0498.MOV 127</linkclipref>
                        </link>
                    </clipitem>
                    <clipitem id="IMG_0498.MOV 63">
                        <name>IMG_0498.MOV</name>
                        <duration>94362</duration>
                        <rate>
                            <timebase>25</timebase>
                            <ntsc>false</ntsc>
                        </rate>
                        <start>35599</start>
                        <end>35998</end>
                        <enabled>true</enabled>
                        <in>33228</in>
                        <out>33627</out>
                        <file id="IMG_0498.MOV 2"/>
                        <compositemode>normal</compositemode>
                        <filter>
                            <enabled>true</enabled>
                            <start>0</start>
                            <end>94362</end>
                            <effect>
                                <name>Opacity</name>
                                <effectid>opacity</effectid>
                                <effecttype>motion</effecttype>
                                <mediatype>video</mediatype>
                                <effectcategory>motion</effectcategory>
                                <parameter>
                                    <name>opacity</name>
                                    <parameterid>opacity</parameterid>
                                    <value>100</value>
                                    <valuemin>0</valuemin>
                                    <valuemax>100</valuemax>
                                </parameter>
                            </effect>
                        </filter>
                        <filter>
                            <enabled>true</enabled>
                            <start>0</start>
                            <end>94362</end>
                            <effect>
                                <name>Basic Motion</name>
                                <effectid>basic</effectid>
                                <effecttype>motion</effecttype>
                                <mediatype>video</mediatype>
                                <effectcategory>motion</effectcategory>
                                <parameter>
                                    <name>Scale</name>
                                    <parameterid>scale</parameterid>
                                    <value>113</value>
                                    <valuemin>25</valuemin>
                                    <valuemax>400</valuemax>
                                </parameter>
                                <parameter>
                                    <name>Center</name>
                                    <parameterid>center</parameterid>
                                    <value>
                                        <horiz>-0.0499999932944775</horiz>
                                        <vert>0.0203703753650188</vert>
                                    </value>
                                </parameter>
                                <parameter>
                                    <name>Rotation</name>
                                    <parameterid>rotation</parameterid>
                                    <value>-3.00781</value>
                                    <valuemin>-100000</valuemin>
                                    <valuemax>100000</valuemax>
                                </parameter>
                                <parameter>
                                    <name>Anchor Point</name>
                                    <parameterid>centerOffset</parameterid>
                                    <value>
                                        <horiz>0</horiz>
                                        <vert>0</vert>
                                    </value>
                                </parameter>
                            </effect>
                        </filter>
                        <filter>
                            <enabled>true</enabled>
                            <start>0</start>
                            <end>94362</end>
                            <effect>
                                <name>Crop</name>
                                <effectid>crop</effectid>
                                <effecttype>motion</effecttype>
                                <mediatype>video</mediatype>
                                <effectcategory>motion</effectcategory>
                                <parameter>
                                    <name>left</name>
                                    <parameterid>left</parameterid>
                                    <value>0</value>
                                    <valuemin>0</valuemin>
                                    <valuemax>100</valuemax>
                                </parameter>
                                <parameter>
                                    <name>right</name>
                                    <parameterid>right</parameterid>
                                    <value>0</value>
                                    <valuemin>0</valuemin>
                                    <valuemax>100</valuemax>
                                </parameter>
                                <parameter>
                                    <name>top</name>
                                    <parameterid>top</parameterid>
                                    <value>0</value>
                                    <valuemin>0</valuemin>
                                    <valuemax>100</valuemax>
                                </parameter>
                                <parameter>
                                    <name>bottom</name>
                                    <parameterid>bottom</parameterid>
                                    <value>0</value>
                                    <valuemin>0</valuemin>
                                    <valuemax>100</valuemax>
                                </parameter>
                            </effect>
                        </filter>
                        <link>
                            <linkclipref>IMG_0498.MOV 63</linkclipref>
                        </link>
                        <link>
                            <linkclipref>IMG_0498.MOV 128</linkclipref>
                        </link>
                    </clipitem>
                    <clipitem id="IMG_0498.MOV 65">
                        <name>IMG_0498.MOV</name>
                        <duration>94362</duration>
                        <rate>
                            <timebase>25</timebase>
                            <ntsc>false</ntsc>
                        </rate>
                        <start>36082</start>
                        <end>37738</end>
                        <enabled>true</enabled>
                        <in>34002</in>
                        <out>35658</out>
                        <file id="IMG_0498.MOV 2"/>
                        <compositemode>normal</compositemode>
                        <filter>
                            <enabled>true</enabled>
                            <start>0</start>
                            <end>94362</end>
                            <effect>
                                <name>Opacity</name>
                                <effectid>opacity</effectid>
                                <effecttype>motion</effecttype>
                                <mediatype>video</mediatype>
                                <effectcategory>motion</effectcategory>
                                <parameter>
                                    <name>opacity</name>
                                    <parameterid>opacity</parameterid>
                                    <value>100</value>
                                    <valuemin>0</valuemin>
                                    <valuemax>100</valuemax>
                                </parameter>
                            </effect>
                        </filter>
                        <filter>
                            <enabled>true</enabled>
                            <start>0</start>
                            <end>94362</end>
                            <effect>
                                <name>Basic Motion</name>
                                <effectid>basic</effectid>
                                <effecttype>motion</effecttype>
                                <mediatype>video</mediatype>
                                <effectcategory>motion</effectcategory>
                                <parameter>
                                    <name>Scale</name>
                                    <parameterid>scale</parameterid>
                                    <value>150</value>
                                    <keyframe>
                                        <when>34900</when>
                                        <value>150</value>
                                    </keyframe>
                                    <keyframe>
                                        <when>34937</when>
                                        <value>125</value>
                                    </keyframe>
                                    <valuemin>25</valuemin>
                                    <valuemax>400</valuemax>
                                </parameter>
                                <parameter>
                                    <name>Center</name>
                                    <parameterid>center</parameterid>
                                    <value>
                                        <horiz>0.0541666708886623</horiz>
                                        <vert>0.0712962597608566</vert>
                                    </value>
                                    <keyframe>
                                        <when>35358</when>
                                        <value>
                                            <horiz>0.0541666708886623</horiz>
                                            <vert>0.0712962597608566</vert>
                                        </value>
                                    </keyframe>
                                    <keyframe>
                                        <when>35410</when>
                                        <value>
                                            <horiz>-0.0687500089406967</horiz>
                                            <vert>0.0712962597608566</vert>
                                        </value>
                                    </keyframe>
                                </parameter>
                                <parameter>
                                    <name>Rotation</name>
                                    <parameterid>rotation</parameterid>
                                    <value>-3.00781</value>
                                    <valuemin>-100000</valuemin>
                                    <valuemax>100000</valuemax>
                                </parameter>
                                <parameter>
                                    <name>Anchor Point</name>
                                    <parameterid>centerOffset</parameterid>
                                    <value>
                                        <horiz>0</horiz>
                                        <vert>0</vert>
                                    </value>
                                </parameter>
                            </effect>
                        </filter>
                        <filter>
                            <enabled>true</enabled>
                            <start>0</start>
                            <end>94362</end>
                            <effect>
                                <name>Crop</name>
                                <effectid>crop</effectid>
                                <effecttype>motion</effecttype>
                                <mediatype>video</mediatype>
                                <effectcategory>motion</effectcategory>
                                <parameter>
                                    <name>left</name>
                                    <parameterid>left</parameterid>
                                    <value>0</value>
                                    <valuemin>0</valuemin>
                                    <valuemax>100</valuemax>
                                </parameter>
                                <parameter>
                                    <name>right</name>
                                    <parameterid>right</parameterid>
                                    <value>0</value>
                                    <valuemin>0</valuemin>
                                    <valuemax>100</valuemax>
                                </parameter>
                                <parameter>
                                    <name>top</name>
                                    <parameterid>top</parameterid>
                                    <value>0</value>
                                    <valuemin>0</valuemin>
                                    <valuemax>100</valuemax>
                                </parameter>
                                <parameter>
                                    <name>bottom</name>
                                    <parameterid>bottom</parameterid>
                                    <value>0</value>
                                    <valuemin>0</valuemin>
                                    <valuemax>100</valuemax>
                                </parameter>
                            </effect>
                        </filter>
                        <link>
                            <linkclipref>IMG_0498.MOV 65</linkclipref>
                        </link>
                        <link>
                            <linkclipref>IMG_0498.MOV 129</linkclipref>
                        </link>
                    </clipitem>
                    <clipitem id="IMG_0498.MOV 67">
                        <name>IMG_0498.MOV</name>
                        <duration>94362</duration>
                        <rate>
                            <timebase>25</timebase>
                            <ntsc>false</ntsc>
                        </rate>
                        <start>37881</start>
                        <end>39174</end>
                        <enabled>true</enabled>
                        <in>35801</in>
                        <out>37094</out>
                        <file id="IMG_0498.MOV 2"/>
                        <compositemode>normal</compositemode>
                        <filter>
                            <enabled>true</enabled>
                            <start>0</start>
                            <end>94362</end>
                            <effect>
                                <name>Opacity</name>
                                <effectid>opacity</effectid>
                                <effecttype>motion</effecttype>
                                <mediatype>video</mediatype>
                                <effectcategory>motion</effectcategory>
                                <parameter>
                                    <name>opacity</name>
                                    <parameterid>opacity</parameterid>
                                    <value>100</value>
                                    <valuemin>0</valuemin>
                                    <valuemax>100</valuemax>
                                </parameter>
                            </effect>
                        </filter>
                        <filter>
                            <enabled>true</enabled>
                            <start>0</start>
                            <end>94362</end>
                            <effect>
                                <name>Basic Motion</name>
                                <effectid>basic</effectid>
                                <effecttype>motion</effecttype>
                                <mediatype>video</mediatype>
                                <effectcategory>motion</effectcategory>
                                <parameter>
                                    <name>Scale</name>
                                    <parameterid>scale</parameterid>
                                    <value>113</value>
                                    <valuemin>25</valuemin>
                                    <valuemax>400</valuemax>
                                </parameter>
                                <parameter>
                                    <name>Center</name>
                                    <parameterid>center</parameterid>
                                    <value>
                                        <horiz>-0.0499999932944775</horiz>
                                        <vert>0.0203703753650188</vert>
                                    </value>
                                </parameter>
                                <parameter>
                                    <name>Rotation</name>
                                    <parameterid>rotation</parameterid>
                                    <value>-3.00781</value>
                                    <valuemin>-100000</valuemin>
                                    <valuemax>100000</valuemax>
                                </parameter>
                                <parameter>
                                    <name>Anchor Point</name>
                                    <parameterid>centerOffset</parameterid>
                                    <value>
                                        <horiz>0</horiz>
                                        <vert>0</vert>
                                    </value>
                                </parameter>
                            </effect>
                        </filter>
                        <filter>
                            <enabled>true</enabled>
                            <start>0</start>
                            <end>94362</end>
                            <effect>
                                <name>Crop</name>
                                <effectid>crop</effectid>
                                <effecttype>motion</effecttype>
                                <mediatype>video</mediatype>
                                <effectcategory>motion</effectcategory>
                                <parameter>
                                    <name>left</name>
                                    <parameterid>left</parameterid>
                                    <value>0</value>
                                    <valuemin>0</valuemin>
                                    <valuemax>100</valuemax>
                                </parameter>
                                <parameter>
                                    <name>right</name>
                                    <parameterid>right</parameterid>
                                    <value>0</value>
                                    <valuemin>0</valuemin>
                                    <valuemax>100</valuemax>
                                </parameter>
                                <parameter>
                                    <name>top</name>
                                    <parameterid>top</parameterid>
                                    <value>0</value>
                                    <valuemin>0</valuemin>
                                    <valuemax>100</valuemax>
                                </parameter>
                                <parameter>
                                    <name>bottom</name>
                                    <parameterid>bottom</parameterid>
                                    <value>0</value>
                                    <valuemin>0</valuemin>
                                    <valuemax>100</valuemax>
                                </parameter>
                            </effect>
                        </filter>
                        <link>
                            <linkclipref>IMG_0498.MOV 67</linkclipref>
                        </link>
                        <link>
                            <linkclipref>IMG_0498.MOV 130</linkclipref>
                        </link>
                    </clipitem>
                    <clipitem id="IMG_0498.MOV 69">
                        <name>IMG_0498.MOV</name>
                        <duration>94362</duration>
                        <rate>
                            <timebase>25</timebase>
                            <ntsc>false</ntsc>
                        </rate>
                        <start>39448</start>
                        <end>40485</end>
                        <enabled>true</enabled>
                        <in>37345</in>
                        <out>38382</out>
                        <file id="IMG_0498.MOV 2"/>
                        <compositemode>normal</compositemode>
                        <filter>
                            <enabled>true</enabled>
                            <start>0</start>
                            <end>94362</end>
                            <effect>
                                <name>Opacity</name>
                                <effectid>opacity</effectid>
                                <effecttype>motion</effecttype>
                                <mediatype>video</mediatype>
                                <effectcategory>motion</effectcategory>
                                <parameter>
                                    <name>opacity</name>
                                    <parameterid>opacity</parameterid>
                                    <value>100</value>
                                    <valuemin>0</valuemin>
                                    <valuemax>100</valuemax>
                                </parameter>
                            </effect>
                        </filter>
                        <filter>
                            <enabled>true</enabled>
                            <start>0</start>
                            <end>94362</end>
                            <effect>
                                <name>Basic Motion</name>
                                <effectid>basic</effectid>
                                <effecttype>motion</effecttype>
                                <mediatype>video</mediatype>
                                <effectcategory>motion</effectcategory>
                                <parameter>
                                    <name>Scale</name>
                                    <parameterid>scale</parameterid>
                                    <value>113</value>
                                    <valuemin>25</valuemin>
                                    <valuemax>400</valuemax>
                                </parameter>
                                <parameter>
                                    <name>Center</name>
                                    <parameterid>center</parameterid>
                                    <value>
                                        <horiz>-0.0499999932944775</horiz>
                                        <vert>0.0203703753650188</vert>
                                    </value>
                                </parameter>
                                <parameter>
                                    <name>Rotation</name>
                                    <parameterid>rotation</parameterid>
                                    <value>-3.00781</value>
                                    <valuemin>-100000</valuemin>
                                    <valuemax>100000</valuemax>
                                </parameter>
                                <parameter>
                                    <name>Anchor Point</name>
                                    <parameterid>centerOffset</parameterid>
                                    <value>
                                        <horiz>0</horiz>
                                        <vert>0</vert>
                                    </value>
                                </parameter>
                            </effect>
                        </filter>
                        <filter>
                            <enabled>true</enabled>
                            <start>0</start>
                            <end>94362</end>
                            <effect>
                                <name>Crop</name>
                                <effectid>crop</effectid>
                                <effecttype>motion</effecttype>
                                <mediatype>video</mediatype>
                                <effectcategory>motion</effectcategory>
                                <parameter>
                                    <name>left</name>
                                    <parameterid>left</parameterid>
                                    <value>0</value>
                                    <valuemin>0</valuemin>
                                    <valuemax>100</valuemax>
                                </parameter>
                                <parameter>
                                    <name>right</name>
                                    <parameterid>right</parameterid>
                                    <value>0</value>
                                    <valuemin>0</valuemin>
                                    <valuemax>100</valuemax>
                                </parameter>
                                <parameter>
                                    <name>top</name>
                                    <parameterid>top</parameterid>
                                    <value>0</value>
                                    <valuemin>0</valuemin>
                                    <valuemax>100</valuemax>
                                </parameter>
                                <parameter>
                                    <name>bottom</name>
                                    <parameterid>bottom</parameterid>
                                    <value>0</value>
                                    <valuemin>0</valuemin>
                                    <valuemax>100</valuemax>
                                </parameter>
                            </effect>
                        </filter>
                        <link>
                            <linkclipref>IMG_0498.MOV 69</linkclipref>
                        </link>
                        <link>
                            <linkclipref>IMG_0498.MOV 131</linkclipref>
                        </link>
                    </clipitem>
                    <clipitem id="IMG_0498.MOV 71">
                        <name>IMG_0498.MOV</name>
                        <duration>94362</duration>
                        <rate>
                            <timebase>25</timebase>
                            <ntsc>false</ntsc>
                        </rate>
                        <start>40925</start>
                        <end>41037</end>
                        <enabled>true</enabled>
                        <in>38839</in>
                        <out>38951</out>
                        <file id="IMG_0498.MOV 2"/>
                        <compositemode>normal</compositemode>
                        <filter>
                            <enabled>true</enabled>
                            <start>0</start>
                            <end>94362</end>
                            <effect>
                                <name>Opacity</name>
                                <effectid>opacity</effectid>
                                <effecttype>motion</effecttype>
                                <mediatype>video</mediatype>
                                <effectcategory>motion</effectcategory>
                                <parameter>
                                    <name>opacity</name>
                                    <parameterid>opacity</parameterid>
                                    <value>100</value>
                                    <valuemin>0</valuemin>
                                    <valuemax>100</valuemax>
                                </parameter>
                            </effect>
                        </filter>
                        <filter>
                            <enabled>true</enabled>
                            <start>0</start>
                            <end>94362</end>
                            <effect>
                                <name>Basic Motion</name>
                                <effectid>basic</effectid>
                                <effecttype>motion</effecttype>
                                <mediatype>video</mediatype>
                                <effectcategory>motion</effectcategory>
                                <parameter>
                                    <name>Scale</name>
                                    <parameterid>scale</parameterid>
                                    <value>113</value>
                                    <valuemin>25</valuemin>
                                    <valuemax>400</valuemax>
                                </parameter>
                                <parameter>
                                    <name>Center</name>
                                    <parameterid>center</parameterid>
                                    <value>
                                        <horiz>-0.0499999932944775</horiz>
                                        <vert>0.0203703753650188</vert>
                                    </value>
                                </parameter>
                                <parameter>
                                    <name>Rotation</name>
                                    <parameterid>rotation</parameterid>
                                    <value>-3.00781</value>
                                    <valuemin>-100000</valuemin>
                                    <valuemax>100000</valuemax>
                                </parameter>
                                <parameter>
                                    <name>Anchor Point</name>
                                    <parameterid>centerOffset</parameterid>
                                    <value>
                                        <horiz>0</horiz>
                                        <vert>0</vert>
                                    </value>
                                </parameter>
                            </effect>
                        </filter>
                        <filter>
                            <enabled>true</enabled>
                            <start>0</start>
                            <end>94362</end>
                            <effect>
                                <name>Crop</name>
                                <effectid>crop</effectid>
                                <effecttype>motion</effecttype>
                                <mediatype>video</mediatype>
                                <effectcategory>motion</effectcategory>
                                <parameter>
                                    <name>left</name>
                                    <parameterid>left</parameterid>
                                    <value>0</value>
                                    <valuemin>0</valuemin>
                                    <valuemax>100</valuemax>
                                </parameter>
                                <parameter>
                                    <name>right</name>
                                    <parameterid>right</parameterid>
                                    <value>0</value>
                                    <valuemin>0</valuemin>
                                    <valuemax>100</valuemax>
                                </parameter>
                                <parameter>
                                    <name>top</name>
                                    <parameterid>top</parameterid>
                                    <value>0</value>
                                    <valuemin>0</valuemin>
                                    <valuemax>100</valuemax>
                                </parameter>
                                <parameter>
                                    <name>bottom</name>
                                    <parameterid>bottom</parameterid>
                                    <value>0</value>
                                    <valuemin>0</valuemin>
                                    <valuemax>100</valuemax>
                                </parameter>
                            </effect>
                        </filter>
                        <link>
                            <linkclipref>IMG_0498.MOV 71</linkclipref>
                        </link>
                        <link>
                            <linkclipref>IMG_0498.MOV 132</linkclipref>
                        </link>
                    </clipitem>
                    <clipitem id="IMG_0498.MOV 73">
                        <name>IMG_0498.MOV</name>
                        <duration>94362</duration>
                        <rate>
                            <timebase>25</timebase>
                            <ntsc>false</ntsc>
                        </rate>
                        <start>41612</start>
                        <end>41854</end>
                        <enabled>true</enabled>
                        <in>39288</in>
                        <out>39530</out>
                        <file id="IMG_0498.MOV 2"/>
                        <compositemode>normal</compositemode>
                        <filter>
                            <enabled>true</enabled>
                            <start>0</start>
                            <end>94362</end>
                            <effect>
                                <name>Opacity</name>
                                <effectid>opacity</effectid>
                                <effecttype>motion</effecttype>
                                <mediatype>video</mediatype>
                                <effectcategory>motion</effectcategory>
                                <parameter>
                                    <name>opacity</name>
                                    <parameterid>opacity</parameterid>
                                    <value>100</value>
                                    <valuemin>0</valuemin>
                                    <valuemax>100</valuemax>
                                </parameter>
                            </effect>
                        </filter>
                        <filter>
                            <enabled>true</enabled>
                            <start>0</start>
                            <end>94362</end>
                            <effect>
                                <name>Basic Motion</name>
                                <effectid>basic</effectid>
                                <effecttype>motion</effecttype>
                                <mediatype>video</mediatype>
                                <effectcategory>motion</effectcategory>
                                <parameter>
                                    <name>Scale</name>
                                    <parameterid>scale</parameterid>
                                    <value>113</value>
                                    <valuemin>25</valuemin>
                                    <valuemax>400</valuemax>
                                </parameter>
                                <parameter>
                                    <name>Center</name>
                                    <parameterid>center</parameterid>
                                    <value>
                                        <horiz>-0.0499999932944775</horiz>
                                        <vert>0.0203703753650188</vert>
                                    </value>
                                </parameter>
                                <parameter>
                                    <name>Rotation</name>
                                    <parameterid>rotation</parameterid>
                                    <value>-3.00781</value>
                                    <valuemin>-100000</valuemin>
                                    <valuemax>100000</valuemax>
                                </parameter>
                                <parameter>
                                    <name>Anchor Point</name>
                                    <parameterid>centerOffset</parameterid>
                                    <value>
                                        <horiz>0</horiz>
                                        <vert>0</vert>
                                    </value>
                                </parameter>
                            </effect>
                        </filter>
                        <filter>
                            <enabled>true</enabled>
                            <start>0</start>
                            <end>94362</end>
                            <effect>
                                <name>Crop</name>
                                <effectid>crop</effectid>
                                <effecttype>motion</effecttype>
                                <mediatype>video</mediatype>
                                <effectcategory>motion</effectcategory>
                                <parameter>
                                    <name>left</name>
                                    <parameterid>left</parameterid>
                                    <value>0</value>
                                    <valuemin>0</valuemin>
                                    <valuemax>100</valuemax>
                                </parameter>
                                <parameter>
                                    <name>right</name>
                                    <parameterid>right</parameterid>
                                    <value>0</value>
                                    <valuemin>0</valuemin>
                                    <valuemax>100</valuemax>
                                </parameter>
                                <parameter>
                                    <name>top</name>
                                    <parameterid>top</parameterid>
                                    <value>0</value>
                                    <valuemin>0</valuemin>
                                    <valuemax>100</valuemax>
                                </parameter>
                                <parameter>
                                    <name>bottom</name>
                                    <parameterid>bottom</parameterid>
                                    <value>0</value>
                                    <valuemin>0</valuemin>
                                    <valuemax>100</valuemax>
                                </parameter>
                            </effect>
                        </filter>
                        <link>
                            <linkclipref>IMG_0498.MOV 73</linkclipref>
                        </link>
                        <link>
                            <linkclipref>IMG_0498.MOV 133</linkclipref>
                        </link>
                    </clipitem>
                    <clipitem id="IMG_0498.MOV 75">
                        <name>IMG_0498.MOV</name>
                        <duration>94362</duration>
                        <rate>
                            <timebase>25</timebase>
                            <ntsc>false</ntsc>
                        </rate>
                        <start>41993</start>
                        <end>42145</end>
                        <enabled>true</enabled>
                        <in>39578</in>
                        <out>39730</out>
                        <file id="IMG_0498.MOV 2"/>
                        <compositemode>normal</compositemode>
                        <filter>
                            <enabled>true</enabled>
                            <start>0</start>
                            <end>94362</end>
                            <effect>
                                <name>Opacity</name>
                                <effectid>opacity</effectid>
                                <effecttype>motion</effecttype>
                                <mediatype>video</mediatype>
                                <effectcategory>motion</effectcategory>
                                <parameter>
                                    <name>opacity</name>
                                    <parameterid>opacity</parameterid>
                                    <value>100</value>
                                    <valuemin>0</valuemin>
                                    <valuemax>100</valuemax>
                                </parameter>
                            </effect>
                        </filter>
                        <filter>
                            <enabled>true</enabled>
                            <start>0</start>
                            <end>94362</end>
                            <effect>
                                <name>Basic Motion</name>
                                <effectid>basic</effectid>
                                <effecttype>motion</effecttype>
                                <mediatype>video</mediatype>
                                <effectcategory>motion</effectcategory>
                                <parameter>
                                    <name>Scale</name>
                                    <parameterid>scale</parameterid>
                                    <value>113</value>
                                    <valuemin>25</valuemin>
                                    <valuemax>400</valuemax>
                                </parameter>
                                <parameter>
                                    <name>Center</name>
                                    <parameterid>center</parameterid>
                                    <value>
                                        <horiz>-0.0499999932944775</horiz>
                                        <vert>0.0203703753650188</vert>
                                    </value>
                                </parameter>
                                <parameter>
                                    <name>Rotation</name>
                                    <parameterid>rotation</parameterid>
                                    <value>-3.00781</value>
                                    <valuemin>-100000</valuemin>
                                    <valuemax>100000</valuemax>
                                </parameter>
                                <parameter>
                                    <name>Anchor Point</name>
                                    <parameterid>centerOffset</parameterid>
                                    <value>
                                        <horiz>0</horiz>
                                        <vert>0</vert>
                                    </value>
                                </parameter>
                            </effect>
                        </filter>
                        <filter>
                            <enabled>true</enabled>
                            <start>0</start>
                            <end>94362</end>
                            <effect>
                                <name>Crop</name>
                                <effectid>crop</effectid>
                                <effecttype>motion</effecttype>
                                <mediatype>video</mediatype>
                                <effectcategory>motion</effectcategory>
                                <parameter>
                                    <name>left</name>
                                    <parameterid>left</parameterid>
                                    <value>0</value>
                                    <valuemin>0</valuemin>
                                    <valuemax>100</valuemax>
                                </parameter>
                                <parameter>
                                    <name>right</name>
                                    <parameterid>right</parameterid>
                                    <value>0</value>
                                    <valuemin>0</valuemin>
                                    <valuemax>100</valuemax>
                                </parameter>
                                <parameter>
                                    <name>top</name>
                                    <parameterid>top</parameterid>
                                    <value>0</value>
                                    <valuemin>0</valuemin>
                                    <valuemax>100</valuemax>
                                </parameter>
                                <parameter>
                                    <name>bottom</name>
                                    <parameterid>bottom</parameterid>
                                    <value>0</value>
                                    <valuemin>0</valuemin>
                                    <valuemax>100</valuemax>
                                </parameter>
                            </effect>
                        </filter>
                        <link>
                            <linkclipref>IMG_0498.MOV 75</linkclipref>
                        </link>
                        <link>
                            <linkclipref>IMG_0498.MOV 134</linkclipref>
                        </link>
                    </clipitem>
                    <clipitem id="IMG_0498.MOV 77">
                        <name>IMG_0498.MOV</name>
                        <duration>94362</duration>
                        <rate>
                            <timebase>25</timebase>
                            <ntsc>false</ntsc>
                        </rate>
                        <start>42224</start>
                        <end>42532</end>
                        <enabled>true</enabled>
                        <in>40519</in>
                        <out>40827</out>
                        <file id="IMG_0498.MOV 2"/>
                        <compositemode>normal</compositemode>
                        <filter>
                            <enabled>true</enabled>
                            <start>0</start>
                            <end>94362</end>
                            <effect>
                                <name>Opacity</name>
                                <effectid>opacity</effectid>
                                <effecttype>motion</effecttype>
                                <mediatype>video</mediatype>
                                <effectcategory>motion</effectcategory>
                                <parameter>
                                    <name>opacity</name>
                                    <parameterid>opacity</parameterid>
                                    <value>100</value>
                                    <valuemin>0</valuemin>
                                    <valuemax>100</valuemax>
                                </parameter>
                            </effect>
                        </filter>
                        <filter>
                            <enabled>true</enabled>
                            <start>0</start>
                            <end>94362</end>
                            <effect>
                                <name>Basic Motion</name>
                                <effectid>basic</effectid>
                                <effecttype>motion</effecttype>
                                <mediatype>video</mediatype>
                                <effectcategory>motion</effectcategory>
                                <parameter>
                                    <name>Scale</name>
                                    <parameterid>scale</parameterid>
                                    <value>129</value>
                                    <valuemin>25</valuemin>
                                    <valuemax>400</valuemax>
                                </parameter>
                                <parameter>
                                    <name>Center</name>
                                    <parameterid>center</parameterid>
                                    <value>
                                        <horiz>-0.0499999932944775</horiz>
                                        <vert>0.103703707456589</vert>
                                    </value>
                                </parameter>
                                <parameter>
                                    <name>Rotation</name>
                                    <parameterid>rotation</parameterid>
                                    <value>-3.00781</value>
                                    <valuemin>-100000</valuemin>
                                    <valuemax>100000</valuemax>
                                </parameter>
                                <parameter>
                                    <name>Anchor Point</name>
                                    <parameterid>centerOffset</parameterid>
                                    <value>
                                        <horiz>0</horiz>
                                        <vert>0</vert>
                                    </value>
                                </parameter>
                            </effect>
                        </filter>
                        <filter>
                            <enabled>true</enabled>
                            <start>0</start>
                            <end>94362</end>
                            <effect>
                                <name>Crop</name>
                                <effectid>crop</effectid>
                                <effecttype>motion</effecttype>
                                <mediatype>video</mediatype>
                                <effectcategory>motion</effectcategory>
                                <parameter>
                                    <name>left</name>
                                    <parameterid>left</parameterid>
                                    <value>0</value>
                                    <valuemin>0</valuemin>
                                    <valuemax>100</valuemax>
                                </parameter>
                                <parameter>
                                    <name>right</name>
                                    <parameterid>right</parameterid>
                                    <value>0</value>
                                    <valuemin>0</valuemin>
                                    <valuemax>100</valuemax>
                                </parameter>
                                <parameter>
                                    <name>top</name>
                                    <parameterid>top</parameterid>
                                    <value>0</value>
                                    <valuemin>0</valuemin>
                                    <valuemax>100</valuemax>
                                </parameter>
                                <parameter>
                                    <name>bottom</name>
                                    <parameterid>bottom</parameterid>
                                    <value>0</value>
                                    <valuemin>0</valuemin>
                                    <valuemax>100</valuemax>
                                </parameter>
                            </effect>
                        </filter>
                        <link>
                            <linkclipref>IMG_0498.MOV 77</linkclipref>
                        </link>
                        <link>
                            <linkclipref>IMG_0498.MOV 135</linkclipref>
                        </link>
                    </clipitem>
                    <clipitem id="IMG_0498.MOV 79">
                        <name>IMG_0498.MOV</name>
                        <duration>94362</duration>
                        <rate>
                            <timebase>25</timebase>
                            <ntsc>false</ntsc>
                        </rate>
                        <start>42863</start>
                        <end>43093</end>
                        <enabled>true</enabled>
                        <in>41248</in>
                        <out>41478</out>
                        <file id="IMG_0498.MOV 2"/>
                        <compositemode>normal</compositemode>
                        <filter>
                            <enabled>true</enabled>
                            <start>0</start>
                            <end>94362</end>
                            <effect>
                                <name>Opacity</name>
                                <effectid>opacity</effectid>
                                <effecttype>motion</effecttype>
                                <mediatype>video</mediatype>
                                <effectcategory>motion</effectcategory>
                                <parameter>
                                    <name>opacity</name>
                                    <parameterid>opacity</parameterid>
                                    <value>100</value>
                                    <valuemin>0</valuemin>
                                    <valuemax>100</valuemax>
                                </parameter>
                            </effect>
                        </filter>
                        <filter>
                            <enabled>true</enabled>
                            <start>0</start>
                            <end>94362</end>
                            <effect>
                                <name>Basic Motion</name>
                                <effectid>basic</effectid>
                                <effecttype>motion</effecttype>
                                <mediatype>video</mediatype>
                                <effectcategory>motion</effectcategory>
                                <parameter>
                                    <name>Scale</name>
                                    <parameterid>scale</parameterid>
                                    <value>113</value>
                                    <valuemin>25</valuemin>
                                    <valuemax>400</valuemax>
                                </parameter>
                                <parameter>
                                    <name>Center</name>
                                    <parameterid>center</parameterid>
                                    <value>
                                        <horiz>-0.0499999932944775</horiz>
                                        <vert>0.0203703753650188</vert>
                                    </value>
                                </parameter>
                                <parameter>
                                    <name>Rotation</name>
                                    <parameterid>rotation</parameterid>
                                    <value>-3.00781</value>
                                    <valuemin>-100000</valuemin>
                                    <valuemax>100000</valuemax>
                                </parameter>
                                <parameter>
                                    <name>Anchor Point</name>
                                    <parameterid>centerOffset</parameterid>
                                    <value>
                                        <horiz>0</horiz>
                                        <vert>0</vert>
                                    </value>
                                </parameter>
                            </effect>
                        </filter>
                        <filter>
                            <enabled>true</enabled>
                            <start>0</start>
                            <end>94362</end>
                            <effect>
                                <name>Crop</name>
                                <effectid>crop</effectid>
                                <effecttype>motion</effecttype>
                                <mediatype>video</mediatype>
                                <effectcategory>motion</effectcategory>
                                <parameter>
                                    <name>left</name>
                                    <parameterid>left</parameterid>
                                    <value>0</value>
                                    <valuemin>0</valuemin>
                                    <valuemax>100</valuemax>
                                </parameter>
                                <parameter>
                                    <name>right</name>
                                    <parameterid>right</parameterid>
                                    <value>0</value>
                                    <valuemin>0</valuemin>
                                    <valuemax>100</valuemax>
                                </parameter>
                                <parameter>
                                    <name>top</name>
                                    <parameterid>top</parameterid>
                                    <value>0</value>
                                    <valuemin>0</valuemin>
                                    <valuemax>100</valuemax>
                                </parameter>
                                <parameter>
                                    <name>bottom</name>
                                    <parameterid>bottom</parameterid>
                                    <value>0</value>
                                    <valuemin>0</valuemin>
                                    <valuemax>100</valuemax>
                                </parameter>
                            </effect>
                        </filter>
                        <link>
                            <linkclipref>IMG_0498.MOV 79</linkclipref>
                        </link>
                        <link>
                            <linkclipref>IMG_0498.MOV 136</linkclipref>
                        </link>
                    </clipitem>
                    <clipitem id="IMG_0498.MOV 81">
                        <name>IMG_0498.MOV</name>
                        <duration>94362</duration>
                        <rate>
                            <timebase>25</timebase>
                            <ntsc>false</ntsc>
                        </rate>
                        <start>43288</start>
                        <end>44360</end>
                        <enabled>true</enabled>
                        <in>41765</in>
                        <out>42837</out>
                        <file id="IMG_0498.MOV 2"/>
                        <compositemode>normal</compositemode>
                        <filter>
                            <enabled>true</enabled>
                            <start>0</start>
                            <end>94362</end>
                            <effect>
                                <name>Opacity</name>
                                <effectid>opacity</effectid>
                                <effecttype>motion</effecttype>
                                <mediatype>video</mediatype>
                                <effectcategory>motion</effectcategory>
                                <parameter>
                                    <name>opacity</name>
                                    <parameterid>opacity</parameterid>
                                    <value>100</value>
                                    <valuemin>0</valuemin>
                                    <valuemax>100</valuemax>
                                </parameter>
                            </effect>
                        </filter>
                        <filter>
                            <enabled>true</enabled>
                            <start>0</start>
                            <end>94362</end>
                            <effect>
                                <name>Basic Motion</name>
                                <effectid>basic</effectid>
                                <effecttype>motion</effecttype>
                                <mediatype>video</mediatype>
                                <effectcategory>motion</effectcategory>
                                <parameter>
                                    <name>Scale</name>
                                    <parameterid>scale</parameterid>
                                    <value>200</value>
                                    <valuemin>25</valuemin>
                                    <valuemax>400</valuemax>
                                </parameter>
                                <parameter>
                                    <name>Center</name>
                                    <parameterid>center</parameterid>
                                    <value>
                                        <horiz>0.151562571525574</horiz>
                                        <vert>0.31296306848526</vert>
                                    </value>
                                </parameter>
                                <parameter>
                                    <name>Rotation</name>
                                    <parameterid>rotation</parameterid>
                                    <value>-3.00781</value>
                                    <valuemin>-100000</valuemin>
                                    <valuemax>100000</valuemax>
                                </parameter>
                                <parameter>
                                    <name>Anchor Point</name>
                                    <parameterid>centerOffset</parameterid>
                                    <value>
                                        <horiz>0</horiz>
                                        <vert>0</vert>
                                    </value>
                                </parameter>
                            </effect>
                        </filter>
                        <filter>
                            <enabled>true</enabled>
                            <start>0</start>
                            <end>94362</end>
                            <effect>
                                <name>Crop</name>
                                <effectid>crop</effectid>
                                <effecttype>motion</effecttype>
                                <mediatype>video</mediatype>
                                <effectcategory>motion</effectcategory>
                                <parameter>
                                    <name>left</name>
                                    <parameterid>left</parameterid>
                                    <value>0</value>
                                    <valuemin>0</valuemin>
                                    <valuemax>100</valuemax>
                                </parameter>
                                <parameter>
                                    <name>right</name>
                                    <parameterid>right</parameterid>
                                    <value>0</value>
                                    <valuemin>0</valuemin>
                                    <valuemax>100</valuemax>
                                </parameter>
                                <parameter>
                                    <name>top</name>
                                    <parameterid>top</parameterid>
                                    <value>0</value>
                                    <valuemin>0</valuemin>
                                    <valuemax>100</valuemax>
                                </parameter>
                                <parameter>
                                    <name>bottom</name>
                                    <parameterid>bottom</parameterid>
                                    <value>0</value>
                                    <valuemin>0</valuemin>
                                    <valuemax>100</valuemax>
                                </parameter>
                            </effect>
                        </filter>
                        <link>
                            <linkclipref>IMG_0498.MOV 81</linkclipref>
                        </link>
                        <link>
                            <linkclipref>IMG_0498.MOV 137</linkclipref>
                        </link>
                    </clipitem>
                    <clipitem id="IMG_0498.MOV 83">
                        <name>IMG_0498.MOV</name>
                        <duration>94362</duration>
                        <rate>
                            <timebase>25</timebase>
                            <ntsc>false</ntsc>
                        </rate>
                        <start>45595</start>
                        <end>46050</end>
                        <enabled>true</enabled>
                        <in>44273</in>
                        <out>44728</out>
                        <file id="IMG_0498.MOV 2"/>
                        <compositemode>normal</compositemode>
                        <filter>
                            <enabled>true</enabled>
                            <start>0</start>
                            <end>94362</end>
                            <effect>
                                <name>Opacity</name>
                                <effectid>opacity</effectid>
                                <effecttype>motion</effecttype>
                                <mediatype>video</mediatype>
                                <effectcategory>motion</effectcategory>
                                <parameter>
                                    <name>opacity</name>
                                    <parameterid>opacity</parameterid>
                                    <value>100</value>
                                    <valuemin>0</valuemin>
                                    <valuemax>100</valuemax>
                                </parameter>
                            </effect>
                        </filter>
                        <filter>
                            <enabled>true</enabled>
                            <start>0</start>
                            <end>94362</end>
                            <effect>
                                <name>Basic Motion</name>
                                <effectid>basic</effectid>
                                <effecttype>motion</effecttype>
                                <mediatype>video</mediatype>
                                <effectcategory>motion</effectcategory>
                                <parameter>
                                    <name>Scale</name>
                                    <parameterid>scale</parameterid>
                                    <value>200</value>
                                    <valuemin>25</valuemin>
                                    <valuemax>400</valuemax>
                                </parameter>
                                <parameter>
                                    <name>Center</name>
                                    <parameterid>center</parameterid>
                                    <value>
                                        <horiz>0.347916603088379</horiz>
                                        <vert>0.331481456756592</vert>
                                    </value>
                                </parameter>
                                <parameter>
                                    <name>Rotation</name>
                                    <parameterid>rotation</parameterid>
                                    <value>-3.00781</value>
                                    <valuemin>-100000</valuemin>
                                    <valuemax>100000</valuemax>
                                </parameter>
                                <parameter>
                                    <name>Anchor Point</name>
                                    <parameterid>centerOffset</parameterid>
                                    <value>
                                        <horiz>0</horiz>
                                        <vert>0</vert>
                                    </value>
                                </parameter>
                            </effect>
                        </filter>
                        <filter>
                            <enabled>true</enabled>
                            <start>0</start>
                            <end>94362</end>
                            <effect>
                                <name>Crop</name>
                                <effectid>crop</effectid>
                                <effecttype>motion</effecttype>
                                <mediatype>video</mediatype>
                                <effectcategory>motion</effectcategory>
                                <parameter>
                                    <name>left</name>
                                    <parameterid>left</parameterid>
                                    <value>0</value>
                                    <valuemin>0</valuemin>
                                    <valuemax>100</valuemax>
                                </parameter>
                                <parameter>
                                    <name>right</name>
                                    <parameterid>right</parameterid>
                                    <value>0</value>
                                    <valuemin>0</valuemin>
                                    <valuemax>100</valuemax>
                                </parameter>
                                <parameter>
                                    <name>top</name>
                                    <parameterid>top</parameterid>
                                    <value>0</value>
                                    <valuemin>0</valuemin>
                                    <valuemax>100</valuemax>
                                </parameter>
                                <parameter>
                                    <name>bottom</name>
                                    <parameterid>bottom</parameterid>
                                    <value>0</value>
                                    <valuemin>0</valuemin>
                                    <valuemax>100</valuemax>
                                </parameter>
                            </effect>
                        </filter>
                        <link>
                            <linkclipref>IMG_0498.MOV 83</linkclipref>
                        </link>
                        <link>
                            <linkclipref>IMG_0498.MOV 138</linkclipref>
                        </link>
                    </clipitem>
                    <clipitem id="IMG_0498.MOV 85">
                        <name>IMG_0498.MOV</name>
                        <duration>94362</duration>
                        <rate>
                            <timebase>25</timebase>
                            <ntsc>false</ntsc>
                        </rate>
                        <start>47979</start>
                        <end>48617</end>
                        <enabled>true</enabled>
                        <in>47007</in>
                        <out>47645</out>
                        <file id="IMG_0498.MOV 2"/>
                        <compositemode>normal</compositemode>
                        <filter>
                            <enabled>true</enabled>
                            <start>0</start>
                            <end>94362</end>
                            <effect>
                                <name>Opacity</name>
                                <effectid>opacity</effectid>
                                <effecttype>motion</effecttype>
                                <mediatype>video</mediatype>
                                <effectcategory>motion</effectcategory>
                                <parameter>
                                    <name>opacity</name>
                                    <parameterid>opacity</parameterid>
                                    <value>100</value>
                                    <valuemin>0</valuemin>
                                    <valuemax>100</valuemax>
                                </parameter>
                            </effect>
                        </filter>
                        <filter>
                            <enabled>true</enabled>
                            <start>0</start>
                            <end>94362</end>
                            <effect>
                                <name>Basic Motion</name>
                                <effectid>basic</effectid>
                                <effecttype>motion</effecttype>
                                <mediatype>video</mediatype>
                                <effectcategory>motion</effectcategory>
                                <parameter>
                                    <name>Scale</name>
                                    <parameterid>scale</parameterid>
                                    <value>200</value>
                                    <valuemin>25</valuemin>
                                    <valuemax>400</valuemax>
                                </parameter>
                                <parameter>
                                    <name>Center</name>
                                    <parameterid>center</parameterid>
                                    <value>
                                        <horiz>-0.191145867109299</horiz>
                                        <vert>0.325926035642624</vert>
                                    </value>
                                </parameter>
                                <parameter>
                                    <name>Rotation</name>
                                    <parameterid>rotation</parameterid>
                                    <value>-3.00781</value>
                                    <valuemin>-100000</valuemin>
                                    <valuemax>100000</valuemax>
                                </parameter>
                                <parameter>
                                    <name>Anchor Point</name>
                                    <parameterid>centerOffset</parameterid>
                                    <value>
                                        <horiz>0</horiz>
                                        <vert>0</vert>
                                    </value>
                                </parameter>
                            </effect>
                        </filter>
                        <filter>
                            <enabled>true</enabled>
                            <start>0</start>
                            <end>94362</end>
                            <effect>
                                <name>Crop</name>
                                <effectid>crop</effectid>
                                <effecttype>motion</effecttype>
                                <mediatype>video</mediatype>
                                <effectcategory>motion</effectcategory>
                                <parameter>
                                    <name>left</name>
                                    <parameterid>left</parameterid>
                                    <value>0</value>
                                    <valuemin>0</valuemin>
                                    <valuemax>100</valuemax>
                                </parameter>
                                <parameter>
                                    <name>right</name>
                                    <parameterid>right</parameterid>
                                    <value>0</value>
                                    <valuemin>0</valuemin>
                                    <valuemax>100</valuemax>
                                </parameter>
                                <parameter>
                                    <name>top</name>
                                    <parameterid>top</parameterid>
                                    <value>0</value>
                                    <valuemin>0</valuemin>
                                    <valuemax>100</valuemax>
                                </parameter>
                                <parameter>
                                    <name>bottom</name>
                                    <parameterid>bottom</parameterid>
                                    <value>0</value>
                                    <valuemin>0</valuemin>
                                    <valuemax>100</valuemax>
                                </parameter>
                            </effect>
                        </filter>
                        <link>
                            <linkclipref>IMG_0498.MOV 85</linkclipref>
                        </link>
                        <link>
                            <linkclipref>IMG_0498.MOV 139</linkclipref>
                        </link>
                    </clipitem>
                    <clipitem id="IMG_0498.MOV 87">
                        <name>IMG_0498.MOV</name>
                        <duration>94362</duration>
                        <rate>
                            <timebase>25</timebase>
                            <ntsc>false</ntsc>
                        </rate>
                        <start>50771</start>
                        <end>50905</end>
                        <enabled>true</enabled>
                        <in>49858</in>
                        <out>49992</out>
                        <file id="IMG_0498.MOV 2"/>
                        <compositemode>normal</compositemode>
                        <filter>
                            <enabled>true</enabled>
                            <start>0</start>
                            <end>94362</end>
                            <effect>
                                <name>Opacity</name>
                                <effectid>opacity</effectid>
                                <effecttype>motion</effecttype>
                                <mediatype>video</mediatype>
                                <effectcategory>motion</effectcategory>
                                <parameter>
                                    <name>opacity</name>
                                    <parameterid>opacity</parameterid>
                                    <value>100</value>
                                    <valuemin>0</valuemin>
                                    <valuemax>100</valuemax>
                                </parameter>
                            </effect>
                        </filter>
                        <filter>
                            <enabled>true</enabled>
                            <start>0</start>
                            <end>94362</end>
                            <effect>
                                <name>Basic Motion</name>
                                <effectid>basic</effectid>
                                <effecttype>motion</effecttype>
                                <mediatype>video</mediatype>
                                <effectcategory>motion</effectcategory>
                                <parameter>
                                    <name>Scale</name>
                                    <parameterid>scale</parameterid>
                                    <value>170</value>
                                    <valuemin>25</valuemin>
                                    <valuemax>400</valuemax>
                                </parameter>
                                <parameter>
                                    <name>Center</name>
                                    <parameterid>center</parameterid>
                                    <value>
                                        <horiz>-0.202604159712791</horiz>
                                        <vert>0.323148429393768</vert>
                                    </value>
                                </parameter>
                                <parameter>
                                    <name>Rotation</name>
                                    <parameterid>rotation</parameterid>
                                    <value>-3.00781</value>
                                    <valuemin>-100000</valuemin>
                                    <valuemax>100000</valuemax>
                                </parameter>
                                <parameter>
                                    <name>Anchor Point</name>
                                    <parameterid>centerOffset</parameterid>
                                    <value>
                                        <horiz>0</horiz>
                                        <vert>0</vert>
                                    </value>
                                </parameter>
                            </effect>
                        </filter>
                        <filter>
                            <enabled>true</enabled>
                            <start>0</start>
                            <end>94362</end>
                            <effect>
                                <name>Crop</name>
                                <effectid>crop</effectid>
                                <effecttype>motion</effecttype>
                                <mediatype>video</mediatype>
                                <effectcategory>motion</effectcategory>
                                <parameter>
                                    <name>left</name>
                                    <parameterid>left</parameterid>
                                    <value>0</value>
                                    <valuemin>0</valuemin>
                                    <valuemax>100</valuemax>
                                </parameter>
                                <parameter>
                                    <name>right</name>
                                    <parameterid>right</parameterid>
                                    <value>0</value>
                                    <valuemin>0</valuemin>
                                    <valuemax>100</valuemax>
                                </parameter>
                                <parameter>
                                    <name>top</name>
                                    <parameterid>top</parameterid>
                                    <value>0</value>
                                    <valuemin>0</valuemin>
                                    <valuemax>100</valuemax>
                                </parameter>
                                <parameter>
                                    <name>bottom</name>
                                    <parameterid>bottom</parameterid>
                                    <value>0</value>
                                    <valuemin>0</valuemin>
                                    <valuemax>100</valuemax>
                                </parameter>
                            </effect>
                        </filter>
                        <link>
                            <linkclipref>IMG_0498.MOV 87</linkclipref>
                        </link>
                        <link>
                            <linkclipref>IMG_0498.MOV 140</linkclipref>
                        </link>
                    </clipitem>
                    <clipitem id="IMG_0498.MOV 89">
                        <name>IMG_0498.MOV</name>
                        <duration>94362</duration>
                        <rate>
                            <timebase>25</timebase>
                            <ntsc>false</ntsc>
                        </rate>
                        <start>51317</start>
                        <end>51600</end>
                        <enabled>true</enabled>
                        <in>50859</in>
                        <out>51142</out>
                        <file id="IMG_0498.MOV 2"/>
                        <compositemode>normal</compositemode>
                        <filter>
                            <enabled>true</enabled>
                            <start>0</start>
                            <end>94362</end>
                            <effect>
                                <name>Opacity</name>
                                <effectid>opacity</effectid>
                                <effecttype>motion</effecttype>
                                <mediatype>video</mediatype>
                                <effectcategory>motion</effectcategory>
                                <parameter>
                                    <name>opacity</name>
                                    <parameterid>opacity</parameterid>
                                    <value>100</value>
                                    <valuemin>0</valuemin>
                                    <valuemax>100</valuemax>
                                </parameter>
                            </effect>
                        </filter>
                        <filter>
                            <enabled>true</enabled>
                            <start>0</start>
                            <end>94362</end>
                            <effect>
                                <name>Basic Motion</name>
                                <effectid>basic</effectid>
                                <effecttype>motion</effecttype>
                                <mediatype>video</mediatype>
                                <effectcategory>motion</effectcategory>
                                <parameter>
                                    <name>Scale</name>
                                    <parameterid>scale</parameterid>
                                    <value>113</value>
                                    <valuemin>25</valuemin>
                                    <valuemax>400</valuemax>
                                </parameter>
                                <parameter>
                                    <name>Center</name>
                                    <parameterid>center</parameterid>
                                    <value>
                                        <horiz>-0.0499999932944775</horiz>
                                        <vert>0.0203703753650188</vert>
                                    </value>
                                </parameter>
                                <parameter>
                                    <name>Rotation</name>
                                    <parameterid>rotation</parameterid>
                                    <value>-3.00781</value>
                                    <valuemin>-100000</valuemin>
                                    <valuemax>100000</valuemax>
                                </parameter>
                                <parameter>
                                    <name>Anchor Point</name>
                                    <parameterid>centerOffset</parameterid>
                                    <value>
                                        <horiz>0</horiz>
                                        <vert>0</vert>
                                    </value>
                                </parameter>
                            </effect>
                        </filter>
                        <filter>
                            <enabled>true</enabled>
                            <start>0</start>
                            <end>94362</end>
                            <effect>
                                <name>Crop</name>
                                <effectid>crop</effectid>
                                <effecttype>motion</effecttype>
                                <mediatype>video</mediatype>
                                <effectcategory>motion</effectcategory>
                                <parameter>
                                    <name>left</name>
                                    <parameterid>left</parameterid>
                                    <value>0</value>
                                    <valuemin>0</valuemin>
                                    <valuemax>100</valuemax>
                                </parameter>
                                <parameter>
                                    <name>right</name>
                                    <parameterid>right</parameterid>
                                    <value>0</value>
                                    <valuemin>0</valuemin>
                                    <valuemax>100</valuemax>
                                </parameter>
                                <parameter>
                                    <name>top</name>
                                    <parameterid>top</parameterid>
                                    <value>0</value>
                                    <valuemin>0</valuemin>
                                    <valuemax>100</valuemax>
                                </parameter>
                                <parameter>
                                    <name>bottom</name>
                                    <parameterid>bottom</parameterid>
                                    <value>0</value>
                                    <valuemin>0</valuemin>
                                    <valuemax>100</valuemax>
                                </parameter>
                            </effect>
                        </filter>
                        <link>
                            <linkclipref>IMG_0498.MOV 89</linkclipref>
                        </link>
                        <link>
                            <linkclipref>IMG_0498.MOV 141</linkclipref>
                        </link>
                    </clipitem>
                    <clipitem id="IMG_0498.MOV 91">
                        <name>IMG_0498.MOV</name>
                        <duration>94362</duration>
                        <rate>
                            <timebase>25</timebase>
                            <ntsc>false</ntsc>
                        </rate>
                        <start>53475</start>
                        <end>53865</end>
                        <enabled>true</enabled>
                        <in>52980</in>
                        <out>53370</out>
                        <file id="IMG_0498.MOV 2"/>
                        <compositemode>normal</compositemode>
                        <filter>
                            <enabled>true</enabled>
                            <start>0</start>
                            <end>94362</end>
                            <effect>
                                <name>Opacity</name>
                                <effectid>opacity</effectid>
                                <effecttype>motion</effecttype>
                                <mediatype>video</mediatype>
                                <effectcategory>motion</effectcategory>
                                <parameter>
                                    <name>opacity</name>
                                    <parameterid>opacity</parameterid>
                                    <value>100</value>
                                    <valuemin>0</valuemin>
                                    <valuemax>100</valuemax>
                                </parameter>
                            </effect>
                        </filter>
                        <filter>
                            <enabled>true</enabled>
                            <start>0</start>
                            <end>94362</end>
                            <effect>
                                <name>Basic Motion</name>
                                <effectid>basic</effectid>
                                <effecttype>motion</effecttype>
                                <mediatype>video</mediatype>
                                <effectcategory>motion</effectcategory>
                                <parameter>
                                    <name>Scale</name>
                                    <parameterid>scale</parameterid>
                                    <value>200</value>
                                    <valuemin>25</valuemin>
                                    <valuemax>400</valuemax>
                                </parameter>
                                <parameter>
                                    <name>Center</name>
                                    <parameterid>center</parameterid>
                                    <value>
                                        <horiz>-0.0499999932944775</horiz>
                                        <vert>0.330555528402328</vert>
                                    </value>
                                    <keyframe>
                                        <when>53259</when>
                                        <value>
                                            <horiz>-0.0499999932944775</horiz>
                                            <vert>0.330555528402328</vert>
                                        </value>
                                    </keyframe>
                                    <keyframe>
                                        <when>53318</when>
                                        <value>
                                            <horiz>-0.406770884990692</horiz>
                                            <vert>0.330555528402328</vert>
                                        </value>
                                    </keyframe>
                                </parameter>
                                <parameter>
                                    <name>Rotation</name>
                                    <parameterid>rotation</parameterid>
                                    <value>-3.00781</value>
                                    <valuemin>-100000</valuemin>
                                    <valuemax>100000</valuemax>
                                </parameter>
                                <parameter>
                                    <name>Anchor Point</name>
                                    <parameterid>centerOffset</parameterid>
                                    <value>
                                        <horiz>0</horiz>
                                        <vert>0</vert>
                                    </value>
                                </parameter>
                            </effect>
                        </filter>
                        <filter>
                            <enabled>true</enabled>
                            <start>0</start>
                            <end>94362</end>
                            <effect>
                                <name>Crop</name>
                                <effectid>crop</effectid>
                                <effecttype>motion</effecttype>
                                <mediatype>video</mediatype>
                                <effectcategory>motion</effectcategory>
                                <parameter>
                                    <name>left</name>
                                    <parameterid>left</parameterid>
                                    <value>0</value>
                                    <valuemin>0</valuemin>
                                    <valuemax>100</valuemax>
                                </parameter>
                                <parameter>
                                    <name>right</name>
                                    <parameterid>right</parameterid>
                                    <value>0</value>
                                    <valuemin>0</valuemin>
                                    <valuemax>100</valuemax>
                                </parameter>
                                <parameter>
                                    <name>top</name>
                                    <parameterid>top</parameterid>
                                    <value>0</value>
                                    <valuemin>0</valuemin>
                                    <valuemax>100</valuemax>
                                </parameter>
                                <parameter>
                                    <name>bottom</name>
                                    <parameterid>bottom</parameterid>
                                    <value>0</value>
                                    <valuemin>0</valuemin>
                                    <valuemax>100</valuemax>
                                </parameter>
                            </effect>
                        </filter>
                        <link>
                            <linkclipref>IMG_0498.MOV 91</linkclipref>
                        </link>
                        <link>
                            <linkclipref>IMG_0498.MOV 142</linkclipref>
                        </link>
                    </clipitem>
                    <clipitem id="IMG_0498.MOV 93">
                        <name>IMG_0498.MOV</name>
                        <duration>94362</duration>
                        <rate>
                            <timebase>25</timebase>
                            <ntsc>false</ntsc>
                        </rate>
                        <start>69454</start>
                        <end>69910</end>
                        <enabled>true</enabled>
                        <in>68565</in>
                        <out>69021</out>
                        <file id="IMG_0498.MOV 2"/>
                        <compositemode>normal</compositemode>
                        <filter>
                            <enabled>true</enabled>
                            <start>0</start>
                            <end>94362</end>
                            <effect>
                                <name>Opacity</name>
                                <effectid>opacity</effectid>
                                <effecttype>motion</effecttype>
                                <mediatype>video</mediatype>
                                <effectcategory>motion</effectcategory>
                                <parameter>
                                    <name>opacity</name>
                                    <parameterid>opacity</parameterid>
                                    <value>100</value>
                                    <valuemin>0</valuemin>
                                    <valuemax>100</valuemax>
                                </parameter>
                            </effect>
                        </filter>
                        <filter>
                            <enabled>true</enabled>
                            <start>0</start>
                            <end>94362</end>
                            <effect>
                                <name>Basic Motion</name>
                                <effectid>basic</effectid>
                                <effecttype>motion</effecttype>
                                <mediatype>video</mediatype>
                                <effectcategory>motion</effectcategory>
                                <parameter>
                                    <name>Scale</name>
                                    <parameterid>scale</parameterid>
                                    <value>198</value>
                                    <valuemin>25</valuemin>
                                    <valuemax>400</valuemax>
                                </parameter>
                                <parameter>
                                    <name>Center</name>
                                    <parameterid>center</parameterid>
                                    <value>
                                        <horiz>-0.226041585206985</horiz>
                                        <vert>0.327777832746506</vert>
                                    </value>
                                </parameter>
                                <parameter>
                                    <name>Rotation</name>
                                    <parameterid>rotation</parameterid>
                                    <value>-3.00781</value>
                                    <valuemin>-100000</valuemin>
                                    <valuemax>100000</valuemax>
                                </parameter>
                                <parameter>
                                    <name>Anchor Point</name>
                                    <parameterid>centerOffset</parameterid>
                                    <value>
                                        <horiz>0</horiz>
                                        <vert>0</vert>
                                    </value>
                                </parameter>
                            </effect>
                        </filter>
                        <filter>
                            <enabled>true</enabled>
                            <start>0</start>
                            <end>94362</end>
                            <effect>
                                <name>Crop</name>
                                <effectid>crop</effectid>
                                <effecttype>motion</effecttype>
                                <mediatype>video</mediatype>
                                <effectcategory>motion</effectcategory>
                                <parameter>
                                    <name>left</name>
                                    <parameterid>left</parameterid>
                                    <value>0</value>
                                    <valuemin>0</valuemin>
                                    <valuemax>100</valuemax>
                                </parameter>
                                <parameter>
                                    <name>right</name>
                                    <parameterid>right</parameterid>
                                    <value>0</value>
                                    <valuemin>0</valuemin>
                                    <valuemax>100</valuemax>
                                </parameter>
                                <parameter>
                                    <name>top</name>
                                    <parameterid>top</parameterid>
                                    <value>0</value>
                                    <valuemin>0</valuemin>
                                    <valuemax>100</valuemax>
                                </parameter>
                                <parameter>
                                    <name>bottom</name>
                                    <parameterid>bottom</parameterid>
                                    <value>0</value>
                                    <valuemin>0</valuemin>
                                    <valuemax>100</valuemax>
                                </parameter>
                            </effect>
                        </filter>
                        <link>
                            <linkclipref>IMG_0498.MOV 93</linkclipref>
                        </link>
                        <link>
                            <linkclipref>IMG_0498.MOV 143</linkclipref>
                        </link>
                    </clipitem>
                    <clipitem id="IMG_0498.MOV 95">
                        <name>IMG_0498.MOV</name>
                        <duration>94362</duration>
                        <rate>
                            <timebase>25</timebase>
                            <ntsc>false</ntsc>
                        </rate>
                        <start>70296</start>
                        <end>70554</end>
                        <enabled>true</enabled>
                        <in>69542</in>
                        <out>69800</out>
                        <file id="IMG_0498.MOV 2"/>
                        <compositemode>normal</compositemode>
                        <filter>
                            <enabled>true</enabled>
                            <start>0</start>
                            <end>94362</end>
                            <effect>
                                <name>Opacity</name>
                                <effectid>opacity</effectid>
                                <effecttype>motion</effecttype>
                                <mediatype>video</mediatype>
                                <effectcategory>motion</effectcategory>
                                <parameter>
                                    <name>opacity</name>
                                    <parameterid>opacity</parameterid>
                                    <value>100</value>
                                    <valuemin>0</valuemin>
                                    <valuemax>100</valuemax>
                                </parameter>
                            </effect>
                        </filter>
                        <filter>
                            <enabled>true</enabled>
                            <start>0</start>
                            <end>94362</end>
                            <effect>
                                <name>Basic Motion</name>
                                <effectid>basic</effectid>
                                <effecttype>motion</effecttype>
                                <mediatype>video</mediatype>
                                <effectcategory>motion</effectcategory>
                                <parameter>
                                    <name>Scale</name>
                                    <parameterid>scale</parameterid>
                                    <value>198</value>
                                    <valuemin>25</valuemin>
                                    <valuemax>400</valuemax>
                                </parameter>
                                <parameter>
                                    <name>Center</name>
                                    <parameterid>center</parameterid>
                                    <value>
                                        <horiz>0.152604192495346</horiz>
                                        <vert>0.327777832746506</vert>
                                    </value>
                                </parameter>
                                <parameter>
                                    <name>Rotation</name>
                                    <parameterid>rotation</parameterid>
                                    <value>-3.00781</value>
                                    <valuemin>-100000</valuemin>
                                    <valuemax>100000</valuemax>
                                </parameter>
                                <parameter>
                                    <name>Anchor Point</name>
                                    <parameterid>centerOffset</parameterid>
                                    <value>
                                        <horiz>0</horiz>
                                        <vert>0</vert>
                                    </value>
                                </parameter>
                            </effect>
                        </filter>
                        <filter>
                            <enabled>true</enabled>
                            <start>0</start>
                            <end>94362</end>
                            <effect>
                                <name>Crop</name>
                                <effectid>crop</effectid>
                                <effecttype>motion</effecttype>
                                <mediatype>video</mediatype>
                                <effectcategory>motion</effectcategory>
                                <parameter>
                                    <name>left</name>
                                    <parameterid>left</parameterid>
                                    <value>0</value>
                                    <valuemin>0</valuemin>
                                    <valuemax>100</valuemax>
                                </parameter>
                                <parameter>
                                    <name>right</name>
                                    <parameterid>right</parameterid>
                                    <value>0</value>
                                    <valuemin>0</valuemin>
                                    <valuemax>100</valuemax>
                                </parameter>
                                <parameter>
                                    <name>top</name>
                                    <parameterid>top</parameterid>
                                    <value>0</value>
                                    <valuemin>0</valuemin>
                                    <valuemax>100</valuemax>
                                </parameter>
                                <parameter>
                                    <name>bottom</name>
                                    <parameterid>bottom</parameterid>
                                    <value>0</value>
                                    <valuemin>0</valuemin>
                                    <valuemax>100</valuemax>
                                </parameter>
                            </effect>
                        </filter>
                        <link>
                            <linkclipref>IMG_0498.MOV 95</linkclipref>
                        </link>
                        <link>
                            <linkclipref>IMG_0498.MOV 144</linkclipref>
                        </link>
                    </clipitem>
                    <clipitem id="Logo Wide.jpg 3">
                        <name>Logo Wide.jpg</name>
                        <duration>1500001</duration>
                        <rate>
                            <timebase>25</timebase>
                            <ntsc>false</ntsc>
                        </rate>
                        <start>113054</start>
                        <end>113399</end>
                        <enabled>true</enabled>
                        <in>89780</in>
                        <out>90125</out>
                        <file id="Logo Wide.jpg 2"/>
                        <compositemode>multiply</compositemode>
                        <filter>
                            <enabled>true</enabled>
                            <start>0</start>
                            <end>1500001</end>
                            <effect>
                                <name>Opacity</name>
                                <effectid>opacity</effectid>
                                <effecttype>motion</effecttype>
                                <mediatype>video</mediatype>
                                <effectcategory>motion</effectcategory>
                                <parameter>
                                    <name>opacity</name>
                                    <parameterid>opacity</parameterid>
                                    <value>100</value>
                                    <valuemin>0</valuemin>
                                    <valuemax>100</valuemax>
                                </parameter>
                            </effect>
                        </filter>
                        <filter>
                            <enabled>true</enabled>
                            <start>0</start>
                            <end>1500001</end>
                            <effect>
                                <name>Basic Motion</name>
                                <effectid>basic</effectid>
                                <effecttype>motion</effecttype>
                                <mediatype>video</mediatype>
                                <effectcategory>motion</effectcategory>
                                <parameter>
                                    <name>Scale</name>
                                    <parameterid>scale</parameterid>
                                    <value>78</value>
                                    <valuemin>25</valuemin>
                                    <valuemax>400</valuemax>
                                </parameter>
                                <parameter>
                                    <name>Center</name>
                                    <parameterid>center</parameterid>
                                    <value>
                                        <horiz>0</horiz>
                                        <vert>0</vert>
                                    </value>
                                </parameter>
                                <parameter>
                                    <name>Rotation</name>
                                    <parameterid>rotation</parameterid>
                                    <value>0</value>
                                    <valuemin>-100000</valuemin>
                                    <valuemax>100000</valuemax>
                                </parameter>
                                <parameter>
                                    <name>Anchor Point</name>
                                    <parameterid>centerOffset</parameterid>
                                    <value>
                                        <horiz>0</horiz>
                                        <vert>0</vert>
                                    </value>
                                </parameter>
                            </effect>
                        </filter>
                        <filter>
                            <enabled>true</enabled>
                            <start>0</start>
                            <end>1500001</end>
                            <effect>
                                <name>Crop</name>
                                <effectid>crop</effectid>
                                <effecttype>motion</effecttype>
                                <mediatype>video</mediatype>
                                <effectcategory>motion</effectcategory>
                                <parameter>
                                    <name>left</name>
                                    <parameterid>left</parameterid>
                                    <value>0</value>
                                    <valuemin>0</valuemin>
                                    <valuemax>100</valuemax>
                                </parameter>
                                <parameter>
                                    <name>right</name>
                                    <parameterid>right</parameterid>
                                    <value>0</value>
                                    <valuemin>0</valuemin>
                                    <valuemax>100</valuemax>
                                </parameter>
                                <parameter>
                                    <name>top</name>
                                    <parameterid>top</parameterid>
                                    <value>0</value>
                                    <valuemin>0</valuemin>
                                    <valuemax>100</valuemax>
                                </parameter>
                                <parameter>
                                    <name>bottom</name>
                                    <parameterid>bottom</parameterid>
                                    <value>0</value>
                                    <valuemin>0</valuemin>
                                    <valuemax>100</valuemax>
                                </parameter>
                            </effect>
                        </filter>
                        <filter>
                            <enabled>true</enabled>
                            <start>-1</start>
                            <end>-1</end>
                            <effect>
                                <name>Time Remap</name>
                                <effectid>timeremap</effectid>
                                <effecttype>motion</effecttype>
                                <mediatype>video</mediatype>
                                <effectcategory>motion</effectcategory>
                                <parameter>
                                    <name>speed</name>
                                    <parameterid>speed</parameterid>
                                    <value>0</value>
                                    <valuemin>-10000</valuemin>
                                    <valuemax>10000</valuemax>
                                </parameter>
                                <parameter>
                                    <name>reverse</name>
                                    <parameterid>reverse</parameterid>
                                    <value>false</value>
                                </parameter>
                                <parameter>
                                    <name>frameblending</name>
                                    <parameterid>frameblending</parameterid>
                                    <value>false</value>
                                </parameter>
                                <parameter>
                                    <name>variablespeed</name>
                                    <parameterid>variablespeed</parameterid>
                                    <value>0</value>
                                    <valuemin>0</valuemin>
                                    <valuemax>1</valuemax>
                                </parameter>
                                <parameter>
                                    <name>graphdict</name>
                                    <parameterid>graphdict</parameterid>
                                    <keyframe>
                                        <when>0</when>
                                        <value>0</value>
                                        <speedvirtualkf>true</speedvirtualkf>
                                        <speedkfstart>true</speedkfstart>
                                    </keyframe>
                                    <keyframe>
                                        <when>89780</when>
                                        <value>0</value>
                                        <speedvirtualkf>true</speedvirtualkf>
                                        <speedkfin>true</speedkfin>
                                    </keyframe>
                                    <keyframe>
                                        <when>90125</when>
                                        <value>0</value>
                                        <speedvirtualkf>true</speedvirtualkf>
                                        <speedkfout>true</speedkfout>
                                    </keyframe>
                                    <keyframe>
                                        <when>1500001</when>
                                        <value>1</value>
                                        <speedvirtualkf>true</speedvirtualkf>
                                        <speedkfend>true</speedkfend>
                                    </keyframe>
                                    <valuemin>0</valuemin>
                                    <valuemax>0</valuemax>
                                    <interpolation>
                                        <name>FCPCurve</name>
                                    </interpolation>
                                </parameter>
                            </effect>
                        </filter>
                    </clipitem>
                    <enabled>true</enabled>
                    <locked>false</locked>
                </track>
                <track>
                    <clipitem id="Samstag Morgen Multi 269">
                        <name>Samstag Morgen Multi</name>
                        <duration>115210</duration>
                        <rate>
                            <timebase>25</timebase>
                            <ntsc>false</ntsc>
                        </rate>
                        <start>4081</start>
                        <end>5575</end>
                        <enabled>true</enabled>
                        <in>4081</in>
                        <out>5575</out>
                        <file id="Samstag Morgen Multi 271">
                            <duration>115210</duration>
                            <rate>
                                <timebase>25</timebase>
                                <ntsc>false</ntsc>
                            </rate>
                            <name>Samstag Morgen Multi</name>
                            <pathurl>file:///Volumes/ProjectsRaid/WorkingProjects/kita/kita-2016_002-kleines_gespenst/videos/export/V3-0001_Samstag%20Morgen%20Multi.mxf</pathurl>
                            <timecode>
                                <string>01:00:00:00</string>
                                <displayformat>NDF</displayformat>
                                <rate>
                                    <timebase>25</timebase>
                                    <ntsc>false</ntsc>
                                </rate>
                            </timecode>
                            <media>
                                <video>
                                    <duration>115210</duration>
                                    <samplecharacteristics>
                                        <width>1920</width>
                                        <height>1080</height>
                                    </samplecharacteristics>
                                </video>
                                <audio>
                                    <channelcount>2</channelcount>
                                </audio>
                            </media>
                        </file>
                        <compositemode>normal</compositemode>
                        <filter>
                            <enabled>true</enabled>
                            <start>0</start>
                            <end>115210</end>
                            <effect>
                                <name>Opacity</name>
                                <effectid>opacity</effectid>
                                <effecttype>motion</effecttype>
                                <mediatype>video</mediatype>
                                <effectcategory>motion</effectcategory>
                                <parameter>
                                    <name>opacity</name>
                                    <parameterid>opacity</parameterid>
                                    <value>100</value>
                                    <keyframe>
                                        <when>4106</when>
                                        <value>0</value>
                                    </keyframe>
                                    <keyframe>
                                        <when>4140</when>
                                        <value>100</value>
                                    </keyframe>
                                    <valuemin>0</valuemin>
                                    <valuemax>100</valuemax>
                                </parameter>
                            </effect>
                        </filter>
                        <filter>
                            <enabled>true</enabled>
                            <start>0</start>
                            <end>115210</end>
                            <effect>
                                <name>Basic Motion</name>
                                <effectid>basic</effectid>
                                <effecttype>motion</effecttype>
                                <mediatype>video</mediatype>
                                <effectcategory>motion</effectcategory>
                                <parameter>
                                    <name>Scale</name>
                                    <parameterid>scale</parameterid>
                                    <value>100</value>
                                    <valuemin>25</valuemin>
                                    <valuemax>400</valuemax>
                                </parameter>
                                <parameter>
                                    <name>Center</name>
                                    <parameterid>center</parameterid>
                                    <value>
                                        <horiz>0</horiz>
                                        <vert>0</vert>
                                    </value>
                                </parameter>
                                <parameter>
                                    <name>Rotation</name>
                                    <parameterid>rotation</parameterid>
                                    <value>0</value>
                                    <valuemin>-100000</valuemin>
                                    <valuemax>100000</valuemax>
                                </parameter>
                                <parameter>
                                    <name>Anchor Point</name>
                                    <parameterid>centerOffset</parameterid>
                                    <value>
                                        <horiz>0</horiz>
                                        <vert>0</vert>
                                    </value>
                                </parameter>
                            </effect>
                        </filter>
                        <filter>
                            <enabled>true</enabled>
                            <start>0</start>
                            <end>115210</end>
                            <effect>
                                <name>Crop</name>
                                <effectid>crop</effectid>
                                <effecttype>motion</effecttype>
                                <mediatype>video</mediatype>
                                <effectcategory>motion</effectcategory>
                                <parameter>
                                    <name>left</name>
                                    <parameterid>left</parameterid>
                                    <value>0</value>
                                    <valuemin>0</valuemin>
                                    <valuemax>100</valuemax>
                                </parameter>
                                <parameter>
                                    <name>right</name>
                                    <parameterid>right</parameterid>
                                    <value>0</value>
                                    <valuemin>0</valuemin>
                                    <valuemax>100</valuemax>
                                </parameter>
                                <parameter>
                                    <name>top</name>
                                    <parameterid>top</parameterid>
                                    <value>0</value>
                                    <valuemin>0</valuemin>
                                    <valuemax>100</valuemax>
                                </parameter>
                                <parameter>
                                    <name>bottom</name>
                                    <parameterid>bottom</parameterid>
                                    <value>0</value>
                                    <valuemin>0</valuemin>
                                    <valuemax>100</valuemax>
                                </parameter>
                            </effect>
                        </filter>
                    </clipitem>
                    <clipitem id="2016-04-29 09_58_12.mov 0">
                        <name>2016-04-29 09_58_12.mov</name>
                        <duration>52858</duration>
                        <rate>
                            <timebase>25</timebase>
                            <ntsc>false</ntsc>
                        </rate>
                        <start>19877</start>
                        <end>20727</end>
                        <enabled>true</enabled>
                        <in>17284</in>
                        <out>18134</out>
                        <file id="2016-04-29 09_58_12.mov 2">
                            <duration>52858</duration>
                            <rate>
                                <timebase>25</timebase>
                                <ntsc>false</ntsc>
                            </rate>
                            <name>2016-04-29 09_58_12.mov</name>
                            <pathurl>file:///Volumes/ProjectsRaid/WorkingProjects/kita/kita-2016_002-kleines_gespenst/videos/dvcam/2016-04-29%2009_58_12.mov</pathurl>
                            <timecode>
                                <string>00:00:01:19</string>
                                <displayformat>NDF</displayformat>
                                <rate>
                                    <timebase>25</timebase>
                                    <ntsc>false</ntsc>
                                </rate>
                            </timecode>
                            <media>
                                <video>
                                    <duration>52858</duration>
                                    <samplecharacteristics>
                                        <width>1920</width>
                                        <height>1080</height>
                                    </samplecharacteristics>
                                </video>
                                <audio>
                                    <channelcount>2</channelcount>
                                </audio>
                            </media>
                        </file>
                        <compositemode>normal</compositemode>
                        <filter>
                            <enabled>true</enabled>
                            <start>0</start>
                            <end>52858</end>
                            <effect>
                                <name>Opacity</name>
                                <effectid>opacity</effectid>
                                <effecttype>motion</effecttype>
                                <mediatype>video</mediatype>
                                <effectcategory>motion</effectcategory>
                                <parameter>
                                    <name>opacity</name>
                                    <parameterid>opacity</parameterid>
                                    <value>100</value>
                                    <valuemin>0</valuemin>
                                    <valuemax>100</valuemax>
                                </parameter>
                            </effect>
                        </filter>
                        <filter>
                            <enabled>true</enabled>
                            <start>0</start>
                            <end>52858</end>
                            <effect>
                                <name>Basic Motion</name>
                                <effectid>basic</effectid>
                                <effecttype>motion</effecttype>
                                <mediatype>video</mediatype>
                                <effectcategory>motion</effectcategory>
                                <parameter>
                                    <name>Scale</name>
                                    <parameterid>scale</parameterid>
                                    <value>100</value>
                                    <valuemin>25</valuemin>
                                    <valuemax>400</valuemax>
                                </parameter>
                                <parameter>
                                    <name>Center</name>
                                    <parameterid>center</parameterid>
                                    <value>
                                        <horiz>0</horiz>
                                        <vert>0</vert>
                                    </value>
                                </parameter>
                                <parameter>
                                    <name>Rotation</name>
                                    <parameterid>rotation</parameterid>
                                    <value>0</value>
                                    <valuemin>-100000</valuemin>
                                    <valuemax>100000</valuemax>
                                </parameter>
                                <parameter>
                                    <name>Anchor Point</name>
                                    <parameterid>centerOffset</parameterid>
                                    <value>
                                        <horiz>0</horiz>
                                        <vert>0</vert>
                                    </value>
                                </parameter>
                            </effect>
                        </filter>
                        <filter>
                            <enabled>true</enabled>
                            <start>0</start>
                            <end>52858</end>
                            <effect>
                                <name>Crop</name>
                                <effectid>crop</effectid>
                                <effecttype>motion</effecttype>
                                <mediatype>video</mediatype>
                                <effectcategory>motion</effectcategory>
                                <parameter>
                                    <name>left</name>
                                    <parameterid>left</parameterid>
                                    <value>0</value>
                                    <valuemin>0</valuemin>
                                    <valuemax>100</valuemax>
                                </parameter>
                                <parameter>
                                    <name>right</name>
                                    <parameterid>right</parameterid>
                                    <value>0</value>
                                    <valuemin>0</valuemin>
                                    <valuemax>100</valuemax>
                                </parameter>
                                <parameter>
                                    <name>top</name>
                                    <parameterid>top</parameterid>
                                    <value>0</value>
                                    <valuemin>0</valuemin>
                                    <valuemax>100</valuemax>
                                </parameter>
                                <parameter>
                                    <name>bottom</name>
                                    <parameterid>bottom</parameterid>
                                    <value>0</value>
                                    <valuemin>0</valuemin>
                                    <valuemax>100</valuemax>
                                </parameter>
                            </effect>
                        </filter>
                        <link>
                            <linkclipref>2016-04-29 09_58_12.mov 0</linkclipref>
                        </link>
                        <link>
                            <linkclipref>2016-04-29 09_58_12.mov 25</linkclipref>
                        </link>
                        <link>
                            <linkclipref>2016-04-29 09_58_12.mov 37</linkclipref>
                        </link>
                        <link>
                            <linkclipref>2016-04-29 09_58_12.mov 49</linkclipref>
                        </link>
                        <link>
                            <linkclipref>2016-04-29 09_58_12.mov 61</linkclipref>
                        </link>
                    </clipitem>
                    <clipitem id="2016-04-29 09_58_12.mov 3">
                        <name>2016-04-29 09_58_12.mov</name>
                        <duration>52858</duration>
                        <rate>
                            <timebase>25</timebase>
                            <ntsc>false</ntsc>
                        </rate>
                        <start>21013</start>
                        <end>21343</end>
                        <enabled>true</enabled>
                        <in>18420</in>
                        <out>18750</out>
                        <file id="2016-04-29 09_58_12.mov 2"/>
                        <compositemode>normal</compositemode>
                        <filter>
                            <enabled>true</enabled>
                            <start>0</start>
                            <end>52858</end>
                            <effect>
                                <name>Opacity</name>
                                <effectid>opacity</effectid>
                                <effecttype>motion</effecttype>
                                <mediatype>video</mediatype>
                                <effectcategory>motion</effectcategory>
                                <parameter>
                                    <name>opacity</name>
                                    <parameterid>opacity</parameterid>
                                    <value>100</value>
                                    <valuemin>0</valuemin>
                                    <valuemax>100</valuemax>
                                </parameter>
                            </effect>
                        </filter>
                        <filter>
                            <enabled>true</enabled>
                            <start>0</start>
                            <end>52858</end>
                            <effect>
                                <name>Basic Motion</name>
                                <effectid>basic</effectid>
                                <effecttype>motion</effecttype>
                                <mediatype>video</mediatype>
                                <effectcategory>motion</effectcategory>
                                <parameter>
                                    <name>Scale</name>
                                    <parameterid>scale</parameterid>
                                    <value>100</value>
                                    <valuemin>25</valuemin>
                                    <valuemax>400</valuemax>
                                </parameter>
                                <parameter>
                                    <name>Center</name>
                                    <parameterid>center</parameterid>
                                    <value>
                                        <horiz>0</horiz>
                                        <vert>0</vert>
                                    </value>
                                </parameter>
                                <parameter>
                                    <name>Rotation</name>
                                    <parameterid>rotation</parameterid>
                                    <value>0</value>
                                    <valuemin>-100000</valuemin>
                                    <valuemax>100000</valuemax>
                                </parameter>
                                <parameter>
                                    <name>Anchor Point</name>
                                    <parameterid>centerOffset</parameterid>
                                    <value>
                                        <horiz>0</horiz>
                                        <vert>0</vert>
                                    </value>
                                </parameter>
                            </effect>
                        </filter>
                        <filter>
                            <enabled>true</enabled>
                            <start>0</start>
                            <end>52858</end>
                            <effect>
                                <name>Crop</name>
                                <effectid>crop</effectid>
                                <effecttype>motion</effecttype>
                                <mediatype>video</mediatype>
                                <effectcategory>motion</effectcategory>
                                <parameter>
                                    <name>left</name>
                                    <parameterid>left</parameterid>
                                    <value>0</value>
                                    <valuemin>0</valuemin>
                                    <valuemax>100</valuemax>
                                </parameter>
                                <parameter>
                                    <name>right</name>
                                    <parameterid>right</parameterid>
                                    <value>0</value>
                                    <valuemin>0</valuemin>
                                    <valuemax>100</valuemax>
                                </parameter>
                                <parameter>
                                    <name>top</name>
                                    <parameterid>top</parameterid>
                                    <value>0</value>
                                    <valuemin>0</valuemin>
                                    <valuemax>100</valuemax>
                                </parameter>
                                <parameter>
                                    <name>bottom</name>
                                    <parameterid>bottom</parameterid>
                                    <value>0</value>
                                    <valuemin>0</valuemin>
                                    <valuemax>100</valuemax>
                                </parameter>
                            </effect>
                        </filter>
                        <link>
                            <linkclipref>2016-04-29 09_58_12.mov 3</linkclipref>
                        </link>
                        <link>
                            <linkclipref>2016-04-29 09_58_12.mov 26</linkclipref>
                        </link>
                        <link>
                            <linkclipref>2016-04-29 09_58_12.mov 38</linkclipref>
                        </link>
                        <link>
                            <linkclipref>2016-04-29 09_58_12.mov 50</linkclipref>
                        </link>
                        <link>
                            <linkclipref>2016-04-29 09_58_12.mov 62</linkclipref>
                        </link>
                    </clipitem>
                    <clipitem id="2016-04-29 09_58_12.mov 5">
                        <name>2016-04-29 09_58_12.mov</name>
                        <duration>52858</duration>
                        <rate>
                            <timebase>25</timebase>
                            <ntsc>false</ntsc>
                        </rate>
                        <start>22304</start>
                        <end>22519</end>
                        <enabled>true</enabled>
                        <in>19790</in>
                        <out>20005</out>
                        <file id="2016-04-29 09_58_12.mov 2"/>
                        <compositemode>normal</compositemode>
                        <filter>
                            <enabled>true</enabled>
                            <start>0</start>
                            <end>52858</end>
                            <effect>
                                <name>Opacity</name>
                                <effectid>opacity</effectid>
                                <effecttype>motion</effecttype>
                                <mediatype>video</mediatype>
                                <effectcategory>motion</effectcategory>
                                <parameter>
                                    <name>opacity</name>
                                    <parameterid>opacity</parameterid>
                                    <value>100</value>
                                    <valuemin>0</valuemin>
                                    <valuemax>100</valuemax>
                                </parameter>
                            </effect>
                        </filter>
                        <filter>
                            <enabled>true</enabled>
                            <start>0</start>
                            <end>52858</end>
                            <effect>
                                <name>Basic Motion</name>
                                <effectid>basic</effectid>
                                <effecttype>motion</effecttype>
                                <mediatype>video</mediatype>
                                <effectcategory>motion</effectcategory>
                                <parameter>
                                    <name>Scale</name>
                                    <parameterid>scale</parameterid>
                                    <value>100</value>
                                    <valuemin>25</valuemin>
                                    <valuemax>400</valuemax>
                                </parameter>
                                <parameter>
                                    <name>Center</name>
                                    <parameterid>center</parameterid>
                                    <value>
                                        <horiz>0</horiz>
                                        <vert>0</vert>
                                    </value>
                                </parameter>
                                <parameter>
                                    <name>Rotation</name>
                                    <parameterid>rotation</parameterid>
                                    <value>0</value>
                                    <valuemin>-100000</valuemin>
                                    <valuemax>100000</valuemax>
                                </parameter>
                                <parameter>
                                    <name>Anchor Point</name>
                                    <parameterid>centerOffset</parameterid>
                                    <value>
                                        <horiz>0</horiz>
                                        <vert>0</vert>
                                    </value>
                                </parameter>
                            </effect>
                        </filter>
                        <filter>
                            <enabled>true</enabled>
                            <start>0</start>
                            <end>52858</end>
                            <effect>
                                <name>Crop</name>
                                <effectid>crop</effectid>
                                <effecttype>motion</effecttype>
                                <mediatype>video</mediatype>
                                <effectcategory>motion</effectcategory>
                                <parameter>
                                    <name>left</name>
                                    <parameterid>left</parameterid>
                                    <value>0</value>
                                    <valuemin>0</valuemin>
                                    <valuemax>100</valuemax>
                                </parameter>
                                <parameter>
                                    <name>right</name>
                                    <parameterid>right</parameterid>
                                    <value>0</value>
                                    <valuemin>0</valuemin>
                                    <valuemax>100</valuemax>
                                </parameter>
                                <parameter>
                                    <name>top</name>
                                    <parameterid>top</parameterid>
                                    <value>0</value>
                                    <valuemin>0</valuemin>
                                    <valuemax>100</valuemax>
                                </parameter>
                                <parameter>
                                    <name>bottom</name>
                                    <parameterid>bottom</parameterid>
                                    <value>0</value>
                                    <valuemin>0</valuemin>
                                    <valuemax>100</valuemax>
                                </parameter>
                            </effect>
                        </filter>
                        <link>
                            <linkclipref>2016-04-29 09_58_12.mov 5</linkclipref>
                        </link>
                        <link>
                            <linkclipref>2016-04-29 09_58_12.mov 27</linkclipref>
                        </link>
                        <link>
                            <linkclipref>2016-04-29 09_58_12.mov 39</linkclipref>
                        </link>
                        <link>
                            <linkclipref>2016-04-29 09_58_12.mov 51</linkclipref>
                        </link>
                        <link>
                            <linkclipref>2016-04-29 09_58_12.mov 63</linkclipref>
                        </link>
                    </clipitem>
                    <clipitem id="2016-04-29 09_58_12.mov 7">
                        <name>2016-04-29 09_58_12.mov</name>
                        <duration>52858</duration>
                        <rate>
                            <timebase>25</timebase>
                            <ntsc>false</ntsc>
                        </rate>
                        <start>22961</start>
                        <end>23292</end>
                        <enabled>true</enabled>
                        <in>20684</in>
                        <out>21015</out>
                        <file id="2016-04-29 09_58_12.mov 2"/>
                        <compositemode>normal</compositemode>
                        <filter>
                            <enabled>true</enabled>
                            <start>0</start>
                            <end>52858</end>
                            <effect>
                                <name>Opacity</name>
                                <effectid>opacity</effectid>
                                <effecttype>motion</effecttype>
                                <mediatype>video</mediatype>
                                <effectcategory>motion</effectcategory>
                                <parameter>
                                    <name>opacity</name>
                                    <parameterid>opacity</parameterid>
                                    <value>100</value>
                                    <valuemin>0</valuemin>
                                    <valuemax>100</valuemax>
                                </parameter>
                            </effect>
                        </filter>
                        <filter>
                            <enabled>true</enabled>
                            <start>0</start>
                            <end>52858</end>
                            <effect>
                                <name>Basic Motion</name>
                                <effectid>basic</effectid>
                                <effecttype>motion</effecttype>
                                <mediatype>video</mediatype>
                                <effectcategory>motion</effectcategory>
                                <parameter>
                                    <name>Scale</name>
                                    <parameterid>scale</parameterid>
                                    <value>100</value>
                                    <valuemin>25</valuemin>
                                    <valuemax>400</valuemax>
                                </parameter>
                                <parameter>
                                    <name>Center</name>
                                    <parameterid>center</parameterid>
                                    <value>
                                        <horiz>0</horiz>
                                        <vert>0</vert>
                                    </value>
                                </parameter>
                                <parameter>
                                    <name>Rotation</name>
                                    <parameterid>rotation</parameterid>
                                    <value>0</value>
                                    <valuemin>-100000</valuemin>
                                    <valuemax>100000</valuemax>
                                </parameter>
                                <parameter>
                                    <name>Anchor Point</name>
                                    <parameterid>centerOffset</parameterid>
                                    <value>
                                        <horiz>0</horiz>
                                        <vert>0</vert>
                                    </value>
                                </parameter>
                            </effect>
                        </filter>
                        <filter>
                            <enabled>true</enabled>
                            <start>0</start>
                            <end>52858</end>
                            <effect>
                                <name>Crop</name>
                                <effectid>crop</effectid>
                                <effecttype>motion</effecttype>
                                <mediatype>video</mediatype>
                                <effectcategory>motion</effectcategory>
                                <parameter>
                                    <name>left</name>
                                    <parameterid>left</parameterid>
                                    <value>0</value>
                                    <valuemin>0</valuemin>
                                    <valuemax>100</valuemax>
                                </parameter>
                                <parameter>
                                    <name>right</name>
                                    <parameterid>right</parameterid>
                                    <value>0</value>
                                    <valuemin>0</valuemin>
                                    <valuemax>100</valuemax>
                                </parameter>
                                <parameter>
                                    <name>top</name>
                                    <parameterid>top</parameterid>
                                    <value>0</value>
                                    <valuemin>0</valuemin>
                                    <valuemax>100</valuemax>
                                </parameter>
                                <parameter>
                                    <name>bottom</name>
                                    <parameterid>bottom</parameterid>
                                    <value>0</value>
                                    <valuemin>0</valuemin>
                                    <valuemax>100</valuemax>
                                </parameter>
                            </effect>
                        </filter>
                        <link>
                            <linkclipref>2016-04-29 09_58_12.mov 7</linkclipref>
                        </link>
                        <link>
                            <linkclipref>2016-04-29 09_58_12.mov 28</linkclipref>
                        </link>
                        <link>
                            <linkclipref>2016-04-29 09_58_12.mov 40</linkclipref>
                        </link>
                        <link>
                            <linkclipref>2016-04-29 09_58_12.mov 52</linkclipref>
                        </link>
                        <link>
                            <linkclipref>2016-04-29 09_58_12.mov 64</linkclipref>
                        </link>
                    </clipitem>
                    <clipitem id="2016-04-29 09_58_12.mov 9">
                        <name>2016-04-29 09_58_12.mov</name>
                        <duration>52858</duration>
                        <rate>
                            <timebase>25</timebase>
                            <ntsc>false</ntsc>
                        </rate>
                        <start>23750</start>
                        <end>24027</end>
                        <enabled>true</enabled>
                        <in>21454</in>
                        <out>21731</out>
                        <file id="2016-04-29 09_58_12.mov 2"/>
                        <compositemode>normal</compositemode>
                        <filter>
                            <enabled>true</enabled>
                            <start>0</start>
                            <end>52858</end>
                            <effect>
                                <name>Opacity</name>
                                <effectid>opacity</effectid>
                                <effecttype>motion</effecttype>
                                <mediatype>video</mediatype>
                                <effectcategory>motion</effectcategory>
                                <parameter>
                                    <name>opacity</name>
                                    <parameterid>opacity</parameterid>
                                    <value>100</value>
                                    <valuemin>0</valuemin>
                                    <valuemax>100</valuemax>
                                </parameter>
                            </effect>
                        </filter>
                        <filter>
                            <enabled>true</enabled>
                            <start>0</start>
                            <end>52858</end>
                            <effect>
                                <name>Basic Motion</name>
                                <effectid>basic</effectid>
                                <effecttype>motion</effecttype>
                                <mediatype>video</mediatype>
                                <effectcategory>motion</effectcategory>
                                <parameter>
                                    <name>Scale</name>
                                    <parameterid>scale</parameterid>
                                    <value>100</value>
                                    <valuemin>25</valuemin>
                                    <valuemax>400</valuemax>
                                </parameter>
                                <parameter>
                                    <name>Center</name>
                                    <parameterid>center</parameterid>
                                    <value>
                                        <horiz>0</horiz>
                                        <vert>0</vert>
                                    </value>
                                </parameter>
                                <parameter>
                                    <name>Rotation</name>
                                    <parameterid>rotation</parameterid>
                                    <value>0</value>
                                    <valuemin>-100000</valuemin>
                                    <valuemax>100000</valuemax>
                                </parameter>
                                <parameter>
                                    <name>Anchor Point</name>
                                    <parameterid>centerOffset</parameterid>
                                    <value>
                                        <horiz>0</horiz>
                                        <vert>0</vert>
                                    </value>
                                </parameter>
                            </effect>
                        </filter>
                        <filter>
                            <enabled>true</enabled>
                            <start>0</start>
                            <end>52858</end>
                            <effect>
                                <name>Crop</name>
                                <effectid>crop</effectid>
                                <effecttype>motion</effecttype>
                                <mediatype>video</mediatype>
                                <effectcategory>motion</effectcategory>
                                <parameter>
                                    <name>left</name>
                                    <parameterid>left</parameterid>
                                    <value>0</value>
                                    <valuemin>0</valuemin>
                                    <valuemax>100</valuemax>
                                </parameter>
                                <parameter>
                                    <name>right</name>
                                    <parameterid>right</parameterid>
                                    <value>0</value>
                                    <valuemin>0</valuemin>
                                    <valuemax>100</valuemax>
                                </parameter>
                                <parameter>
                                    <name>top</name>
                                    <parameterid>top</parameterid>
                                    <value>0</value>
                                    <valuemin>0</valuemin>
                                    <valuemax>100</valuemax>
                                </parameter>
                                <parameter>
                                    <name>bottom</name>
                                    <parameterid>bottom</parameterid>
                                    <value>0</value>
                                    <valuemin>0</valuemin>
                                    <valuemax>100</valuemax>
                                </parameter>
                            </effect>
                        </filter>
                        <link>
                            <linkclipref>2016-04-29 09_58_12.mov 9</linkclipref>
                        </link>
                        <link>
                            <linkclipref>2016-04-29 09_58_12.mov 29</linkclipref>
                        </link>
                        <link>
                            <linkclipref>2016-04-29 09_58_12.mov 41</linkclipref>
                        </link>
                        <link>
                            <linkclipref>2016-04-29 09_58_12.mov 53</linkclipref>
                        </link>
                        <link>
                            <linkclipref>2016-04-29 09_58_12.mov 65</linkclipref>
                        </link>
                    </clipitem>
                    <clipitem id="2016-04-29 09_58_12.mov 11">
                        <name>2016-04-29 09_58_12.mov</name>
                        <duration>52858</duration>
                        <rate>
                            <timebase>25</timebase>
                            <ntsc>false</ntsc>
                        </rate>
                        <start>24159</start>
                        <end>24606</end>
                        <enabled>true</enabled>
                        <in>21923</in>
                        <out>22370</out>
                        <file id="2016-04-29 09_58_12.mov 2"/>
                        <compositemode>normal</compositemode>
                        <filter>
                            <enabled>true</enabled>
                            <start>0</start>
                            <end>52858</end>
                            <effect>
                                <name>Opacity</name>
                                <effectid>opacity</effectid>
                                <effecttype>motion</effecttype>
                                <mediatype>video</mediatype>
                                <effectcategory>motion</effectcategory>
                                <parameter>
                                    <name>opacity</name>
                                    <parameterid>opacity</parameterid>
                                    <value>100</value>
                                    <valuemin>0</valuemin>
                                    <valuemax>100</valuemax>
                                </parameter>
                            </effect>
                        </filter>
                        <filter>
                            <enabled>true</enabled>
                            <start>0</start>
                            <end>52858</end>
                            <effect>
                                <name>Basic Motion</name>
                                <effectid>basic</effectid>
                                <effecttype>motion</effecttype>
                                <mediatype>video</mediatype>
                                <effectcategory>motion</effectcategory>
                                <parameter>
                                    <name>Scale</name>
                                    <parameterid>scale</parameterid>
                                    <value>100</value>
                                    <valuemin>25</valuemin>
                                    <valuemax>400</valuemax>
                                </parameter>
                                <parameter>
                                    <name>Center</name>
                                    <parameterid>center</parameterid>
                                    <value>
                                        <horiz>0</horiz>
                                        <vert>0</vert>
                                    </value>
                                </parameter>
                                <parameter>
                                    <name>Rotation</name>
                                    <parameterid>rotation</parameterid>
                                    <value>0</value>
                                    <valuemin>-100000</valuemin>
                                    <valuemax>100000</valuemax>
                                </parameter>
                                <parameter>
                                    <name>Anchor Point</name>
                                    <parameterid>centerOffset</parameterid>
                                    <value>
                                        <horiz>0</horiz>
                                        <vert>0</vert>
                                    </value>
                                </parameter>
                            </effect>
                        </filter>
                        <filter>
                            <enabled>true</enabled>
                            <start>0</start>
                            <end>52858</end>
                            <effect>
                                <name>Crop</name>
                                <effectid>crop</effectid>
                                <effecttype>motion</effecttype>
                                <mediatype>video</mediatype>
                                <effectcategory>motion</effectcategory>
                                <parameter>
                                    <name>left</name>
                                    <parameterid>left</parameterid>
                                    <value>0</value>
                                    <valuemin>0</valuemin>
                                    <valuemax>100</valuemax>
                                </parameter>
                                <parameter>
                                    <name>right</name>
                                    <parameterid>right</parameterid>
                                    <value>0</value>
                                    <valuemin>0</valuemin>
                                    <valuemax>100</valuemax>
                                </parameter>
                                <parameter>
                                    <name>top</name>
                                    <parameterid>top</parameterid>
                                    <value>0</value>
                                    <valuemin>0</valuemin>
                                    <valuemax>100</valuemax>
                                </parameter>
                                <parameter>
                                    <name>bottom</name>
                                    <parameterid>bottom</parameterid>
                                    <value>0</value>
                                    <valuemin>0</valuemin>
                                    <valuemax>100</valuemax>
                                </parameter>
                            </effect>
                        </filter>
                        <link>
                            <linkclipref>2016-04-29 09_58_12.mov 11</linkclipref>
                        </link>
                        <link>
                            <linkclipref>2016-04-29 09_58_12.mov 30</linkclipref>
                        </link>
                        <link>
                            <linkclipref>2016-04-29 09_58_12.mov 42</linkclipref>
                        </link>
                        <link>
                            <linkclipref>2016-04-29 09_58_12.mov 54</linkclipref>
                        </link>
                        <link>
                            <linkclipref>2016-04-29 09_58_12.mov 66</linkclipref>
                        </link>
                    </clipitem>
                    <clipitem id="2016-04-29 09_58_12.mov 13">
                        <name>2016-04-29 09_58_12.mov</name>
                        <duration>52858</duration>
                        <rate>
                            <timebase>25</timebase>
                            <ntsc>false</ntsc>
                        </rate>
                        <start>25821</start>
                        <end>26515</end>
                        <enabled>true</enabled>
                        <in>23585</in>
                        <out>24279</out>
                        <file id="2016-04-29 09_58_12.mov 2"/>
                        <compositemode>normal</compositemode>
                        <filter>
                            <enabled>true</enabled>
                            <start>0</start>
                            <end>52858</end>
                            <effect>
                                <name>Opacity</name>
                                <effectid>opacity</effectid>
                                <effecttype>motion</effecttype>
                                <mediatype>video</mediatype>
                                <effectcategory>motion</effectcategory>
                                <parameter>
                                    <name>opacity</name>
                                    <parameterid>opacity</parameterid>
                                    <value>100</value>
                                    <valuemin>0</valuemin>
                                    <valuemax>100</valuemax>
                                </parameter>
                            </effect>
                        </filter>
                        <filter>
                            <enabled>true</enabled>
                            <start>0</start>
                            <end>52858</end>
                            <effect>
                                <name>Basic Motion</name>
                                <effectid>basic</effectid>
                                <effecttype>motion</effecttype>
                                <mediatype>video</mediatype>
                                <effectcategory>motion</effectcategory>
                                <parameter>
                                    <name>Scale</name>
                                    <parameterid>scale</parameterid>
                                    <value>100</value>
                                    <valuemin>25</valuemin>
                                    <valuemax>400</valuemax>
                                </parameter>
                                <parameter>
                                    <name>Center</name>
                                    <parameterid>center</parameterid>
                                    <value>
                                        <horiz>0</horiz>
                                        <vert>0</vert>
                                    </value>
                                </parameter>
                                <parameter>
                                    <name>Rotation</name>
                                    <parameterid>rotation</parameterid>
                                    <value>0</value>
                                    <valuemin>-100000</valuemin>
                                    <valuemax>100000</valuemax>
                                </parameter>
                                <parameter>
                                    <name>Anchor Point</name>
                                    <parameterid>centerOffset</parameterid>
                                    <value>
                                        <horiz>0</horiz>
                                        <vert>0</vert>
                                    </value>
                                </parameter>
                            </effect>
                        </filter>
                        <filter>
                            <enabled>true</enabled>
                            <start>0</start>
                            <end>52858</end>
                            <effect>
                                <name>Crop</name>
                                <effectid>crop</effectid>
                                <effecttype>motion</effecttype>
                                <mediatype>video</mediatype>
                                <effectcategory>motion</effectcategory>
                                <parameter>
                                    <name>left</name>
                                    <parameterid>left</parameterid>
                                    <value>0</value>
                                    <valuemin>0</valuemin>
                                    <valuemax>100</valuemax>
                                </parameter>
                                <parameter>
                                    <name>right</name>
                                    <parameterid>right</parameterid>
                                    <value>0</value>
                                    <valuemin>0</valuemin>
                                    <valuemax>100</valuemax>
                                </parameter>
                                <parameter>
                                    <name>top</name>
                                    <parameterid>top</parameterid>
                                    <value>0</value>
                                    <valuemin>0</valuemin>
                                    <valuemax>100</valuemax>
                                </parameter>
                                <parameter>
                                    <name>bottom</name>
                                    <parameterid>bottom</parameterid>
                                    <value>0</value>
                                    <valuemin>0</valuemin>
                                    <valuemax>100</valuemax>
                                </parameter>
                            </effect>
                        </filter>
                        <link>
                            <linkclipref>2016-04-29 09_58_12.mov 13</linkclipref>
                        </link>
                        <link>
                            <linkclipref>2016-04-29 09_58_12.mov 31</linkclipref>
                        </link>
                        <link>
                            <linkclipref>2016-04-29 09_58_12.mov 43</linkclipref>
                        </link>
                        <link>
                            <linkclipref>2016-04-29 09_58_12.mov 55</linkclipref>
                        </link>
                        <link>
                            <linkclipref>2016-04-29 09_58_12.mov 67</linkclipref>
                        </link>
                    </clipitem>
                    <clipitem id="2016-04-29 09_58_12.mov 15">
                        <name>2016-04-29 09_58_12.mov</name>
                        <duration>52858</duration>
                        <rate>
                            <timebase>25</timebase>
                            <ntsc>false</ntsc>
                        </rate>
                        <start>27417</start>
                        <end>27737</end>
                        <enabled>true</enabled>
                        <in>25181</in>
                        <out>25501</out>
                        <file id="2016-04-29 09_58_12.mov 2"/>
                        <compositemode>normal</compositemode>
                        <filter>
                            <enabled>true</enabled>
                            <start>0</start>
                            <end>52858</end>
                            <effect>
                                <name>Opacity</name>
                                <effectid>opacity</effectid>
                                <effecttype>motion</effecttype>
                                <mediatype>video</mediatype>
                                <effectcategory>motion</effectcategory>
                                <parameter>
                                    <name>opacity</name>
                                    <parameterid>opacity</parameterid>
                                    <value>100</value>
                                    <valuemin>0</valuemin>
                                    <valuemax>100</valuemax>
                                </parameter>
                            </effect>
                        </filter>
                        <filter>
                            <enabled>true</enabled>
                            <start>0</start>
                            <end>52858</end>
                            <effect>
                                <name>Basic Motion</name>
                                <effectid>basic</effectid>
                                <effecttype>motion</effecttype>
                                <mediatype>video</mediatype>
                                <effectcategory>motion</effectcategory>
                                <parameter>
                                    <name>Scale</name>
                                    <parameterid>scale</parameterid>
                                    <value>100</value>
                                    <valuemin>25</valuemin>
                                    <valuemax>400</valuemax>
                                </parameter>
                                <parameter>
                                    <name>Center</name>
                                    <parameterid>center</parameterid>
                                    <value>
                                        <horiz>0</horiz>
                                        <vert>0</vert>
                                    </value>
                                </parameter>
                                <parameter>
                                    <name>Rotation</name>
                                    <parameterid>rotation</parameterid>
                                    <value>0</value>
                                    <valuemin>-100000</valuemin>
                                    <valuemax>100000</valuemax>
                                </parameter>
                                <parameter>
                                    <name>Anchor Point</name>
                                    <parameterid>centerOffset</parameterid>
                                    <value>
                                        <horiz>0</horiz>
                                        <vert>0</vert>
                                    </value>
                                </parameter>
                            </effect>
                        </filter>
                        <filter>
                            <enabled>true</enabled>
                            <start>0</start>
                            <end>52858</end>
                            <effect>
                                <name>Crop</name>
                                <effectid>crop</effectid>
                                <effecttype>motion</effecttype>
                                <mediatype>video</mediatype>
                                <effectcategory>motion</effectcategory>
                                <parameter>
                                    <name>left</name>
                                    <parameterid>left</parameterid>
                                    <value>0</value>
                                    <valuemin>0</valuemin>
                                    <valuemax>100</valuemax>
                                </parameter>
                                <parameter>
                                    <name>right</name>
                                    <parameterid>right</parameterid>
                                    <value>0</value>
                                    <valuemin>0</valuemin>
                                    <valuemax>100</valuemax>
                                </parameter>
                                <parameter>
                                    <name>top</name>
                                    <parameterid>top</parameterid>
                                    <value>0</value>
                                    <valuemin>0</valuemin>
                                    <valuemax>100</valuemax>
                                </parameter>
                                <parameter>
                                    <name>bottom</name>
                                    <parameterid>bottom</parameterid>
                                    <value>0</value>
                                    <valuemin>0</valuemin>
                                    <valuemax>100</valuemax>
                                </parameter>
                            </effect>
                        </filter>
                        <link>
                            <linkclipref>2016-04-29 09_58_12.mov 15</linkclipref>
                        </link>
                        <link>
                            <linkclipref>2016-04-29 09_58_12.mov 32</linkclipref>
                        </link>
                        <link>
                            <linkclipref>2016-04-29 09_58_12.mov 44</linkclipref>
                        </link>
                        <link>
                            <linkclipref>2016-04-29 09_58_12.mov 56</linkclipref>
                        </link>
                        <link>
                            <linkclipref>2016-04-29 09_58_12.mov 68</linkclipref>
                        </link>
                    </clipitem>
                    <clipitem id="2016-04-29 09_58_12.mov 17">
                        <name>2016-04-29 09_58_12.mov</name>
                        <duration>52858</duration>
                        <rate>
                            <timebase>25</timebase>
                            <ntsc>false</ntsc>
                        </rate>
                        <start>28212</start>
                        <end>28571</end>
                        <enabled>true</enabled>
                        <in>26044</in>
                        <out>26403</out>
                        <file id="2016-04-29 09_58_12.mov 2"/>
                        <compositemode>normal</compositemode>
                        <filter>
                            <enabled>true</enabled>
                            <start>0</start>
                            <end>52858</end>
                            <effect>
                                <name>Opacity</name>
                                <effectid>opacity</effectid>
                                <effecttype>motion</effecttype>
                                <mediatype>video</mediatype>
                                <effectcategory>motion</effectcategory>
                                <parameter>
                                    <name>opacity</name>
                                    <parameterid>opacity</parameterid>
                                    <value>100</value>
                                    <valuemin>0</valuemin>
                                    <valuemax>100</valuemax>
                                </parameter>
                            </effect>
                        </filter>
                        <filter>
                            <enabled>true</enabled>
                            <start>0</start>
                            <end>52858</end>
                            <effect>
                                <name>Basic Motion</name>
                                <effectid>basic</effectid>
                                <effecttype>motion</effecttype>
                                <mediatype>video</mediatype>
                                <effectcategory>motion</effectcategory>
                                <parameter>
                                    <name>Scale</name>
                                    <parameterid>scale</parameterid>
                                    <value>100</value>
                                    <valuemin>25</valuemin>
                                    <valuemax>400</valuemax>
                                </parameter>
                                <parameter>
                                    <name>Center</name>
                                    <parameterid>center</parameterid>
                                    <value>
                                        <horiz>0</horiz>
                                        <vert>0</vert>
                                    </value>
                                </parameter>
                                <parameter>
                                    <name>Rotation</name>
                                    <parameterid>rotation</parameterid>
                                    <value>0</value>
                                    <valuemin>-100000</valuemin>
                                    <valuemax>100000</valuemax>
                                </parameter>
                                <parameter>
                                    <name>Anchor Point</name>
                                    <parameterid>centerOffset</parameterid>
                                    <value>
                                        <horiz>0</horiz>
                                        <vert>0</vert>
                                    </value>
                                </parameter>
                            </effect>
                        </filter>
                        <filter>
                            <enabled>true</enabled>
                            <start>0</start>
                            <end>52858</end>
                            <effect>
                                <name>Crop</name>
                                <effectid>crop</effectid>
                                <effecttype>motion</effecttype>
                                <mediatype>video</mediatype>
                                <effectcategory>motion</effectcategory>
                                <parameter>
                                    <name>left</name>
                                    <parameterid>left</parameterid>
                                    <value>0</value>
                                    <valuemin>0</valuemin>
                                    <valuemax>100</valuemax>
                                </parameter>
                                <parameter>
                                    <name>right</name>
                                    <parameterid>right</parameterid>
                                    <value>0</value>
                                    <valuemin>0</valuemin>
                                    <valuemax>100</valuemax>
                                </parameter>
                                <parameter>
                                    <name>top</name>
                                    <parameterid>top</parameterid>
                                    <value>0</value>
                                    <valuemin>0</valuemin>
                                    <valuemax>100</valuemax>
                                </parameter>
                                <parameter>
                                    <name>bottom</name>
                                    <parameterid>bottom</parameterid>
                                    <value>0</value>
                                    <valuemin>0</valuemin>
                                    <valuemax>100</valuemax>
                                </parameter>
                            </effect>
                        </filter>
                        <link>
                            <linkclipref>2016-04-29 09_58_12.mov 17</linkclipref>
                        </link>
                        <link>
                            <linkclipref>2016-04-29 09_58_12.mov 33</linkclipref>
                        </link>
                        <link>
                            <linkclipref>2016-04-29 09_58_12.mov 45</linkclipref>
                        </link>
                        <link>
                            <linkclipref>2016-04-29 09_58_12.mov 57</linkclipref>
                        </link>
                        <link>
                            <linkclipref>2016-04-29 09_58_12.mov 69</linkclipref>
                        </link>
                    </clipitem>
                    <clipitem id="2016-04-29 09_58_12.mov 19">
                        <name>2016-04-29 09_58_12.mov</name>
                        <duration>52858</duration>
                        <rate>
                            <timebase>25</timebase>
                            <ntsc>false</ntsc>
                        </rate>
                        <start>28911</start>
                        <end>29201</end>
                        <enabled>true</enabled>
                        <in>26474</in>
                        <out>26764</out>
                        <file id="2016-04-29 09_58_12.mov 2"/>
                        <compositemode>normal</compositemode>
                        <filter>
                            <enabled>true</enabled>
                            <start>0</start>
                            <end>52858</end>
                            <effect>
                                <name>Opacity</name>
                                <effectid>opacity</effectid>
                                <effecttype>motion</effecttype>
                                <mediatype>video</mediatype>
                                <effectcategory>motion</effectcategory>
                                <parameter>
                                    <name>opacity</name>
                                    <parameterid>opacity</parameterid>
                                    <value>100</value>
                                    <valuemin>0</valuemin>
                                    <valuemax>100</valuemax>
                                </parameter>
                            </effect>
                        </filter>
                        <filter>
                            <enabled>true</enabled>
                            <start>0</start>
                            <end>52858</end>
                            <effect>
                                <name>Basic Motion</name>
                                <effectid>basic</effectid>
                                <effecttype>motion</effecttype>
                                <mediatype>video</mediatype>
                                <effectcategory>motion</effectcategory>
                                <parameter>
                                    <name>Scale</name>
                                    <parameterid>scale</parameterid>
                                    <value>100</value>
                                    <valuemin>25</valuemin>
                                    <valuemax>400</valuemax>
                                </parameter>
                                <parameter>
                                    <name>Center</name>
                                    <parameterid>center</parameterid>
                                    <value>
                                        <horiz>0</horiz>
                                        <vert>0</vert>
                                    </value>
                                </parameter>
                                <parameter>
                                    <name>Rotation</name>
                                    <parameterid>rotation</parameterid>
                                    <value>0</value>
                                    <valuemin>-100000</valuemin>
                                    <valuemax>100000</valuemax>
                                </parameter>
                                <parameter>
                                    <name>Anchor Point</name>
                                    <parameterid>centerOffset</parameterid>
                                    <value>
                                        <horiz>0</horiz>
                                        <vert>0</vert>
                                    </value>
                                </parameter>
                            </effect>
                        </filter>
                        <filter>
                            <enabled>true</enabled>
                            <start>0</start>
                            <end>52858</end>
                            <effect>
                                <name>Crop</name>
                                <effectid>crop</effectid>
                                <effecttype>motion</effecttype>
                                <mediatype>video</mediatype>
                                <effectcategory>motion</effectcategory>
                                <parameter>
                                    <name>left</name>
                                    <parameterid>left</parameterid>
                                    <value>0</value>
                                    <valuemin>0</valuemin>
                                    <valuemax>100</valuemax>
                                </parameter>
                                <parameter>
                                    <name>right</name>
                                    <parameterid>right</parameterid>
                                    <value>0</value>
                                    <valuemin>0</valuemin>
                                    <valuemax>100</valuemax>
                                </parameter>
                                <parameter>
                                    <name>top</name>
                                    <parameterid>top</parameterid>
                                    <value>0</value>
                                    <valuemin>0</valuemin>
                                    <valuemax>100</valuemax>
                                </parameter>
                                <parameter>
                                    <name>bottom</name>
                                    <parameterid>bottom</parameterid>
                                    <value>0</value>
                                    <valuemin>0</valuemin>
                                    <valuemax>100</valuemax>
                                </parameter>
                            </effect>
                        </filter>
                        <link>
                            <linkclipref>2016-04-29 09_58_12.mov 19</linkclipref>
                        </link>
                        <link>
                            <linkclipref>2016-04-29 09_58_12.mov 34</linkclipref>
                        </link>
                        <link>
                            <linkclipref>2016-04-29 09_58_12.mov 46</linkclipref>
                        </link>
                        <link>
                            <linkclipref>2016-04-29 09_58_12.mov 58</linkclipref>
                        </link>
                        <link>
                            <linkclipref>2016-04-29 09_58_12.mov 70</linkclipref>
                        </link>
                    </clipitem>
                    <clipitem id="2016-04-29 09_58_12.mov 21">
                        <name>2016-04-29 09_58_12.mov</name>
                        <duration>52858</duration>
                        <rate>
                            <timebase>25</timebase>
                            <ntsc>false</ntsc>
                        </rate>
                        <start>31915</start>
                        <end>32668</end>
                        <enabled>true</enabled>
                        <in>29882</in>
                        <out>30635</out>
                        <file id="2016-04-29 09_58_12.mov 2"/>
                        <compositemode>normal</compositemode>
                        <filter>
                            <enabled>true</enabled>
                            <start>0</start>
                            <end>52858</end>
                            <effect>
                                <name>Opacity</name>
                                <effectid>opacity</effectid>
                                <effecttype>motion</effecttype>
                                <mediatype>video</mediatype>
                                <effectcategory>motion</effectcategory>
                                <parameter>
                                    <name>opacity</name>
                                    <parameterid>opacity</parameterid>
                                    <value>100</value>
                                    <valuemin>0</valuemin>
                                    <valuemax>100</valuemax>
                                </parameter>
                            </effect>
                        </filter>
                        <filter>
                            <enabled>true</enabled>
                            <start>0</start>
                            <end>52858</end>
                            <effect>
                                <name>Basic Motion</name>
                                <effectid>basic</effectid>
                                <effecttype>motion</effecttype>
                                <mediatype>video</mediatype>
                                <effectcategory>motion</effectcategory>
                                <parameter>
                                    <name>Scale</name>
                                    <parameterid>scale</parameterid>
                                    <value>100</value>
                                    <valuemin>25</valuemin>
                                    <valuemax>400</valuemax>
                                </parameter>
                                <parameter>
                                    <name>Center</name>
                                    <parameterid>center</parameterid>
                                    <value>
                                        <horiz>0</horiz>
                                        <vert>0</vert>
                                    </value>
                                </parameter>
                                <parameter>
                                    <name>Rotation</name>
                                    <parameterid>rotation</parameterid>
                                    <value>0</value>
                                    <valuemin>-100000</valuemin>
                                    <valuemax>100000</valuemax>
                                </parameter>
                                <parameter>
                                    <name>Anchor Point</name>
                                    <parameterid>centerOffset</parameterid>
                                    <value>
                                        <horiz>0</horiz>
                                        <vert>0</vert>
                                    </value>
                                </parameter>
                            </effect>
                        </filter>
                        <filter>
                            <enabled>true</enabled>
                            <start>0</start>
                            <end>52858</end>
                            <effect>
                                <name>Crop</name>
                                <effectid>crop</effectid>
                                <effecttype>motion</effecttype>
                                <mediatype>video</mediatype>
                                <effectcategory>motion</effectcategory>
                                <parameter>
                                    <name>left</name>
                                    <parameterid>left</parameterid>
                                    <value>0</value>
                                    <valuemin>0</valuemin>
                                    <valuemax>100</valuemax>
                                </parameter>
                                <parameter>
                                    <name>right</name>
                                    <parameterid>right</parameterid>
                                    <value>0</value>
                                    <valuemin>0</valuemin>
                                    <valuemax>100</valuemax>
                                </parameter>
                                <parameter>
                                    <name>top</name>
                                    <parameterid>top</parameterid>
                                    <value>0</value>
                                    <valuemin>0</valuemin>
                                    <valuemax>100</valuemax>
                                </parameter>
                                <parameter>
                                    <name>bottom</name>
                                    <parameterid>bottom</parameterid>
                                    <value>0</value>
                                    <valuemin>0</valuemin>
                                    <valuemax>100</valuemax>
                                </parameter>
                            </effect>
                        </filter>
                        <link>
                            <linkclipref>2016-04-29 09_58_12.mov 21</linkclipref>
                        </link>
                        <link>
                            <linkclipref>2016-04-29 09_58_12.mov 35</linkclipref>
                        </link>
                        <link>
                            <linkclipref>2016-04-29 09_58_12.mov 47</linkclipref>
                        </link>
                        <link>
                            <linkclipref>2016-04-29 09_58_12.mov 59</linkclipref>
                        </link>
                        <link>
                            <linkclipref>2016-04-29 09_58_12.mov 71</linkclipref>
                        </link>
                    </clipitem>
                    <clipitem id="2016-04-29 09_58_12.mov 23">
                        <name>2016-04-29 09_58_12.mov</name>
                        <duration>52858</duration>
                        <rate>
                            <timebase>25</timebase>
                            <ntsc>false</ntsc>
                        </rate>
                        <start>44540</start>
                        <end>44741</end>
                        <enabled>true</enabled>
                        <in>43138</in>
                        <out>43339</out>
                        <file id="2016-04-29 09_58_12.mov 2"/>
                        <compositemode>normal</compositemode>
                        <filter>
                            <enabled>true</enabled>
                            <start>0</start>
                            <end>52858</end>
                            <effect>
                                <name>Opacity</name>
                                <effectid>opacity</effectid>
                                <effecttype>motion</effecttype>
                                <mediatype>video</mediatype>
                                <effectcategory>motion</effectcategory>
                                <parameter>
                                    <name>opacity</name>
                                    <parameterid>opacity</parameterid>
                                    <value>100</value>
                                    <valuemin>0</valuemin>
                                    <valuemax>100</valuemax>
                                </parameter>
                            </effect>
                        </filter>
                        <filter>
                            <enabled>true</enabled>
                            <start>0</start>
                            <end>52858</end>
                            <effect>
                                <name>Basic Motion</name>
                                <effectid>basic</effectid>
                                <effecttype>motion</effecttype>
                                <mediatype>video</mediatype>
                                <effectcategory>motion</effectcategory>
                                <parameter>
                                    <name>Scale</name>
                                    <parameterid>scale</parameterid>
                                    <value>100</value>
                                    <valuemin>25</valuemin>
                                    <valuemax>400</valuemax>
                                </parameter>
                                <parameter>
                                    <name>Center</name>
                                    <parameterid>center</parameterid>
                                    <value>
                                        <horiz>0</horiz>
                                        <vert>0</vert>
                                    </value>
                                </parameter>
                                <parameter>
                                    <name>Rotation</name>
                                    <parameterid>rotation</parameterid>
                                    <value>0</value>
                                    <valuemin>-100000</valuemin>
                                    <valuemax>100000</valuemax>
                                </parameter>
                                <parameter>
                                    <name>Anchor Point</name>
                                    <parameterid>centerOffset</parameterid>
                                    <value>
                                        <horiz>0</horiz>
                                        <vert>0</vert>
                                    </value>
                                </parameter>
                            </effect>
                        </filter>
                        <filter>
                            <enabled>true</enabled>
                            <start>0</start>
                            <end>52858</end>
                            <effect>
                                <name>Crop</name>
                                <effectid>crop</effectid>
                                <effecttype>motion</effecttype>
                                <mediatype>video</mediatype>
                                <effectcategory>motion</effectcategory>
                                <parameter>
                                    <name>left</name>
                                    <parameterid>left</parameterid>
                                    <value>0</value>
                                    <valuemin>0</valuemin>
                                    <valuemax>100</valuemax>
                                </parameter>
                                <parameter>
                                    <name>right</name>
                                    <parameterid>right</parameterid>
                                    <value>0</value>
                                    <valuemin>0</valuemin>
                                    <valuemax>100</valuemax>
                                </parameter>
                                <parameter>
                                    <name>top</name>
                                    <parameterid>top</parameterid>
                                    <value>0</value>
                                    <valuemin>0</valuemin>
                                    <valuemax>100</valuemax>
                                </parameter>
                                <parameter>
                                    <name>bottom</name>
                                    <parameterid>bottom</parameterid>
                                    <value>0</value>
                                    <valuemin>0</valuemin>
                                    <valuemax>100</valuemax>
                                </parameter>
                            </effect>
                        </filter>
                        <link>
                            <linkclipref>2016-04-29 09_58_12.mov 23</linkclipref>
                        </link>
                        <link>
                            <linkclipref>2016-04-29 09_58_12.mov 36</linkclipref>
                        </link>
                        <link>
                            <linkclipref>2016-04-29 09_58_12.mov 48</linkclipref>
                        </link>
                        <link>
                            <linkclipref>2016-04-29 09_58_12.mov 60</linkclipref>
                        </link>
                        <link>
                            <linkclipref>2016-04-29 09_58_12.mov 72</linkclipref>
                        </link>
                    </clipitem>
                    <clipitem id="Samstag Morgen Multi 272">
                        <name>Samstag Morgen Multi</name>
                        <duration>115210</duration>
                        <rate>
                            <timebase>25</timebase>
                            <ntsc>false</ntsc>
                        </rate>
                        <start>102445</start>
                        <end>113165</end>
                        <enabled>true</enabled>
                        <in>102445</in>
                        <out>113165</out>
                        <file id="Samstag Morgen Multi 2"/>
                        <compositemode>normal</compositemode>
                        <filter>
                            <enabled>true</enabled>
                            <start>0</start>
                            <end>115210</end>
                            <effect>
                                <name>Opacity</name>
                                <effectid>opacity</effectid>
                                <effecttype>motion</effecttype>
                                <mediatype>video</mediatype>
                                <effectcategory>motion</effectcategory>
                                <parameter>
                                    <name>opacity</name>
                                    <parameterid>opacity</parameterid>
                                    <value>100</value>
                                    <keyframe>
                                        <when>113109</when>
                                        <value>100</value>
                                    </keyframe>
                                    <keyframe>
                                        <when>113154</when>
                                        <value>0</value>
                                    </keyframe>
                                    <valuemin>0</valuemin>
                                    <valuemax>100</valuemax>
                                </parameter>
                            </effect>
                        </filter>
                        <filter>
                            <enabled>true</enabled>
                            <start>0</start>
                            <end>115210</end>
                            <effect>
                                <name>Basic Motion</name>
                                <effectid>basic</effectid>
                                <effecttype>motion</effecttype>
                                <mediatype>video</mediatype>
                                <effectcategory>motion</effectcategory>
                                <parameter>
                                    <name>Scale</name>
                                    <parameterid>scale</parameterid>
                                    <value>120</value>
                                    <valuemin>25</valuemin>
                                    <valuemax>400</valuemax>
                                </parameter>
                                <parameter>
                                    <name>Center</name>
                                    <parameterid>center</parameterid>
                                    <value>
                                        <horiz>0.0453125201165676</horiz>
                                        <vert>0</vert>
                                    </value>
                                </parameter>
                                <parameter>
                                    <name>Rotation</name>
                                    <parameterid>rotation</parameterid>
                                    <value>6.1</value>
                                    <valuemin>-100000</valuemin>
                                    <valuemax>100000</valuemax>
                                </parameter>
                                <parameter>
                                    <name>Anchor Point</name>
                                    <parameterid>centerOffset</parameterid>
                                    <value>
                                        <horiz>0</horiz>
                                        <vert>0</vert>
                                    </value>
                                </parameter>
                            </effect>
                        </filter>
                        <filter>
                            <enabled>true</enabled>
                            <start>0</start>
                            <end>115210</end>
                            <effect>
                                <name>Crop</name>
                                <effectid>crop</effectid>
                                <effecttype>motion</effecttype>
                                <mediatype>video</mediatype>
                                <effectcategory>motion</effectcategory>
                                <parameter>
                                    <name>left</name>
                                    <parameterid>left</parameterid>
                                    <value>0</value>
                                    <valuemin>0</valuemin>
                                    <valuemax>100</valuemax>
                                </parameter>
                                <parameter>
                                    <name>right</name>
                                    <parameterid>right</parameterid>
                                    <value>0</value>
                                    <valuemin>0</valuemin>
                                    <valuemax>100</valuemax>
                                </parameter>
                                <parameter>
                                    <name>top</name>
                                    <parameterid>top</parameterid>
                                    <value>0</value>
                                    <valuemin>0</valuemin>
                                    <valuemax>100</valuemax>
                                </parameter>
                                <parameter>
                                    <name>bottom</name>
                                    <parameterid>bottom</parameterid>
                                    <value>0</value>
                                    <valuemin>0</valuemin>
                                    <valuemax>100</valuemax>
                                </parameter>
                            </effect>
                        </filter>
                    </clipitem>
                    <enabled>true</enabled>
                    <locked>false</locked>
                </track>
                <track>
                    <clipitem id="Samstag Morgen Multi 274">
                        <name>Samstag Morgen Multi</name>
                        <duration>115210</duration>
                        <rate>
                            <timebase>25</timebase>
                            <ntsc>false</ntsc>
                        </rate>
                        <start>3970</start>
                        <end>4118</end>
                        <enabled>true</enabled>
                        <in>3970</in>
                        <out>4118</out>
                        <file id="Samstag Morgen Multi 2"/>
                        <compositemode>normal</compositemode>
                        <filter>
                            <enabled>true</enabled>
                            <start>0</start>
                            <end>115210</end>
                            <effect>
                                <name>Opacity</name>
                                <effectid>opacity</effectid>
                                <effecttype>motion</effecttype>
                                <mediatype>video</mediatype>
                                <effectcategory>motion</effectcategory>
                                <parameter>
                                    <name>opacity</name>
                                    <parameterid>opacity</parameterid>
                                    <value>100</value>
                                    <valuemin>0</valuemin>
                                    <valuemax>100</valuemax>
                                </parameter>
                            </effect>
                        </filter>
                        <filter>
                            <enabled>true</enabled>
                            <start>0</start>
                            <end>115210</end>
                            <effect>
                                <name>Basic Motion</name>
                                <effectid>basic</effectid>
                                <effecttype>motion</effecttype>
                                <mediatype>video</mediatype>
                                <effectcategory>motion</effectcategory>
                                <parameter>
                                    <name>Scale</name>
                                    <parameterid>scale</parameterid>
                                    <value>100</value>
                                    <valuemin>25</valuemin>
                                    <valuemax>400</valuemax>
                                </parameter>
                                <parameter>
                                    <name>Center</name>
                                    <parameterid>center</parameterid>
                                    <value>
                                        <horiz>0</horiz>
                                        <vert>0</vert>
                                    </value>
                                </parameter>
                                <parameter>
                                    <name>Rotation</name>
                                    <parameterid>rotation</parameterid>
                                    <value>0</value>
                                    <valuemin>-100000</valuemin>
                                    <valuemax>100000</valuemax>
                                </parameter>
                                <parameter>
                                    <name>Anchor Point</name>
                                    <parameterid>centerOffset</parameterid>
                                    <value>
                                        <horiz>0</horiz>
                                        <vert>0</vert>
                                    </value>
                                </parameter>
                            </effect>
                        </filter>
                        <filter>
                            <enabled>true</enabled>
                            <start>0</start>
                            <end>115210</end>
                            <effect>
                                <name>Crop</name>
                                <effectid>crop</effectid>
                                <effecttype>motion</effecttype>
                                <mediatype>video</mediatype>
                                <effectcategory>motion</effectcategory>
                                <parameter>
                                    <name>left</name>
                                    <parameterid>left</parameterid>
                                    <value>0</value>
                                    <valuemin>0</valuemin>
                                    <valuemax>100</valuemax>
                                </parameter>
                                <parameter>
                                    <name>right</name>
                                    <parameterid>right</parameterid>
                                    <value>0</value>
                                    <valuemin>0</valuemin>
                                    <valuemax>100</valuemax>
                                </parameter>
                                <parameter>
                                    <name>top</name>
                                    <parameterid>top</parameterid>
                                    <value>0</value>
                                    <valuemin>0</valuemin>
                                    <valuemax>100</valuemax>
                                </parameter>
                                <parameter>
                                    <name>bottom</name>
                                    <parameterid>bottom</parameterid>
                                    <value>0</value>
                                    <valuemin>0</valuemin>
                                    <valuemax>100</valuemax>
                                </parameter>
                            </effect>
                        </filter>
                    </clipitem>
                    <enabled>false</enabled>
                    <locked>false</locked>
                </track>
                <format>
                    <samplecharacteristics>
                        <width>1920</width>
                        <height>1080</height>
                        <pixelaspectratio>square</pixelaspectratio>
                        <rate>
                            <timebase>25</timebase>
                            <ntsc>false</ntsc>
                        </rate>
                        <codec>
                            <appspecificdata>
                                <appname>Final Cut Pro</appname>
                                <appmanufacturer>Apple Inc.</appmanufacturer>
                                <data>
                                    <qtcodec/>
                                </data>
                            </appspecificdata>
                        </codec>
                    </samplecharacteristics>
                </format>
            </video>
            <audio>
                <track>
                    <clipitem id="IMG_3707.MOV 0">
                        <name>IMG_3707.MOV</name>
                        <duration>115210</duration>
                        <rate>
                            <timebase>25</timebase>
                            <ntsc>false</ntsc>
                        </rate>
                        <start>4023</start>
                        <end>113210</end>
                        <enabled>true</enabled>
                        <in>4023</in>
                        <out>113210</out>
                        <file id="IMG_3707.MOV 1">
                            <duration>138252</duration>
                            <rate>
                                <timebase>30</timebase>
                                <ntsc>false</ntsc>
                            </rate>
                            <name>IMG_3707.MOV</name>
                            <pathurl>file:///Volumes/ProjectsRaid/WorkingProjects/kita/kita-2016_002-kleines_gespenst/videos/IMG_3707.MOV</pathurl>
                            <media>
                                <audio>
                                    <channelcount>2</channelcount>
                                </audio>
                            </media>
                        </file>
                        <filter>
                            <enabled>true</enabled>
                            <start>0</start>
                            <end>115210</end>
                            <effect>
                                <name>Audio Levels</name>
                                <effectid>audiolevels</effectid>
                                <effecttype>audiolevels</effecttype>
                                <mediatype>audio</mediatype>
                                <effectcategory>audiolevels</effectcategory>
                                <parameter>
                                    <name>Level</name>
                                    <parameterid>level</parameterid>
                                    <value>1</value>
                                    <keyframe>
                                        <when>113109</when>
                                        <value>1</value>
                                    </keyframe>
                                    <keyframe>
                                        <when>113145</when>
                                        <value>1.58489e-05</value>
                                    </keyframe>
                                    <valuemin>1.58489319246111e-05</valuemin>
                                    <valuemax>10</valuemax>
                                </parameter>
                            </effect>
                        </filter>
                        <filter>
                            <enabled>true</enabled>
                            <start>0</start>
                            <end>115210</end>
                            <effect>
                                <name>Audio Pan</name>
                                <effectid>audiopan</effectid>
                                <effecttype>audiopan</effecttype>
                                <mediatype>audio</mediatype>
                                <effectcategory>audiopan</effectcategory>
                                <parameter>
                                    <name>Pan</name>
                                    <parameterid>pan</parameterid>
                                    <value>0</value>
                                    <valuemin>-1</valuemin>
                                    <valuemax>1</valuemax>
                                </parameter>
                            </effect>
                        </filter>
                    </clipitem>
                    <enabled>true</enabled>
                    <locked>false</locked>
                </track>
                <track>
                    <clipitem id="IMG_0498.MOV 97">
                        <name>IMG_0498.MOV</name>
                        <duration>94362</duration>
                        <rate>
                            <timebase>25</timebase>
                            <ntsc>false</ntsc>
                        </rate>
                        <start>5201</start>
                        <end>5532</end>
                        <enabled>true</enabled>
                        <in>1394</in>
                        <out>1725</out>
                        <file id="IMG_0498.MOV 2"/>
                        <filter>
                            <enabled>true</enabled>
                            <start>0</start>
                            <end>94362</end>
                            <effect>
                                <name>Audio Levels</name>
                                <effectid>audiolevels</effectid>
                                <effecttype>audiolevels</effecttype>
                                <mediatype>audio</mediatype>
                                <effectcategory>audiolevels</effectcategory>
                                <parameter>
                                    <name>Level</name>
                                    <parameterid>level</parameterid>
                                    <value>1</value>
                                    <valuemin>1.58489319246111e-05</valuemin>
                                    <valuemax>10</valuemax>
                                </parameter>
                            </effect>
                        </filter>
                        <filter>
                            <enabled>true</enabled>
                            <start>0</start>
                            <end>94362</end>
                            <effect>
                                <name>Audio Pan</name>
                                <effectid>audiopan</effectid>
                                <effecttype>audiopan</effecttype>
                                <mediatype>audio</mediatype>
                                <effectcategory>audiopan</effectcategory>
                                <parameter>
                                    <name>Pan</name>
                                    <parameterid>pan</parameterid>
                                    <value>0</value>
                                    <valuemin>-1</valuemin>
                                    <valuemax>1</valuemax>
                                </parameter>
                            </effect>
                        </filter>
                        <link>
                            <linkclipref>IMG_0498.MOV 0</linkclipref>
                        </link>
                        <link>
                            <linkclipref>IMG_0498.MOV 97</linkclipref>
                        </link>
                    </clipitem>
                    <clipitem id="IMG_0498.MOV 98">
                        <name>IMG_0498.MOV</name>
                        <duration>94362</duration>
                        <rate>
                            <timebase>25</timebase>
                            <ntsc>false</ntsc>
                        </rate>
                        <start>5569</start>
                        <end>5987</end>
                        <enabled>true</enabled>
                        <in>1698</in>
                        <out>2116</out>
                        <file id="IMG_0498.MOV 2"/>
                        <filter>
                            <enabled>true</enabled>
                            <start>0</start>
                            <end>94362</end>
                            <effect>
                                <name>Audio Levels</name>
                                <effectid>audiolevels</effectid>
                                <effecttype>audiolevels</effecttype>
                                <mediatype>audio</mediatype>
                                <effectcategory>audiolevels</effectcategory>
                                <parameter>
                                    <name>Level</name>
                                    <parameterid>level</parameterid>
                                    <value>1</value>
                                    <valuemin>1.58489319246111e-05</valuemin>
                                    <valuemax>10</valuemax>
                                </parameter>
                            </effect>
                        </filter>
                        <filter>
                            <enabled>true</enabled>
                            <start>0</start>
                            <end>94362</end>
                            <effect>
                                <name>Audio Pan</name>
                                <effectid>audiopan</effectid>
                                <effecttype>audiopan</effecttype>
                                <mediatype>audio</mediatype>
                                <effectcategory>audiopan</effectcategory>
                                <parameter>
                                    <name>Pan</name>
                                    <parameterid>pan</parameterid>
                                    <value>0</value>
                                    <valuemin>-1</valuemin>
                                    <valuemax>1</valuemax>
                                </parameter>
                            </effect>
                        </filter>
                        <link>
                            <linkclipref>IMG_0498.MOV 3</linkclipref>
                        </link>
                        <link>
                            <linkclipref>IMG_0498.MOV 98</linkclipref>
                        </link>
                    </clipitem>
                    <clipitem id="IMG_0498.MOV 99">
                        <name>IMG_0498.MOV</name>
                        <duration>94362</duration>
                        <rate>
                            <timebase>25</timebase>
                            <ntsc>false</ntsc>
                        </rate>
                        <start>6104</start>
                        <end>6188</end>
                        <enabled>true</enabled>
                        <in>2276</in>
                        <out>2360</out>
                        <file id="IMG_0498.MOV 2"/>
                        <filter>
                            <enabled>true</enabled>
                            <start>0</start>
                            <end>94362</end>
                            <effect>
                                <name>Audio Levels</name>
                                <effectid>audiolevels</effectid>
                                <effecttype>audiolevels</effecttype>
                                <mediatype>audio</mediatype>
                                <effectcategory>audiolevels</effectcategory>
                                <parameter>
                                    <name>Level</name>
                                    <parameterid>level</parameterid>
                                    <value>1</value>
                                    <valuemin>1.58489319246111e-05</valuemin>
                                    <valuemax>10</valuemax>
                                </parameter>
                            </effect>
                        </filter>
                        <filter>
                            <enabled>true</enabled>
                            <start>0</start>
                            <end>94362</end>
                            <effect>
                                <name>Audio Pan</name>
                                <effectid>audiopan</effectid>
                                <effecttype>audiopan</effecttype>
                                <mediatype>audio</mediatype>
                                <effectcategory>audiopan</effectcategory>
                                <parameter>
                                    <name>Pan</name>
                                    <parameterid>pan</parameterid>
                                    <value>0</value>
                                    <valuemin>-1</valuemin>
                                    <valuemax>1</valuemax>
                                </parameter>
                            </effect>
                        </filter>
                        <link>
                            <linkclipref>IMG_0498.MOV 5</linkclipref>
                        </link>
                        <link>
                            <linkclipref>IMG_0498.MOV 99</linkclipref>
                        </link>
                    </clipitem>
                    <clipitem id="IMG_0498.MOV 100">
                        <name>IMG_0498.MOV</name>
                        <duration>94362</duration>
                        <rate>
                            <timebase>25</timebase>
                            <ntsc>false</ntsc>
                        </rate>
                        <start>6382</start>
                        <end>6576</end>
                        <enabled>true</enabled>
                        <in>2433</in>
                        <out>2627</out>
                        <file id="IMG_0498.MOV 2"/>
                        <filter>
                            <enabled>true</enabled>
                            <start>0</start>
                            <end>94362</end>
                            <effect>
                                <name>Audio Levels</name>
                                <effectid>audiolevels</effectid>
                                <effecttype>audiolevels</effecttype>
                                <mediatype>audio</mediatype>
                                <effectcategory>audiolevels</effectcategory>
                                <parameter>
                                    <name>Level</name>
                                    <parameterid>level</parameterid>
                                    <value>1</value>
                                    <valuemin>1.58489319246111e-05</valuemin>
                                    <valuemax>10</valuemax>
                                </parameter>
                            </effect>
                        </filter>
                        <filter>
                            <enabled>true</enabled>
                            <start>0</start>
                            <end>94362</end>
                            <effect>
                                <name>Audio Pan</name>
                                <effectid>audiopan</effectid>
                                <effecttype>audiopan</effecttype>
                                <mediatype>audio</mediatype>
                                <effectcategory>audiopan</effectcategory>
                                <parameter>
                                    <name>Pan</name>
                                    <parameterid>pan</parameterid>
                                    <value>0</value>
                                    <valuemin>-1</valuemin>
                                    <valuemax>1</valuemax>
                                </parameter>
                            </effect>
                        </filter>
                        <link>
                            <linkclipref>IMG_0498.MOV 7</linkclipref>
                        </link>
                        <link>
                            <linkclipref>IMG_0498.MOV 100</linkclipref>
                        </link>
                    </clipitem>
                    <clipitem id="IMG_0498.MOV 101">
                        <name>IMG_0498.MOV</name>
                        <duration>94362</duration>
                        <rate>
                            <timebase>25</timebase>
                            <ntsc>false</ntsc>
                        </rate>
                        <start>6719</start>
                        <end>7047</end>
                        <enabled>true</enabled>
                        <in>2764</in>
                        <out>3092</out>
                        <file id="IMG_0498.MOV 2"/>
                        <filter>
                            <enabled>true</enabled>
                            <start>0</start>
                            <end>94362</end>
                            <effect>
                                <name>Audio Levels</name>
                                <effectid>audiolevels</effectid>
                                <effecttype>audiolevels</effecttype>
                                <mediatype>audio</mediatype>
                                <effectcategory>audiolevels</effectcategory>
                                <parameter>
                                    <name>Level</name>
                                    <parameterid>level</parameterid>
                                    <value>1</value>
                                    <valuemin>1.58489319246111e-05</valuemin>
                                    <valuemax>10</valuemax>
                                </parameter>
                            </effect>
                        </filter>
                        <filter>
                            <enabled>true</enabled>
                            <start>0</start>
                            <end>94362</end>
                            <effect>
                                <name>Audio Pan</name>
                                <effectid>audiopan</effectid>
                                <effecttype>audiopan</effecttype>
                                <mediatype>audio</mediatype>
                                <effectcategory>audiopan</effectcategory>
                                <parameter>
                                    <name>Pan</name>
                                    <parameterid>pan</parameterid>
                                    <value>0</value>
                                    <valuemin>-1</valuemin>
                                    <valuemax>1</valuemax>
                                </parameter>
                            </effect>
                        </filter>
                        <link>
                            <linkclipref>IMG_0498.MOV 9</linkclipref>
                        </link>
                        <link>
                            <linkclipref>IMG_0498.MOV 101</linkclipref>
                        </link>
                    </clipitem>
                    <clipitem id="IMG_0498.MOV 102">
                        <name>IMG_0498.MOV</name>
                        <duration>94362</duration>
                        <rate>
                            <timebase>25</timebase>
                            <ntsc>false</ntsc>
                        </rate>
                        <start>7500</start>
                        <end>7877</end>
                        <enabled>true</enabled>
                        <in>3545</in>
                        <out>3922</out>
                        <file id="IMG_0498.MOV 2"/>
                        <filter>
                            <enabled>true</enabled>
                            <start>0</start>
                            <end>94362</end>
                            <effect>
                                <name>Audio Levels</name>
                                <effectid>audiolevels</effectid>
                                <effecttype>audiolevels</effecttype>
                                <mediatype>audio</mediatype>
                                <effectcategory>audiolevels</effectcategory>
                                <parameter>
                                    <name>Level</name>
                                    <parameterid>level</parameterid>
                                    <value>1</value>
                                    <valuemin>1.58489319246111e-05</valuemin>
                                    <valuemax>10</valuemax>
                                </parameter>
                            </effect>
                        </filter>
                        <filter>
                            <enabled>true</enabled>
                            <start>0</start>
                            <end>94362</end>
                            <effect>
                                <name>Audio Pan</name>
                                <effectid>audiopan</effectid>
                                <effecttype>audiopan</effecttype>
                                <mediatype>audio</mediatype>
                                <effectcategory>audiopan</effectcategory>
                                <parameter>
                                    <name>Pan</name>
                                    <parameterid>pan</parameterid>
                                    <value>0</value>
                                    <valuemin>-1</valuemin>
                                    <valuemax>1</valuemax>
                                </parameter>
                            </effect>
                        </filter>
                        <link>
                            <linkclipref>IMG_0498.MOV 11</linkclipref>
                        </link>
                        <link>
                            <linkclipref>IMG_0498.MOV 102</linkclipref>
                        </link>
                    </clipitem>
                    <clipitem id="IMG_0498.MOV 103">
                        <name>IMG_0498.MOV</name>
                        <duration>94362</duration>
                        <rate>
                            <timebase>25</timebase>
                            <ntsc>false</ntsc>
                        </rate>
                        <start>8333</start>
                        <end>8470</end>
                        <enabled>true</enabled>
                        <in>4378</in>
                        <out>4515</out>
                        <file id="IMG_0498.MOV 2"/>
                        <filter>
                            <enabled>true</enabled>
                            <start>0</start>
                            <end>94362</end>
                            <effect>
                                <name>Audio Levels</name>
                                <effectid>audiolevels</effectid>
                                <effecttype>audiolevels</effecttype>
                                <mediatype>audio</mediatype>
                                <effectcategory>audiolevels</effectcategory>
                                <parameter>
                                    <name>Level</name>
                                    <parameterid>level</parameterid>
                                    <value>1</value>
                                    <valuemin>1.58489319246111e-05</valuemin>
                                    <valuemax>10</valuemax>
                                </parameter>
                            </effect>
                        </filter>
                        <filter>
                            <enabled>true</enabled>
                            <start>0</start>
                            <end>94362</end>
                            <effect>
                                <name>Audio Pan</name>
                                <effectid>audiopan</effectid>
                                <effecttype>audiopan</effecttype>
                                <mediatype>audio</mediatype>
                                <effectcategory>audiopan</effectcategory>
                                <parameter>
                                    <name>Pan</name>
                                    <parameterid>pan</parameterid>
                                    <value>0</value>
                                    <valuemin>-1</valuemin>
                                    <valuemax>1</valuemax>
                                </parameter>
                            </effect>
                        </filter>
                        <link>
                            <linkclipref>IMG_0498.MOV 13</linkclipref>
                        </link>
                        <link>
                            <linkclipref>IMG_0498.MOV 103</linkclipref>
                        </link>
                    </clipitem>
                    <clipitem id="IMG_0498.MOV 104">
                        <name>IMG_0498.MOV</name>
                        <duration>94362</duration>
                        <rate>
                            <timebase>25</timebase>
                            <ntsc>false</ntsc>
                        </rate>
                        <start>9417</start>
                        <end>9916</end>
                        <enabled>true</enabled>
                        <in>5744</in>
                        <out>6243</out>
                        <file id="IMG_0498.MOV 2"/>
                        <filter>
                            <enabled>true</enabled>
                            <start>0</start>
                            <end>94362</end>
                            <effect>
                                <name>Audio Levels</name>
                                <effectid>audiolevels</effectid>
                                <effecttype>audiolevels</effecttype>
                                <mediatype>audio</mediatype>
                                <effectcategory>audiolevels</effectcategory>
                                <parameter>
                                    <name>Level</name>
                                    <parameterid>level</parameterid>
                                    <value>1</value>
                                    <valuemin>1.58489319246111e-05</valuemin>
                                    <valuemax>10</valuemax>
                                </parameter>
                            </effect>
                        </filter>
                        <filter>
                            <enabled>true</enabled>
                            <start>0</start>
                            <end>94362</end>
                            <effect>
                                <name>Audio Pan</name>
                                <effectid>audiopan</effectid>
                                <effecttype>audiopan</effecttype>
                                <mediatype>audio</mediatype>
                                <effectcategory>audiopan</effectcategory>
                                <parameter>
                                    <name>Pan</name>
                                    <parameterid>pan</parameterid>
                                    <value>0</value>
                                    <valuemin>-1</valuemin>
                                    <valuemax>1</valuemax>
                                </parameter>
                            </effect>
                        </filter>
                        <link>
                            <linkclipref>IMG_0498.MOV 15</linkclipref>
                        </link>
                        <link>
                            <linkclipref>IMG_0498.MOV 104</linkclipref>
                        </link>
                    </clipitem>
                    <clipitem id="IMG_0498.MOV 105">
                        <name>IMG_0498.MOV</name>
                        <duration>94362</duration>
                        <rate>
                            <timebase>25</timebase>
                            <ntsc>false</ntsc>
                        </rate>
                        <start>10470</start>
                        <end>11019</end>
                        <enabled>true</enabled>
                        <in>6803</in>
                        <out>7352</out>
                        <file id="IMG_0498.MOV 2"/>
                        <filter>
                            <enabled>true</enabled>
                            <start>0</start>
                            <end>94362</end>
                            <effect>
                                <name>Audio Levels</name>
                                <effectid>audiolevels</effectid>
                                <effecttype>audiolevels</effecttype>
                                <mediatype>audio</mediatype>
                                <effectcategory>audiolevels</effectcategory>
                                <parameter>
                                    <name>Level</name>
                                    <parameterid>level</parameterid>
                                    <value>1</value>
                                    <valuemin>1.58489319246111e-05</valuemin>
                                    <valuemax>10</valuemax>
                                </parameter>
                            </effect>
                        </filter>
                        <filter>
                            <enabled>true</enabled>
                            <start>0</start>
                            <end>94362</end>
                            <effect>
                                <name>Audio Pan</name>
                                <effectid>audiopan</effectid>
                                <effecttype>audiopan</effecttype>
                                <mediatype>audio</mediatype>
                                <effectcategory>audiopan</effectcategory>
                                <parameter>
                                    <name>Pan</name>
                                    <parameterid>pan</parameterid>
                                    <value>0</value>
                                    <valuemin>-1</valuemin>
                                    <valuemax>1</valuemax>
                                </parameter>
                            </effect>
                        </filter>
                        <link>
                            <linkclipref>IMG_0498.MOV 17</linkclipref>
                        </link>
                        <link>
                            <linkclipref>IMG_0498.MOV 105</linkclipref>
                        </link>
                    </clipitem>
                    <clipitem id="IMG_0498.MOV 106">
                        <name>IMG_0498.MOV</name>
                        <duration>94362</duration>
                        <rate>
                            <timebase>25</timebase>
                            <ntsc>false</ntsc>
                        </rate>
                        <start>11427</start>
                        <end>11764</end>
                        <enabled>true</enabled>
                        <in>7760</in>
                        <out>8097</out>
                        <file id="IMG_0498.MOV 2"/>
                        <filter>
                            <enabled>true</enabled>
                            <start>0</start>
                            <end>94362</end>
                            <effect>
                                <name>Audio Levels</name>
                                <effectid>audiolevels</effectid>
                                <effecttype>audiolevels</effecttype>
                                <mediatype>audio</mediatype>
                                <effectcategory>audiolevels</effectcategory>
                                <parameter>
                                    <name>Level</name>
                                    <parameterid>level</parameterid>
                                    <value>1</value>
                                    <valuemin>1.58489319246111e-05</valuemin>
                                    <valuemax>10</valuemax>
                                </parameter>
                            </effect>
                        </filter>
                        <filter>
                            <enabled>true</enabled>
                            <start>0</start>
                            <end>94362</end>
                            <effect>
                                <name>Audio Pan</name>
                                <effectid>audiopan</effectid>
                                <effecttype>audiopan</effecttype>
                                <mediatype>audio</mediatype>
                                <effectcategory>audiopan</effectcategory>
                                <parameter>
                                    <name>Pan</name>
                                    <parameterid>pan</parameterid>
                                    <value>0</value>
                                    <valuemin>-1</valuemin>
                                    <valuemax>1</valuemax>
                                </parameter>
                            </effect>
                        </filter>
                        <link>
                            <linkclipref>IMG_0498.MOV 19</linkclipref>
                        </link>
                        <link>
                            <linkclipref>IMG_0498.MOV 106</linkclipref>
                        </link>
                    </clipitem>
                    <clipitem id="IMG_0498.MOV 107">
                        <name>IMG_0498.MOV</name>
                        <duration>94362</duration>
                        <rate>
                            <timebase>25</timebase>
                            <ntsc>false</ntsc>
                        </rate>
                        <start>11885</start>
                        <end>12420</end>
                        <enabled>true</enabled>
                        <in>8666</in>
                        <out>9201</out>
                        <file id="IMG_0498.MOV 2"/>
                        <filter>
                            <enabled>true</enabled>
                            <start>0</start>
                            <end>94362</end>
                            <effect>
                                <name>Audio Levels</name>
                                <effectid>audiolevels</effectid>
                                <effecttype>audiolevels</effecttype>
                                <mediatype>audio</mediatype>
                                <effectcategory>audiolevels</effectcategory>
                                <parameter>
                                    <name>Level</name>
                                    <parameterid>level</parameterid>
                                    <value>1</value>
                                    <valuemin>1.58489319246111e-05</valuemin>
                                    <valuemax>10</valuemax>
                                </parameter>
                            </effect>
                        </filter>
                        <filter>
                            <enabled>true</enabled>
                            <start>0</start>
                            <end>94362</end>
                            <effect>
                                <name>Audio Pan</name>
                                <effectid>audiopan</effectid>
                                <effecttype>audiopan</effecttype>
                                <mediatype>audio</mediatype>
                                <effectcategory>audiopan</effectcategory>
                                <parameter>
                                    <name>Pan</name>
                                    <parameterid>pan</parameterid>
                                    <value>0</value>
                                    <valuemin>-1</valuemin>
                                    <valuemax>1</valuemax>
                                </parameter>
                            </effect>
                        </filter>
                        <link>
                            <linkclipref>IMG_0498.MOV 21</linkclipref>
                        </link>
                        <link>
                            <linkclipref>IMG_0498.MOV 107</linkclipref>
                        </link>
                    </clipitem>
                    <clipitem id="IMG_0498.MOV 108">
                        <name>IMG_0498.MOV</name>
                        <duration>94362</duration>
                        <rate>
                            <timebase>25</timebase>
                            <ntsc>false</ntsc>
                        </rate>
                        <start>12693</start>
                        <end>13091</end>
                        <enabled>true</enabled>
                        <in>9492</in>
                        <out>9890</out>
                        <file id="IMG_0498.MOV 2"/>
                        <filter>
                            <enabled>true</enabled>
                            <start>0</start>
                            <end>94362</end>
                            <effect>
                                <name>Audio Levels</name>
                                <effectid>audiolevels</effectid>
                                <effecttype>audiolevels</effecttype>
                                <mediatype>audio</mediatype>
                                <effectcategory>audiolevels</effectcategory>
                                <parameter>
                                    <name>Level</name>
                                    <parameterid>level</parameterid>
                                    <value>1</value>
                                    <valuemin>1.58489319246111e-05</valuemin>
                                    <valuemax>10</valuemax>
                                </parameter>
                            </effect>
                        </filter>
                        <filter>
                            <enabled>true</enabled>
                            <start>0</start>
                            <end>94362</end>
                            <effect>
                                <name>Audio Pan</name>
                                <effectid>audiopan</effectid>
                                <effecttype>audiopan</effecttype>
                                <mediatype>audio</mediatype>
                                <effectcategory>audiopan</effectcategory>
                                <parameter>
                                    <name>Pan</name>
                                    <parameterid>pan</parameterid>
                                    <value>0</value>
                                    <valuemin>-1</valuemin>
                                    <valuemax>1</valuemax>
                                </parameter>
                            </effect>
                        </filter>
                        <link>
                            <linkclipref>IMG_0498.MOV 23</linkclipref>
                        </link>
                        <link>
                            <linkclipref>IMG_0498.MOV 108</linkclipref>
                        </link>
                    </clipitem>
                    <clipitem id="IMG_0498.MOV 109">
                        <name>IMG_0498.MOV</name>
                        <duration>94362</duration>
                        <rate>
                            <timebase>25</timebase>
                            <ntsc>false</ntsc>
                        </rate>
                        <start>13527</start>
                        <end>14305</end>
                        <enabled>true</enabled>
                        <in>10360</in>
                        <out>11138</out>
                        <file id="IMG_0498.MOV 2"/>
                        <filter>
                            <enabled>true</enabled>
                            <start>0</start>
                            <end>94362</end>
                            <effect>
                                <name>Audio Levels</name>
                                <effectid>audiolevels</effectid>
                                <effecttype>audiolevels</effecttype>
                                <mediatype>audio</mediatype>
                                <effectcategory>audiolevels</effectcategory>
                                <parameter>
                                    <name>Level</name>
                                    <parameterid>level</parameterid>
                                    <value>1</value>
                                    <valuemin>1.58489319246111e-05</valuemin>
                                    <valuemax>10</valuemax>
                                </parameter>
                            </effect>
                        </filter>
                        <filter>
                            <enabled>true</enabled>
                            <start>0</start>
                            <end>94362</end>
                            <effect>
                                <name>Audio Pan</name>
                                <effectid>audiopan</effectid>
                                <effecttype>audiopan</effecttype>
                                <mediatype>audio</mediatype>
                                <effectcategory>audiopan</effectcategory>
                                <parameter>
                                    <name>Pan</name>
                                    <parameterid>pan</parameterid>
                                    <value>0</value>
                                    <valuemin>-1</valuemin>
                                    <valuemax>1</valuemax>
                                </parameter>
                            </effect>
                        </filter>
                        <link>
                            <linkclipref>IMG_0498.MOV 25</linkclipref>
                        </link>
                        <link>
                            <linkclipref>IMG_0498.MOV 109</linkclipref>
                        </link>
                    </clipitem>
                    <clipitem id="IMG_0498.MOV 110">
                        <name>IMG_0498.MOV</name>
                        <duration>94362</duration>
                        <rate>
                            <timebase>25</timebase>
                            <ntsc>false</ntsc>
                        </rate>
                        <start>14460</start>
                        <end>14856</end>
                        <enabled>true</enabled>
                        <in>11227</in>
                        <out>11623</out>
                        <file id="IMG_0498.MOV 2"/>
                        <filter>
                            <enabled>true</enabled>
                            <start>0</start>
                            <end>94362</end>
                            <effect>
                                <name>Audio Levels</name>
                                <effectid>audiolevels</effectid>
                                <effecttype>audiolevels</effecttype>
                                <mediatype>audio</mediatype>
                                <effectcategory>audiolevels</effectcategory>
                                <parameter>
                                    <name>Level</name>
                                    <parameterid>level</parameterid>
                                    <value>1</value>
                                    <valuemin>1.58489319246111e-05</valuemin>
                                    <valuemax>10</valuemax>
                                </parameter>
                            </effect>
                        </filter>
                        <filter>
                            <enabled>true</enabled>
                            <start>0</start>
                            <end>94362</end>
                            <effect>
                                <name>Audio Pan</name>
                                <effectid>audiopan</effectid>
                                <effecttype>audiopan</effecttype>
                                <mediatype>audio</mediatype>
                                <effectcategory>audiopan</effectcategory>
                                <parameter>
                                    <name>Pan</name>
                                    <parameterid>pan</parameterid>
                                    <value>0</value>
                                    <valuemin>-1</valuemin>
                                    <valuemax>1</valuemax>
                                </parameter>
                            </effect>
                        </filter>
                        <link>
                            <linkclipref>IMG_0498.MOV 27</linkclipref>
                        </link>
                        <link>
                            <linkclipref>IMG_0498.MOV 110</linkclipref>
                        </link>
                    </clipitem>
                    <clipitem id="IMG_0498.MOV 111">
                        <name>IMG_0498.MOV</name>
                        <duration>94362</duration>
                        <rate>
                            <timebase>25</timebase>
                            <ntsc>false</ntsc>
                        </rate>
                        <start>15187</start>
                        <end>15524</end>
                        <enabled>true</enabled>
                        <in>11869</in>
                        <out>12206</out>
                        <file id="IMG_0498.MOV 2"/>
                        <filter>
                            <enabled>true</enabled>
                            <start>0</start>
                            <end>94362</end>
                            <effect>
                                <name>Audio Levels</name>
                                <effectid>audiolevels</effectid>
                                <effecttype>audiolevels</effecttype>
                                <mediatype>audio</mediatype>
                                <effectcategory>audiolevels</effectcategory>
                                <parameter>
                                    <name>Level</name>
                                    <parameterid>level</parameterid>
                                    <value>1</value>
                                    <valuemin>1.58489319246111e-05</valuemin>
                                    <valuemax>10</valuemax>
                                </parameter>
                            </effect>
                        </filter>
                        <filter>
                            <enabled>true</enabled>
                            <start>0</start>
                            <end>94362</end>
                            <effect>
                                <name>Audio Pan</name>
                                <effectid>audiopan</effectid>
                                <effecttype>audiopan</effecttype>
                                <mediatype>audio</mediatype>
                                <effectcategory>audiopan</effectcategory>
                                <parameter>
                                    <name>Pan</name>
                                    <parameterid>pan</parameterid>
                                    <value>0</value>
                                    <valuemin>-1</valuemin>
                                    <valuemax>1</valuemax>
                                </parameter>
                            </effect>
                        </filter>
                        <link>
                            <linkclipref>IMG_0498.MOV 29</linkclipref>
                        </link>
                        <link>
                            <linkclipref>IMG_0498.MOV 111</linkclipref>
                        </link>
                    </clipitem>
                    <clipitem id="IMG_0498.MOV 112">
                        <name>IMG_0498.MOV</name>
                        <duration>94362</duration>
                        <rate>
                            <timebase>25</timebase>
                            <ntsc>false</ntsc>
                        </rate>
                        <start>18504</start>
                        <end>19480</end>
                        <enabled>true</enabled>
                        <in>15836</in>
                        <out>16812</out>
                        <file id="IMG_0498.MOV 2"/>
                        <filter>
                            <enabled>true</enabled>
                            <start>0</start>
                            <end>94362</end>
                            <effect>
                                <name>Audio Levels</name>
                                <effectid>audiolevels</effectid>
                                <effecttype>audiolevels</effecttype>
                                <mediatype>audio</mediatype>
                                <effectcategory>audiolevels</effectcategory>
                                <parameter>
                                    <name>Level</name>
                                    <parameterid>level</parameterid>
                                    <value>1</value>
                                    <valuemin>1.58489319246111e-05</valuemin>
                                    <valuemax>10</valuemax>
                                </parameter>
                            </effect>
                        </filter>
                        <filter>
                            <enabled>true</enabled>
                            <start>0</start>
                            <end>94362</end>
                            <effect>
                                <name>Audio Pan</name>
                                <effectid>audiopan</effectid>
                                <effecttype>audiopan</effecttype>
                                <mediatype>audio</mediatype>
                                <effectcategory>audiopan</effectcategory>
                                <parameter>
                                    <name>Pan</name>
                                    <parameterid>pan</parameterid>
                                    <value>0</value>
                                    <valuemin>-1</valuemin>
                                    <valuemax>1</valuemax>
                                </parameter>
                            </effect>
                        </filter>
                        <link>
                            <linkclipref>IMG_0498.MOV 31</linkclipref>
                        </link>
                        <link>
                            <linkclipref>IMG_0498.MOV 112</linkclipref>
                        </link>
                    </clipitem>
                    <clipitem id="IMG_0498.MOV 113">
                        <name>IMG_0498.MOV</name>
                        <duration>94362</duration>
                        <rate>
                            <timebase>25</timebase>
                            <ntsc>false</ntsc>
                        </rate>
                        <start>20166</start>
                        <end>20585</end>
                        <enabled>true</enabled>
                        <in>17498</in>
                        <out>17917</out>
                        <file id="IMG_0498.MOV 2"/>
                        <filter>
                            <enabled>true</enabled>
                            <start>0</start>
                            <end>94362</end>
                            <effect>
                                <name>Audio Levels</name>
                                <effectid>audiolevels</effectid>
                                <effecttype>audiolevels</effecttype>
                                <mediatype>audio</mediatype>
                                <effectcategory>audiolevels</effectcategory>
                                <parameter>
                                    <name>Level</name>
                                    <parameterid>level</parameterid>
                                    <value>1</value>
                                    <valuemin>1.58489319246111e-05</valuemin>
                                    <valuemax>10</valuemax>
                                </parameter>
                            </effect>
                        </filter>
                        <filter>
                            <enabled>true</enabled>
                            <start>0</start>
                            <end>94362</end>
                            <effect>
                                <name>Audio Pan</name>
                                <effectid>audiopan</effectid>
                                <effecttype>audiopan</effecttype>
                                <mediatype>audio</mediatype>
                                <effectcategory>audiopan</effectcategory>
                                <parameter>
                                    <name>Pan</name>
                                    <parameterid>pan</parameterid>
                                    <value>0</value>
                                    <valuemin>-1</valuemin>
                                    <valuemax>1</valuemax>
                                </parameter>
                            </effect>
                        </filter>
                        <link>
                            <linkclipref>IMG_0498.MOV 33</linkclipref>
                        </link>
                        <link>
                            <linkclipref>IMG_0498.MOV 113</linkclipref>
                        </link>
                    </clipitem>
                    <clipitem id="IMG_0498.MOV 114">
                        <name>IMG_0498.MOV</name>
                        <duration>94362</duration>
                        <rate>
                            <timebase>25</timebase>
                            <ntsc>false</ntsc>
                        </rate>
                        <start>21013</start>
                        <end>21306</end>
                        <enabled>true</enabled>
                        <in>18418</in>
                        <out>18711</out>
                        <file id="IMG_0498.MOV 2"/>
                        <filter>
                            <enabled>true</enabled>
                            <start>0</start>
                            <end>94362</end>
                            <effect>
                                <name>Audio Levels</name>
                                <effectid>audiolevels</effectid>
                                <effecttype>audiolevels</effecttype>
                                <mediatype>audio</mediatype>
                                <effectcategory>audiolevels</effectcategory>
                                <parameter>
                                    <name>Level</name>
                                    <parameterid>level</parameterid>
                                    <value>1</value>
                                    <valuemin>1.58489319246111e-05</valuemin>
                                    <valuemax>10</valuemax>
                                </parameter>
                            </effect>
                        </filter>
                        <filter>
                            <enabled>true</enabled>
                            <start>0</start>
                            <end>94362</end>
                            <effect>
                                <name>Audio Pan</name>
                                <effectid>audiopan</effectid>
                                <effecttype>audiopan</effecttype>
                                <mediatype>audio</mediatype>
                                <effectcategory>audiopan</effectcategory>
                                <parameter>
                                    <name>Pan</name>
                                    <parameterid>pan</parameterid>
                                    <value>0</value>
                                    <valuemin>-1</valuemin>
                                    <valuemax>1</valuemax>
                                </parameter>
                            </effect>
                        </filter>
                        <link>
                            <linkclipref>IMG_0498.MOV 35</linkclipref>
                        </link>
                        <link>
                            <linkclipref>IMG_0498.MOV 114</linkclipref>
                        </link>
                    </clipitem>
                    <clipitem id="IMG_0498.MOV 115">
                        <name>IMG_0498.MOV</name>
                        <duration>94362</duration>
                        <rate>
                            <timebase>25</timebase>
                            <ntsc>false</ntsc>
                        </rate>
                        <start>21426</start>
                        <end>21926</end>
                        <enabled>true</enabled>
                        <in>18764</in>
                        <out>19264</out>
                        <file id="IMG_0498.MOV 2"/>
                        <filter>
                            <enabled>true</enabled>
                            <start>0</start>
                            <end>94362</end>
                            <effect>
                                <name>Audio Levels</name>
                                <effectid>audiolevels</effectid>
                                <effecttype>audiolevels</effecttype>
                                <mediatype>audio</mediatype>
                                <effectcategory>audiolevels</effectcategory>
                                <parameter>
                                    <name>Level</name>
                                    <parameterid>level</parameterid>
                                    <value>1</value>
                                    <valuemin>1.58489319246111e-05</valuemin>
                                    <valuemax>10</valuemax>
                                </parameter>
                            </effect>
                        </filter>
                        <filter>
                            <enabled>true</enabled>
                            <start>0</start>
                            <end>94362</end>
                            <effect>
                                <name>Audio Pan</name>
                                <effectid>audiopan</effectid>
                                <effecttype>audiopan</effecttype>
                                <mediatype>audio</mediatype>
                                <effectcategory>audiopan</effectcategory>
                                <parameter>
                                    <name>Pan</name>
                                    <parameterid>pan</parameterid>
                                    <value>0</value>
                                    <valuemin>-1</valuemin>
                                    <valuemax>1</valuemax>
                                </parameter>
                            </effect>
                        </filter>
                        <link>
                            <linkclipref>IMG_0498.MOV 37</linkclipref>
                        </link>
                        <link>
                            <linkclipref>IMG_0498.MOV 115</linkclipref>
                        </link>
                    </clipitem>
                    <clipitem id="IMG_0498.MOV 116">
                        <name>IMG_0498.MOV</name>
                        <duration>94362</duration>
                        <rate>
                            <timebase>25</timebase>
                            <ntsc>false</ntsc>
                        </rate>
                        <start>24606</start>
                        <end>24983</end>
                        <enabled>true</enabled>
                        <in>22467</in>
                        <out>22844</out>
                        <file id="IMG_0498.MOV 2"/>
                        <filter>
                            <enabled>true</enabled>
                            <start>0</start>
                            <end>94362</end>
                            <effect>
                                <name>Audio Levels</name>
                                <effectid>audiolevels</effectid>
                                <effecttype>audiolevels</effecttype>
                                <mediatype>audio</mediatype>
                                <effectcategory>audiolevels</effectcategory>
                                <parameter>
                                    <name>Level</name>
                                    <parameterid>level</parameterid>
                                    <value>1</value>
                                    <valuemin>1.58489319246111e-05</valuemin>
                                    <valuemax>10</valuemax>
                                </parameter>
                            </effect>
                        </filter>
                        <filter>
                            <enabled>true</enabled>
                            <start>0</start>
                            <end>94362</end>
                            <effect>
                                <name>Audio Pan</name>
                                <effectid>audiopan</effectid>
                                <effecttype>audiopan</effecttype>
                                <mediatype>audio</mediatype>
                                <effectcategory>audiopan</effectcategory>
                                <parameter>
                                    <name>Pan</name>
                                    <parameterid>pan</parameterid>
                                    <value>0</value>
                                    <valuemin>-1</valuemin>
                                    <valuemax>1</valuemax>
                                </parameter>
                            </effect>
                        </filter>
                        <link>
                            <linkclipref>IMG_0498.MOV 39</linkclipref>
                        </link>
                        <link>
                            <linkclipref>IMG_0498.MOV 116</linkclipref>
                        </link>
                    </clipitem>
                    <clipitem id="IMG_0498.MOV 117">
                        <name>IMG_0498.MOV</name>
                        <duration>94362</duration>
                        <rate>
                            <timebase>25</timebase>
                            <ntsc>false</ntsc>
                        </rate>
                        <start>25564</start>
                        <end>26515</end>
                        <enabled>true</enabled>
                        <in>23356</in>
                        <out>24307</out>
                        <file id="IMG_0498.MOV 2"/>
                        <filter>
                            <enabled>true</enabled>
                            <start>0</start>
                            <end>94362</end>
                            <effect>
                                <name>Audio Levels</name>
                                <effectid>audiolevels</effectid>
                                <effecttype>audiolevels</effecttype>
                                <mediatype>audio</mediatype>
                                <effectcategory>audiolevels</effectcategory>
                                <parameter>
                                    <name>Level</name>
                                    <parameterid>level</parameterid>
                                    <value>1</value>
                                    <valuemin>1.58489319246111e-05</valuemin>
                                    <valuemax>10</valuemax>
                                </parameter>
                            </effect>
                        </filter>
                        <filter>
                            <enabled>true</enabled>
                            <start>0</start>
                            <end>94362</end>
                            <effect>
                                <name>Audio Pan</name>
                                <effectid>audiopan</effectid>
                                <effecttype>audiopan</effecttype>
                                <mediatype>audio</mediatype>
                                <effectcategory>audiopan</effectcategory>
                                <parameter>
                                    <name>Pan</name>
                                    <parameterid>pan</parameterid>
                                    <value>0</value>
                                    <valuemin>-1</valuemin>
                                    <valuemax>1</valuemax>
                                </parameter>
                            </effect>
                        </filter>
                        <link>
                            <linkclipref>IMG_0498.MOV 41</linkclipref>
                        </link>
                        <link>
                            <linkclipref>IMG_0498.MOV 117</linkclipref>
                        </link>
                    </clipitem>
                    <clipitem id="IMG_0498.MOV 118">
                        <name>IMG_0498.MOV</name>
                        <duration>94362</duration>
                        <rate>
                            <timebase>25</timebase>
                            <ntsc>false</ntsc>
                        </rate>
                        <start>26990</start>
                        <end>27520</end>
                        <enabled>true</enabled>
                        <in>24686</in>
                        <out>25216</out>
                        <file id="IMG_0498.MOV 2"/>
                        <filter>
                            <enabled>true</enabled>
                            <start>0</start>
                            <end>94362</end>
                            <effect>
                                <name>Audio Levels</name>
                                <effectid>audiolevels</effectid>
                                <effecttype>audiolevels</effecttype>
                                <mediatype>audio</mediatype>
                                <effectcategory>audiolevels</effectcategory>
                                <parameter>
                                    <name>Level</name>
                                    <parameterid>level</parameterid>
                                    <value>1</value>
                                    <valuemin>1.58489319246111e-05</valuemin>
                                    <valuemax>10</valuemax>
                                </parameter>
                            </effect>
                        </filter>
                        <filter>
                            <enabled>true</enabled>
                            <start>0</start>
                            <end>94362</end>
                            <effect>
                                <name>Audio Pan</name>
                                <effectid>audiopan</effectid>
                                <effecttype>audiopan</effecttype>
                                <mediatype>audio</mediatype>
                                <effectcategory>audiopan</effectcategory>
                                <parameter>
                                    <name>Pan</name>
                                    <parameterid>pan</parameterid>
                                    <value>0</value>
                                    <valuemin>-1</valuemin>
                                    <valuemax>1</valuemax>
                                </parameter>
                            </effect>
                        </filter>
                        <link>
                            <linkclipref>IMG_0498.MOV 43</linkclipref>
                        </link>
                        <link>
                            <linkclipref>IMG_0498.MOV 118</linkclipref>
                        </link>
                    </clipitem>
                    <clipitem id="IMG_0498.MOV 119">
                        <name>IMG_0498.MOV</name>
                        <duration>94362</duration>
                        <rate>
                            <timebase>25</timebase>
                            <ntsc>false</ntsc>
                        </rate>
                        <start>28212</start>
                        <end>28571</end>
                        <enabled>true</enabled>
                        <in>26035</in>
                        <out>26394</out>
                        <file id="IMG_0498.MOV 2"/>
                        <filter>
                            <enabled>true</enabled>
                            <start>0</start>
                            <end>94362</end>
                            <effect>
                                <name>Audio Levels</name>
                                <effectid>audiolevels</effectid>
                                <effecttype>audiolevels</effecttype>
                                <mediatype>audio</mediatype>
                                <effectcategory>audiolevels</effectcategory>
                                <parameter>
                                    <name>Level</name>
                                    <parameterid>level</parameterid>
                                    <value>1</value>
                                    <valuemin>1.58489319246111e-05</valuemin>
                                    <valuemax>10</valuemax>
                                </parameter>
                            </effect>
                        </filter>
                        <filter>
                            <enabled>true</enabled>
                            <start>0</start>
                            <end>94362</end>
                            <effect>
                                <name>Audio Pan</name>
                                <effectid>audiopan</effectid>
                                <effecttype>audiopan</effecttype>
                                <mediatype>audio</mediatype>
                                <effectcategory>audiopan</effectcategory>
                                <parameter>
                                    <name>Pan</name>
                                    <parameterid>pan</parameterid>
                                    <value>0</value>
                                    <valuemin>-1</valuemin>
                                    <valuemax>1</valuemax>
                                </parameter>
                            </effect>
                        </filter>
                        <link>
                            <linkclipref>IMG_0498.MOV 45</linkclipref>
                        </link>
                        <link>
                            <linkclipref>IMG_0498.MOV 119</linkclipref>
                        </link>
                    </clipitem>
                    <clipitem id="IMG_0498.MOV 120">
                        <name>IMG_0498.MOV</name>
                        <duration>94362</duration>
                        <rate>
                            <timebase>25</timebase>
                            <ntsc>false</ntsc>
                        </rate>
                        <start>28959</start>
                        <end>29201</end>
                        <enabled>true</enabled>
                        <in>26782</in>
                        <out>27024</out>
                        <file id="IMG_0498.MOV 2"/>
                        <filter>
                            <enabled>true</enabled>
                            <start>0</start>
                            <end>94362</end>
                            <effect>
                                <name>Audio Levels</name>
                                <effectid>audiolevels</effectid>
                                <effecttype>audiolevels</effecttype>
                                <mediatype>audio</mediatype>
                                <effectcategory>audiolevels</effectcategory>
                                <parameter>
                                    <name>Level</name>
                                    <parameterid>level</parameterid>
                                    <value>1</value>
                                    <valuemin>1.58489319246111e-05</valuemin>
                                    <valuemax>10</valuemax>
                                </parameter>
                            </effect>
                        </filter>
                        <filter>
                            <enabled>true</enabled>
                            <start>0</start>
                            <end>94362</end>
                            <effect>
                                <name>Audio Pan</name>
                                <effectid>audiopan</effectid>
                                <effecttype>audiopan</effecttype>
                                <mediatype>audio</mediatype>
                                <effectcategory>audiopan</effectcategory>
                                <parameter>
                                    <name>Pan</name>
                                    <parameterid>pan</parameterid>
                                    <value>0</value>
                                    <valuemin>-1</valuemin>
                                    <valuemax>1</valuemax>
                                </parameter>
                            </effect>
                        </filter>
                        <link>
                            <linkclipref>IMG_0498.MOV 47</linkclipref>
                        </link>
                        <link>
                            <linkclipref>IMG_0498.MOV 120</linkclipref>
                        </link>
                    </clipitem>
                    <clipitem id="IMG_0498.MOV 121">
                        <name>IMG_0498.MOV</name>
                        <duration>94362</duration>
                        <rate>
                            <timebase>25</timebase>
                            <ntsc>false</ntsc>
                        </rate>
                        <start>29511</start>
                        <end>30107</end>
                        <enabled>true</enabled>
                        <in>27334</in>
                        <out>27930</out>
                        <file id="IMG_0498.MOV 2"/>
                        <filter>
                            <enabled>true</enabled>
                            <start>0</start>
                            <end>94362</end>
                            <effect>
                                <name>Audio Levels</name>
                                <effectid>audiolevels</effectid>
                                <effecttype>audiolevels</effecttype>
                                <mediatype>audio</mediatype>
                                <effectcategory>audiolevels</effectcategory>
                                <parameter>
                                    <name>Level</name>
                                    <parameterid>level</parameterid>
                                    <value>1</value>
                                    <valuemin>1.58489319246111e-05</valuemin>
                                    <valuemax>10</valuemax>
                                </parameter>
                            </effect>
                        </filter>
                        <filter>
                            <enabled>true</enabled>
                            <start>0</start>
                            <end>94362</end>
                            <effect>
                                <name>Audio Pan</name>
                                <effectid>audiopan</effectid>
                                <effecttype>audiopan</effecttype>
                                <mediatype>audio</mediatype>
                                <effectcategory>audiopan</effectcategory>
                                <parameter>
                                    <name>Pan</name>
                                    <parameterid>pan</parameterid>
                                    <value>0</value>
                                    <valuemin>-1</valuemin>
                                    <valuemax>1</valuemax>
                                </parameter>
                            </effect>
                        </filter>
                        <link>
                            <linkclipref>IMG_0498.MOV 49</linkclipref>
                        </link>
                        <link>
                            <linkclipref>IMG_0498.MOV 121</linkclipref>
                        </link>
                    </clipitem>
                    <clipitem id="IMG_0498.MOV 122">
                        <name>IMG_0498.MOV</name>
                        <duration>94362</duration>
                        <rate>
                            <timebase>25</timebase>
                            <ntsc>false</ntsc>
                        </rate>
                        <start>30589</start>
                        <end>30871</end>
                        <enabled>true</enabled>
                        <in>28573</in>
                        <out>28855</out>
                        <file id="IMG_0498.MOV 2"/>
                        <filter>
                            <enabled>true</enabled>
                            <start>0</start>
                            <end>94362</end>
                            <effect>
                                <name>Audio Levels</name>
                                <effectid>audiolevels</effectid>
                                <effecttype>audiolevels</effecttype>
                                <mediatype>audio</mediatype>
                                <effectcategory>audiolevels</effectcategory>
                                <parameter>
                                    <name>Level</name>
                                    <parameterid>level</parameterid>
                                    <value>1</value>
                                    <valuemin>1.58489319246111e-05</valuemin>
                                    <valuemax>10</valuemax>
                                </parameter>
                            </effect>
                        </filter>
                        <filter>
                            <enabled>true</enabled>
                            <start>0</start>
                            <end>94362</end>
                            <effect>
                                <name>Audio Pan</name>
                                <effectid>audiopan</effectid>
                                <effecttype>audiopan</effecttype>
                                <mediatype>audio</mediatype>
                                <effectcategory>audiopan</effectcategory>
                                <parameter>
                                    <name>Pan</name>
                                    <parameterid>pan</parameterid>
                                    <value>0</value>
                                    <valuemin>-1</valuemin>
                                    <valuemax>1</valuemax>
                                </parameter>
                            </effect>
                        </filter>
                        <link>
                            <linkclipref>IMG_0498.MOV 51</linkclipref>
                        </link>
                        <link>
                            <linkclipref>IMG_0498.MOV 122</linkclipref>
                        </link>
                    </clipitem>
                    <clipitem id="IMG_0498.MOV 123">
                        <name>IMG_0498.MOV</name>
                        <duration>94362</duration>
                        <rate>
                            <timebase>25</timebase>
                            <ntsc>false</ntsc>
                        </rate>
                        <start>31108</start>
                        <end>31705</end>
                        <enabled>true</enabled>
                        <in>29120</in>
                        <out>29717</out>
                        <file id="IMG_0498.MOV 2"/>
                        <filter>
                            <enabled>true</enabled>
                            <start>0</start>
                            <end>94362</end>
                            <effect>
                                <name>Audio Levels</name>
                                <effectid>audiolevels</effectid>
                                <effecttype>audiolevels</effecttype>
                                <mediatype>audio</mediatype>
                                <effectcategory>audiolevels</effectcategory>
                                <parameter>
                                    <name>Level</name>
                                    <parameterid>level</parameterid>
                                    <value>1</value>
                                    <valuemin>1.58489319246111e-05</valuemin>
                                    <valuemax>10</valuemax>
                                </parameter>
                            </effect>
                        </filter>
                        <filter>
                            <enabled>true</enabled>
                            <start>0</start>
                            <end>94362</end>
                            <effect>
                                <name>Audio Pan</name>
                                <effectid>audiopan</effectid>
                                <effecttype>audiopan</effecttype>
                                <mediatype>audio</mediatype>
                                <effectcategory>audiopan</effectcategory>
                                <parameter>
                                    <name>Pan</name>
                                    <parameterid>pan</parameterid>
                                    <value>0</value>
                                    <valuemin>-1</valuemin>
                                    <valuemax>1</valuemax>
                                </parameter>
                            </effect>
                        </filter>
                        <link>
                            <linkclipref>IMG_0498.MOV 53</linkclipref>
                        </link>
                        <link>
                            <linkclipref>IMG_0498.MOV 123</linkclipref>
                        </link>
                    </clipitem>
                    <clipitem id="IMG_0498.MOV 124">
                        <name>IMG_0498.MOV</name>
                        <duration>94362</duration>
                        <rate>
                            <timebase>25</timebase>
                            <ntsc>false</ntsc>
                        </rate>
                        <start>31995</start>
                        <end>32590</end>
                        <enabled>true</enabled>
                        <in>30007</in>
                        <out>30602</out>
                        <file id="IMG_0498.MOV 2"/>
                        <filter>
                            <enabled>true</enabled>
                            <start>0</start>
                            <end>94362</end>
                            <effect>
                                <name>Audio Levels</name>
                                <effectid>audiolevels</effectid>
                                <effecttype>audiolevels</effecttype>
                                <mediatype>audio</mediatype>
                                <effectcategory>audiolevels</effectcategory>
                                <parameter>
                                    <name>Level</name>
                                    <parameterid>level</parameterid>
                                    <value>1</value>
                                    <valuemin>1.58489319246111e-05</valuemin>
                                    <valuemax>10</valuemax>
                                </parameter>
                            </effect>
                        </filter>
                        <filter>
                            <enabled>true</enabled>
                            <start>0</start>
                            <end>94362</end>
                            <effect>
                                <name>Audio Pan</name>
                                <effectid>audiopan</effectid>
                                <effecttype>audiopan</effecttype>
                                <mediatype>audio</mediatype>
                                <effectcategory>audiopan</effectcategory>
                                <parameter>
                                    <name>Pan</name>
                                    <parameterid>pan</parameterid>
                                    <value>0</value>
                                    <valuemin>-1</valuemin>
                                    <valuemax>1</valuemax>
                                </parameter>
                            </effect>
                        </filter>
                        <link>
                            <linkclipref>IMG_0498.MOV 55</linkclipref>
                        </link>
                        <link>
                            <linkclipref>IMG_0498.MOV 124</linkclipref>
                        </link>
                    </clipitem>
                    <clipitem id="IMG_0498.MOV 125">
                        <name>IMG_0498.MOV</name>
                        <duration>94362</duration>
                        <rate>
                            <timebase>25</timebase>
                            <ntsc>false</ntsc>
                        </rate>
                        <start>33151</start>
                        <end>33565</end>
                        <enabled>true</enabled>
                        <in>31163</in>
                        <out>31577</out>
                        <file id="IMG_0498.MOV 2"/>
                        <filter>
                            <enabled>true</enabled>
                            <start>0</start>
                            <end>94362</end>
                            <effect>
                                <name>Audio Levels</name>
                                <effectid>audiolevels</effectid>
                                <effecttype>audiolevels</effecttype>
                                <mediatype>audio</mediatype>
                                <effectcategory>audiolevels</effectcategory>
                                <parameter>
                                    <name>Level</name>
                                    <parameterid>level</parameterid>
                                    <value>1</value>
                                    <valuemin>1.58489319246111e-05</valuemin>
                                    <valuemax>10</valuemax>
                                </parameter>
                            </effect>
                        </filter>
                        <filter>
                            <enabled>true</enabled>
                            <start>0</start>
                            <end>94362</end>
                            <effect>
                                <name>Audio Pan</name>
                                <effectid>audiopan</effectid>
                                <effecttype>audiopan</effecttype>
                                <mediatype>audio</mediatype>
                                <effectcategory>audiopan</effectcategory>
                                <parameter>
                                    <name>Pan</name>
                                    <parameterid>pan</parameterid>
                                    <value>0</value>
                                    <valuemin>-1</valuemin>
                                    <valuemax>1</valuemax>
                                </parameter>
                            </effect>
                        </filter>
                        <link>
                            <linkclipref>IMG_0498.MOV 57</linkclipref>
                        </link>
                        <link>
                            <linkclipref>IMG_0498.MOV 125</linkclipref>
                        </link>
                    </clipitem>
                    <clipitem id="IMG_0498.MOV 126">
                        <name>IMG_0498.MOV</name>
                        <duration>94362</duration>
                        <rate>
                            <timebase>25</timebase>
                            <ntsc>false</ntsc>
                        </rate>
                        <start>33692</start>
                        <end>33771</end>
                        <enabled>true</enabled>
                        <in>31692</in>
                        <out>31771</out>
                        <file id="IMG_0498.MOV 2"/>
                        <filter>
                            <enabled>true</enabled>
                            <start>0</start>
                            <end>94362</end>
                            <effect>
                                <name>Audio Levels</name>
                                <effectid>audiolevels</effectid>
                                <effecttype>audiolevels</effecttype>
                                <mediatype>audio</mediatype>
                                <effectcategory>audiolevels</effectcategory>
                                <parameter>
                                    <name>Level</name>
                                    <parameterid>level</parameterid>
                                    <value>1</value>
                                    <valuemin>1.58489319246111e-05</valuemin>
                                    <valuemax>10</valuemax>
                                </parameter>
                            </effect>
                        </filter>
                        <filter>
                            <enabled>true</enabled>
                            <start>0</start>
                            <end>94362</end>
                            <effect>
                                <name>Audio Pan</name>
                                <effectid>audiopan</effectid>
                                <effecttype>audiopan</effecttype>
                                <mediatype>audio</mediatype>
                                <effectcategory>audiopan</effectcategory>
                                <parameter>
                                    <name>Pan</name>
                                    <parameterid>pan</parameterid>
                                    <value>0</value>
                                    <valuemin>-1</valuemin>
                                    <valuemax>1</valuemax>
                                </parameter>
                            </effect>
                        </filter>
                        <link>
                            <linkclipref>IMG_0498.MOV 59</linkclipref>
                        </link>
                        <link>
                            <linkclipref>IMG_0498.MOV 126</linkclipref>
                        </link>
                    </clipitem>
                    <clipitem id="IMG_0498.MOV 127">
                        <name>IMG_0498.MOV</name>
                        <duration>94362</duration>
                        <rate>
                            <timebase>25</timebase>
                            <ntsc>false</ntsc>
                        </rate>
                        <start>34175</start>
                        <end>34310</end>
                        <enabled>true</enabled>
                        <in>32155</in>
                        <out>32290</out>
                        <file id="IMG_0498.MOV 2"/>
                        <filter>
                            <enabled>true</enabled>
                            <start>0</start>
                            <end>94362</end>
                            <effect>
                                <name>Audio Levels</name>
                                <effectid>audiolevels</effectid>
                                <effecttype>audiolevels</effecttype>
                                <mediatype>audio</mediatype>
                                <effectcategory>audiolevels</effectcategory>
                                <parameter>
                                    <name>Level</name>
                                    <parameterid>level</parameterid>
                                    <value>1</value>
                                    <valuemin>1.58489319246111e-05</valuemin>
                                    <valuemax>10</valuemax>
                                </parameter>
                            </effect>
                        </filter>
                        <filter>
                            <enabled>true</enabled>
                            <start>0</start>
                            <end>94362</end>
                            <effect>
                                <name>Audio Pan</name>
                                <effectid>audiopan</effectid>
                                <effecttype>audiopan</effecttype>
                                <mediatype>audio</mediatype>
                                <effectcategory>audiopan</effectcategory>
                                <parameter>
                                    <name>Pan</name>
                                    <parameterid>pan</parameterid>
                                    <value>0</value>
                                    <valuemin>-1</valuemin>
                                    <valuemax>1</valuemax>
                                </parameter>
                            </effect>
                        </filter>
                        <link>
                            <linkclipref>IMG_0498.MOV 61</linkclipref>
                        </link>
                        <link>
                            <linkclipref>IMG_0498.MOV 127</linkclipref>
                        </link>
                    </clipitem>
                    <clipitem id="IMG_0498.MOV 128">
                        <name>IMG_0498.MOV</name>
                        <duration>94362</duration>
                        <rate>
                            <timebase>25</timebase>
                            <ntsc>false</ntsc>
                        </rate>
                        <start>35599</start>
                        <end>35998</end>
                        <enabled>true</enabled>
                        <in>33228</in>
                        <out>33627</out>
                        <file id="IMG_0498.MOV 2"/>
                        <filter>
                            <enabled>true</enabled>
                            <start>0</start>
                            <end>94362</end>
                            <effect>
                                <name>Audio Levels</name>
                                <effectid>audiolevels</effectid>
                                <effecttype>audiolevels</effecttype>
                                <mediatype>audio</mediatype>
                                <effectcategory>audiolevels</effectcategory>
                                <parameter>
                                    <name>Level</name>
                                    <parameterid>level</parameterid>
                                    <value>1</value>
                                    <valuemin>1.58489319246111e-05</valuemin>
                                    <valuemax>10</valuemax>
                                </parameter>
                            </effect>
                        </filter>
                        <filter>
                            <enabled>true</enabled>
                            <start>0</start>
                            <end>94362</end>
                            <effect>
                                <name>Audio Pan</name>
                                <effectid>audiopan</effectid>
                                <effecttype>audiopan</effecttype>
                                <mediatype>audio</mediatype>
                                <effectcategory>audiopan</effectcategory>
                                <parameter>
                                    <name>Pan</name>
                                    <parameterid>pan</parameterid>
                                    <value>0</value>
                                    <valuemin>-1</valuemin>
                                    <valuemax>1</valuemax>
                                </parameter>
                            </effect>
                        </filter>
                        <link>
                            <linkclipref>IMG_0498.MOV 63</linkclipref>
                        </link>
                        <link>
                            <linkclipref>IMG_0498.MOV 128</linkclipref>
                        </link>
                    </clipitem>
                    <clipitem id="IMG_0498.MOV 129">
                        <name>IMG_0498.MOV</name>
                        <duration>94362</duration>
                        <rate>
                            <timebase>25</timebase>
                            <ntsc>false</ntsc>
                        </rate>
                        <start>36082</start>
                        <end>37738</end>
                        <enabled>true</enabled>
                        <in>34002</in>
                        <out>35658</out>
                        <file id="IMG_0498.MOV 2"/>
                        <filter>
                            <enabled>true</enabled>
                            <start>0</start>
                            <end>94362</end>
                            <effect>
                                <name>Audio Levels</name>
                                <effectid>audiolevels</effectid>
                                <effecttype>audiolevels</effecttype>
                                <mediatype>audio</mediatype>
                                <effectcategory>audiolevels</effectcategory>
                                <parameter>
                                    <name>Level</name>
                                    <parameterid>level</parameterid>
                                    <value>1</value>
                                    <valuemin>1.58489319246111e-05</valuemin>
                                    <valuemax>10</valuemax>
                                </parameter>
                            </effect>
                        </filter>
                        <filter>
                            <enabled>true</enabled>
                            <start>0</start>
                            <end>94362</end>
                            <effect>
                                <name>Audio Pan</name>
                                <effectid>audiopan</effectid>
                                <effecttype>audiopan</effecttype>
                                <mediatype>audio</mediatype>
                                <effectcategory>audiopan</effectcategory>
                                <parameter>
                                    <name>Pan</name>
                                    <parameterid>pan</parameterid>
                                    <value>0</value>
                                    <valuemin>-1</valuemin>
                                    <valuemax>1</valuemax>
                                </parameter>
                            </effect>
                        </filter>
                        <link>
                            <linkclipref>IMG_0498.MOV 65</linkclipref>
                        </link>
                        <link>
                            <linkclipref>IMG_0498.MOV 129</linkclipref>
                        </link>
                    </clipitem>
                    <clipitem id="IMG_0498.MOV 130">
                        <name>IMG_0498.MOV</name>
                        <duration>94362</duration>
                        <rate>
                            <timebase>25</timebase>
                            <ntsc>false</ntsc>
                        </rate>
                        <start>37881</start>
                        <end>39174</end>
                        <enabled>true</enabled>
                        <in>35801</in>
                        <out>37094</out>
                        <file id="IMG_0498.MOV 2"/>
                        <filter>
                            <enabled>true</enabled>
                            <start>0</start>
                            <end>94362</end>
                            <effect>
                                <name>Audio Levels</name>
                                <effectid>audiolevels</effectid>
                                <effecttype>audiolevels</effecttype>
                                <mediatype>audio</mediatype>
                                <effectcategory>audiolevels</effectcategory>
                                <parameter>
                                    <name>Level</name>
                                    <parameterid>level</parameterid>
                                    <value>1</value>
                                    <valuemin>1.58489319246111e-05</valuemin>
                                    <valuemax>10</valuemax>
                                </parameter>
                            </effect>
                        </filter>
                        <filter>
                            <enabled>true</enabled>
                            <start>0</start>
                            <end>94362</end>
                            <effect>
                                <name>Audio Pan</name>
                                <effectid>audiopan</effectid>
                                <effecttype>audiopan</effecttype>
                                <mediatype>audio</mediatype>
                                <effectcategory>audiopan</effectcategory>
                                <parameter>
                                    <name>Pan</name>
                                    <parameterid>pan</parameterid>
                                    <value>0</value>
                                    <valuemin>-1</valuemin>
                                    <valuemax>1</valuemax>
                                </parameter>
                            </effect>
                        </filter>
                        <link>
                            <linkclipref>IMG_0498.MOV 67</linkclipref>
                        </link>
                        <link>
                            <linkclipref>IMG_0498.MOV 130</linkclipref>
                        </link>
                    </clipitem>
                    <clipitem id="IMG_0498.MOV 131">
                        <name>IMG_0498.MOV</name>
                        <duration>94362</duration>
                        <rate>
                            <timebase>25</timebase>
                            <ntsc>false</ntsc>
                        </rate>
                        <start>39448</start>
                        <end>40485</end>
                        <enabled>true</enabled>
                        <in>37345</in>
                        <out>38382</out>
                        <file id="IMG_0498.MOV 2"/>
                        <filter>
                            <enabled>true</enabled>
                            <start>0</start>
                            <end>94362</end>
                            <effect>
                                <name>Audio Levels</name>
                                <effectid>audiolevels</effectid>
                                <effecttype>audiolevels</effecttype>
                                <mediatype>audio</mediatype>
                                <effectcategory>audiolevels</effectcategory>
                                <parameter>
                                    <name>Level</name>
                                    <parameterid>level</parameterid>
                                    <value>1</value>
                                    <valuemin>1.58489319246111e-05</valuemin>
                                    <valuemax>10</valuemax>
                                </parameter>
                            </effect>
                        </filter>
                        <filter>
                            <enabled>true</enabled>
                            <start>0</start>
                            <end>94362</end>
                            <effect>
                                <name>Audio Pan</name>
                                <effectid>audiopan</effectid>
                                <effecttype>audiopan</effecttype>
                                <mediatype>audio</mediatype>
                                <effectcategory>audiopan</effectcategory>
                                <parameter>
                                    <name>Pan</name>
                                    <parameterid>pan</parameterid>
                                    <value>0</value>
                                    <valuemin>-1</valuemin>
                                    <valuemax>1</valuemax>
                                </parameter>
                            </effect>
                        </filter>
                        <link>
                            <linkclipref>IMG_0498.MOV 69</linkclipref>
                        </link>
                        <link>
                            <linkclipref>IMG_0498.MOV 131</linkclipref>
                        </link>
                    </clipitem>
                    <clipitem id="IMG_0498.MOV 132">
                        <name>IMG_0498.MOV</name>
                        <duration>94362</duration>
                        <rate>
                            <timebase>25</timebase>
                            <ntsc>false</ntsc>
                        </rate>
                        <start>40925</start>
                        <end>41037</end>
                        <enabled>true</enabled>
                        <in>38839</in>
                        <out>38951</out>
                        <file id="IMG_0498.MOV 2"/>
                        <filter>
                            <enabled>true</enabled>
                            <start>0</start>
                            <end>94362</end>
                            <effect>
                                <name>Audio Levels</name>
                                <effectid>audiolevels</effectid>
                                <effecttype>audiolevels</effecttype>
                                <mediatype>audio</mediatype>
                                <effectcategory>audiolevels</effectcategory>
                                <parameter>
                                    <name>Level</name>
                                    <parameterid>level</parameterid>
                                    <value>1</value>
                                    <valuemin>1.58489319246111e-05</valuemin>
                                    <valuemax>10</valuemax>
                                </parameter>
                            </effect>
                        </filter>
                        <filter>
                            <enabled>true</enabled>
                            <start>0</start>
                            <end>94362</end>
                            <effect>
                                <name>Audio Pan</name>
                                <effectid>audiopan</effectid>
                                <effecttype>audiopan</effecttype>
                                <mediatype>audio</mediatype>
                                <effectcategory>audiopan</effectcategory>
                                <parameter>
                                    <name>Pan</name>
                                    <parameterid>pan</parameterid>
                                    <value>0</value>
                                    <valuemin>-1</valuemin>
                                    <valuemax>1</valuemax>
                                </parameter>
                            </effect>
                        </filter>
                        <link>
                            <linkclipref>IMG_0498.MOV 71</linkclipref>
                        </link>
                        <link>
                            <linkclipref>IMG_0498.MOV 132</linkclipref>
                        </link>
                    </clipitem>
                    <clipitem id="IMG_0498.MOV 133">
                        <name>IMG_0498.MOV</name>
                        <duration>94362</duration>
                        <rate>
                            <timebase>25</timebase>
                            <ntsc>false</ntsc>
                        </rate>
                        <start>41612</start>
                        <end>41854</end>
                        <enabled>true</enabled>
                        <in>39288</in>
                        <out>39530</out>
                        <file id="IMG_0498.MOV 2"/>
                        <filter>
                            <enabled>true</enabled>
                            <start>0</start>
                            <end>94362</end>
                            <effect>
                                <name>Audio Levels</name>
                                <effectid>audiolevels</effectid>
                                <effecttype>audiolevels</effecttype>
                                <mediatype>audio</mediatype>
                                <effectcategory>audiolevels</effectcategory>
                                <parameter>
                                    <name>Level</name>
                                    <parameterid>level</parameterid>
                                    <value>1</value>
                                    <valuemin>1.58489319246111e-05</valuemin>
                                    <valuemax>10</valuemax>
                                </parameter>
                            </effect>
                        </filter>
                        <filter>
                            <enabled>true</enabled>
                            <start>0</start>
                            <end>94362</end>
                            <effect>
                                <name>Audio Pan</name>
                                <effectid>audiopan</effectid>
                                <effecttype>audiopan</effecttype>
                                <mediatype>audio</mediatype>
                                <effectcategory>audiopan</effectcategory>
                                <parameter>
                                    <name>Pan</name>
                                    <parameterid>pan</parameterid>
                                    <value>0</value>
                                    <valuemin>-1</valuemin>
                                    <valuemax>1</valuemax>
                                </parameter>
                            </effect>
                        </filter>
                        <link>
                            <linkclipref>IMG_0498.MOV 73</linkclipref>
                        </link>
                        <link>
                            <linkclipref>IMG_0498.MOV 133</linkclipref>
                        </link>
                    </clipitem>
                    <clipitem id="IMG_0498.MOV 134">
                        <name>IMG_0498.MOV</name>
                        <duration>94362</duration>
                        <rate>
                            <timebase>25</timebase>
                            <ntsc>false</ntsc>
                        </rate>
                        <start>41993</start>
                        <end>42145</end>
                        <enabled>true</enabled>
                        <in>39578</in>
                        <out>39730</out>
                        <file id="IMG_0498.MOV 2"/>
                        <filter>
                            <enabled>true</enabled>
                            <start>0</start>
                            <end>94362</end>
                            <effect>
                                <name>Audio Levels</name>
                                <effectid>audiolevels</effectid>
                                <effecttype>audiolevels</effecttype>
                                <mediatype>audio</mediatype>
                                <effectcategory>audiolevels</effectcategory>
                                <parameter>
                                    <name>Level</name>
                                    <parameterid>level</parameterid>
                                    <value>1</value>
                                    <valuemin>1.58489319246111e-05</valuemin>
                                    <valuemax>10</valuemax>
                                </parameter>
                            </effect>
                        </filter>
                        <filter>
                            <enabled>true</enabled>
                            <start>0</start>
                            <end>94362</end>
                            <effect>
                                <name>Audio Pan</name>
                                <effectid>audiopan</effectid>
                                <effecttype>audiopan</effecttype>
                                <mediatype>audio</mediatype>
                                <effectcategory>audiopan</effectcategory>
                                <parameter>
                                    <name>Pan</name>
                                    <parameterid>pan</parameterid>
                                    <value>0</value>
                                    <valuemin>-1</valuemin>
                                    <valuemax>1</valuemax>
                                </parameter>
                            </effect>
                        </filter>
                        <link>
                            <linkclipref>IMG_0498.MOV 75</linkclipref>
                        </link>
                        <link>
                            <linkclipref>IMG_0498.MOV 134</linkclipref>
                        </link>
                    </clipitem>
                    <clipitem id="IMG_0498.MOV 135">
                        <name>IMG_0498.MOV</name>
                        <duration>94362</duration>
                        <rate>
                            <timebase>25</timebase>
                            <ntsc>false</ntsc>
                        </rate>
                        <start>42224</start>
                        <end>42532</end>
                        <enabled>true</enabled>
                        <in>40519</in>
                        <out>40827</out>
                        <file id="IMG_0498.MOV 2"/>
                        <filter>
                            <enabled>true</enabled>
                            <start>0</start>
                            <end>94362</end>
                            <effect>
                                <name>Audio Levels</name>
                                <effectid>audiolevels</effectid>
                                <effecttype>audiolevels</effecttype>
                                <mediatype>audio</mediatype>
                                <effectcategory>audiolevels</effectcategory>
                                <parameter>
                                    <name>Level</name>
                                    <parameterid>level</parameterid>
                                    <value>1</value>
                                    <valuemin>1.58489319246111e-05</valuemin>
                                    <valuemax>10</valuemax>
                                </parameter>
                            </effect>
                        </filter>
                        <filter>
                            <enabled>true</enabled>
                            <start>0</start>
                            <end>94362</end>
                            <effect>
                                <name>Audio Pan</name>
                                <effectid>audiopan</effectid>
                                <effecttype>audiopan</effecttype>
                                <mediatype>audio</mediatype>
                                <effectcategory>audiopan</effectcategory>
                                <parameter>
                                    <name>Pan</name>
                                    <parameterid>pan</parameterid>
                                    <value>0</value>
                                    <valuemin>-1</valuemin>
                                    <valuemax>1</valuemax>
                                </parameter>
                            </effect>
                        </filter>
                        <link>
                            <linkclipref>IMG_0498.MOV 77</linkclipref>
                        </link>
                        <link>
                            <linkclipref>IMG_0498.MOV 135</linkclipref>
                        </link>
                    </clipitem>
                    <clipitem id="IMG_0498.MOV 136">
                        <name>IMG_0498.MOV</name>
                        <duration>94362</duration>
                        <rate>
                            <timebase>25</timebase>
                            <ntsc>false</ntsc>
                        </rate>
                        <start>42863</start>
                        <end>43093</end>
                        <enabled>true</enabled>
                        <in>41248</in>
                        <out>41478</out>
                        <file id="IMG_0498.MOV 2"/>
                        <filter>
                            <enabled>true</enabled>
                            <start>0</start>
                            <end>94362</end>
                            <effect>
                                <name>Audio Levels</name>
                                <effectid>audiolevels</effectid>
                                <effecttype>audiolevels</effecttype>
                                <mediatype>audio</mediatype>
                                <effectcategory>audiolevels</effectcategory>
                                <parameter>
                                    <name>Level</name>
                                    <parameterid>level</parameterid>
                                    <value>1</value>
                                    <valuemin>1.58489319246111e-05</valuemin>
                                    <valuemax>10</valuemax>
                                </parameter>
                            </effect>
                        </filter>
                        <filter>
                            <enabled>true</enabled>
                            <start>0</start>
                            <end>94362</end>
                            <effect>
                                <name>Audio Pan</name>
                                <effectid>audiopan</effectid>
                                <effecttype>audiopan</effecttype>
                                <mediatype>audio</mediatype>
                                <effectcategory>audiopan</effectcategory>
                                <parameter>
                                    <name>Pan</name>
                                    <parameterid>pan</parameterid>
                                    <value>0</value>
                                    <valuemin>-1</valuemin>
                                    <valuemax>1</valuemax>
                                </parameter>
                            </effect>
                        </filter>
                        <link>
                            <linkclipref>IMG_0498.MOV 79</linkclipref>
                        </link>
                        <link>
                            <linkclipref>IMG_0498.MOV 136</linkclipref>
                        </link>
                    </clipitem>
                    <clipitem id="IMG_0498.MOV 137">
                        <name>IMG_0498.MOV</name>
                        <duration>94362</duration>
                        <rate>
                            <timebase>25</timebase>
                            <ntsc>false</ntsc>
                        </rate>
                        <start>43288</start>
                        <end>44360</end>
                        <enabled>true</enabled>
                        <in>41765</in>
                        <out>42837</out>
                        <file id="IMG_0498.MOV 2"/>
                        <filter>
                            <enabled>true</enabled>
                            <start>0</start>
                            <end>94362</end>
                            <effect>
                                <name>Audio Levels</name>
                                <effectid>audiolevels</effectid>
                                <effecttype>audiolevels</effecttype>
                                <mediatype>audio</mediatype>
                                <effectcategory>audiolevels</effectcategory>
                                <parameter>
                                    <name>Level</name>
                                    <parameterid>level</parameterid>
                                    <value>1</value>
                                    <valuemin>1.58489319246111e-05</valuemin>
                                    <valuemax>10</valuemax>
                                </parameter>
                            </effect>
                        </filter>
                        <filter>
                            <enabled>true</enabled>
                            <start>0</start>
                            <end>94362</end>
                            <effect>
                                <name>Audio Pan</name>
                                <effectid>audiopan</effectid>
                                <effecttype>audiopan</effecttype>
                                <mediatype>audio</mediatype>
                                <effectcategory>audiopan</effectcategory>
                                <parameter>
                                    <name>Pan</name>
                                    <parameterid>pan</parameterid>
                                    <value>0</value>
                                    <valuemin>-1</valuemin>
                                    <valuemax>1</valuemax>
                                </parameter>
                            </effect>
                        </filter>
                        <link>
                            <linkclipref>IMG_0498.MOV 81</linkclipref>
                        </link>
                        <link>
                            <linkclipref>IMG_0498.MOV 137</linkclipref>
                        </link>
                    </clipitem>
                    <clipitem id="IMG_0498.MOV 138">
                        <name>IMG_0498.MOV</name>
                        <duration>94362</duration>
                        <rate>
                            <timebase>25</timebase>
                            <ntsc>false</ntsc>
                        </rate>
                        <start>45595</start>
                        <end>46050</end>
                        <enabled>true</enabled>
                        <in>44273</in>
                        <out>44728</out>
                        <file id="IMG_0498.MOV 2"/>
                        <filter>
                            <enabled>true</enabled>
                            <start>0</start>
                            <end>94362</end>
                            <effect>
                                <name>Audio Levels</name>
                                <effectid>audiolevels</effectid>
                                <effecttype>audiolevels</effecttype>
                                <mediatype>audio</mediatype>
                                <effectcategory>audiolevels</effectcategory>
                                <parameter>
                                    <name>Level</name>
                                    <parameterid>level</parameterid>
                                    <value>1</value>
                                    <valuemin>1.58489319246111e-05</valuemin>
                                    <valuemax>10</valuemax>
                                </parameter>
                            </effect>
                        </filter>
                        <filter>
                            <enabled>true</enabled>
                            <start>0</start>
                            <end>94362</end>
                            <effect>
                                <name>Audio Pan</name>
                                <effectid>audiopan</effectid>
                                <effecttype>audiopan</effecttype>
                                <mediatype>audio</mediatype>
                                <effectcategory>audiopan</effectcategory>
                                <parameter>
                                    <name>Pan</name>
                                    <parameterid>pan</parameterid>
                                    <value>0</value>
                                    <valuemin>-1</valuemin>
                                    <valuemax>1</valuemax>
                                </parameter>
                            </effect>
                        </filter>
                        <link>
                            <linkclipref>IMG_0498.MOV 83</linkclipref>
                        </link>
                        <link>
                            <linkclipref>IMG_0498.MOV 138</linkclipref>
                        </link>
                    </clipitem>
                    <clipitem id="IMG_0498.MOV 139">
                        <name>IMG_0498.MOV</name>
                        <duration>94362</duration>
                        <rate>
                            <timebase>25</timebase>
                            <ntsc>false</ntsc>
                        </rate>
                        <start>47979</start>
                        <end>48617</end>
                        <enabled>true</enabled>
                        <in>47007</in>
                        <out>47645</out>
                        <file id="IMG_0498.MOV 2"/>
                        <filter>
                            <enabled>true</enabled>
                            <start>0</start>
                            <end>94362</end>
                            <effect>
                                <name>Audio Levels</name>
                                <effectid>audiolevels</effectid>
                                <effecttype>audiolevels</effecttype>
                                <mediatype>audio</mediatype>
                                <effectcategory>audiolevels</effectcategory>
                                <parameter>
                                    <name>Level</name>
                                    <parameterid>level</parameterid>
                                    <value>1</value>
                                    <valuemin>1.58489319246111e-05</valuemin>
                                    <valuemax>10</valuemax>
                                </parameter>
                            </effect>
                        </filter>
                        <filter>
                            <enabled>true</enabled>
                            <start>0</start>
                            <end>94362</end>
                            <effect>
                                <name>Audio Pan</name>
                                <effectid>audiopan</effectid>
                                <effecttype>audiopan</effecttype>
                                <mediatype>audio</mediatype>
                                <effectcategory>audiopan</effectcategory>
                                <parameter>
                                    <name>Pan</name>
                                    <parameterid>pan</parameterid>
                                    <value>0</value>
                                    <valuemin>-1</valuemin>
                                    <valuemax>1</valuemax>
                                </parameter>
                            </effect>
                        </filter>
                        <link>
                            <linkclipref>IMG_0498.MOV 85</linkclipref>
                        </link>
                        <link>
                            <linkclipref>IMG_0498.MOV 139</linkclipref>
                        </link>
                    </clipitem>
                    <clipitem id="IMG_0498.MOV 140">
                        <name>IMG_0498.MOV</name>
                        <duration>94362</duration>
                        <rate>
                            <timebase>25</timebase>
                            <ntsc>false</ntsc>
                        </rate>
                        <start>50771</start>
                        <end>50905</end>
                        <enabled>true</enabled>
                        <in>49858</in>
                        <out>49992</out>
                        <file id="IMG_0498.MOV 2"/>
                        <filter>
                            <enabled>true</enabled>
                            <start>0</start>
                            <end>94362</end>
                            <effect>
                                <name>Audio Levels</name>
                                <effectid>audiolevels</effectid>
                                <effecttype>audiolevels</effecttype>
                                <mediatype>audio</mediatype>
                                <effectcategory>audiolevels</effectcategory>
                                <parameter>
                                    <name>Level</name>
                                    <parameterid>level</parameterid>
                                    <value>1</value>
                                    <valuemin>1.58489319246111e-05</valuemin>
                                    <valuemax>10</valuemax>
                                </parameter>
                            </effect>
                        </filter>
                        <filter>
                            <enabled>true</enabled>
                            <start>0</start>
                            <end>94362</end>
                            <effect>
                                <name>Audio Pan</name>
                                <effectid>audiopan</effectid>
                                <effecttype>audiopan</effecttype>
                                <mediatype>audio</mediatype>
                                <effectcategory>audiopan</effectcategory>
                                <parameter>
                                    <name>Pan</name>
                                    <parameterid>pan</parameterid>
                                    <value>0</value>
                                    <valuemin>-1</valuemin>
                                    <valuemax>1</valuemax>
                                </parameter>
                            </effect>
                        </filter>
                        <link>
                            <linkclipref>IMG_0498.MOV 87</linkclipref>
                        </link>
                        <link>
                            <linkclipref>IMG_0498.MOV 140</linkclipref>
                        </link>
                    </clipitem>
                    <clipitem id="IMG_0498.MOV 141">
                        <name>IMG_0498.MOV</name>
                        <duration>94362</duration>
                        <rate>
                            <timebase>25</timebase>
                            <ntsc>false</ntsc>
                        </rate>
                        <start>51317</start>
                        <end>51600</end>
                        <enabled>true</enabled>
                        <in>50859</in>
                        <out>51142</out>
                        <file id="IMG_0498.MOV 2"/>
                        <filter>
                            <enabled>true</enabled>
                            <start>0</start>
                            <end>94362</end>
                            <effect>
                                <name>Audio Levels</name>
                                <effectid>audiolevels</effectid>
                                <effecttype>audiolevels</effecttype>
                                <mediatype>audio</mediatype>
                                <effectcategory>audiolevels</effectcategory>
                                <parameter>
                                    <name>Level</name>
                                    <parameterid>level</parameterid>
                                    <value>1</value>
                                    <valuemin>1.58489319246111e-05</valuemin>
                                    <valuemax>10</valuemax>
                                </parameter>
                            </effect>
                        </filter>
                        <filter>
                            <enabled>true</enabled>
                            <start>0</start>
                            <end>94362</end>
                            <effect>
                                <name>Audio Pan</name>
                                <effectid>audiopan</effectid>
                                <effecttype>audiopan</effecttype>
                                <mediatype>audio</mediatype>
                                <effectcategory>audiopan</effectcategory>
                                <parameter>
                                    <name>Pan</name>
                                    <parameterid>pan</parameterid>
                                    <value>0</value>
                                    <valuemin>-1</valuemin>
                                    <valuemax>1</valuemax>
                                </parameter>
                            </effect>
                        </filter>
                        <link>
                            <linkclipref>IMG_0498.MOV 89</linkclipref>
                        </link>
                        <link>
                            <linkclipref>IMG_0498.MOV 141</linkclipref>
                        </link>
                    </clipitem>
                    <clipitem id="IMG_0498.MOV 142">
                        <name>IMG_0498.MOV</name>
                        <duration>94362</duration>
                        <rate>
                            <timebase>25</timebase>
                            <ntsc>false</ntsc>
                        </rate>
                        <start>53475</start>
                        <end>53865</end>
                        <enabled>true</enabled>
                        <in>52980</in>
                        <out>53370</out>
                        <file id="IMG_0498.MOV 2"/>
                        <filter>
                            <enabled>true</enabled>
                            <start>0</start>
                            <end>94362</end>
                            <effect>
                                <name>Audio Levels</name>
                                <effectid>audiolevels</effectid>
                                <effecttype>audiolevels</effecttype>
                                <mediatype>audio</mediatype>
                                <effectcategory>audiolevels</effectcategory>
                                <parameter>
                                    <name>Level</name>
                                    <parameterid>level</parameterid>
                                    <value>1</value>
                                    <valuemin>1.58489319246111e-05</valuemin>
                                    <valuemax>10</valuemax>
                                </parameter>
                            </effect>
                        </filter>
                        <filter>
                            <enabled>true</enabled>
                            <start>0</start>
                            <end>94362</end>
                            <effect>
                                <name>Audio Pan</name>
                                <effectid>audiopan</effectid>
                                <effecttype>audiopan</effecttype>
                                <mediatype>audio</mediatype>
                                <effectcategory>audiopan</effectcategory>
                                <parameter>
                                    <name>Pan</name>
                                    <parameterid>pan</parameterid>
                                    <value>0</value>
                                    <valuemin>-1</valuemin>
                                    <valuemax>1</valuemax>
                                </parameter>
                            </effect>
                        </filter>
                        <link>
                            <linkclipref>IMG_0498.MOV 91</linkclipref>
                        </link>
                        <link>
                            <linkclipref>IMG_0498.MOV 142</linkclipref>
                        </link>
                    </clipitem>
                    <clipitem id="IMG_0498.MOV 143">
                        <name>IMG_0498.MOV</name>
                        <duration>94362</duration>
                        <rate>
                            <timebase>25</timebase>
                            <ntsc>false</ntsc>
                        </rate>
                        <start>69454</start>
                        <end>69910</end>
                        <enabled>true</enabled>
                        <in>68565</in>
                        <out>69021</out>
                        <file id="IMG_0498.MOV 2"/>
                        <filter>
                            <enabled>true</enabled>
                            <start>0</start>
                            <end>94362</end>
                            <effect>
                                <name>Audio Levels</name>
                                <effectid>audiolevels</effectid>
                                <effecttype>audiolevels</effecttype>
                                <mediatype>audio</mediatype>
                                <effectcategory>audiolevels</effectcategory>
                                <parameter>
                                    <name>Level</name>
                                    <parameterid>level</parameterid>
                                    <value>1</value>
                                    <valuemin>1.58489319246111e-05</valuemin>
                                    <valuemax>10</valuemax>
                                </parameter>
                            </effect>
                        </filter>
                        <filter>
                            <enabled>true</enabled>
                            <start>0</start>
                            <end>94362</end>
                            <effect>
                                <name>Audio Pan</name>
                                <effectid>audiopan</effectid>
                                <effecttype>audiopan</effecttype>
                                <mediatype>audio</mediatype>
                                <effectcategory>audiopan</effectcategory>
                                <parameter>
                                    <name>Pan</name>
                                    <parameterid>pan</parameterid>
                                    <value>0</value>
                                    <valuemin>-1</valuemin>
                                    <valuemax>1</valuemax>
                                </parameter>
                            </effect>
                        </filter>
                        <link>
                            <linkclipref>IMG_0498.MOV 93</linkclipref>
                        </link>
                        <link>
                            <linkclipref>IMG_0498.MOV 143</linkclipref>
                        </link>
                    </clipitem>
                    <clipitem id="IMG_0498.MOV 144">
                        <name>IMG_0498.MOV</name>
                        <duration>94362</duration>
                        <rate>
                            <timebase>25</timebase>
                            <ntsc>false</ntsc>
                        </rate>
                        <start>70296</start>
                        <end>70554</end>
                        <enabled>true</enabled>
                        <in>69542</in>
                        <out>69800</out>
                        <file id="IMG_0498.MOV 2"/>
                        <filter>
                            <enabled>true</enabled>
                            <start>0</start>
                            <end>94362</end>
                            <effect>
                                <name>Audio Levels</name>
                                <effectid>audiolevels</effectid>
                                <effecttype>audiolevels</effecttype>
                                <mediatype>audio</mediatype>
                                <effectcategory>audiolevels</effectcategory>
                                <parameter>
                                    <name>Level</name>
                                    <parameterid>level</parameterid>
                                    <value>1</value>
                                    <valuemin>1.58489319246111e-05</valuemin>
                                    <valuemax>10</valuemax>
                                </parameter>
                            </effect>
                        </filter>
                        <filter>
                            <enabled>true</enabled>
                            <start>0</start>
                            <end>94362</end>
                            <effect>
                                <name>Audio Pan</name>
                                <effectid>audiopan</effectid>
                                <effecttype>audiopan</effecttype>
                                <mediatype>audio</mediatype>
                                <effectcategory>audiopan</effectcategory>
                                <parameter>
                                    <name>Pan</name>
                                    <parameterid>pan</parameterid>
                                    <value>0</value>
                                    <valuemin>-1</valuemin>
                                    <valuemax>1</valuemax>
                                </parameter>
                            </effect>
                        </filter>
                        <link>
                            <linkclipref>IMG_0498.MOV 95</linkclipref>
                        </link>
                        <link>
                            <linkclipref>IMG_0498.MOV 144</linkclipref>
                        </link>
                    </clipitem>
                    <enabled>false</enabled>
                    <locked>false</locked>
                </track>
                <track>
                    <clipitem id="2016-04-29 09_58_12.mov 25">
                        <name>2016-04-29 09_58_12.mov</name>
                        <duration>52858</duration>
                        <rate>
                            <timebase>25</timebase>
                            <ntsc>false</ntsc>
                        </rate>
                        <start>19877</start>
                        <end>20727</end>
                        <enabled>true</enabled>
                        <in>17284</in>
                        <out>18134</out>
                        <file id="2016-04-29 09_58_12.mov 2"/>
                        <filter>
                            <enabled>true</enabled>
                            <start>0</start>
                            <end>52858</end>
                            <effect>
                                <name>Audio Levels</name>
                                <effectid>audiolevels</effectid>
                                <effecttype>audiolevels</effecttype>
                                <mediatype>audio</mediatype>
                                <effectcategory>audiolevels</effectcategory>
                                <parameter>
                                    <name>Level</name>
                                    <parameterid>level</parameterid>
                                    <value>1</value>
                                    <valuemin>1.58489319246111e-05</valuemin>
                                    <valuemax>10</valuemax>
                                </parameter>
                            </effect>
                        </filter>
                        <filter>
                            <enabled>true</enabled>
                            <start>0</start>
                            <end>52858</end>
                            <effect>
                                <name>Audio Pan</name>
                                <effectid>audiopan</effectid>
                                <effecttype>audiopan</effecttype>
                                <mediatype>audio</mediatype>
                                <effectcategory>audiopan</effectcategory>
                                <parameter>
                                    <name>Pan</name>
                                    <parameterid>pan</parameterid>
                                    <value>0</value>
                                    <valuemin>-1</valuemin>
                                    <valuemax>1</valuemax>
                                </parameter>
                            </effect>
                        </filter>
                        <link>
                            <linkclipref>2016-04-29 09_58_12.mov 0</linkclipref>
                        </link>
                        <link>
                            <linkclipref>2016-04-29 09_58_12.mov 25</linkclipref>
                        </link>
                        <link>
                            <linkclipref>2016-04-29 09_58_12.mov 37</linkclipref>
                        </link>
                        <link>
                            <linkclipref>2016-04-29 09_58_12.mov 49</linkclipref>
                        </link>
                        <link>
                            <linkclipref>2016-04-29 09_58_12.mov 61</linkclipref>
                        </link>
                    </clipitem>
                    <clipitem id="2016-04-29 09_58_12.mov 26">
                        <name>2016-04-29 09_58_12.mov</name>
                        <duration>52858</duration>
                        <rate>
                            <timebase>25</timebase>
                            <ntsc>false</ntsc>
                        </rate>
                        <start>21013</start>
                        <end>21343</end>
                        <enabled>true</enabled>
                        <in>18420</in>
                        <out>18750</out>
                        <file id="2016-04-29 09_58_12.mov 2"/>
                        <filter>
                            <enabled>true</enabled>
                            <start>0</start>
                            <end>52858</end>
                            <effect>
                                <name>Audio Levels</name>
                                <effectid>audiolevels</effectid>
                                <effecttype>audiolevels</effecttype>
                                <mediatype>audio</mediatype>
                                <effectcategory>audiolevels</effectcategory>
                                <parameter>
                                    <name>Level</name>
                                    <parameterid>level</parameterid>
                                    <value>1</value>
                                    <valuemin>1.58489319246111e-05</valuemin>
                                    <valuemax>10</valuemax>
                                </parameter>
                            </effect>
                        </filter>
                        <filter>
                            <enabled>true</enabled>
                            <start>0</start>
                            <end>52858</end>
                            <effect>
                                <name>Audio Pan</name>
                                <effectid>audiopan</effectid>
                                <effecttype>audiopan</effecttype>
                                <mediatype>audio</mediatype>
                                <effectcategory>audiopan</effectcategory>
                                <parameter>
                                    <name>Pan</name>
                                    <parameterid>pan</parameterid>
                                    <value>0</value>
                                    <valuemin>-1</valuemin>
                                    <valuemax>1</valuemax>
                                </parameter>
                            </effect>
                        </filter>
                        <link>
                            <linkclipref>2016-04-29 09_58_12.mov 3</linkclipref>
                        </link>
                        <link>
                            <linkclipref>2016-04-29 09_58_12.mov 26</linkclipref>
                        </link>
                        <link>
                            <linkclipref>2016-04-29 09_58_12.mov 38</linkclipref>
                        </link>
                        <link>
                            <linkclipref>2016-04-29 09_58_12.mov 50</linkclipref>
                        </link>
                        <link>
                            <linkclipref>2016-04-29 09_58_12.mov 62</linkclipref>
                        </link>
                    </clipitem>
                    <clipitem id="2016-04-29 09_58_12.mov 27">
                        <name>2016-04-29 09_58_12.mov</name>
                        <duration>52858</duration>
                        <rate>
                            <timebase>25</timebase>
                            <ntsc>false</ntsc>
                        </rate>
                        <start>22304</start>
                        <end>22519</end>
                        <enabled>true</enabled>
                        <in>19790</in>
                        <out>20005</out>
                        <file id="2016-04-29 09_58_12.mov 2"/>
                        <filter>
                            <enabled>true</enabled>
                            <start>0</start>
                            <end>52858</end>
                            <effect>
                                <name>Audio Levels</name>
                                <effectid>audiolevels</effectid>
                                <effecttype>audiolevels</effecttype>
                                <mediatype>audio</mediatype>
                                <effectcategory>audiolevels</effectcategory>
                                <parameter>
                                    <name>Level</name>
                                    <parameterid>level</parameterid>
                                    <value>1</value>
                                    <valuemin>1.58489319246111e-05</valuemin>
                                    <valuemax>10</valuemax>
                                </parameter>
                            </effect>
                        </filter>
                        <filter>
                            <enabled>true</enabled>
                            <start>0</start>
                            <end>52858</end>
                            <effect>
                                <name>Audio Pan</name>
                                <effectid>audiopan</effectid>
                                <effecttype>audiopan</effecttype>
                                <mediatype>audio</mediatype>
                                <effectcategory>audiopan</effectcategory>
                                <parameter>
                                    <name>Pan</name>
                                    <parameterid>pan</parameterid>
                                    <value>0</value>
                                    <valuemin>-1</valuemin>
                                    <valuemax>1</valuemax>
                                </parameter>
                            </effect>
                        </filter>
                        <link>
                            <linkclipref>2016-04-29 09_58_12.mov 5</linkclipref>
                        </link>
                        <link>
                            <linkclipref>2016-04-29 09_58_12.mov 27</linkclipref>
                        </link>
                        <link>
                            <linkclipref>2016-04-29 09_58_12.mov 39</linkclipref>
                        </link>
                        <link>
                            <linkclipref>2016-04-29 09_58_12.mov 51</linkclipref>
                        </link>
                        <link>
                            <linkclipref>2016-04-29 09_58_12.mov 63</linkclipref>
                        </link>
                    </clipitem>
                    <clipitem id="2016-04-29 09_58_12.mov 28">
                        <name>2016-04-29 09_58_12.mov</name>
                        <duration>52858</duration>
                        <rate>
                            <timebase>25</timebase>
                            <ntsc>false</ntsc>
                        </rate>
                        <start>22961</start>
                        <end>23292</end>
                        <enabled>true</enabled>
                        <in>20684</in>
                        <out>21015</out>
                        <file id="2016-04-29 09_58_12.mov 2"/>
                        <filter>
                            <enabled>true</enabled>
                            <start>0</start>
                            <end>52858</end>
                            <effect>
                                <name>Audio Levels</name>
                                <effectid>audiolevels</effectid>
                                <effecttype>audiolevels</effecttype>
                                <mediatype>audio</mediatype>
                                <effectcategory>audiolevels</effectcategory>
                                <parameter>
                                    <name>Level</name>
                                    <parameterid>level</parameterid>
                                    <value>1</value>
                                    <valuemin>1.58489319246111e-05</valuemin>
                                    <valuemax>10</valuemax>
                                </parameter>
                            </effect>
                        </filter>
                        <filter>
                            <enabled>true</enabled>
                            <start>0</start>
                            <end>52858</end>
                            <effect>
                                <name>Audio Pan</name>
                                <effectid>audiopan</effectid>
                                <effecttype>audiopan</effecttype>
                                <mediatype>audio</mediatype>
                                <effectcategory>audiopan</effectcategory>
                                <parameter>
                                    <name>Pan</name>
                                    <parameterid>pan</parameterid>
                                    <value>0</value>
                                    <valuemin>-1</valuemin>
                                    <valuemax>1</valuemax>
                                </parameter>
                            </effect>
                        </filter>
                        <link>
                            <linkclipref>2016-04-29 09_58_12.mov 7</linkclipref>
                        </link>
                        <link>
                            <linkclipref>2016-04-29 09_58_12.mov 28</linkclipref>
                        </link>
                        <link>
                            <linkclipref>2016-04-29 09_58_12.mov 40</linkclipref>
                        </link>
                        <link>
                            <linkclipref>2016-04-29 09_58_12.mov 52</linkclipref>
                        </link>
                        <link>
                            <linkclipref>2016-04-29 09_58_12.mov 64</linkclipref>
                        </link>
                    </clipitem>
                    <clipitem id="2016-04-29 09_58_12.mov 29">
                        <name>2016-04-29 09_58_12.mov</name>
                        <duration>52858</duration>
                        <rate>
                            <timebase>25</timebase>
                            <ntsc>false</ntsc>
                        </rate>
                        <start>23750</start>
                        <end>24027</end>
                        <enabled>true</enabled>
                        <in>21454</in>
                        <out>21731</out>
                        <file id="2016-04-29 09_58_12.mov 2"/>
                        <filter>
                            <enabled>true</enabled>
                            <start>0</start>
                            <end>52858</end>
                            <effect>
                                <name>Audio Levels</name>
                                <effectid>audiolevels</effectid>
                                <effecttype>audiolevels</effecttype>
                                <mediatype>audio</mediatype>
                                <effectcategory>audiolevels</effectcategory>
                                <parameter>
                                    <name>Level</name>
                                    <parameterid>level</parameterid>
                                    <value>1</value>
                                    <valuemin>1.58489319246111e-05</valuemin>
                                    <valuemax>10</valuemax>
                                </parameter>
                            </effect>
                        </filter>
                        <filter>
                            <enabled>true</enabled>
                            <start>0</start>
                            <end>52858</end>
                            <effect>
                                <name>Audio Pan</name>
                                <effectid>audiopan</effectid>
                                <effecttype>audiopan</effecttype>
                                <mediatype>audio</mediatype>
                                <effectcategory>audiopan</effectcategory>
                                <parameter>
                                    <name>Pan</name>
                                    <parameterid>pan</parameterid>
                                    <value>0</value>
                                    <valuemin>-1</valuemin>
                                    <valuemax>1</valuemax>
                                </parameter>
                            </effect>
                        </filter>
                        <link>
                            <linkclipref>2016-04-29 09_58_12.mov 9</linkclipref>
                        </link>
                        <link>
                            <linkclipref>2016-04-29 09_58_12.mov 29</linkclipref>
                        </link>
                        <link>
                            <linkclipref>2016-04-29 09_58_12.mov 41</linkclipref>
                        </link>
                        <link>
                            <linkclipref>2016-04-29 09_58_12.mov 53</linkclipref>
                        </link>
                        <link>
                            <linkclipref>2016-04-29 09_58_12.mov 65</linkclipref>
                        </link>
                    </clipitem>
                    <clipitem id="2016-04-29 09_58_12.mov 30">
                        <name>2016-04-29 09_58_12.mov</name>
                        <duration>52858</duration>
                        <rate>
                            <timebase>25</timebase>
                            <ntsc>false</ntsc>
                        </rate>
                        <start>24159</start>
                        <end>24606</end>
                        <enabled>true</enabled>
                        <in>21923</in>
                        <out>22370</out>
                        <file id="2016-04-29 09_58_12.mov 2"/>
                        <filter>
                            <enabled>true</enabled>
                            <start>0</start>
                            <end>52858</end>
                            <effect>
                                <name>Audio Levels</name>
                                <effectid>audiolevels</effectid>
                                <effecttype>audiolevels</effecttype>
                                <mediatype>audio</mediatype>
                                <effectcategory>audiolevels</effectcategory>
                                <parameter>
                                    <name>Level</name>
                                    <parameterid>level</parameterid>
                                    <value>1</value>
                                    <valuemin>1.58489319246111e-05</valuemin>
                                    <valuemax>10</valuemax>
                                </parameter>
                            </effect>
                        </filter>
                        <filter>
                            <enabled>true</enabled>
                            <start>0</start>
                            <end>52858</end>
                            <effect>
                                <name>Audio Pan</name>
                                <effectid>audiopan</effectid>
                                <effecttype>audiopan</effecttype>
                                <mediatype>audio</mediatype>
                                <effectcategory>audiopan</effectcategory>
                                <parameter>
                                    <name>Pan</name>
                                    <parameterid>pan</parameterid>
                                    <value>0</value>
                                    <valuemin>-1</valuemin>
                                    <valuemax>1</valuemax>
                                </parameter>
                            </effect>
                        </filter>
                        <link>
                            <linkclipref>2016-04-29 09_58_12.mov 11</linkclipref>
                        </link>
                        <link>
                            <linkclipref>2016-04-29 09_58_12.mov 30</linkclipref>
                        </link>
                        <link>
                            <linkclipref>2016-04-29 09_58_12.mov 42</linkclipref>
                        </link>
                        <link>
                            <linkclipref>2016-04-29 09_58_12.mov 54</linkclipref>
                        </link>
                        <link>
                            <linkclipref>2016-04-29 09_58_12.mov 66</linkclipref>
                        </link>
                    </clipitem>
                    <clipitem id="2016-04-29 09_58_12.mov 31">
                        <name>2016-04-29 09_58_12.mov</name>
                        <duration>52858</duration>
                        <rate>
                            <timebase>25</timebase>
                            <ntsc>false</ntsc>
                        </rate>
                        <start>25821</start>
                        <end>26515</end>
                        <enabled>true</enabled>
                        <in>23585</in>
                        <out>24279</out>
                        <file id="2016-04-29 09_58_12.mov 2"/>
                        <filter>
                            <enabled>true</enabled>
                            <start>0</start>
                            <end>52858</end>
                            <effect>
                                <name>Audio Levels</name>
                                <effectid>audiolevels</effectid>
                                <effecttype>audiolevels</effecttype>
                                <mediatype>audio</mediatype>
                                <effectcategory>audiolevels</effectcategory>
                                <parameter>
                                    <name>Level</name>
                                    <parameterid>level</parameterid>
                                    <value>1</value>
                                    <valuemin>1.58489319246111e-05</valuemin>
                                    <valuemax>10</valuemax>
                                </parameter>
                            </effect>
                        </filter>
                        <filter>
                            <enabled>true</enabled>
                            <start>0</start>
                            <end>52858</end>
                            <effect>
                                <name>Audio Pan</name>
                                <effectid>audiopan</effectid>
                                <effecttype>audiopan</effecttype>
                                <mediatype>audio</mediatype>
                                <effectcategory>audiopan</effectcategory>
                                <parameter>
                                    <name>Pan</name>
                                    <parameterid>pan</parameterid>
                                    <value>0</value>
                                    <valuemin>-1</valuemin>
                                    <valuemax>1</valuemax>
                                </parameter>
                            </effect>
                        </filter>
                        <link>
                            <linkclipref>2016-04-29 09_58_12.mov 13</linkclipref>
                        </link>
                        <link>
                            <linkclipref>2016-04-29 09_58_12.mov 31</linkclipref>
                        </link>
                        <link>
                            <linkclipref>2016-04-29 09_58_12.mov 43</linkclipref>
                        </link>
                        <link>
                            <linkclipref>2016-04-29 09_58_12.mov 55</linkclipref>
                        </link>
                        <link>
                            <linkclipref>2016-04-29 09_58_12.mov 67</linkclipref>
                        </link>
                    </clipitem>
                    <clipitem id="2016-04-29 09_58_12.mov 32">
                        <name>2016-04-29 09_58_12.mov</name>
                        <duration>52858</duration>
                        <rate>
                            <timebase>25</timebase>
                            <ntsc>false</ntsc>
                        </rate>
                        <start>27417</start>
                        <end>27737</end>
                        <enabled>true</enabled>
                        <in>25181</in>
                        <out>25501</out>
                        <file id="2016-04-29 09_58_12.mov 2"/>
                        <filter>
                            <enabled>true</enabled>
                            <start>0</start>
                            <end>52858</end>
                            <effect>
                                <name>Audio Levels</name>
                                <effectid>audiolevels</effectid>
                                <effecttype>audiolevels</effecttype>
                                <mediatype>audio</mediatype>
                                <effectcategory>audiolevels</effectcategory>
                                <parameter>
                                    <name>Level</name>
                                    <parameterid>level</parameterid>
                                    <value>1</value>
                                    <valuemin>1.58489319246111e-05</valuemin>
                                    <valuemax>10</valuemax>
                                </parameter>
                            </effect>
                        </filter>
                        <filter>
                            <enabled>true</enabled>
                            <start>0</start>
                            <end>52858</end>
                            <effect>
                                <name>Audio Pan</name>
                                <effectid>audiopan</effectid>
                                <effecttype>audiopan</effecttype>
                                <mediatype>audio</mediatype>
                                <effectcategory>audiopan</effectcategory>
                                <parameter>
                                    <name>Pan</name>
                                    <parameterid>pan</parameterid>
                                    <value>0</value>
                                    <valuemin>-1</valuemin>
                                    <valuemax>1</valuemax>
                                </parameter>
                            </effect>
                        </filter>
                        <link>
                            <linkclipref>2016-04-29 09_58_12.mov 15</linkclipref>
                        </link>
                        <link>
                            <linkclipref>2016-04-29 09_58_12.mov 32</linkclipref>
                        </link>
                        <link>
                            <linkclipref>2016-04-29 09_58_12.mov 44</linkclipref>
                        </link>
                        <link>
                            <linkclipref>2016-04-29 09_58_12.mov 56</linkclipref>
                        </link>
                        <link>
                            <linkclipref>2016-04-29 09_58_12.mov 68</linkclipref>
                        </link>
                    </clipitem>
                    <clipitem id="2016-04-29 09_58_12.mov 33">
                        <name>2016-04-29 09_58_12.mov</name>
                        <duration>52858</duration>
                        <rate>
                            <timebase>25</timebase>
                            <ntsc>false</ntsc>
                        </rate>
                        <start>28212</start>
                        <end>28571</end>
                        <enabled>true</enabled>
                        <in>26044</in>
                        <out>26403</out>
                        <file id="2016-04-29 09_58_12.mov 2"/>
                        <filter>
                            <enabled>true</enabled>
                            <start>0</start>
                            <end>52858</end>
                            <effect>
                                <name>Audio Levels</name>
                                <effectid>audiolevels</effectid>
                                <effecttype>audiolevels</effecttype>
                                <mediatype>audio</mediatype>
                                <effectcategory>audiolevels</effectcategory>
                                <parameter>
                                    <name>Level</name>
                                    <parameterid>level</parameterid>
                                    <value>1</value>
                                    <valuemin>1.58489319246111e-05</valuemin>
                                    <valuemax>10</valuemax>
                                </parameter>
                            </effect>
                        </filter>
                        <filter>
                            <enabled>true</enabled>
                            <start>0</start>
                            <end>52858</end>
                            <effect>
                                <name>Audio Pan</name>
                                <effectid>audiopan</effectid>
                                <effecttype>audiopan</effecttype>
                                <mediatype>audio</mediatype>
                                <effectcategory>audiopan</effectcategory>
                                <parameter>
                                    <name>Pan</name>
                                    <parameterid>pan</parameterid>
                                    <value>0</value>
                                    <valuemin>-1</valuemin>
                                    <valuemax>1</valuemax>
                                </parameter>
                            </effect>
                        </filter>
                        <link>
                            <linkclipref>2016-04-29 09_58_12.mov 17</linkclipref>
                        </link>
                        <link>
                            <linkclipref>2016-04-29 09_58_12.mov 33</linkclipref>
                        </link>
                        <link>
                            <linkclipref>2016-04-29 09_58_12.mov 45</linkclipref>
                        </link>
                        <link>
                            <linkclipref>2016-04-29 09_58_12.mov 57</linkclipref>
                        </link>
                        <link>
                            <linkclipref>2016-04-29 09_58_12.mov 69</linkclipref>
                        </link>
                    </clipitem>
                    <clipitem id="2016-04-29 09_58_12.mov 34">
                        <name>2016-04-29 09_58_12.mov</name>
                        <duration>52858</duration>
                        <rate>
                            <timebase>25</timebase>
                            <ntsc>false</ntsc>
                        </rate>
                        <start>28911</start>
                        <end>29201</end>
                        <enabled>true</enabled>
                        <in>26474</in>
                        <out>26764</out>
                        <file id="2016-04-29 09_58_12.mov 2"/>
                        <filter>
                            <enabled>true</enabled>
                            <start>0</start>
                            <end>52858</end>
                            <effect>
                                <name>Audio Levels</name>
                                <effectid>audiolevels</effectid>
                                <effecttype>audiolevels</effecttype>
                                <mediatype>audio</mediatype>
                                <effectcategory>audiolevels</effectcategory>
                                <parameter>
                                    <name>Level</name>
                                    <parameterid>level</parameterid>
                                    <value>1</value>
                                    <valuemin>1.58489319246111e-05</valuemin>
                                    <valuemax>10</valuemax>
                                </parameter>
                            </effect>
                        </filter>
                        <filter>
                            <enabled>true</enabled>
                            <start>0</start>
                            <end>52858</end>
                            <effect>
                                <name>Audio Pan</name>
                                <effectid>audiopan</effectid>
                                <effecttype>audiopan</effecttype>
                                <mediatype>audio</mediatype>
                                <effectcategory>audiopan</effectcategory>
                                <parameter>
                                    <name>Pan</name>
                                    <parameterid>pan</parameterid>
                                    <value>0</value>
                                    <valuemin>-1</valuemin>
                                    <valuemax>1</valuemax>
                                </parameter>
                            </effect>
                        </filter>
                        <link>
                            <linkclipref>2016-04-29 09_58_12.mov 19</linkclipref>
                        </link>
                        <link>
                            <linkclipref>2016-04-29 09_58_12.mov 34</linkclipref>
                        </link>
                        <link>
                            <linkclipref>2016-04-29 09_58_12.mov 46</linkclipref>
                        </link>
                        <link>
                            <linkclipref>2016-04-29 09_58_12.mov 58</linkclipref>
                        </link>
                        <link>
                            <linkclipref>2016-04-29 09_58_12.mov 70</linkclipref>
                        </link>
                    </clipitem>
                    <clipitem id="2016-04-29 09_58_12.mov 35">
                        <name>2016-04-29 09_58_12.mov</name>
                        <duration>52858</duration>
                        <rate>
                            <timebase>25</timebase>
                            <ntsc>false</ntsc>
                        </rate>
                        <start>31915</start>
                        <end>32668</end>
                        <enabled>true</enabled>
                        <in>29882</in>
                        <out>30635</out>
                        <file id="2016-04-29 09_58_12.mov 2"/>
                        <filter>
                            <enabled>true</enabled>
                            <start>0</start>
                            <end>52858</end>
                            <effect>
                                <name>Audio Levels</name>
                                <effectid>audiolevels</effectid>
                                <effecttype>audiolevels</effecttype>
                                <mediatype>audio</mediatype>
                                <effectcategory>audiolevels</effectcategory>
                                <parameter>
                                    <name>Level</name>
                                    <parameterid>level</parameterid>
                                    <value>1</value>
                                    <valuemin>1.58489319246111e-05</valuemin>
                                    <valuemax>10</valuemax>
                                </parameter>
                            </effect>
                        </filter>
                        <filter>
                            <enabled>true</enabled>
                            <start>0</start>
                            <end>52858</end>
                            <effect>
                                <name>Audio Pan</name>
                                <effectid>audiopan</effectid>
                                <effecttype>audiopan</effecttype>
                                <mediatype>audio</mediatype>
                                <effectcategory>audiopan</effectcategory>
                                <parameter>
                                    <name>Pan</name>
                                    <parameterid>pan</parameterid>
                                    <value>0</value>
                                    <valuemin>-1</valuemin>
                                    <valuemax>1</valuemax>
                                </parameter>
                            </effect>
                        </filter>
                        <link>
                            <linkclipref>2016-04-29 09_58_12.mov 21</linkclipref>
                        </link>
                        <link>
                            <linkclipref>2016-04-29 09_58_12.mov 35</linkclipref>
                        </link>
                        <link>
                            <linkclipref>2016-04-29 09_58_12.mov 47</linkclipref>
                        </link>
                        <link>
                            <linkclipref>2016-04-29 09_58_12.mov 59</linkclipref>
                        </link>
                        <link>
                            <linkclipref>2016-04-29 09_58_12.mov 71</linkclipref>
                        </link>
                    </clipitem>
                    <clipitem id="2016-04-29 09_58_12.mov 36">
                        <name>2016-04-29 09_58_12.mov</name>
                        <duration>52858</duration>
                        <rate>
                            <timebase>25</timebase>
                            <ntsc>false</ntsc>
                        </rate>
                        <start>44540</start>
                        <end>44741</end>
                        <enabled>true</enabled>
                        <in>43138</in>
                        <out>43339</out>
                        <file id="2016-04-29 09_58_12.mov 2"/>
                        <filter>
                            <enabled>true</enabled>
                            <start>0</start>
                            <end>52858</end>
                            <effect>
                                <name>Audio Levels</name>
                                <effectid>audiolevels</effectid>
                                <effecttype>audiolevels</effecttype>
                                <mediatype>audio</mediatype>
                                <effectcategory>audiolevels</effectcategory>
                                <parameter>
                                    <name>Level</name>
                                    <parameterid>level</parameterid>
                                    <value>1</value>
                                    <valuemin>1.58489319246111e-05</valuemin>
                                    <valuemax>10</valuemax>
                                </parameter>
                            </effect>
                        </filter>
                        <filter>
                            <enabled>true</enabled>
                            <start>0</start>
                            <end>52858</end>
                            <effect>
                                <name>Audio Pan</name>
                                <effectid>audiopan</effectid>
                                <effecttype>audiopan</effecttype>
                                <mediatype>audio</mediatype>
                                <effectcategory>audiopan</effectcategory>
                                <parameter>
                                    <name>Pan</name>
                                    <parameterid>pan</parameterid>
                                    <value>0</value>
                                    <valuemin>-1</valuemin>
                                    <valuemax>1</valuemax>
                                </parameter>
                            </effect>
                        </filter>
                        <link>
                            <linkclipref>2016-04-29 09_58_12.mov 23</linkclipref>
                        </link>
                        <link>
                            <linkclipref>2016-04-29 09_58_12.mov 36</linkclipref>
                        </link>
                        <link>
                            <linkclipref>2016-04-29 09_58_12.mov 48</linkclipref>
                        </link>
                        <link>
                            <linkclipref>2016-04-29 09_58_12.mov 60</linkclipref>
                        </link>
                        <link>
                            <linkclipref>2016-04-29 09_58_12.mov 72</linkclipref>
                        </link>
                    </clipitem>
                    <enabled>false</enabled>
                    <locked>false</locked>
                </track>
                <track>
                    <clipitem id="2016-04-29 09_58_12.mov 37">
                        <name>2016-04-29 09_58_12.mov</name>
                        <duration>52858</duration>
                        <rate>
                            <timebase>25</timebase>
                            <ntsc>false</ntsc>
                        </rate>
                        <start>19877</start>
                        <end>20727</end>
                        <enabled>true</enabled>
                        <in>17284</in>
                        <out>18134</out>
                        <file id="2016-04-29 09_58_12.mov 2"/>
                        <filter>
                            <enabled>true</enabled>
                            <start>0</start>
                            <end>52858</end>
                            <effect>
                                <name>Audio Levels</name>
                                <effectid>audiolevels</effectid>
                                <effecttype>audiolevels</effecttype>
                                <mediatype>audio</mediatype>
                                <effectcategory>audiolevels</effectcategory>
                                <parameter>
                                    <name>Level</name>
                                    <parameterid>level</parameterid>
                                    <value>1</value>
                                    <valuemin>1.58489319246111e-05</valuemin>
                                    <valuemax>10</valuemax>
                                </parameter>
                            </effect>
                        </filter>
                        <filter>
                            <enabled>true</enabled>
                            <start>0</start>
                            <end>52858</end>
                            <effect>
                                <name>Audio Pan</name>
                                <effectid>audiopan</effectid>
                                <effecttype>audiopan</effecttype>
                                <mediatype>audio</mediatype>
                                <effectcategory>audiopan</effectcategory>
                                <parameter>
                                    <name>Pan</name>
                                    <parameterid>pan</parameterid>
                                    <value>0</value>
                                    <valuemin>-1</valuemin>
                                    <valuemax>1</valuemax>
                                </parameter>
                            </effect>
                        </filter>
                        <link>
                            <linkclipref>2016-04-29 09_58_12.mov 0</linkclipref>
                        </link>
                        <link>
                            <linkclipref>2016-04-29 09_58_12.mov 25</linkclipref>
                        </link>
                        <link>
                            <linkclipref>2016-04-29 09_58_12.mov 37</linkclipref>
                        </link>
                        <link>
                            <linkclipref>2016-04-29 09_58_12.mov 49</linkclipref>
                        </link>
                        <link>
                            <linkclipref>2016-04-29 09_58_12.mov 61</linkclipref>
                        </link>
                    </clipitem>
                    <clipitem id="2016-04-29 09_58_12.mov 38">
                        <name>2016-04-29 09_58_12.mov</name>
                        <duration>52858</duration>
                        <rate>
                            <timebase>25</timebase>
                            <ntsc>false</ntsc>
                        </rate>
                        <start>21013</start>
                        <end>21343</end>
                        <enabled>true</enabled>
                        <in>18420</in>
                        <out>18750</out>
                        <file id="2016-04-29 09_58_12.mov 2"/>
                        <filter>
                            <enabled>true</enabled>
                            <start>0</start>
                            <end>52858</end>
                            <effect>
                                <name>Audio Levels</name>
                                <effectid>audiolevels</effectid>
                                <effecttype>audiolevels</effecttype>
                                <mediatype>audio</mediatype>
                                <effectcategory>audiolevels</effectcategory>
                                <parameter>
                                    <name>Level</name>
                                    <parameterid>level</parameterid>
                                    <value>1</value>
                                    <valuemin>1.58489319246111e-05</valuemin>
                                    <valuemax>10</valuemax>
                                </parameter>
                            </effect>
                        </filter>
                        <filter>
                            <enabled>true</enabled>
                            <start>0</start>
                            <end>52858</end>
                            <effect>
                                <name>Audio Pan</name>
                                <effectid>audiopan</effectid>
                                <effecttype>audiopan</effecttype>
                                <mediatype>audio</mediatype>
                                <effectcategory>audiopan</effectcategory>
                                <parameter>
                                    <name>Pan</name>
                                    <parameterid>pan</parameterid>
                                    <value>0</value>
                                    <valuemin>-1</valuemin>
                                    <valuemax>1</valuemax>
                                </parameter>
                            </effect>
                        </filter>
                        <link>
                            <linkclipref>2016-04-29 09_58_12.mov 3</linkclipref>
                        </link>
                        <link>
                            <linkclipref>2016-04-29 09_58_12.mov 26</linkclipref>
                        </link>
                        <link>
                            <linkclipref>2016-04-29 09_58_12.mov 38</linkclipref>
                        </link>
                        <link>
                            <linkclipref>2016-04-29 09_58_12.mov 50</linkclipref>
                        </link>
                        <link>
                            <linkclipref>2016-04-29 09_58_12.mov 62</linkclipref>
                        </link>
                    </clipitem>
                    <clipitem id="2016-04-29 09_58_12.mov 39">
                        <name>2016-04-29 09_58_12.mov</name>
                        <duration>52858</duration>
                        <rate>
                            <timebase>25</timebase>
                            <ntsc>false</ntsc>
                        </rate>
                        <start>22304</start>
                        <end>22519</end>
                        <enabled>true</enabled>
                        <in>19790</in>
                        <out>20005</out>
                        <file id="2016-04-29 09_58_12.mov 2"/>
                        <filter>
                            <enabled>true</enabled>
                            <start>0</start>
                            <end>52858</end>
                            <effect>
                                <name>Audio Levels</name>
                                <effectid>audiolevels</effectid>
                                <effecttype>audiolevels</effecttype>
                                <mediatype>audio</mediatype>
                                <effectcategory>audiolevels</effectcategory>
                                <parameter>
                                    <name>Level</name>
                                    <parameterid>level</parameterid>
                                    <value>1</value>
                                    <valuemin>1.58489319246111e-05</valuemin>
                                    <valuemax>10</valuemax>
                                </parameter>
                            </effect>
                        </filter>
                        <filter>
                            <enabled>true</enabled>
                            <start>0</start>
                            <end>52858</end>
                            <effect>
                                <name>Audio Pan</name>
                                <effectid>audiopan</effectid>
                                <effecttype>audiopan</effecttype>
                                <mediatype>audio</mediatype>
                                <effectcategory>audiopan</effectcategory>
                                <parameter>
                                    <name>Pan</name>
                                    <parameterid>pan</parameterid>
                                    <value>0</value>
                                    <valuemin>-1</valuemin>
                                    <valuemax>1</valuemax>
                                </parameter>
                            </effect>
                        </filter>
                        <link>
                            <linkclipref>2016-04-29 09_58_12.mov 5</linkclipref>
                        </link>
                        <link>
                            <linkclipref>2016-04-29 09_58_12.mov 27</linkclipref>
                        </link>
                        <link>
                            <linkclipref>2016-04-29 09_58_12.mov 39</linkclipref>
                        </link>
                        <link>
                            <linkclipref>2016-04-29 09_58_12.mov 51</linkclipref>
                        </link>
                        <link>
                            <linkclipref>2016-04-29 09_58_12.mov 63</linkclipref>
                        </link>
                    </clipitem>
                    <clipitem id="2016-04-29 09_58_12.mov 40">
                        <name>2016-04-29 09_58_12.mov</name>
                        <duration>52858</duration>
                        <rate>
                            <timebase>25</timebase>
                            <ntsc>false</ntsc>
                        </rate>
                        <start>22961</start>
                        <end>23292</end>
                        <enabled>true</enabled>
                        <in>20684</in>
                        <out>21015</out>
                        <file id="2016-04-29 09_58_12.mov 2"/>
                        <filter>
                            <enabled>true</enabled>
                            <start>0</start>
                            <end>52858</end>
                            <effect>
                                <name>Audio Levels</name>
                                <effectid>audiolevels</effectid>
                                <effecttype>audiolevels</effecttype>
                                <mediatype>audio</mediatype>
                                <effectcategory>audiolevels</effectcategory>
                                <parameter>
                                    <name>Level</name>
                                    <parameterid>level</parameterid>
                                    <value>1</value>
                                    <valuemin>1.58489319246111e-05</valuemin>
                                    <valuemax>10</valuemax>
                                </parameter>
                            </effect>
                        </filter>
                        <filter>
                            <enabled>true</enabled>
                            <start>0</start>
                            <end>52858</end>
                            <effect>
                                <name>Audio Pan</name>
                                <effectid>audiopan</effectid>
                                <effecttype>audiopan</effecttype>
                                <mediatype>audio</mediatype>
                                <effectcategory>audiopan</effectcategory>
                                <parameter>
                                    <name>Pan</name>
                                    <parameterid>pan</parameterid>
                                    <value>0</value>
                                    <valuemin>-1</valuemin>
                                    <valuemax>1</valuemax>
                                </parameter>
                            </effect>
                        </filter>
                        <link>
                            <linkclipref>2016-04-29 09_58_12.mov 7</linkclipref>
                        </link>
                        <link>
                            <linkclipref>2016-04-29 09_58_12.mov 28</linkclipref>
                        </link>
                        <link>
                            <linkclipref>2016-04-29 09_58_12.mov 40</linkclipref>
                        </link>
                        <link>
                            <linkclipref>2016-04-29 09_58_12.mov 52</linkclipref>
                        </link>
                        <link>
                            <linkclipref>2016-04-29 09_58_12.mov 64</linkclipref>
                        </link>
                    </clipitem>
                    <clipitem id="2016-04-29 09_58_12.mov 41">
                        <name>2016-04-29 09_58_12.mov</name>
                        <duration>52858</duration>
                        <rate>
                            <timebase>25</timebase>
                            <ntsc>false</ntsc>
                        </rate>
                        <start>23750</start>
                        <end>24027</end>
                        <enabled>true</enabled>
                        <in>21454</in>
                        <out>21731</out>
                        <file id="2016-04-29 09_58_12.mov 2"/>
                        <filter>
                            <enabled>true</enabled>
                            <start>0</start>
                            <end>52858</end>
                            <effect>
                                <name>Audio Levels</name>
                                <effectid>audiolevels</effectid>
                                <effecttype>audiolevels</effecttype>
                                <mediatype>audio</mediatype>
                                <effectcategory>audiolevels</effectcategory>
                                <parameter>
                                    <name>Level</name>
                                    <parameterid>level</parameterid>
                                    <value>1</value>
                                    <valuemin>1.58489319246111e-05</valuemin>
                                    <valuemax>10</valuemax>
                                </parameter>
                            </effect>
                        </filter>
                        <filter>
                            <enabled>true</enabled>
                            <start>0</start>
                            <end>52858</end>
                            <effect>
                                <name>Audio Pan</name>
                                <effectid>audiopan</effectid>
                                <effecttype>audiopan</effecttype>
                                <mediatype>audio</mediatype>
                                <effectcategory>audiopan</effectcategory>
                                <parameter>
                                    <name>Pan</name>
                                    <parameterid>pan</parameterid>
                                    <value>0</value>
                                    <valuemin>-1</valuemin>
                                    <valuemax>1</valuemax>
                                </parameter>
                            </effect>
                        </filter>
                        <link>
                            <linkclipref>2016-04-29 09_58_12.mov 9</linkclipref>
                        </link>
                        <link>
                            <linkclipref>2016-04-29 09_58_12.mov 29</linkclipref>
                        </link>
                        <link>
                            <linkclipref>2016-04-29 09_58_12.mov 41</linkclipref>
                        </link>
                        <link>
                            <linkclipref>2016-04-29 09_58_12.mov 53</linkclipref>
                        </link>
                        <link>
                            <linkclipref>2016-04-29 09_58_12.mov 65</linkclipref>
                        </link>
                    </clipitem>
                    <clipitem id="2016-04-29 09_58_12.mov 42">
                        <name>2016-04-29 09_58_12.mov</name>
                        <duration>52858</duration>
                        <rate>
                            <timebase>25</timebase>
                            <ntsc>false</ntsc>
                        </rate>
                        <start>24159</start>
                        <end>24606</end>
                        <enabled>true</enabled>
                        <in>21923</in>
                        <out>22370</out>
                        <file id="2016-04-29 09_58_12.mov 2"/>
                        <filter>
                            <enabled>true</enabled>
                            <start>0</start>
                            <end>52858</end>
                            <effect>
                                <name>Audio Levels</name>
                                <effectid>audiolevels</effectid>
                                <effecttype>audiolevels</effecttype>
                                <mediatype>audio</mediatype>
                                <effectcategory>audiolevels</effectcategory>
                                <parameter>
                                    <name>Level</name>
                                    <parameterid>level</parameterid>
                                    <value>1</value>
                                    <valuemin>1.58489319246111e-05</valuemin>
                                    <valuemax>10</valuemax>
                                </parameter>
                            </effect>
                        </filter>
                        <filter>
                            <enabled>true</enabled>
                            <start>0</start>
                            <end>52858</end>
                            <effect>
                                <name>Audio Pan</name>
                                <effectid>audiopan</effectid>
                                <effecttype>audiopan</effecttype>
                                <mediatype>audio</mediatype>
                                <effectcategory>audiopan</effectcategory>
                                <parameter>
                                    <name>Pan</name>
                                    <parameterid>pan</parameterid>
                                    <value>0</value>
                                    <valuemin>-1</valuemin>
                                    <valuemax>1</valuemax>
                                </parameter>
                            </effect>
                        </filter>
                        <link>
                            <linkclipref>2016-04-29 09_58_12.mov 11</linkclipref>
                        </link>
                        <link>
                            <linkclipref>2016-04-29 09_58_12.mov 30</linkclipref>
                        </link>
                        <link>
                            <linkclipref>2016-04-29 09_58_12.mov 42</linkclipref>
                        </link>
                        <link>
                            <linkclipref>2016-04-29 09_58_12.mov 54</linkclipref>
                        </link>
                        <link>
                            <linkclipref>2016-04-29 09_58_12.mov 66</linkclipref>
                        </link>
                    </clipitem>
                    <clipitem id="2016-04-29 09_58_12.mov 43">
                        <name>2016-04-29 09_58_12.mov</name>
                        <duration>52858</duration>
                        <rate>
                            <timebase>25</timebase>
                            <ntsc>false</ntsc>
                        </rate>
                        <start>25821</start>
                        <end>26515</end>
                        <enabled>true</enabled>
                        <in>23585</in>
                        <out>24279</out>
                        <file id="2016-04-29 09_58_12.mov 2"/>
                        <filter>
                            <enabled>true</enabled>
                            <start>0</start>
                            <end>52858</end>
                            <effect>
                                <name>Audio Levels</name>
                                <effectid>audiolevels</effectid>
                                <effecttype>audiolevels</effecttype>
                                <mediatype>audio</mediatype>
                                <effectcategory>audiolevels</effectcategory>
                                <parameter>
                                    <name>Level</name>
                                    <parameterid>level</parameterid>
                                    <value>1</value>
                                    <valuemin>1.58489319246111e-05</valuemin>
                                    <valuemax>10</valuemax>
                                </parameter>
                            </effect>
                        </filter>
                        <filter>
                            <enabled>true</enabled>
                            <start>0</start>
                            <end>52858</end>
                            <effect>
                                <name>Audio Pan</name>
                                <effectid>audiopan</effectid>
                                <effecttype>audiopan</effecttype>
                                <mediatype>audio</mediatype>
                                <effectcategory>audiopan</effectcategory>
                                <parameter>
                                    <name>Pan</name>
                                    <parameterid>pan</parameterid>
                                    <value>0</value>
                                    <valuemin>-1</valuemin>
                                    <valuemax>1</valuemax>
                                </parameter>
                            </effect>
                        </filter>
                        <link>
                            <linkclipref>2016-04-29 09_58_12.mov 13</linkclipref>
                        </link>
                        <link>
                            <linkclipref>2016-04-29 09_58_12.mov 31</linkclipref>
                        </link>
                        <link>
                            <linkclipref>2016-04-29 09_58_12.mov 43</linkclipref>
                        </link>
                        <link>
                            <linkclipref>2016-04-29 09_58_12.mov 55</linkclipref>
                        </link>
                        <link>
                            <linkclipref>2016-04-29 09_58_12.mov 67</linkclipref>
                        </link>
                    </clipitem>
                    <clipitem id="2016-04-29 09_58_12.mov 44">
                        <name>2016-04-29 09_58_12.mov</name>
                        <duration>52858</duration>
                        <rate>
                            <timebase>25</timebase>
                            <ntsc>false</ntsc>
                        </rate>
                        <start>27417</start>
                        <end>27737</end>
                        <enabled>true</enabled>
                        <in>25181</in>
                        <out>25501</out>
                        <file id="2016-04-29 09_58_12.mov 2"/>
                        <filter>
                            <enabled>true</enabled>
                            <start>0</start>
                            <end>52858</end>
                            <effect>
                                <name>Audio Levels</name>
                                <effectid>audiolevels</effectid>
                                <effecttype>audiolevels</effecttype>
                                <mediatype>audio</mediatype>
                                <effectcategory>audiolevels</effectcategory>
                                <parameter>
                                    <name>Level</name>
                                    <parameterid>level</parameterid>
                                    <value>1</value>
                                    <valuemin>1.58489319246111e-05</valuemin>
                                    <valuemax>10</valuemax>
                                </parameter>
                            </effect>
                        </filter>
                        <filter>
                            <enabled>true</enabled>
                            <start>0</start>
                            <end>52858</end>
                            <effect>
                                <name>Audio Pan</name>
                                <effectid>audiopan</effectid>
                                <effecttype>audiopan</effecttype>
                                <mediatype>audio</mediatype>
                                <effectcategory>audiopan</effectcategory>
                                <parameter>
                                    <name>Pan</name>
                                    <parameterid>pan</parameterid>
                                    <value>0</value>
                                    <valuemin>-1</valuemin>
                                    <valuemax>1</valuemax>
                                </parameter>
                            </effect>
                        </filter>
                        <link>
                            <linkclipref>2016-04-29 09_58_12.mov 15</linkclipref>
                        </link>
                        <link>
                            <linkclipref>2016-04-29 09_58_12.mov 32</linkclipref>
                        </link>
                        <link>
                            <linkclipref>2016-04-29 09_58_12.mov 44</linkclipref>
                        </link>
                        <link>
                            <linkclipref>2016-04-29 09_58_12.mov 56</linkclipref>
                        </link>
                        <link>
                            <linkclipref>2016-04-29 09_58_12.mov 68</linkclipref>
                        </link>
                    </clipitem>
                    <clipitem id="2016-04-29 09_58_12.mov 45">
                        <name>2016-04-29 09_58_12.mov</name>
                        <duration>52858</duration>
                        <rate>
                            <timebase>25</timebase>
                            <ntsc>false</ntsc>
                        </rate>
                        <start>28212</start>
                        <end>28571</end>
                        <enabled>true</enabled>
                        <in>26044</in>
                        <out>26403</out>
                        <file id="2016-04-29 09_58_12.mov 2"/>
                        <filter>
                            <enabled>true</enabled>
                            <start>0</start>
                            <end>52858</end>
                            <effect>
                                <name>Audio Levels</name>
                                <effectid>audiolevels</effectid>
                                <effecttype>audiolevels</effecttype>
                                <mediatype>audio</mediatype>
                                <effectcategory>audiolevels</effectcategory>
                                <parameter>
                                    <name>Level</name>
                                    <parameterid>level</parameterid>
                                    <value>1</value>
                                    <valuemin>1.58489319246111e-05</valuemin>
                                    <valuemax>10</valuemax>
                                </parameter>
                            </effect>
                        </filter>
                        <filter>
                            <enabled>true</enabled>
                            <start>0</start>
                            <end>52858</end>
                            <effect>
                                <name>Audio Pan</name>
                                <effectid>audiopan</effectid>
                                <effecttype>audiopan</effecttype>
                                <mediatype>audio</mediatype>
                                <effectcategory>audiopan</effectcategory>
                                <parameter>
                                    <name>Pan</name>
                                    <parameterid>pan</parameterid>
                                    <value>0</value>
                                    <valuemin>-1</valuemin>
                                    <valuemax>1</valuemax>
                                </parameter>
                            </effect>
                        </filter>
                        <link>
                            <linkclipref>2016-04-29 09_58_12.mov 17</linkclipref>
                        </link>
                        <link>
                            <linkclipref>2016-04-29 09_58_12.mov 33</linkclipref>
                        </link>
                        <link>
                            <linkclipref>2016-04-29 09_58_12.mov 45</linkclipref>
                        </link>
                        <link>
                            <linkclipref>2016-04-29 09_58_12.mov 57</linkclipref>
                        </link>
                        <link>
                            <linkclipref>2016-04-29 09_58_12.mov 69</linkclipref>
                        </link>
                    </clipitem>
                    <clipitem id="2016-04-29 09_58_12.mov 46">
                        <name>2016-04-29 09_58_12.mov</name>
                        <duration>52858</duration>
                        <rate>
                            <timebase>25</timebase>
                            <ntsc>false</ntsc>
                        </rate>
                        <start>28911</start>
                        <end>29201</end>
                        <enabled>true</enabled>
                        <in>26474</in>
                        <out>26764</out>
                        <file id="2016-04-29 09_58_12.mov 2"/>
                        <filter>
                            <enabled>true</enabled>
                            <start>0</start>
                            <end>52858</end>
                            <effect>
                                <name>Audio Levels</name>
                                <effectid>audiolevels</effectid>
                                <effecttype>audiolevels</effecttype>
                                <mediatype>audio</mediatype>
                                <effectcategory>audiolevels</effectcategory>
                                <parameter>
                                    <name>Level</name>
                                    <parameterid>level</parameterid>
                                    <value>1</value>
                                    <valuemin>1.58489319246111e-05</valuemin>
                                    <valuemax>10</valuemax>
                                </parameter>
                            </effect>
                        </filter>
                        <filter>
                            <enabled>true</enabled>
                            <start>0</start>
                            <end>52858</end>
                            <effect>
                                <name>Audio Pan</name>
                                <effectid>audiopan</effectid>
                                <effecttype>audiopan</effecttype>
                                <mediatype>audio</mediatype>
                                <effectcategory>audiopan</effectcategory>
                                <parameter>
                                    <name>Pan</name>
                                    <parameterid>pan</parameterid>
                                    <value>0</value>
                                    <valuemin>-1</valuemin>
                                    <valuemax>1</valuemax>
                                </parameter>
                            </effect>
                        </filter>
                        <link>
                            <linkclipref>2016-04-29 09_58_12.mov 19</linkclipref>
                        </link>
                        <link>
                            <linkclipref>2016-04-29 09_58_12.mov 34</linkclipref>
                        </link>
                        <link>
                            <linkclipref>2016-04-29 09_58_12.mov 46</linkclipref>
                        </link>
                        <link>
                            <linkclipref>2016-04-29 09_58_12.mov 58</linkclipref>
                        </link>
                        <link>
                            <linkclipref>2016-04-29 09_58_12.mov 70</linkclipref>
                        </link>
                    </clipitem>
                    <clipitem id="2016-04-29 09_58_12.mov 47">
                        <name>2016-04-29 09_58_12.mov</name>
                        <duration>52858</duration>
                        <rate>
                            <timebase>25</timebase>
                            <ntsc>false</ntsc>
                        </rate>
                        <start>31915</start>
                        <end>32668</end>
                        <enabled>true</enabled>
                        <in>29882</in>
                        <out>30635</out>
                        <file id="2016-04-29 09_58_12.mov 2"/>
                        <filter>
                            <enabled>true</enabled>
                            <start>0</start>
                            <end>52858</end>
                            <effect>
                                <name>Audio Levels</name>
                                <effectid>audiolevels</effectid>
                                <effecttype>audiolevels</effecttype>
                                <mediatype>audio</mediatype>
                                <effectcategory>audiolevels</effectcategory>
                                <parameter>
                                    <name>Level</name>
                                    <parameterid>level</parameterid>
                                    <value>1</value>
                                    <valuemin>1.58489319246111e-05</valuemin>
                                    <valuemax>10</valuemax>
                                </parameter>
                            </effect>
                        </filter>
                        <filter>
                            <enabled>true</enabled>
                            <start>0</start>
                            <end>52858</end>
                            <effect>
                                <name>Audio Pan</name>
                                <effectid>audiopan</effectid>
                                <effecttype>audiopan</effecttype>
                                <mediatype>audio</mediatype>
                                <effectcategory>audiopan</effectcategory>
                                <parameter>
                                    <name>Pan</name>
                                    <parameterid>pan</parameterid>
                                    <value>0</value>
                                    <valuemin>-1</valuemin>
                                    <valuemax>1</valuemax>
                                </parameter>
                            </effect>
                        </filter>
                        <link>
                            <linkclipref>2016-04-29 09_58_12.mov 21</linkclipref>
                        </link>
                        <link>
                            <linkclipref>2016-04-29 09_58_12.mov 35</linkclipref>
                        </link>
                        <link>
                            <linkclipref>2016-04-29 09_58_12.mov 47</linkclipref>
                        </link>
                        <link>
                            <linkclipref>2016-04-29 09_58_12.mov 59</linkclipref>
                        </link>
                        <link>
                            <linkclipref>2016-04-29 09_58_12.mov 71</linkclipref>
                        </link>
                    </clipitem>
                    <clipitem id="2016-04-29 09_58_12.mov 48">
                        <name>2016-04-29 09_58_12.mov</name>
                        <duration>52858</duration>
                        <rate>
                            <timebase>25</timebase>
                            <ntsc>false</ntsc>
                        </rate>
                        <start>44540</start>
                        <end>44741</end>
                        <enabled>true</enabled>
                        <in>43138</in>
                        <out>43339</out>
                        <file id="2016-04-29 09_58_12.mov 2"/>
                        <filter>
                            <enabled>true</enabled>
                            <start>0</start>
                            <end>52858</end>
                            <effect>
                                <name>Audio Levels</name>
                                <effectid>audiolevels</effectid>
                                <effecttype>audiolevels</effecttype>
                                <mediatype>audio</mediatype>
                                <effectcategory>audiolevels</effectcategory>
                                <parameter>
                                    <name>Level</name>
                                    <parameterid>level</parameterid>
                                    <value>1</value>
                                    <valuemin>1.58489319246111e-05</valuemin>
                                    <valuemax>10</valuemax>
                                </parameter>
                            </effect>
                        </filter>
                        <filter>
                            <enabled>true</enabled>
                            <start>0</start>
                            <end>52858</end>
                            <effect>
                                <name>Audio Pan</name>
                                <effectid>audiopan</effectid>
                                <effecttype>audiopan</effecttype>
                                <mediatype>audio</mediatype>
                                <effectcategory>audiopan</effectcategory>
                                <parameter>
                                    <name>Pan</name>
                                    <parameterid>pan</parameterid>
                                    <value>0</value>
                                    <valuemin>-1</valuemin>
                                    <valuemax>1</valuemax>
                                </parameter>
                            </effect>
                        </filter>
                        <link>
                            <linkclipref>2016-04-29 09_58_12.mov 23</linkclipref>
                        </link>
                        <link>
                            <linkclipref>2016-04-29 09_58_12.mov 36</linkclipref>
                        </link>
                        <link>
                            <linkclipref>2016-04-29 09_58_12.mov 48</linkclipref>
                        </link>
                        <link>
                            <linkclipref>2016-04-29 09_58_12.mov 60</linkclipref>
                        </link>
                        <link>
                            <linkclipref>2016-04-29 09_58_12.mov 72</linkclipref>
                        </link>
                    </clipitem>
                    <enabled>false</enabled>
                    <locked>false</locked>
                </track>
                <track>
                    <clipitem id="2016-04-29 09_58_12.mov 49">
                        <name>2016-04-29 09_58_12.mov</name>
                        <duration>52858</duration>
                        <rate>
                            <timebase>25</timebase>
                            <ntsc>false</ntsc>
                        </rate>
                        <start>19877</start>
                        <end>20727</end>
                        <enabled>true</enabled>
                        <in>17284</in>
                        <out>18134</out>
                        <file id="2016-04-29 09_58_12.mov 2"/>
                        <filter>
                            <enabled>true</enabled>
                            <start>0</start>
                            <end>52858</end>
                            <effect>
                                <name>Audio Levels</name>
                                <effectid>audiolevels</effectid>
                                <effecttype>audiolevels</effecttype>
                                <mediatype>audio</mediatype>
                                <effectcategory>audiolevels</effectcategory>
                                <parameter>
                                    <name>Level</name>
                                    <parameterid>level</parameterid>
                                    <value>1</value>
                                    <valuemin>1.58489319246111e-05</valuemin>
                                    <valuemax>10</valuemax>
                                </parameter>
                            </effect>
                        </filter>
                        <filter>
                            <enabled>true</enabled>
                            <start>0</start>
                            <end>52858</end>
                            <effect>
                                <name>Audio Pan</name>
                                <effectid>audiopan</effectid>
                                <effecttype>audiopan</effecttype>
                                <mediatype>audio</mediatype>
                                <effectcategory>audiopan</effectcategory>
                                <parameter>
                                    <name>Pan</name>
                                    <parameterid>pan</parameterid>
                                    <value>0</value>
                                    <valuemin>-1</valuemin>
                                    <valuemax>1</valuemax>
                                </parameter>
                            </effect>
                        </filter>
                        <link>
                            <linkclipref>2016-04-29 09_58_12.mov 0</linkclipref>
                        </link>
                        <link>
                            <linkclipref>2016-04-29 09_58_12.mov 37</linkclipref>
                        </link>
                        <link>
                            <linkclipref>2016-04-29 09_58_12.mov 25</linkclipref>
                        </link>
                        <link>
                            <linkclipref>2016-04-29 09_58_12.mov 49</linkclipref>
                        </link>
                        <link>
                            <linkclipref>2016-04-29 09_58_12.mov 61</linkclipref>
                        </link>
                    </clipitem>
                    <clipitem id="2016-04-29 09_58_12.mov 50">
                        <name>2016-04-29 09_58_12.mov</name>
                        <duration>52858</duration>
                        <rate>
                            <timebase>25</timebase>
                            <ntsc>false</ntsc>
                        </rate>
                        <start>21013</start>
                        <end>21343</end>
                        <enabled>true</enabled>
                        <in>18420</in>
                        <out>18750</out>
                        <file id="2016-04-29 09_58_12.mov 2"/>
                        <filter>
                            <enabled>true</enabled>
                            <start>0</start>
                            <end>52858</end>
                            <effect>
                                <name>Audio Levels</name>
                                <effectid>audiolevels</effectid>
                                <effecttype>audiolevels</effecttype>
                                <mediatype>audio</mediatype>
                                <effectcategory>audiolevels</effectcategory>
                                <parameter>
                                    <name>Level</name>
                                    <parameterid>level</parameterid>
                                    <value>1</value>
                                    <valuemin>1.58489319246111e-05</valuemin>
                                    <valuemax>10</valuemax>
                                </parameter>
                            </effect>
                        </filter>
                        <filter>
                            <enabled>true</enabled>
                            <start>0</start>
                            <end>52858</end>
                            <effect>
                                <name>Audio Pan</name>
                                <effectid>audiopan</effectid>
                                <effecttype>audiopan</effecttype>
                                <mediatype>audio</mediatype>
                                <effectcategory>audiopan</effectcategory>
                                <parameter>
                                    <name>Pan</name>
                                    <parameterid>pan</parameterid>
                                    <value>0</value>
                                    <valuemin>-1</valuemin>
                                    <valuemax>1</valuemax>
                                </parameter>
                            </effect>
                        </filter>
                        <link>
                            <linkclipref>2016-04-29 09_58_12.mov 3</linkclipref>
                        </link>
                        <link>
                            <linkclipref>2016-04-29 09_58_12.mov 38</linkclipref>
                        </link>
                        <link>
                            <linkclipref>2016-04-29 09_58_12.mov 26</linkclipref>
                        </link>
                        <link>
                            <linkclipref>2016-04-29 09_58_12.mov 50</linkclipref>
                        </link>
                        <link>
                            <linkclipref>2016-04-29 09_58_12.mov 62</linkclipref>
                        </link>
                    </clipitem>
                    <clipitem id="2016-04-29 09_58_12.mov 51">
                        <name>2016-04-29 09_58_12.mov</name>
                        <duration>52858</duration>
                        <rate>
                            <timebase>25</timebase>
                            <ntsc>false</ntsc>
                        </rate>
                        <start>22304</start>
                        <end>22519</end>
                        <enabled>true</enabled>
                        <in>19790</in>
                        <out>20005</out>
                        <file id="2016-04-29 09_58_12.mov 2"/>
                        <filter>
                            <enabled>true</enabled>
                            <start>0</start>
                            <end>52858</end>
                            <effect>
                                <name>Audio Levels</name>
                                <effectid>audiolevels</effectid>
                                <effecttype>audiolevels</effecttype>
                                <mediatype>audio</mediatype>
                                <effectcategory>audiolevels</effectcategory>
                                <parameter>
                                    <name>Level</name>
                                    <parameterid>level</parameterid>
                                    <value>1</value>
                                    <valuemin>1.58489319246111e-05</valuemin>
                                    <valuemax>10</valuemax>
                                </parameter>
                            </effect>
                        </filter>
                        <filter>
                            <enabled>true</enabled>
                            <start>0</start>
                            <end>52858</end>
                            <effect>
                                <name>Audio Pan</name>
                                <effectid>audiopan</effectid>
                                <effecttype>audiopan</effecttype>
                                <mediatype>audio</mediatype>
                                <effectcategory>audiopan</effectcategory>
                                <parameter>
                                    <name>Pan</name>
                                    <parameterid>pan</parameterid>
                                    <value>0</value>
                                    <valuemin>-1</valuemin>
                                    <valuemax>1</valuemax>
                                </parameter>
                            </effect>
                        </filter>
                        <link>
                            <linkclipref>2016-04-29 09_58_12.mov 5</linkclipref>
                        </link>
                        <link>
                            <linkclipref>2016-04-29 09_58_12.mov 39</linkclipref>
                        </link>
                        <link>
                            <linkclipref>2016-04-29 09_58_12.mov 27</linkclipref>
                        </link>
                        <link>
                            <linkclipref>2016-04-29 09_58_12.mov 51</linkclipref>
                        </link>
                        <link>
                            <linkclipref>2016-04-29 09_58_12.mov 63</linkclipref>
                        </link>
                    </clipitem>
                    <clipitem id="2016-04-29 09_58_12.mov 52">
                        <name>2016-04-29 09_58_12.mov</name>
                        <duration>52858</duration>
                        <rate>
                            <timebase>25</timebase>
                            <ntsc>false</ntsc>
                        </rate>
                        <start>22961</start>
                        <end>23292</end>
                        <enabled>true</enabled>
                        <in>20684</in>
                        <out>21015</out>
                        <file id="2016-04-29 09_58_12.mov 2"/>
                        <filter>
                            <enabled>true</enabled>
                            <start>0</start>
                            <end>52858</end>
                            <effect>
                                <name>Audio Levels</name>
                                <effectid>audiolevels</effectid>
                                <effecttype>audiolevels</effecttype>
                                <mediatype>audio</mediatype>
                                <effectcategory>audiolevels</effectcategory>
                                <parameter>
                                    <name>Level</name>
                                    <parameterid>level</parameterid>
                                    <value>1</value>
                                    <valuemin>1.58489319246111e-05</valuemin>
                                    <valuemax>10</valuemax>
                                </parameter>
                            </effect>
                        </filter>
                        <filter>
                            <enabled>true</enabled>
                            <start>0</start>
                            <end>52858</end>
                            <effect>
                                <name>Audio Pan</name>
                                <effectid>audiopan</effectid>
                                <effecttype>audiopan</effecttype>
                                <mediatype>audio</mediatype>
                                <effectcategory>audiopan</effectcategory>
                                <parameter>
                                    <name>Pan</name>
                                    <parameterid>pan</parameterid>
                                    <value>0</value>
                                    <valuemin>-1</valuemin>
                                    <valuemax>1</valuemax>
                                </parameter>
                            </effect>
                        </filter>
                        <link>
                            <linkclipref>2016-04-29 09_58_12.mov 7</linkclipref>
                        </link>
                        <link>
                            <linkclipref>2016-04-29 09_58_12.mov 40</linkclipref>
                        </link>
                        <link>
                            <linkclipref>2016-04-29 09_58_12.mov 28</linkclipref>
                        </link>
                        <link>
                            <linkclipref>2016-04-29 09_58_12.mov 52</linkclipref>
                        </link>
                        <link>
                            <linkclipref>2016-04-29 09_58_12.mov 64</linkclipref>
                        </link>
                    </clipitem>
                    <clipitem id="2016-04-29 09_58_12.mov 53">
                        <name>2016-04-29 09_58_12.mov</name>
                        <duration>52858</duration>
                        <rate>
                            <timebase>25</timebase>
                            <ntsc>false</ntsc>
                        </rate>
                        <start>23750</start>
                        <end>24027</end>
                        <enabled>true</enabled>
                        <in>21454</in>
                        <out>21731</out>
                        <file id="2016-04-29 09_58_12.mov 2"/>
                        <filter>
                            <enabled>true</enabled>
                            <start>0</start>
                            <end>52858</end>
                            <effect>
                                <name>Audio Levels</name>
                                <effectid>audiolevels</effectid>
                                <effecttype>audiolevels</effecttype>
                                <mediatype>audio</mediatype>
                                <effectcategory>audiolevels</effectcategory>
                                <parameter>
                                    <name>Level</name>
                                    <parameterid>level</parameterid>
                                    <value>1</value>
                                    <valuemin>1.58489319246111e-05</valuemin>
                                    <valuemax>10</valuemax>
                                </parameter>
                            </effect>
                        </filter>
                        <filter>
                            <enabled>true</enabled>
                            <start>0</start>
                            <end>52858</end>
                            <effect>
                                <name>Audio Pan</name>
                                <effectid>audiopan</effectid>
                                <effecttype>audiopan</effecttype>
                                <mediatype>audio</mediatype>
                                <effectcategory>audiopan</effectcategory>
                                <parameter>
                                    <name>Pan</name>
                                    <parameterid>pan</parameterid>
                                    <value>0</value>
                                    <valuemin>-1</valuemin>
                                    <valuemax>1</valuemax>
                                </parameter>
                            </effect>
                        </filter>
                        <link>
                            <linkclipref>2016-04-29 09_58_12.mov 9</linkclipref>
                        </link>
                        <link>
                            <linkclipref>2016-04-29 09_58_12.mov 41</linkclipref>
                        </link>
                        <link>
                            <linkclipref>2016-04-29 09_58_12.mov 29</linkclipref>
                        </link>
                        <link>
                            <linkclipref>2016-04-29 09_58_12.mov 53</linkclipref>
                        </link>
                        <link>
                            <linkclipref>2016-04-29 09_58_12.mov 65</linkclipref>
                        </link>
                    </clipitem>
                    <clipitem id="2016-04-29 09_58_12.mov 54">
                        <name>2016-04-29 09_58_12.mov</name>
                        <duration>52858</duration>
                        <rate>
                            <timebase>25</timebase>
                            <ntsc>false</ntsc>
                        </rate>
                        <start>24159</start>
                        <end>24606</end>
                        <enabled>true</enabled>
                        <in>21923</in>
                        <out>22370</out>
                        <file id="2016-04-29 09_58_12.mov 2"/>
                        <filter>
                            <enabled>true</enabled>
                            <start>0</start>
                            <end>52858</end>
                            <effect>
                                <name>Audio Levels</name>
                                <effectid>audiolevels</effectid>
                                <effecttype>audiolevels</effecttype>
                                <mediatype>audio</mediatype>
                                <effectcategory>audiolevels</effectcategory>
                                <parameter>
                                    <name>Level</name>
                                    <parameterid>level</parameterid>
                                    <value>1</value>
                                    <valuemin>1.58489319246111e-05</valuemin>
                                    <valuemax>10</valuemax>
                                </parameter>
                            </effect>
                        </filter>
                        <filter>
                            <enabled>true</enabled>
                            <start>0</start>
                            <end>52858</end>
                            <effect>
                                <name>Audio Pan</name>
                                <effectid>audiopan</effectid>
                                <effecttype>audiopan</effecttype>
                                <mediatype>audio</mediatype>
                                <effectcategory>audiopan</effectcategory>
                                <parameter>
                                    <name>Pan</name>
                                    <parameterid>pan</parameterid>
                                    <value>0</value>
                                    <valuemin>-1</valuemin>
                                    <valuemax>1</valuemax>
                                </parameter>
                            </effect>
                        </filter>
                        <link>
                            <linkclipref>2016-04-29 09_58_12.mov 11</linkclipref>
                        </link>
                        <link>
                            <linkclipref>2016-04-29 09_58_12.mov 42</linkclipref>
                        </link>
                        <link>
                            <linkclipref>2016-04-29 09_58_12.mov 30</linkclipref>
                        </link>
                        <link>
                            <linkclipref>2016-04-29 09_58_12.mov 54</linkclipref>
                        </link>
                        <link>
                            <linkclipref>2016-04-29 09_58_12.mov 66</linkclipref>
                        </link>
                    </clipitem>
                    <clipitem id="2016-04-29 09_58_12.mov 55">
                        <name>2016-04-29 09_58_12.mov</name>
                        <duration>52858</duration>
                        <rate>
                            <timebase>25</timebase>
                            <ntsc>false</ntsc>
                        </rate>
                        <start>25821</start>
                        <end>26515</end>
                        <enabled>true</enabled>
                        <in>23585</in>
                        <out>24279</out>
                        <file id="2016-04-29 09_58_12.mov 2"/>
                        <filter>
                            <enabled>true</enabled>
                            <start>0</start>
                            <end>52858</end>
                            <effect>
                                <name>Audio Levels</name>
                                <effectid>audiolevels</effectid>
                                <effecttype>audiolevels</effecttype>
                                <mediatype>audio</mediatype>
                                <effectcategory>audiolevels</effectcategory>
                                <parameter>
                                    <name>Level</name>
                                    <parameterid>level</parameterid>
                                    <value>1</value>
                                    <valuemin>1.58489319246111e-05</valuemin>
                                    <valuemax>10</valuemax>
                                </parameter>
                            </effect>
                        </filter>
                        <filter>
                            <enabled>true</enabled>
                            <start>0</start>
                            <end>52858</end>
                            <effect>
                                <name>Audio Pan</name>
                                <effectid>audiopan</effectid>
                                <effecttype>audiopan</effecttype>
                                <mediatype>audio</mediatype>
                                <effectcategory>audiopan</effectcategory>
                                <parameter>
                                    <name>Pan</name>
                                    <parameterid>pan</parameterid>
                                    <value>0</value>
                                    <valuemin>-1</valuemin>
                                    <valuemax>1</valuemax>
                                </parameter>
                            </effect>
                        </filter>
                        <link>
                            <linkclipref>2016-04-29 09_58_12.mov 13</linkclipref>
                        </link>
                        <link>
                            <linkclipref>2016-04-29 09_58_12.mov 43</linkclipref>
                        </link>
                        <link>
                            <linkclipref>2016-04-29 09_58_12.mov 31</linkclipref>
                        </link>
                        <link>
                            <linkclipref>2016-04-29 09_58_12.mov 55</linkclipref>
                        </link>
                        <link>
                            <linkclipref>2016-04-29 09_58_12.mov 67</linkclipref>
                        </link>
                    </clipitem>
                    <clipitem id="2016-04-29 09_58_12.mov 56">
                        <name>2016-04-29 09_58_12.mov</name>
                        <duration>52858</duration>
                        <rate>
                            <timebase>25</timebase>
                            <ntsc>false</ntsc>
                        </rate>
                        <start>27417</start>
                        <end>27737</end>
                        <enabled>true</enabled>
                        <in>25181</in>
                        <out>25501</out>
                        <file id="2016-04-29 09_58_12.mov 2"/>
                        <filter>
                            <enabled>true</enabled>
                            <start>0</start>
                            <end>52858</end>
                            <effect>
                                <name>Audio Levels</name>
                                <effectid>audiolevels</effectid>
                                <effecttype>audiolevels</effecttype>
                                <mediatype>audio</mediatype>
                                <effectcategory>audiolevels</effectcategory>
                                <parameter>
                                    <name>Level</name>
                                    <parameterid>level</parameterid>
                                    <value>1</value>
                                    <valuemin>1.58489319246111e-05</valuemin>
                                    <valuemax>10</valuemax>
                                </parameter>
                            </effect>
                        </filter>
                        <filter>
                            <enabled>true</enabled>
                            <start>0</start>
                            <end>52858</end>
                            <effect>
                                <name>Audio Pan</name>
                                <effectid>audiopan</effectid>
                                <effecttype>audiopan</effecttype>
                                <mediatype>audio</mediatype>
                                <effectcategory>audiopan</effectcategory>
                                <parameter>
                                    <name>Pan</name>
                                    <parameterid>pan</parameterid>
                                    <value>0</value>
                                    <valuemin>-1</valuemin>
                                    <valuemax>1</valuemax>
                                </parameter>
                            </effect>
                        </filter>
                        <link>
                            <linkclipref>2016-04-29 09_58_12.mov 15</linkclipref>
                        </link>
                        <link>
                            <linkclipref>2016-04-29 09_58_12.mov 44</linkclipref>
                        </link>
                        <link>
                            <linkclipref>2016-04-29 09_58_12.mov 32</linkclipref>
                        </link>
                        <link>
                            <linkclipref>2016-04-29 09_58_12.mov 56</linkclipref>
                        </link>
                        <link>
                            <linkclipref>2016-04-29 09_58_12.mov 68</linkclipref>
                        </link>
                    </clipitem>
                    <clipitem id="2016-04-29 09_58_12.mov 57">
                        <name>2016-04-29 09_58_12.mov</name>
                        <duration>52858</duration>
                        <rate>
                            <timebase>25</timebase>
                            <ntsc>false</ntsc>
                        </rate>
                        <start>28212</start>
                        <end>28571</end>
                        <enabled>true</enabled>
                        <in>26044</in>
                        <out>26403</out>
                        <file id="2016-04-29 09_58_12.mov 2"/>
                        <filter>
                            <enabled>true</enabled>
                            <start>0</start>
                            <end>52858</end>
                            <effect>
                                <name>Audio Levels</name>
                                <effectid>audiolevels</effectid>
                                <effecttype>audiolevels</effecttype>
                                <mediatype>audio</mediatype>
                                <effectcategory>audiolevels</effectcategory>
                                <parameter>
                                    <name>Level</name>
                                    <parameterid>level</parameterid>
                                    <value>1</value>
                                    <valuemin>1.58489319246111e-05</valuemin>
                                    <valuemax>10</valuemax>
                                </parameter>
                            </effect>
                        </filter>
                        <filter>
                            <enabled>true</enabled>
                            <start>0</start>
                            <end>52858</end>
                            <effect>
                                <name>Audio Pan</name>
                                <effectid>audiopan</effectid>
                                <effecttype>audiopan</effecttype>
                                <mediatype>audio</mediatype>
                                <effectcategory>audiopan</effectcategory>
                                <parameter>
                                    <name>Pan</name>
                                    <parameterid>pan</parameterid>
                                    <value>0</value>
                                    <valuemin>-1</valuemin>
                                    <valuemax>1</valuemax>
                                </parameter>
                            </effect>
                        </filter>
                        <link>
                            <linkclipref>2016-04-29 09_58_12.mov 17</linkclipref>
                        </link>
                        <link>
                            <linkclipref>2016-04-29 09_58_12.mov 45</linkclipref>
                        </link>
                        <link>
                            <linkclipref>2016-04-29 09_58_12.mov 33</linkclipref>
                        </link>
                        <link>
                            <linkclipref>2016-04-29 09_58_12.mov 57</linkclipref>
                        </link>
                        <link>
                            <linkclipref>2016-04-29 09_58_12.mov 69</linkclipref>
                        </link>
                    </clipitem>
                    <clipitem id="2016-04-29 09_58_12.mov 58">
                        <name>2016-04-29 09_58_12.mov</name>
                        <duration>52858</duration>
                        <rate>
                            <timebase>25</timebase>
                            <ntsc>false</ntsc>
                        </rate>
                        <start>28911</start>
                        <end>29201</end>
                        <enabled>true</enabled>
                        <in>26474</in>
                        <out>26764</out>
                        <file id="2016-04-29 09_58_12.mov 2"/>
                        <filter>
                            <enabled>true</enabled>
                            <start>0</start>
                            <end>52858</end>
                            <effect>
                                <name>Audio Levels</name>
                                <effectid>audiolevels</effectid>
                                <effecttype>audiolevels</effecttype>
                                <mediatype>audio</mediatype>
                                <effectcategory>audiolevels</effectcategory>
                                <parameter>
                                    <name>Level</name>
                                    <parameterid>level</parameterid>
                                    <value>1</value>
                                    <valuemin>1.58489319246111e-05</valuemin>
                                    <valuemax>10</valuemax>
                                </parameter>
                            </effect>
                        </filter>
                        <filter>
                            <enabled>true</enabled>
                            <start>0</start>
                            <end>52858</end>
                            <effect>
                                <name>Audio Pan</name>
                                <effectid>audiopan</effectid>
                                <effecttype>audiopan</effecttype>
                                <mediatype>audio</mediatype>
                                <effectcategory>audiopan</effectcategory>
                                <parameter>
                                    <name>Pan</name>
                                    <parameterid>pan</parameterid>
                                    <value>0</value>
                                    <valuemin>-1</valuemin>
                                    <valuemax>1</valuemax>
                                </parameter>
                            </effect>
                        </filter>
                        <link>
                            <linkclipref>2016-04-29 09_58_12.mov 19</linkclipref>
                        </link>
                        <link>
                            <linkclipref>2016-04-29 09_58_12.mov 46</linkclipref>
                        </link>
                        <link>
                            <linkclipref>2016-04-29 09_58_12.mov 34</linkclipref>
                        </link>
                        <link>
                            <linkclipref>2016-04-29 09_58_12.mov 58</linkclipref>
                        </link>
                        <link>
                            <linkclipref>2016-04-29 09_58_12.mov 70</linkclipref>
                        </link>
                    </clipitem>
                    <clipitem id="2016-04-29 09_58_12.mov 59">
                        <name>2016-04-29 09_58_12.mov</name>
                        <duration>52858</duration>
                        <rate>
                            <timebase>25</timebase>
                            <ntsc>false</ntsc>
                        </rate>
                        <start>31915</start>
                        <end>32668</end>
                        <enabled>true</enabled>
                        <in>29882</in>
                        <out>30635</out>
                        <file id="2016-04-29 09_58_12.mov 2"/>
                        <filter>
                            <enabled>true</enabled>
                            <start>0</start>
                            <end>52858</end>
                            <effect>
                                <name>Audio Levels</name>
                                <effectid>audiolevels</effectid>
                                <effecttype>audiolevels</effecttype>
                                <mediatype>audio</mediatype>
                                <effectcategory>audiolevels</effectcategory>
                                <parameter>
                                    <name>Level</name>
                                    <parameterid>level</parameterid>
                                    <value>1</value>
                                    <valuemin>1.58489319246111e-05</valuemin>
                                    <valuemax>10</valuemax>
                                </parameter>
                            </effect>
                        </filter>
                        <filter>
                            <enabled>true</enabled>
                            <start>0</start>
                            <end>52858</end>
                            <effect>
                                <name>Audio Pan</name>
                                <effectid>audiopan</effectid>
                                <effecttype>audiopan</effecttype>
                                <mediatype>audio</mediatype>
                                <effectcategory>audiopan</effectcategory>
                                <parameter>
                                    <name>Pan</name>
                                    <parameterid>pan</parameterid>
                                    <value>0</value>
                                    <valuemin>-1</valuemin>
                                    <valuemax>1</valuemax>
                                </parameter>
                            </effect>
                        </filter>
                        <link>
                            <linkclipref>2016-04-29 09_58_12.mov 21</linkclipref>
                        </link>
                        <link>
                            <linkclipref>2016-04-29 09_58_12.mov 47</linkclipref>
                        </link>
                        <link>
                            <linkclipref>2016-04-29 09_58_12.mov 35</linkclipref>
                        </link>
                        <link>
                            <linkclipref>2016-04-29 09_58_12.mov 59</linkclipref>
                        </link>
                        <link>
                            <linkclipref>2016-04-29 09_58_12.mov 71</linkclipref>
                        </link>
                    </clipitem>
                    <clipitem id="2016-04-29 09_58_12.mov 60">
                        <name>2016-04-29 09_58_12.mov</name>
                        <duration>52858</duration>
                        <rate>
                            <timebase>25</timebase>
                            <ntsc>false</ntsc>
                        </rate>
                        <start>44540</start>
                        <end>44741</end>
                        <enabled>true</enabled>
                        <in>43138</in>
                        <out>43339</out>
                        <file id="2016-04-29 09_58_12.mov 2"/>
                        <filter>
                            <enabled>true</enabled>
                            <start>0</start>
                            <end>52858</end>
                            <effect>
                                <name>Audio Levels</name>
                                <effectid>audiolevels</effectid>
                                <effecttype>audiolevels</effecttype>
                                <mediatype>audio</mediatype>
                                <effectcategory>audiolevels</effectcategory>
                                <parameter>
                                    <name>Level</name>
                                    <parameterid>level</parameterid>
                                    <value>1</value>
                                    <valuemin>1.58489319246111e-05</valuemin>
                                    <valuemax>10</valuemax>
                                </parameter>
                            </effect>
                        </filter>
                        <filter>
                            <enabled>true</enabled>
                            <start>0</start>
                            <end>52858</end>
                            <effect>
                                <name>Audio Pan</name>
                                <effectid>audiopan</effectid>
                                <effecttype>audiopan</effecttype>
                                <mediatype>audio</mediatype>
                                <effectcategory>audiopan</effectcategory>
                                <parameter>
                                    <name>Pan</name>
                                    <parameterid>pan</parameterid>
                                    <value>0</value>
                                    <valuemin>-1</valuemin>
                                    <valuemax>1</valuemax>
                                </parameter>
                            </effect>
                        </filter>
                        <link>
                            <linkclipref>2016-04-29 09_58_12.mov 23</linkclipref>
                        </link>
                        <link>
                            <linkclipref>2016-04-29 09_58_12.mov 48</linkclipref>
                        </link>
                        <link>
                            <linkclipref>2016-04-29 09_58_12.mov 36</linkclipref>
                        </link>
                        <link>
                            <linkclipref>2016-04-29 09_58_12.mov 60</linkclipref>
                        </link>
                        <link>
                            <linkclipref>2016-04-29 09_58_12.mov 72</linkclipref>
                        </link>
                    </clipitem>
                    <enabled>false</enabled>
                    <locked>false</locked>
                </track>
                <track>
                    <clipitem id="2016-04-29 09_58_12.mov 61">
                        <name>2016-04-29 09_58_12.mov</name>
                        <duration>52858</duration>
                        <rate>
                            <timebase>25</timebase>
                            <ntsc>false</ntsc>
                        </rate>
                        <start>19877</start>
                        <end>20727</end>
                        <enabled>true</enabled>
                        <in>17284</in>
                        <out>18134</out>
                        <file id="2016-04-29 09_58_12.mov 2"/>
                        <filter>
                            <enabled>true</enabled>
                            <start>0</start>
                            <end>52858</end>
                            <effect>
                                <name>Audio Levels</name>
                                <effectid>audiolevels</effectid>
                                <effecttype>audiolevels</effecttype>
                                <mediatype>audio</mediatype>
                                <effectcategory>audiolevels</effectcategory>
                                <parameter>
                                    <name>Level</name>
                                    <parameterid>level</parameterid>
                                    <value>1</value>
                                    <valuemin>1.58489319246111e-05</valuemin>
                                    <valuemax>10</valuemax>
                                </parameter>
                            </effect>
                        </filter>
                        <filter>
                            <enabled>true</enabled>
                            <start>0</start>
                            <end>52858</end>
                            <effect>
                                <name>Audio Pan</name>
                                <effectid>audiopan</effectid>
                                <effecttype>audiopan</effecttype>
                                <mediatype>audio</mediatype>
                                <effectcategory>audiopan</effectcategory>
                                <parameter>
                                    <name>Pan</name>
                                    <parameterid>pan</parameterid>
                                    <value>0</value>
                                    <valuemin>-1</valuemin>
                                    <valuemax>1</valuemax>
                                </parameter>
                            </effect>
                        </filter>
                        <link>
                            <linkclipref>2016-04-29 09_58_12.mov 0</linkclipref>
                        </link>
                        <link>
                            <linkclipref>2016-04-29 09_58_12.mov 49</linkclipref>
                        </link>
                        <link>
                            <linkclipref>2016-04-29 09_58_12.mov 37</linkclipref>
                        </link>
                        <link>
                            <linkclipref>2016-04-29 09_58_12.mov 25</linkclipref>
                        </link>
                        <link>
                            <linkclipref>2016-04-29 09_58_12.mov 61</linkclipref>
                        </link>
                    </clipitem>
                    <clipitem id="2016-04-29 09_58_12.mov 62">
                        <name>2016-04-29 09_58_12.mov</name>
                        <duration>52858</duration>
                        <rate>
                            <timebase>25</timebase>
                            <ntsc>false</ntsc>
                        </rate>
                        <start>21013</start>
                        <end>21343</end>
                        <enabled>true</enabled>
                        <in>18420</in>
                        <out>18750</out>
                        <file id="2016-04-29 09_58_12.mov 2"/>
                        <filter>
                            <enabled>true</enabled>
                            <start>0</start>
                            <end>52858</end>
                            <effect>
                                <name>Audio Levels</name>
                                <effectid>audiolevels</effectid>
                                <effecttype>audiolevels</effecttype>
                                <mediatype>audio</mediatype>
                                <effectcategory>audiolevels</effectcategory>
                                <parameter>
                                    <name>Level</name>
                                    <parameterid>level</parameterid>
                                    <value>1</value>
                                    <valuemin>1.58489319246111e-05</valuemin>
                                    <valuemax>10</valuemax>
                                </parameter>
                            </effect>
                        </filter>
                        <filter>
                            <enabled>true</enabled>
                            <start>0</start>
                            <end>52858</end>
                            <effect>
                                <name>Audio Pan</name>
                                <effectid>audiopan</effectid>
                                <effecttype>audiopan</effecttype>
                                <mediatype>audio</mediatype>
                                <effectcategory>audiopan</effectcategory>
                                <parameter>
                                    <name>Pan</name>
                                    <parameterid>pan</parameterid>
                                    <value>0</value>
                                    <valuemin>-1</valuemin>
                                    <valuemax>1</valuemax>
                                </parameter>
                            </effect>
                        </filter>
                        <link>
                            <linkclipref>2016-04-29 09_58_12.mov 3</linkclipref>
                        </link>
                        <link>
                            <linkclipref>2016-04-29 09_58_12.mov 50</linkclipref>
                        </link>
                        <link>
                            <linkclipref>2016-04-29 09_58_12.mov 38</linkclipref>
                        </link>
                        <link>
                            <linkclipref>2016-04-29 09_58_12.mov 26</linkclipref>
                        </link>
                        <link>
                            <linkclipref>2016-04-29 09_58_12.mov 62</linkclipref>
                        </link>
                    </clipitem>
                    <clipitem id="2016-04-29 09_58_12.mov 63">
                        <name>2016-04-29 09_58_12.mov</name>
                        <duration>52858</duration>
                        <rate>
                            <timebase>25</timebase>
                            <ntsc>false</ntsc>
                        </rate>
                        <start>22304</start>
                        <end>22519</end>
                        <enabled>true</enabled>
                        <in>19790</in>
                        <out>20005</out>
                        <file id="2016-04-29 09_58_12.mov 2"/>
                        <filter>
                            <enabled>true</enabled>
                            <start>0</start>
                            <end>52858</end>
                            <effect>
                                <name>Audio Levels</name>
                                <effectid>audiolevels</effectid>
                                <effecttype>audiolevels</effecttype>
                                <mediatype>audio</mediatype>
                                <effectcategory>audiolevels</effectcategory>
                                <parameter>
                                    <name>Level</name>
                                    <parameterid>level</parameterid>
                                    <value>1</value>
                                    <valuemin>1.58489319246111e-05</valuemin>
                                    <valuemax>10</valuemax>
                                </parameter>
                            </effect>
                        </filter>
                        <filter>
                            <enabled>true</enabled>
                            <start>0</start>
                            <end>52858</end>
                            <effect>
                                <name>Audio Pan</name>
                                <effectid>audiopan</effectid>
                                <effecttype>audiopan</effecttype>
                                <mediatype>audio</mediatype>
                                <effectcategory>audiopan</effectcategory>
                                <parameter>
                                    <name>Pan</name>
                                    <parameterid>pan</parameterid>
                                    <value>0</value>
                                    <valuemin>-1</valuemin>
                                    <valuemax>1</valuemax>
                                </parameter>
                            </effect>
                        </filter>
                        <link>
                            <linkclipref>2016-04-29 09_58_12.mov 5</linkclipref>
                        </link>
                        <link>
                            <linkclipref>2016-04-29 09_58_12.mov 51</linkclipref>
                        </link>
                        <link>
                            <linkclipref>2016-04-29 09_58_12.mov 39</linkclipref>
                        </link>
                        <link>
                            <linkclipref>2016-04-29 09_58_12.mov 27</linkclipref>
                        </link>
                        <link>
                            <linkclipref>2016-04-29 09_58_12.mov 63</linkclipref>
                        </link>
                    </clipitem>
                    <clipitem id="2016-04-29 09_58_12.mov 64">
                        <name>2016-04-29 09_58_12.mov</name>
                        <duration>52858</duration>
                        <rate>
                            <timebase>25</timebase>
                            <ntsc>false</ntsc>
                        </rate>
                        <start>22961</start>
                        <end>23292</end>
                        <enabled>true</enabled>
                        <in>20684</in>
                        <out>21015</out>
                        <file id="2016-04-29 09_58_12.mov 2"/>
                        <filter>
                            <enabled>true</enabled>
                            <start>0</start>
                            <end>52858</end>
                            <effect>
                                <name>Audio Levels</name>
                                <effectid>audiolevels</effectid>
                                <effecttype>audiolevels</effecttype>
                                <mediatype>audio</mediatype>
                                <effectcategory>audiolevels</effectcategory>
                                <parameter>
                                    <name>Level</name>
                                    <parameterid>level</parameterid>
                                    <value>1</value>
                                    <valuemin>1.58489319246111e-05</valuemin>
                                    <valuemax>10</valuemax>
                                </parameter>
                            </effect>
                        </filter>
                        <filter>
                            <enabled>true</enabled>
                            <start>0</start>
                            <end>52858</end>
                            <effect>
                                <name>Audio Pan</name>
                                <effectid>audiopan</effectid>
                                <effecttype>audiopan</effecttype>
                                <mediatype>audio</mediatype>
                                <effectcategory>audiopan</effectcategory>
                                <parameter>
                                    <name>Pan</name>
                                    <parameterid>pan</parameterid>
                                    <value>0</value>
                                    <valuemin>-1</valuemin>
                                    <valuemax>1</valuemax>
                                </parameter>
                            </effect>
                        </filter>
                        <link>
                            <linkclipref>2016-04-29 09_58_12.mov 7</linkclipref>
                        </link>
                        <link>
                            <linkclipref>2016-04-29 09_58_12.mov 52</linkclipref>
                        </link>
                        <link>
                            <linkclipref>2016-04-29 09_58_12.mov 40</linkclipref>
                        </link>
                        <link>
                            <linkclipref>2016-04-29 09_58_12.mov 28</linkclipref>
                        </link>
                        <link>
                            <linkclipref>2016-04-29 09_58_12.mov 64</linkclipref>
                        </link>
                    </clipitem>
                    <clipitem id="2016-04-29 09_58_12.mov 65">
                        <name>2016-04-29 09_58_12.mov</name>
                        <duration>52858</duration>
                        <rate>
                            <timebase>25</timebase>
                            <ntsc>false</ntsc>
                        </rate>
                        <start>23750</start>
                        <end>24027</end>
                        <enabled>true</enabled>
                        <in>21454</in>
                        <out>21731</out>
                        <file id="2016-04-29 09_58_12.mov 2"/>
                        <filter>
                            <enabled>true</enabled>
                            <start>0</start>
                            <end>52858</end>
                            <effect>
                                <name>Audio Levels</name>
                                <effectid>audiolevels</effectid>
                                <effecttype>audiolevels</effecttype>
                                <mediatype>audio</mediatype>
                                <effectcategory>audiolevels</effectcategory>
                                <parameter>
                                    <name>Level</name>
                                    <parameterid>level</parameterid>
                                    <value>1</value>
                                    <valuemin>1.58489319246111e-05</valuemin>
                                    <valuemax>10</valuemax>
                                </parameter>
                            </effect>
                        </filter>
                        <filter>
                            <enabled>true</enabled>
                            <start>0</start>
                            <end>52858</end>
                            <effect>
                                <name>Audio Pan</name>
                                <effectid>audiopan</effectid>
                                <effecttype>audiopan</effecttype>
                                <mediatype>audio</mediatype>
                                <effectcategory>audiopan</effectcategory>
                                <parameter>
                                    <name>Pan</name>
                                    <parameterid>pan</parameterid>
                                    <value>0</value>
                                    <valuemin>-1</valuemin>
                                    <valuemax>1</valuemax>
                                </parameter>
                            </effect>
                        </filter>
                        <link>
                            <linkclipref>2016-04-29 09_58_12.mov 9</linkclipref>
                        </link>
                        <link>
                            <linkclipref>2016-04-29 09_58_12.mov 53</linkclipref>
                        </link>
                        <link>
                            <linkclipref>2016-04-29 09_58_12.mov 41</linkclipref>
                        </link>
                        <link>
                            <linkclipref>2016-04-29 09_58_12.mov 29</linkclipref>
                        </link>
                        <link>
                            <linkclipref>2016-04-29 09_58_12.mov 65</linkclipref>
                        </link>
                    </clipitem>
                    <clipitem id="2016-04-29 09_58_12.mov 66">
                        <name>2016-04-29 09_58_12.mov</name>
                        <duration>52858</duration>
                        <rate>
                            <timebase>25</timebase>
                            <ntsc>false</ntsc>
                        </rate>
                        <start>24159</start>
                        <end>24606</end>
                        <enabled>true</enabled>
                        <in>21923</in>
                        <out>22370</out>
                        <file id="2016-04-29 09_58_12.mov 2"/>
                        <filter>
                            <enabled>true</enabled>
                            <start>0</start>
                            <end>52858</end>
                            <effect>
                                <name>Audio Levels</name>
                                <effectid>audiolevels</effectid>
                                <effecttype>audiolevels</effecttype>
                                <mediatype>audio</mediatype>
                                <effectcategory>audiolevels</effectcategory>
                                <parameter>
                                    <name>Level</name>
                                    <parameterid>level</parameterid>
                                    <value>1</value>
                                    <valuemin>1.58489319246111e-05</valuemin>
                                    <valuemax>10</valuemax>
                                </parameter>
                            </effect>
                        </filter>
                        <filter>
                            <enabled>true</enabled>
                            <start>0</start>
                            <end>52858</end>
                            <effect>
                                <name>Audio Pan</name>
                                <effectid>audiopan</effectid>
                                <effecttype>audiopan</effecttype>
                                <mediatype>audio</mediatype>
                                <effectcategory>audiopan</effectcategory>
                                <parameter>
                                    <name>Pan</name>
                                    <parameterid>pan</parameterid>
                                    <value>0</value>
                                    <valuemin>-1</valuemin>
                                    <valuemax>1</valuemax>
                                </parameter>
                            </effect>
                        </filter>
                        <link>
                            <linkclipref>2016-04-29 09_58_12.mov 11</linkclipref>
                        </link>
                        <link>
                            <linkclipref>2016-04-29 09_58_12.mov 54</linkclipref>
                        </link>
                        <link>
                            <linkclipref>2016-04-29 09_58_12.mov 42</linkclipref>
                        </link>
                        <link>
                            <linkclipref>2016-04-29 09_58_12.mov 30</linkclipref>
                        </link>
                        <link>
                            <linkclipref>2016-04-29 09_58_12.mov 66</linkclipref>
                        </link>
                    </clipitem>
                    <clipitem id="2016-04-29 09_58_12.mov 67">
                        <name>2016-04-29 09_58_12.mov</name>
                        <duration>52858</duration>
                        <rate>
                            <timebase>25</timebase>
                            <ntsc>false</ntsc>
                        </rate>
                        <start>25821</start>
                        <end>26515</end>
                        <enabled>true</enabled>
                        <in>23585</in>
                        <out>24279</out>
                        <file id="2016-04-29 09_58_12.mov 2"/>
                        <filter>
                            <enabled>true</enabled>
                            <start>0</start>
                            <end>52858</end>
                            <effect>
                                <name>Audio Levels</name>
                                <effectid>audiolevels</effectid>
                                <effecttype>audiolevels</effecttype>
                                <mediatype>audio</mediatype>
                                <effectcategory>audiolevels</effectcategory>
                                <parameter>
                                    <name>Level</name>
                                    <parameterid>level</parameterid>
                                    <value>1</value>
                                    <valuemin>1.58489319246111e-05</valuemin>
                                    <valuemax>10</valuemax>
                                </parameter>
                            </effect>
                        </filter>
                        <filter>
                            <enabled>true</enabled>
                            <start>0</start>
                            <end>52858</end>
                            <effect>
                                <name>Audio Pan</name>
                                <effectid>audiopan</effectid>
                                <effecttype>audiopan</effecttype>
                                <mediatype>audio</mediatype>
                                <effectcategory>audiopan</effectcategory>
                                <parameter>
                                    <name>Pan</name>
                                    <parameterid>pan</parameterid>
                                    <value>0</value>
                                    <valuemin>-1</valuemin>
                                    <valuemax>1</valuemax>
                                </parameter>
                            </effect>
                        </filter>
                        <link>
                            <linkclipref>2016-04-29 09_58_12.mov 13</linkclipref>
                        </link>
                        <link>
                            <linkclipref>2016-04-29 09_58_12.mov 55</linkclipref>
                        </link>
                        <link>
                            <linkclipref>2016-04-29 09_58_12.mov 43</linkclipref>
                        </link>
                        <link>
                            <linkclipref>2016-04-29 09_58_12.mov 31</linkclipref>
                        </link>
                        <link>
                            <linkclipref>2016-04-29 09_58_12.mov 67</linkclipref>
                        </link>
                    </clipitem>
                    <clipitem id="2016-04-29 09_58_12.mov 68">
                        <name>2016-04-29 09_58_12.mov</name>
                        <duration>52858</duration>
                        <rate>
                            <timebase>25</timebase>
                            <ntsc>false</ntsc>
                        </rate>
                        <start>27417</start>
                        <end>27737</end>
                        <enabled>true</enabled>
                        <in>25181</in>
                        <out>25501</out>
                        <file id="2016-04-29 09_58_12.mov 2"/>
                        <filter>
                            <enabled>true</enabled>
                            <start>0</start>
                            <end>52858</end>
                            <effect>
                                <name>Audio Levels</name>
                                <effectid>audiolevels</effectid>
                                <effecttype>audiolevels</effecttype>
                                <mediatype>audio</mediatype>
                                <effectcategory>audiolevels</effectcategory>
                                <parameter>
                                    <name>Level</name>
                                    <parameterid>level</parameterid>
                                    <value>1</value>
                                    <valuemin>1.58489319246111e-05</valuemin>
                                    <valuemax>10</valuemax>
                                </parameter>
                            </effect>
                        </filter>
                        <filter>
                            <enabled>true</enabled>
                            <start>0</start>
                            <end>52858</end>
                            <effect>
                                <name>Audio Pan</name>
                                <effectid>audiopan</effectid>
                                <effecttype>audiopan</effecttype>
                                <mediatype>audio</mediatype>
                                <effectcategory>audiopan</effectcategory>
                                <parameter>
                                    <name>Pan</name>
                                    <parameterid>pan</parameterid>
                                    <value>0</value>
                                    <valuemin>-1</valuemin>
                                    <valuemax>1</valuemax>
                                </parameter>
                            </effect>
                        </filter>
                        <link>
                            <linkclipref>2016-04-29 09_58_12.mov 15</linkclipref>
                        </link>
                        <link>
                            <linkclipref>2016-04-29 09_58_12.mov 56</linkclipref>
                        </link>
                        <link>
                            <linkclipref>2016-04-29 09_58_12.mov 44</linkclipref>
                        </link>
                        <link>
                            <linkclipref>2016-04-29 09_58_12.mov 32</linkclipref>
                        </link>
                        <link>
                            <linkclipref>2016-04-29 09_58_12.mov 68</linkclipref>
                        </link>
                    </clipitem>
                    <clipitem id="2016-04-29 09_58_12.mov 69">
                        <name>2016-04-29 09_58_12.mov</name>
                        <duration>52858</duration>
                        <rate>
                            <timebase>25</timebase>
                            <ntsc>false</ntsc>
                        </rate>
                        <start>28212</start>
                        <end>28571</end>
                        <enabled>true</enabled>
                        <in>26044</in>
                        <out>26403</out>
                        <file id="2016-04-29 09_58_12.mov 2"/>
                        <filter>
                            <enabled>true</enabled>
                            <start>0</start>
                            <end>52858</end>
                            <effect>
                                <name>Audio Levels</name>
                                <effectid>audiolevels</effectid>
                                <effecttype>audiolevels</effecttype>
                                <mediatype>audio</mediatype>
                                <effectcategory>audiolevels</effectcategory>
                                <parameter>
                                    <name>Level</name>
                                    <parameterid>level</parameterid>
                                    <value>1</value>
                                    <valuemin>1.58489319246111e-05</valuemin>
                                    <valuemax>10</valuemax>
                                </parameter>
                            </effect>
                        </filter>
                        <filter>
                            <enabled>true</enabled>
                            <start>0</start>
                            <end>52858</end>
                            <effect>
                                <name>Audio Pan</name>
                                <effectid>audiopan</effectid>
                                <effecttype>audiopan</effecttype>
                                <mediatype>audio</mediatype>
                                <effectcategory>audiopan</effectcategory>
                                <parameter>
                                    <name>Pan</name>
                                    <parameterid>pan</parameterid>
                                    <value>0</value>
                                    <valuemin>-1</valuemin>
                                    <valuemax>1</valuemax>
                                </parameter>
                            </effect>
                        </filter>
                        <link>
                            <linkclipref>2016-04-29 09_58_12.mov 17</linkclipref>
                        </link>
                        <link>
                            <linkclipref>2016-04-29 09_58_12.mov 57</linkclipref>
                        </link>
                        <link>
                            <linkclipref>2016-04-29 09_58_12.mov 45</linkclipref>
                        </link>
                        <link>
                            <linkclipref>2016-04-29 09_58_12.mov 33</linkclipref>
                        </link>
                        <link>
                            <linkclipref>2016-04-29 09_58_12.mov 69</linkclipref>
                        </link>
                    </clipitem>
                    <clipitem id="2016-04-29 09_58_12.mov 70">
                        <name>2016-04-29 09_58_12.mov</name>
                        <duration>52858</duration>
                        <rate>
                            <timebase>25</timebase>
                            <ntsc>false</ntsc>
                        </rate>
                        <start>28911</start>
                        <end>29201</end>
                        <enabled>true</enabled>
                        <in>26474</in>
                        <out>26764</out>
                        <file id="2016-04-29 09_58_12.mov 2"/>
                        <filter>
                            <enabled>true</enabled>
                            <start>0</start>
                            <end>52858</end>
                            <effect>
                                <name>Audio Levels</name>
                                <effectid>audiolevels</effectid>
                                <effecttype>audiolevels</effecttype>
                                <mediatype>audio</mediatype>
                                <effectcategory>audiolevels</effectcategory>
                                <parameter>
                                    <name>Level</name>
                                    <parameterid>level</parameterid>
                                    <value>1</value>
                                    <valuemin>1.58489319246111e-05</valuemin>
                                    <valuemax>10</valuemax>
                                </parameter>
                            </effect>
                        </filter>
                        <filter>
                            <enabled>true</enabled>
                            <start>0</start>
                            <end>52858</end>
                            <effect>
                                <name>Audio Pan</name>
                                <effectid>audiopan</effectid>
                                <effecttype>audiopan</effecttype>
                                <mediatype>audio</mediatype>
                                <effectcategory>audiopan</effectcategory>
                                <parameter>
                                    <name>Pan</name>
                                    <parameterid>pan</parameterid>
                                    <value>0</value>
                                    <valuemin>-1</valuemin>
                                    <valuemax>1</valuemax>
                                </parameter>
                            </effect>
                        </filter>
                        <link>
                            <linkclipref>2016-04-29 09_58_12.mov 19</linkclipref>
                        </link>
                        <link>
                            <linkclipref>2016-04-29 09_58_12.mov 58</linkclipref>
                        </link>
                        <link>
                            <linkclipref>2016-04-29 09_58_12.mov 46</linkclipref>
                        </link>
                        <link>
                            <linkclipref>2016-04-29 09_58_12.mov 34</linkclipref>
                        </link>
                        <link>
                            <linkclipref>2016-04-29 09_58_12.mov 70</linkclipref>
                        </link>
                    </clipitem>
                    <clipitem id="2016-04-29 09_58_12.mov 71">
                        <name>2016-04-29 09_58_12.mov</name>
                        <duration>52858</duration>
                        <rate>
                            <timebase>25</timebase>
                            <ntsc>false</ntsc>
                        </rate>
                        <start>31915</start>
                        <end>32668</end>
                        <enabled>true</enabled>
                        <in>29882</in>
                        <out>30635</out>
                        <file id="2016-04-29 09_58_12.mov 2"/>
                        <filter>
                            <enabled>true</enabled>
                            <start>0</start>
                            <end>52858</end>
                            <effect>
                                <name>Audio Levels</name>
                                <effectid>audiolevels</effectid>
                                <effecttype>audiolevels</effecttype>
                                <mediatype>audio</mediatype>
                                <effectcategory>audiolevels</effectcategory>
                                <parameter>
                                    <name>Level</name>
                                    <parameterid>level</parameterid>
                                    <value>1</value>
                                    <valuemin>1.58489319246111e-05</valuemin>
                                    <valuemax>10</valuemax>
                                </parameter>
                            </effect>
                        </filter>
                        <filter>
                            <enabled>true</enabled>
                            <start>0</start>
                            <end>52858</end>
                            <effect>
                                <name>Audio Pan</name>
                                <effectid>audiopan</effectid>
                                <effecttype>audiopan</effecttype>
                                <mediatype>audio</mediatype>
                                <effectcategory>audiopan</effectcategory>
                                <parameter>
                                    <name>Pan</name>
                                    <parameterid>pan</parameterid>
                                    <value>0</value>
                                    <valuemin>-1</valuemin>
                                    <valuemax>1</valuemax>
                                </parameter>
                            </effect>
                        </filter>
                        <link>
                            <linkclipref>2016-04-29 09_58_12.mov 21</linkclipref>
                        </link>
                        <link>
                            <linkclipref>2016-04-29 09_58_12.mov 59</linkclipref>
                        </link>
                        <link>
                            <linkclipref>2016-04-29 09_58_12.mov 47</linkclipref>
                        </link>
                        <link>
                            <linkclipref>2016-04-29 09_58_12.mov 35</linkclipref>
                        </link>
                        <link>
                            <linkclipref>2016-04-29 09_58_12.mov 71</linkclipref>
                        </link>
                    </clipitem>
                    <clipitem id="2016-04-29 09_58_12.mov 72">
                        <name>2016-04-29 09_58_12.mov</name>
                        <duration>52858</duration>
                        <rate>
                            <timebase>25</timebase>
                            <ntsc>false</ntsc>
                        </rate>
                        <start>44540</start>
                        <end>44741</end>
                        <enabled>true</enabled>
                        <in>43138</in>
                        <out>43339</out>
                        <file id="2016-04-29 09_58_12.mov 2"/>
                        <filter>
                            <enabled>true</enabled>
                            <start>0</start>
                            <end>52858</end>
                            <effect>
                                <name>Audio Levels</name>
                                <effectid>audiolevels</effectid>
                                <effecttype>audiolevels</effecttype>
                                <mediatype>audio</mediatype>
                                <effectcategory>audiolevels</effectcategory>
                                <parameter>
                                    <name>Level</name>
                                    <parameterid>level</parameterid>
                                    <value>1</value>
                                    <valuemin>1.58489319246111e-05</valuemin>
                                    <valuemax>10</valuemax>
                                </parameter>
                            </effect>
                        </filter>
                        <filter>
                            <enabled>true</enabled>
                            <start>0</start>
                            <end>52858</end>
                            <effect>
                                <name>Audio Pan</name>
                                <effectid>audiopan</effectid>
                                <effecttype>audiopan</effecttype>
                                <mediatype>audio</mediatype>
                                <effectcategory>audiopan</effectcategory>
                                <parameter>
                                    <name>Pan</name>
                                    <parameterid>pan</parameterid>
                                    <value>0</value>
                                    <valuemin>-1</valuemin>
                                    <valuemax>1</valuemax>
                                </parameter>
                            </effect>
                        </filter>
                        <link>
                            <linkclipref>2016-04-29 09_58_12.mov 23</linkclipref>
                        </link>
                        <link>
                            <linkclipref>2016-04-29 09_58_12.mov 60</linkclipref>
                        </link>
                        <link>
                            <linkclipref>2016-04-29 09_58_12.mov 48</linkclipref>
                        </link>
                        <link>
                            <linkclipref>2016-04-29 09_58_12.mov 36</linkclipref>
                        </link>
                        <link>
                            <linkclipref>2016-04-29 09_58_12.mov 72</linkclipref>
                        </link>
                    </clipitem>
                    <enabled>false</enabled>
                    <locked>false</locked>
                </track>
                <track>
                    <enabled>true</enabled>
                    <locked>false</locked>
                </track>
            </audio>
        </media>
    </sequence>
</xmeml>
